<?xml version="1.0" standalone="no"?>
<!DOCTYPE svg PUBLIC "-//W3C//DTD SVG 20010904//EN" "http://www.w3.org/TR/2001/REC-SVG-20010904/DTD/svg10.dtd">
<!-- Created using Krita: https://krita.org -->
<svg xmlns="http://www.w3.org/2000/svg" 
    xmlns:xlink="http://www.w3.org/1999/xlink"
    xmlns:krita="http://krita.org/namespaces/svg/krita"
    xmlns:sodipodi="http://sodipodi.sourceforge.net/DTD/sodipodi-0.dtd"
    width="92.88pt"
    height="215.28pt"
    viewBox="0 0 92.88 215.28">
<defs/>
<path id="shape0" transform="translate(26.3467980152279, 66.9488683865211)" fill="none" stroke="#000000" stroke-width="1.44" stroke-linecap="square" stroke-linejoin="miter" stroke-miterlimit="2" d="M0 145.098L10.946 0" sodipodi:nodetypes="cc"/><path id="shape1" transform="translate(21.7647461864926, 31.056129061428)" fill="none" stroke="#000000" stroke-width="1.44" stroke-linecap="square" stroke-linejoin="miter" stroke-miterlimit="2" d="M15.5281 35.8927L0 0" sodipodi:nodetypes="cc"/><path id="shape2" transform="translate(5.09116869859476, 31.056129061428)" fill="none" stroke="#000000" stroke-width="1.44" stroke-linecap="square" stroke-linejoin="miter" stroke-miterlimit="2" d="M16.6736 0L0 0" sodipodi:nodetypes="cc"/><path id="shape3" transform="translate(5.09116869859476, 26.4740772326928)" fill="none" stroke="#000000" stroke-width="1.44" stroke-linecap="square" stroke-linejoin="miter" stroke-miterlimit="2" d="M0 4.58205L12.0915 0" sodipodi:nodetypes="cc"/><path id="shape4" transform="translate(17.1826943577573, 10.691454267049)" fill="none" stroke="#000000" stroke-width="1.44" stroke-linecap="square" stroke-linejoin="miter" stroke-miterlimit="2" d="M0 15.6553L8.14587 0" sodipodi:nodetypes="cc"/><path id="shape5" transform="translate(25.3285642755089, 3.05470121915686)" fill="none" stroke="#000000" stroke-width="1.44" stroke-linecap="square" stroke-linejoin="miter" stroke-miterlimit="2" d="M0 7.63675L3.6911 0" sodipodi:nodetypes="cc"/><path id="shape6" transform="translate(29.0196615819901, 3.05470121915686)" fill="none" stroke="#000000" stroke-width="1.44" stroke-linecap="square" stroke-linejoin="miter" stroke-miterlimit="2" d="M0 0L3.43654 7.50947" sodipodi:nodetypes="cc"/><path id="shape7" transform="translate(32.4562004535416, 10.5641750495841)" fill="none" stroke="#000000" stroke-width="1.44" stroke-linecap="square" stroke-linejoin="miter" stroke-miterlimit="2" d="M0 0L28.256 0" sodipodi:nodetypes="cc"/><path id="shape8" transform="translate(60.7121867307425, 3.18198043662173)" fill="none" stroke="#000000" stroke-width="1.44" stroke-linecap="square" stroke-linejoin="miter" stroke-miterlimit="2" d="M0 7.38219L3.18198 0" sodipodi:nodetypes="cc"/><path id="shape9" transform="translate(63.8941671673643, 3.18198043662173)" fill="none" stroke="#000000" stroke-width="1.44" stroke-linecap="square" stroke-linejoin="miter" stroke-miterlimit="2" d="M0 0L3.56382 7.38219" sodipodi:nodetypes="cc"/><path id="shape10" transform="translate(67.4579852563806, 10.5641750495841)" fill="none" stroke="#000000" stroke-width="1.44" stroke-linecap="square" stroke-linejoin="miter" stroke-miterlimit="2" d="M0 0L7.50947 15.6553" sodipodi:nodetypes="cc"/><path id="shape11" transform="translate(74.9674590868079, 26.219518797763)" fill="none" stroke="#000000" stroke-width="1.44" stroke-linecap="square" stroke-linejoin="miter" stroke-miterlimit="2" d="M0 0L12.4734 4.45477" sodipodi:nodetypes="cc"/><path id="shape12" transform="translate(70.7672449104672, 30.5470121915686)" fill="none" stroke="#000000" stroke-width="1.44" stroke-linecap="square" stroke-linejoin="miter" stroke-miterlimit="2" d="M16.6736 0.127279L0 0" sodipodi:nodetypes="cc"/><path id="shape13" transform="translate(55.2391803797532, 30.5470121915686)" fill="none" stroke="#000000" stroke-width="1.44" stroke-linecap="square" stroke-linejoin="miter" stroke-miterlimit="2" d="M15.5281 0L0 36.5291" sodipodi:nodetypes="cc"/><path id="shape14" transform="translate(55.2391803797532, 67.076147603986)" fill="none" stroke="#000000" stroke-width="1.44" stroke-linecap="square" stroke-linejoin="miter" stroke-miterlimit="2" d="M0 0L10.4369 144.716" sodipodi:nodetypes="cc"/><path id="shape15" transform="translate(21.7647473317639, 15.9099030202953)" fill="none" stroke="#000000" stroke-width="1.44" stroke-linecap="square" stroke-linejoin="miter" stroke-miterlimit="2" d="M0 15.1462L8.40043 0" sodipodi:nodetypes="cc"/><path id="shape16" transform="translate(30.1651761264798, 15.7826237961329)" fill="none" stroke="#000000" stroke-width="1.44" stroke-linecap="square" stroke-linejoin="miter" stroke-miterlimit="2" d="M0 0.127279L32.4562 0" sodipodi:nodetypes="cc"/><path id="shape17" transform="translate(62.6213782878821, 15.7826237961329)" fill="none" stroke="#000000" stroke-width="1.44" stroke-linecap="square" stroke-linejoin="miter" stroke-miterlimit="2" d="M0 0L8.14587 14.8917" sodipodi:nodetypes="cc"/><path id="shape18" transform="translate(46.0750791467751, 30.6742930231293)" fill="none" stroke="#000000" stroke-width="1.44" stroke-linecap="square" stroke-linejoin="miter" stroke-miterlimit="2" d="M24.6922 0L0 26.9832" sodipodi:nodetypes="cc"/><path id="shape19" transform="translate(22.146585004251, 31.1834099197787)" fill="none" stroke="#000000" stroke-width="1.44" stroke-linecap="square" stroke-linejoin="miter" stroke-miterlimit="2" d="M23.9285 26.4741L0 0" sodipodi:nodetypes="cc"/><path id="shape20" transform="translate(26.4600003525247, 175.320002335776)" fill="none" stroke="#000000" stroke-width="0.72" stroke-linecap="square" stroke-linejoin="miter" stroke-miterlimit="2" d="M0 35.1L37.08 0" sodipodi:nodetypes="cc"/><path id="shape21" transform="translate(31.6800004220703, 138.960001851354)" fill="none" stroke="#000000" stroke-width="0.72" stroke-linecap="square" stroke-linejoin="miter" stroke-miterlimit="2" d="M31.86 36.36L0 0" sodipodi:nodetypes="cc"/><path id="shape22" transform="translate(31.6800004220703, 104.040002078681)" fill="none" stroke="#000000" stroke-width="0.72" stroke-linecap="square" stroke-linejoin="miter" stroke-miterlimit="2" d="M0 34.92L26.0325 0" sodipodi:nodetypes="cc"/><path id="shape23" transform="translate(35.8200004772273, 82.260001095944)" fill="none" stroke="#000000" stroke-width="0.72" stroke-linecap="square" stroke-linejoin="miter" stroke-miterlimit="2" d="M21.96 21.7575L0 0" sodipodi:nodetypes="cc"/><path id="shape24" transform="translate(35.8200004772273, 66.7800008897051)" fill="none" stroke="#000000" stroke-width="0.72" stroke-linecap="square" stroke-linejoin="miter" stroke-miterlimit="2" d="M0 15.48L19.44 0" sodipodi:nodetypes="cc"/><path id="shape25" transform="translate(37.2600004964123, 66.6000008873069)" fill="none" stroke="#000000" stroke-width="0.72" stroke-linecap="square" stroke-linejoin="miter" stroke-miterlimit="2" d="M0 0L18.9 16.2" sodipodi:nodetypes="cc"/><path id="shape26" transform="translate(34.3800004580422, 82.8000011031384)" fill="none" stroke="#000000" stroke-width="0.72" stroke-linecap="square" stroke-linejoin="miter" stroke-miterlimit="2" d="M21.78 0L0 20.88" sodipodi:nodetypes="cc"/><path id="shape27" transform="translate(34.3800004580422, 103.680001381321)" fill="none" stroke="#000000" stroke-width="0.72" stroke-linecap="square" stroke-linejoin="miter" stroke-miterlimit="2" d="M0 0L26.1 35.82" sodipodi:nodetypes="cc"/><path id="shape28" transform="translate(29.1600003884966, 139.500001858548)" fill="none" stroke="#000000" stroke-width="0.72" stroke-linecap="square" stroke-linejoin="miter" stroke-miterlimit="2" d="M31.32 0L0 36.18" sodipodi:nodetypes="cc"/><path id="shape29" transform="translate(29.1600003884966, 175.680002340572)" fill="none" stroke="#000000" stroke-width="0.72" stroke-linecap="square" stroke-linejoin="miter" stroke-miterlimit="2" d="M0 0L36.72 34.92" sodipodi:nodetypes="cc"/><path id="shape30" transform="translate(37.292811593684, 66.8215907395362)" fill="none" stroke="#000000" stroke-width="0.72" stroke-linecap="square" stroke-linejoin="miter" stroke-miterlimit="2" d="M0 0.127279L18.2009 0" sodipodi:nodetypes="cc"/><path id="shape31" transform="translate(46.7114739074472, 54.2209479143666)" fill="none" stroke="#000000" stroke-width="0.72" stroke-linecap="square" stroke-linejoin="miter" stroke-miterlimit="2" d="M0 3.30926L14.128 0" sodipodi:nodetypes="cc"/><path id="shape32" transform="translate(55.8755777802979, 47.2205907892723)" fill="none" stroke="#000000" stroke-width="0.72" stroke-linecap="square" stroke-linejoin="miter" stroke-miterlimit="2" d="M4.96389 7.00036L0 0" sodipodi:nodetypes="cc"/><path id="shape33" transform="translate(55.8755777802979, 47.093311568816)" fill="none" stroke="#000000" stroke-width="0.72" stroke-linecap="square" stroke-linejoin="miter" stroke-miterlimit="2" d="M0 0.127279L7.76403 0" sodipodi:nodetypes="cc"/><path id="shape34" transform="translate(62.6213764644797, 40.0929544437218)" fill="none" stroke="#000000" stroke-width="0.72" stroke-linecap="square" stroke-linejoin="miter" stroke-miterlimit="2" d="M1.01823 7.00036L0 0" sodipodi:nodetypes="cc"/><path id="shape35" transform="translate(62.6213764644797, 40.0929544437218)" fill="none" stroke="#000000" stroke-width="0.72" stroke-linecap="square" stroke-linejoin="miter" stroke-miterlimit="2" d="M0 0L4.07294 0" sodipodi:nodetypes="cc"/><path id="shape36" transform="translate(32.0743635549774, 55.1119024575604)" fill="none" stroke="#000000" stroke-width="0.72" stroke-linecap="square" stroke-linejoin="miter" stroke-miterlimit="2" d="M14.128 2.41831L0 0" sodipodi:nodetypes="cc"/><path id="shape37" transform="translate(32.0743635549774, 47.4751492301848)" fill="none" stroke="#000000" stroke-width="0.72" stroke-linecap="square" stroke-linejoin="miter" stroke-miterlimit="2" d="M0 7.63675L4.70933 0" sodipodi:nodetypes="cc"/><path id="shape38" transform="translate(28.6378246026584, 47.3478700097285)" fill="none" stroke="#000000" stroke-width="0.72" stroke-linecap="square" stroke-linejoin="miter" stroke-miterlimit="2" d="M8.14587 0.127279L0 0" sodipodi:nodetypes="cc"/><path id="shape39" transform="translate(28.6378246026584, 40.8566297664593)" fill="none" stroke="#000000" stroke-width="0.72" stroke-linecap="square" stroke-linejoin="miter" stroke-miterlimit="2" d="M0 6.49124L2.41831 0" sodipodi:nodetypes="cc"/><path id="shape40" transform="translate(26.2195194139895, 40.8566297664593)" fill="none" stroke="#000000" stroke-width="0.72" stroke-linecap="square" stroke-linejoin="miter" stroke-miterlimit="2" d="M4.83661 0L0 0.127279" sodipodi:nodetypes="cc"/><path id="shape41" transform="translate(70.639967353224, 26.3467986344457)" fill="none" stroke="#000000" stroke-width="0.72" stroke-linecap="square" stroke-linejoin="miter" stroke-miterlimit="2" d="M0 4.07294L4.32749 0" sodipodi:nodetypes="cc"/><path id="shape42" transform="translate(67.203428400905, 24.3103311071456)" fill="none" stroke="#000000" stroke-width="0.72" stroke-linecap="square" stroke-linejoin="miter" stroke-miterlimit="2" d="M7.76403 2.03647L0 0" sodipodi:nodetypes="cc"/><path id="shape43" transform="translate(67.203428400905, 15.5280648956637)" fill="none" stroke="#000000" stroke-width="0.72" stroke-linecap="square" stroke-linejoin="miter" stroke-miterlimit="2" d="M0 8.78227L2.41831 0" sodipodi:nodetypes="cc"/><path id="shape44" transform="translate(62.8759349053922, 15.5280648956637)" fill="none" stroke="#000000" stroke-width="0.72" stroke-linecap="square" stroke-linejoin="miter" stroke-miterlimit="2" d="M6.7458 0L0 0.127279" sodipodi:nodetypes="cc"/><path id="shape45" transform="translate(17.3099739820513, 26.8559155162708)" fill="none" stroke="#000000" stroke-width="0.72" stroke-linecap="square" stroke-linejoin="miter" stroke-miterlimit="2" d="M4.70933 4.07294L0 0" sodipodi:nodetypes="cc"/><path id="shape46" transform="translate(17.3099739820513, 23.8012142253205)" fill="none" stroke="#000000" stroke-width="0.72" stroke-linecap="square" stroke-linejoin="miter" stroke-miterlimit="2" d="M0 3.0547L8.27315 0" sodipodi:nodetypes="cc"/><path id="shape47" transform="translate(23.037538902583, 15.9099025570324)" fill="none" stroke="#000000" stroke-width="0.72" stroke-linecap="square" stroke-linejoin="miter" stroke-miterlimit="2" d="M2.54558 7.89131L0 0" sodipodi:nodetypes="cc"/><path id="shape48" transform="translate(23.037538902583, 15.9099025570324)" fill="none" stroke="#000000" stroke-width="0.72" stroke-linecap="square" stroke-linejoin="miter" stroke-miterlimit="2" d="M0 0L6.36396 0" sodipodi:nodetypes="cc"/><path id="shape49" transform="translate(19.8555583911765, 21.1283505957391)" fill="none" stroke="#000000" stroke-width="0.72" stroke-linecap="square" stroke-linejoin="miter" stroke-miterlimit="2" d="M5.47301 2.80014L0 0" sodipodi:nodetypes="cc"/><path id="shape50" transform="translate(67.4579868418175, 21.1283505957391)" fill="none" stroke="#000000" stroke-width="0.72" stroke-linecap="square" stroke-linejoin="miter" stroke-miterlimit="2" d="M0 2.80014L5.21845 0" sodipodi:nodetypes="cc"/><path id="shape51" transform="translate(25.7104025321644, 10.6914545183258)" fill="none" stroke="#000000" stroke-width="0.72" stroke-linecap="square" stroke-linejoin="miter" stroke-miterlimit="2" d="M0 0L4.32749 5.34573" sodipodi:nodetypes="cc"/><path id="shape52" transform="translate(30.0378960276772, 10.4368960774133)" fill="none" stroke="#000000" stroke-width="0.72" stroke-linecap="square" stroke-linejoin="miter" stroke-miterlimit="2" d="M0 5.60029L7.12764 0" sodipodi:nodetypes="cc"/><path id="shape53" transform="translate(37.1655323732278, 10.4368960774133)" fill="none" stroke="#000000" stroke-width="0.72" stroke-linecap="square" stroke-linejoin="miter" stroke-miterlimit="2" d="M0 0L9.1641 5.34573" sodipodi:nodetypes="cc"/><path id="shape54" transform="translate(46.3296362460785, 10.4368960774133)" fill="none" stroke="#000000" stroke-width="0.72" stroke-linecap="square" stroke-linejoin="miter" stroke-miterlimit="2" d="M0 5.34573L7.89131 0" sodipodi:nodetypes="cc"/><path id="shape55" transform="translate(54.2209479143666, 10.4368960774133)" fill="none" stroke="#000000" stroke-width="0.72" stroke-linecap="square" stroke-linejoin="miter" stroke-miterlimit="2" d="M0 0L8.27315 5.72756" sodipodi:nodetypes="cc"/><path id="shape56" transform="translate(62.4940972440234, 10.5641752978695)" fill="none" stroke="#000000" stroke-width="0.72" stroke-linecap="square" stroke-linejoin="miter" stroke-miterlimit="2" d="M0 5.60029L4.45477 0" sodipodi:nodetypes="cc"/><path id="shape57" transform="translate(60.7121881576358, 10.5641752978695)" fill="none" stroke="#000000" stroke-width="0.72" stroke-linecap="square" stroke-linejoin="miter" stroke-miterlimit="2" d="M6.23668 0L0 0" sodipodi:nodetypes="cc"/><path id="shape58" transform="translate(25.8376817526207, 10.5641752978695)" fill="none" stroke="#000000" stroke-width="0.72" stroke-linecap="square" stroke-linejoin="miter" stroke-miterlimit="2" d="M0 0.127279L6.49124 0" sodipodi:nodetypes="cc"/><path id="shape59" transform="translate(27.7200000011544, 191.700000007984)" fill="none" stroke="#000000" stroke-width="0.72" stroke-linecap="square" stroke-linejoin="miter" stroke-miterlimit="2" d="M0 0L36.72 0.18" sodipodi:nodetypes="cc"/><path id="shape60" transform="translate(55.2600000023014, 183.600000007646)" fill="none" stroke="#000000" stroke-width="0.72" stroke-linecap="square" stroke-linejoin="miter" stroke-miterlimit="2" d="M8.82 0.18L0 0" sodipodi:nodetypes="cc"/><path id="shape61" transform="translate(55.2600000023014, 183.600000007646)" fill="none" stroke="#000000" stroke-width="0.72" stroke-linecap="square" stroke-linejoin="miter" stroke-miterlimit="2" d="M0 0L9 8.46" sodipodi:nodetypes="cc"/><path id="shape62" transform="translate(56.1600000023388, 192.060000007999)" fill="none" stroke="#000000" stroke-width="0.72" stroke-linecap="square" stroke-linejoin="miter" stroke-miterlimit="2" d="M8.1 0L0 9.36" sodipodi:nodetypes="cc"/><path id="shape63" transform="translate(56.1600000023388, 201.420000008388)" fill="none" stroke="#000000" stroke-width="0.72" stroke-linecap="square" stroke-linejoin="miter" stroke-miterlimit="2" d="M0 0L8.82 0.18" sodipodi:nodetypes="cc"/><path id="shape64" transform="translate(27.1800000011319, 201.780000008403)" fill="none" stroke="#000000" stroke-width="0.72" stroke-linecap="square" stroke-linejoin="miter" stroke-miterlimit="2" d="M0 0L8.64 0" sodipodi:nodetypes="cc"/><path id="shape65" transform="translate(28.4400000011844, 192.060000007999)" fill="none" stroke="#000000" stroke-width="0.72" stroke-linecap="square" stroke-linejoin="miter" stroke-miterlimit="2" d="M7.38 9.72L0 0" sodipodi:nodetypes="cc"/><path id="shape66" transform="translate(28.4400000011844, 183.240000007631)" fill="none" stroke="#000000" stroke-width="0.72" stroke-linecap="square" stroke-linejoin="miter" stroke-miterlimit="2" d="M0 8.82L9.18 0" sodipodi:nodetypes="cc"/><path id="shape67" transform="translate(28.8923828667514, 183.240000007631)" fill="none" stroke="#000000" stroke-width="0.72" stroke-linecap="square" stroke-linejoin="miter" stroke-miterlimit="2" d="M8.72762 0L0 0" sodipodi:nodetypes="cc"/><path id="shape68" transform="translate(29.7000000012369, 165.240000006882)" fill="none" stroke="#000000" stroke-width="0.72" stroke-linecap="square" stroke-linejoin="miter" stroke-miterlimit="2" d="M0 0L7.92 0" sodipodi:nodetypes="cc"/><path id="shape69" transform="translate(30.6000000012744, 156.060000006499)" fill="none" stroke="#000000" stroke-width="0.72" stroke-linecap="square" stroke-linejoin="miter" stroke-miterlimit="2" d="M7.02 9.18L0 0" sodipodi:nodetypes="cc"/><path id="shape70" transform="translate(30.6000000012744, 147.420000006139)" fill="none" stroke="#000000" stroke-width="0.72" stroke-linecap="square" stroke-linejoin="miter" stroke-miterlimit="2" d="M0 8.64L7.92 0" sodipodi:nodetypes="cc"/><path id="shape71" transform="translate(31.3200000013044, 147.240000006132)" fill="none" stroke="#000000" stroke-width="0.72" stroke-linecap="square" stroke-linejoin="miter" stroke-miterlimit="2" d="M7.2 0.18L0 0" sodipodi:nodetypes="cc"/><path id="shape72" transform="translate(30.4200000012669, 155.520000006477)" fill="none" stroke="#000000" stroke-width="0.72" stroke-linecap="square" stroke-linejoin="miter" stroke-miterlimit="2" d="M0 0L30.96 0.18" sodipodi:nodetypes="cc"/><path id="shape73" transform="translate(54.3600000022639, 165.240000006882)" fill="none" stroke="#000000" stroke-width="0.72" stroke-linecap="square" stroke-linejoin="miter" stroke-miterlimit="2" d="M7.92 0.18L0 0" sodipodi:nodetypes="cc"/><path id="shape74" transform="translate(54.3600000022639, 155.700000006484)" fill="none" stroke="#000000" stroke-width="0.72" stroke-linecap="square" stroke-linejoin="miter" stroke-miterlimit="2" d="M0 9.54L7.38 0" sodipodi:nodetypes="cc"/><path id="shape75" transform="translate(53.2800000022189, 147.420000006139)" fill="none" stroke="#000000" stroke-width="0.72" stroke-linecap="square" stroke-linejoin="miter" stroke-miterlimit="2" d="M8.46 8.28L0 0" sodipodi:nodetypes="cc"/><path id="shape76" transform="translate(53.2800000022189, 147.420000006139)" fill="none" stroke="#000000" stroke-width="0.72" stroke-linecap="square" stroke-linejoin="miter" stroke-miterlimit="2" d="M0 0L7.74 0" sodipodi:nodetypes="cc"/><path id="shape77" transform="translate(32.5800000013568, 130.320000005427)" fill="none" stroke="#000000" stroke-width="0.72" stroke-linecap="square" stroke-linejoin="miter" stroke-miterlimit="2" d="M0 0L5.94 0" sodipodi:nodetypes="cc"/><path id="shape78" transform="translate(33.1200000013793, 121.320000005052)" fill="none" stroke="#000000" stroke-width="0.72" stroke-linecap="square" stroke-linejoin="miter" stroke-miterlimit="2" d="M5.4 9L0 0" sodipodi:nodetypes="cc"/><path id="shape79" transform="translate(33.1200000013793, 112.14000000467)" fill="none" stroke="#000000" stroke-width="0.72" stroke-linecap="square" stroke-linejoin="miter" stroke-miterlimit="2" d="M0 9.18L7.56 0" sodipodi:nodetypes="cc"/><path id="shape80" transform="translate(34.0200000014168, 112.14000000467)" fill="none" stroke="#000000" stroke-width="0.72" stroke-linecap="square" stroke-linejoin="miter" stroke-miterlimit="2" d="M6.66 0L0 0.18" sodipodi:nodetypes="cc"/><path id="shape81" transform="translate(52.3800000021814, 112.320000004678)" fill="none" stroke="#000000" stroke-width="0.72" stroke-linecap="square" stroke-linejoin="miter" stroke-miterlimit="2" d="M5.58 0.36L0 0" sodipodi:nodetypes="cc"/><path id="shape82" transform="translate(52.0200000021664, 112.500000004685)" fill="none" stroke="#000000" stroke-width="0.72" stroke-linecap="square" stroke-linejoin="miter" stroke-miterlimit="2" d="M0 0L7.56 9" sodipodi:nodetypes="cc"/><path id="shape83" transform="translate(53.6400000022339, 121.52249988241)" fill="none" stroke="#000000" stroke-width="0.72" stroke-linecap="square" stroke-linejoin="miter" stroke-miterlimit="2" d="M5.445 0L0 8.6175" sodipodi:nodetypes="cc"/><path id="shape84" transform="translate(53.6400000022339, 130.14000000542)" fill="none" stroke="#000000" stroke-width="0.72" stroke-linecap="square" stroke-linejoin="miter" stroke-miterlimit="2" d="M0 0L5.94 0" sodipodi:nodetypes="cc"/><path id="shape85" transform="translate(32.6699999985554, 121.09499999242)" fill="none" stroke="#000000" stroke-width="0.72" stroke-linecap="square" stroke-linejoin="miter" stroke-miterlimit="2" d="M25.6725 0L0 0.21375" sodipodi:nodetypes="cc"/><path id="shape86" transform="translate(35.4281814089364, 92.37369635331)" fill="none" stroke="#000000" stroke-width="0.72" stroke-linecap="square" stroke-linejoin="miter" stroke-miterlimit="2" d="M0 0L21.6 0.18" sodipodi:nodetypes="cc"/><path id="shape87" transform="translate(37.5473715116801, 57.2756514584951)" fill="none" stroke="#000000" stroke-width="0.72" stroke-linecap="square" stroke-linejoin="miter" stroke-miterlimit="2" d="M8.52771 0L0 9.92778" sodipodi:nodetypes="cc"/><path id="shape88" transform="translate(46.202358843186, 57.2756514584951)" fill="none" stroke="#000000" stroke-width="0.72" stroke-linecap="square" stroke-linejoin="miter" stroke-miterlimit="2" d="M0 0L8.52771 9.67322" sodipodi:nodetypes="cc"/><path id="shape021" transform="matrix(0.999999866776474 0 0 0.936540951234435 6.73166100013588 32.4751079363168)" fill="none" stroke="#737373" stroke-width="2.16" stroke-linecap="square" stroke-linejoin="miter" stroke-miterlimit="2" d="M0 0L0 11.1415" sodipodi:nodetypes="cc"/><circle id="shape0151" transform="matrix(1.43710230156743 0 0 1.46346155551122 5.55622194627956 43.8917457908886)" r="0.719999999999999" cx="0.719999999999999" cy="0.719999999999999" fill="#d00000" fill-rule="evenodd" stroke-opacity="0" stroke="#000000" stroke-width="0" stroke-linecap="square" stroke-linejoin="bevel"/><path id="shape0211" transform="matrix(0.999999866776474 0 0 0.936540951234435 46.4427794461675 17.3288800674778)" fill="none" stroke="#737373" stroke-width="2.16" stroke-linecap="square" stroke-linejoin="miter" stroke-miterlimit="2" d="M0 0L0 11.1415" sodipodi:nodetypes="cc"/><circle id="shape01511" transform="matrix(1.43710230156743 0 0 1.46346155551122 45.2673403923111 28.7455179220496)" r="0.719999999999999" cx="0.719999999999999" cy="0.719999999999999" fill="#d00000" fill-rule="evenodd" stroke-opacity="0" stroke="#000000" stroke-width="0" stroke-linecap="square" stroke-linejoin="bevel"/><path id="shape0212" transform="matrix(0.999999866776474 0 0 0.936540951234435 86.153897892199 31.838711807374)" fill="none" stroke="#737373" stroke-width="2.16" stroke-linecap="square" stroke-linejoin="miter" stroke-miterlimit="2" d="M0 0L0 11.1415" sodipodi:nodetypes="cc"/><circle id="shape01512" transform="matrix(1.43710230156743 0 0 1.46346155551122 84.9784588383427 43.2553496619458)" r="0.719999999999999" cx="0.719999999999999" cy="0.719999999999999" fill="#d00000" fill-rule="evenodd" stroke-opacity="0" stroke="#000000" stroke-width="0" stroke-linecap="square" stroke-linejoin="bevel"/><path id="shape89" transform="translate(61.92000471612, 7.38000056209569)" fill="none" stroke="#000000" stroke-width="0.72" stroke-linecap="square" stroke-linejoin="miter" stroke-miterlimit="2" d="M5.31 3.06L0 0" sodipodi:nodetypes="cc"/><path id="shape90" transform="translate(25.3800019330608, 7.47000056895052)" fill="none" stroke="#000000" stroke-width="0.72" stroke-linecap="square" stroke-linejoin="miter" stroke-miterlimit="2" d="M0 2.79L5.67 0" sodipodi:nodetypes="cc"/><path id="shape41" transform="matrix(1.00000003148131 0 0 1.00000003148131 -35.5937676360371 214.356997393831)" fill="none" stroke="#3b2300" stroke-width="2.16" stroke-linecap="square" stroke-linejoin="miter" stroke-miterlimit="2" d="M0 0L160.92 0.18" sodipodi:nodetypes="cc"/><path id="shape51" transform="matrix(1.00000003148131 0 0 1.00000003148131 -35.4367621936523 212.72091076602)" fill="none" stroke="#297f00" stroke-width="1.44" stroke-linecap="square" stroke-linejoin="miter" stroke-miterlimit="2" d="M0 0L161.135 0.127279" sodipodi:nodetypes="cc"/><path id="shape91" transform="translate(13.1733994115621, 26.2195196017565)" fill="none" stroke="#000000" stroke-width="0.72" stroke-linecap="square" stroke-linejoin="miter" stroke-miterlimit="2" d="M3.94566 0L0 4.64569" sodipodi:nodetypes="cc"/><path id="shape92" transform="translate(74.9674613856048, 26.474078044492)" fill="none" stroke="#000000" stroke-width="0.72" stroke-linecap="square" stroke-linejoin="miter" stroke-miterlimit="2" d="M0 0L3.30926 4.45477" sodipodi:nodetypes="cc"/>
</svg>
