<?xml version="1.0" standalone="no"?>
<!DOCTYPE svg PUBLIC "-//W3C//DTD SVG 20010904//EN" "http://www.w3.org/TR/2001/REC-SVG-20010904/DTD/svg10.dtd">
<!-- Created using Krita: https://krita.org -->
<svg xmlns="http://www.w3.org/2000/svg" 
    xmlns:xlink="http://www.w3.org/1999/xlink"
    xmlns:krita="http://krita.org/namespaces/svg/krita"
    xmlns:sodipodi="http://sodipodi.sourceforge.net/DTD/sodipodi-0.dtd"
    width="75.6pt"
    height="214.56pt"
    viewBox="0 0 75.6 214.56">
<defs/>
<path id="shape0" transform="translate(41.6203055027664, 75.2220200371099)" fill="none" stroke="#000000" stroke-width="1.44" stroke-linecap="square" stroke-linejoin="miter" stroke-miterlimit="2" d="M10.0551 136.571L0 0" sodipodi:nodetypes="cc"/><path id="shape1" transform="translate(41.6203055027664, 9.54594162907486)" fill="none" stroke="#000000" stroke-width="1.44" stroke-linecap="square" stroke-linejoin="miter" stroke-miterlimit="2" d="M0 65.6761L0 0" sodipodi:nodetypes="cc"/><path id="shape2" transform="translate(37.4200911859734, 3.69109742990894)" fill="none" stroke="#000000" stroke-width="1.44" stroke-linecap="square" stroke-linejoin="miter" stroke-miterlimit="2" d="M4.20021 5.85484L0 0" sodipodi:nodetypes="cc"/><path id="shape3" transform="translate(33.6017145343435, 3.69109742990894)" fill="none" stroke="#000000" stroke-width="1.44" stroke-linecap="square" stroke-linejoin="miter" stroke-miterlimit="2" d="M3.81838 0L0 5.85484" sodipodi:nodetypes="cc"/><path id="shape4" transform="translate(33.6017145343435, 9.54594162907486)" fill="none" stroke="#000000" stroke-width="1.44" stroke-linecap="square" stroke-linejoin="miter" stroke-miterlimit="2" d="M0 0L0.127279 65.8034" sodipodi:nodetypes="cc"/><path id="shape5" transform="translate(23.5466560183846, 75.3492992588309)" fill="none" stroke="#000000" stroke-width="1.44" stroke-linecap="square" stroke-linejoin="miter" stroke-miterlimit="2" d="M10.1823 0L0 136.061" sodipodi:nodetypes="cc"/><path id="shape6" transform="translate(13.4915977505623, 86.2953139139742)" fill="none" stroke="#000000" stroke-width="1.44" stroke-linecap="square" stroke-linejoin="miter" stroke-miterlimit="2" d="M19.3464 0L0 6.23668" sodipodi:nodetypes="cc"/><path id="shape7" transform="translate(13.4915977505623, 92.5319958930077)" fill="none" stroke="#000000" stroke-width="1.44" stroke-linecap="square" stroke-linejoin="miter" stroke-miterlimit="2" d="M0 0L19.2192 0" sodipodi:nodetypes="cc"/><path id="shape8" transform="translate(42.7658192848014, 86.4225931380361)" fill="none" stroke="#000000" stroke-width="1.44" stroke-linecap="square" stroke-linejoin="miter" stroke-miterlimit="2" d="M0 0L18.4555 6.1094" sodipodi:nodetypes="cc"/><path id="shape9" transform="translate(43.0203777329252, 92.2774374448839)" fill="none" stroke="#000000" stroke-width="1.44" stroke-linecap="square" stroke-linejoin="miter" stroke-miterlimit="2" d="M18.2009 0.254558L0 0" sodipodi:nodetypes="cc"/><path id="shape10" transform="translate(41.6203062682442, 57.0210923797352)" fill="none" stroke="#000000" stroke-width="1.44" stroke-linecap="square" stroke-linejoin="miter" stroke-miterlimit="2" d="M0 0L18.8373 6.1094" sodipodi:nodetypes="cc"/><path id="shape11" transform="translate(41.6203062682442, 63.0032159106449)" fill="none" stroke="#000000" stroke-width="1.44" stroke-linecap="square" stroke-linejoin="miter" stroke-miterlimit="2" d="M18.8373 0.127279L0 0" sodipodi:nodetypes="cc"/><path id="shape12" transform="translate(15.0189484393053, 57.275650827859)" fill="none" stroke="#000000" stroke-width="1.44" stroke-linecap="square" stroke-linejoin="miter" stroke-miterlimit="2" d="M18.8373 0L0 5.85484" sodipodi:nodetypes="cc"/><path id="shape13" transform="translate(15.0189484393053, 63.0032159106449)" fill="none" stroke="#000000" stroke-width="1.44" stroke-linecap="square" stroke-linejoin="miter" stroke-miterlimit="2" d="M0 0.127279L18.5828 0" sodipodi:nodetypes="cc"/><path id="shape14" transform="translate(42.0021432752584, 27.3650327399411)" fill="none" stroke="#000000" stroke-width="1.44" stroke-linecap="square" stroke-linejoin="miter" stroke-miterlimit="2" d="M0 0L17.1827 6.1094" sodipodi:nodetypes="cc"/><path id="shape15" transform="translate(42.0021432752584, 33.4744353981605)" fill="none" stroke="#000000" stroke-width="1.44" stroke-linecap="square" stroke-linejoin="miter" stroke-miterlimit="2" d="M17.1827 0L0 0" sodipodi:nodetypes="cc"/><path id="shape16" transform="translate(15.7826235337334, 33.3471561761142)" fill="none" stroke="#000000" stroke-width="1.44" stroke-linecap="square" stroke-linejoin="miter" stroke-miterlimit="2" d="M17.8191 0L0 0.127279" sodipodi:nodetypes="cc"/><path id="shape17" transform="translate(16.0371819778259, 27.4923119619873)" fill="none" stroke="#000000" stroke-width="1.44" stroke-linecap="square" stroke-linejoin="miter" stroke-miterlimit="2" d="M0 6.1094L17.5645 0" sodipodi:nodetypes="cc"/><path id="shape18" transform="translate(19.4737209730743, 9.29138320937533)" fill="none" stroke="#000000" stroke-width="1.44" stroke-linecap="square" stroke-linejoin="miter" stroke-miterlimit="2" d="M14.0007 0L0 4.58205" sodipodi:nodetypes="cc"/><path id="shape19" transform="translate(19.4737209730743, 13.6188767589474)" fill="none" stroke="#000000" stroke-width="1.44" stroke-linecap="square" stroke-linejoin="miter" stroke-miterlimit="2" d="M0 0.254558L13.7462 0" sodipodi:nodetypes="cc"/><path id="shape20" transform="translate(42.2567017193508, 9.67322087551405)" fill="none" stroke="#000000" stroke-width="1.44" stroke-linecap="square" stroke-linejoin="miter" stroke-miterlimit="2" d="M0 0L12.8552 3.94566" sodipodi:nodetypes="cc"/><path id="shape21" transform="translate(42.1294224973046, 13.6188767589474)" fill="none" stroke="#000000" stroke-width="1.44" stroke-linecap="square" stroke-linejoin="miter" stroke-miterlimit="2" d="M12.9825 0L0 0" sodipodi:nodetypes="cc"/><path id="shape22" transform="translate(25.0200011699911, 187.200008753891)" fill="none" stroke="#000000" stroke-width="0.72" stroke-linecap="square" stroke-linejoin="miter" stroke-miterlimit="2" d="M26.1 23.58L0 0" sodipodi:nodetypes="cc"/><path id="shape23" transform="translate(25.0200011699911, 163.44000764282)" fill="none" stroke="#000000" stroke-width="0.72" stroke-linecap="square" stroke-linejoin="miter" stroke-miterlimit="2" d="M0 23.76L23.22 0" sodipodi:nodetypes="cc"/><path id="shape24" transform="translate(28.6200013383352, 140.040006548584)" fill="none" stroke="#000000" stroke-width="0.72" stroke-linecap="square" stroke-linejoin="miter" stroke-miterlimit="2" d="M19.62 23.4L0 0" sodipodi:nodetypes="cc"/><path id="shape25" transform="translate(28.6200013383352, 119.880005605857)" fill="none" stroke="#000000" stroke-width="0.72" stroke-linecap="square" stroke-linejoin="miter" stroke-miterlimit="2" d="M0 20.16L16.56 0" sodipodi:nodetypes="cc"/><path id="shape26" transform="translate(31.140001456176, 103.860004856726)" fill="none" stroke="#000000" stroke-width="0.72" stroke-linecap="square" stroke-linejoin="miter" stroke-miterlimit="2" d="M14.04 16.02L0 0" sodipodi:nodetypes="cc"/><path id="shape27" transform="translate(31.140001456176, 91.9800043011905)" fill="none" stroke="#000000" stroke-width="0.72" stroke-linecap="square" stroke-linejoin="miter" stroke-miterlimit="2" d="M0 11.88L12.06 0" sodipodi:nodetypes="cc"/><path id="shape28" transform="translate(32.4899998926882, 92.519999694414)" fill="none" stroke="#000000" stroke-width="0.72" stroke-linecap="square" stroke-linejoin="miter" stroke-miterlimit="2" d="M0 0L11.52 12.15" sodipodi:nodetypes="cc"/><path id="shape29" transform="translate(29.7899999016061, 104.669999654284)" fill="none" stroke="#000000" stroke-width="0.72" stroke-linecap="square" stroke-linejoin="miter" stroke-miterlimit="2" d="M14.22 0L0 15.48" sodipodi:nodetypes="cc"/><path id="shape30" transform="translate(29.7899999016061, 120.149999603154)" fill="none" stroke="#000000" stroke-width="0.72" stroke-linecap="square" stroke-linejoin="miter" stroke-miterlimit="2" d="M0 0L16.74 19.89" sodipodi:nodetypes="cc"/><path id="shape31" transform="translate(27.2699999099294, 140.039999537459)" fill="none" stroke="#000000" stroke-width="0.72" stroke-linecap="square" stroke-linejoin="miter" stroke-miterlimit="2" d="M19.26 0L0 23.31" sodipodi:nodetypes="cc"/><path id="shape32" transform="translate(27.2699999099294, 163.349999460468)" fill="none" stroke="#000000" stroke-width="0.72" stroke-linecap="square" stroke-linejoin="miter" stroke-miterlimit="2" d="M0 0L22.59 23.85" sodipodi:nodetypes="cc"/><path id="shape33" transform="translate(23.8499999212254, 187.199999381694)" fill="none" stroke="#000000" stroke-width="0.72" stroke-linecap="square" stroke-linejoin="miter" stroke-miterlimit="2" d="M26.01 0L0 23.22" sodipodi:nodetypes="cc"/><path id="shape34" transform="translate(33.4799999749707, 9.44999999293529)" fill="none" stroke="#000000" stroke-width="0.72" stroke-linecap="square" stroke-linejoin="miter" stroke-miterlimit="2" d="M8.28 0L0 4.59" sodipodi:nodetypes="cc"/><path id="shape35" transform="translate(33.4799999749707, 14.0399999895039)" fill="none" stroke="#000000" stroke-width="0.72" stroke-linecap="square" stroke-linejoin="miter" stroke-miterlimit="2" d="M0 0L8.46 6.93" sodipodi:nodetypes="cc"/><path id="shape36" transform="translate(33.5699999749035, 20.9699999843231)" fill="none" stroke="#000000" stroke-width="0.72" stroke-linecap="square" stroke-linejoin="miter" stroke-miterlimit="2" d="M8.37 0L0 6.84" sodipodi:nodetypes="cc"/><path id="shape37" transform="translate(33.5699999749035, 27.8099999792096)" fill="none" stroke="#000000" stroke-width="0.72" stroke-linecap="square" stroke-linejoin="miter" stroke-miterlimit="2" d="M0 0L8.01 6.12" sodipodi:nodetypes="cc"/><path id="shape38" transform="translate(33.5699999749035, 33.9299999746343)" fill="none" stroke="#000000" stroke-width="0.72" stroke-linecap="square" stroke-linejoin="miter" stroke-miterlimit="2" d="M8.01 0L0 5.85" sodipodi:nodetypes="cc"/><path id="shape39" transform="translate(33.5699999749035, 39.7799999702609)" fill="none" stroke="#000000" stroke-width="0.72" stroke-linecap="square" stroke-linejoin="miter" stroke-miterlimit="2" d="M0 0L8.28 5.67" sodipodi:nodetypes="cc"/><path id="shape40" transform="translate(33.5699999749035, 45.4499999660221)" fill="none" stroke="#000000" stroke-width="0.72" stroke-linecap="square" stroke-linejoin="miter" stroke-miterlimit="2" d="M8.28 0L0 6.03" sodipodi:nodetypes="cc"/><path id="shape41" transform="translate(33.5699999749035, 51.4799999615142)" fill="none" stroke="#000000" stroke-width="0.72" stroke-linecap="square" stroke-linejoin="miter" stroke-miterlimit="2" d="M0 0L8.46 5.76" sodipodi:nodetypes="cc"/><path id="shape42" transform="translate(33.7499999747689, 57.239999957208)" fill="none" stroke="#000000" stroke-width="0.72" stroke-linecap="square" stroke-linejoin="miter" stroke-miterlimit="2" d="M8.28 0L0 6.12" sodipodi:nodetypes="cc"/><path id="shape43" transform="translate(33.5700017413731, 63.0900032726609)" fill="none" stroke="#000000" stroke-width="0.72" stroke-linecap="square" stroke-linejoin="miter" stroke-miterlimit="2" d="M0 0L8.46 6.12" sodipodi:nodetypes="cc"/><path id="shape44" transform="translate(33.5700017413731, 69.210003590123)" fill="none" stroke="#000000" stroke-width="0.72" stroke-linecap="square" stroke-linejoin="miter" stroke-miterlimit="2" d="M8.46 0L0 5.67" sodipodi:nodetypes="cc"/><path id="shape45" transform="translate(33.5700017413731, 74.8800038842424)" fill="none" stroke="#000000" stroke-width="0.72" stroke-linecap="square" stroke-linejoin="miter" stroke-miterlimit="2" d="M0 0L8.46 6.12" sodipodi:nodetypes="cc"/><path id="shape46" transform="translate(32.8500017040246, 81.0000042017045)" fill="none" stroke="#000000" stroke-width="0.72" stroke-linecap="square" stroke-linejoin="miter" stroke-miterlimit="2" d="M9.18 0L0 5.76" sodipodi:nodetypes="cc"/><path id="shape47" transform="translate(32.8500017040246, 86.7600045004924)" fill="none" stroke="#000000" stroke-width="0.72" stroke-linecap="square" stroke-linejoin="miter" stroke-miterlimit="2" d="M0 0L10.08 5.94" sodipodi:nodetypes="cc"/><path id="shape48" transform="translate(33.4744356547748, 9.16410405758094)" fill="none" stroke="#000000" stroke-width="0.72" stroke-linecap="square" stroke-linejoin="miter" stroke-miterlimit="2" d="M0 0L8.40043 4.70933" sodipodi:nodetypes="cc"/><path id="shape49" transform="translate(33.3471564317529, 13.8734353093934)" fill="none" stroke="#000000" stroke-width="0.72" stroke-linecap="square" stroke-linejoin="miter" stroke-miterlimit="2" d="M8.52771 0L0 6.87308" sodipodi:nodetypes="cc"/><path id="shape50" transform="translate(33.3471564317529, 20.7465133525791)" fill="none" stroke="#000000" stroke-width="0.72" stroke-linecap="square" stroke-linejoin="miter" stroke-miterlimit="2" d="M0 0L8.40043 6.36396" sodipodi:nodetypes="cc"/><path id="shape51" transform="translate(33.6017148777968, 27.1104745036769)" fill="none" stroke="#000000" stroke-width="0.72" stroke-linecap="square" stroke-linejoin="miter" stroke-miterlimit="2" d="M8.14587 0L0 6.36396" sodipodi:nodetypes="cc"/><path id="shape52" transform="translate(33.6017148777968, 33.4744356547748)" fill="none" stroke="#000000" stroke-width="0.72" stroke-linecap="square" stroke-linejoin="miter" stroke-miterlimit="2" d="M0 0L8.01859 5.98212" sodipodi:nodetypes="cc"/><path id="shape53" transform="translate(33.6017148777968, 39.4565591368068)" fill="none" stroke="#000000" stroke-width="0.72" stroke-linecap="square" stroke-linejoin="miter" stroke-miterlimit="2" d="M8.01859 0L0 6.36396" sodipodi:nodetypes="cc"/><path id="shape54" transform="translate(33.6017148777968, 45.8205202879047)" fill="none" stroke="#000000" stroke-width="0.72" stroke-linecap="square" stroke-linejoin="miter" stroke-miterlimit="2" d="M0 0L8.14587 5.47301" sodipodi:nodetypes="cc"/><path id="shape55" transform="translate(33.6017148777968, 51.2935268778489)" fill="none" stroke="#000000" stroke-width="0.72" stroke-linecap="square" stroke-linejoin="miter" stroke-miterlimit="2" d="M8.14587 0L0 5.98212" sodipodi:nodetypes="cc"/><path id="shape56" transform="translate(33.6017148777968, 57.2756503598809)" fill="none" stroke="#000000" stroke-width="0.72" stroke-linecap="square" stroke-linejoin="miter" stroke-miterlimit="2" d="M0 0L7.89131 5.85484" sodipodi:nodetypes="cc"/><path id="shape57" transform="translate(33.8562733238407, 63.1304946188909)" fill="none" stroke="#000000" stroke-width="0.72" stroke-linecap="square" stroke-linejoin="miter" stroke-miterlimit="2" d="M7.63675 0L0 5.60029" sodipodi:nodetypes="cc"/><path id="shape58" transform="translate(33.8562733238407, 68.7307804318571)" fill="none" stroke="#000000" stroke-width="0.72" stroke-linecap="square" stroke-linejoin="miter" stroke-miterlimit="2" d="M0 0L8.01859 6.1094" sodipodi:nodetypes="cc"/><path id="shape59" transform="translate(33.0925979857089, 74.840183136911)" fill="none" stroke="#000000" stroke-width="0.72" stroke-linecap="square" stroke-linejoin="miter" stroke-miterlimit="2" d="M8.78227 0L0 6.7458" sodipodi:nodetypes="cc"/><path id="shape60" transform="translate(33.0925979857089, 81.5859819570748)" fill="none" stroke="#000000" stroke-width="0.72" stroke-linecap="square" stroke-linejoin="miter" stroke-miterlimit="2" d="M0 0L9.67322 5.21845" sodipodi:nodetypes="cc"/><path id="shape61" transform="translate(32.9653171122733, 86.6771465384484)" fill="none" stroke="#000000" stroke-width="0.72" stroke-linecap="square" stroke-linejoin="miter" stroke-miterlimit="2" d="M9.35502 0L0 5.98212" sodipodi:nodetypes="cc"/><path id="shape62" transform="translate(33.6600007659336, 27.6300006287209)" fill="none" stroke="#000000" stroke-width="0.72" stroke-linecap="square" stroke-linejoin="miter" stroke-miterlimit="2" d="M0 0L8.19 0.09" sodipodi:nodetypes="cc"/><path id="shape63" transform="translate(33.5700007638857, 33.4800007618377)" fill="none" stroke="#000000" stroke-width="0.72" stroke-linecap="square" stroke-linejoin="miter" stroke-miterlimit="2" d="M0 0L8.28 0" sodipodi:nodetypes="cc"/><path id="shape64" transform="translate(33.7500007679816, 13.9500003174324)" fill="none" stroke="#000000" stroke-width="0.72" stroke-linecap="square" stroke-linejoin="miter" stroke-miterlimit="2" d="M0 0L8.37 0.09" sodipodi:nodetypes="cc"/><path id="shape65" transform="translate(33.5700007638857, 9.36000021298689)" fill="none" stroke="#000000" stroke-width="0.72" stroke-linecap="square" stroke-linejoin="miter" stroke-miterlimit="2" d="M0 0L8.01 0" sodipodi:nodetypes="cc"/><path id="shape66" transform="translate(33.8400002341186, 57.1500003953865)" fill="none" stroke="#000000" stroke-width="0.72" stroke-linecap="square" stroke-linejoin="miter" stroke-miterlimit="2" d="M0 0L7.92 0" sodipodi:nodetypes="cc"/><path id="shape67" transform="translate(33.750000233496, 63.0900004364818)" fill="none" stroke="#000000" stroke-width="0.72" stroke-linecap="square" stroke-linejoin="miter" stroke-miterlimit="2" d="M0 0.09L8.55 0" sodipodi:nodetypes="cc"/><path id="shape68" transform="translate(32.838039187446, 86.5498707266019)" fill="none" stroke="#000000" stroke-width="0.72" stroke-linecap="square" stroke-linejoin="miter" stroke-miterlimit="2" d="M0 0L9.67322 0.0636396" sodipodi:nodetypes="cc"/><path id="shape69" transform="translate(32.3925619116473, 92.5956337552984)" fill="none" stroke="#000000" stroke-width="0.72" stroke-linecap="square" stroke-linejoin="miter" stroke-miterlimit="2" d="M0 0.0636396L10.5005 0" sodipodi:nodetypes="cc"/><path id="shape70" transform="translate(24.3103305664561, 198.301021060412)" fill="none" stroke="#000000" stroke-width="0.72" stroke-linecap="square" stroke-linejoin="miter" stroke-miterlimit="2" d="M0 0.127279L26.6014 0" sodipodi:nodetypes="cc"/><path id="shape71" transform="translate(26.2195188308375, 174.499807364457)" fill="none" stroke="#000000" stroke-width="0.72" stroke-linecap="square" stroke-linejoin="miter" stroke-miterlimit="2" d="M0 0.127279L22.5284 0" sodipodi:nodetypes="cc"/><path id="shape72" transform="translate(28.1287070952189, 150.698593668503)" fill="none" stroke="#000000" stroke-width="0.72" stroke-linecap="square" stroke-linejoin="miter" stroke-miterlimit="2" d="M0 0.127279L19.3464 0" sodipodi:nodetypes="cc"/><path id="shape73" transform="translate(29.656057706724, 129.188405889806)" fill="none" stroke="#000000" stroke-width="0.72" stroke-linecap="square" stroke-linejoin="miter" stroke-miterlimit="2" d="M0 0.127279L15.9099 0" sodipodi:nodetypes="cc"/><path id="shape74" transform="translate(30.9600019224366, 111.420006918536)" fill="none" stroke="#000000" stroke-width="0.72" stroke-linecap="square" stroke-linejoin="miter" stroke-miterlimit="2" d="M0 0L13.14 0" sodipodi:nodetypes="cc"/><path id="shape75" transform="translate(24.2100011198963, 204.570009462916)" fill="none" stroke="#000000" stroke-width="0.72" stroke-linecap="square" stroke-linejoin="miter" stroke-miterlimit="2" d="M0 0L5.85 0" sodipodi:nodetypes="cc"/><path id="shape76" transform="translate(25.020001157365, 198.360009175656)" fill="none" stroke="#000000" stroke-width="0.72" stroke-linecap="square" stroke-linejoin="miter" stroke-miterlimit="2" d="M5.04 6.21L0 0" sodipodi:nodetypes="cc"/><path id="shape77" transform="translate(25.020001157365, 192.780008917539)" fill="none" stroke="#000000" stroke-width="0.72" stroke-linecap="square" stroke-linejoin="miter" stroke-miterlimit="2" d="M0 5.58L5.85 0" sodipodi:nodetypes="cc"/><path id="shape78" transform="translate(25.2000011656913, 192.780008917539)" fill="none" stroke="#000000" stroke-width="0.72" stroke-linecap="square" stroke-linejoin="miter" stroke-miterlimit="2" d="M5.67 0L0 0.09" sodipodi:nodetypes="cc"/><path id="shape79" transform="translate(44.4600020566126, 204.480009458753)" fill="none" stroke="#000000" stroke-width="0.72" stroke-linecap="square" stroke-linejoin="miter" stroke-miterlimit="2" d="M6.75 0L0 0" sodipodi:nodetypes="cc"/><path id="shape80" transform="translate(44.4600020566126, 198.360009175656)" fill="none" stroke="#000000" stroke-width="0.72" stroke-linecap="square" stroke-linejoin="miter" stroke-miterlimit="2" d="M0 6.12L6.21 0" sodipodi:nodetypes="cc"/><path id="shape81" transform="translate(44.0100020357967, 192.690008913376)" fill="none" stroke="#000000" stroke-width="0.72" stroke-linecap="square" stroke-linejoin="miter" stroke-miterlimit="2" d="M6.66 5.67L0 0" sodipodi:nodetypes="cc"/><path id="shape82" transform="translate(44.0100020357967, 192.510008905049)" fill="none" stroke="#000000" stroke-width="0.72" stroke-linecap="square" stroke-linejoin="miter" stroke-miterlimit="2" d="M0 0.18L6.21 0" sodipodi:nodetypes="cc"/><path id="shape83" transform="translate(43.8300020274703, 181.080008376325)" fill="none" stroke="#000000" stroke-width="0.72" stroke-linecap="square" stroke-linejoin="miter" stroke-miterlimit="2" d="M5.67 0L0 0.09" sodipodi:nodetypes="cc"/><path id="shape84" transform="translate(43.8300020274703, 174.420008068249)" fill="none" stroke="#000000" stroke-width="0.72" stroke-linecap="square" stroke-linejoin="miter" stroke-miterlimit="2" d="M0 6.75L5.13 0" sodipodi:nodetypes="cc"/><path id="shape85" transform="translate(43.2900020024912, 169.020007818458)" fill="none" stroke="#000000" stroke-width="0.72" stroke-linecap="square" stroke-linejoin="miter" stroke-miterlimit="2" d="M5.67 5.4L0 0" sodipodi:nodetypes="cc"/><path id="shape86" transform="translate(43.2900020024912, 168.930007814295)" fill="none" stroke="#000000" stroke-width="0.72" stroke-linecap="square" stroke-linejoin="miter" stroke-miterlimit="2" d="M0 0.09L5.13 0" sodipodi:nodetypes="cc"/><path id="shape87" transform="translate(25.9200011989968, 180.990008372162)" fill="none" stroke="#000000" stroke-width="0.72" stroke-linecap="square" stroke-linejoin="miter" stroke-miterlimit="2" d="M0 0.09L5.04 0" sodipodi:nodetypes="cc"/><path id="shape88" transform="translate(26.7300012364655, 174.870008089065)" fill="none" stroke="#000000" stroke-width="0.72" stroke-linecap="square" stroke-linejoin="miter" stroke-miterlimit="2" d="M4.23 6.12L0 0" sodipodi:nodetypes="cc"/><path id="shape89" transform="translate(26.7300012364655, 168.840007810132)" fill="none" stroke="#000000" stroke-width="0.72" stroke-linecap="square" stroke-linejoin="miter" stroke-miterlimit="2" d="M0 6.03L5.49 0" sodipodi:nodetypes="cc"/><path id="shape90" transform="translate(27.000001248955, 168.840007810132)" fill="none" stroke="#000000" stroke-width="0.72" stroke-linecap="square" stroke-linejoin="miter" stroke-miterlimit="2" d="M5.22 0L0 0" sodipodi:nodetypes="cc"/><path id="shape91" transform="translate(43.2899998351707, 157.13999940168)" fill="none" stroke="#000000" stroke-width="0.72" stroke-linecap="square" stroke-linejoin="miter" stroke-miterlimit="2" d="M4.23 0L0 0" sodipodi:nodetypes="cc"/><path id="shape92" transform="translate(43.2899998351707, 150.839999425668)" fill="none" stroke="#000000" stroke-width="0.72" stroke-linecap="square" stroke-linejoin="miter" stroke-miterlimit="2" d="M0 6.3L3.6 0" sodipodi:nodetypes="cc"/><path id="shape93" transform="translate(42.2999998389402, 145.349999446571)" fill="none" stroke="#000000" stroke-width="0.72" stroke-linecap="square" stroke-linejoin="miter" stroke-miterlimit="2" d="M4.59 5.49L0 0" sodipodi:nodetypes="cc"/><path id="shape94" transform="translate(42.2999998389402, 145.349999446571)" fill="none" stroke="#000000" stroke-width="0.72" stroke-linecap="square" stroke-linejoin="miter" stroke-miterlimit="2" d="M0 0L4.23 0.09" sodipodi:nodetypes="cc"/><path id="shape95" transform="translate(28.709999890685, 145.259999446914)" fill="none" stroke="#000000" stroke-width="0.72" stroke-linecap="square" stroke-linejoin="miter" stroke-miterlimit="2" d="M0 0L4.41 0" sodipodi:nodetypes="cc"/><path id="shape96" transform="translate(28.169999892741, 145.259999446914)" fill="none" stroke="#000000" stroke-width="0.72" stroke-linecap="square" stroke-linejoin="miter" stroke-miterlimit="2" d="M4.95 0L0 5.4" sodipodi:nodetypes="cc"/><path id="shape97" transform="translate(28.169999892741, 150.659999426353)" fill="none" stroke="#000000" stroke-width="0.72" stroke-linecap="square" stroke-linejoin="miter" stroke-miterlimit="2" d="M0 0L4.14 6.57" sodipodi:nodetypes="cc"/><path id="shape98" transform="translate(27.9899998934264, 157.13999940168)" fill="none" stroke="#000000" stroke-width="0.72" stroke-linecap="square" stroke-linejoin="miter" stroke-miterlimit="2" d="M4.32 0.09L0 0" sodipodi:nodetypes="cc"/><path id="shape99" transform="translate(41.7600020384277, 134.190006550206)" fill="none" stroke="#000000" stroke-width="0.72" stroke-linecap="square" stroke-linejoin="miter" stroke-miterlimit="2" d="M4.14 0L0 0.09" sodipodi:nodetypes="cc"/><path id="shape100" transform="translate(41.7600020384277, 129.420006317368)" fill="none" stroke="#000000" stroke-width="0.72" stroke-linecap="square" stroke-linejoin="miter" stroke-miterlimit="2" d="M0 4.86L3.87 0" sodipodi:nodetypes="cc"/><path id="shape101" transform="translate(41.4900020252482, 124.380006071351)" fill="none" stroke="#000000" stroke-width="0.72" stroke-linecap="square" stroke-linejoin="miter" stroke-miterlimit="2" d="M4.14 5.04L0 0" sodipodi:nodetypes="cc"/><path id="shape102" transform="translate(41.4900020252482, 124.380006071351)" fill="none" stroke="#000000" stroke-width="0.72" stroke-linecap="square" stroke-linejoin="miter" stroke-miterlimit="2" d="M0 0L3.69 0" sodipodi:nodetypes="cc"/><path id="shape103" transform="translate(30.4200014848891, 124.560006080138)" fill="none" stroke="#000000" stroke-width="0.72" stroke-linecap="square" stroke-linejoin="miter" stroke-miterlimit="2" d="M0 0L2.745 0" sodipodi:nodetypes="cc"/><path id="shape104" transform="translate(30.0600014673165, 124.920006416922)" fill="none" stroke="#000000" stroke-width="0.72" stroke-linecap="square" stroke-linejoin="miter" stroke-miterlimit="2" d="M3.465 0L0 4.41" sodipodi:nodetypes="cc"/><path id="shape105" transform="translate(30.0600014673165, 129.330006312975)" fill="none" stroke="#000000" stroke-width="0.72" stroke-linecap="square" stroke-linejoin="miter" stroke-miterlimit="2" d="M0 0L2.97 5.04" sodipodi:nodetypes="cc"/><path id="shape106" transform="translate(29.790001454137, 134.280006554599)" fill="none" stroke="#000000" stroke-width="0.72" stroke-linecap="square" stroke-linejoin="miter" stroke-miterlimit="2" d="M3.24 0.09L0 0" sodipodi:nodetypes="cc"/><path id="shape107" transform="translate(41.8748651232521, 57.5302098349847)" fill="none" stroke="#000000" stroke-width="0.72" stroke-linecap="square" stroke-linejoin="miter" stroke-miterlimit="2" d="M0 0L4.70933 5.47301" sodipodi:nodetypes="cc"/><path id="shape108" transform="translate(46.5841964593018, 59.5666774397629)" fill="none" stroke="#000000" stroke-width="0.72" stroke-linecap="square" stroke-linejoin="miter" stroke-miterlimit="2" d="M0 3.43654L4.07294 0" sodipodi:nodetypes="cc"/><path id="shape109" transform="translate(50.6571316688582, 59.5666774397629)" fill="none" stroke="#000000" stroke-width="0.72" stroke-linecap="square" stroke-linejoin="miter" stroke-miterlimit="2" d="M0 0L2.67286 3.56382" sodipodi:nodetypes="cc"/><path id="shape110" transform="translate(29.0196633680896, 57.784768285582)" fill="none" stroke="#000000" stroke-width="0.72" stroke-linecap="square" stroke-linejoin="miter" stroke-miterlimit="2" d="M4.45477 0L0 5.09117" sodipodi:nodetypes="cc"/><path id="shape111" transform="translate(25.3285658344291, 60.0757943409575)" fill="none" stroke="#000000" stroke-width="0.72" stroke-linecap="square" stroke-linejoin="miter" stroke-miterlimit="2" d="M3.6911 2.80014L0 0" sodipodi:nodetypes="cc"/><path id="shape112" transform="translate(22.2738644272618, 60.0757943409575)" fill="none" stroke="#000000" stroke-width="0.72" stroke-linecap="square" stroke-linejoin="miter" stroke-miterlimit="2" d="M3.0547 0L0 2.92742" sodipodi:nodetypes="cc"/><path id="shape113" transform="translate(42.8930989256412, 86.9317108789702)" fill="none" stroke="#000000" stroke-width="0.72" stroke-linecap="square" stroke-linejoin="miter" stroke-miterlimit="2" d="M0 0L5.21845 5.47301" sodipodi:nodetypes="cc"/><path id="shape114" transform="translate(48.1115471628854, 89.477295384943)" fill="none" stroke="#000000" stroke-width="0.72" stroke-linecap="square" stroke-linejoin="miter" stroke-miterlimit="2" d="M0 2.92742L3.30926 0" sodipodi:nodetypes="cc"/><path id="shape115" transform="translate(51.42080702065, 89.477295384943)" fill="none" stroke="#000000" stroke-width="0.72" stroke-linecap="square" stroke-linejoin="miter" stroke-miterlimit="2" d="M0 0L2.67286 2.92742" sodipodi:nodetypes="cc"/><path id="shape116" transform="translate(27.6195918898046, 86.9317108789702)" fill="none" stroke="#000000" stroke-width="0.72" stroke-linecap="square" stroke-linejoin="miter" stroke-miterlimit="2" d="M4.70933 0L0 5.60029" sodipodi:nodetypes="cc"/><path id="shape117" transform="translate(23.8012151308454, 89.0954577090471)" fill="none" stroke="#000000" stroke-width="0.72" stroke-linecap="square" stroke-linejoin="miter" stroke-miterlimit="2" d="M3.94566 3.30926L0 0" sodipodi:nodetypes="cc"/><path id="shape118" transform="translate(21.0010721742754, 89.0954577090471)" fill="none" stroke="#000000" stroke-width="0.72" stroke-linecap="square" stroke-linejoin="miter" stroke-miterlimit="2" d="M2.80014 0L0 3.30926" sodipodi:nodetypes="cc"/><path id="shape119" transform="translate(41.6203060135303, 28.0014291222528)" fill="none" stroke="#000000" stroke-width="0.72" stroke-linecap="square" stroke-linejoin="miter" stroke-miterlimit="2" d="M0 0L4.32749 5.60029" sodipodi:nodetypes="cc"/><path id="shape120" transform="translate(45.9477996051512, 30.1651759180632)" fill="none" stroke="#000000" stroke-width="0.72" stroke-linecap="square" stroke-linejoin="miter" stroke-miterlimit="2" d="M0 3.43654L3.18198 0" sodipodi:nodetypes="cc"/><path id="shape121" transform="translate(49.1297801872254, 30.1651759180632)" fill="none" stroke="#000000" stroke-width="0.72" stroke-linecap="square" stroke-linejoin="miter" stroke-miterlimit="2" d="M0 0L2.92742 3.43654" sodipodi:nodetypes="cc"/><path id="shape122" transform="translate(29.0196629085165, 28.1287083455358)" fill="none" stroke="#000000" stroke-width="0.72" stroke-linecap="square" stroke-linejoin="miter" stroke-miterlimit="2" d="M4.58205 0L0 5.09117" sodipodi:nodetypes="cc"/><path id="shape123" transform="translate(25.9649615497253, 30.4197343646292)" fill="none" stroke="#000000" stroke-width="0.72" stroke-linecap="square" stroke-linejoin="miter" stroke-miterlimit="2" d="M3.0547 2.80014L0 0" sodipodi:nodetypes="cc"/><path id="shape124" transform="translate(23.292097860783, 30.4197343646292)" fill="none" stroke="#000000" stroke-width="0.72" stroke-linecap="square" stroke-linejoin="miter" stroke-miterlimit="2" d="M2.67286 0L0 2.80014" sodipodi:nodetypes="cc"/><path id="shape02" transform="matrix(0.999999908692131 0 0 0.93654099049017 17.2172664308574 34.3624613728238)" fill="none" stroke="#737373" stroke-width="2.16" stroke-linecap="square" stroke-linejoin="miter" stroke-miterlimit="2" d="M0 0L0 11.1415" sodipodi:nodetypes="cc"/><circle id="shape015" transform="matrix(1.43710236180452 0 0 1.46346161685318 16.0418273277318 45.7790997059314)" r="0.719999999999999" cx="0.719999999999999" cy="0.719999999999999" fill="#d00000" fill-rule="evenodd" stroke-opacity="0" stroke="#000000" stroke-width="0" stroke-linecap="square" stroke-linejoin="bevel"/><path id="shape021" transform="matrix(0.999999908692131 0 0 0.93654099049017 58.3284535980705 34.4897405900597)" fill="none" stroke="#737373" stroke-width="2.16" stroke-linecap="square" stroke-linejoin="miter" stroke-miterlimit="2" d="M0 0L0 11.1415" sodipodi:nodetypes="cc"/><circle id="shape0151" transform="matrix(1.43710236180452 0 0 1.46346161685318 57.153014494945 45.9063789231674)" r="0.719999999999999" cx="0.719999999999999" cy="0.719999999999999" fill="#d00000" fill-rule="evenodd" stroke-opacity="0" stroke="#000000" stroke-width="0" stroke-linecap="square" stroke-linejoin="bevel"/><path id="shape022" transform="matrix(0.999999908692131 0 0 0.93654099049017 15.8171950412619 64.145798206037)" fill="none" stroke="#737373" stroke-width="2.16" stroke-linecap="square" stroke-linejoin="miter" stroke-miterlimit="2" d="M0 0L0 11.1415" sodipodi:nodetypes="cc"/><circle id="shape0152" transform="matrix(1.43710236180452 0 0 1.46346161685318 14.6417559381363 75.5624365391447)" r="0.719999999999999" cx="0.719999999999999" cy="0.719999999999999" fill="#d00000" fill-rule="evenodd" stroke-opacity="0" stroke="#000000" stroke-width="0" stroke-linecap="square" stroke-linejoin="bevel"/><path id="shape023" transform="matrix(0.999999908692131 0 0 0.93654099049017 14.4171236516664 93.6745766047783)" fill="none" stroke="#737373" stroke-width="2.16" stroke-linecap="square" stroke-linejoin="miter" stroke-miterlimit="2" d="M0 0L0 11.1415" sodipodi:nodetypes="cc"/><circle id="shape0153" transform="matrix(1.43710236180452 0 0 1.46346161685318 13.2416845485408 105.091214937886)" r="0.719999999999999" cx="0.719999999999999" cy="0.719999999999999" fill="#d00000" fill-rule="evenodd" stroke-opacity="0" stroke="#000000" stroke-width="0" stroke-linecap="square" stroke-linejoin="bevel"/><path id="shape024" transform="matrix(0.999999908692131 0 0 0.93654099049017 59.6012457704301 64.145798206037)" fill="none" stroke="#737373" stroke-width="2.16" stroke-linecap="square" stroke-linejoin="miter" stroke-miterlimit="2" d="M0 0L0 11.1415" sodipodi:nodetypes="cc"/><circle id="shape0154" transform="matrix(1.43710236180452 0 0 1.46346161685318 58.4258066673045 75.5624365391446)" r="0.719999999999999" cx="0.719999999999999" cy="0.719999999999999" fill="#d00000" fill-rule="evenodd" stroke-opacity="0" stroke="#000000" stroke-width="0" stroke-linecap="square" stroke-linejoin="bevel"/><path id="shape025" transform="matrix(0.999999908692131 0 0 0.93654099049017 60.3649210738458 93.4200181703064)" fill="none" stroke="#737373" stroke-width="2.16" stroke-linecap="square" stroke-linejoin="miter" stroke-miterlimit="2" d="M0 0L0 11.1415" sodipodi:nodetypes="cc"/><circle id="shape0155" transform="matrix(1.43710236180452 0 0 1.46346161685318 59.1894819707202 104.836656503414)" r="0.719999999999999" cx="0.719999999999999" cy="0.719999999999999" fill="#d00000" fill-rule="evenodd" stroke-opacity="0" stroke="#000000" stroke-width="0" stroke-linecap="square" stroke-linejoin="bevel"/><path id="shape41" transform="matrix(1.26318851955437 0 0 0.99999996110423 -64.8805174686799 214.385425032855)" fill="none" stroke="#3b2300" stroke-width="2.16" stroke-linecap="square" stroke-linejoin="miter" stroke-miterlimit="2" d="M0 0L160.92 0.18" sodipodi:nodetypes="cc"/><path id="shape51" transform="matrix(1.26318851955437 0 0 0.999999961104229 -64.6821900025955 212.749338520186)" fill="none" stroke="#297f00" stroke-width="1.44" stroke-linecap="square" stroke-linejoin="miter" stroke-miterlimit="2" d="M0 0L161.135 0.127279" sodipodi:nodetypes="cc"/>
</svg>
