<?xml version="1.0" standalone="no"?>
<!DOCTYPE svg PUBLIC "-//W3C//DTD SVG 20010904//EN" "http://www.w3.org/TR/2001/REC-SVG-20010904/DTD/svg10.dtd">
<!-- Created using Krita: https://krita.org -->
<svg xmlns="http://www.w3.org/2000/svg" 
    xmlns:xlink="http://www.w3.org/1999/xlink"
    xmlns:krita="http://krita.org/namespaces/svg/krita"
    xmlns:sodipodi="http://sodipodi.sourceforge.net/DTD/sodipodi-0.dtd"
    width="111.6pt"
    height="197.28pt"
    viewBox="0 0 111.6 197.28">
<defs/>
<path id="shape0" transform="translate(33.4081731710301, 76.8119398356085)" fill="none" stroke="#000000" stroke-width="1.44" stroke-linecap="square" stroke-linejoin="miter" stroke-miterlimit="2" d="M0 116.46L9.54 0" sodipodi:nodetypes="cc"/><path id="shape1" transform="translate(28.0081728903363, 28.9319373467908)" fill="none" stroke="#000000" stroke-width="1.44" stroke-linecap="square" stroke-linejoin="miter" stroke-miterlimit="2" d="M14.94 47.88L0 0" sodipodi:nodetypes="cc"/><path id="shape2" transform="translate(5.50817172077918, 28.9319373467908)" fill="none" stroke="#000000" stroke-width="1.44" stroke-linecap="square" stroke-linejoin="miter" stroke-miterlimit="2" d="M22.5 0L0 0.18" sodipodi:nodetypes="cc"/><path id="shape3" transform="translate(5.50817172077917, 19.931936878968)" fill="none" stroke="#000000" stroke-width="1.44" stroke-linecap="square" stroke-linejoin="miter" stroke-miterlimit="2" d="M0 9.18L16.38 0" sodipodi:nodetypes="cc"/><path id="shape4" transform="translate(22.3972894669612, 7.00035762818752)" fill="none" stroke="#000000" stroke-width="1.44" stroke-linecap="square" stroke-linejoin="miter" stroke-miterlimit="2" d="M0 12.8043L3.69495 0" sodipodi:nodetypes="cc"/><path id="shape5" transform="translate(25.128172740633, 4.45193607431264)" fill="none" stroke="#000000" stroke-width="1.44" stroke-linecap="square" stroke-linejoin="miter" stroke-miterlimit="2" d="M0.964069 2.61206L0 0" sodipodi:nodetypes="cc"/><path id="shape6" transform="translate(25.128172740633, 4.45193607431264)" fill="none" stroke="#000000" stroke-width="1.44" stroke-linecap="square" stroke-linejoin="miter" stroke-miterlimit="2" d="M0 0L61.74 0.18" sodipodi:nodetypes="cc"/><path id="shape7" transform="translate(85.9681759031156, 4.6319360836691)" fill="none" stroke="#000000" stroke-width="1.44" stroke-linecap="square" stroke-linejoin="miter" stroke-miterlimit="2" d="M0.9 0L0 2.16" sodipodi:nodetypes="cc"/><path id="shape8" transform="translate(85.9681759031156, 6.79193619594659)" fill="none" stroke="#000000" stroke-width="1.44" stroke-linecap="square" stroke-linejoin="miter" stroke-miterlimit="2" d="M0 0L3.96 13.32" sodipodi:nodetypes="cc"/><path id="shape9" transform="translate(89.9281761089576, 20.1119368883244)" fill="none" stroke="#000000" stroke-width="1.44" stroke-linecap="square" stroke-linejoin="miter" stroke-miterlimit="2" d="M0 0L16.2 9.18" sodipodi:nodetypes="cc"/><path id="shape10" transform="translate(83.4481757721251, 29.1119373561473)" fill="none" stroke="#000000" stroke-width="1.44" stroke-linecap="square" stroke-linejoin="miter" stroke-miterlimit="2" d="M22.68 0.18L0 0" sodipodi:nodetypes="cc"/><path id="shape11" transform="translate(68.8681750142522, 29.1119373561473)" fill="none" stroke="#000000" stroke-width="1.44" stroke-linecap="square" stroke-linejoin="miter" stroke-miterlimit="2" d="M14.58 0L0 47.7" sodipodi:nodetypes="cc"/><path id="shape12" transform="translate(68.8681750142521, 76.8119398356084)" fill="none" stroke="#000000" stroke-width="1.44" stroke-linecap="square" stroke-linejoin="miter" stroke-miterlimit="2" d="M0 0L9.79039 117.225" sodipodi:nodetypes="cc"/><path id="shape13" transform="translate(78.404000061223, 10.4368961238177)" fill="none" stroke="#000000" stroke-width="1.44" stroke-linecap="square" stroke-linejoin="miter" stroke-miterlimit="2" d="M4.83661 18.71L0 0" sodipodi:nodetypes="cc"/><path id="shape14" transform="translate(34.110831146277, 10.4368961238177)" fill="none" stroke="#000000" stroke-width="1.44" stroke-linecap="square" stroke-linejoin="miter" stroke-miterlimit="2" d="M44.2932 0L0 0" sodipodi:nodetypes="cc"/><path id="shape15" transform="translate(28.2559869793588, 10.3096169027977)" fill="none" stroke="#000000" stroke-width="1.44" stroke-linecap="square" stroke-linejoin="miter" stroke-miterlimit="2" d="M5.09117 0L0 18.3282" sodipodi:nodetypes="cc"/><path id="shape16" transform="translate(28.2559884869054, 29.1469424354115)" fill="none" stroke="#000000" stroke-width="1.44" stroke-linecap="square" stroke-linejoin="miter" stroke-miterlimit="2" d="M0 0L27.8741 47.6024" sodipodi:nodetypes="cc"/><path id="shape17" transform="translate(56.1301384029361, 28.8923839886897)" fill="none" stroke="#000000" stroke-width="1.44" stroke-linecap="square" stroke-linejoin="miter" stroke-miterlimit="2" d="M0 47.857L26.9832 0" sodipodi:nodetypes="cc"/><path id="shape18" transform="translate(36.4681697369719, 158.89193715259)" fill="none" stroke="#000000" stroke-width="0.72" stroke-linecap="square" stroke-linejoin="miter" stroke-miterlimit="2" d="M42.1904 34.9543L0 0" sodipodi:nodetypes="cc"/><path id="shape19" transform="translate(36.1081697326028, 129.011936420606)" fill="none" stroke="#000000" stroke-width="0.72" stroke-linecap="square" stroke-linejoin="miter" stroke-miterlimit="2" d="M0 28.98L36.72 0" sodipodi:nodetypes="cc"/><path id="shape20" transform="translate(40.7881680513639, 101.831934301605)" fill="none" stroke="#000000" stroke-width="0.72" stroke-linecap="square" stroke-linejoin="miter" stroke-miterlimit="2" d="M32.22 27L0 0" sodipodi:nodetypes="cc"/><path id="shape21" transform="translate(40.7881680513639, 76.5584553016075)" fill="none" stroke="#000000" stroke-width="0.72" stroke-linecap="square" stroke-linejoin="miter" stroke-miterlimit="2" d="M0 25.2735L15.2147 0" sodipodi:nodetypes="cc"/><path id="shape22" transform="translate(56.0028617581547, 77.0039325938404)" fill="none" stroke="#000000" stroke-width="0.72" stroke-linecap="square" stroke-linejoin="miter" stroke-miterlimit="2" d="M0 0L14.8917 24.9467" sodipodi:nodetypes="cc"/><path id="shape23" transform="translate(38.6281697631867, 100.93193644916)" fill="none" stroke="#000000" stroke-width="0.72" stroke-linecap="square" stroke-linejoin="miter" stroke-miterlimit="2" d="M32.04 0L0 27.9" sodipodi:nodetypes="cc"/><path id="shape24" transform="translate(38.6281697631867, 128.831936787767)" fill="none" stroke="#000000" stroke-width="0.72" stroke-linecap="square" stroke-linejoin="miter" stroke-miterlimit="2" d="M0 0L37.08 30.42" sodipodi:nodetypes="cc"/><path id="shape25" transform="translate(33.0481696954652, 159.251937156959)" fill="none" stroke="#000000" stroke-width="0.72" stroke-linecap="square" stroke-linejoin="miter" stroke-miterlimit="2" d="M42.66 0L0 33.84" sodipodi:nodetypes="cc"/><path id="shape26" transform="translate(34.7954489394629, 174.710099676191)" fill="none" stroke="#000000" stroke-width="0.72" stroke-linecap="square" stroke-linejoin="miter" stroke-miterlimit="2" d="M0 0L42.0827 0.0218351" sodipodi:nodetypes="cc"/><path id="shape27" transform="translate(37.292814043167, 142.680010886128)" fill="none" stroke="#000000" stroke-width="0.72" stroke-linecap="square" stroke-linejoin="miter" stroke-miterlimit="2" d="M0 0.127279L37.1655 0" sodipodi:nodetypes="cc"/><path id="shape28" transform="translate(39.5838400812257, 114.424023083405)" fill="none" stroke="#000000" stroke-width="0.72" stroke-linecap="square" stroke-linejoin="miter" stroke-miterlimit="2" d="M0 0L32.3289 0" sodipodi:nodetypes="cc"/><path id="shape29" transform="translate(34.365392333558, 181.882012990693)" fill="none" stroke="#000000" stroke-width="0.72" stroke-linecap="square" stroke-linejoin="miter" stroke-miterlimit="2" d="M0 0L12.4734 0.127279" sodipodi:nodetypes="cc"/><path id="shape30" transform="translate(34.6199507835322, 174.372538716456)" fill="none" stroke="#000000" stroke-width="0.72" stroke-linecap="square" stroke-linejoin="miter" stroke-miterlimit="2" d="M12.2188 7.63675L0 0" sodipodi:nodetypes="cc"/><path id="shape31" transform="translate(34.6199507835322, 166.863064442219)" fill="none" stroke="#000000" stroke-width="0.72" stroke-linecap="square" stroke-linejoin="miter" stroke-miterlimit="2" d="M0 7.50947L11.4551 0" sodipodi:nodetypes="cc"/><path id="shape32" transform="translate(35.7654638084158, 166.735785217232)" fill="none" stroke="#000000" stroke-width="0.72" stroke-linecap="square" stroke-linejoin="miter" stroke-miterlimit="2" d="M10.3096 0.127279L0 0" sodipodi:nodetypes="cc"/><path id="shape33" transform="translate(37.1655352832736, 148.534856044081)" fill="none" stroke="#000000" stroke-width="0.72" stroke-linecap="square" stroke-linejoin="miter" stroke-miterlimit="2" d="M0 0L9.8005 0" sodipodi:nodetypes="cc"/><path id="shape34" transform="translate(37.4200937332477, 142.680011694675)" fill="none" stroke="#000000" stroke-width="0.72" stroke-linecap="square" stroke-linejoin="miter" stroke-miterlimit="2" d="M9.54594 5.85484L0 0" sodipodi:nodetypes="cc"/><path id="shape35" transform="translate(37.4200937332477, 136.952446570257)" fill="none" stroke="#000000" stroke-width="0.72" stroke-linecap="square" stroke-linejoin="miter" stroke-miterlimit="2" d="M0 5.72757L10.6915 0" sodipodi:nodetypes="cc"/><path id="shape36" transform="translate(38.4383275331443, 136.952446570257)" fill="none" stroke="#000000" stroke-width="0.72" stroke-linecap="square" stroke-linejoin="miter" stroke-miterlimit="2" d="M9.67322 0L0 0" sodipodi:nodetypes="cc"/><path id="shape37" transform="translate(39.2019982313216, 119.897023641912)" fill="none" stroke="#000000" stroke-width="0.72" stroke-linecap="square" stroke-linejoin="miter" stroke-miterlimit="2" d="M0 0L8.90955 0.127279" sodipodi:nodetypes="cc"/><path id="shape38" transform="translate(39.8383943243957, 114.169458804245)" fill="none" stroke="#000000" stroke-width="0.72" stroke-linecap="square" stroke-linejoin="miter" stroke-miterlimit="2" d="M8.27315 5.85484L0 0" sodipodi:nodetypes="cc"/><path id="shape39" transform="translate(39.8383943243957, 108.696452403808)" fill="none" stroke="#000000" stroke-width="0.72" stroke-linecap="square" stroke-linejoin="miter" stroke-miterlimit="2" d="M0 5.47301L8.90955 0" sodipodi:nodetypes="cc"/><path id="shape40" transform="translate(40.3475111988549, 108.696452403808)" fill="none" stroke="#000000" stroke-width="0.72" stroke-linecap="square" stroke-linejoin="miter" stroke-miterlimit="2" d="M8.40043 0L0 0" sodipodi:nodetypes="cc"/><path id="shape41" transform="translate(64.6578478207466, 182.136571340918)" fill="none" stroke="#000000" stroke-width="0.72" stroke-linecap="square" stroke-linejoin="miter" stroke-miterlimit="2" d="M12.7279 0.127276L0 0" sodipodi:nodetypes="cc"/><path id="shape42" transform="translate(64.6578478207466, 174.88165260096)" fill="none" stroke="#000000" stroke-width="0.72" stroke-linecap="square" stroke-linejoin="miter" stroke-miterlimit="2" d="M0 7.44584L11.9642 0" sodipodi:nodetypes="cc"/><path id="shape43" transform="translate(65.4215213437349, 167.244899222676)" fill="none" stroke="#000000" stroke-width="0.72" stroke-linecap="square" stroke-linejoin="miter" stroke-miterlimit="2" d="M11.2006 7.63675L0 0" sodipodi:nodetypes="cc"/><path id="shape44" transform="translate(65.4215213437349, 167.244899222676)" fill="none" stroke="#000000" stroke-width="0.72" stroke-linecap="square" stroke-linejoin="miter" stroke-miterlimit="2" d="M0 0L10.5642 0" sodipodi:nodetypes="cc"/><path id="shape45" transform="translate(63.8941706680782, 149.42580800668)" fill="none" stroke="#000000" stroke-width="0.72" stroke-linecap="square" stroke-linejoin="miter" stroke-miterlimit="2" d="M10.946 0.127279L0 0" sodipodi:nodetypes="cc"/><path id="shape46" transform="translate(63.8941706680782, 142.425450743253)" fill="none" stroke="#000000" stroke-width="0.72" stroke-linecap="square" stroke-linejoin="miter" stroke-miterlimit="2" d="M0 7.00036L10.0551 0" sodipodi:nodetypes="cc"/><path id="shape47" transform="translate(63.7668914451068, 135.934210371712)" fill="none" stroke="#000000" stroke-width="0.72" stroke-linecap="square" stroke-linejoin="miter" stroke-miterlimit="2" d="M10.1823 6.49124L0 0" sodipodi:nodetypes="cc"/><path id="shape48" transform="translate(63.7668914451068, 135.80693114874)" fill="none" stroke="#000000" stroke-width="0.72" stroke-linecap="square" stroke-linejoin="miter" stroke-miterlimit="2" d="M0 0.127279L9.54594 0" sodipodi:nodetypes="cc"/><path id="shape49" transform="translate(62.1122557477278, 119.51518384744)" fill="none" stroke="#000000" stroke-width="0.72" stroke-linecap="square" stroke-linejoin="miter" stroke-miterlimit="2" d="M10.1823 0.127279L0 0" sodipodi:nodetypes="cc"/><path id="shape50" transform="translate(62.1122557477278, 114.296735966875)" fill="none" stroke="#000000" stroke-width="0.72" stroke-linecap="square" stroke-linejoin="miter" stroke-miterlimit="2" d="M0 5.21845L9.92778 0" sodipodi:nodetypes="cc"/><path id="shape51" transform="translate(61.9849765311287, 108.823729653112)" fill="none" stroke="#000000" stroke-width="0.72" stroke-linecap="square" stroke-linejoin="miter" stroke-miterlimit="2" d="M10.0551 5.47301L0 0" sodipodi:nodetypes="cc"/><path id="shape52" transform="translate(61.9849765311287, 108.696450436513)" fill="none" stroke="#000000" stroke-width="0.72" stroke-linecap="square" stroke-linejoin="miter" stroke-miterlimit="2" d="M0 0.127279L9.29138 0" sodipodi:nodetypes="cc"/><path id="shape53" transform="translate(42.7658165990686, 76.6220895483478)" fill="none" stroke="#000000" stroke-width="0.72" stroke-linecap="square" stroke-linejoin="miter" stroke-miterlimit="2" d="M0 0L26.2195 0.127279" sodipodi:nodetypes="cc"/><path id="shape54" transform="translate(61.6031410021972, 86.2953101877922)" fill="none" stroke="#000000" stroke-width="0.72" stroke-linecap="square" stroke-linejoin="miter" stroke-miterlimit="2" d="M8.52771 0L0 0" sodipodi:nodetypes="cc"/><path id="shape55" transform="translate(61.6031410021972, 76.3675311104677)" fill="none" stroke="#000000" stroke-width="0.72" stroke-linecap="square" stroke-linejoin="miter" stroke-miterlimit="2" d="M0 9.92778L7.12764 0" sodipodi:nodetypes="cc"/><path id="shape56" transform="translate(42.1294205043683, 86.5498686256723)" fill="none" stroke="#000000" stroke-width="0.72" stroke-linecap="square" stroke-linejoin="miter" stroke-miterlimit="2" d="M0 0L7.76403 0.127279" sodipodi:nodetypes="cc"/><path id="shape57" transform="translate(42.7658165990686, 76.2402518915276)" fill="none" stroke="#000000" stroke-width="0.72" stroke-linecap="square" stroke-linejoin="miter" stroke-miterlimit="2" d="M7.12764 10.4369L0 0" sodipodi:nodetypes="cc"/><path id="shape58" transform="translate(61.0940262379393, 67.3307080896571)" fill="none" stroke="#000000" stroke-width="0.72" stroke-linecap="square" stroke-linejoin="miter" stroke-miterlimit="2" d="M7.89131 9.92778L0 0" sodipodi:nodetypes="cc"/><path id="shape59" transform="translate(61.0940262379393, 57.7847664935844)" fill="none" stroke="#000000" stroke-width="0.72" stroke-linecap="square" stroke-linejoin="miter" stroke-miterlimit="2" d="M0 9.54594L13.6189 0" sodipodi:nodetypes="cc"/><path id="shape60" transform="translate(71.9127600468217, 48.1115456762307)" fill="none" stroke="#000000" stroke-width="0.72" stroke-linecap="square" stroke-linejoin="miter" stroke-miterlimit="2" d="M2.80014 9.67322L0 0" sodipodi:nodetypes="cc"/><path id="shape61" transform="translate(71.9127600468217, 47.9842664549497)" fill="none" stroke="#000000" stroke-width="0.72" stroke-linecap="square" stroke-linejoin="miter" stroke-miterlimit="2" d="M0 0.127279L5.60029 0" sodipodi:nodetypes="cc"/><path id="shape62" transform="translate(77.5130457831844, 38.8201625227199)" fill="none" stroke="#000000" stroke-width="0.72" stroke-linecap="square" stroke-linejoin="miter" stroke-miterlimit="2" d="M0 9.1641L0 0" sodipodi:nodetypes="cc"/><path id="shape63" transform="translate(77.5130457831844, 38.8201625227199)" fill="none" stroke="#000000" stroke-width="0.72" stroke-linecap="square" stroke-linejoin="miter" stroke-miterlimit="2" d="M0 0L2.92742 0" sodipodi:nodetypes="cc"/><path id="shape64" transform="translate(66.8215911955829, 57.7847664935844)" fill="none" stroke="#000000" stroke-width="0.72" stroke-linecap="square" stroke-linejoin="miter" stroke-miterlimit="2" d="M0 0L7.63675 0.127279" sodipodi:nodetypes="cc"/><path id="shape65" transform="translate(60.7121885740964, 67.7125457535)" fill="none" stroke="#000000" stroke-width="0.72" stroke-linecap="square" stroke-linejoin="miter" stroke-miterlimit="2" d="M0 0L10.8187 0" sodipodi:nodetypes="cc"/><path id="shape66" transform="translate(39.9656755052984, 67.0761496470952)" fill="none" stroke="#000000" stroke-width="0.72" stroke-linecap="square" stroke-linejoin="miter" stroke-miterlimit="2" d="M0 0.127279L10.6915 0" sodipodi:nodetypes="cc"/><path id="shape67" transform="translate(42.5112599309177, 66.9488704258142)" fill="none" stroke="#000000" stroke-width="0.72" stroke-linecap="square" stroke-linejoin="miter" stroke-miterlimit="2" d="M0 8.78227L7.76403 0" sodipodi:nodetypes="cc"/><path id="shape68" transform="translate(37.038253415836, 57.9120457148653)" fill="none" stroke="#000000" stroke-width="0.72" stroke-linecap="square" stroke-linejoin="miter" stroke-miterlimit="2" d="M13.237 9.03682L0 0" sodipodi:nodetypes="cc"/><path id="shape69" transform="translate(37.038253415836, 47.9842664549497)" fill="none" stroke="#000000" stroke-width="0.72" stroke-linecap="square" stroke-linejoin="miter" stroke-miterlimit="2" d="M0 9.92778L2.41831 0" sodipodi:nodetypes="cc"/><path id="shape70" transform="translate(34.2381105476547, 47.9842664549497)" fill="none" stroke="#000000" stroke-width="0.72" stroke-linecap="square" stroke-linejoin="miter" stroke-miterlimit="2" d="M5.21845 0L0 0" sodipodi:nodetypes="cc"/><path id="shape71" transform="translate(34.1108313263737, 39.3292794078438)" fill="none" stroke="#000000" stroke-width="0.72" stroke-linecap="square" stroke-linejoin="miter" stroke-miterlimit="2" d="M0.127279 8.65499L0 0" sodipodi:nodetypes="cc"/><path id="shape72" transform="translate(30.6742923517876, 39.3292794078438)" fill="none" stroke="#000000" stroke-width="0.72" stroke-linecap="square" stroke-linejoin="miter" stroke-miterlimit="2" d="M3.43654 0L0 0" sodipodi:nodetypes="cc"/><path id="shape73" transform="translate(37.038253415836, 57.4029288297415)" fill="none" stroke="#000000" stroke-width="0.72" stroke-linecap="square" stroke-linejoin="miter" stroke-miterlimit="2" d="M0 0.127279L7.89131 0" sodipodi:nodetypes="cc"/><path id="shape74" transform="translate(80.7481762511032, 19.9319370422973)" fill="none" stroke="#000000" stroke-width="0.72" stroke-linecap="square" stroke-linejoin="miter" stroke-miterlimit="2" d="M0 0L9.36 0.18" sodipodi:nodetypes="cc"/><path id="shape75" transform="translate(22.0681729306171, 19.7519370321118)" fill="none" stroke="#000000" stroke-width="0.72" stroke-linecap="square" stroke-linejoin="miter" stroke-miterlimit="2" d="M0 0L8.64 0" sodipodi:nodetypes="cc"/><path id="shape76" transform="translate(24.7681730834002, 10.2119364922781)" fill="none" stroke="#000000" stroke-width="0.72" stroke-linecap="square" stroke-linejoin="miter" stroke-miterlimit="2" d="M5.94 9.54L0 0" sodipodi:nodetypes="cc"/><path id="shape77" transform="translate(24.7681730834003, 10.2119364922781)" fill="none" stroke="#000000" stroke-width="0.72" stroke-linecap="square" stroke-linejoin="miter" stroke-miterlimit="2" d="M0 0L8.28 0.18" sodipodi:nodetypes="cc"/><path id="shape78" transform="translate(78.0481760983202, 10.2119364922781)" fill="none" stroke="#000000" stroke-width="0.72" stroke-linecap="square" stroke-linejoin="miter" stroke-miterlimit="2" d="M0 0L9 0" sodipodi:nodetypes="cc"/><path id="shape79" transform="translate(83.4481764038863, 19.9319370422973)" fill="none" stroke="#000000" stroke-width="0.72" stroke-linecap="square" stroke-linejoin="miter" stroke-miterlimit="2" d="M0 8.82L6.12 0" sodipodi:nodetypes="cc"/><path id="shape80" transform="translate(89.5681767501947, 19.9319370422973)" fill="none" stroke="#000000" stroke-width="0.72" stroke-linecap="square" stroke-linejoin="miter" stroke-miterlimit="2" d="M0 0L3.6 9.54" sodipodi:nodetypes="cc"/><path id="shape81" transform="translate(93.1681769539055, 25.3319373478635)" fill="none" stroke="#000000" stroke-width="0.72" stroke-linecap="square" stroke-linejoin="miter" stroke-miterlimit="2" d="M0 4.14L6.3 0" sodipodi:nodetypes="cc"/><path id="shape82" transform="translate(99.2881773002139, 25.3319373478635)" fill="none" stroke="#000000" stroke-width="0.72" stroke-linecap="square" stroke-linejoin="miter" stroke-miterlimit="2" d="M0.18 0L0 3.42" sodipodi:nodetypes="cc"/><path id="shape83" transform="translate(22.0681729306171, 19.9319370422973)" fill="none" stroke="#000000" stroke-width="0.72" stroke-linecap="square" stroke-linejoin="miter" stroke-miterlimit="2" d="M5.94 8.82L0 0" sodipodi:nodetypes="cc"/><path id="shape84" transform="translate(19.008172757463, 19.9319370422973)" fill="none" stroke="#000000" stroke-width="0.72" stroke-linecap="square" stroke-linejoin="miter" stroke-miterlimit="2" d="M3.06 0L0 9" sodipodi:nodetypes="cc"/><path id="shape85" transform="translate(11.6281723398558, 25.3319373478635)" fill="none" stroke="#000000" stroke-width="0.72" stroke-linecap="square" stroke-linejoin="miter" stroke-miterlimit="2" d="M7.38 3.6L0 0" sodipodi:nodetypes="cc"/><path id="shape86" transform="translate(11.6281723398558, 25.3319373478635)" fill="none" stroke="#000000" stroke-width="0.72" stroke-linecap="square" stroke-linejoin="miter" stroke-miterlimit="2" d="M0 0L0.18 3.42" sodipodi:nodetypes="cc"/><path id="shape87" transform="translate(26.2081731648846, 4.45193616634085)" fill="none" stroke="#000000" stroke-width="0.72" stroke-linecap="square" stroke-linejoin="miter" stroke-miterlimit="2" d="M0 0L7.2 5.94" sodipodi:nodetypes="cc"/><path id="shape88" transform="translate(33.4081735723062, 4.45193616634085)" fill="none" stroke="#000000" stroke-width="0.72" stroke-linecap="square" stroke-linejoin="miter" stroke-miterlimit="2" d="M0 5.94L7.38 0" sodipodi:nodetypes="cc"/><path id="shape89" transform="translate(40.7881739899133, 4.45193616634085)" fill="none" stroke="#000000" stroke-width="0.72" stroke-linecap="square" stroke-linejoin="miter" stroke-miterlimit="2" d="M0 0L7.56 6.12" sodipodi:nodetypes="cc"/><path id="shape90" transform="translate(48.348174417706, 4.81193618671193)" fill="none" stroke="#000000" stroke-width="0.72" stroke-linecap="square" stroke-linejoin="miter" stroke-miterlimit="2" d="M0 5.76L7.92 0" sodipodi:nodetypes="cc"/><path id="shape91" transform="translate(56.0881748556843, 4.81193618671193)" fill="none" stroke="#000000" stroke-width="0.72" stroke-linecap="square" stroke-linejoin="miter" stroke-miterlimit="2" d="M0 0L6.66 5.76" sodipodi:nodetypes="cc"/><path id="shape92" transform="translate(62.7481752325492, 4.27193615615531)" fill="none" stroke="#000000" stroke-width="0.72" stroke-linecap="square" stroke-linejoin="miter" stroke-miterlimit="2" d="M0 6.3L8.46 0" sodipodi:nodetypes="cc"/><path id="shape93" transform="translate(71.2081757112696, 4.27193615615531)" fill="none" stroke="#000000" stroke-width="0.72" stroke-linecap="square" stroke-linejoin="miter" stroke-miterlimit="2" d="M0 0L6.84 6.12" sodipodi:nodetypes="cc"/><path id="shape94" transform="translate(78.0481760983202, 4.45193616634085)" fill="none" stroke="#000000" stroke-width="0.72" stroke-linecap="square" stroke-linejoin="miter" stroke-miterlimit="2" d="M0 5.94L7.74 0" sodipodi:nodetypes="cc"/><path id="shape95" transform="translate(33.4081735723062, 4.63193617652639)" fill="none" stroke="#000000" stroke-width="0.72" stroke-linecap="square" stroke-linejoin="miter" stroke-miterlimit="2" d="M0 0L0 5.4" sodipodi:nodetypes="cc"/><path id="shape96" transform="translate(78.2281761085057, 4.99193619689747)" fill="none" stroke="#000000" stroke-width="0.72" stroke-linecap="square" stroke-linejoin="miter" stroke-miterlimit="2" d="M0.18 0L0 5.04" sodipodi:nodetypes="cc"/><path id="shape97" transform="translate(81.1081741363825, 9.85193606997387)" fill="none" stroke="#000000" stroke-width="0.72" stroke-linecap="square" stroke-linejoin="miter" stroke-miterlimit="2" d="M0 10.08L5.76 0" sodipodi:nodetypes="cc"/><path id="shape0" transform="matrix(0.999999948866329 0 0 0.999999948866329 56.1125303423917 12.1895870877765)" fill="none" stroke="#737373" stroke-width="2.16" stroke-linecap="square" stroke-linejoin="miter" stroke-miterlimit="2" d="M0 0L0 16.3554" sodipodi:nodetypes="cc"/><circle id="shape01" transform="matrix(1.54510021657991 0 0 1.46487243340913 52.8733702561091 29.3186917558902)" r="0.719999999999999" cx="0.719999999999999" cy="0.719999999999999" fill="#d00000" fill-rule="evenodd" stroke-opacity="0" stroke="#000000" stroke-width="0" stroke-linecap="square" stroke-linejoin="bevel"/><circle id="shape011" transform="matrix(1.4371024640425 0 0 1.46346172096641 57.1939430610602 29.2532231780778)" r="0.719999999999999" cx="0.719999999999999" cy="0.719999999999999" fill="#d00000" fill-rule="evenodd" stroke-opacity="0" stroke="#000000" stroke-width="0" stroke-linecap="square" stroke-linejoin="bevel"/><path id="shape01" transform="matrix(0.999999948866329 0 0 0.999999948866329 6.38230906373521 30.911367912429)" fill="none" stroke="#737373" stroke-width="2.16" stroke-linecap="square" stroke-linejoin="miter" stroke-miterlimit="2" d="M0 0L0 16.3554" sodipodi:nodetypes="cc"/><circle id="shape011" transform="matrix(1.54510021657991 0 0 1.46487243340913 3.1431489774526 48.0404725805426)" r="0.719999999999999" cx="0.719999999999999" cy="0.719999999999999" fill="#d00000" fill-rule="evenodd" stroke-opacity="0" stroke="#000000" stroke-width="0" stroke-linecap="square" stroke-linejoin="bevel"/><circle id="shape0111" transform="matrix(1.4371024640425 0 0 1.46346172096641 7.46372178240377 47.9750040027302)" r="0.719999999999999" cx="0.719999999999999" cy="0.719999999999999" fill="#d00000" fill-rule="evenodd" stroke-opacity="0" stroke="#000000" stroke-width="0" stroke-linecap="square" stroke-linejoin="bevel"/><path id="shape02" transform="matrix(0.999999948866329 0 0 0.999999948866329 104.641868394814 30.4022510247032)" fill="none" stroke="#737373" stroke-width="2.16" stroke-linecap="square" stroke-linejoin="miter" stroke-miterlimit="2" d="M0 0L0 16.3554" sodipodi:nodetypes="cc"/><circle id="shape012" transform="matrix(1.54510021657991 0 0 1.46487243340913 101.402708308531 47.5313556928169)" r="0.719999999999999" cx="0.719999999999999" cy="0.719999999999999" fill="#d00000" fill-rule="evenodd" stroke-opacity="0" stroke="#000000" stroke-width="0" stroke-linecap="square" stroke-linejoin="bevel"/><circle id="shape0112" transform="matrix(1.4371024640425 0 0 1.46346172096641 105.723281113483 47.4658871150045)" r="0.719999999999999" cx="0.719999999999999" cy="0.719999999999999" fill="#d00000" fill-rule="evenodd" stroke-opacity="0" stroke="#000000" stroke-width="0" stroke-linecap="square" stroke-linejoin="bevel"/><path id="shape4" transform="matrix(0.999999976803756 0 0 0.999999976803756 -21.2004734655428 196.150966951497)" fill="none" stroke="#3b2300" stroke-width="2.16" stroke-linecap="square" stroke-linejoin="miter" stroke-miterlimit="2" d="M0 0L160.92 0.18" sodipodi:nodetypes="cc"/><path id="shape5" transform="matrix(0.999999976803756 0 0 0.999999976803756 -21.0434680317428 194.514880413143)" fill="none" stroke="#297f00" stroke-width="1.44" stroke-linecap="square" stroke-linejoin="miter" stroke-miterlimit="2" d="M0 0L161.135 0.127279" sodipodi:nodetypes="cc"/>
</svg>
