<?xml version="1.0" standalone="no"?>
<!DOCTYPE svg PUBLIC "-//W3C//DTD SVG 20010904//EN" "http://www.w3.org/TR/2001/REC-SVG-20010904/DTD/svg10.dtd">
<!-- Created using Krita: https://krita.org -->
<svg xmlns="http://www.w3.org/2000/svg" 
    xmlns:xlink="http://www.w3.org/1999/xlink"
    xmlns:krita="http://krita.org/namespaces/svg/krita"
    xmlns:sodipodi="http://sodipodi.sourceforge.net/DTD/sodipodi-0.dtd"
    width="192.96pt"
    height="211.68pt"
    viewBox="0 0 192.96 211.68">
<defs>
  <linearGradient id="gradient0" gradientUnits="objectBoundingBox" x1="-0.00421982976264636" y1="0.507130378516379" x2="1" y2="0.507130378516379" spreadMethod="pad">
   <stop stop-color="#bfbfbf" offset="0" stop-opacity="1"/>
   <stop stop-color="#808080" offset="1" stop-opacity="1"/>
  </linearGradient>
 </defs>
<path id="shape0" transform="matrix(1.00000000066695 0 0 1.00000000066695 10.2600017693264 26.8401823398138)" fill="url(#gradient0)" fill-rule="evenodd" stroke="#666666" stroke-width="1" stroke-linecap="square" stroke-linejoin="bevel" d="M0 82.7784L0 88.5384L12.96 88.3584C20.4947 86.4784 20.0259 87.1571 26.1606 79.8041C33.0514 73.148 42.8547 54.3872 48.6 47.8584C49.7876 55.11 51.0652 58.6791 55.9439 64.6578C62.0745 71.1264 66.4606 74.4044 67.5 80.6184L67.5 151.898L73.8 151.718L73.62 79.7184C71.9183 73.5167 67.3188 67.5503 60.9078 60.8395C57.9714 57.0159 54.369 54.9935 54.36 40.4784L76.4359 7.3822L92.7276 7.12764L112.86 35.4384C116.04 45.0527 115.499 52.8015 107.874 59.5667C102.474 67.2689 96.4725 69.9381 95.7823 80.1859L96.0369 152.226L102.91 152.226L102.655 81.2041C102.021 77.9434 105.58 71.6769 111.056 65.4215C118.563 58.7368 118.44 54.9235 120.984 46.5842C128.058 54.6273 137.466 71.3154 144.54 79.3584C149.854 85.4009 152.186 88.4359 158.4 89.2584L170.55 89.0784L170.623 82.7315L157.895 82.4769C154.997 81.7583 153.017 81.337 148.05 74.2284C140.753 65.7478 115.708 27.8099 96.8006 3.30926L84.0726 0L71.5993 2.80014C61.4558 19.3069 35.1766 58.948 23.3604 75.0947C18.7152 80.9673 15.9142 82.4592 12.2872 82.9861Z" sodipodi:nodetypes="cccccccccccccccccccccccccccccccccc"/><path id="shape01" transform="matrix(0.999999975448449 0 0 0.999999975448449 83.8957373797937 91.1161925064854)" fill="#5f3e1d" fill-rule="evenodd" stroke="#3b2300" stroke-width="1" stroke-linecap="square" stroke-linejoin="bevel" d="M0 120.922L0.254558 5.21844L10.8187 0L22.1466 5.09117L22.1466 120.922Z" sodipodi:nodetypes="cccccc"/><g id="group0" transform="translate(2.20499972181914, 86.0091086893767)" fill="none">
  <path id="shape0" transform="translate(0.0411201292434953, 1.67054409147966)" fill="#87cd75" fill-rule="evenodd" d="M10.596 3.33067e-15C11.9855 2.61773e-15 16.313 3.97286e-16 17.0872 0L17.0299 2.04065C18.5008 3.33523 19.5428 4.06481 22.1439 5.22146C25.6303 7.11858 25.2049 6.92923 27.4539 7.89896L17.0114 5.37379C17.2806 7.64238 18.6496 10.0775 20.9056 12.3461C23.301 15.1782 23.2364 15.1151 24.8831 16.9281L16.8909 11.053L16.8909 14.9987L11.3542 14.9987L11.3542 11.3076L3.10176 16.9746C4.23736 15.2019 6.18038 13.4027 7.74173 11.4129C10.4536 7.72561 10.2918 7.85316 10.8039 5.46896L0 7.74812C2.32519 6.755 3.01383 6.51599 5.7549 5.11477C8.58296 3.61477 9.16362 3.25063 10.6123 1.67237Z" sodipodi:nodetypes="ccccccccccccccccccc"/>
  <path id="shape1" transform="translate(14.1750012839444, 18.0295027019588)" fill="none" stroke="#333333" stroke-width="2.88" stroke-linecap="square" stroke-linejoin="miter" stroke-miterlimit="2" d="M0.09 4.05L0 0" sodipodi:nodetypes="cc"/>
  <path id="shape2" transform="translate(3.41999997364939, 11.7970019178548)" fill="#80d26b" fill-opacity="0.498039215686275" fill-rule="evenodd" d="M0 6.57L7.155 0.0225L13.23 0L21.5678 6.64258Z" sodipodi:nodetypes="ccccc"/>
  <path id="shape3" transform="translate(0, 5.4520052329152)" fill="#86cf73" fill-opacity="0.576470588235294" fill-rule="evenodd" d="M0 4.095L10.125 0L17.0325 0.0675L27.315 4.14Z" sodipodi:nodetypes="ccccc"/>
  <path id="shape4" transform="translate(11.718988217117, 0)" fill="#404040" fill-rule="evenodd" d="M0 1.82964L1.20915 0L3.32517 0.0159099L4.45477 1.81373Z" sodipodi:nodetypes="ccccc"/>
 </g><g id="group0" transform="matrix(0.999999986595425 0 0 0.999999986595425 79.9901279127866 3.96181046233715)" fill="none">
  <path id="shape02" transform="translate(0.0411201292434953, 1.67054409147968)" fill="#87cd75" fill-rule="evenodd" stroke-opacity="0" stroke="#000000" stroke-width="0" stroke-linecap="square" stroke-linejoin="bevel" d="M10.596 3.33067e-15C11.9855 2.61773e-15 16.313 3.97286e-16 17.0872 0L17.0299 2.04065C18.5008 3.33523 19.5428 4.06481 22.1439 5.22146C25.6303 7.11858 25.2049 6.92923 27.4539 7.89896L17.0114 5.37379C17.2806 7.64238 18.6496 10.0775 20.9056 12.3461C23.301 15.1782 23.2364 15.1151 24.8831 16.9281L16.8909 11.053L16.8909 14.9987L11.3542 14.9987L11.3542 11.3076L3.10176 16.9746C4.23736 15.2019 6.18038 13.4027 7.74173 11.4129C10.4536 7.72561 10.2918 7.85316 10.8039 5.46896L0 7.74812C2.32519 6.755 3.01383 6.51599 5.7549 5.11477C8.58296 3.61477 9.16362 3.25063 10.6123 1.67237Z" sodipodi:nodetypes="ccccccccccccccccccc"/>
  <path id="shape1" transform="translate(14.1750012839444, 18.0295027019588)" fill="none" stroke="#333333" stroke-width="2.88" stroke-linecap="square" stroke-linejoin="miter" stroke-miterlimit="2" d="M0.09 4.05L0 0" sodipodi:nodetypes="cc"/>
  <path id="shape2" transform="translate(3.41999997364939, 11.7970019178548)" fill="#80d26b" fill-opacity="0.498039215686275" fill-rule="evenodd" stroke-opacity="0" stroke="#000000" stroke-width="0" stroke-linecap="square" stroke-linejoin="bevel" d="M0 6.57L7.155 0.0225L13.23 0L21.5678 6.64258Z" sodipodi:nodetypes="ccccc"/>
  <path id="shape3" transform="translate(0, 5.45200523291523)" fill="#86cf73" fill-opacity="0.576470588235294" fill-rule="evenodd" stroke-opacity="0" stroke="#000000" stroke-width="0" stroke-linecap="square" stroke-linejoin="bevel" d="M0 4.095L10.125 0L17.0325 0.0675L27.315 4.14Z" sodipodi:nodetypes="ccccc"/>
  <path id="shape4" transform="translate(11.718988217117, 1.4210854715202e-14)" fill="#404040" fill-rule="evenodd" stroke-opacity="0" stroke="#000000" stroke-width="0" stroke-linecap="square" stroke-linejoin="bevel" d="M0 1.82964L1.20915 0L3.32517 0.0159099L4.45477 1.81373Z" sodipodi:nodetypes="ccccc"/>
 </g><g id="group01" transform="matrix(0.999999986595425 0 0 0.999999986595425 162.271624455002 85.7959563045927)" fill="none">
  <path id="shape03" transform="translate(0.0411201292434953, 1.67054409147968)" fill="#87cd75" fill-rule="evenodd" stroke-opacity="0" stroke="#000000" stroke-width="0" stroke-linecap="square" stroke-linejoin="bevel" d="M10.596 3.33067e-15C11.9855 2.61773e-15 16.313 3.97286e-16 17.0872 0L17.0299 2.04065C18.5008 3.33523 19.5428 4.06481 22.1439 5.22146C25.6303 7.11858 25.2049 6.92923 27.4539 7.89896L17.0114 5.37379C17.2806 7.64238 18.6496 10.0775 20.9056 12.3461C23.301 15.1782 23.2364 15.1151 24.8831 16.9281L16.8909 11.053L16.8909 14.9987L11.3542 14.9987L11.3542 11.3076L3.10176 16.9746C4.23736 15.2019 6.18038 13.4027 7.74173 11.4129C10.4536 7.72561 10.2918 7.85316 10.8039 5.46896L0 7.74812C2.32519 6.755 3.01383 6.51599 5.7549 5.11477C8.58296 3.61477 9.16362 3.25063 10.6123 1.67237Z" sodipodi:nodetypes="ccccccccccccccccccc"/>
  <path id="shape11" transform="translate(14.1750012839444, 18.0295027019588)" fill="none" stroke="#333333" stroke-width="2.88" stroke-linecap="square" stroke-linejoin="miter" stroke-miterlimit="2" d="M0.09 4.05L0 0" sodipodi:nodetypes="cc"/>
  <path id="shape21" transform="translate(3.41999997364939, 11.7970019178548)" fill="#80d26b" fill-opacity="0.498039215686275" fill-rule="evenodd" stroke-opacity="0" stroke="#000000" stroke-width="0" stroke-linecap="square" stroke-linejoin="bevel" d="M0 6.57L7.155 0.0225L13.23 0L21.5678 6.64258Z" sodipodi:nodetypes="ccccc"/>
  <path id="shape31" transform="translate(0, 5.45200523291523)" fill="#86cf73" fill-opacity="0.576470588235294" fill-rule="evenodd" stroke-opacity="0" stroke="#000000" stroke-width="0" stroke-linecap="square" stroke-linejoin="bevel" d="M0 4.095L10.125 0L17.0325 0.0675L27.315 4.14Z" sodipodi:nodetypes="ccccc"/>
  <path id="shape41" transform="translate(11.718988217117, 1.4210854715202e-14)" fill="#404040" fill-rule="evenodd" stroke-opacity="0" stroke="#000000" stroke-width="0" stroke-linecap="square" stroke-linejoin="bevel" d="M0 1.82964L1.20915 0L3.32517 0.0159099L4.45477 1.81373Z" sodipodi:nodetypes="ccccc"/>
 </g>
</svg>
