<?xml version="1.0" standalone="no"?>
<!DOCTYPE svg PUBLIC "-//W3C//DTD SVG 20010904//EN" "http://www.w3.org/TR/2001/REC-SVG-20010904/DTD/svg10.dtd">
<!-- Created using Krita: https://krita.org -->
<svg xmlns="http://www.w3.org/2000/svg" 
    xmlns:xlink="http://www.w3.org/1999/xlink"
    xmlns:krita="http://krita.org/namespaces/svg/krita"
    xmlns:sodipodi="http://sodipodi.sourceforge.net/DTD/sodipodi-0.dtd"
    width="172.08pt"
    height="192.96pt"
    viewBox="0 0 172.08 192.96">
<defs/>
<path id="shape0" transform="translate(79.6050743379919, 7.5830519208988)" fill="none" stroke="#000000" stroke-width="1.44" stroke-linecap="square" stroke-linejoin="miter" stroke-miterlimit="2" d="M0 0L0.127279 54.221" sodipodi:nodetypes="cc"/><path id="shape1" transform="translate(93.3512307043761, 7.5830519208988)" fill="none" stroke="#000000" stroke-width="1.44" stroke-linecap="square" stroke-linejoin="miter" stroke-miterlimit="2" d="M0 0L0 54.221" sodipodi:nodetypes="cc"/><path id="shape2" transform="translate(66.0600055551338, 61.7000049108332)" fill="none" stroke="#000000" stroke-width="1.44" stroke-linecap="square" stroke-linejoin="miter" stroke-miterlimit="2" d="M0 126.72L13.5 0" sodipodi:nodetypes="cc"/><path id="shape3" transform="translate(93.4200076016204, 61.5200048973695)" fill="none" stroke="#000000" stroke-width="1.44" stroke-linecap="square" stroke-linejoin="miter" stroke-miterlimit="2" d="M0 0L13.545 127.3" sodipodi:nodetypes="cc"/><path id="shape4" transform="translate(3.47486296217937, 61.8750022264835)" fill="none" stroke="#000000" stroke-width="1.44" stroke-linecap="square" stroke-linejoin="miter" stroke-miterlimit="2" d="M0 0.0453552C53.76 -0.0146448 109.535 0.06 163.295 0" sodipodi:nodetypes="cc"/><path id="shape5" transform="translate(5.91040202416445, 49.8397530601582)" fill="none" stroke="#000000" stroke-width="1.44" stroke-linecap="square" stroke-linejoin="miter" stroke-miterlimit="2" d="M0 11.837L73.6947 0" sodipodi:nodetypes="cc"/><path id="shape6" transform="translate(79.6050716975377, 49.8397530601582)" fill="none" stroke="#000000" stroke-width="1.44" stroke-linecap="square" stroke-linejoin="miter" stroke-miterlimit="2" d="M0 0L13.8734 0.127279" sodipodi:nodetypes="cc"/><path id="shape7" transform="translate(93.4785069210225, 49.967032282392)" fill="none" stroke="#000000" stroke-width="1.44" stroke-linecap="square" stroke-linejoin="miter" stroke-miterlimit="2" d="M0 0L73.3128 11.4551" sodipodi:nodetypes="cc"/><path id="shape8" transform="translate(41.0394643147575, 14.2015692926073)" fill="none" stroke="#000000" stroke-width="1.44" stroke-linecap="square" stroke-linejoin="miter" stroke-miterlimit="2" d="M0 0.127279L90.7501 0" sodipodi:nodetypes="cc"/><path id="shape9" transform="translate(40.5303474513113, 10.5104720326223)" fill="none" stroke="#000000" stroke-width="1.44" stroke-linecap="square" stroke-linejoin="miter" stroke-miterlimit="2" d="M0 3.56382L21.1283 0" sodipodi:nodetypes="cc"/><path id="shape10" transform="translate(21.1839066403555, 2.49188143334454)" fill="none" stroke="#000000" stroke-width="1.44" stroke-linecap="square" stroke-linejoin="miter" stroke-miterlimit="2" d="M40.4748 8.01859L0 0" sodipodi:nodetypes="cc"/><path id="shape11" transform="translate(21.1839066403555, 2.49188143334454)" fill="none" stroke="#000000" stroke-width="1.44" stroke-linecap="square" stroke-linejoin="miter" stroke-miterlimit="2" d="M0 0L58.2939 5.09117" sodipodi:nodetypes="cc"/><path id="shape12" transform="translate(79.4777875049462, 7.45577085194507)" fill="none" stroke="#000000" stroke-width="1.44" stroke-linecap="square" stroke-linejoin="miter" stroke-miterlimit="2" d="M0 0.127279L14.2553 0" sodipodi:nodetypes="cc"/><path id="shape13" transform="translate(93.73305968144, 2.11004378575989)" fill="none" stroke="#000000" stroke-width="1.44" stroke-linecap="square" stroke-linejoin="miter" stroke-miterlimit="2" d="M0 5.34573L57.912 0" sodipodi:nodetypes="cc"/><path id="shape14" transform="translate(109.388403232411, 2.11004378575989)" fill="none" stroke="#000000" stroke-width="1.44" stroke-linecap="square" stroke-linejoin="miter" stroke-miterlimit="2" d="M42.2567 0L0 8.27315" sodipodi:nodetypes="cc"/><path id="shape15" transform="translate(109.388403232411, 10.3831928167608)" fill="none" stroke="#000000" stroke-width="1.44" stroke-linecap="square" stroke-linejoin="miter" stroke-miterlimit="2" d="M0 0L22.783 3.81838" sodipodi:nodetypes="cc"/><path id="shape16" transform="translate(79.4699989513473, 7.51999900999054)" fill="none" stroke="#000000" stroke-width="0.72" stroke-linecap="square" stroke-linejoin="miter" stroke-miterlimit="2" d="M0 0L14.13 6.75" sodipodi:nodetypes="cc"/><path id="shape17" transform="translate(79.649998951018, 7.51999900999054)" fill="none" stroke="#000000" stroke-width="0.72" stroke-linecap="square" stroke-linejoin="miter" stroke-miterlimit="2" d="M0 6.75L13.95 0" sodipodi:nodetypes="cc"/><path id="shape18" transform="translate(79.4699989513473, 14.2699989976432)" fill="none" stroke="#000000" stroke-width="0.72" stroke-linecap="square" stroke-linejoin="miter" stroke-miterlimit="2" d="M0 0L13.77 10.62" sodipodi:nodetypes="cc"/><path id="shape19" transform="translate(79.649998951018, 24.8899989782167)" fill="none" stroke="#000000" stroke-width="0.72" stroke-linecap="square" stroke-linejoin="miter" stroke-miterlimit="2" d="M13.59 0L0 10.62" sodipodi:nodetypes="cc"/><path id="shape20" transform="translate(79.649998951018, 35.5099989587902)" fill="none" stroke="#000000" stroke-width="0.72" stroke-linecap="square" stroke-linejoin="miter" stroke-miterlimit="2" d="M0 0L13.5 9.72" sodipodi:nodetypes="cc"/><path id="shape21" transform="translate(79.4699989513473, 45.22999894101)" fill="none" stroke="#000000" stroke-width="0.72" stroke-linecap="square" stroke-linejoin="miter" stroke-miterlimit="2" d="M13.68 0L0 4.68" sodipodi:nodetypes="cc"/><path id="shape22" transform="translate(79.5599989511826, 14.8099989966554)" fill="none" stroke="#000000" stroke-width="0.72" stroke-linecap="square" stroke-linejoin="miter" stroke-miterlimit="2" d="M13.86 0L0 10.53" sodipodi:nodetypes="cc"/><path id="shape23" transform="translate(79.5599989511826, 25.3399989773935)" fill="none" stroke="#000000" stroke-width="0.72" stroke-linecap="square" stroke-linejoin="miter" stroke-miterlimit="2" d="M0 0L13.68 11.43" sodipodi:nodetypes="cc"/><path id="shape24" transform="translate(79.649998951018, 36.7699989564853)" fill="none" stroke="#000000" stroke-width="0.72" stroke-linecap="square" stroke-linejoin="miter" stroke-miterlimit="2" d="M13.59 0L0 8.19" sodipodi:nodetypes="cc"/><path id="shape25" transform="translate(79.649998951018, 44.9599989415039)" fill="none" stroke="#000000" stroke-width="0.72" stroke-linecap="square" stroke-linejoin="miter" stroke-miterlimit="2" d="M0 0L13.86 4.68" sodipodi:nodetypes="cc"/><path id="shape26" transform="translate(79.3800007756245, 49.8200001542064)" fill="none" stroke="#000000" stroke-width="0.72" stroke-linecap="square" stroke-linejoin="miter" stroke-miterlimit="2" d="M0 0L14.04 5.67" sodipodi:nodetypes="cc"/><path id="shape27" transform="translate(79.4700007771151, 55.4900002481169)" fill="none" stroke="#000000" stroke-width="0.72" stroke-linecap="square" stroke-linejoin="miter" stroke-miterlimit="2" d="M13.95 0L0 5.76" sodipodi:nodetypes="cc"/><path id="shape28" transform="translate(79.4700007771151, 49.910000155697)" fill="none" stroke="#000000" stroke-width="0.72" stroke-linecap="square" stroke-linejoin="miter" stroke-miterlimit="2" d="M13.77 0L0 5.94" sodipodi:nodetypes="cc"/><path id="shape29" transform="translate(79.4700007771151, 55.8500002540795)" fill="none" stroke="#000000" stroke-width="0.72" stroke-linecap="square" stroke-linejoin="miter" stroke-miterlimit="2" d="M0 0L13.95 5.49" sodipodi:nodetypes="cc"/><path id="shape30" transform="translate(66.4649995021459, 162.139999640633)" fill="none" stroke="#000000" stroke-width="0.72" stroke-linecap="square" stroke-linejoin="miter" stroke-miterlimit="2" d="M0 26.68L37.935 0" sodipodi:nodetypes="cc"/><path id="shape31" transform="translate(71.2799994318075, 136.75999955735)" fill="none" stroke="#000000" stroke-width="0.72" stroke-linecap="square" stroke-linejoin="miter" stroke-miterlimit="2" d="M33.12 25.38L0 0" sodipodi:nodetypes="cc"/><path id="shape32" transform="translate(71.2799994318075, 112.819999478793)" fill="none" stroke="#000000" stroke-width="0.72" stroke-linecap="square" stroke-linejoin="miter" stroke-miterlimit="2" d="M0 23.94L27.36 0" sodipodi:nodetypes="cc"/><path id="shape33" transform="translate(76.2958128531898, 91.3999990541118)" fill="none" stroke="#000000" stroke-width="0.72" stroke-linecap="square" stroke-linejoin="miter" stroke-miterlimit="2" d="M22.3442 21.42L0 0" sodipodi:nodetypes="cc"/><path id="shape34" transform="translate(76.4867316883956, 74.6599993535741)" fill="none" stroke="#000000" stroke-width="0.72" stroke-linecap="square" stroke-linejoin="miter" stroke-miterlimit="2" d="M0 16.74L18.7333 0" sodipodi:nodetypes="cc"/><path id="shape35" transform="translate(79.379999458387, 61.3399993098656)" fill="none" stroke="#000000" stroke-width="0.72" stroke-linecap="square" stroke-linejoin="miter" stroke-miterlimit="2" d="M15.255 13.315L0 0" sodipodi:nodetypes="cc"/><path id="shape36" transform="translate(77.9399994536617, 61.3399993098656)" fill="none" stroke="#000000" stroke-width="0.72" stroke-linecap="square" stroke-linejoin="miter" stroke-miterlimit="2" d="M15.84 0L0 13.68" sodipodi:nodetypes="cc"/><path id="shape37" transform="translate(77.9399994536617, 75.0199993547554)" fill="none" stroke="#000000" stroke-width="0.72" stroke-linecap="square" stroke-linejoin="miter" stroke-miterlimit="2" d="M0 0L18.54 16.38" sodipodi:nodetypes="cc"/><path id="shape38" transform="translate(74.1599994412579, 91.3999990541118)" fill="none" stroke="#000000" stroke-width="0.72" stroke-linecap="square" stroke-linejoin="miter" stroke-miterlimit="2" d="M22.32 0L0 21.24" sodipodi:nodetypes="cc"/><path id="shape39" transform="translate(74.1599994412579, 112.639999478202)" fill="none" stroke="#000000" stroke-width="0.72" stroke-linecap="square" stroke-linejoin="miter" stroke-miterlimit="2" d="M0 0L27.54 24.84" sodipodi:nodetypes="cc"/><path id="shape40" transform="translate(68.9399994241289, 137.479999559713)" fill="none" stroke="#000000" stroke-width="0.72" stroke-linecap="square" stroke-linejoin="miter" stroke-miterlimit="2" d="M32.76 0L0 24.66" sodipodi:nodetypes="cc"/><path id="shape41" transform="translate(68.9399994241289, 162.139999640633)" fill="none" stroke="#000000" stroke-width="0.72" stroke-linecap="square" stroke-linejoin="miter" stroke-miterlimit="2" d="M0 0L37.8 26.995" sodipodi:nodetypes="cc"/><path id="shape42" transform="translate(70.9500807379112, 49.8397502431681)" fill="none" stroke="#000000" stroke-width="0.72" stroke-linecap="square" stroke-linejoin="miter" stroke-miterlimit="2" d="M8.78227 0L0 11.837" sodipodi:nodetypes="cc"/><path id="shape43" transform="translate(62.6769316434885, 52.5126137967508)" fill="none" stroke="#000000" stroke-width="0.72" stroke-linecap="square" stroke-linejoin="miter" stroke-miterlimit="2" d="M8.27315 9.1641L0 0" sodipodi:nodetypes="cc"/><path id="shape44" transform="translate(56.4402500184621, 52.5126137967508)" fill="none" stroke="#000000" stroke-width="0.72" stroke-linecap="square" stroke-linejoin="miter" stroke-miterlimit="2" d="M6.23668 0L0 8.90955" sodipodi:nodetypes="cc"/><path id="shape45" transform="translate(48.5489385745512, 54.5490812661472)" fill="none" stroke="#000000" stroke-width="0.72" stroke-linecap="square" stroke-linejoin="miter" stroke-miterlimit="2" d="M7.89131 6.87308L0 0" sodipodi:nodetypes="cc"/><path id="shape46" transform="translate(39.3848349622676, 54.5490812661472)" fill="none" stroke="#000000" stroke-width="0.72" stroke-linecap="square" stroke-linejoin="miter" stroke-miterlimit="2" d="M9.1641 0L0 7.00036" sodipodi:nodetypes="cc"/><path id="shape47" transform="translate(33.6600000447812, 57.4200004019237)" fill="none" stroke="#000000" stroke-width="0.72" stroke-linecap="square" stroke-linejoin="miter" stroke-miterlimit="2" d="M5.72483 4.12944L0 0" sodipodi:nodetypes="cc"/><path id="shape48" transform="translate(26.1477964111912, 56.5855487355435)" fill="none" stroke="#000000" stroke-width="0.72" stroke-linecap="square" stroke-linejoin="miter" stroke-miterlimit="2" d="M7.63675 0L0 5.09117" sodipodi:nodetypes="cc"/><path id="shape49" transform="translate(93.3512229012712, 49.5851918094936)" fill="none" stroke="#000000" stroke-width="0.72" stroke-linecap="square" stroke-linejoin="miter" stroke-miterlimit="2" d="M0 0L9.54594 12.0915" sodipodi:nodetypes="cc"/><path id="shape50" transform="translate(102.897164164067, 52.5126137967508)" fill="none" stroke="#000000" stroke-width="0.72" stroke-linecap="square" stroke-linejoin="miter" stroke-miterlimit="2" d="M0 9.1641L6.36396 0" sodipodi:nodetypes="cc"/><path id="shape51" transform="translate(109.26112500593, 52.5126137967508)" fill="none" stroke="#000000" stroke-width="0.72" stroke-linecap="square" stroke-linejoin="miter" stroke-miterlimit="2" d="M0 0L7.12764 8.65499" sodipodi:nodetypes="cc"/><path id="shape52" transform="translate(116.388761148818, 55.0581981334963)" fill="none" stroke="#000000" stroke-width="0.72" stroke-linecap="square" stroke-linejoin="miter" stroke-miterlimit="2" d="M0 6.1094L8.65499 0" sodipodi:nodetypes="cc"/><path id="shape53" transform="translate(125.043747893752, 55.0581981334963)" fill="none" stroke="#000000" stroke-width="0.72" stroke-linecap="square" stroke-linejoin="miter" stroke-miterlimit="2" d="M0 0L9.29138 5.98212" sodipodi:nodetypes="cc"/><path id="shape54" transform="translate(134.335130722873, 57.4765032534045)" fill="none" stroke="#000000" stroke-width="0.72" stroke-linecap="square" stroke-linejoin="miter" stroke-miterlimit="2" d="M0 3.56382L8.01859 0" sodipodi:nodetypes="cc"/><path id="shape55" transform="translate(140.826370781574, 57.731061687079)" fill="none" stroke="#000000" stroke-width="0.72" stroke-linecap="square" stroke-linejoin="miter" stroke-miterlimit="2" d="M0 0L6.7458 3.81838" sodipodi:nodetypes="cc"/><path id="shape56" transform="translate(39.6393944891478, 4.273790999334)" fill="none" stroke="#000000" stroke-width="0.72" stroke-linecap="square" stroke-linejoin="miter" stroke-miterlimit="2" d="M0 2.16375L4.58205 0" sodipodi:nodetypes="cc"/><path id="shape57" transform="translate(44.2214463795625, 4.27379099933401)" fill="none" stroke="#000000" stroke-width="0.72" stroke-linecap="square" stroke-linejoin="miter" stroke-miterlimit="2" d="M0 0L6.61852 4.32749" sodipodi:nodetypes="cc"/><path id="shape58" transform="translate(50.8399657768281, 5.29202475275947)" fill="none" stroke="#000000" stroke-width="0.72" stroke-linecap="square" stroke-linejoin="miter" stroke-miterlimit="2" d="M0 3.30926L5.72756 0" sodipodi:nodetypes="cc"/><path id="shape59" transform="translate(56.5675306398464, 5.29202475275948)" fill="none" stroke="#000000" stroke-width="0.72" stroke-linecap="square" stroke-linejoin="miter" stroke-miterlimit="2" d="M0 0L8.65499 8.90955" sodipodi:nodetypes="cc"/><path id="shape60" transform="translate(65.2225175439629, 7.32849225961043)" fill="none" stroke="#000000" stroke-width="0.72" stroke-linecap="square" stroke-linejoin="miter" stroke-miterlimit="2" d="M0 6.87308L14.3826 0" sodipodi:nodetypes="cc"/><path id="shape61" transform="translate(93.3830490634639, 7.54694134715753)" fill="none" stroke="#000000" stroke-width="0.72" stroke-linecap="square" stroke-linejoin="miter" stroke-miterlimit="2" d="M0 0L14.478 7.03647" sodipodi:nodetypes="cc"/><path id="shape62" transform="translate(107.861055968655, 5.49500034572432)" fill="none" stroke="#000000" stroke-width="0.72" stroke-linecap="square" stroke-linejoin="miter" stroke-miterlimit="2" d="M0 9.08841L7.87895 0" sodipodi:nodetypes="cc"/><path id="shape63" transform="translate(115.965007069382, 5.49500034572432)" fill="none" stroke="#000000" stroke-width="0.72" stroke-linecap="square" stroke-linejoin="miter" stroke-miterlimit="2" d="M0 0L5.6422 2.85173" sodipodi:nodetypes="cc"/><path id="shape64" transform="translate(121.607211639899, 4.78290787604674)" fill="none" stroke="#000000" stroke-width="0.72" stroke-linecap="square" stroke-linejoin="miter" stroke-miterlimit="2" d="M0 3.56382L4.58205 0" sodipodi:nodetypes="cc"/><path id="shape65" transform="translate(126.189263530313, 4.65562865686856)" fill="none" stroke="#000000" stroke-width="0.72" stroke-linecap="square" stroke-linejoin="miter" stroke-miterlimit="2" d="M0 0L4.55023 1.5867" sodipodi:nodetypes="cc"/><path id="shape66" transform="translate(55.2947384480645, 10.8923103965996)" fill="none" stroke="#000000" stroke-width="0.72" stroke-linecap="square" stroke-linejoin="miter" stroke-miterlimit="2" d="M0 2.92742L1.78191 0" sodipodi:nodetypes="cc"/><path id="shape67" transform="translate(57.0766475165591, 10.8923103965996)" fill="none" stroke="#000000" stroke-width="0.72" stroke-linecap="square" stroke-linejoin="miter" stroke-miterlimit="2" d="M0 0L2.29103 3.43654" sodipodi:nodetypes="cc"/><path id="shape68" transform="translate(59.3676734617664, 6.6920961637195)" fill="none" stroke="#000000" stroke-width="0.72" stroke-linecap="square" stroke-linejoin="miter" stroke-miterlimit="2" d="M0 7.63675L5.98212 0" sodipodi:nodetypes="cc"/><path id="shape69" transform="translate(65.3497967631411, 6.6920961637195)" fill="none" stroke="#000000" stroke-width="0.72" stroke-linecap="square" stroke-linejoin="miter" stroke-miterlimit="2" d="M0 0L13.7462 7.25492" sodipodi:nodetypes="cc"/><path id="shape70" transform="translate(116.388763653593, 11.5287064924905)" fill="none" stroke="#000000" stroke-width="0.72" stroke-linecap="square" stroke-linejoin="miter" stroke-miterlimit="2" d="M2.16375 3.0547L0 0" sodipodi:nodetypes="cc"/><path id="shape71" transform="translate(113.588620831673, 11.5287064924905)" fill="none" stroke="#000000" stroke-width="0.72" stroke-linecap="square" stroke-linejoin="miter" stroke-miterlimit="2" d="M2.80014 0L0 2.67286" sodipodi:nodetypes="cc"/><path id="shape72" transform="translate(107.47921831112, 6.05570006782858)" fill="none" stroke="#000000" stroke-width="0.72" stroke-linecap="square" stroke-linejoin="miter" stroke-miterlimit="2" d="M6.1094 8.14587L0 0" sodipodi:nodetypes="cc"/><path id="shape73" transform="translate(95.8968093659053, 6.05570006782858)" fill="none" stroke="#000000" stroke-width="0.72" stroke-linecap="square" stroke-linejoin="miter" stroke-miterlimit="2" d="M11.5824 0L0 7.89131" sodipodi:nodetypes="cc"/><path id="shape74" transform="translate(70.9500812017039, 50.857984322621)" fill="none" stroke="#000000" stroke-width="0.72" stroke-linecap="square" stroke-linejoin="miter" stroke-miterlimit="2" d="M0 0L0 10.6915" sodipodi:nodetypes="cc"/><path id="shape75" transform="translate(56.8220880605633, 53.2762894548883)" fill="none" stroke="#000000" stroke-width="0.72" stroke-linecap="square" stroke-linejoin="miter" stroke-miterlimit="2" d="M0 0L0.127279 8.01859" sodipodi:nodetypes="cc"/><path id="shape76" transform="translate(39.384835264741, 56.2037114571066)" fill="none" stroke="#000000" stroke-width="0.72" stroke-linecap="square" stroke-linejoin="miter" stroke-miterlimit="2" d="M0 0L0 5.47301" sodipodi:nodetypes="cc"/><path id="shape77" transform="translate(48.2943804888838, 54.6763608472536)" fill="none" stroke="#000000" stroke-width="0.72" stroke-linecap="square" stroke-linejoin="miter" stroke-miterlimit="2" d="M0.127279 0L0 7.00036" sodipodi:nodetypes="cc"/><path id="shape78" transform="translate(102.515327138667, 51.367101192572)" fill="none" stroke="#000000" stroke-width="0.72" stroke-linecap="square" stroke-linejoin="miter" stroke-miterlimit="2" d="M0 0L0.129673 9.4779" sodipodi:nodetypes="cc"/><path id="shape79" transform="translate(116.261482627344, 53.5308478898638)" fill="none" stroke="#000000" stroke-width="0.72" stroke-linecap="square" stroke-linejoin="miter" stroke-miterlimit="2" d="M0 0L0.018518 7.71915" sodipodi:nodetypes="cc"/><path id="shape80" transform="translate(124.661910981536, 54.8036400647414)" fill="none" stroke="#000000" stroke-width="0.72" stroke-linecap="square" stroke-linejoin="miter" stroke-miterlimit="2" d="M0 0L0 7.00036" sodipodi:nodetypes="cc"/><path id="shape81" transform="translate(133.953293858142, 56.3309906745944)" fill="none" stroke="#000000" stroke-width="0.72" stroke-linecap="square" stroke-linejoin="miter" stroke-miterlimit="2" d="M0.127279 0L0 5.09117" sodipodi:nodetypes="cc"/><path id="shape82" transform="translate(78.6600038325561, 67.4600030664019)" fill="none" stroke="#000000" stroke-width="0.72" stroke-linecap="square" stroke-linejoin="miter" stroke-miterlimit="2" d="M0 0L15.3 0" sodipodi:nodetypes="cc"/><path id="shape83" transform="translate(77.5800037810064, 82.400003779507)" fill="none" stroke="#000000" stroke-width="0.72" stroke-linecap="square" stroke-linejoin="miter" stroke-miterlimit="2" d="M0 0L17.8713 0.0232296" sodipodi:nodetypes="cc"/><path id="shape84" transform="translate(75.4200036779068, 100.940004664445)" fill="none" stroke="#000000" stroke-width="0.72" stroke-linecap="square" stroke-linejoin="miter" stroke-miterlimit="2" d="M0 0L22.68 0.18" sodipodi:nodetypes="cc"/><path id="shape85" transform="translate(72.9000035576241, 123.260005729807)" fill="none" stroke="#000000" stroke-width="0.72" stroke-linecap="square" stroke-linejoin="miter" stroke-miterlimit="2" d="M0 0.18L27.36 0" sodipodi:nodetypes="cc"/><path id="shape86" transform="translate(70.3799989224658, 148.63999866846)" fill="none" stroke="#000000" stroke-width="0.72" stroke-linecap="square" stroke-linejoin="miter" stroke-miterlimit="2" d="M0 0L32.4 0" sodipodi:nodetypes="cc"/><path id="shape87" transform="translate(67.5000019173391, 174.425005139308)" fill="none" stroke="#000000" stroke-width="0.72" stroke-linecap="square" stroke-linejoin="miter" stroke-miterlimit="2" d="M0 0C12.66 0 25.32 0 37.98 0" sodipodi:nodetypes="cc"/><path id="shape88" transform="translate(70.7400020206778, 142.520004129189)" fill="none" stroke="#000000" stroke-width="0.72" stroke-linecap="square" stroke-linejoin="miter" stroke-miterlimit="2" d="M7.74 0L0 5.94" sodipodi:nodetypes="cc"/><path id="shape89" transform="translate(70.7400020206778, 148.460004318643)" fill="none" stroke="#000000" stroke-width="0.72" stroke-linecap="square" stroke-linejoin="miter" stroke-miterlimit="2" d="M0 0L7.38 6.84" sodipodi:nodetypes="cc"/><path id="shape90" transform="translate(70.0200019977136, 154.76000451958)" fill="none" stroke="#000000" stroke-width="0.72" stroke-linecap="square" stroke-linejoin="miter" stroke-miterlimit="2" d="M0 0L8.28 0.18" sodipodi:nodetypes="cc"/><path id="shape91" transform="translate(95.0400027957179, 148.820004330126)" fill="none" stroke="#000000" stroke-width="0.72" stroke-linecap="square" stroke-linejoin="miter" stroke-miterlimit="2" d="M7.2 0L0 6.3" sodipodi:nodetypes="cc"/><path id="shape92" transform="translate(95.5786098425685, 142.335631259304)" fill="none" stroke="#000000" stroke-width="0.72" stroke-linecap="square" stroke-linejoin="miter" stroke-miterlimit="2" d="M0 0L7.08503 5.94437" sodipodi:nodetypes="cc"/><path id="shape93" transform="translate(95.0400027957179, 142.340004123448)" fill="none" stroke="#000000" stroke-width="0.72" stroke-linecap="square" stroke-linejoin="miter" stroke-miterlimit="2" d="M0 0L7.2 0.18" sodipodi:nodetypes="cc"/><path id="shape94" transform="translate(95.760002818682, 154.76000451958)" fill="none" stroke="#000000" stroke-width="0.72" stroke-linecap="square" stroke-linejoin="miter" stroke-miterlimit="2" d="M0 0L7.38 0" sodipodi:nodetypes="cc"/><path id="shape95" transform="translate(96.480004980261, 167.720008322937)" fill="none" stroke="#000000" stroke-width="0.72" stroke-linecap="square" stroke-linejoin="miter" stroke-miterlimit="2" d="M8.19 0.09L0 0" sodipodi:nodetypes="cc"/><path id="shape96" transform="translate(96.480004980261, 167.720008322937)" fill="none" stroke="#000000" stroke-width="0.72" stroke-linecap="square" stroke-linejoin="miter" stroke-miterlimit="2" d="M0 0L8.46 6.92499" sodipodi:nodetypes="cc"/><path id="shape97" transform="translate(94.8785762552007, 174.51000280124)" fill="none" stroke="#000000" stroke-width="0.72" stroke-linecap="square" stroke-linejoin="miter" stroke-miterlimit="2" d="M10.2864 0L0 6.13668" sodipodi:nodetypes="cc"/><path id="shape98" transform="translate(94.6240178154177, 180.391491753698)" fill="none" stroke="#000000" stroke-width="0.72" stroke-linecap="square" stroke-linejoin="miter" stroke-miterlimit="2" d="M0 0.000629268C0.75795 -0.0059616 8.88394 0.0419263 11.576 0.0185172" sodipodi:nodetypes="cc"/><path id="shape99" transform="translate(66.9407874890108, 180.201202192126)" fill="none" stroke="#000000" stroke-width="0.72" stroke-linecap="square" stroke-linejoin="miter" stroke-miterlimit="2" d="M0 0L11.0097 0.190919" sodipodi:nodetypes="cc"/><path id="shape100" transform="translate(67.545000801861, 174.51000280124)" fill="none" stroke="#000000" stroke-width="0.72" stroke-linecap="square" stroke-linejoin="miter" stroke-miterlimit="2" d="M10.8509 6.0094L0 0" sodipodi:nodetypes="cc"/><path id="shape101" transform="translate(67.5000008010012, 167.600559422865)" fill="none" stroke="#000000" stroke-width="0.72" stroke-linecap="square" stroke-linejoin="miter" stroke-miterlimit="2" d="M0 6.72944L8.98673 0" sodipodi:nodetypes="cc"/><path id="shape102" transform="translate(93.1500012353171, 129.380001771293)" fill="none" stroke="#000000" stroke-width="0.72" stroke-linecap="square" stroke-linejoin="miter" stroke-miterlimit="2" d="M7.38 0.09L0 0" sodipodi:nodetypes="cc"/><path id="shape103" transform="translate(93.1500012353171, 123.350001659054)" fill="none" stroke="#000000" stroke-width="0.72" stroke-linecap="square" stroke-linejoin="miter" stroke-miterlimit="2" d="M0 6.03L6.93 0" sodipodi:nodetypes="cc"/><path id="shape104" transform="translate(93.4200012403427, 117.770001555192)" fill="none" stroke="#000000" stroke-width="0.72" stroke-linecap="square" stroke-linejoin="miter" stroke-miterlimit="2" d="M6.66 5.58L0 0" sodipodi:nodetypes="cc"/><path id="shape105" transform="translate(93.4200012403427, 117.770001555192)" fill="none" stroke="#000000" stroke-width="0.72" stroke-linecap="square" stroke-linejoin="miter" stroke-miterlimit="2" d="M0 0L6.3 0.18" sodipodi:nodetypes="cc"/><path id="shape106" transform="translate(73.2600008650969, 117.675001359385)" fill="none" stroke="#000000" stroke-width="0.72" stroke-linecap="square" stroke-linejoin="miter" stroke-miterlimit="2" d="M0 0.185L6.1875 0" sodipodi:nodetypes="cc"/><path id="shape107" transform="translate(72.6300008533705, 117.680001553516)" fill="none" stroke="#000000" stroke-width="0.72" stroke-linecap="square" stroke-linejoin="miter" stroke-miterlimit="2" d="M7.47 0L0 5.85" sodipodi:nodetypes="cc"/><path id="shape108" transform="translate(72.9900008600713, 123.350001659054)" fill="none" stroke="#000000" stroke-width="0.72" stroke-linecap="square" stroke-linejoin="miter" stroke-miterlimit="2" d="M0 0L6.26505 6.41681" sodipodi:nodetypes="cc"/><path id="shape109" transform="translate(72.5400008516953, 129.798634286469)" fill="none" stroke="#000000" stroke-width="0.72" stroke-linecap="square" stroke-linejoin="miter" stroke-miterlimit="2" d="M6.55595 0L0 0.0313675" sodipodi:nodetypes="cc"/><path id="shape110" transform="translate(91.7602382197867, 96.0421115376977)" fill="none" stroke="#000000" stroke-width="0.72" stroke-linecap="square" stroke-linejoin="miter" stroke-miterlimit="2" d="M5.40937 0L0 0" sodipodi:nodetypes="cc"/><path id="shape111" transform="translate(91.7602382197867, 96.0421115376977)" fill="none" stroke="#000000" stroke-width="0.72" stroke-linecap="square" stroke-linejoin="miter" stroke-miterlimit="2" d="M0 0L5.85484 5.02753" sodipodi:nodetypes="cc"/><path id="shape112" transform="translate(92.1420758892225, 101.069640851937)" fill="none" stroke="#000000" stroke-width="0.72" stroke-linecap="square" stroke-linejoin="miter" stroke-miterlimit="2" d="M5.47301 0L0 5.15481" sodipodi:nodetypes="cc"/><path id="shape113" transform="translate(92.1420758892226, 106.224449389321)" fill="none" stroke="#000000" stroke-width="0.72" stroke-linecap="square" stroke-linejoin="miter" stroke-miterlimit="2" d="M0 0L5.91848 0.0636396" sodipodi:nodetypes="cc"/><path id="shape114" transform="translate(74.8957411530351, 106.288089000894)" fill="none" stroke="#000000" stroke-width="0.72" stroke-linecap="square" stroke-linejoin="miter" stroke-miterlimit="2" d="M0 0L6.04576 0.0636396" sodipodi:nodetypes="cc"/><path id="shape115" transform="translate(75.3412184340436, 101.069640851937)" fill="none" stroke="#000000" stroke-width="0.72" stroke-linecap="square" stroke-linejoin="miter" stroke-miterlimit="2" d="M5.60029 5.28209L0 0" sodipodi:nodetypes="cc"/><path id="shape116" transform="translate(75.3412184340437, 96.0421115376977)" fill="none" stroke="#000000" stroke-width="0.72" stroke-linecap="square" stroke-linejoin="miter" stroke-miterlimit="2" d="M0 5.02753L5.66393 0" sodipodi:nodetypes="cc"/><path id="shape117" transform="translate(75.7866957150522, 95.978471926125)" fill="none" stroke="#000000" stroke-width="0.72" stroke-linecap="square" stroke-linejoin="miter" stroke-miterlimit="2" d="M5.21845 0.0636396L0 0" sodipodi:nodetypes="cc"/><path id="shape118" transform="translate(76.9958483349325, 87.0689263059544)" fill="none" stroke="#000000" stroke-width="0.72" stroke-linecap="square" stroke-linejoin="miter" stroke-miterlimit="2" d="M0 0.0636396L4.51841 0" sodipodi:nodetypes="cc"/><path id="shape119" transform="translate(77.3140463927957, 82.7414327190144)" fill="none" stroke="#000000" stroke-width="0.72" stroke-linecap="square" stroke-linejoin="miter" stroke-miterlimit="2" d="M4.20021 4.32749L0 0" sodipodi:nodetypes="cc"/><path id="shape120" transform="translate(77.3140463927957, 78.9230560246555)" fill="none" stroke="#000000" stroke-width="0.72" stroke-linecap="square" stroke-linejoin="miter" stroke-miterlimit="2" d="M0 3.81838L4.70933 0" sodipodi:nodetypes="cc"/><path id="shape121" transform="translate(77.632244450659, 78.9230560246555)" fill="none" stroke="#000000" stroke-width="0.72" stroke-linecap="square" stroke-linejoin="miter" stroke-miterlimit="2" d="M4.39113 0L0 0" sodipodi:nodetypes="cc"/><path id="shape122" transform="translate(90.4874459883338, 78.7957768015102)" fill="none" stroke="#000000" stroke-width="0.72" stroke-linecap="square" stroke-linejoin="miter" stroke-miterlimit="2" d="M4.83661 0L0 0.0636396" sodipodi:nodetypes="cc"/><path id="shape123" transform="translate(90.4874459883337, 78.8594164130829)" fill="none" stroke="#000000" stroke-width="0.72" stroke-linecap="square" stroke-linejoin="miter" stroke-miterlimit="2" d="M0 0L5.21845 3.50018" sodipodi:nodetypes="cc"/><path id="shape124" transform="translate(91.696598608214, 82.3595950495785)" fill="none" stroke="#000000" stroke-width="0.72" stroke-linecap="square" stroke-linejoin="miter" stroke-miterlimit="2" d="M4.0093 0L0 4.90025" sodipodi:nodetypes="cc"/><path id="shape125" transform="translate(91.7602382197867, 87.2598451406723)" fill="none" stroke="#000000" stroke-width="0.72" stroke-linecap="square" stroke-linejoin="miter" stroke-miterlimit="2" d="M0 0.0636396L4.45477 0" sodipodi:nodetypes="cc"/><path id="shape126" transform="translate(0, 191.610009859695)" fill="none" stroke="#3b2300" stroke-width="2.16" stroke-linecap="square" stroke-linejoin="miter" stroke-miterlimit="2" d="M0 0L171.318 0.13613" sodipodi:nodetypes="cc"/><path id="shape127" transform="translate(0, 190.080009780966)" fill="none" stroke="#297f00" stroke-width="1.44" stroke-linecap="square" stroke-linejoin="miter" stroke-miterlimit="2" d="M0 0L172.08 0.0751454" sodipodi:nodetypes="cc"/><path id="shape128" transform="translate(6.48315932444676, 63.5222718897349)" fill="none" stroke="#737373" stroke-width="2.16" stroke-linecap="square" stroke-linejoin="miter" stroke-miterlimit="2" d="M0 0L0 16.3554" sodipodi:nodetypes="cc"/><path id="shape0" transform="matrix(0.999999966838551 0 0 0.999999966838551 48.2901904574122 63.4989850117759)" fill="none" stroke="#737373" stroke-width="2.16" stroke-linecap="square" stroke-linejoin="miter" stroke-miterlimit="2" d="M0 0L0 16.3554" sodipodi:nodetypes="cc"/><path id="shape01" transform="matrix(0.999999966838551 0 0 0.999999966838551 166.341672673521 63.4989850117759)" fill="none" stroke="#737373" stroke-width="2.16" stroke-linecap="square" stroke-linejoin="miter" stroke-miterlimit="2" d="M0 0L0 16.3554" sodipodi:nodetypes="cc"/><path id="shape02" transform="matrix(0.999999954173904 0 0 0.999999954173904 124.526252912532 63.6029789697213)" fill="none" stroke="#737373" stroke-width="2.16" stroke-linecap="square" stroke-linejoin="miter" stroke-miterlimit="2" d="M0 0L0 16.3554" sodipodi:nodetypes="cc"/><path id="shape03" transform="matrix(0.999999954173904 0 0 0.999999954173904 131.781171050235 15.898308044096)" fill="none" stroke="#737373" stroke-width="2.16" stroke-linecap="square" stroke-linejoin="miter" stroke-miterlimit="2" d="M0 0C0 5.4518 0 10.9036 0 16.3554" sodipodi:nodetypes="cc"/><path id="shape04" transform="matrix(0.999999921605603 0 0 0.999999921605603 41.0587137740593 16.0232029285355)" fill="none" stroke="#737373" stroke-width="2.16" stroke-linecap="square" stroke-linejoin="miter" stroke-miterlimit="2" d="M0 0L0 16.3554" sodipodi:nodetypes="cc"/><path id="shape129" transform="translate(49.1216960572567, 63.5222672237517)" fill="none" stroke="#737373" stroke-width="2.16" stroke-linecap="square" stroke-linejoin="miter" stroke-miterlimit="2" d="M0 0L10.5005 15.8463" sodipodi:nodetypes="cc"/><path id="shape130" transform="translate(59.6222315997433, 63.4586276144033)" fill="none" stroke="#737373" stroke-width="2.16" stroke-linecap="square" stroke-linejoin="miter" stroke-miterlimit="2" d="M0 15.9099L10.3733 0" sodipodi:nodetypes="cc"/><path id="shape05" transform="matrix(0.999999993334193 0 0 0.999999993334193 103.007527011154 63.5180762597305)" fill="none" stroke="#737373" stroke-width="2.16" stroke-linecap="square" stroke-linejoin="miter" stroke-miterlimit="2" d="M0 0L10.5005 15.8463" sodipodi:nodetypes="cc"/><path id="shape1" transform="matrix(0.999999993334193 0 0 0.999999993334193 113.508062483646 63.4544366508063)" fill="none" stroke="#737373" stroke-width="2.16" stroke-linecap="square" stroke-linejoin="miter" stroke-miterlimit="2" d="M0 15.9099L10.3733 0" sodipodi:nodetypes="cc"/><circle id="shape131" transform="matrix(1.53421476538964 0 0 1.46572133290559 37.7507308387424 33.0843611736816)" r="0.719999999999999" cx="0.719999999999999" cy="0.719999999999999" fill="#d00000" fill-rule="evenodd"/><circle id="shape06" transform="matrix(1.51641711445989 0 0 1.51118562295315 42.1413595267837 33.0638925967421)" r="0.719999999999999" cx="0.719999999999999" cy="0.719999999999999" fill="#d00000" fill-rule="evenodd" stroke-opacity="0" stroke="#000000" stroke-width="0" stroke-linecap="square" stroke-linejoin="bevel"/><circle id="shape07" transform="matrix(1.43628191858387 0 0 1.52289637664976 3.28499905476917 80.5220279354521)" r="0.719999999999999" cx="0.719999999999999" cy="0.719999999999999" fill="#d00000" fill-rule="evenodd" stroke-opacity="0" stroke="#000000" stroke-width="0" stroke-linecap="square" stroke-linejoin="bevel"/><circle id="shape08" transform="matrix(1.4834204074581 0 0 1.5371106658874 7.58387364624037 80.5015593589499)" r="0.719999999999999" cx="0.719999999999999" cy="0.719999999999999" fill="#d00000" fill-rule="evenodd" stroke-opacity="0" stroke="#000000" stroke-width="0" stroke-linecap="square" stroke-linejoin="bevel"/><circle id="shape09" transform="matrix(1.50707059491306 0 0 1.47791709098232 44.9533023181042 80.5814098636921)" r="0.719999999999999" cx="0.719999999999999" cy="0.719999999999999" fill="#d00000" fill-rule="evenodd" stroke-opacity="0" stroke="#000000" stroke-width="0" stroke-linecap="square" stroke-linejoin="bevel"/><circle id="shape010" transform="matrix(1.49588162891952 0 0 1.51422846702897 49.3541126034894 80.56094128719)" r="0.719999999999999" cx="0.719999999999999" cy="0.719999999999999" fill="#d00000" fill-rule="evenodd" stroke-opacity="0" stroke="#000000" stroke-width="0" stroke-linecap="square" stroke-linejoin="bevel"/><circle id="shape011" transform="matrix(1.42296557986318 0 0 1.50836726475393 56.5675323543308 80.5375631861886)" r="0.719999999999999" cx="0.719999999999999" cy="0.719999999999999" fill="#d00000" fill-rule="evenodd" stroke-opacity="0" stroke="#000000" stroke-width="0" stroke-linecap="square" stroke-linejoin="bevel"/><circle id="shape012" transform="matrix(1.51369545458075 0 0 1.54467864115052 60.8472314180442 80.5170946096864)" r="0.719999999999999" cx="0.719999999999999" cy="0.719999999999999" fill="#d00000" fill-rule="evenodd" stroke-opacity="0" stroke="#000000" stroke-width="0" stroke-linecap="square" stroke-linejoin="bevel"/><circle id="shape013" transform="matrix(1.34504999169951 0 0 1.42886206796618 110.610002488628 80.6574402318006)" r="0.719999999999999" cx="0.719999999999999" cy="0.719999999999999" fill="#d00000" fill-rule="evenodd" stroke-opacity="0" stroke="#000000" stroke-width="0" stroke-linecap="square" stroke-linejoin="bevel"/><circle id="shape014" transform="matrix(1.54340246365897 0 0 1.47432635800792 114.777503105386 80.6369716552984)" r="0.719999999999999" cx="0.719999999999999" cy="0.719999999999999" fill="#d00000" fill-rule="evenodd" stroke-opacity="0" stroke="#000000" stroke-width="0" stroke-linecap="square" stroke-linejoin="bevel"/><circle id="shape015" transform="matrix(1.52515866114741 0 0 1.47781442304431 121.320004999078 80.564450412365)" r="0.719999999999999" cx="0.719999999999999" cy="0.719999999999999" fill="#d00000" fill-rule="evenodd" stroke-opacity="0" stroke="#000000" stroke-width="0" stroke-linecap="square" stroke-linejoin="bevel"/><circle id="shape01" transform="matrix(1.42579392825339 0 0 1.50765371237017 125.746862011757 80.5439818366711)" r="0.719999999999999" cx="0.719999999999999" cy="0.719999999999999" fill="#d00000" fill-rule="evenodd" stroke-opacity="0" stroke="#000000" stroke-width="0" stroke-linecap="square" stroke-linejoin="bevel"/><circle id="shape016" transform="matrix(1.54510024434879 0 0 1.46487245973614 163.102512529024 80.6280899877381)" r="0.719999999999999" cx="0.719999999999999" cy="0.719999999999999" fill="#d00000" fill-rule="evenodd" stroke-opacity="0" stroke="#000000" stroke-width="0" stroke-linecap="square" stroke-linejoin="bevel"/><circle id="shape011" transform="matrix(1.43710248987042 0 0 1.46346174726807 167.423085411625 80.5626214087483)" r="0.719999999999999" cx="0.719999999999999" cy="0.719999999999999" fill="#d00000" fill-rule="evenodd" stroke-opacity="0" stroke="#000000" stroke-width="0" stroke-linecap="square" stroke-linejoin="bevel"/><circle id="shape017" transform="matrix(1.43751229056049 0 0 1.45148933407202 128.512106396521 33.1124956113137)" r="0.719999999999999" cx="0.719999999999999" cy="0.719999999999999" fill="#d00000" fill-rule="evenodd" stroke-opacity="0" stroke="#000000" stroke-width="0" stroke-linecap="square" stroke-linejoin="bevel"/><circle id="shape012" transform="matrix(1.51019716024278 0 0 1.46570362274837 132.812752635554 33.0920270356198)" r="0.719999999999999" cx="0.719999999999999" cy="0.719999999999999" fill="#d00000" fill-rule="evenodd" stroke-opacity="0" stroke="#000000" stroke-width="0" stroke-linecap="square" stroke-linejoin="bevel"/><path id="shape132" transform="translate(68.3408589078176, 167.473280202974)" fill="none" stroke="#000000" stroke-width="0.72" stroke-linecap="square" stroke-linejoin="miter" stroke-miterlimit="2" d="M7.95495 0.0636396L0 0" sodipodi:nodetypes="cc"/><path id="shape133" transform="translate(70.7591612174562, 142.526547905818)" fill="none" stroke="#000000" stroke-width="0.72" stroke-linecap="square" stroke-linejoin="miter" stroke-miterlimit="2" d="M7.73221 0.0318198L0 0" sodipodi:nodetypes="cc"/>
</svg>
