<?xml version="1.0" standalone="no"?>
<!DOCTYPE svg PUBLIC "-//W3C//DTD SVG 20010904//EN" "http://www.w3.org/TR/2001/REC-SVG-20010904/DTD/svg10.dtd">
<!-- Created using Krita: https://krita.org -->
<svg xmlns="http://www.w3.org/2000/svg" 
    xmlns:xlink="http://www.w3.org/1999/xlink"
    xmlns:krita="http://krita.org/namespaces/svg/krita"
    xmlns:sodipodi="http://sodipodi.sourceforge.net/DTD/sodipodi-0.dtd"
    width="85.68pt"
    height="206.64pt"
    viewBox="0 0 85.68 206.64">
<defs/>
<path id="shape0" transform="matrix(-1.00000003833866 0 0 1.00000003833866 77.3230105454002 92.6039339272583)" fill="#bebebe" fill-rule="evenodd" stroke="#000000" stroke-width="0.72" stroke-linecap="square" stroke-linejoin="bevel" d="M30.51 6.0312C22.23 1.1412 9.63 1.2012 0 0.8112C10.32 -0.7488 19.56 -0.0588 30.42 2.8812Z" sodipodi:nodetypes="cccc"/><path id="shape01" transform="matrix(-0.999999986031014 0 0 0.999999986031014 81.134492726841 59.2490266005631)" fill="#bebebe" fill-rule="evenodd" stroke="#000000" stroke-width="0.72" stroke-linecap="square" stroke-linejoin="bevel" d="M34.56 5.85581C23.04 2.64581 11.97 0.965806 0 0.545806C11.85 -0.774194 23.79 0.425806 34.47 2.79581Z" sodipodi:nodetypes="cccc"/><path id="shape0" transform="translate(4.95000030938416, 59.1241973960285)" fill="#bebebe" fill-rule="evenodd" stroke="#000000" stroke-width="0.72" stroke-linecap="square" stroke-linejoin="bevel" d="M34.56 5.85581C23.04 2.64581 11.97 0.965806 0 0.545806C11.85 -0.774194 23.79 0.425806 34.47 2.79581Z" sodipodi:nodetypes="cccc"/><path id="shape02" transform="matrix(-1.00000000948834 0 0 1.00000000948834 75.4803526882518 25.5635673070647)" fill="#bebebe" fill-rule="evenodd" stroke="#000000" stroke-width="0.72" stroke-linecap="square" stroke-linejoin="bevel" d="M29.4651 5.94445C21.1708 0.641154 7.53069 1.44726 0 0.344169C9.52473 0.00475794 19.4949 -0.780129 29.3379 2.317Z" sodipodi:nodetypes="cccc"/><path id="shape1" transform="translate(10.500535544174, 25.4935120682799)" fill="#bebebe" fill-rule="evenodd" stroke="#000000" stroke-width="0.72" stroke-linecap="square" stroke-linejoin="bevel" d="M29.4651 5.94445C21.1708 0.641154 7.53069 1.44726 0 0.344169C9.52473 0.00475808 19.4949 -0.780129 29.3379 2.317Z" sodipodi:nodetypes="cccc"/><path id="shape03" transform="matrix(0.999999976230623 0 0 0.999999976230623 37.9292067021575 5.67000026375139)" fill="#bebebe" fill-rule="evenodd" stroke="#000000" stroke-width="1.44" stroke-linecap="square" stroke-linejoin="bevel" d="M0 198.38L2.48079 0L7.16079 0.0898371L9.99579 198.495Z" sodipodi:nodetypes="ccccc"/><path id="shape1" transform="matrix(0.999999992876382 0 0 0.999999992876382 40.4365684420306 5.83443430739153)" fill="none" stroke="#000000" stroke-width="1.44" stroke-linecap="square" stroke-linejoin="miter" stroke-miterlimit="2" d="M4.50001 0.18L0 0" sodipodi:nodetypes="cc"/><path id="shape3" transform="matrix(0.999999992876382 0 0 0.999999992876382 37.0165694380809 199.334434196635)" fill="none" stroke="#000000" stroke-width="1.44" stroke-linecap="square" stroke-linejoin="miter" stroke-miterlimit="2" d="M0 0.09L11.97 0" sodipodi:nodetypes="cc"/><path id="shape4" transform="matrix(0.999999992876382 0 0 0.999999992876382 48.9865694640284 199.334434196635)" fill="none" stroke="#000000" stroke-width="1.44" stroke-linecap="square" stroke-linejoin="miter" stroke-miterlimit="2" d="M0 0L0 2.25" sodipodi:nodetypes="cc"/><path id="shape5" transform="matrix(0.999999992876382 0 0 0.999999992876382 36.5665694371054 201.584434201513)" fill="none" stroke="#000000" stroke-width="1.44" stroke-linecap="square" stroke-linejoin="miter" stroke-miterlimit="2" d="M12.42 0L0 0" sodipodi:nodetypes="cc"/><path id="shape6" transform="matrix(0.999999992876382 0 0 0.999999992876382 36.4765694369102 199.064434196049)" fill="none" stroke="#000000" stroke-width="1.44" stroke-linecap="square" stroke-linejoin="miter" stroke-miterlimit="2" d="M0.09 2.52L0 0" sodipodi:nodetypes="cc"/><path id="shape14" transform="matrix(0.999999992876382 0 0 0.999999992876382 39.0965515313694 95.6068513899239)" fill="none" stroke="#000000" stroke-width="0.72" stroke-linecap="square" stroke-linejoin="miter" stroke-miterlimit="2" d="M0 0L7.89131 0" sodipodi:nodetypes="cc"/><path id="shape15" transform="matrix(0.999999992876382 0 0 0.999999992876382 38.9692723161903 98.6615525542197)" fill="none" stroke="#000000" stroke-width="0.72" stroke-linecap="square" stroke-linejoin="miter" stroke-miterlimit="2" d="M0 0L8.14587 0.127279" sodipodi:nodetypes="cc"/><path id="shape16" transform="matrix(0.999999992876382 0 0 0.999999992876382 40.4365684420305 62.1324177978514)" fill="none" stroke="#000000" stroke-width="0.72" stroke-linecap="square" stroke-linejoin="miter" stroke-miterlimit="2" d="M0 0L5.53306 0" sodipodi:nodetypes="cc"/><path id="shape17" transform="matrix(0.999999992876382 0 0 0.999999992876382 40.4365684420306 64.932560531789)" fill="none" stroke="#000000" stroke-width="0.72" stroke-linecap="square" stroke-linejoin="miter" stroke-miterlimit="2" d="M0 0L5.2785 0" sodipodi:nodetypes="cc"/><path id="shape18" transform="matrix(0.999999992876382 0 0 0.999999992876382 40.4365684420306 28.9125449799781)" fill="none" stroke="#000000" stroke-width="0.72" stroke-linecap="square" stroke-linejoin="miter" stroke-miterlimit="2" d="M0 0L5.02395 0.127279" sodipodi:nodetypes="cc"/><path id="shape19" transform="matrix(0.999999992876382 0 0 0.999999992876382 40.4365684420306 31.4581294578211)" fill="none" stroke="#000000" stroke-width="0.72" stroke-linecap="square" stroke-linejoin="miter" stroke-miterlimit="2" d="M0 0L5.40579 0" sodipodi:nodetypes="cc"/><path id="shape20" transform="matrix(0.999999992876382 0 0 0.999999992876382 40.4365684420306 8.67514838112653)" fill="none" stroke="#000000" stroke-width="0.72" stroke-linecap="square" stroke-linejoin="miter" stroke-miterlimit="2" d="M0 0L4.76939 0" sodipodi:nodetypes="cc"/><path id="shape121" transform="matrix(0.999999954007924 0 0 0.999999954007924 4.7965699761758 60.5687185436747)" fill="none" stroke="#737373" stroke-width="2.16" stroke-linecap="square" stroke-linejoin="miter" stroke-miterlimit="2" d="M0.0900037 13.5279L0 0" sodipodi:nodetypes="cc"/><path id="shape1211" transform="matrix(0.999999908944278 0 0 0.999999908944278 81.1052639623314 60.5808803572392)" fill="none" stroke="#737373" stroke-width="2.16" stroke-linecap="square" stroke-linejoin="miter" stroke-miterlimit="2" d="M0.0900037 13.5279L0 0" sodipodi:nodetypes="cc"/><path id="shape122" transform="matrix(0.999999908944278 0 0 0.999999908944278 10.2559669771463 26.6919064462063)" fill="none" stroke="#737373" stroke-width="2.16" stroke-linecap="square" stroke-linejoin="miter" stroke-miterlimit="2" d="M0.0900037 13.5279L0 0" sodipodi:nodetypes="cc"/><path id="shape123" transform="matrix(0.999999908944278 0 0 0.999999908944278 75.595966674186 26.8719064453718)" fill="none" stroke="#737373" stroke-width="2.16" stroke-linecap="square" stroke-linejoin="miter" stroke-miterlimit="2" d="M0.0900037 13.5279L0 0" sodipodi:nodetypes="cc"/><path id="shape124" transform="matrix(0.999999908944278 0 0 0.999999908944278 8.76324620048717 94.5537794711198)" fill="none" stroke="#737373" stroke-width="2.16" stroke-linecap="square" stroke-linejoin="miter" stroke-miterlimit="2" d="M0.0900037 13.5279L0 0" sodipodi:nodetypes="cc"/><path id="shape125" transform="matrix(0.999999908944278 0 0 0.999999908944278 76.8960055943814 94.7404835619237)" fill="none" stroke="#737373" stroke-width="2.16" stroke-linecap="square" stroke-linejoin="miter" stroke-miterlimit="2" d="M0.0900037 13.5279L0 0" sodipodi:nodetypes="cc"/><circle id="shape017" transform="matrix(1.43751223970626 0 0 1.45148928272332 1.62644041244267 74.2646019751607)" r="0.719999999999999" cx="0.719999999999999" cy="0.719999999999999" fill="#d00000" fill-rule="evenodd" stroke-opacity="0" stroke="#000000" stroke-width="0" stroke-linecap="square" stroke-linejoin="bevel"/><circle id="shape012" transform="matrix(1.51019710681722 0 0 1.46570357089681 5.9270864993327 74.2441334001908)" r="0.719999999999999" cx="0.719999999999999" cy="0.719999999999999" fill="#d00000" fill-rule="evenodd" stroke-opacity="0" stroke="#000000" stroke-width="0" stroke-linecap="square" stroke-linejoin="bevel"/><circle id="shape0171" transform="matrix(1.43751223970626 0 0 1.45148928272332 78.0249608499287 74.2476083317438)" r="0.719999999999999" cx="0.719999999999999" cy="0.719999999999999" fill="#d00000" fill-rule="evenodd" stroke-opacity="0" stroke="#000000" stroke-width="0" stroke-linecap="square" stroke-linejoin="bevel"/><circle id="shape0121" transform="matrix(1.51019710681722 0 0 1.46570357089681 82.3256069368187 74.227139756774)" r="0.719999999999999" cx="0.719999999999999" cy="0.719999999999999" fill="#d00000" fill-rule="evenodd" stroke-opacity="0" stroke="#000000" stroke-width="0" stroke-linecap="square" stroke-linejoin="bevel"/><circle id="shape0172" transform="matrix(1.43751223970626 0 0 1.45148928272332 7.03580774207542 40.090130436721)" r="0.719999999999999" cx="0.719999999999999" cy="0.719999999999999" fill="#d00000" fill-rule="evenodd" stroke-opacity="0" stroke="#000000" stroke-width="0" stroke-linecap="square" stroke-linejoin="bevel"/><circle id="shape0122" transform="matrix(1.51019710681722 0 0 1.46570357089681 11.3364538289654 40.0696618617512)" r="0.719999999999999" cx="0.719999999999999" cy="0.719999999999999" fill="#d00000" fill-rule="evenodd" stroke-opacity="0" stroke="#000000" stroke-width="0" stroke-linecap="square" stroke-linejoin="bevel"/><circle id="shape0173" transform="matrix(1.43751223970626 0 0 1.45148928272332 72.4449566953908 40.4622023812479)" r="0.719999999999999" cx="0.719999999999999" cy="0.719999999999999" fill="#d00000" fill-rule="evenodd" stroke-opacity="0" stroke="#000000" stroke-width="0" stroke-linecap="square" stroke-linejoin="bevel"/><circle id="shape0123" transform="matrix(1.51019710681722 0 0 1.46570357089681 76.7456027822808 40.4417338062781)" r="0.719999999999999" cx="0.719999999999999" cy="0.719999999999999" fill="#d00000" fill-rule="evenodd" stroke-opacity="0" stroke="#000000" stroke-width="0" stroke-linecap="square" stroke-linejoin="bevel"/><circle id="shape0174" transform="matrix(1.43751223970626 0 0 1.45148928272332 5.56117692901379 107.838082814402)" r="0.719999999999999" cx="0.719999999999999" cy="0.719999999999999" fill="#d00000" fill-rule="evenodd" stroke-opacity="0" stroke="#000000" stroke-width="0" stroke-linecap="square" stroke-linejoin="bevel"/><circle id="shape0124" transform="matrix(1.51019710681722 0 0 1.46570357089681 9.86182301590382 107.817614239432)" r="0.719999999999999" cx="0.719999999999999" cy="0.719999999999999" fill="#d00000" fill-rule="evenodd" stroke-opacity="0" stroke="#000000" stroke-width="0" stroke-linecap="square" stroke-linejoin="bevel"/><circle id="shape0175" transform="matrix(1.43751223970626 0 0 1.45148928272332 73.4755605966406 107.484478912876)" r="0.719999999999999" cx="0.719999999999999" cy="0.719999999999999" fill="#d00000" fill-rule="evenodd" stroke-opacity="0" stroke="#000000" stroke-width="0" stroke-linecap="square" stroke-linejoin="bevel"/><circle id="shape0125" transform="matrix(1.51019710681722 0 0 1.46570357089681 77.7762066835306 107.464010337906)" r="0.719999999999999" cx="0.719999999999999" cy="0.719999999999999" fill="#d00000" fill-rule="evenodd" stroke-opacity="0" stroke="#000000" stroke-width="0" stroke-linecap="square" stroke-linejoin="bevel"/><path id="shape126" transform="matrix(1.25523011658123 0 0 0.999999918809973 -67.5634307886188 205.705509457844)" fill="none" stroke="#3b2300" stroke-width="2.16" stroke-linecap="square" stroke-linejoin="miter" stroke-miterlimit="2" d="M0 0L171.318 0.13613" sodipodi:nodetypes="cc"/><path id="shape127" transform="matrix(1.25523011658123 0 0 0.999999918809973 -67.5634307886188 204.175509503338)" fill="none" stroke="#297f00" stroke-width="1.44" stroke-linecap="square" stroke-linejoin="miter" stroke-miterlimit="2" d="M0 0L172.08 0.0751454" sodipodi:nodetypes="cc"/><path id="shape04" transform="matrix(1.00000001916933 0 0 1.00000001916933 8.73000048109826 92.6088056786234)" fill="#bebebe" fill-rule="evenodd" stroke="#000000" stroke-width="0.72" stroke-linecap="square" stroke-linejoin="bevel" d="M30.51 6.0312C22.23 1.1412 9.63 1.2012 0 0.8112C10.32 -0.7488 19.56 -0.0588 30.42 2.8812Z" sodipodi:nodetypes="cccc"/><path id="shape05" transform="matrix(0.999999977555104 0 0 0.999999977555104 17.4599997718299 2.71583526773099)" fill="#bebebe" fill-rule="evenodd" stroke="#000000" stroke-width="0.72" stroke-linecap="square" stroke-linejoin="bevel" d="M22.77 6.01416C14.73 2.17416 7.86 0.674165 0 1.78416C5.25 -1.36584 14.37 0.0741651 22.77 2.86416Z" sodipodi:nodetypes="cccc"/><path id="shape06" transform="matrix(-0.999999955110208 0 0 0.999999955110208 68.5390042739783 2.70925588592571)" fill="#bebebe" fill-rule="evenodd" stroke="#000000" stroke-width="0.72" stroke-linecap="square" stroke-linejoin="bevel" d="M22.77 6.01416C14.73 2.17416 7.86 0.674166 0 1.78416C5.25 -1.36584 14.37 0.0741666 22.77 2.86416Z" sodipodi:nodetypes="cccc"/>
</svg>
