<?xml version="1.0" standalone="no"?>
<!DOCTYPE svg PUBLIC "-//W3C//DTD SVG 20010904//EN" "http://www.w3.org/TR/2001/REC-SVG-20010904/DTD/svg10.dtd">
<!-- Created using Krita: https://krita.org -->
<svg xmlns="http://www.w3.org/2000/svg" 
    xmlns:xlink="http://www.w3.org/1999/xlink"
    xmlns:krita="http://krita.org/namespaces/svg/krita"
    xmlns:sodipodi="http://sodipodi.sourceforge.net/DTD/sodipodi-0.dtd"
    width="156.96pt"
    height="202.32pt"
    viewBox="0 0 156.96 202.32">
<defs/>
<path id="shape0" transform="translate(58.680004631595, 92.7000061690857)" fill="none" stroke="#000000" stroke-width="1.44" stroke-linecap="square" stroke-linejoin="miter" stroke-miterlimit="2" d="M0 106.92L4.32 0" sodipodi:nodetypes="cc"/><path id="shape1" transform="translate(47.1600039163694, 57.240003967532)" fill="none" stroke="#000000" stroke-width="1.44" stroke-linecap="square" stroke-linejoin="miter" stroke-miterlimit="2" d="M15.84 35.46L0 0" sodipodi:nodetypes="cc"/><path id="shape2" transform="translate(43.0200036593352, 41.4000029840969)" fill="none" stroke="#000000" stroke-width="1.44" stroke-linecap="square" stroke-linejoin="miter" stroke-miterlimit="2" d="M4.14 15.84L0 0" sodipodi:nodetypes="cc"/><path id="shape3" transform="translate(5.9400013572029, 41.4000029840969)" fill="none" stroke="#000000" stroke-width="1.44" stroke-linecap="square" stroke-linejoin="miter" stroke-miterlimit="2" d="M37.08 0L0 0.36" sodipodi:nodetypes="cc"/><path id="shape4" transform="translate(5.94000135720289, 33.6600025035547)" fill="none" stroke="#000000" stroke-width="1.44" stroke-linecap="square" stroke-linejoin="miter" stroke-miterlimit="2" d="M0 8.1L35.46 0" sodipodi:nodetypes="cc"/><path id="shape5" transform="translate(32.9400030335128, 2.16000054785977)" fill="none" stroke="#000000" stroke-width="1.44" stroke-linecap="square" stroke-linejoin="miter" stroke-miterlimit="2" d="M8.46 31.5L0 0" sodipodi:nodetypes="cc"/><path id="shape6" transform="translate(32.9400030335128, 2.34000055903517)" fill="none" stroke="#000000" stroke-width="1.44" stroke-linecap="square" stroke-linejoin="miter" stroke-miterlimit="2" d="M0 0L18.18 31.32" sodipodi:nodetypes="cc"/><path id="shape7" transform="translate(51.1200041622282, 33.6600025035547)" fill="none" stroke="#000000" stroke-width="1.44" stroke-linecap="square" stroke-linejoin="miter" stroke-miterlimit="2" d="M0 0L51.48 0" sodipodi:nodetypes="cc"/><path id="shape8" transform="translate(102.600007358392, 1.80000052550898)" fill="none" stroke="#000000" stroke-width="1.44" stroke-linecap="square" stroke-linejoin="miter" stroke-miterlimit="2" d="M0 31.86L16.2 0" sodipodi:nodetypes="cc"/><path id="shape9" transform="translate(111.960007939513, 1.80000052550898)" fill="none" stroke="#000000" stroke-width="1.44" stroke-linecap="square" stroke-linejoin="miter" stroke-miterlimit="2" d="M6.84 0L0 31.5" sodipodi:nodetypes="cc"/><path id="shape10" transform="translate(111.960007939513, 33.3000024812039)" fill="none" stroke="#000000" stroke-width="1.44" stroke-linecap="square" stroke-linejoin="miter" stroke-miterlimit="2" d="M0 0L34.02 7.92" sodipodi:nodetypes="cc"/><path id="shape11" transform="translate(110.52000785011, 41.2200029729215)" fill="none" stroke="#000000" stroke-width="1.44" stroke-linecap="square" stroke-linejoin="miter" stroke-miterlimit="2" d="M35.46 0L0 0.18" sodipodi:nodetypes="cc"/><path id="shape12" transform="translate(106.2000075819, 41.4000029840969)" fill="none" stroke="#000000" stroke-width="1.44" stroke-linecap="square" stroke-linejoin="miter" stroke-miterlimit="2" d="M4.32 0L0 16.2" sodipodi:nodetypes="cc"/><path id="shape13" transform="translate(92.5200000273304, 91.7795562685033)" fill="none" stroke="#000000" stroke-width="1.44" stroke-linecap="square" stroke-linejoin="miter" stroke-miterlimit="2" d="M5.78762 106.915L0 0" sodipodi:nodetypes="cc"/><path id="shape14" transform="translate(92.5200000273304, 58.1778427298186)" fill="none" stroke="#000000" stroke-width="1.44" stroke-linecap="square" stroke-linejoin="miter" stroke-miterlimit="2" d="M0 33.6017L13.6789 0" sodipodi:nodetypes="cc"/><path id="shape15" transform="translate(50.3999997759183, 41.2199998294073)" fill="none" stroke="#000000" stroke-width="1.44" stroke-linecap="square" stroke-linejoin="miter" stroke-miterlimit="2" d="M0 0L52.92 0.36" sodipodi:nodetypes="cc"/><path id="shape16" transform="translate(103.319999573964, 41.5799998280335)" fill="none" stroke="#000000" stroke-width="1.44" stroke-linecap="square" stroke-linejoin="miter" stroke-miterlimit="2" d="M0 0L2.7 15.84" sodipodi:nodetypes="cc"/><path id="shape17" transform="translate(77.3999996728806, 57.4199997675847)" fill="none" stroke="#000000" stroke-width="1.44" stroke-linecap="square" stroke-linejoin="miter" stroke-miterlimit="2" d="M28.62 0L0 35.64" sodipodi:nodetypes="cc"/><path id="shape18" transform="translate(47.1599997882828, 56.6999997703323)" fill="none" stroke="#000000" stroke-width="1.44" stroke-linecap="square" stroke-linejoin="miter" stroke-miterlimit="2" d="M30.24 36.36L0 0" sodipodi:nodetypes="cc"/><path id="shape19" transform="translate(47.1599997882828, 41.0399998300942)" fill="none" stroke="#000000" stroke-width="1.44" stroke-linecap="square" stroke-linejoin="miter" stroke-miterlimit="2" d="M0 15.66L3.42 0" sodipodi:nodetypes="cc"/><path id="shape20" transform="translate(58.8510621327231, 148.800643450788)" fill="none" stroke="#000000" stroke-width="0.72" stroke-linecap="square" stroke-linejoin="miter" stroke-miterlimit="2" d="M0 49.1298L36.911 0" sodipodi:nodetypes="cc"/><path id="shape21" transform="translate(62.1603217470043, 111.635112398092)" fill="none" stroke="#000000" stroke-width="0.72" stroke-linecap="square" stroke-linejoin="miter" stroke-miterlimit="2" d="M33.6017 37.1655L0 0" sodipodi:nodetypes="cc"/><path id="shape22" transform="translate(62.1603217470043, 92.2886715761406)" fill="none" stroke="#000000" stroke-width="0.72" stroke-linecap="square" stroke-linejoin="miter" stroke-miterlimit="2" d="M0 19.3464L16.0372 0" sodipodi:nodetypes="cc"/><path id="shape23" transform="translate(77.0400050155396, 92.3400053393139)" fill="none" stroke="#000000" stroke-width="0.72" stroke-linecap="square" stroke-linejoin="miter" stroke-miterlimit="2" d="M0 0L15.48 18.2769" sodipodi:nodetypes="cc"/><path id="shape24" transform="translate(60.3784127239298, 110.616878670621)" fill="none" stroke="#000000" stroke-width="0.72" stroke-linecap="square" stroke-linejoin="miter" stroke-miterlimit="2" d="M32.1416 0L0 38.6929" sodipodi:nodetypes="cc"/><path id="shape25" transform="translate(60.3784127239298, 149.309760314524)" fill="none" stroke="#000000" stroke-width="0.72" stroke-linecap="square" stroke-linejoin="miter" stroke-miterlimit="2" d="M0 0L38.1838 48.8752" sodipodi:nodetypes="cc"/><path id="shape26" transform="translate(25.2493505202823, 36.2858180290401)" fill="none" stroke="#000000" stroke-width="0.72" stroke-linecap="square" stroke-linejoin="miter" stroke-miterlimit="2" d="M0 4.83661L4.20021 0" sodipodi:nodetypes="cc"/><path id="shape27" transform="translate(29.4495647898679, 36.2858180290401)" fill="none" stroke="#000000" stroke-width="0.72" stroke-linecap="square" stroke-linejoin="miter" stroke-miterlimit="2" d="M0 0L0.127279 5.34573" sodipodi:nodetypes="cc"/><path id="shape28" transform="translate(29.5768440101584, 35.0130258261354)" fill="none" stroke="#000000" stroke-width="0.72" stroke-linecap="square" stroke-linejoin="miter" stroke-miterlimit="2" d="M0 6.61852L6.1094 0" sodipodi:nodetypes="cc"/><path id="shape29" transform="translate(35.5589673638107, 35.0130258261354)" fill="none" stroke="#000000" stroke-width="0.72" stroke-linecap="square" stroke-linejoin="miter" stroke-miterlimit="2" d="M0.127279 0L0 6.49124" sodipodi:nodetypes="cc"/><path id="shape30" transform="translate(35.5589673638107, 33.4856751826497)" fill="none" stroke="#000000" stroke-width="0.72" stroke-linecap="square" stroke-linejoin="miter" stroke-miterlimit="2" d="M0 8.01859L5.98212 0" sodipodi:nodetypes="cc"/><path id="shape31" transform="translate(41.541090717463, 33.4856751826497)" fill="none" stroke="#000000" stroke-width="0.72" stroke-linecap="square" stroke-linejoin="miter" stroke-miterlimit="2" d="M0 0L1.52735 7.89131" sodipodi:nodetypes="cc"/><path id="shape32" transform="translate(43.0684413609487, 33.8675128435211)" fill="none" stroke="#000000" stroke-width="0.72" stroke-linecap="square" stroke-linejoin="miter" stroke-miterlimit="2" d="M0 7.50947L7.76403 0" sodipodi:nodetypes="cc"/><path id="shape33" transform="translate(41.2865322768821, 32.9765583014878)" fill="none" stroke="#000000" stroke-width="0.72" stroke-linecap="square" stroke-linejoin="miter" stroke-miterlimit="2" d="M0 0L8.78227 8.27315" sodipodi:nodetypes="cc"/><path id="shape34" transform="translate(44.5957920044344, 41.2497076203686)" fill="none" stroke="#000000" stroke-width="0.72" stroke-linecap="square" stroke-linejoin="miter" stroke-miterlimit="2" d="M5.60029 0L0 6.36396" sodipodi:nodetypes="cc"/><path id="shape35" transform="translate(51.0870322392486, 33.9947920638116)" fill="none" stroke="#000000" stroke-width="0.72" stroke-linecap="square" stroke-linejoin="miter" stroke-miterlimit="2" d="M0 0L0.127279 7.38219" sodipodi:nodetypes="cc"/><path id="shape36" transform="translate(51.2143114595391, 34.122071284102)" fill="none" stroke="#000000" stroke-width="0.72" stroke-linecap="square" stroke-linejoin="miter" stroke-miterlimit="2" d="M0 0L5.98212 7.00036" sodipodi:nodetypes="cc"/><path id="shape37" transform="translate(57.1964348131914, 33.3583959623592)" fill="none" stroke="#000000" stroke-width="0.72" stroke-linecap="square" stroke-linejoin="miter" stroke-miterlimit="2" d="M0 7.76403L7.00036 0" sodipodi:nodetypes="cc"/><path id="shape38" transform="translate(64.1967919291675, 33.3583959623592)" fill="none" stroke="#000000" stroke-width="0.72" stroke-linecap="square" stroke-linejoin="miter" stroke-miterlimit="2" d="M0 0L5.72756 8.14587" sodipodi:nodetypes="cc"/><path id="shape39" transform="translate(69.9243568422389, 33.7402336232306)" fill="none" stroke="#000000" stroke-width="0.72" stroke-linecap="square" stroke-linejoin="miter" stroke-miterlimit="2" d="M0 7.76403L7.12764 0" sodipodi:nodetypes="cc"/><path id="shape40" transform="translate(77.0519931785055, 33.7402336232306)" fill="none" stroke="#000000" stroke-width="0.72" stroke-linecap="square" stroke-linejoin="miter" stroke-miterlimit="2" d="M0 0L5.85484 8.01859" sodipodi:nodetypes="cc"/><path id="shape41" transform="translate(82.9068373118673, 34.122071284102)" fill="none" stroke="#000000" stroke-width="0.72" stroke-linecap="square" stroke-linejoin="miter" stroke-miterlimit="2" d="M0 7.63675L7.00036 0" sodipodi:nodetypes="cc"/><path id="shape42" transform="translate(89.9071944278434, 34.122071284102)" fill="none" stroke="#000000" stroke-width="0.72" stroke-linecap="square" stroke-linejoin="miter" stroke-miterlimit="2" d="M0 0L6.49124 7.50947" sodipodi:nodetypes="cc"/><path id="shape43" transform="translate(96.3984346626576, 33.7402336232306)" fill="none" stroke="#000000" stroke-width="0.72" stroke-linecap="square" stroke-linejoin="miter" stroke-miterlimit="2" d="M0 7.89131L6.23668 0" sodipodi:nodetypes="cc"/><path id="shape44" transform="translate(102.635116456891, 33.7402336232306)" fill="none" stroke="#000000" stroke-width="0.72" stroke-linecap="square" stroke-linejoin="miter" stroke-miterlimit="2" d="M0 0L7.38219 7.12764" sodipodi:nodetypes="cc"/><path id="shape45" transform="translate(110.017311233738, 33.4856751826497)" fill="none" stroke="#000000" stroke-width="0.72" stroke-linecap="square" stroke-linejoin="miter" stroke-miterlimit="2" d="M0 7.38219L1.78191 0" sodipodi:nodetypes="cc"/><path id="shape46" transform="translate(41.2865322768821, 25.4670843043498)" fill="none" stroke="#000000" stroke-width="0.72" stroke-linecap="square" stroke-linejoin="miter" stroke-miterlimit="2" d="M0 7.89131L5.34573 0" sodipodi:nodetypes="cc"/><path id="shape47" transform="translate(38.9955063116535, 25.4670843043498)" fill="none" stroke="#000000" stroke-width="0.72" stroke-linecap="square" stroke-linejoin="miter" stroke-miterlimit="2" d="M7.63675 0L0 0.127279" sodipodi:nodetypes="cc"/><path id="shape48" transform="translate(38.9955063116535, 18.4667271883736)" fill="none" stroke="#000000" stroke-width="0.72" stroke-linecap="square" stroke-linejoin="miter" stroke-miterlimit="2" d="M0 7.12764L3.30926 0" sodipodi:nodetypes="cc"/><path id="shape49" transform="translate(37.7227141087488, 18.4667271883736)" fill="none" stroke="#000000" stroke-width="0.72" stroke-linecap="square" stroke-linejoin="miter" stroke-miterlimit="2" d="M4.58205 0L0 0" sodipodi:nodetypes="cc"/><path id="shape50" transform="translate(37.4681574805061, 12.4846044838521)" fill="none" stroke="#000000" stroke-width="0.72" stroke-linecap="square" stroke-linejoin="miter" stroke-miterlimit="2" d="M0 5.47301L1.40007 0" sodipodi:nodetypes="cc"/><path id="shape51" transform="translate(103.01695817374, 33.2311181013224)" fill="none" stroke="#000000" stroke-width="0.72" stroke-linecap="square" stroke-linejoin="miter" stroke-miterlimit="2" d="M0 0L8.90955 0.127279" sodipodi:nodetypes="cc"/><path id="shape52" transform="translate(106.962614137799, 25.5943646224989)" fill="none" stroke="#000000" stroke-width="0.72" stroke-linecap="square" stroke-linejoin="miter" stroke-miterlimit="2" d="M4.96389 7.76403L0 0" sodipodi:nodetypes="cc"/><path id="shape53" transform="translate(106.962614137799, 25.4670853978519)" fill="none" stroke="#000000" stroke-width="0.72" stroke-linecap="square" stroke-linejoin="miter" stroke-miterlimit="2" d="M0 0.127279L6.36396 0" sodipodi:nodetypes="cc"/><path id="shape54" transform="translate(110.526432427917, 18.0848903683226)" fill="none" stroke="#000000" stroke-width="0.72" stroke-linecap="square" stroke-linejoin="miter" stroke-miterlimit="2" d="M2.80014 7.3822L0 0" sodipodi:nodetypes="cc"/><path id="shape55" transform="translate(110.526432427917, 18.0848903683226)" fill="none" stroke="#000000" stroke-width="0.72" stroke-linecap="square" stroke-linejoin="miter" stroke-miterlimit="2" d="M0 0L4.70933 0" sodipodi:nodetypes="cc"/><path id="shape56" transform="translate(113.199296145505, 12.9937213824403)" fill="none" stroke="#000000" stroke-width="0.72" stroke-linecap="square" stroke-linejoin="miter" stroke-miterlimit="2" d="M2.03647 5.09117L0 0" sodipodi:nodetypes="cc"/><path id="shape57" transform="translate(41.6683718938589, 33.2311181013224)" fill="none" stroke="#000000" stroke-width="0.72" stroke-linecap="square" stroke-linejoin="miter" stroke-miterlimit="2" d="M0 0.127279L8.90955 0" sodipodi:nodetypes="cc"/><path id="shape58" transform="translate(111.799224674387, 33.4856765506165)" fill="none" stroke="#000000" stroke-width="0.72" stroke-linecap="square" stroke-linejoin="miter" stroke-miterlimit="2" d="M0 0L5.21845 8.01859" sodipodi:nodetypes="cc"/><path id="shape59" transform="translate(117.017672884917, 34.3766311231459)" fill="none" stroke="#000000" stroke-width="0.72" stroke-linecap="square" stroke-linejoin="miter" stroke-miterlimit="2" d="M0 7.12764L0 0" sodipodi:nodetypes="cc"/><path id="shape60" transform="translate(117.017672884917, 34.3766311231459)" fill="none" stroke="#000000" stroke-width="0.72" stroke-linecap="square" stroke-linejoin="miter" stroke-miterlimit="2" d="M0 0L5.60029 7.12764" sodipodi:nodetypes="cc"/><path id="shape61" transform="translate(122.617958769387, 36.0312610435576)" fill="none" stroke="#000000" stroke-width="0.72" stroke-linecap="square" stroke-linejoin="miter" stroke-miterlimit="2" d="M0 5.47301L0.127279 0" sodipodi:nodetypes="cc"/><path id="shape62" transform="translate(122.745237994034, 36.0312610435576)" fill="none" stroke="#000000" stroke-width="0.72" stroke-linecap="square" stroke-linejoin="miter" stroke-miterlimit="2" d="M0 0L6.87308 5.21845" sodipodi:nodetypes="cc"/><path id="shape63" transform="translate(103.01695817374, 32.9765596520283)" fill="none" stroke="#000000" stroke-width="0.72" stroke-linecap="square" stroke-linejoin="miter" stroke-miterlimit="2" d="M0 8.14587L9.29138 0" sodipodi:nodetypes="cc"/><path id="shape64" transform="translate(102.380562050505, 33.8675142245577)" fill="none" stroke="#000000" stroke-width="0.72" stroke-linecap="square" stroke-linejoin="miter" stroke-miterlimit="2" d="M0 0L0.127279 7.63675" sodipodi:nodetypes="cc"/><path id="shape65" transform="translate(103.398795847682, 41.6315469280281)" fill="none" stroke="#000000" stroke-width="0.72" stroke-linecap="square" stroke-linejoin="miter" stroke-miterlimit="2" d="M0 0L5.21845 8.01859" sodipodi:nodetypes="cc"/><path id="shape66" transform="translate(45.1049109593295, 47.6136704864398)" fill="none" stroke="#000000" stroke-width="0.72" stroke-linecap="square" stroke-linejoin="miter" stroke-miterlimit="2" d="M0 0L3.81838 0.127279" sodipodi:nodetypes="cc"/><path id="shape67" transform="translate(104.671588094152, 49.0137419575574)" fill="none" stroke="#000000" stroke-width="0.72" stroke-linecap="square" stroke-linejoin="miter" stroke-miterlimit="2" d="M0 0.127279L3.94566 0" sodipodi:nodetypes="cc"/><path id="shape68" transform="translate(59.580005071078, 173.250012105166)" fill="none" stroke="#000000" stroke-width="0.72" stroke-linecap="square" stroke-linejoin="miter" stroke-miterlimit="2" d="M0 0L37.26 0" sodipodi:nodetypes="cc"/><path id="shape69" transform="translate(59.7600050831733, 186.120012953431)" fill="none" stroke="#000000" stroke-width="0.72" stroke-linecap="square" stroke-linejoin="miter" stroke-miterlimit="2" d="M0 0L8.1 0" sodipodi:nodetypes="cc"/><path id="shape70" transform="translate(59.4000050589827, 173.520012106759)" fill="none" stroke="#000000" stroke-width="0.72" stroke-linecap="square" stroke-linejoin="miter" stroke-miterlimit="2" d="M8.46 12.6L0 0" sodipodi:nodetypes="cc"/><path id="shape71" transform="translate(59.4000050589827, 161.820011320563)" fill="none" stroke="#000000" stroke-width="0.72" stroke-linecap="square" stroke-linejoin="miter" stroke-miterlimit="2" d="M0 11.7L10.26 0" sodipodi:nodetypes="cc"/><path id="shape72" transform="translate(60.3000051194592, 161.820011320563)" fill="none" stroke="#000000" stroke-width="0.72" stroke-linecap="square" stroke-linejoin="miter" stroke-miterlimit="2" d="M9.36 0L0 0" sodipodi:nodetypes="cc"/><path id="shape73" transform="translate(86.2200068611851, 161.820011320563)" fill="none" stroke="#000000" stroke-width="0.72" stroke-linecap="square" stroke-linejoin="miter" stroke-miterlimit="2" d="M0 0.18L9.72 0" sodipodi:nodetypes="cc"/><path id="shape74" transform="translate(86.2200068611851, 161.820011320563)" fill="none" stroke="#000000" stroke-width="0.72" stroke-linecap="square" stroke-linejoin="miter" stroke-miterlimit="2" d="M0 0L10.08 11.52" sodipodi:nodetypes="cc"/><path id="shape75" transform="translate(88.3800070063289, 173.340012094663)" fill="none" stroke="#000000" stroke-width="0.72" stroke-linecap="square" stroke-linejoin="miter" stroke-miterlimit="2" d="M7.92 0L0 11.88" sodipodi:nodetypes="cc"/><path id="shape76" transform="translate(88.3800070063289, 185.040012880859)" fill="none" stroke="#000000" stroke-width="0.72" stroke-linecap="square" stroke-linejoin="miter" stroke-miterlimit="2" d="M0 0.18L8.64 0" sodipodi:nodetypes="cc"/><path id="shape77" transform="translate(60.4800051315546, 149.940010522272)" fill="none" stroke="#000000" stroke-width="0.72" stroke-linecap="square" stroke-linejoin="miter" stroke-miterlimit="2" d="M0 0L35.28 0.18" sodipodi:nodetypes="cc"/><path id="shape78" transform="translate(61.0200051678405, 140.04000985703)" fill="none" stroke="#000000" stroke-width="0.72" stroke-linecap="square" stroke-linejoin="miter" stroke-miterlimit="2" d="M0 0L7.38 0" sodipodi:nodetypes="cc"/><path id="shape79" transform="translate(61.5600052041265, 130.500009215978)" fill="none" stroke="#000000" stroke-width="0.72" stroke-linecap="square" stroke-linejoin="miter" stroke-miterlimit="2" d="M6.84 9.54L0 0" sodipodi:nodetypes="cc"/><path id="shape80" transform="translate(61.5600052041265, 120.600008550735)" fill="none" stroke="#000000" stroke-width="0.72" stroke-linecap="square" stroke-linejoin="miter" stroke-miterlimit="2" d="M0 9.9L8.1 0" sodipodi:nodetypes="cc"/><path id="shape81" transform="translate(61.9200052283171, 120.600008550735)" fill="none" stroke="#000000" stroke-width="0.72" stroke-linecap="square" stroke-linejoin="miter" stroke-miterlimit="2" d="M7.74 0L0 0" sodipodi:nodetypes="cc"/><path id="shape82" transform="translate(61.5600052041265, 129.780009167596)" fill="none" stroke="#000000" stroke-width="0.72" stroke-linecap="square" stroke-linejoin="miter" stroke-miterlimit="2" d="M0 0L32.76 0.18" sodipodi:nodetypes="cc"/><path id="shape83" transform="translate(84.9600067765178, 120.42000853864)" fill="none" stroke="#000000" stroke-width="0.72" stroke-linecap="square" stroke-linejoin="miter" stroke-miterlimit="2" d="M7.55999 0L0 0" sodipodi:nodetypes="cc"/><path id="shape84" transform="translate(84.9600067765178, 120.42000853864)" fill="none" stroke="#000000" stroke-width="0.72" stroke-linecap="square" stroke-linejoin="miter" stroke-miterlimit="2" d="M0 0L9.54 9.9" sodipodi:nodetypes="cc"/><path id="shape85" transform="translate(87.6600069579476, 130.320009203882)" fill="none" stroke="#000000" stroke-width="0.72" stroke-linecap="square" stroke-linejoin="miter" stroke-miterlimit="2" d="M6.84 0L0 9.18" sodipodi:nodetypes="cc"/><path id="shape86" transform="translate(87.6600069579476, 139.500009820744)" fill="none" stroke="#000000" stroke-width="0.72" stroke-linecap="square" stroke-linejoin="miter" stroke-miterlimit="2" d="M0 0L7.2 0" sodipodi:nodetypes="cc"/><path id="shape87" transform="translate(62.6400052766984, 101.520000011441)" fill="none" stroke="#000000" stroke-width="0.72" stroke-linecap="square" stroke-linejoin="miter" stroke-miterlimit="2" d="M0 0L7.38 0" sodipodi:nodetypes="cc"/><path id="shape88" transform="translate(63.540005337175, 92.7000066759609)" fill="none" stroke="#000000" stroke-width="0.72" stroke-linecap="square" stroke-linejoin="miter" stroke-miterlimit="2" d="M6.48 8.81999L0 0" sodipodi:nodetypes="cc"/><path id="shape89" transform="translate(63.540005337175, 83.700006071195)" fill="none" stroke="#000000" stroke-width="0.72" stroke-linecap="square" stroke-linejoin="miter" stroke-miterlimit="2" d="M0 9L5.94 0" sodipodi:nodetypes="cc"/><path id="shape90" transform="translate(58.8600050226967, 83.700006071195)" fill="none" stroke="#000000" stroke-width="0.72" stroke-linecap="square" stroke-linejoin="miter" stroke-miterlimit="2" d="M10.62 0L0 0" sodipodi:nodetypes="cc"/><path id="shape91" transform="translate(58.8600050226967, 75.4200055148103)" fill="none" stroke="#000000" stroke-width="0.72" stroke-linecap="square" stroke-linejoin="miter" stroke-miterlimit="2" d="M0 8.28L3.42 0" sodipodi:nodetypes="cc"/><path id="shape92" transform="translate(55.2600047807903, 75.4200055148103)" fill="none" stroke="#000000" stroke-width="0.72" stroke-linecap="square" stroke-linejoin="miter" stroke-miterlimit="2" d="M7.02 0L0 0" sodipodi:nodetypes="cc"/><path id="shape93" transform="translate(55.080004768695, 66.9600049463304)" fill="none" stroke="#000000" stroke-width="0.72" stroke-linecap="square" stroke-linejoin="miter" stroke-miterlimit="2" d="M0.18 8.46L0 0" sodipodi:nodetypes="cc"/><path id="shape94" transform="translate(51.3415931377864, 66.7055543705115)" fill="none" stroke="#000000" stroke-width="0.72" stroke-linecap="square" stroke-linejoin="miter" stroke-miterlimit="2" d="M3.94566 0L0 0" sodipodi:nodetypes="cc"/><path id="shape95" transform="translate(63.1785610602101, 92.5432370398879)" fill="none" stroke="#000000" stroke-width="0.72" stroke-linecap="square" stroke-linejoin="miter" stroke-miterlimit="2" d="M0 0.127279L29.3414 0" sodipodi:nodetypes="cc"/><path id="shape96" transform="translate(85.1978669804175, 83.3791328418825)" fill="none" stroke="#000000" stroke-width="0.72" stroke-linecap="square" stroke-linejoin="miter" stroke-miterlimit="2" d="M7.32213 9.1641L0 0" sodipodi:nodetypes="cc"/><path id="shape97" transform="translate(85.1978669804175, 83.2518536169102)" fill="none" stroke="#000000" stroke-width="0.72" stroke-linecap="square" stroke-linejoin="miter" stroke-miterlimit="2" d="M0 0.127279L10.6915 0" sodipodi:nodetypes="cc"/><path id="shape98" transform="translate(92.5200000273304, 74.8514247687386)" fill="none" stroke="#000000" stroke-width="0.72" stroke-linecap="square" stroke-linejoin="miter" stroke-miterlimit="2" d="M3.36932 8.40043L0 0" sodipodi:nodetypes="cc"/><path id="shape99" transform="translate(92.5200000273304, 74.7241455437663)" fill="none" stroke="#000000" stroke-width="0.72" stroke-linecap="square" stroke-linejoin="miter" stroke-miterlimit="2" d="M0 0.127279L6.93314 0" sodipodi:nodetypes="cc"/><path id="shape100" transform="translate(99.0713025023979, 66.3237166955946)" fill="none" stroke="#000000" stroke-width="0.72" stroke-linecap="square" stroke-linejoin="miter" stroke-miterlimit="2" d="M0.381838 8.40043L0 0" sodipodi:nodetypes="cc"/><path id="shape101" transform="translate(99.0713025023979, 66.3237166955946)" fill="none" stroke="#000000" stroke-width="0.72" stroke-linecap="square" stroke-linejoin="miter" stroke-miterlimit="2" d="M0 0L3.56382 0" sodipodi:nodetypes="cc"/><path id="shape102" transform="translate(85.5797046553344, 92.2886785899433)" fill="none" stroke="#000000" stroke-width="0.72" stroke-linecap="square" stroke-linejoin="miter" stroke-miterlimit="2" d="M6.9403 0L0 9.23132" sodipodi:nodetypes="cc"/><path id="shape103" transform="translate(85.5797046553344, 101.520000011441)" fill="none" stroke="#000000" stroke-width="0.72" stroke-linecap="square" stroke-linejoin="miter" stroke-miterlimit="2" d="M0 0L6.9403 0" sodipodi:nodetypes="cc"/><path id="shape02" transform="matrix(0.999999815888438 0 0 0.9365409035757 7.76681098618004 42.9135529516127)" fill="none" stroke="#737373" stroke-width="2.16" stroke-linecap="square" stroke-linejoin="miter" stroke-miterlimit="2" d="M0 0L0 11.1415" sodipodi:nodetypes="cc"/><circle id="shape015" transform="matrix(1.43710222843611 0 0 1.46346148103852 6.59137199213952 54.3301902252141)" r="0.719999999999999" cx="0.719999999999999" cy="0.719999999999999" fill="#d00000" fill-rule="evenodd" stroke-opacity="0" stroke="#000000" stroke-width="0" stroke-linecap="square" stroke-linejoin="bevel"/><path id="shape021" transform="matrix(0.999999815888438 0 0 0.9365409035757 28.0042071675051 43.0408321728789)" fill="none" stroke="#737373" stroke-width="2.16" stroke-linecap="square" stroke-linejoin="miter" stroke-miterlimit="2" d="M0 0L0 11.1415" sodipodi:nodetypes="cc"/><circle id="shape0151" transform="matrix(1.43710222843611 0 0 1.46346148103852 26.8287681734646 54.4574694464803)" r="0.719999999999999" cx="0.719999999999999" cy="0.719999999999999" fill="#d00000" fill-rule="evenodd" stroke-opacity="0" stroke="#000000" stroke-width="0" stroke-linecap="square" stroke-linejoin="bevel"/><path id="shape022" transform="matrix(0.999999815888438 0 0 0.9365409035757 63.8969475645723 42.5317152878141)" fill="none" stroke="#737373" stroke-width="2.16" stroke-linecap="square" stroke-linejoin="miter" stroke-miterlimit="2" d="M0 0L0 11.1415" sodipodi:nodetypes="cc"/><circle id="shape0152" transform="matrix(1.43710222843611 0 0 1.46346148103852 62.7215085705318 53.9483525614155)" r="0.719999999999999" cx="0.719999999999999" cy="0.719999999999999" fill="#d00000" fill-rule="evenodd" stroke-opacity="0" stroke="#000000" stroke-width="0" stroke-linecap="square" stroke-linejoin="bevel"/><path id="shape023" transform="matrix(0.999999815888438 0 0 0.9365409035757 90.2437463666748 42.2771568452817)" fill="none" stroke="#737373" stroke-width="2.16" stroke-linecap="square" stroke-linejoin="miter" stroke-miterlimit="2" d="M0 0L0 11.1415" sodipodi:nodetypes="cc"/><circle id="shape0153" transform="matrix(1.43710222843611 0 0 1.46346148103852 89.0683073726342 53.6937941188831)" r="0.719999999999999" cx="0.719999999999999" cy="0.719999999999999" fill="#d00000" fill-rule="evenodd" stroke-opacity="0" stroke="#000000" stroke-width="0" stroke-linecap="square" stroke-linejoin="bevel"/><path id="shape024" transform="matrix(0.999999815888438 0 0 0.9365409035757 142.824196067146 42.7765860345585)" fill="none" stroke="#737373" stroke-width="2.16" stroke-linecap="square" stroke-linejoin="miter" stroke-miterlimit="2" d="M0 0L0 11.1415" sodipodi:nodetypes="cc"/><circle id="shape0154" transform="matrix(1.43710222843611 0 0 1.46346148103852 141.648757073105 54.1932233081599)" r="0.719999999999999" cx="0.719999999999999" cy="0.719999999999999" fill="#d00000" fill-rule="evenodd" stroke-opacity="0" stroke="#000000" stroke-width="0" stroke-linecap="square" stroke-linejoin="bevel"/><path id="shape025" transform="matrix(0.999999815888438 0 0 0.9365409035757 123.442214671064 42.7238652436444)" fill="none" stroke="#737373" stroke-width="2.16" stroke-linecap="square" stroke-linejoin="miter" stroke-miterlimit="2" d="M0 0L0 11.1415" sodipodi:nodetypes="cc"/><circle id="shape0155" transform="matrix(1.43710222843611 0 0 1.46346148103852 122.266775677024 54.1405025172458)" r="0.719999999999999" cx="0.719999999999999" cy="0.719999999999999" fill="#d00000" fill-rule="evenodd" stroke-opacity="0" stroke="#000000" stroke-width="0" stroke-linecap="square" stroke-linejoin="bevel"/><path id="shape41" transform="matrix(1.1686408986195 0 0 0.999999903911981 -9.75243498641925 201.502622902542)" fill="none" stroke="#3b2300" stroke-width="2.16" stroke-linecap="square" stroke-linejoin="miter" stroke-miterlimit="2" d="M0 0L160.92 0.18" sodipodi:nodetypes="cc"/><path id="shape51" transform="matrix(1.1686408986195 0 0 0.999999903911981 -9.56895201091893 199.866536483444)" fill="none" stroke="#297f00" stroke-width="1.44" stroke-linecap="square" stroke-linejoin="miter" stroke-miterlimit="2" d="M0 0L161.135 0.127279" sodipodi:nodetypes="cc"/>
</svg>
