<?xml version="1.0" standalone="no"?>
<!DOCTYPE svg PUBLIC "-//W3C//DTD SVG 20010904//EN" "http://www.w3.org/TR/2001/REC-SVG-20010904/DTD/svg10.dtd">
<!-- Created using Krita: https://krita.org -->
<svg xmlns="http://www.w3.org/2000/svg" 
    xmlns:xlink="http://www.w3.org/1999/xlink"
    xmlns:krita="http://krita.org/namespaces/svg/krita"
    xmlns:sodipodi="http://sodipodi.sourceforge.net/DTD/sodipodi-0.dtd"
    width="216pt"
    height="216pt"
    viewBox="0 0 216 216">
<defs>
  <linearGradient id="gradient0" gradientUnits="objectBoundingBox" x1="0.00132475575510187" y1="0.488903159333031" x2="0.998675244244898" y2="0.490511444484525" spreadMethod="reflect">
   <stop stop-color="#bfbfbf" offset="0" stop-opacity="1"/>
   <stop stop-color="#595959" offset="1" stop-opacity="1"/>
  </linearGradient>
 </defs>
<path id="shape0" transform="matrix(0.999999978305365 0 0 0.999999978305365 96.9267002402312 94.6800135869704)" fill="#5f3e1d" fill-rule="evenodd" stroke="#3b2300" stroke-width="1" stroke-linecap="square" stroke-linejoin="bevel" d="M0 120.922L0.254558 5.21844L10.8187 0L22.1466 5.09117L22.1466 120.922Z" sodipodi:nodetypes="cccccc"/><path id="shape0" fill="url(#gradient0)" fill-rule="evenodd" stroke="#808080" stroke-width="1" stroke-linecap="square" stroke-linejoin="bevel" d="M174.578 62.6211L174.415 62.765L173.896 63.2201L173.343 63.7021L172.759 64.21L172.143 64.7427L171.498 65.2992L170.825 65.8786L170.125 66.4799L169.399 67.102L168.649 67.7439L167.875 68.4047L167.079 69.0833L166.263 69.7788L165.427 70.4901L164.573 71.2163L163.702 71.9563L162.815 72.7091L161.914 73.4738L160.999 74.2494L160.073 75.0348L159.135 75.829L158.189 76.6311L157.234 77.44L156.272 78.2547L155.304 79.0743L154.332 79.8978L153.357 80.7241L152.38 81.5522L151.402 82.3811L150.424 83.2099L149.449 84.0376L148.476 84.8631L147.508 85.6854L146.546 86.5035L145.59 87.3165L144.642 88.1234L143.704 88.923L142.776 89.7145L141.86 90.4969L140.958 91.2691L140.069 92.0301L139.196 92.7789L138.34 93.5146L137.502 94.2361L136.684 94.9425L135.886 95.6327L135.109 96.3057L134.356 96.9606L133.628 97.5963L132.925 98.2118L132.249 98.8062L131.601 99.3784L130.982 99.9274L130.394 100.452L129.838 100.952L129.315 101.425L128.826 101.872L128.373 102.29L127.957 102.679L127.58 103.038L126.627 104.008L125.812 104.94L125.126 105.836L124.556 106.698L124.094 107.529L123.729 108.331L123.451 109.107L123.249 109.859L123.114 110.589L123.036 111.3L123.004 111.993L123.007 112.672L123.037 113.339L123.082 113.997L123.133 114.646L123.179 115.291L123.21 115.933L123.212 116.667L123.213 117.4L123.212 118.131L123.211 118.86L123.209 119.588L123.206 120.315L123.203 121.04L123.199 121.765L123.194 122.489L123.189 123.211L123.183 123.934L123.177 124.655L123.17 125.376L123.164 126.097L123.157 126.817L123.15 127.537L123.143 128.257L123.136 128.977L123.129 129.698L123.123 130.418L123.116 131.139L123.11 131.861L123.104 132.583L123.099 133.306L123.094 134.029L123.09 134.754L123.087 135.479L123.084 136.206L123.082 136.934L123.081 137.664L123.08 138.395L123.081 139.127L123.083 139.861L119.39 139.758L119.57 114.738L119.58 113.711L119.612 112.74L119.669 111.821L119.752 110.95L119.861 110.121L120 109.329L120.168 108.572L120.369 107.843L120.603 107.138L120.872 106.453L121.177 105.783L121.52 105.123L121.903 104.468L122.327 103.815L122.794 103.159L123.305 102.494L123.862 101.816L124.466 101.122L125.119 100.405L125.436 100.133L125.798 99.8221L126.203 99.4749L126.652 99.092L127.141 98.6749L127.67 98.2247L128.236 97.7428L128.839 97.2305L129.476 96.689L130.147 96.1196L130.849 95.5237L131.581 94.9025L132.342 94.2573L133.13 93.5894L133.943 92.9001L134.781 92.1907L135.64 91.4624L136.521 90.7166L137.42 89.9545L138.338 89.1774L139.272 88.3866L140.22 87.5835L141.181 86.7692L142.154 85.9452L143.137 85.1125L144.128 84.2727L145.126 83.4269L146.13 82.5764L147.138 81.7226L148.147 80.8666L149.158 80.0099L150.167 79.1536L151.175 78.2992L152.178 77.4478L153.176 76.6007L154.167 75.7593L155.149 74.9248L156.121 74.0986L157.082 73.2818L158.029 72.4759L158.962 71.682L159.878 70.9015L160.777 70.1357L161.656 69.3858L162.514 68.6532L163.35 67.9391L164.162 67.2448L164.948 66.5716L165.707 65.9208L166.438 65.2937L167.138 64.6916L167.807 64.1157L168.442 63.5674L169.042 63.0479L169.606 62.5586L170.133 62.1006L170.619 61.6754L170.885 61.442L118.37 44.675L99.5324 44.5477L44.0284 60.3756L44.0305 60.3776L44.344 60.6591L44.703 60.9785L45.1062 61.3345L45.5519 61.7257L46.0386 62.151L46.5648 62.6089L47.1289 63.0983L47.7294 63.6178L48.3647 64.1661L49.0333 64.742L49.7336 65.3441L50.4642 65.9712L51.2233 66.622L52.0096 67.2952L52.8214 67.9895L53.6572 68.7036L54.5155 69.4362L55.3946 70.1861L56.2932 70.9519L57.2096 71.7324L58.1422 72.5263L59.0896 73.3322L60.0502 74.149L61.0224 74.9752L62.0047 75.8097L62.9956 76.6511L63.9935 77.4981L64.9968 78.3496L66.004 79.204L67.0136 80.0603L68.0241 80.917L69.0338 81.7729L70.0412 82.6268L71.0448 83.4773L72.0431 84.3231L73.0344 85.1629L74.0173 85.9955L74.9902 86.8196L75.9515 87.6339L76.8998 88.437L77.8334 89.2278L78.7509 90.0049L79.6506 90.7669L80.531 91.5128L81.3906 92.2411L82.2279 92.9505L83.0412 93.6398L83.8291 94.3077L84.59 94.9529L85.3223 95.5741L86.0246 96.17L86.6952 96.7394L87.3326 97.2808L87.9353 97.7932L88.5017 98.2751L89.0303 98.7252L89.5196 99.1424L89.9679 99.5253L90.3737 99.8725L90.7356 100.183L91.0519 100.455L91.7051 101.172L92.3093 101.867L92.8662 102.544L93.3773 103.209L93.8441 103.866L94.2682 104.519L94.6511 105.173L94.9945 105.833L95.2998 106.503L95.5686 107.188L95.8025 107.893L96.003 108.622L96.1716 109.38L96.31 110.171L96.4196 111L96.502 111.872L96.5589 112.79L96.5916 113.761L96.6018 114.788L96.7818 139.808L93.0884 139.912L93.0902 139.177L93.0909 138.445L93.0907 137.714L93.0895 136.985L93.0874 136.256L93.0846 135.53L93.0811 134.804L93.0769 134.08L93.0721 133.356L93.0668 132.633L93.0611 131.911L93.055 131.19L93.0486 130.469L93.042 129.748L93.0351 129.028L93.0282 128.307L93.0213 127.587L93.0143 126.867L93.0075 126.147L93.0009 125.426L92.9945 124.705L92.9884 123.984L92.9826 123.262L92.9773 122.539L92.9726 121.815L92.9684 121.091L92.9649 120.365L92.962 119.638L92.96 118.91L92.9588 118.181L92.9586 117.45L92.9593 116.717L92.9611 115.983L92.9922 115.341L93.0383 114.697L93.089 114.047L93.1343 113.39L93.1639 112.723L93.1676 112.044L93.1354 111.35L93.0569 110.639L92.9221 109.909L92.7207 109.158L92.4425 108.382L92.0774 107.58L91.6152 106.749L91.0458 105.886L90.3588 104.99L89.5442 104.058L88.5918 103.088L88.2139 102.729L87.7979 102.34L87.345 101.922L86.8564 101.476L86.3334 101.002L85.7773 100.503L85.1893 99.9778L84.5706 99.4287L83.9226 98.8565L83.2465 98.2622L82.5435 97.6466L81.8148 97.0109L81.0618 96.3561L80.2857 95.6831L79.4877 94.9929L78.6692 94.2865L77.8312 93.565L76.9752 92.8293L76.1023 92.0804L75.2138 91.3194L74.311 90.5472L73.3951 89.7649L72.4673 88.9734L71.529 88.1737L70.5813 87.3669L69.6255 86.5539L68.663 85.7357L67.6948 84.9134L66.7224 84.0879L65.7469 83.2603L64.7695 82.4315L63.7916 81.6025L62.8144 80.7744L61.8392 79.9481L60.8671 79.1247L59.8995 78.3051L58.9377 77.4903L57.9827 76.6814L57.036 75.8794L56.0988 75.0851L55.1722 74.2997L54.2577 73.5242L53.3563 72.7595L52.4695 72.0067L51.5984 71.2666L50.7442 70.5405L49.9083 69.8292L49.0919 69.1337L48.2963 68.4551L47.5226 67.7943L46.7722 67.1523L46.0463 66.5302L45.3461 65.929L44.673 65.3496L44.0281 64.7931L43.4127 64.2604L42.8281 63.7525L42.2755 63.2705L41.7562 62.8153L41.2715 62.388L40.8225 61.9896L40.4105 61.621L40.2308 61.4586L13.68 69.03L12.51 65.34L99.0232 40.9839L118.624 40.9839L204.665 67.8398L202.883 71.6582L174.578 62.6211" sodipodi:nodetypes="cccccccccccccccccccccccccccccccccccccccccccccccccccccccccccccccccccccccccccccccccccccccccccccccccccccccccccccccccccccccccccccccccccccccccccccccccccccccccccccccccccccccccccccccccccccccccccccccccccccccccccccccccccccccccccccccccccccccccccccccccccccccccccccccccccccccccccccccccccccccccccccccccccccccccccccccccccccccccccccccccccccccccccccccccccccccccccccccccccccccccccccccccccccccccccccccccccccccccccc"/><path id="shape1" transform="translate(107.264566152843, 45.3750417375621)" fill="none" stroke="#4c4c4c" stroke-width="1.44" stroke-linecap="square" stroke-linejoin="miter" stroke-miterlimit="2" d="M3.62353e-05 0C-0.00256356 1.21616 0.128725 2.98422 2.35408 2.92602C4.94031 2.92602 4.94768 1.20114 4.92948 0.120114" sodipodi:nodetypes="ccc"/><path id="shape01" transform="matrix(0.936918315802415 -0.349548326778009 0.349548326778009 0.936918315802415 18.9820996140567 68.1620571257423)" fill="none" stroke="#4c4c4c" stroke-width="1.44" stroke-linecap="square" stroke-linejoin="miter" stroke-miterlimit="2" d="M3.62354e-05 0C-0.00256356 1.21616 0.128725 2.98422 2.35408 2.92602C4.94031 2.92602 4.85131 1.40907 4.83311 0.328044" sodipodi:nodetypes="ccc"/><path id="shape02" transform="matrix(-0.936918304514952 -0.349548322566848 -0.349548322566848 0.936918304514952 197.231843930659 70.1312725120914)" fill="none" stroke="#4c4c4c" stroke-width="1.44" stroke-linecap="square" stroke-linejoin="miter" stroke-miterlimit="2" d="M3.62354e-05 0C-0.00256356 1.21616 0.128725 2.98422 2.35408 2.92602C4.94031 2.92602 4.94768 1.20114 4.92948 0.120114" sodipodi:nodetypes="ccc"/><g id="group0" transform="translate(183.982110058317, 72.2309595950293)" fill="none">
  <path id="shape2" transform="translate(0, 3.26420419923325)" fill="#87cd75" fill-rule="evenodd" stroke="none" stroke-width="1" stroke-linecap="square" stroke-linejoin="bevel" d="M9.99142 0.0768723L8.90955 1.76332L8.97319 3.44977L0 8.11837L9.03683 6.56379L8.97319 9.93205L0.0636439 14.1412L8.97319 12.3503L9.54594 13.5594L12.0915 13.473L12.7916 12.523L21.2875 14.1094L12.7916 10.0184L12.7916 6.73652L21.2238 8.1591L12.7916 3.45463L12.7916 1.72731L11.4551 0Z" sodipodi:nodetypes="ccccccccccccccccccc"/>
  <path id="shape3" transform="translate(0.28638256006036, 8.71862514931301)" fill="#87cd75" fill-opacity="0.466666666666667" fill-rule="evenodd" d="M0 2.70468L9.10046 0L12.3461 0.0318198L20.3965 2.70468Z" sodipodi:nodetypes="ccccc"/>
  <path id="shape03" transform="matrix(0.999999968701158 0 0 0.999999968701158 0.286387365711903 14.7484753765606)" fill="#87cd75" fill-opacity="0.466666666666667" fill-rule="evenodd" stroke-opacity="0" stroke="#000000" stroke-width="0" stroke-linecap="square" stroke-linejoin="bevel" d="M0 2.62514L9.10363 0L12.3493 0.0318198L20.8102 2.52968Z" sodipodi:nodetypes="ccccc"/>
  <path id="shape4" transform="translate(10.7551025943607, 0)" fill="none" stroke="#4c4c4c" stroke-width="1.44" stroke-linecap="square" stroke-linejoin="miter" stroke-miterlimit="2" d="M0 0L0 3.18198" sodipodi:nodetypes="cc"/>
 </g><g id="group0" transform="matrix(1.00000000189017 0 0 1.00000000189017 98.8412500867837 48.9211316431455)" fill="none">
  <path id="shape04" transform="translate(0, 3.26420419923325)" fill="#87cd75" fill-rule="evenodd" stroke-opacity="0" stroke="#000000" stroke-width="0" stroke-linecap="square" stroke-linejoin="bevel" d="M9.99142 0.0768723L8.90955 1.76332L8.97319 3.44977L0 8.11837L9.03683 6.56379L8.97319 9.93205L0.0636439 14.1412L8.97319 12.3503L9.54594 13.5594L12.0915 13.473L12.7916 12.523L21.2875 14.1094L12.7916 10.0184L12.7916 6.73652L21.2238 8.1591L12.7916 3.45463L12.7916 1.72731L11.4551 0Z" sodipodi:nodetypes="ccccccccccccccccccc"/>
  <path id="shape1" transform="translate(0.28638256006036, 8.71862514931301)" fill="#87cd75" fill-opacity="0.466666666666667" fill-rule="evenodd" stroke-opacity="0" stroke="#000000" stroke-width="0" stroke-linecap="square" stroke-linejoin="bevel" d="M0 2.70468L9.10046 0L12.3461 0.0318198L20.3965 2.70468Z" sodipodi:nodetypes="ccccc"/>
  <path id="shape05" transform="matrix(0.999999968701158 0 0 0.999999968701158 0.286387365711903 14.7484753765606)" fill="#87cd75" fill-opacity="0.466666666666667" fill-rule="evenodd" stroke-opacity="0" stroke="#000000" stroke-width="0" stroke-linecap="square" stroke-linejoin="bevel" d="M0 2.62514L9.10363 0L12.3493 0.0318198L20.8102 2.52968Z" sodipodi:nodetypes="ccccc"/>
  <path id="shape2" transform="translate(10.7551025943607, 0)" fill="none" stroke="#4c4c4c" stroke-width="1.44" stroke-linecap="square" stroke-linejoin="miter" stroke-miterlimit="2" d="M0 0L0 3.18198" sodipodi:nodetypes="cc"/>
 </g><g id="group01" transform="matrix(1.00000000189017 0 0 1.00000000189017 10.8559670412491 71.1854940879598)" fill="none">
  <path id="shape06" transform="translate(0, 3.26420419923325)" fill="#87cd75" fill-rule="evenodd" stroke-opacity="0" stroke="#000000" stroke-width="0" stroke-linecap="square" stroke-linejoin="bevel" d="M9.99142 0.0768723L8.90955 1.76332L8.97319 3.44977L0 8.11837L9.03683 6.56379L8.97319 9.93205L0.0636439 14.1412L8.97319 12.3503L9.54594 13.5594L12.0915 13.473L12.7916 12.523L21.2875 14.1094L12.7916 10.0184L12.7916 6.73652L21.2238 8.1591L12.7916 3.45463L12.7916 1.72731L11.4551 0Z" sodipodi:nodetypes="ccccccccccccccccccc"/>
  <path id="shape11" transform="translate(0.28638256006036, 8.71862514931301)" fill="#87cd75" fill-opacity="0.466666666666667" fill-rule="evenodd" stroke-opacity="0" stroke="#000000" stroke-width="0" stroke-linecap="square" stroke-linejoin="bevel" d="M0 2.70468L9.10046 0L12.3461 0.0318198L20.3965 2.70468Z" sodipodi:nodetypes="ccccc"/>
  <path id="shape07" transform="matrix(0.999999968701158 0 0 0.999999968701158 0.286387365711903 14.7484753765606)" fill="#87cd75" fill-opacity="0.466666666666667" fill-rule="evenodd" stroke-opacity="0" stroke="#000000" stroke-width="0" stroke-linecap="square" stroke-linejoin="bevel" d="M0 2.62514L9.10363 0L12.3493 0.0318198L20.8102 2.52968Z" sodipodi:nodetypes="ccccc"/>
  <path id="shape21" transform="translate(10.7551025943607, 0)" fill="none" stroke="#4c4c4c" stroke-width="1.44" stroke-linecap="square" stroke-linejoin="miter" stroke-miterlimit="2" d="M0 0L0 3.18198" sodipodi:nodetypes="cc"/>
 </g>
</svg>
