<?xml version="1.0" standalone="no"?>
<!DOCTYPE svg PUBLIC "-//W3C//DTD SVG 20010904//EN" "http://www.w3.org/TR/2001/REC-SVG-20010904/DTD/svg10.dtd">
<!-- Created using Krita: https://krita.org -->
<svg xmlns="http://www.w3.org/2000/svg" 
    xmlns:xlink="http://www.w3.org/1999/xlink"
    xmlns:krita="http://krita.org/namespaces/svg/krita"
    xmlns:sodipodi="http://sodipodi.sourceforge.net/DTD/sodipodi-0.dtd"
    width="90pt"
    height="214.56pt"
    viewBox="0 0 90 214.56">
<defs/>
<path id="shape4" transform="matrix(0.999999991117817 0 0 0.999999991117817 -36.9444890255377 213.482060219434)" fill="none" stroke="#3b2300" stroke-width="2.16" stroke-linecap="square" stroke-linejoin="miter" stroke-miterlimit="2" d="M0 0L160.92 0.18" sodipodi:nodetypes="cc"/><path id="shape5" transform="matrix(0.999999991117817 0 0 0.999999991117817 -36.7874835894903 211.845973657661)" fill="none" stroke="#297f00" stroke-width="1.44" stroke-linecap="square" stroke-linejoin="miter" stroke-miterlimit="2" d="M0 0L161.135 0.127279" sodipodi:nodetypes="cc"/><path id="shape0" transform="translate(28.2991306306495, 59.6135903890132)" fill="none" stroke="#000000" stroke-width="1.44" stroke-linecap="square" stroke-linejoin="miter" stroke-miterlimit="2" d="M10.4369 0L0 151.208" sodipodi:nodetypes="cc"/><path id="shape1" transform="translate(46.4399986725615, 59.6135905444781)" fill="none" stroke="#000000" stroke-width="1.44" stroke-linecap="square" stroke-linejoin="miter" stroke-miterlimit="2" d="M0 0L12.6607 151.208" sodipodi:nodetypes="cc"/><path id="shape2" transform="translate(38.6087498515807, 16.8477715920861)" fill="none" stroke="#000000" stroke-width="1.44" stroke-linecap="square" stroke-linejoin="miter" stroke-miterlimit="2" d="M0 42.8931L0 0" sodipodi:nodetypes="cc"/><path id="shape3" transform="translate(46.4399986725615, 16.7204923656833)" fill="none" stroke="#000000" stroke-width="1.44" stroke-linecap="square" stroke-linejoin="miter" stroke-miterlimit="2" d="M0 42.7658L0 0" sodipodi:nodetypes="cc"/><path id="shape4" transform="translate(43.8271981340963, 2.46521900856744)" fill="none" stroke="#000000" stroke-width="1.44" stroke-linecap="square" stroke-linejoin="miter" stroke-miterlimit="2" d="M2.6128 14.2553L0 0" sodipodi:nodetypes="cc"/><path id="shape5" transform="translate(41.5361720588455, 2.33793978216463)" fill="none" stroke="#000000" stroke-width="1.44" stroke-linecap="square" stroke-linejoin="miter" stroke-miterlimit="2" d="M2.29103 0.127279L0 0" sodipodi:nodetypes="cc"/><path id="shape6" transform="translate(38.4814656165864, 2.52885843378737)" fill="none" stroke="#000000" stroke-width="1.44" stroke-linecap="square" stroke-linejoin="miter" stroke-miterlimit="2" d="M0 14.3826L2.92742 0" sodipodi:nodetypes="cc"/><path id="shape7" transform="translate(4.75247020815688, 54.0133011865486)" fill="none" stroke="#000000" stroke-width="1.44" stroke-linecap="square" stroke-linejoin="miter" stroke-miterlimit="2" d="M33.8563 0L0 0" sodipodi:nodetypes="cc"/><path id="shape8" transform="translate(4.75247020815688, 47.6493403865874)" fill="none" stroke="#000000" stroke-width="1.44" stroke-linecap="square" stroke-linejoin="miter" stroke-miterlimit="2" d="M0 6.36396L33.8563 0" sodipodi:nodetypes="cc"/><path id="shape9" transform="translate(48.9183581598874, 83.7966377303669)" fill="none" stroke="#000000" stroke-width="1.44" stroke-linecap="square" stroke-linejoin="miter" stroke-miterlimit="2" d="M0 0L34.3654 0" sodipodi:nodetypes="cc"/><path id="shape10" transform="translate(48.154682863892, 75.6507679064166)" fill="none" stroke="#000000" stroke-width="1.44" stroke-linecap="square" stroke-linejoin="miter" stroke-miterlimit="2" d="M35.1291 8.14587L0 0" sodipodi:nodetypes="cc"/><path id="shape11" transform="translate(46.4399986725615, 23.466289346735)" fill="none" stroke="#000000" stroke-width="1.44" stroke-linecap="square" stroke-linejoin="miter" stroke-miterlimit="2" d="M35.3164 0.127279L0 0" sodipodi:nodetypes="cc"/><path id="shape12" transform="translate(46.4399986725615, 16.8477701147754)" fill="none" stroke="#000000" stroke-width="1.44" stroke-linecap="square" stroke-linejoin="miter" stroke-miterlimit="2" d="M35.3164 6.7458L0 0" sodipodi:nodetypes="cc"/><path id="shape13" transform="translate(29.3173653494286, 193.765894200533)" fill="none" stroke="#000000" stroke-width="0.72" stroke-linecap="square" stroke-linejoin="miter" stroke-miterlimit="2" d="M0 0.254558L28.6378 0" sodipodi:nodetypes="cc"/><path id="shape14" transform="translate(31.3538329500307, 164.491672441879)" fill="none" stroke="#000000" stroke-width="0.72" stroke-linecap="square" stroke-linejoin="miter" stroke-miterlimit="2" d="M0 0L24.1831 0.127279" sodipodi:nodetypes="cc"/><path id="shape15" transform="translate(33.2630165782661, 135.72656072683)" fill="none" stroke="#000000" stroke-width="0.72" stroke-linecap="square" stroke-linejoin="miter" stroke-miterlimit="2" d="M0 0L19.601 0.127279" sodipodi:nodetypes="cc"/><path id="shape16" transform="translate(36.4449954928336, 83.5420797315885)" fill="none" stroke="#000000" stroke-width="0.72" stroke-linecap="square" stroke-linejoin="miter" stroke-miterlimit="2" d="M0 0L12.2188 0" sodipodi:nodetypes="cc"/><path id="shape17" transform="translate(37.5905084426809, 75.5234890826572)" fill="none" stroke="#000000" stroke-width="0.72" stroke-linecap="square" stroke-linejoin="miter" stroke-miterlimit="2" d="M10.3096 0L0 0" sodipodi:nodetypes="cc"/><path id="shape18" transform="translate(38.6087490331396, 48.0311816583161)" fill="none" stroke="#000000" stroke-width="0.72" stroke-linecap="square" stroke-linejoin="miter" stroke-miterlimit="2" d="M0 0L7.83125 0" sodipodi:nodetypes="cc"/><path id="shape19" transform="translate(38.226911357051, 54.0133052503709)" fill="none" stroke="#000000" stroke-width="0.72" stroke-linecap="square" stroke-linejoin="miter" stroke-miterlimit="2" d="M0 0L8.21309 0" sodipodi:nodetypes="cc"/><path id="shape20" transform="translate(38.2269097767646, 16.4659334881462)" fill="none" stroke="#000000" stroke-width="0.72" stroke-linecap="square" stroke-linejoin="miter" stroke-miterlimit="2" d="M8.21309 0L0 0" sodipodi:nodetypes="cc"/><path id="shape21" transform="translate(38.6100025382834, 22.9841223771886)" fill="none" stroke="#000000" stroke-width="0.72" stroke-linecap="square" stroke-linejoin="miter" stroke-miterlimit="2" d="M7.83 0L0 0" sodipodi:nodetypes="cc"/><path id="shape22" transform="translate(30.2399993076705, 180.394122699405)" fill="none" stroke="#000000" stroke-width="0.72" stroke-linecap="square" stroke-linejoin="miter" stroke-miterlimit="2" d="M28.62 30.42L0 0" sodipodi:nodetypes="cc"/><path id="shape23" transform="translate(30.2399993076705, 150.694122493929)" fill="none" stroke="#000000" stroke-width="0.72" stroke-linecap="square" stroke-linejoin="miter" stroke-miterlimit="2" d="M0 29.7L23.76 0" sodipodi:nodetypes="cc"/><path id="shape24" transform="translate(34.0199993338221, 123.334122304641)" fill="none" stroke="#000000" stroke-width="0.72" stroke-linecap="square" stroke-linejoin="miter" stroke-miterlimit="2" d="M19.98 27.36L0 0" sodipodi:nodetypes="cc"/><path id="shape25" transform="translate(34.0199993338221, 112.444127281915)" fill="none" stroke="#000000" stroke-width="0.72" stroke-linecap="square" stroke-linejoin="miter" stroke-miterlimit="2" d="M0 10.89L16.56 0" sodipodi:nodetypes="cc"/><path id="shape26" transform="translate(35.2799993425393, 101.734122155204)" fill="none" stroke="#000000" stroke-width="0.72" stroke-linecap="square" stroke-linejoin="miter" stroke-miterlimit="2" d="M15.75 10.53L0 0" sodipodi:nodetypes="cc"/><path id="shape27" transform="translate(35.2799993425392, 92.0141220879572)" fill="none" stroke="#000000" stroke-width="0.72" stroke-linecap="square" stroke-linejoin="miter" stroke-miterlimit="2" d="M0 9.72L13.68 0" sodipodi:nodetypes="cc"/><path id="shape28" transform="translate(37.0799993549924, 83.0141220256916)" fill="none" stroke="#000000" stroke-width="0.72" stroke-linecap="square" stroke-linejoin="miter" stroke-miterlimit="2" d="M11.88 9L0 0" sodipodi:nodetypes="cc"/><path id="shape29" transform="translate(27.8999992914814, 179.854122695669)" fill="none" stroke="#000000" stroke-width="0.72" stroke-linecap="square" stroke-linejoin="miter" stroke-miterlimit="2" d="M0 31.86L28.62 0" sodipodi:nodetypes="cc"/><path id="shape30" transform="translate(32.3999993226143, 151.41412249891)" fill="none" stroke="#000000" stroke-width="0.72" stroke-linecap="square" stroke-linejoin="miter" stroke-miterlimit="2" d="M23.76 28.44L0 0" sodipodi:nodetypes="cc"/><path id="shape31" transform="translate(32.3999993226143, 123.964127873677)" fill="none" stroke="#000000" stroke-width="0.72" stroke-linecap="square" stroke-linejoin="miter" stroke-miterlimit="2" d="M0 27.45L19.35 0" sodipodi:nodetypes="cc"/><path id="shape32" transform="translate(34.3799993363127, 112.174122227432)" fill="none" stroke="#000000" stroke-width="0.72" stroke-linecap="square" stroke-linejoin="miter" stroke-miterlimit="2" d="M17.55 11.43L0 0" sodipodi:nodetypes="cc"/><path id="shape33" transform="translate(34.3799993363127, 102.094122157695)" fill="none" stroke="#000000" stroke-width="0.72" stroke-linecap="square" stroke-linejoin="miter" stroke-miterlimit="2" d="M0 10.08L15.3 0" sodipodi:nodetypes="cc"/><path id="shape34" transform="translate(36.1799993487658, 92.5541220916931)" fill="none" stroke="#000000" stroke-width="0.72" stroke-linecap="square" stroke-linejoin="miter" stroke-miterlimit="2" d="M13.5 9.54L0 0" sodipodi:nodetypes="cc"/><path id="shape35" transform="translate(36.1799993487658, 83.9141220319182)" fill="none" stroke="#000000" stroke-width="0.72" stroke-linecap="square" stroke-linejoin="miter" stroke-miterlimit="2" d="M0 8.64L12.24 0" sodipodi:nodetypes="cc"/><path id="shape36" transform="translate(48.4092499480958, 77.4326831191359)" fill="none" stroke="#000000" stroke-width="0.72" stroke-linecap="square" stroke-linejoin="miter" stroke-miterlimit="2" d="M0 6.1094L9.03683 0" sodipodi:nodetypes="cc"/><path id="shape37" transform="translate(57.4460749950437, 77.4326831191359)" fill="none" stroke="#000000" stroke-width="0.72" stroke-linecap="square" stroke-linejoin="miter" stroke-miterlimit="2" d="M0 0L6.87308 6.49124" sodipodi:nodetypes="cc"/><path id="shape38" transform="translate(64.3191531997645, 80.8692222214964)" fill="none" stroke="#000000" stroke-width="0.72" stroke-linecap="square" stroke-linejoin="miter" stroke-miterlimit="2" d="M0 3.0547L7.12764 0" sodipodi:nodetypes="cc"/><path id="shape39" transform="translate(30.4628790802135, 48.7948572661322)" fill="none" stroke="#000000" stroke-width="0.72" stroke-linecap="square" stroke-linejoin="miter" stroke-miterlimit="2" d="M7.76403 5.47301L0 0" sodipodi:nodetypes="cc"/><path id="shape40" transform="translate(22.6988462933991, 48.7948572661322)" fill="none" stroke="#000000" stroke-width="0.72" stroke-linecap="square" stroke-linejoin="miter" stroke-miterlimit="2" d="M7.76403 0L0 5.21845" sodipodi:nodetypes="cc"/><path id="shape41" transform="translate(16.3348849927317, 51.4677210124125)" fill="none" stroke="#000000" stroke-width="0.72" stroke-linecap="square" stroke-linejoin="miter" stroke-miterlimit="2" d="M6.36396 2.54558L0 0" sodipodi:nodetypes="cc"/><path id="shape42" transform="translate(46.4399986725615, 18.3751219385281)" fill="none" stroke="#000000" stroke-width="0.72" stroke-linecap="square" stroke-linejoin="miter" stroke-miterlimit="2" d="M0 4.83661L10.1151 0" sodipodi:nodetypes="cc"/><path id="shape43" transform="translate(56.5551185424071, 18.3751219385281)" fill="none" stroke="#000000" stroke-width="0.72" stroke-linecap="square" stroke-linejoin="miter" stroke-miterlimit="2" d="M0 0L6.7458 4.70933" sodipodi:nodetypes="cc"/><path id="shape44" transform="translate(63.300917414284, 21.1752648664771)" fill="none" stroke="#000000" stroke-width="0.72" stroke-linecap="square" stroke-linejoin="miter" stroke-miterlimit="2" d="M0 1.90919L7.12764 0" sodipodi:nodetypes="cc"/><path id="shape45" transform="translate(51.082113982213, 202.166325131951)" fill="none" stroke="#000000" stroke-width="0.72" stroke-linecap="square" stroke-linejoin="miter" stroke-miterlimit="2" d="M7.50947 0L0 0" sodipodi:nodetypes="cc"/><path id="shape46" transform="translate(51.082113982213, 193.893175419943)" fill="none" stroke="#000000" stroke-width="0.72" stroke-linecap="square" stroke-linejoin="miter" stroke-miterlimit="2" d="M0 8.27315L6.7458 0" sodipodi:nodetypes="cc"/><path id="shape47" transform="translate(50.1911593978429, 186.765538744982)" fill="none" stroke="#000000" stroke-width="0.72" stroke-linecap="square" stroke-linejoin="miter" stroke-miterlimit="2" d="M7.63675 7.12764L0 0" sodipodi:nodetypes="cc"/><path id="shape48" transform="translate(50.1911593978429, 186.765538744982)" fill="none" stroke="#000000" stroke-width="0.72" stroke-linecap="square" stroke-linejoin="miter" stroke-miterlimit="2" d="M0 0L6.87308 0" sodipodi:nodetypes="cc"/><path id="shape49" transform="translate(28.6809701466213, 201.784487452936)" fill="none" stroke="#000000" stroke-width="0.72" stroke-linecap="square" stroke-linejoin="miter" stroke-miterlimit="2" d="M0 0L7.25492 0.127279" sodipodi:nodetypes="cc"/><path id="shape50" transform="translate(29.8264831836686, 194.020454646282)" fill="none" stroke="#000000" stroke-width="0.72" stroke-linecap="square" stroke-linejoin="miter" stroke-miterlimit="2" d="M6.1094 7.89131L0 0" sodipodi:nodetypes="cc"/><path id="shape51" transform="translate(29.8264831836686, 187.020097197659)" fill="none" stroke="#000000" stroke-width="0.72" stroke-linecap="square" stroke-linejoin="miter" stroke-miterlimit="2" d="M0 7.00036L6.87308 0" sodipodi:nodetypes="cc"/><path id="shape52" transform="translate(29.8264831836686, 186.892817971321)" fill="none" stroke="#000000" stroke-width="0.72" stroke-linecap="square" stroke-linejoin="miter" stroke-miterlimit="2" d="M6.87308 0.127279L0 0" sodipodi:nodetypes="cc"/><path id="shape53" transform="translate(30.7174377680387, 171.746590037029)" fill="none" stroke="#000000" stroke-width="0.72" stroke-linecap="square" stroke-linejoin="miter" stroke-miterlimit="2" d="M0 0L6.1094 0" sodipodi:nodetypes="cc"/><path id="shape54" transform="translate(31.2265546733931, 164.36439490939)" fill="none" stroke="#000000" stroke-width="0.72" stroke-linecap="square" stroke-linejoin="miter" stroke-miterlimit="2" d="M5.60029 7.3822L0 0" sodipodi:nodetypes="cc"/><path id="shape55" transform="translate(31.2265546733931, 157.745875139784)" fill="none" stroke="#000000" stroke-width="0.72" stroke-linecap="square" stroke-linejoin="miter" stroke-miterlimit="2" d="M0 6.61852L6.61852 0" sodipodi:nodetypes="cc"/><path id="shape56" transform="translate(31.9902300314246, 157.745875139784)" fill="none" stroke="#000000" stroke-width="0.72" stroke-linecap="square" stroke-linejoin="miter" stroke-miterlimit="2" d="M5.85484 0L0 0" sodipodi:nodetypes="cc"/><path id="shape57" transform="translate(33.0084591075488, 143.10875688471)" fill="none" stroke="#000000" stroke-width="0.72" stroke-linecap="square" stroke-linejoin="miter" stroke-miterlimit="2" d="M0 0.127279L4.83661 0" sodipodi:nodetypes="cc"/><path id="shape58" transform="translate(33.6448552073805, 136.108399786562)" fill="none" stroke="#000000" stroke-width="0.72" stroke-linecap="square" stroke-linejoin="miter" stroke-miterlimit="2" d="M4.20021 7.00036L0 0" sodipodi:nodetypes="cc"/><path id="shape59" transform="translate(48.281965503509, 135.981120566595)" fill="none" stroke="#000000" stroke-width="0.72" stroke-linecap="square" stroke-linejoin="miter" stroke-miterlimit="2" d="M4.20021 0L0 6.87308" sodipodi:nodetypes="cc"/><path id="shape60" transform="translate(48.2819655035091, 142.854198444777)" fill="none" stroke="#000000" stroke-width="0.72" stroke-linecap="square" stroke-linejoin="miter" stroke-miterlimit="2" d="M0 0L5.21845 0" sodipodi:nodetypes="cc"/><path id="shape61" transform="translate(48.2399999933512, 158.254123361279)" fill="none" stroke="#000000" stroke-width="0.72" stroke-linecap="square" stroke-linejoin="miter" stroke-miterlimit="2" d="M6.75 0L0 0" sodipodi:nodetypes="cc"/><path id="shape62" transform="translate(48.2399999933512, 158.254123361278)" fill="none" stroke="#000000" stroke-width="0.72" stroke-linecap="square" stroke-linejoin="miter" stroke-miterlimit="2" d="M0 0L7.11 6.39" sodipodi:nodetypes="cc"/><path id="shape63" transform="translate(49.8600000128382, 164.644123438144)" fill="none" stroke="#000000" stroke-width="0.72" stroke-linecap="square" stroke-linejoin="miter" stroke-miterlimit="2" d="M5.49 0L0 7.38" sodipodi:nodetypes="cc"/><path id="shape64" transform="translate(49.8600000128382, 171.934123525836)" fill="none" stroke="#000000" stroke-width="0.72" stroke-linecap="square" stroke-linejoin="miter" stroke-miterlimit="2" d="M0 0.09L5.94 0" sodipodi:nodetypes="cc"/><path id="shape65" transform="translate(37.2086702381159, 75.2689302198164)" fill="none" stroke="#000000" stroke-width="0.72" stroke-linecap="square" stroke-linejoin="miter" stroke-miterlimit="2" d="M0 8.27315L10.946 0" sodipodi:nodetypes="cc"/><path id="shape66" transform="translate(38.3541831815309, 67.1230603999768)" fill="none" stroke="#000000" stroke-width="0.72" stroke-linecap="square" stroke-linejoin="miter" stroke-miterlimit="2" d="M9.8005 8.14587L0 0" sodipodi:nodetypes="cc"/><path id="shape67" transform="translate(38.3541831815309, 59.7408658757472)" fill="none" stroke="#000000" stroke-width="0.72" stroke-linecap="square" stroke-linejoin="miter" stroke-miterlimit="2" d="M0 7.38219L8.08582 0" sodipodi:nodetypes="cc"/><path id="shape68" transform="translate(38.7360208293359, 54.0133011586726)" fill="none" stroke="#000000" stroke-width="0.72" stroke-linecap="square" stroke-linejoin="miter" stroke-miterlimit="2" d="M7.70398 5.72756L0 0" sodipodi:nodetypes="cc"/><path id="shape69" transform="translate(38.7360208293359, 48.0311780097279)" fill="none" stroke="#000000" stroke-width="0.72" stroke-linecap="square" stroke-linejoin="miter" stroke-miterlimit="2" d="M0 5.98212L7.70398 0" sodipodi:nodetypes="cc"/><path id="shape70" transform="translate(39.1178584771408, 42.8127301563932)" fill="none" stroke="#000000" stroke-width="0.72" stroke-linecap="square" stroke-linejoin="miter" stroke-miterlimit="2" d="M7.32214 5.21845L0 0" sodipodi:nodetypes="cc"/><path id="shape71" transform="translate(39.1178584771408, 36.4487693596435)" fill="none" stroke="#000000" stroke-width="0.72" stroke-linecap="square" stroke-linejoin="miter" stroke-miterlimit="2" d="M0 6.36396L7.32214 0" sodipodi:nodetypes="cc"/><path id="shape72" transform="translate(38.4814623974659, 29.7029709150889)" fill="none" stroke="#000000" stroke-width="0.72" stroke-linecap="square" stroke-linejoin="miter" stroke-miterlimit="2" d="M7.95854 6.7458L0 0" sodipodi:nodetypes="cc"/><path id="shape73" transform="translate(38.4814623974659, 22.9571724705343)" fill="none" stroke="#000000" stroke-width="0.72" stroke-linecap="square" stroke-linejoin="miter" stroke-miterlimit="2" d="M0 6.7458L7.95854 0" sodipodi:nodetypes="cc"/><path id="shape74" transform="translate(38.608748470662, 16.2113752196833)" fill="none" stroke="#000000" stroke-width="0.72" stroke-linecap="square" stroke-linejoin="miter" stroke-miterlimit="2" d="M7.83125 7.12764L0 0" sodipodi:nodetypes="cc"/><path id="shape75" transform="translate(38.6087484706619, 9.59285553797911)" fill="none" stroke="#000000" stroke-width="0.72" stroke-linecap="square" stroke-linejoin="miter" stroke-miterlimit="2" d="M0 6.61852L6.36396 0" sodipodi:nodetypes="cc"/><path id="shape76" transform="translate(40.6452160650325, 5.01080345064542)" fill="none" stroke="#000000" stroke-width="0.72" stroke-linecap="square" stroke-linejoin="miter" stroke-miterlimit="2" d="M4.32749 4.58205L0 0" sodipodi:nodetypes="cc"/><path id="shape77" transform="translate(37.3359512729393, 75.5234900632561)" fill="none" stroke="#000000" stroke-width="0.72" stroke-linecap="square" stroke-linejoin="miter" stroke-miterlimit="2" d="M11.0733 8.27315L0 0" sodipodi:nodetypes="cc"/><path id="shape78" transform="translate(37.3359512729393, 67.3776200935982)" fill="none" stroke="#000000" stroke-width="0.72" stroke-linecap="square" stroke-linejoin="miter" stroke-miterlimit="2" d="M0 8.14587L9.10405 0" sodipodi:nodetypes="cc"/><path id="shape79" transform="translate(38.7360226739742, 60.1227046518716)" fill="none" stroke="#000000" stroke-width="0.72" stroke-linecap="square" stroke-linejoin="miter" stroke-miterlimit="2" d="M7.70398 7.25492L0 0" sodipodi:nodetypes="cc"/><path id="shape80" transform="translate(38.6087434556983, 54.1405813929041)" fill="none" stroke="#000000" stroke-width="0.72" stroke-linecap="square" stroke-linejoin="miter" stroke-miterlimit="2" d="M0 5.85484L7.83126 0" sodipodi:nodetypes="cc"/><path id="shape81" transform="translate(38.8633018922501, 47.9038996973848)" fill="none" stroke="#000000" stroke-width="0.72" stroke-linecap="square" stroke-linejoin="miter" stroke-miterlimit="2" d="M7.5767 6.23668L0 0" sodipodi:nodetypes="cc"/><path id="shape82" transform="translate(38.8633018922501, 42.6854517480727)" fill="none" stroke="#000000" stroke-width="0.72" stroke-linecap="square" stroke-linejoin="miter" stroke-miterlimit="2" d="M0 5.21845L7.5767 0" sodipodi:nodetypes="cc"/><path id="shape83" transform="translate(38.4814642374224, 35.9396531794498)" fill="none" stroke="#000000" stroke-width="0.72" stroke-linecap="square" stroke-linejoin="miter" stroke-miterlimit="2" d="M7.95853 6.7458L0 0" sodipodi:nodetypes="cc"/><path id="shape84" transform="translate(38.4814642374224, 29.4484130473787)" fill="none" stroke="#000000" stroke-width="0.72" stroke-linecap="square" stroke-linejoin="miter" stroke-miterlimit="2" d="M0 6.49124L7.95853 0" sodipodi:nodetypes="cc"/><path id="shape85" transform="translate(38.7360226739742, 22.9571729153075)" fill="none" stroke="#000000" stroke-width="0.72" stroke-linecap="square" stroke-linejoin="miter" stroke-miterlimit="2" d="M7.70398 6.49124L0 0" sodipodi:nodetypes="cc"/><path id="shape86" transform="translate(38.7360226739742, 16.4659327832364)" fill="none" stroke="#000000" stroke-width="0.72" stroke-linecap="square" stroke-linejoin="miter" stroke-miterlimit="2" d="M0 6.49124L7.70398 0" sodipodi:nodetypes="cc"/><path id="shape87" transform="translate(39.8815356384574, 10.6110887425448)" fill="none" stroke="#000000" stroke-width="0.72" stroke-linecap="square" stroke-linejoin="miter" stroke-miterlimit="2" d="M6.55846 5.85484L0 0" sodipodi:nodetypes="cc"/><path id="shape88" transform="translate(39.8815356384574, 6.02903688461223)" fill="none" stroke="#000000" stroke-width="0.72" stroke-linecap="square" stroke-linejoin="miter" stroke-miterlimit="2" d="M0 4.58205L4.45477 0" sodipodi:nodetypes="cc"/><path id="shape0" transform="matrix(0.999999887013104 0 0 0.999999887013104 80.6453956089526 24.7215977724028)" fill="none" stroke="#737373" stroke-width="2.16" stroke-linecap="square" stroke-linejoin="miter" stroke-miterlimit="2" d="M0 0L0 16.3554" sodipodi:nodetypes="cc"/><circle id="shape01" transform="matrix(1.54510012101047 0 0 1.46487234280205 77.4062357230228 41.8507013810261)" r="0.719999999999999" cx="0.719999999999999" cy="0.719999999999999" fill="#d00000" fill-rule="evenodd" stroke-opacity="0" stroke="#000000" stroke-width="0" stroke-linecap="square" stroke-linejoin="bevel"/><circle id="shape011" transform="matrix(1.43710237515308 0 0 1.46346163044658 81.7268082607331 41.7852328072632)" r="0.719999999999999" cx="0.719999999999999" cy="0.719999999999999" fill="#d00000" fill-rule="evenodd" stroke-opacity="0" stroke="#000000" stroke-width="0" stroke-linecap="square" stroke-linejoin="bevel"/><path id="shape01" transform="matrix(0.999999863146371 0 0 0.999999863146371 6.50105430582201 55.9453610576627)" fill="none" stroke="#737373" stroke-width="2.16" stroke-linecap="square" stroke-linejoin="miter" stroke-miterlimit="2" d="M0 0L0 16.3554" sodipodi:nodetypes="cc"/><circle id="shape011" transform="matrix(1.54510008413397 0 0 1.46487230784033 3.26189449720018 73.0744642574702)" r="0.719999999999999" cx="0.719999999999999" cy="0.719999999999999" fill="#d00000" fill-rule="evenodd" stroke-opacity="0" stroke="#000000" stroke-width="0" stroke-linecap="square" stroke-linejoin="bevel"/><circle id="shape0111" transform="matrix(1.43710234085414 0 0 1.46346159551853 7.58246693179323 73.0089956852697)" r="0.719999999999999" cx="0.719999999999999" cy="0.719999999999999" fill="#d00000" fill-rule="evenodd" stroke-opacity="0" stroke="#000000" stroke-width="0" stroke-linecap="square" stroke-linejoin="bevel"/><path id="shape02" transform="matrix(0.999999863146371 0 0 0.999999863146371 82.1049103480947 85.3468606296577)" fill="none" stroke="#737373" stroke-width="2.16" stroke-linecap="square" stroke-linejoin="miter" stroke-miterlimit="2" d="M0 0L0 16.3554" sodipodi:nodetypes="cc"/><circle id="shape012" transform="matrix(1.54510008413397 0 0 1.46487230784033 78.8657505394729 102.475963829465)" r="0.719999999999999" cx="0.719999999999999" cy="0.719999999999999" fill="#d00000" fill-rule="evenodd" stroke-opacity="0" stroke="#000000" stroke-width="0" stroke-linecap="square" stroke-linejoin="bevel"/><circle id="shape0112" transform="matrix(1.43710234085414 0 0 1.46346159551853 83.186322974066 102.410495257265)" r="0.719999999999999" cx="0.719999999999999" cy="0.719999999999999" fill="#d00000" fill-rule="evenodd" stroke-opacity="0" stroke="#000000" stroke-width="0" stroke-linecap="square" stroke-linejoin="bevel"/>
</svg>
