<?xml version="1.0" standalone="no"?>
<!DOCTYPE svg PUBLIC "-//W3C//DTD SVG 20010904//EN" "http://www.w3.org/TR/2001/REC-SVG-20010904/DTD/svg10.dtd">
<!-- Created using Krita: https://krita.org -->
<svg xmlns="http://www.w3.org/2000/svg" 
    xmlns:xlink="http://www.w3.org/1999/xlink"
    xmlns:krita="http://krita.org/namespaces/svg/krita"
    xmlns:sodipodi="http://sodipodi.sourceforge.net/DTD/sodipodi-0.dtd"
    width="90.72pt"
    height="211.68pt"
    viewBox="0 0 90.72 211.68">
<defs/>
<path id="shape0" transform="translate(32.2200011645502, 79.0200028560757)" fill="none" stroke="#000000" stroke-width="1.44" stroke-linecap="square" stroke-linejoin="miter" stroke-miterlimit="2" d="M0 132.66L5.76 0" sodipodi:nodetypes="cc"/><path id="shape1" transform="translate(10.8000003903521, 79.0200028560757)" fill="none" stroke="#000000" stroke-width="1.44" stroke-linecap="square" stroke-linejoin="miter" stroke-miterlimit="2" d="M27.18 0L0 0.18" sodipodi:nodetypes="cc"/><path id="shape2" transform="translate(10.8000003903521, 71.1000025698176)" fill="none" stroke="#000000" stroke-width="1.44" stroke-linecap="square" stroke-linejoin="miter" stroke-miterlimit="2" d="M0 8.1L27.54 0" sodipodi:nodetypes="cc"/><path id="shape3" transform="translate(38.1600013792439, 52.3800018932074)" fill="none" stroke="#000000" stroke-width="1.44" stroke-linecap="square" stroke-linejoin="miter" stroke-miterlimit="2" d="M0.18 18.72L0 0" sodipodi:nodetypes="cc"/><path id="shape4" transform="translate(5.76000020818776, 52.2000018867015)" fill="none" stroke="#000000" stroke-width="1.44" stroke-linecap="square" stroke-linejoin="miter" stroke-miterlimit="2" d="M32.4 0.18L0 0" sodipodi:nodetypes="cc"/><path id="shape5" transform="translate(5.76000020818776, 44.1000015939375)" fill="none" stroke="#000000" stroke-width="1.44" stroke-linecap="square" stroke-linejoin="miter" stroke-miterlimit="2" d="M0 8.1L32.4 0" sodipodi:nodetypes="cc"/><path id="shape6" transform="translate(38.1600013792439, 25.2000009108214)" fill="none" stroke="#000000" stroke-width="1.44" stroke-linecap="square" stroke-linejoin="miter" stroke-miterlimit="2" d="M0 18.9L0 0" sodipodi:nodetypes="cc"/><path id="shape7" transform="translate(10.8000003903521, 25.2000009108214)" fill="none" stroke="#000000" stroke-width="1.44" stroke-linecap="square" stroke-linejoin="miter" stroke-miterlimit="2" d="M27.36 0L0 0.18" sodipodi:nodetypes="cc"/><path id="shape8" transform="translate(10.8000003903521, 19.2600006961278)" fill="none" stroke="#000000" stroke-width="1.44" stroke-linecap="square" stroke-linejoin="miter" stroke-miterlimit="2" d="M0 6.12L15.48 0" sodipodi:nodetypes="cc"/><path id="shape9" transform="translate(5.40000019517603, 8.46000030577576)" fill="none" stroke="#000000" stroke-width="1.44" stroke-linecap="square" stroke-linejoin="miter" stroke-miterlimit="2" d="M20.88 10.8L0 0" sodipodi:nodetypes="cc"/><path id="shape10" transform="translate(5.40000019517603, 8.46000030577576)" fill="none" stroke="#000000" stroke-width="1.44" stroke-linecap="square" stroke-linejoin="miter" stroke-miterlimit="2" d="M0 0L32.58 5.94" sodipodi:nodetypes="cc"/><path id="shape11" transform="translate(37.980001372738, 14.4000005204694)" fill="none" stroke="#000000" stroke-width="1.44" stroke-linecap="square" stroke-linejoin="miter" stroke-miterlimit="2" d="M0 0L10.08 0.18" sodipodi:nodetypes="cc"/><path id="shape12" transform="translate(48.0600017370666, 8.46000030577576)" fill="none" stroke="#000000" stroke-width="1.44" stroke-linecap="square" stroke-linejoin="miter" stroke-miterlimit="2" d="M0 6.12L32.4 0" sodipodi:nodetypes="cc"/><path id="shape13" transform="translate(59.9400021664538, 8.46000030577576)" fill="none" stroke="#000000" stroke-width="1.44" stroke-linecap="square" stroke-linejoin="miter" stroke-miterlimit="2" d="M20.52 0L0 10.62" sodipodi:nodetypes="cc"/><path id="shape14" transform="translate(59.9400021664538, 19.0800006896219)" fill="none" stroke="#000000" stroke-width="1.44" stroke-linecap="square" stroke-linejoin="miter" stroke-miterlimit="2" d="M0 0L15.3 6.48" sodipodi:nodetypes="cc"/><path id="shape15" transform="translate(48.2400017435725, 25.5600009238332)" fill="none" stroke="#000000" stroke-width="1.44" stroke-linecap="square" stroke-linejoin="miter" stroke-miterlimit="2" d="M27 0L0 0" sodipodi:nodetypes="cc"/><path id="shape16" transform="translate(48.2400017435725, 25.5600009238332)" fill="none" stroke="#000000" stroke-width="1.44" stroke-linecap="square" stroke-linejoin="miter" stroke-miterlimit="2" d="M0 0L0 18.54" sodipodi:nodetypes="cc"/><path id="shape17" transform="translate(48.2400017435725, 44.1000015939375)" fill="none" stroke="#000000" stroke-width="1.44" stroke-linecap="square" stroke-linejoin="miter" stroke-miterlimit="2" d="M0 0L31.68 7.92" sodipodi:nodetypes="cc"/><path id="shape18" transform="translate(48.4200017500783, 52.0200018801957)" fill="none" stroke="#000000" stroke-width="1.44" stroke-linecap="square" stroke-linejoin="miter" stroke-miterlimit="2" d="M31.5 0L0 0" sodipodi:nodetypes="cc"/><path id="shape19" transform="translate(48.4200017500783, 52.0200018801957)" fill="none" stroke="#000000" stroke-width="1.44" stroke-linecap="square" stroke-linejoin="miter" stroke-miterlimit="2" d="M0 0L0.18 18.9" sodipodi:nodetypes="cc"/><path id="shape20" transform="translate(48.6000017565842, 70.9200025633117)" fill="none" stroke="#000000" stroke-width="1.44" stroke-linecap="square" stroke-linejoin="miter" stroke-miterlimit="2" d="M0 0L26.1 7.92" sodipodi:nodetypes="cc"/><path id="shape21" transform="translate(48.0600017370666, 78.8400028495699)" fill="none" stroke="#000000" stroke-width="1.44" stroke-linecap="square" stroke-linejoin="miter" stroke-miterlimit="2" d="M26.64 0L0 0" sodipodi:nodetypes="cc"/><path id="shape22" transform="translate(48.0600017370666, 78.8400028495699)" fill="none" stroke="#000000" stroke-width="1.44" stroke-linecap="square" stroke-linejoin="miter" stroke-miterlimit="2" d="M0 0L6.12 133.02" sodipodi:nodetypes="cc"/><path id="shape23" transform="translate(38.0700014732723, 14.7600005711978)" fill="none" stroke="#000000" stroke-width="0.72" stroke-linecap="square" stroke-linejoin="miter" stroke-miterlimit="2" d="M0 0L10.26 10.62" sodipodi:nodetypes="cc"/><path id="shape24" transform="translate(37.9800014697894, 25.3800009821815)" fill="none" stroke="#000000" stroke-width="0.72" stroke-linecap="square" stroke-linejoin="miter" stroke-miterlimit="2" d="M10.35 0L0 9.45" sodipodi:nodetypes="cc"/><path id="shape25" transform="translate(37.9800014697894, 34.8300013478874)" fill="none" stroke="#000000" stroke-width="0.72" stroke-linecap="square" stroke-linejoin="miter" stroke-miterlimit="2" d="M0 0L9.9 9.36" sodipodi:nodetypes="cc"/><path id="shape26" transform="translate(38.2500014802382, 44.1900017101104)" fill="none" stroke="#000000" stroke-width="0.72" stroke-linecap="square" stroke-linejoin="miter" stroke-miterlimit="2" d="M9.63 0L0 8.19" sodipodi:nodetypes="cc"/><path id="shape27" transform="translate(38.2500014802382, 52.3800020270555)" fill="none" stroke="#000000" stroke-width="0.72" stroke-linecap="square" stroke-linejoin="miter" stroke-miterlimit="2" d="M0 0L9.99 9.09" sodipodi:nodetypes="cc"/><path id="shape28" transform="translate(38.2500014802382, 61.4700023788298)" fill="none" stroke="#000000" stroke-width="0.72" stroke-linecap="square" stroke-linejoin="miter" stroke-miterlimit="2" d="M9.99 0L0 9.63" sodipodi:nodetypes="cc"/><path id="shape29" transform="translate(38.1600014767552, 61.7400023892785)" fill="none" stroke="#000000" stroke-width="0.72" stroke-linecap="square" stroke-linejoin="miter" stroke-miterlimit="2" d="M10.08 9.09L0 0" sodipodi:nodetypes="cc"/><path id="shape30" transform="translate(38.1600014767552, 52.2900020235726)" fill="none" stroke="#000000" stroke-width="0.72" stroke-linecap="square" stroke-linejoin="miter" stroke-miterlimit="2" d="M0 9.45L9.9 0" sodipodi:nodetypes="cc"/><path id="shape31" transform="translate(38.1600014767552, 44.1900017101104)" fill="none" stroke="#000000" stroke-width="0.72" stroke-linecap="square" stroke-linejoin="miter" stroke-miterlimit="2" d="M9.9 8.1L0 0" sodipodi:nodetypes="cc"/><path id="shape32" transform="translate(38.1600014767552, 34.4700013339558)" fill="none" stroke="#000000" stroke-width="0.72" stroke-linecap="square" stroke-linejoin="miter" stroke-miterlimit="2" d="M0 9.72L10.08 0" sodipodi:nodetypes="cc"/><path id="shape33" transform="translate(38.3400014837211, 25.6500009926303)" fill="none" stroke="#000000" stroke-width="0.72" stroke-linecap="square" stroke-linejoin="miter" stroke-miterlimit="2" d="M9.9 8.82L0 0" sodipodi:nodetypes="cc"/><path id="shape34" transform="translate(38.3400014837211, 14.7600005711978)" fill="none" stroke="#000000" stroke-width="0.72" stroke-linecap="square" stroke-linejoin="miter" stroke-miterlimit="2" d="M0 10.89L10.08 0" sodipodi:nodetypes="cc"/><path id="shape35" transform="translate(16.0200006199586, 10.350000400535)" fill="none" stroke="#000000" stroke-width="0.72" stroke-linecap="square" stroke-linejoin="miter" stroke-miterlimit="2" d="M0 0L4.77 6.12" sodipodi:nodetypes="cc"/><path id="shape36" transform="translate(20.790000804553, 12.0600004667104)" fill="none" stroke="#000000" stroke-width="0.72" stroke-linecap="square" stroke-linejoin="miter" stroke-miterlimit="2" d="M0 4.41L5.85 0" sodipodi:nodetypes="cc"/><path id="shape37" transform="translate(26.5500010274594, 12.0600004667104)" fill="none" stroke="#000000" stroke-width="0.72" stroke-linecap="square" stroke-linejoin="miter" stroke-miterlimit="2" d="M0.09 0L0 13.14" sodipodi:nodetypes="cc"/><path id="shape38" transform="translate(18.1800007035485, 22.5900008742112)" fill="none" stroke="#000000" stroke-width="0.72" stroke-linecap="square" stroke-linejoin="miter" stroke-miterlimit="2" d="M0 0L1.89 2.7" sodipodi:nodetypes="cc"/><path id="shape39" transform="translate(20.0700007766897, 18.9900007348947)" fill="none" stroke="#000000" stroke-width="0.72" stroke-linecap="square" stroke-linejoin="miter" stroke-miterlimit="2" d="M0 6.3L6.12 0" sodipodi:nodetypes="cc"/><path id="shape40" transform="translate(26.1900010135278, 18.9900007348947)" fill="none" stroke="#000000" stroke-width="0.72" stroke-linecap="square" stroke-linejoin="miter" stroke-miterlimit="2" d="M0 0L11.61 6.12" sodipodi:nodetypes="cc"/><path id="shape41" transform="translate(27.000001044874, 14.1300005468174)" fill="none" stroke="#000000" stroke-width="0.72" stroke-linecap="square" stroke-linejoin="miter" stroke-miterlimit="2" d="M0 4.86L11.25 0" sodipodi:nodetypes="cc"/><path id="shape42" transform="translate(49.1400019016707, 14.9400005781636)" fill="none" stroke="#000000" stroke-width="0.72" stroke-linecap="square" stroke-linejoin="miter" stroke-miterlimit="2" d="M0 0L10.89 4.14" sodipodi:nodetypes="cc"/><path id="shape43" transform="translate(49.0500018981878, 19.0800007383776)" fill="none" stroke="#000000" stroke-width="0.72" stroke-linecap="square" stroke-linejoin="miter" stroke-miterlimit="2" d="M10.98 0L0 6.12" sodipodi:nodetypes="cc"/><path id="shape44" transform="translate(59.7600023126544, 12.6900004910908)" fill="none" stroke="#000000" stroke-width="0.72" stroke-linecap="square" stroke-linejoin="miter" stroke-miterlimit="2" d="M0 0L0 12.42" sodipodi:nodetypes="cc"/><path id="shape45" transform="translate(60.0300023231032, 19.4400007523093)" fill="none" stroke="#000000" stroke-width="0.72" stroke-linecap="square" stroke-linejoin="miter" stroke-miterlimit="2" d="M0 0L6.57 5.67" sodipodi:nodetypes="cc"/><path id="shape46" transform="translate(66.6000025773558, 22.86000088466)" fill="none" stroke="#000000" stroke-width="0.72" stroke-linecap="square" stroke-linejoin="miter" stroke-miterlimit="2" d="M0 2.25L2.52 0" sodipodi:nodetypes="cc"/><path id="shape47" transform="translate(59.6700023091715, 12.7800004945737)" fill="none" stroke="#000000" stroke-width="0.72" stroke-linecap="square" stroke-linejoin="miter" stroke-miterlimit="2" d="M0 0L5.31 3.51" sodipodi:nodetypes="cc"/><path id="shape48" transform="translate(64.9800025146634, 10.8900004214325)" fill="none" stroke="#000000" stroke-width="0.72" stroke-linecap="square" stroke-linejoin="miter" stroke-miterlimit="2" d="M0 5.4L5.22 0" sodipodi:nodetypes="cc"/><path id="shape49" transform="translate(37.8000008642, 14.5800003333343)" fill="none" stroke="#000000" stroke-width="0.72" stroke-linecap="square" stroke-linejoin="miter" stroke-miterlimit="2" d="M0.09 0L0 10.98" sodipodi:nodetypes="cc"/><path id="shape50" transform="translate(48.2400011028838, 14.5800003333343)" fill="none" stroke="#000000" stroke-width="0.72" stroke-linecap="square" stroke-linejoin="miter" stroke-miterlimit="2" d="M0.09 0L0 11.07" sodipodi:nodetypes="cc"/><path id="shape51" transform="translate(38.0700028736347, 44.0100033220032)" fill="none" stroke="#000000" stroke-width="0.72" stroke-linecap="square" stroke-linejoin="miter" stroke-miterlimit="2" d="M0 0L10.08 0.09" sodipodi:nodetypes="cc"/><path id="shape52" transform="translate(38.1600028804281, 52.3800039537952)" fill="none" stroke="#000000" stroke-width="0.72" stroke-linecap="square" stroke-linejoin="miter" stroke-miterlimit="2" d="M0 0L10.62 0" sodipodi:nodetypes="cc"/><path id="shape53" transform="translate(48.2400036412959, 44.4600033559705)" fill="none" stroke="#000000" stroke-width="0.72" stroke-linecap="square" stroke-linejoin="miter" stroke-miterlimit="2" d="M0.09 0L0 8.28" sodipodi:nodetypes="cc"/><path id="shape54" transform="translate(38.2500028872216, 43.9200033152097)" fill="none" stroke="#000000" stroke-width="0.72" stroke-linecap="square" stroke-linejoin="miter" stroke-miterlimit="2" d="M0 0L0.09 8.46" sodipodi:nodetypes="cc"/><path id="shape55" transform="translate(38.0700028736347, 70.830005346455)" fill="none" stroke="#000000" stroke-width="0.72" stroke-linecap="square" stroke-linejoin="miter" stroke-miterlimit="2" d="M0 0.09L10.35 0" sodipodi:nodetypes="cc"/><path id="shape56" transform="translate(48.4200036548828, 70.830005346455)" fill="none" stroke="#000000" stroke-width="0.72" stroke-linecap="square" stroke-linejoin="miter" stroke-miterlimit="2" d="M0 0L0.09 7.83" sodipodi:nodetypes="cc"/><path id="shape57" transform="translate(37.9800028668412, 78.6600059374863)" fill="none" stroke="#000000" stroke-width="0.72" stroke-linecap="square" stroke-linejoin="miter" stroke-miterlimit="2" d="M10.53 0L0 0" sodipodi:nodetypes="cc"/><path id="shape58" transform="translate(37.9800028668412, 71.0100053600419)" fill="none" stroke="#000000" stroke-width="0.72" stroke-linecap="square" stroke-linejoin="miter" stroke-miterlimit="2" d="M0 7.65L0.09 0" sodipodi:nodetypes="cc"/><path id="shape59" transform="translate(48.7800029095468, 71.460004262325)" fill="none" stroke="#000000" stroke-width="0.72" stroke-linecap="square" stroke-linejoin="miter" stroke-miterlimit="2" d="M0 0L6.03 7.83" sodipodi:nodetypes="cc"/><path id="shape60" transform="translate(54.810003269214, 74.7900044609472)" fill="none" stroke="#000000" stroke-width="0.72" stroke-linecap="square" stroke-linejoin="miter" stroke-miterlimit="2" d="M0 4.5L6.21 0" sodipodi:nodetypes="cc"/><path id="shape61" transform="translate(61.0200036396176, 74.7900044609472)" fill="none" stroke="#000000" stroke-width="0.72" stroke-linecap="square" stroke-linejoin="miter" stroke-miterlimit="2" d="M0 0L3.24 3.96" sodipodi:nodetypes="cc"/><path id="shape62" transform="translate(31.2300018627541, 71.1900042462205)" fill="none" stroke="#000000" stroke-width="0.72" stroke-linecap="square" stroke-linejoin="miter" stroke-miterlimit="2" d="M6.84 0L0 8.28" sodipodi:nodetypes="cc"/><path id="shape63" transform="translate(25.6500015299277, 74.700004455579)" fill="none" stroke="#000000" stroke-width="0.72" stroke-linecap="square" stroke-linejoin="miter" stroke-miterlimit="2" d="M5.58 4.77L0 0" sodipodi:nodetypes="cc"/><path id="shape64" transform="translate(22.8600013635146, 74.700004455579)" fill="none" stroke="#000000" stroke-width="0.72" stroke-linecap="square" stroke-linejoin="miter" stroke-miterlimit="2" d="M2.79 0L0 4.32" sodipodi:nodetypes="cc"/><path id="shape65" transform="translate(32.4900019379085, 44.6400026626111)" fill="none" stroke="#000000" stroke-width="0.72" stroke-linecap="square" stroke-linejoin="miter" stroke-miterlimit="2" d="M5.49 0L0 7.92" sodipodi:nodetypes="cc"/><path id="shape66" transform="translate(27.8100016587638, 46.6200027807108)" fill="none" stroke="#000000" stroke-width="0.72" stroke-linecap="square" stroke-linejoin="miter" stroke-miterlimit="2" d="M4.68 5.94L0 0" sodipodi:nodetypes="cc"/><path id="shape67" transform="translate(22.050001315201, 46.6200027807108)" fill="none" stroke="#000000" stroke-width="0.72" stroke-linecap="square" stroke-linejoin="miter" stroke-miterlimit="2" d="M5.76 0L0 5.58" sodipodi:nodetypes="cc"/><path id="shape68" transform="translate(48.1500028719696, 44.2800026411384)" fill="none" stroke="#000000" stroke-width="0.72" stroke-linecap="square" stroke-linejoin="miter" stroke-miterlimit="2" d="M0 0L5.76 8.1" sodipodi:nodetypes="cc"/><path id="shape69" transform="translate(53.9100032155324, 46.8000027914471)" fill="none" stroke="#000000" stroke-width="0.72" stroke-linecap="square" stroke-linejoin="miter" stroke-miterlimit="2" d="M0 5.58L5.13 0" sodipodi:nodetypes="cc"/><path id="shape70" transform="translate(59.0400035215179, 46.8000027914471)" fill="none" stroke="#000000" stroke-width="0.72" stroke-linecap="square" stroke-linejoin="miter" stroke-miterlimit="2" d="M0 0L4.23 5.31" sodipodi:nodetypes="cc"/><path id="shape71" transform="translate(38.0564886793264, 70.89452907821)" fill="none" stroke="#000000" stroke-width="0.72" stroke-linecap="square" stroke-linejoin="miter" stroke-miterlimit="2" d="M10.0551 0L0 8.52771" sodipodi:nodetypes="cc"/><path id="shape72" transform="translate(37.9292094529741, 79.5495164701638)" fill="none" stroke="#000000" stroke-width="0.72" stroke-linecap="square" stroke-linejoin="miter" stroke-miterlimit="2" d="M0 0L10.4369 10.0551" sodipodi:nodetypes="cc"/><path id="shape73" transform="translate(36.910975642156, 89.6045753519925)" fill="none" stroke="#000000" stroke-width="0.72" stroke-linecap="square" stroke-linejoin="miter" stroke-miterlimit="2" d="M11.4551 0L0 10.8187" sodipodi:nodetypes="cc"/><path id="shape74" transform="translate(36.910975642156, 100.423309591935)" fill="none" stroke="#000000" stroke-width="0.72" stroke-linecap="square" stroke-linejoin="miter" stroke-miterlimit="2" d="M0 0L12.4734 9.41866" sodipodi:nodetypes="cc"/><path id="shape75" transform="translate(36.2745795103947, 109.841972342002)" fill="none" stroke="#000000" stroke-width="0.72" stroke-linecap="square" stroke-linejoin="miter" stroke-miterlimit="2" d="M13.1098 0L0 10.6915" sodipodi:nodetypes="cc"/><path id="shape76" transform="translate(36.2745795103947, 120.533427355592)" fill="none" stroke="#000000" stroke-width="0.72" stroke-linecap="square" stroke-linejoin="miter" stroke-miterlimit="2" d="M0 0L14.3826 12.8552" sodipodi:nodetypes="cc"/><path id="shape77" transform="translate(34.8745080205198, 133.388629217171)" fill="none" stroke="#000000" stroke-width="0.72" stroke-linecap="square" stroke-linejoin="miter" stroke-miterlimit="2" d="M15.7826 0L0 15.7826" sodipodi:nodetypes="cc"/><path id="shape78" transform="translate(34.7472287941676, 149.171253284851)" fill="none" stroke="#000000" stroke-width="0.72" stroke-linecap="square" stroke-linejoin="miter" stroke-miterlimit="2" d="M0 0L8.14587 8.40043" sodipodi:nodetypes="cc"/><path id="shape79" transform="translate(42.8930992807123, 157.5716822241)" fill="none" stroke="#000000" stroke-width="0.72" stroke-linecap="square" stroke-linejoin="miter" stroke-miterlimit="2" d="M0 0L10.0551 13.3643" sodipodi:nodetypes="cc"/><path id="shape80" transform="translate(33.4744365306449, 170.936000991088)" fill="none" stroke="#000000" stroke-width="0.72" stroke-linecap="square" stroke-linejoin="miter" stroke-miterlimit="2" d="M19.3464 0L0 19.601" sodipodi:nodetypes="cc"/><path id="shape81" transform="translate(33.4744365306449, 190.537001849336)" fill="none" stroke="#000000" stroke-width="0.72" stroke-linecap="square" stroke-linejoin="miter" stroke-miterlimit="2" d="M0 0L20.3647 19.9828" sodipodi:nodetypes="cc"/><path id="shape82" transform="translate(32.4562027198268, 190.537001849336)" fill="none" stroke="#000000" stroke-width="0.72" stroke-linecap="square" stroke-linejoin="miter" stroke-miterlimit="2" d="M0 19.3464L20.6192 0" sodipodi:nodetypes="cc"/><path id="shape83" transform="translate(33.7289949833495, 170.554163312031)" fill="none" stroke="#000000" stroke-width="0.72" stroke-linecap="square" stroke-linejoin="miter" stroke-miterlimit="2" d="M19.3464 19.9828L0 0" sodipodi:nodetypes="cc"/><path id="shape84" transform="translate(33.7289949833495, 157.317123771396)" fill="none" stroke="#000000" stroke-width="0.72" stroke-linecap="square" stroke-linejoin="miter" stroke-miterlimit="2" d="M0 13.237L8.90955 0" sodipodi:nodetypes="cc"/><path id="shape85" transform="translate(42.6385408280078, 149.171253284851)" fill="none" stroke="#000000" stroke-width="0.72" stroke-linecap="square" stroke-linejoin="miter" stroke-miterlimit="2" d="M0 8.14587L8.52771 0" sodipodi:nodetypes="cc"/><path id="shape86" transform="translate(35.6381833786334, 133.515908443523)" fill="none" stroke="#000000" stroke-width="0.72" stroke-linecap="square" stroke-linejoin="miter" stroke-miterlimit="2" d="M15.5281 15.6553L0 0" sodipodi:nodetypes="cc"/><path id="shape87" transform="translate(35.6381833786334, 120.024310450183)" fill="none" stroke="#000000" stroke-width="0.72" stroke-linecap="square" stroke-linejoin="miter" stroke-miterlimit="2" d="M0 13.4916L14.3826 0" sodipodi:nodetypes="cc"/><path id="shape88" transform="translate(36.6564171894515, 110.096530794707)" fill="none" stroke="#000000" stroke-width="0.72" stroke-linecap="square" stroke-linejoin="miter" stroke-miterlimit="2" d="M13.3643 9.92778L0 0" sodipodi:nodetypes="cc"/><path id="shape89" transform="translate(36.6564171894515, 99.6596342338212)" fill="none" stroke="#000000" stroke-width="0.72" stroke-linecap="square" stroke-linejoin="miter" stroke-miterlimit="2" d="M0 10.4369L12.0915 0" sodipodi:nodetypes="cc"/><path id="shape90" transform="translate(37.1655340948605, 89.350016899288)" fill="none" stroke="#000000" stroke-width="0.72" stroke-linecap="square" stroke-linejoin="miter" stroke-miterlimit="2" d="M11.5824 10.3096L0 0" sodipodi:nodetypes="cc"/><path id="shape91" transform="translate(37.1655340948605, 79.2949580174593)" fill="none" stroke="#000000" stroke-width="0.72" stroke-linecap="square" stroke-linejoin="miter" stroke-miterlimit="2" d="M0 10.0551L10.6915 0" sodipodi:nodetypes="cc"/><path id="shape92" transform="translate(38.4383263583832, 71.0218083045623)" fill="none" stroke="#000000" stroke-width="0.72" stroke-linecap="square" stroke-linejoin="miter" stroke-miterlimit="2" d="M9.41866 8.27315L0 0" sodipodi:nodetypes="cc"/><path id="shape023" transform="matrix(1.50476174275049 0 0 1.40481146275542 12.2706997632313 81.0373043959072)" fill="none" stroke="#737373" stroke-width="1.44" stroke-linecap="square" stroke-linejoin="miter" stroke-miterlimit="2" d="M0 0L0 6.27972" sodipodi:nodetypes="cc"/><circle id="shape0153" transform="matrix(2.1624968519128 0 0 2.19519238937094 10.6292230243623 90.6527878744677)" r="0.719999999999999" cx="0.719999999999999" cy="0.719999999999999" fill="#d00000" fill-rule="evenodd" stroke-opacity="0" stroke="#000000" stroke-width="0" stroke-linecap="square" stroke-linejoin="bevel"/><path id="shape0231" transform="matrix(1.50476172950614 0 0 1.40481145039079 74.1175347739672 80.0818451901668)" fill="none" stroke="#737373" stroke-width="1.44" stroke-linecap="square" stroke-linejoin="miter" stroke-miterlimit="2" d="M0 0L0 6.27972" sodipodi:nodetypes="cc"/><circle id="shape01531" transform="matrix(2.16249683287931 0 0 2.19519237004967 72.4760580495459 89.6973285840954)" r="0.719999999999999" cx="0.719999999999999" cy="0.719999999999999" fill="#d00000" fill-rule="evenodd" stroke-opacity="0" stroke="#000000" stroke-width="0" stroke-linecap="square" stroke-linejoin="bevel"/><path id="shape0232" transform="matrix(1.50476172950614 0 0 1.40481145039079 6.77989750703119 53.7467412957866)" fill="none" stroke="#737373" stroke-width="1.44" stroke-linecap="square" stroke-linejoin="miter" stroke-miterlimit="2" d="M0 0L0 6.27972" sodipodi:nodetypes="cc"/><circle id="shape01532" transform="matrix(2.16249683287931 0 0 2.19519237004967 5.13842078260985 63.3622246897152)" r="0.719999999999999" cx="0.719999999999999" cy="0.719999999999999" fill="#d00000" fill-rule="evenodd" stroke-opacity="0" stroke="#000000" stroke-width="0" stroke-linecap="square" stroke-linejoin="bevel"/><path id="shape0233" transform="matrix(1.50476172950614 0 0 1.40481145039079 78.7975372025952 53.6218436711448)" fill="none" stroke="#737373" stroke-width="1.44" stroke-linecap="square" stroke-linejoin="miter" stroke-miterlimit="2" d="M0 0L0 6.27972" sodipodi:nodetypes="cc"/><circle id="shape01533" transform="matrix(2.16249683287931 0 0 2.19519237004967 77.1560604781738 63.2373270650734)" r="0.719999999999999" cx="0.719999999999999" cy="0.719999999999999" fill="#d00000" fill-rule="evenodd" stroke-opacity="0" stroke="#000000" stroke-width="0" stroke-linecap="square" stroke-linejoin="bevel"/><path id="shape0234" transform="matrix(1.50476172950614 0 0 1.40481145039079 12.1075337696823 26.6218422813016)" fill="none" stroke="#737373" stroke-width="1.44" stroke-linecap="square" stroke-linejoin="miter" stroke-miterlimit="2" d="M0 0L0 6.27972" sodipodi:nodetypes="cc"/><circle id="shape01534" transform="matrix(2.16249683287931 0 0 2.19519237004967 10.466057045261 36.2373256752302)" r="0.719999999999999" cx="0.719999999999999" cy="0.719999999999999" fill="#d00000" fill-rule="evenodd" stroke-opacity="0" stroke="#000000" stroke-width="0" stroke-linecap="square" stroke-linejoin="bevel"/><path id="shape0235" transform="matrix(1.50476172950614 0 0 1.40481145039079 74.2975369709546 26.8018422905672)" fill="none" stroke="#737373" stroke-width="1.44" stroke-linecap="square" stroke-linejoin="miter" stroke-miterlimit="2" d="M0 0L0 6.27972" sodipodi:nodetypes="cc"/><circle id="shape01535" transform="matrix(2.16249683287931 0 0 2.19519237004967 72.6560602465332 36.4173256844958)" r="0.719999999999999" cx="0.719999999999999" cy="0.719999999999999" fill="#d00000" fill-rule="evenodd" stroke-opacity="0" stroke="#000000" stroke-width="0" stroke-linecap="square" stroke-linejoin="bevel"/><path id="shape41" transform="matrix(0.714210439675349 0 0 1.49999992291472 -14.591653288211 214.356776813044)" fill="none" stroke="#3b2300" stroke-width="2.16" stroke-linecap="square" stroke-linejoin="miter" stroke-miterlimit="2" d="M0 0L160.92 0.18" sodipodi:nodetypes="cc"/><path id="shape51" transform="matrix(0.714210439675349 0 0 1.49999992291472 -14.4795183657041 211.902647074704)" fill="none" stroke="#297f00" stroke-width="1.44" stroke-linecap="square" stroke-linejoin="miter" stroke-miterlimit="2" d="M0 0L161.135 0.127279" sodipodi:nodetypes="cc"/>
</svg>
