<?xml version="1.0" standalone="no"?>
<!DOCTYPE svg PUBLIC "-//W3C//DTD SVG 20010904//EN" "http://www.w3.org/TR/2001/REC-SVG-20010904/DTD/svg10.dtd">
<!-- Created using Krita: https://krita.org -->
<svg xmlns="http://www.w3.org/2000/svg" 
    xmlns:xlink="http://www.w3.org/1999/xlink"
    xmlns:krita="http://krita.org/namespaces/svg/krita"
    xmlns:sodipodi="http://sodipodi.sourceforge.net/DTD/sodipodi-0.dtd"
    width="85.68pt"
    height="206.64pt"
    viewBox="0 0 85.68 206.64">
<defs/>
<path id="shape0" transform="translate(44.9365751202154, 6.01443301281426)" fill="none" stroke="#000000" stroke-width="1.44" stroke-linecap="square" stroke-linejoin="miter" stroke-miterlimit="2" d="M2.7 193.14L0 0" sodipodi:nodetypes="cc"/><path id="shape1" transform="translate(40.4365687300852, 5.83443300259006)" fill="none" stroke="#000000" stroke-width="1.44" stroke-linecap="square" stroke-linejoin="miter" stroke-miterlimit="2" d="M4.50001 0.18L0 0" sodipodi:nodetypes="cc"/><path id="shape2" transform="translate(38.0965747316954, 5.83443300259006)" fill="none" stroke="#000000" stroke-width="1.44" stroke-linecap="square" stroke-linejoin="miter" stroke-miterlimit="2" d="M2.33999 0L0 193.32" sodipodi:nodetypes="cc"/><path id="shape3" transform="translate(37.0165697017727, 199.334434270253)" fill="none" stroke="#000000" stroke-width="1.44" stroke-linecap="square" stroke-linejoin="miter" stroke-miterlimit="2" d="M0 0.09L11.97 0" sodipodi:nodetypes="cc"/><path id="shape4" transform="translate(48.98656981299, 199.334434270253)" fill="none" stroke="#000000" stroke-width="1.44" stroke-linecap="square" stroke-linejoin="miter" stroke-miterlimit="2" d="M0 0L0 2.25" sodipodi:nodetypes="cc"/><path id="shape5" transform="translate(36.5665696975916, 201.584434291159)" fill="none" stroke="#000000" stroke-width="1.44" stroke-linecap="square" stroke-linejoin="miter" stroke-miterlimit="2" d="M12.42 0L0 0" sodipodi:nodetypes="cc"/><path id="shape6" transform="translate(36.4765696967554, 199.064434267745)" fill="none" stroke="#000000" stroke-width="1.44" stroke-linecap="square" stroke-linejoin="miter" stroke-miterlimit="2" d="M0.09 2.52L0 0" sodipodi:nodetypes="cc"/><path id="shape7" transform="translate(37.9165697101349, 201.674434291995)" fill="none" stroke="#000000" stroke-width="1.44" stroke-linecap="square" stroke-linejoin="miter" stroke-miterlimit="2" d="M0.18 0L0 1.35" sodipodi:nodetypes="cc"/><path id="shape8" transform="translate(47.9065698029553, 201.854434293667)" fill="none" stroke="#000000" stroke-width="1.44" stroke-linecap="square" stroke-linejoin="miter" stroke-miterlimit="2" d="M0 0L0.18 1.8" sodipodi:nodetypes="cc"/><path id="shape9" transform="translate(45.5877973405889, 25.2382009184263)" fill="none" stroke="#000000" stroke-width="0.72" stroke-linecap="square" stroke-linejoin="bevel" d="M0.254558 6.21993C7.29734 2.99552 17.2675 1.12876 30.1652 0.619641L30.1652 0.619641C17.1906 -0.727097 7.13557 0.121432 0 3.16523" sodipodi:nodetypes="cccc"/><path id="shape0" transform="matrix(-0.999999950790418 0 0 0.999999950790418 40.3094355260489 25.2437961114975)" fill="none" stroke="#000000" stroke-width="0.72" stroke-linecap="square" stroke-linejoin="bevel" d="M0.254558 6.21993C7.29734 2.99552 17.2675 1.12876 30.1652 0.619641L30.1652 0.619641C17.1906 -0.727097 7.13557 0.121432 0 3.16523" sodipodi:nodetypes="cccc"/><path id="shape10" transform="translate(45.8365690693319, 58.5927999068457)" fill="none" stroke="#000000" stroke-width="0.72" stroke-linecap="square" stroke-linejoin="bevel" d="M0.72 6.10163C10.32 2.74163 21.9 1.06163 35.46 1.06163C21.42 -0.978367 9.6 -0.0783673 0 3.76163" sodipodi:nodetypes="ccc"/><path id="shape01" transform="matrix(-0.999999974057032 0 0 0.999999974057032 39.7745735452686 58.7749663262115)" fill="none" stroke="#000000" stroke-width="0.72" stroke-linecap="square" stroke-linejoin="bevel" d="M0.72 6.10163C10.32 2.74163 21.9 1.06163 35.46 1.06163C21.42 -0.978366 9.6 -0.0783666 0 3.76163" sodipodi:nodetypes="ccc"/><path id="shape11" transform="translate(46.3765690709474, 92.1744326603695)" fill="none" stroke="#000000" stroke-width="0.72" stroke-linecap="square" stroke-linejoin="bevel" d="M0.18 6.9C7.86 2.82 18 0.84 30.6 0.96L30.6 0.96C19.08 -0.96 8.88 -2.22045e-16 0 3.84" sodipodi:nodetypes="cccc"/><path id="shape02" transform="matrix(-0.9999999579358 0 0 0.9999999579358 39.4685684500017 92.0764369021147)" fill="none" stroke="#000000" stroke-width="0.72" stroke-linecap="square" stroke-linejoin="bevel" d="M0.18 6.9C7.86 2.82 18 0.84 30.6 0.96L30.6 0.96C19.08 -0.96 8.88 -2.22045e-16 0 3.84" sodipodi:nodetypes="cccc"/><path id="shape12" transform="translate(45.2059628232527, 2.67042692238034)" fill="none" stroke="#000000" stroke-width="0.72" stroke-linecap="square" stroke-linejoin="bevel" d="M0 3.33186C9.29138 -0.274388 16.8221 -0.953211 22.5921 1.29539" sodipodi:nodetypes="cc"/><path id="shape13" transform="translate(45.7150797266078, 4.36001073882926)" fill="none" stroke="#000000" stroke-width="0.72" stroke-linecap="square" stroke-linejoin="bevel" d="M0 4.56969C7.59433 0.921024 15.0402 -0.542687 22.3375 0.178562" sodipodi:nodetypes="cc"/><path id="shape03" transform="matrix(-1.00000000082395 0 0 1.00000000082395 40.5692499832771 2.59836036928314)" fill="none" stroke="#000000" stroke-width="0.72" stroke-linecap="square" stroke-linejoin="bevel" d="M0 3.33186C9.29138 -0.274388 16.8221 -0.953211 22.5921 1.29539" sodipodi:nodetypes="cc"/><path id="shape1" transform="matrix(-1.00000000082395 0 0 1.00000000082395 40.0601330795026 4.28794412701305)" fill="none" stroke="#000000" stroke-width="0.72" stroke-linecap="square" stroke-linejoin="bevel" d="M0 4.56969C7.59433 0.921024 15.0402 -0.542687 22.3375 0.178562" sodipodi:nodetypes="cc"/><path id="shape14" transform="translate(39.0965518098782, 95.6068507246269)" fill="none" stroke="#000000" stroke-width="0.72" stroke-linecap="square" stroke-linejoin="miter" stroke-miterlimit="2" d="M0 0L7.89131 0" sodipodi:nodetypes="cc"/><path id="shape15" transform="translate(38.9692725937925, 98.6615519106831)" fill="none" stroke="#000000" stroke-width="0.72" stroke-linecap="square" stroke-linejoin="miter" stroke-miterlimit="2" d="M0 0L8.14587 0.127279" sodipodi:nodetypes="cc"/><path id="shape16" transform="translate(40.4365687300851, 62.1324168940952)" fill="none" stroke="#000000" stroke-width="0.72" stroke-linecap="square" stroke-linejoin="miter" stroke-miterlimit="2" d="M0 0L5.53306 0" sodipodi:nodetypes="cc"/><path id="shape17" transform="translate(40.4365687300852, 64.93255964798)" fill="none" stroke="#000000" stroke-width="0.72" stroke-linecap="square" stroke-linejoin="miter" stroke-miterlimit="2" d="M0 0L5.2785 0" sodipodi:nodetypes="cc"/><path id="shape18" transform="translate(40.4365687300852, 28.9125438395763)" fill="none" stroke="#000000" stroke-width="0.72" stroke-linecap="square" stroke-linejoin="miter" stroke-miterlimit="2" d="M0 0L5.02395 0.127279" sodipodi:nodetypes="cc"/><path id="shape19" transform="translate(40.4365687300852, 31.4581283355531)" fill="none" stroke="#000000" stroke-width="0.72" stroke-linecap="square" stroke-linejoin="miter" stroke-miterlimit="2" d="M0 0L5.40579 0" sodipodi:nodetypes="cc"/><path id="shape20" transform="translate(40.4365687300852, 8.67514709656123)" fill="none" stroke="#000000" stroke-width="0.72" stroke-linecap="square" stroke-linejoin="miter" stroke-miterlimit="2" d="M0 0L4.76939 0" sodipodi:nodetypes="cc"/><path id="shape12" transform="matrix(0.999999961131542 0 0 0.999999961131542 4.79657001034473 60.5687176287793)" fill="none" stroke="#737373" stroke-width="2.16" stroke-linecap="square" stroke-linejoin="miter" stroke-miterlimit="2" d="M0.0900037 13.5279L0 0" sodipodi:nodetypes="cc"/><path id="shape121" transform="matrix(0.999999916067896 0 0 0.999999916067896 81.1052645400944 60.5808794424304)" fill="none" stroke="#737373" stroke-width="2.16" stroke-linecap="square" stroke-linejoin="miter" stroke-miterlimit="2" d="M0.0900037 13.5279L0 0" sodipodi:nodetypes="cc"/><path id="shape122" transform="matrix(0.999999916067896 0 0 0.999999916067896 10.2559670502059 26.6919052899855)" fill="none" stroke="#737373" stroke-width="2.16" stroke-linecap="square" stroke-linejoin="miter" stroke-miterlimit="2" d="M0.0900037 13.5279L0 0" sodipodi:nodetypes="cc"/><path id="shape123" transform="matrix(0.999999916067896 0 0 0.999999916067896 75.5959672127028 26.8719052904332)" fill="none" stroke="#737373" stroke-width="2.16" stroke-linecap="square" stroke-linejoin="miter" stroke-miterlimit="2" d="M0.0900037 13.5279L0 0" sodipodi:nodetypes="cc"/><path id="shape124" transform="matrix(0.999999916067896 0 0 0.999999916067896 8.76324626291319 94.553778798321)" fill="none" stroke="#737373" stroke-width="2.16" stroke-linecap="square" stroke-linejoin="miter" stroke-miterlimit="2" d="M0.0900037 13.5279L0 0" sodipodi:nodetypes="cc"/><path id="shape125" transform="matrix(0.999999916067896 0 0 0.999999916067896 76.8960061421592 94.7404828904549)" fill="none" stroke="#737373" stroke-width="2.16" stroke-linecap="square" stroke-linejoin="miter" stroke-miterlimit="2" d="M0.0900037 13.5279L0 0" sodipodi:nodetypes="cc"/><circle id="shape017" transform="matrix(1.43751224994654 0 0 1.45148929306318 1.62644042402881 74.2646011578295)" r="0.719999999999999" cx="0.719999999999999" cy="0.719999999999999" fill="#d00000" fill-rule="evenodd" stroke-opacity="0" stroke="#000000" stroke-width="0" stroke-linecap="square" stroke-linejoin="bevel"/><circle id="shape012" transform="matrix(1.51019711757528 0 0 1.46570358133793 5.927086541555 74.2441325827138)" r="0.719999999999999" cx="0.719999999999999" cy="0.719999999999999" fill="#d00000" fill-rule="evenodd" stroke-opacity="0" stroke="#000000" stroke-width="0" stroke-linecap="square" stroke-linejoin="bevel"/><circle id="shape0171" transform="matrix(1.43751224994654 0 0 1.45148929306318 78.0249614057487 74.2476075142916)" r="0.719999999999999" cx="0.719999999999999" cy="0.719999999999999" fill="#d00000" fill-rule="evenodd" stroke-opacity="0" stroke="#000000" stroke-width="0" stroke-linecap="square" stroke-linejoin="bevel"/><circle id="shape0121" transform="matrix(1.51019711757528 0 0 1.46570358133793 82.3256075232749 74.227138939176)" r="0.719999999999999" cx="0.719999999999999" cy="0.719999999999999" fill="#d00000" fill-rule="evenodd" stroke-opacity="0" stroke="#000000" stroke-width="0" stroke-linecap="square" stroke-linejoin="bevel"/><circle id="shape0172" transform="matrix(1.43751224994654 0 0 1.45148929306318 7.03580779219582 40.090129375944)" r="0.719999999999999" cx="0.719999999999999" cy="0.719999999999999" fill="#d00000" fill-rule="evenodd" stroke-opacity="0" stroke="#000000" stroke-width="0" stroke-linecap="square" stroke-linejoin="bevel"/><circle id="shape0122" transform="matrix(1.51019711757528 0 0 1.46570358133793 11.336453909722 40.0696608008284)" r="0.719999999999999" cx="0.719999999999999" cy="0.719999999999999" fill="#d00000" fill-rule="evenodd" stroke-opacity="0" stroke="#000000" stroke-width="0" stroke-linecap="square" stroke-linejoin="bevel"/><circle id="shape0173" transform="matrix(1.43751224994654 0 0 1.45148929306318 72.444957211461 40.4622013231215)" r="0.719999999999999" cx="0.719999999999999" cy="0.719999999999999" fill="#d00000" fill-rule="evenodd" stroke-opacity="0" stroke="#000000" stroke-width="0" stroke-linecap="square" stroke-linejoin="bevel"/><circle id="shape0123" transform="matrix(1.51019711757528 0 0 1.46570358133793 76.7456033289872 40.4417327480058)" r="0.719999999999999" cx="0.719999999999999" cy="0.719999999999999" fill="#d00000" fill-rule="evenodd" stroke-opacity="0" stroke="#000000" stroke-width="0" stroke-linecap="square" stroke-linejoin="bevel"/><circle id="shape0174" transform="matrix(1.43751224994654 0 0 1.45148929306318 5.56117696862949 107.838082236236)" r="0.719999999999999" cx="0.719999999999999" cy="0.719999999999999" fill="#d00000" fill-rule="evenodd" stroke-opacity="0" stroke="#000000" stroke-width="0" stroke-linecap="square" stroke-linejoin="bevel"/><circle id="shape0124" transform="matrix(1.51019711757528 0 0 1.46570358133793 9.86182308615568 107.81761366112)" r="0.719999999999999" cx="0.719999999999999" cy="0.719999999999999" fill="#d00000" fill-rule="evenodd" stroke-opacity="0" stroke="#000000" stroke-width="0" stroke-linecap="square" stroke-linejoin="bevel"/><circle id="shape0175" transform="matrix(1.43751224994654 0 0 1.45148929306318 73.4755611200524 107.48447833219)" r="0.719999999999999" cx="0.719999999999999" cy="0.719999999999999" fill="#d00000" fill-rule="evenodd" stroke-opacity="0" stroke="#000000" stroke-width="0" stroke-linecap="square" stroke-linejoin="bevel"/><circle id="shape0125" transform="matrix(1.51019711757528 0 0 1.46570358133793 77.7762072375786 107.464009757074)" r="0.719999999999999" cx="0.719999999999999" cy="0.719999999999999" fill="#d00000" fill-rule="evenodd" stroke-opacity="0" stroke="#000000" stroke-width="0" stroke-linecap="square" stroke-linejoin="bevel"/><path id="shape126" transform="matrix(1.25523012552301 0 0 0.999999925933591 -67.5634312699148 205.705509576848)" fill="none" stroke="#3b2300" stroke-width="2.16" stroke-linecap="square" stroke-linejoin="miter" stroke-miterlimit="2" d="M0 0L171.318 0.13613" sodipodi:nodetypes="cc"/><path id="shape127" transform="matrix(1.25523012552301 0 0 0.999999925933591 -67.5634312699148 204.175509611442)" fill="none" stroke="#297f00" stroke-width="1.44" stroke-linecap="square" stroke-linejoin="miter" stroke-miterlimit="2" d="M0 0L172.08 0.0751454" sodipodi:nodetypes="cc"/>
</svg>
