<?xml version="1.0" standalone="no"?>
<!DOCTYPE svg PUBLIC "-//W3C//DTD SVG 20010904//EN" "http://www.w3.org/TR/2001/REC-SVG-20010904/DTD/svg10.dtd">
<!-- Created using Krita: https://krita.org -->
<svg xmlns="http://www.w3.org/2000/svg" 
    xmlns:xlink="http://www.w3.org/1999/xlink"
    xmlns:krita="http://krita.org/namespaces/svg/krita"
    xmlns:sodipodi="http://sodipodi.sourceforge.net/DTD/sodipodi-0.dtd"
    width="163.44pt"
    height="210.24pt"
    viewBox="0 0 163.44 210.24">
<defs/>
<path id="shape0" transform="matrix(0.999999973871937 0 0 0.999999973871937 60.9667454046006 86.1680292689148)" fill="none" stroke="#000000" stroke-width="1.44" stroke-linecap="square" stroke-linejoin="miter" stroke-miterlimit="2" d="M0 120.661L7.12764 0" sodipodi:nodetypes="cc"/><path id="shape1" transform="matrix(0.999999973871937 0 0 0.999999973871937 49.8934536078568 36.9109726558129)" fill="none" stroke="#000000" stroke-width="1.44" stroke-linecap="square" stroke-linejoin="miter" stroke-miterlimit="2" d="M18.2009 49.2571L0 0" sodipodi:nodetypes="cc"/><path id="shape2" transform="matrix(0.999999973871937 0 0 0.999999973871937 6.74579936537213 36.9109726558129)" fill="none" stroke="#000000" stroke-width="1.44" stroke-linecap="square" stroke-linejoin="miter" stroke-miterlimit="2" d="M43.1477 0L0 0.127279" sodipodi:nodetypes="cc"/><path id="shape3" transform="matrix(0.999999973871937 0 0 0.999999973871937 6.74579936537213 24.4376094824692)" fill="none" stroke="#000000" stroke-width="1.44" stroke-linecap="square" stroke-linejoin="miter" stroke-miterlimit="2" d="M0 12.6006L38.5656 0" sodipodi:nodetypes="cc"/><path id="shape4" transform="matrix(0.999999973871937 0 0 0.999999973871937 38.0564865147857 6.23668158667182)" fill="none" stroke="#000000" stroke-width="1.44" stroke-linecap="square" stroke-linejoin="miter" stroke-miterlimit="2" d="M7.25492 18.2009L0 0" sodipodi:nodetypes="cc"/><path id="shape5" transform="matrix(0.999999973871937 0 0 0.999999973871937 34.8745061134226 5.98212315456277)" fill="none" stroke="#000000" stroke-width="1.44" stroke-linecap="square" stroke-linejoin="miter" stroke-miterlimit="2" d="M0 0L3.43654 0" sodipodi:nodetypes="cc"/><path id="shape6" transform="matrix(0.999999973871937 0 0 0.999999973871937 38.3110449468948 5.98212315456277)" fill="none" stroke="#000000" stroke-width="1.44" stroke-linecap="square" stroke-linejoin="miter" stroke-miterlimit="2" d="M0 0L8.40043 10.5642" sodipodi:nodetypes="cc"/><path id="shape7" transform="matrix(0.999999973871937 0 0 0.999999973871937 46.7114732064936 16.5462980870885)" fill="none" stroke="#000000" stroke-width="1.44" stroke-linecap="square" stroke-linejoin="miter" stroke-miterlimit="2" d="M0 0L69.749 0" sodipodi:nodetypes="cc"/><path id="shape8" transform="matrix(0.999999973871937 0 0 0.999999973871937 116.460483604374 6.1094023706173)" fill="none" stroke="#000000" stroke-width="1.44" stroke-linecap="square" stroke-linejoin="miter" stroke-miterlimit="2" d="M0 10.4369L9.29138 0" sodipodi:nodetypes="cc"/><path id="shape9" transform="matrix(0.999999973871937 0 0 0.999999973871937 125.751866376354 5.98212315456277)" fill="none" stroke="#000000" stroke-width="1.44" stroke-linecap="square" stroke-linejoin="miter" stroke-miterlimit="2" d="M0 0.127279L2.80014 0" sodipodi:nodetypes="cc"/><path id="shape10" transform="matrix(0.999999973871937 0 0 0.999999973871937 118.878788709411 5.72756472245371)" fill="none" stroke="#000000" stroke-width="1.44" stroke-linecap="square" stroke-linejoin="miter" stroke-miterlimit="2" d="M6.87308 0L0 18.5828" sodipodi:nodetypes="cc"/><path id="shape11" transform="matrix(0.999999973871937 0 0 0.999999973871937 118.878788709411 24.3103302664146)" fill="none" stroke="#000000" stroke-width="1.44" stroke-linecap="square" stroke-linejoin="miter" stroke-miterlimit="2" d="M0 0L38.311 12.8552" sodipodi:nodetypes="cc"/><path id="shape12" transform="matrix(0.999999973871937 0 0 0.999999973871937 113.787620067229 37.0382518718673)" fill="none" stroke="#000000" stroke-width="1.44" stroke-linecap="square" stroke-linejoin="miter" stroke-miterlimit="2" d="M43.4022 0.127279L0 0" sodipodi:nodetypes="cc"/><path id="shape13" transform="matrix(0.999999973871937 0 0 0.999999973871937 95.8412506035409 37.0382518718673)" fill="none" stroke="#000000" stroke-width="1.44" stroke-linecap="square" stroke-linejoin="miter" stroke-miterlimit="2" d="M17.9464 0L0 49.8935" sodipodi:nodetypes="cc"/><path id="shape14" transform="matrix(0.999999973871937 0 0 0.999999973871937 95.8412506035409 86.9317045652419)" fill="none" stroke="#000000" stroke-width="1.44" stroke-linecap="square" stroke-linejoin="miter" stroke-miterlimit="2" d="M0 0L6.87308 119.897" sodipodi:nodetypes="cc"/><path id="shape15" transform="matrix(0.999999973871937 0 0 0.999999973871937 50.2200034130312 36.5400018179407)" fill="none" stroke="#000000" stroke-width="1.44" stroke-linecap="square" stroke-linejoin="miter" stroke-miterlimit="2" d="M0 0L31.68 49.86" sodipodi:nodetypes="cc"/><path id="shape16" transform="matrix(0.999999973871937 0 0 0.999999973871937 81.9000049891768 37.0800018448068)" fill="none" stroke="#000000" stroke-width="1.44" stroke-linecap="square" stroke-linejoin="miter" stroke-miterlimit="2" d="M0 49.32L31.5 0" sodipodi:nodetypes="cc"/><path id="shape17" transform="matrix(0.999999973871937 0 0 0.999999973871937 45.0568457686975 24.437610768388)" fill="none" stroke="#000000" stroke-width="1.44" stroke-linecap="square" stroke-linejoin="miter" stroke-miterlimit="2" d="M0 0.127279L74.0765 0" sodipodi:nodetypes="cc"/><path id="shape18" transform="matrix(0.999999973871937 0 0 0.999999973871937 50.148011373936 24.9467260153628)" fill="none" stroke="#000000" stroke-width="1.44" stroke-linecap="square" stroke-linejoin="miter" stroke-miterlimit="2" d="M0 11.9642L3.18198 0" sodipodi:nodetypes="cc"/><path id="shape19" transform="matrix(0.999999973871937 0 0 0.999999973871937 110.605638196881 24.5648883722705)" fill="none" stroke="#000000" stroke-width="1.44" stroke-linecap="square" stroke-linejoin="miter" stroke-miterlimit="2" d="M0 0L2.92742 12.2188" sodipodi:nodetypes="cc"/><path id="shape20" transform="matrix(0.999999973871937 0 0 0.999999973871937 60.9667478029832 153.753299042399)" fill="none" stroke="#000000" stroke-width="0.72" stroke-linecap="square" stroke-linejoin="miter" stroke-miterlimit="2" d="M0 52.439L38.9474 0" sodipodi:nodetypes="cc"/><path id="shape21" transform="matrix(0.999999973871937 0 0 0.999999973871937 67.203429635001 110.351084660398)" fill="none" stroke="#000000" stroke-width="0.72" stroke-linecap="square" stroke-linejoin="miter" stroke-miterlimit="2" d="M32.7108 43.4022L0 0" sodipodi:nodetypes="cc"/><path id="shape22" transform="matrix(0.999999973871937 0 0 0.999999973871937 67.203429635001 86.2953118797572)" fill="none" stroke="#000000" stroke-width="0.72" stroke-linecap="square" stroke-linejoin="miter" stroke-miterlimit="2" d="M0 24.0558L14.6371 0" sodipodi:nodetypes="cc"/><path id="shape23" transform="matrix(0.999999973871937 0 0 0.999999973871937 81.8405400570837 86.2953118797572)" fill="none" stroke="#000000" stroke-width="0.72" stroke-linecap="square" stroke-linejoin="miter" stroke-miterlimit="2" d="M0 0L15.1462 23.1648" sodipodi:nodetypes="cc"/><path id="shape24" transform="matrix(0.999999973871937 0 0 0.999999973871937 63.8941698873997 109.460130112967)" fill="none" stroke="#000000" stroke-width="0.72" stroke-linecap="square" stroke-linejoin="miter" stroke-miterlimit="2" d="M33.0926 0L0 44.2932" sodipodi:nodetypes="cc"/><path id="shape25" transform="matrix(0.999999973871937 0 0 0.999999973871937 63.8941698873997 153.753299042399)" fill="none" stroke="#000000" stroke-width="0.72" stroke-linecap="square" stroke-linejoin="miter" stroke-miterlimit="2" d="M0 0L38.1838 51.8026" sodipodi:nodetypes="cc"/><path id="shape26" transform="matrix(0.999999973871937 0 0 0.999999973871937 62.3668192346607 178.190909486225)" fill="none" stroke="#000000" stroke-width="0.72" stroke-linecap="square" stroke-linejoin="miter" stroke-miterlimit="2" d="M0 0L38.8202 0" sodipodi:nodetypes="cc"/><path id="shape27" transform="matrix(0.999999973871937 0 0 0.999999973871937 65.4637510282318 129.836250225603)" fill="none" stroke="#000000" stroke-width="0.72" stroke-linecap="square" stroke-linejoin="miter" stroke-miterlimit="2" d="M0 0L32.8275 0.1125" sodipodi:nodetypes="cc"/><path id="shape28" transform="matrix(0.999999973871937 0 0 0.999999973871937 89.6045725418407 119.769747018955)" fill="none" stroke="#000000" stroke-width="0.72" stroke-linecap="square" stroke-linejoin="miter" stroke-miterlimit="2" d="M8.27315 0L0 0" sodipodi:nodetypes="cc"/><path id="shape29" transform="matrix(0.999999973871937 0 0 0.999999973871937 89.6045725418407 119.769747018955)" fill="none" stroke="#000000" stroke-width="0.72" stroke-linecap="square" stroke-linejoin="miter" stroke-miterlimit="2" d="M0 0L8.90955 10.1823" sodipodi:nodetypes="cc"/><path id="shape30" transform="matrix(0.999999973871937 0 0 0.999999973871937 90.3682478682102 129.952084703882)" fill="none" stroke="#000000" stroke-width="0.72" stroke-linecap="square" stroke-linejoin="miter" stroke-miterlimit="2" d="M8.14587 0L0 12.0915" sodipodi:nodetypes="cc"/><path id="shape31" transform="matrix(0.999999973871937 0 0 0.999999973871937 90.3682478682102 141.916331483671)" fill="none" stroke="#000000" stroke-width="0.72" stroke-linecap="square" stroke-linejoin="miter" stroke-miterlimit="2" d="M0 0.127279L8.65499 0" sodipodi:nodetypes="cc"/><path id="shape32" transform="matrix(0.999999973871937 0 0 0.999999973871937 61.5600021847219 192.420003970427)" fill="none" stroke="#000000" stroke-width="0.72" stroke-linecap="square" stroke-linejoin="miter" stroke-miterlimit="2" d="M0 0L10.08 0" sodipodi:nodetypes="cc"/><path id="shape33" transform="matrix(0.999999973871937 0 0 0.999999973871937 62.4600022032926 178.200003677009)" fill="none" stroke="#000000" stroke-width="0.72" stroke-linecap="square" stroke-linejoin="miter" stroke-miterlimit="2" d="M9.18 14.22L0 0" sodipodi:nodetypes="cc"/><path id="shape34" transform="matrix(0.999999973871937 0 0 0.999999973871937 62.4600022032926 165.960003424447)" fill="none" stroke="#000000" stroke-width="0.72" stroke-linecap="square" stroke-linejoin="miter" stroke-miterlimit="2" d="M0 12.24L10.44 0" sodipodi:nodetypes="cc"/><path id="shape35" transform="matrix(0.999999973871937 0 0 0.999999973871937 63.0000022144351 165.960003424447)" fill="none" stroke="#000000" stroke-width="0.72" stroke-linecap="square" stroke-linejoin="miter" stroke-miterlimit="2" d="M9.9 0L0 0.18" sodipodi:nodetypes="cc"/><path id="shape36" transform="matrix(0.999999973871937 0 0 0.999999973871937 91.0800027938426 165.960003424447)" fill="none" stroke="#000000" stroke-width="0.72" stroke-linecap="square" stroke-linejoin="miter" stroke-miterlimit="2" d="M9.54 0L0 0.18" sodipodi:nodetypes="cc"/><path id="shape37" transform="matrix(0.999999973871937 0 0 0.999999973871937 91.0800027938426 166.140003428161)" fill="none" stroke="#000000" stroke-width="0.72" stroke-linecap="square" stroke-linejoin="miter" stroke-miterlimit="2" d="M0 0L10.44 12.42" sodipodi:nodetypes="cc"/><path id="shape38" transform="matrix(0.999999973871937 0 0 0.999999973871937 92.3400028198417 178.560003684438)" fill="none" stroke="#000000" stroke-width="0.72" stroke-linecap="square" stroke-linejoin="miter" stroke-miterlimit="2" d="M9.18 0L0 13.5" sodipodi:nodetypes="cc"/><path id="shape39" transform="matrix(0.999999973871937 0 0 0.999999973871937 92.3400028198417 191.880003959285)" fill="none" stroke="#000000" stroke-width="0.72" stroke-linecap="square" stroke-linejoin="miter" stroke-miterlimit="2" d="M0 0.18L9.72 0" sodipodi:nodetypes="cc"/><path id="shape40" transform="matrix(0.999999973871937 0 0 0.999999973871937 66.1851942775855 119.880002473625)" fill="none" stroke="#000000" stroke-width="0.72" stroke-linecap="square" stroke-linejoin="miter" stroke-miterlimit="2" d="M0 0L7.61481 0" sodipodi:nodetypes="cc"/><path id="shape41" transform="matrix(0.999999973871937 0 0 0.999999973871937 64.9800022552907 119.880002473625)" fill="none" stroke="#000000" stroke-width="0.72" stroke-linecap="square" stroke-linejoin="miter" stroke-miterlimit="2" d="M8.82 0L0 10.26" sodipodi:nodetypes="cc"/><path id="shape42" transform="matrix(0.999999973871937 0 0 0.999999973871937 64.9800022552907 130.140002685331)" fill="none" stroke="#000000" stroke-width="0.72" stroke-linecap="square" stroke-linejoin="miter" stroke-miterlimit="2" d="M0 0L7.92 11.34" sodipodi:nodetypes="cc"/><path id="shape43" transform="matrix(0.999999973871937 0 0 0.999999973871937 64.9800022552907 141.480002919323)" fill="none" stroke="#000000" stroke-width="0.72" stroke-linecap="square" stroke-linejoin="miter" stroke-miterlimit="2" d="M7.92 0L0 0" sodipodi:nodetypes="cc"/><path id="shape44" transform="matrix(0.999999973871937 0 0 0.999999973871937 89.2227334656703 98.0049986653564)" fill="none" stroke="#000000" stroke-width="0.72" stroke-linecap="square" stroke-linejoin="miter" stroke-miterlimit="2" d="M7.25492 0.127279L0 0" sodipodi:nodetypes="cc"/><path id="shape45" transform="matrix(0.999999973871937 0 0 0.999999973871937 89.2227334656703 86.295310513132)" fill="none" stroke="#000000" stroke-width="0.72" stroke-linecap="square" stroke-linejoin="miter" stroke-miterlimit="2" d="M0 11.7097L6.36396 0" sodipodi:nodetypes="cc"/><path id="shape46" transform="matrix(0.999999973871937 0 0 0.999999973871937 87.6953828371193 77.00392752278)" fill="none" stroke="#000000" stroke-width="0.72" stroke-linecap="square" stroke-linejoin="miter" stroke-miterlimit="2" d="M7.89131 9.29138L0 0" sodipodi:nodetypes="cc"/><path id="shape47" transform="matrix(0.999999973871937 0 0 0.999999973871937 87.6953828371193 76.7493690846882)" fill="none" stroke="#000000" stroke-width="0.72" stroke-linecap="square" stroke-linejoin="miter" stroke-miterlimit="2" d="M0 0.254558L11.7097 0" sodipodi:nodetypes="cc"/><path id="shape48" transform="matrix(0.999999973871937 0 0 0.999999973871937 94.1866230084611 66.5670315610148)" fill="none" stroke="#000000" stroke-width="0.72" stroke-linecap="square" stroke-linejoin="miter" stroke-miterlimit="2" d="M5.21845 10.1823L0 0" sodipodi:nodetypes="cc"/><path id="shape49" transform="matrix(0.999999973871937 0 0 0.999999973871937 94.1866230084611 66.4397523419688)" fill="none" stroke="#000000" stroke-width="0.72" stroke-linecap="square" stroke-linejoin="miter" stroke-miterlimit="2" d="M0 0.127279L9.29138 0" sodipodi:nodetypes="cc"/><path id="shape50" transform="matrix(0.999999973871937 0 0 0.999999973871937 100.423304741711 57.1483693516169)" fill="none" stroke="#000000" stroke-width="0.72" stroke-linecap="square" stroke-linejoin="miter" stroke-miterlimit="2" d="M3.0547 9.29138L0 0" sodipodi:nodetypes="cc"/><path id="shape51" transform="matrix(0.999999973871937 0 0 0.999999973871937 100.423304741711 57.1483693516169)" fill="none" stroke="#000000" stroke-width="0.72" stroke-linecap="square" stroke-linejoin="miter" stroke-miterlimit="2" d="M0 0L6.1094 0" sodipodi:nodetypes="cc"/><path id="shape52" transform="matrix(0.999999973871937 0 0 0.999999973871937 106.341790383178 47.0296723024333)" fill="none" stroke="#000000" stroke-width="0.72" stroke-linecap="square" stroke-linejoin="miter" stroke-miterlimit="2" d="M0 9.99142L0.445477 0" sodipodi:nodetypes="cc"/><path id="shape53" transform="matrix(0.999999973871937 0 0 0.999999973871937 67.2034264421781 98.1322747762378)" fill="none" stroke="#000000" stroke-width="0.72" stroke-linecap="square" stroke-linejoin="miter" stroke-miterlimit="2" d="M0 0L7.00036 0" sodipodi:nodetypes="cc"/><path id="shape54" transform="matrix(0.999999973871937 0 0 0.999999973871937 67.8398225172509 86.6771454249259)" fill="none" stroke="#000000" stroke-width="0.72" stroke-linecap="square" stroke-linejoin="miter" stroke-miterlimit="2" d="M6.36396 11.4551L0 0" sodipodi:nodetypes="cc"/><path id="shape55" transform="matrix(0.999999973871937 0 0 0.999999973871937 67.8398225172509 76.3675290087454)" fill="none" stroke="#000000" stroke-width="0.72" stroke-linecap="square" stroke-linejoin="miter" stroke-miterlimit="2" d="M0 10.3096L7.63675 0" sodipodi:nodetypes="cc"/><path id="shape56" transform="matrix(0.999999973871937 0 0 0.999999973871937 64.0214460668137 76.2402497937308)" fill="none" stroke="#000000" stroke-width="0.72" stroke-linecap="square" stroke-linejoin="miter" stroke-miterlimit="2" d="M11.4551 0.127279L0 0" sodipodi:nodetypes="cc"/><path id="shape57" transform="matrix(0.999999973871937 0 0 0.999999973871937 64.0214460668137 66.567029452623)" fill="none" stroke="#000000" stroke-width="0.72" stroke-linecap="square" stroke-linejoin="miter" stroke-miterlimit="2" d="M0 9.67322L5.09117 0" sodipodi:nodetypes="cc"/><path id="shape58" transform="matrix(0.999999973871937 0 0 0.999999973871937 60.0757904013619 66.567029452623)" fill="none" stroke="#000000" stroke-width="0.72" stroke-linecap="square" stroke-linejoin="miter" stroke-miterlimit="2" d="M9.03682 0L0 0" sodipodi:nodetypes="cc"/><path id="shape59" transform="matrix(0.999999973871937 0 0 0.999999973871937 60.0757904013619 57.4029259715736)" fill="none" stroke="#000000" stroke-width="0.72" stroke-linecap="square" stroke-linejoin="miter" stroke-miterlimit="2" d="M0 9.1641L3.0547 0" sodipodi:nodetypes="cc"/><path id="shape60" transform="matrix(0.999999973871937 0 0 0.999999973871937 57.0210892410121 57.4029259715736)" fill="none" stroke="#000000" stroke-width="0.72" stroke-linecap="square" stroke-linejoin="miter" stroke-miterlimit="2" d="M6.1094 0L0 0" sodipodi:nodetypes="cc"/><path id="shape61" transform="matrix(0.999999973871937 0 0 0.999999973871937 57.0210892410121 46.5841926953347)" fill="none" stroke="#000000" stroke-width="0.72" stroke-linecap="square" stroke-linejoin="miter" stroke-miterlimit="2" d="M0 10.8187L0.381838 0" sodipodi:nodetypes="cc"/><path id="shape62" transform="matrix(0.999999973871937 0 0 0.999999973871937 68.3100014167582 86.2200006339663)" fill="none" stroke="#000000" stroke-width="0.72" stroke-linecap="square" stroke-linejoin="miter" stroke-miterlimit="2" d="M0 0L27.9 0" sodipodi:nodetypes="cc"/><path id="shape63" transform="matrix(0.999999973871937 0 0 0.999999973871937 14.8500012967929 33.8400008712051)" fill="none" stroke="#000000" stroke-width="0.72" stroke-linecap="square" stroke-linejoin="miter" stroke-miterlimit="2" d="M0 0L2.97 2.97" sodipodi:nodetypes="cc"/><path id="shape64" transform="matrix(0.999999973871937 0 0 0.999999973871937 17.8200013732551 30.4200007831578)" fill="none" stroke="#000000" stroke-width="0.72" stroke-linecap="square" stroke-linejoin="miter" stroke-miterlimit="2" d="M0 6.39L9.54 0" sodipodi:nodetypes="cc"/><path id="shape65" transform="matrix(0.999999973871937 0 0 0.999999973871937 29.1600016652014 30.1500007762067)" fill="none" stroke="#000000" stroke-width="0.72" stroke-linecap="square" stroke-linejoin="miter" stroke-miterlimit="2" d="M0 0L10.35 6.93" sodipodi:nodetypes="cc"/><path id="shape66" transform="matrix(0.999999973871937 0 0 0.999999973871937 39.5100019316605 24.2100006232824)" fill="none" stroke="#000000" stroke-width="0.72" stroke-linecap="square" stroke-linejoin="miter" stroke-miterlimit="2" d="M0 12.87L5.58 0" sodipodi:nodetypes="cc"/><path id="shape67" transform="matrix(0.999999973871937 0 0 0.999999973871937 45.0900020753166 16.5600004263344)" fill="none" stroke="#000000" stroke-width="0.72" stroke-linecap="square" stroke-linejoin="miter" stroke-miterlimit="2" d="M0 7.65L1.71 0" sodipodi:nodetypes="cc"/><path id="shape68" transform="matrix(0.999999973871937 0 0 0.999999973871937 46.8000021193403 16.5600004263344)" fill="none" stroke="#000000" stroke-width="0.72" stroke-linecap="square" stroke-linejoin="miter" stroke-miterlimit="2" d="M0 0L6.48 8.19" sodipodi:nodetypes="cc"/><path id="shape69" transform="matrix(0.999999973871937 0 0 0.999999973871937 53.2800022861667 16.8300004332855)" fill="none" stroke="#000000" stroke-width="0.72" stroke-linecap="square" stroke-linejoin="miter" stroke-miterlimit="2" d="M0 7.92L7.02 0" sodipodi:nodetypes="cc"/><path id="shape70" transform="matrix(0.999999973871937 0 0 0.999999973871937 60.3000024668955 16.8300004332855)" fill="none" stroke="#000000" stroke-width="0.72" stroke-linecap="square" stroke-linejoin="miter" stroke-miterlimit="2" d="M0 0L7.38 7.83" sodipodi:nodetypes="cc"/><path id="shape71" transform="matrix(0.999999973871937 0 0 0.999999973871937 67.6800026568923 16.2900004193833)" fill="none" stroke="#000000" stroke-width="0.72" stroke-linecap="square" stroke-linejoin="miter" stroke-miterlimit="2" d="M0 8.37L7.2 0" sodipodi:nodetypes="cc"/><path id="shape72" transform="matrix(0.999999973871937 0 0 0.999999973871937 74.8800028422551 16.2900004193833)" fill="none" stroke="#000000" stroke-width="0.72" stroke-linecap="square" stroke-linejoin="miter" stroke-miterlimit="2" d="M0 0L7.2 8.46" sodipodi:nodetypes="cc"/><path id="shape73" transform="matrix(0.999999973871937 0 0 0.999999973871937 82.0800030276179 16.3800004217003)" fill="none" stroke="#000000" stroke-width="0.72" stroke-linecap="square" stroke-linejoin="miter" stroke-miterlimit="2" d="M0 8.37L6.75 0" sodipodi:nodetypes="cc"/><path id="shape74" transform="matrix(0.999999973871937 0 0 0.999999973871937 88.8300032013955 16.3800004217003)" fill="none" stroke="#000000" stroke-width="0.72" stroke-linecap="square" stroke-linejoin="miter" stroke-miterlimit="2" d="M0 0L7.74 8.19" sodipodi:nodetypes="cc"/><path id="shape75" transform="matrix(0.999999973871937 0 0 0.999999973871937 96.5700034006604 16.6500004286514)" fill="none" stroke="#000000" stroke-width="0.72" stroke-linecap="square" stroke-linejoin="miter" stroke-miterlimit="2" d="M0 7.92L7.38 0" sodipodi:nodetypes="cc"/><path id="shape76" transform="matrix(0.999999973871937 0 0 0.999999973871937 103.950003590657 16.6500004286514)" fill="none" stroke="#000000" stroke-width="0.72" stroke-linecap="square" stroke-linejoin="miter" stroke-miterlimit="2" d="M0 0L6.57 7.38" sodipodi:nodetypes="cc"/><path id="shape77" transform="matrix(0.999999973871937 0 0 0.999999973871937 110.520003759801 16.9200004356026)" fill="none" stroke="#000000" stroke-width="0.72" stroke-linecap="square" stroke-linejoin="miter" stroke-miterlimit="2" d="M0 7.11L6.57 0" sodipodi:nodetypes="cc"/><path id="shape78" transform="matrix(0.999999973871937 0 0 0.999999973871937 117.090003928944 16.9200004356026)" fill="none" stroke="#000000" stroke-width="0.72" stroke-linecap="square" stroke-linejoin="miter" stroke-miterlimit="2" d="M0 0L1.98 7.38" sodipodi:nodetypes="cc"/><path id="shape79" transform="matrix(0.999999973871937 0 0 0.999999973871937 44.5500020614144 24.5700006325505)" fill="none" stroke="#000000" stroke-width="0.72" stroke-linecap="square" stroke-linejoin="miter" stroke-miterlimit="2" d="M0 0L5.94 12.06" sodipodi:nodetypes="cc"/><path id="shape80" transform="matrix(0.999999973871937 0 0 0.999999973871937 113.405785663973 23.9284933029228)" fill="none" stroke="#000000" stroke-width="0.72" stroke-linecap="square" stroke-linejoin="miter" stroke-miterlimit="2" d="M0 12.9825L5.85484 0" sodipodi:nodetypes="cc"/><path id="shape81" transform="matrix(0.999999973871937 0 0 0.999999973871937 119.260629770007 23.9284933029228)" fill="none" stroke="#000000" stroke-width="0.72" stroke-linecap="square" stroke-linejoin="miter" stroke-miterlimit="2" d="M0 0L5.60029 13.1098" sodipodi:nodetypes="cc"/><path id="shape82" transform="matrix(0.999999973871937 0 0 0.999999973871937 124.860915436648 29.6560581892607)" fill="none" stroke="#000000" stroke-width="0.72" stroke-linecap="square" stroke-linejoin="miter" stroke-miterlimit="2" d="M0 7.38219L10.3096 0" sodipodi:nodetypes="cc"/><path id="shape83" transform="matrix(0.999999973871937 0 0 0.999999973871937 135.170532232057 29.6560581892607)" fill="none" stroke="#000000" stroke-width="0.72" stroke-linecap="square" stroke-linejoin="miter" stroke-miterlimit="2" d="M0 0L11.2006 7.50947" sodipodi:nodetypes="cc"/><path id="shape84" transform="matrix(0.999999973871937 0 0 0.999999973871937 146.37110356534 34.3653893180274)" fill="none" stroke="#000000" stroke-width="0.72" stroke-linecap="square" stroke-linejoin="miter" stroke-miterlimit="2" d="M0 2.80014L2.92742 0" sodipodi:nodetypes="cc"/><path id="shape85" transform="matrix(0.999999973871937 0 0 0.999999973871937 116.842318746047 16.1644600921664)" fill="none" stroke="#000000" stroke-width="0.72" stroke-linecap="square" stroke-linejoin="miter" stroke-miterlimit="2" d="M0 0L5.34573 0.127279" sodipodi:nodetypes="cc"/><path id="shape86" transform="matrix(0.999999973871937 0 0 0.999999973871937 120.787974359095 12.0915252657938)" fill="none" stroke="#000000" stroke-width="0.72" stroke-linecap="square" stroke-linejoin="miter" stroke-miterlimit="2" d="M1.40007 4.20021L0 0" sodipodi:nodetypes="cc"/><path id="shape87" transform="matrix(0.999999973871937 0 0 0.999999973871937 42.2566997380982 16.4190185188146)" fill="none" stroke="#000000" stroke-width="0.72" stroke-linecap="square" stroke-linejoin="miter" stroke-miterlimit="2" d="M4.58205 0L0 0" sodipodi:nodetypes="cc"/><path id="shape88" transform="matrix(0.999999973871937 0 0 0.999999973871937 42.2566997380982 11.9642460524696)" fill="none" stroke="#000000" stroke-width="0.72" stroke-linecap="square" stroke-linejoin="miter" stroke-miterlimit="2" d="M0 4.45477L0.381838 0" sodipodi:nodetypes="cc"/><path id="shape41" transform="matrix(1.04164227366513 0 0 0.999999930284033 -3.11834094675496 209.149976632802)" fill="none" stroke="#3b2300" stroke-width="2.16" stroke-linecap="square" stroke-linejoin="miter" stroke-miterlimit="2" d="M0 0L160.92 0.18" sodipodi:nodetypes="cc"/><path id="shape51" transform="matrix(1.04164227366513 0 0 0.999999930284032 -2.95479744592005 207.513890170558)" fill="none" stroke="#297f00" stroke-width="1.44" stroke-linecap="square" stroke-linejoin="miter" stroke-miterlimit="2" d="M0 0L161.135 0.127279" sodipodi:nodetypes="cc"/><path id="shape02" transform="matrix(0.999999898987142 0 0 0.936540981401049 7.4641860621907 37.55658848332)" fill="none" stroke="#737373" stroke-width="2.16" stroke-linecap="square" stroke-linejoin="miter" stroke-miterlimit="2" d="M0 0L0 11.1415" sodipodi:nodetypes="cc"/><path id="shape021" transform="matrix(0.999999897524058 0 0 0.93654098003081 38.8345865446307 37.6357727489695)" fill="none" stroke="#737373" stroke-width="2.16" stroke-linecap="square" stroke-linejoin="miter" stroke-miterlimit="2" d="M0 0L0 11.1415" sodipodi:nodetypes="cc"/><path id="shape022" transform="matrix(0.999999897524058 0 0 0.93654098003081 67.5994217334682 26.0202738787672)" fill="none" stroke="#737373" stroke-width="2.16" stroke-linecap="square" stroke-linejoin="miter" stroke-miterlimit="2" d="M0 0L0 11.1415" sodipodi:nodetypes="cc"/><path id="shape023" transform="matrix(0.999999897524058 0 0 0.93654098003081 96.4918038963441 26.0202738787672)" fill="none" stroke="#737373" stroke-width="2.16" stroke-linecap="square" stroke-linejoin="miter" stroke-miterlimit="2" d="M0 0L0 11.1415" sodipodi:nodetypes="cc"/><path id="shape024" transform="matrix(0.999999897524058 0 0 0.93654098003081 125.414582463863 37.6357728370695)" fill="none" stroke="#737373" stroke-width="2.16" stroke-linecap="square" stroke-linejoin="miter" stroke-miterlimit="2" d="M0 0L0 11.1415" sodipodi:nodetypes="cc"/><path id="shape025" transform="matrix(0.999999897524058 0 0 0.93654098003081 156.374581521433 37.8043502256186)" fill="none" stroke="#737373" stroke-width="2.16" stroke-linecap="square" stroke-linejoin="miter" stroke-miterlimit="2" d="M0 0L0 11.1415" sodipodi:nodetypes="cc"/><circle id="shape015" transform="matrix(1.43710234785746 0 0 1.4634616026503 6.2887469704727 48.9732267056293)" r="0.719999999999999" cx="0.719999999999999" cy="0.719999999999999" fill="#d00000" fill-rule="evenodd" stroke-opacity="0" stroke="#000000" stroke-width="0" stroke-linecap="square" stroke-linejoin="bevel"/><circle id="shape0151" transform="matrix(1.43710232707978 0 0 1.46346158149151 37.8331757843166 49.0106105856464)" r="0.719999999999999" cx="0.719999999999999" cy="0.719999999999999" fill="#d00000" fill-rule="evenodd" stroke-opacity="0" stroke="#000000" stroke-width="0" stroke-linecap="square" stroke-linejoin="bevel"/><circle id="shape0152" transform="matrix(1.43710232707978 0 0 1.46346158149151 66.5431751796003 37.4906105192567)" r="0.719999999999999" cx="0.719999999999999" cy="0.719999999999999" fill="#d00000" fill-rule="evenodd" stroke-opacity="0" stroke="#000000" stroke-width="0" stroke-linecap="square" stroke-linejoin="bevel"/><circle id="shape0153" transform="matrix(1.43710228029065 0 0 1.46346153384418 95.4776006044273 37.4829947413867)" r="0.719999999999999" cx="0.719999999999999" cy="0.719999999999999" fill="#d00000" fill-rule="evenodd" stroke-opacity="0" stroke="#000000" stroke-width="0" stroke-linecap="square" stroke-linejoin="bevel"/><circle id="shape0154" transform="matrix(1.43710228029065 0 0 1.46346153384418 124.27760093431 48.912994872309)" r="0.719999999999999" cx="0.719999999999999" cy="0.719999999999999" fill="#d00000" fill-rule="evenodd" stroke-opacity="0" stroke="#000000" stroke-width="0" stroke-linecap="square" stroke-linejoin="bevel"/><circle id="shape0155" transform="matrix(1.43710225209593 0 0 1.46346150513232 155.237027248396 49.0853784579044)" r="0.719999999999999" cx="0.719999999999999" cy="0.719999999999999" fill="#d00000" fill-rule="evenodd" stroke-opacity="0" stroke="#000000" stroke-width="0" stroke-linecap="square" stroke-linejoin="bevel"/>
</svg>
