<?xml version="1.0" standalone="no"?>
<!DOCTYPE svg PUBLIC "-//W3C//DTD SVG 20010904//EN" "http://www.w3.org/TR/2001/REC-SVG-20010904/DTD/svg10.dtd">
<!-- Created using Krita: https://krita.org -->
<svg xmlns="http://www.w3.org/2000/svg" 
    xmlns:xlink="http://www.w3.org/1999/xlink"
    xmlns:krita="http://krita.org/namespaces/svg/krita"
    xmlns:sodipodi="http://sodipodi.sourceforge.net/DTD/sodipodi-0.dtd"
    width="198.72pt"
    height="138.24pt"
    viewBox="0 0 198.72 138.24">
<defs/>
<path id="shape0" transform="matrix(0.999999985591323 0 0 0.999999985591323 50.7207712742268 24.4376104459991)" fill="#bfbfbf" fill-rule="evenodd" stroke="#000000" stroke-width="1.44" stroke-linecap="square" stroke-linejoin="bevel" d="M6.17304 0.127279L9.99142 0L3.88202 111.115L0 111.115Z" sodipodi:nodetypes="ccccc"/><path id="shape01" transform="matrix(0.999999973886393 0 0 0.999999973886393 138.960007457039 24.2100011088684)" fill="#bfbfbf" fill-rule="evenodd" stroke="#000000" stroke-width="1.44" stroke-linecap="square" stroke-linejoin="bevel" d="M0 0L3.78 0L10.1475 111.352L6.27749 111.33Z" sodipodi:nodetypes="ccccc"/><path id="shape0" transform="translate(8.28000049518737, 24.1200016311539)" fill="none" stroke="#000000" stroke-width="1.44" stroke-linecap="square" stroke-linejoin="miter" stroke-miterlimit="2" d="M0 0.18L182.52 0" sodipodi:nodetypes="cc"/><path id="shape1" transform="translate(8.10000053513786, 16.2000015282527)" fill="none" stroke="#000000" stroke-width="1.44" stroke-linecap="square" stroke-linejoin="miter" stroke-miterlimit="2" d="M0 8.1L38.34 0" sodipodi:nodetypes="cc"/><path id="shape2" transform="translate(27.5400011880451, 4.14000112320839)" fill="none" stroke="#000000" stroke-width="1.44" stroke-linecap="square" stroke-linejoin="miter" stroke-miterlimit="2" d="M18.9 12.06L0 0" sodipodi:nodetypes="cc"/><path id="shape3" transform="translate(24.4800010852727, 4.14000112320839)" fill="none" stroke="#000000" stroke-width="1.44" stroke-linecap="square" stroke-linejoin="miter" stroke-miterlimit="2" d="M3.06 0L0 0" sodipodi:nodetypes="cc"/><path id="shape4" transform="translate(27.900001200136, 4.14000112320839)" fill="none" stroke="#000000" stroke-width="1.44" stroke-linecap="square" stroke-linejoin="miter" stroke-miterlimit="2" d="M0 0L30.78 8.82" sodipodi:nodetypes="cc"/><path id="shape5" transform="translate(58.6800022339059, 12.9600014194348)" fill="none" stroke="#000000" stroke-width="1.44" stroke-linecap="square" stroke-linejoin="miter" stroke-miterlimit="2" d="M0 0L81.9 0" sodipodi:nodetypes="cc"/><path id="shape6" transform="translate(140.58000498458, 3.78000111111751)" fill="none" stroke="#000000" stroke-width="1.44" stroke-linecap="square" stroke-linejoin="miter" stroke-miterlimit="2" d="M0 9.18L32.04 0" sodipodi:nodetypes="cc"/><path id="shape7" transform="translate(153.000005401715, 3.7800011111175)" fill="none" stroke="#000000" stroke-width="1.44" stroke-linecap="square" stroke-linejoin="miter" stroke-miterlimit="2" d="M19.62 0L0 12.6" sodipodi:nodetypes="cc"/><path id="shape8" transform="translate(153.000005401715, 16.3800015342982)" fill="none" stroke="#000000" stroke-width="1.44" stroke-linecap="square" stroke-linejoin="miter" stroke-miterlimit="2" d="M0 0L37.44 7.38" sodipodi:nodetypes="cc"/><path id="shape9" transform="translate(172.080012265282, 3.87000249115484)" fill="none" stroke="#000000" stroke-width="1.44" stroke-linecap="square" stroke-linejoin="miter" stroke-miterlimit="2" d="M0 0L3.15 0" sodipodi:nodetypes="cc"/><path id="shape10" transform="translate(23.580001140138, 19.2600017731526)" fill="none" stroke="#000000" stroke-width="0.72" stroke-linecap="square" stroke-linejoin="miter" stroke-miterlimit="2" d="M0 5.22L6.12 0" sodipodi:nodetypes="cc"/><path id="shape11" transform="translate(29.7000013613215, 19.2600017731526)" fill="none" stroke="#000000" stroke-width="0.72" stroke-linecap="square" stroke-linejoin="miter" stroke-miterlimit="2" d="M0 0L7.2 4.86" sodipodi:nodetypes="cc"/><path id="shape12" transform="translate(36.9000016215374, 16.0200016560554)" fill="none" stroke="#000000" stroke-width="0.72" stroke-linecap="square" stroke-linejoin="miter" stroke-miterlimit="2" d="M0 8.1L9.54 0" sodipodi:nodetypes="cc"/><path id="shape13" transform="translate(46.4400019663234, 16.0200016560554)" fill="none" stroke="#000000" stroke-width="0.72" stroke-linecap="square" stroke-linejoin="miter" stroke-miterlimit="2" d="M0 0L12.78 8.28" sodipodi:nodetypes="cc"/><path id="shape14" transform="translate(59.2200024282066, 13.0243394613407)" fill="none" stroke="#000000" stroke-width="0.72" stroke-linecap="square" stroke-linejoin="miter" stroke-miterlimit="2" d="M0 11.2757L11.4368 0" sodipodi:nodetypes="cc"/><path id="shape15" transform="translate(70.7204707855077, 13.278897913394)" fill="none" stroke="#000000" stroke-width="0.72" stroke-linecap="square" stroke-linejoin="miter" stroke-miterlimit="2" d="M0 0L14.5995 11.0211" sodipodi:nodetypes="cc"/><path id="shape16" transform="translate(85.3200033714892, 13.1400015519691)" fill="none" stroke="#000000" stroke-width="0.72" stroke-linecap="square" stroke-linejoin="miter" stroke-miterlimit="2" d="M0 11.16L14.76 0" sodipodi:nodetypes="cc"/><path id="shape17" transform="translate(100.080003904932, 13.1400015519691)" fill="none" stroke="#000000" stroke-width="0.72" stroke-linecap="square" stroke-linejoin="miter" stroke-miterlimit="2" d="M0 0L14.22 10.8" sodipodi:nodetypes="cc"/><path id="shape18" transform="translate(114.300004418858, 13.1400015519691)" fill="none" stroke="#000000" stroke-width="0.72" stroke-linecap="square" stroke-linejoin="miter" stroke-miterlimit="2" d="M0 10.8L14.76 0" sodipodi:nodetypes="cc"/><path id="shape19" transform="translate(129.060004952301, 13.1400015519691)" fill="none" stroke="#000000" stroke-width="0.72" stroke-linecap="square" stroke-linejoin="miter" stroke-miterlimit="2" d="M0 0L11.52 10.8" sodipodi:nodetypes="cc"/><path id="shape20" transform="translate(140.760005375152, 16.0200016560554)" fill="none" stroke="#000000" stroke-width="0.72" stroke-linecap="square" stroke-linejoin="miter" stroke-miterlimit="2" d="M0 7.92L12.42 0" sodipodi:nodetypes="cc"/><path id="shape21" transform="translate(141.120005388162, 12.9600015454637)" fill="none" stroke="#000000" stroke-width="0.72" stroke-linecap="square" stroke-linejoin="miter" stroke-miterlimit="2" d="M12.06 3.06L0 0" sodipodi:nodetypes="cc"/><path id="shape22" transform="translate(153.180005824024, 16.0200016560554)" fill="none" stroke="#000000" stroke-width="0.72" stroke-linecap="square" stroke-linejoin="miter" stroke-miterlimit="2" d="M0 0L9.18 8.28" sodipodi:nodetypes="cc"/><path id="shape23" transform="translate(162.360006155799, 19.8337742069061)" fill="none" stroke="#000000" stroke-width="0.72" stroke-linecap="square" stroke-linejoin="miter" stroke-miterlimit="2" d="M0 4.46623L8.14737 0" sodipodi:nodetypes="cc"/><path id="shape24" transform="translate(170.825569695874, 19.6428553809358)" fill="none" stroke="#000000" stroke-width="0.72" stroke-linecap="square" stroke-linejoin="miter" stroke-miterlimit="2" d="M0 0L5.39444 5.01715" sodipodi:nodetypes="cc"/><path id="shape25" transform="translate(46.0800019533126, 16.5600016755716)" fill="none" stroke="#000000" stroke-width="0.72" stroke-linecap="square" stroke-linejoin="miter" stroke-miterlimit="2" d="M0 7.74L0 0" sodipodi:nodetypes="cc"/><path id="shape26" transform="translate(58.8600024151958, 13.1400015519691)" fill="none" stroke="#000000" stroke-width="0.72" stroke-linecap="square" stroke-linejoin="miter" stroke-miterlimit="2" d="M0 10.98L0 0" sodipodi:nodetypes="cc"/><path id="shape27" transform="translate(70.740002844552, 12.9600015454637)" fill="none" stroke="#000000" stroke-width="0.72" stroke-linecap="square" stroke-linejoin="miter" stroke-miterlimit="2" d="M0 11.34L0 0" sodipodi:nodetypes="cc"/><path id="shape28" transform="translate(85.1400033649838, 13.5000015649799)" fill="none" stroke="#000000" stroke-width="0.72" stroke-linecap="square" stroke-linejoin="miter" stroke-miterlimit="2" d="M0 10.98L0 0" sodipodi:nodetypes="cc"/><path id="shape29" transform="translate(99.8100076442269, 13.0500032399491)" fill="none" stroke="#000000" stroke-width="0.72" stroke-linecap="square" stroke-linejoin="miter" stroke-miterlimit="2" d="M0.09 11.07L0 0" sodipodi:nodetypes="cc"/><path id="shape30" transform="translate(114.249965453068, 13.2788976597066)" fill="none" stroke="#000000" stroke-width="0.72" stroke-linecap="square" stroke-linejoin="miter" stroke-miterlimit="2" d="M0.254558 10.8187L0 0" sodipodi:nodetypes="cc"/><path id="shape31" transform="translate(128.632517920579, 13.1516184343304)" fill="none" stroke="#000000" stroke-width="0.72" stroke-linecap="square" stroke-linejoin="miter" stroke-miterlimit="2" d="M0.127279 11.2006L0 0" sodipodi:nodetypes="cc"/><path id="shape32" transform="translate(140.724044331319, 13.1516184343304)" fill="none" stroke="#000000" stroke-width="0.72" stroke-linecap="square" stroke-linejoin="miter" stroke-miterlimit="2" d="M0 10.8187L0.127279 0" sodipodi:nodetypes="cc"/><path id="shape33" transform="translate(153.197408418188, 16.7154367448643)" fill="none" stroke="#000000" stroke-width="0.72" stroke-linecap="square" stroke-linejoin="miter" stroke-miterlimit="2" d="M0.127279 7.00036L0 0" sodipodi:nodetypes="cc"/><path id="shape34" transform="translate(36.9914756497084, 18.2427874493788)" fill="none" stroke="#000000" stroke-width="0.72" stroke-linecap="square" stroke-linejoin="miter" stroke-miterlimit="2" d="M0 6.1094L0.127279 0" sodipodi:nodetypes="cc"/><path id="shape35" transform="translate(162.743350321404, 17.9882289986264)" fill="none" stroke="#000000" stroke-width="0.72" stroke-linecap="square" stroke-linejoin="miter" stroke-miterlimit="2" d="M0.127279 6.1094L0 0" sodipodi:nodetypes="cc"/><path id="shape36" transform="translate(46.0282997685552, 12.7697799801526)" fill="none" stroke="#000000" stroke-width="0.72" stroke-linecap="square" stroke-linejoin="miter" stroke-miterlimit="2" d="M0 3.43654L11.3279 0" sodipodi:nodetypes="cc"/><path id="shape37" transform="translate(57.4199995164726, 24.2999993833703)" fill="none" stroke="#000000" stroke-width="0.36" stroke-linecap="square" stroke-linejoin="miter" stroke-miterlimit="2" d="M12.96 0L0 21.42" sodipodi:nodetypes="cc"/><path id="shape38" transform="translate(57.4199995164726, 45.7199992493224)" fill="none" stroke="#000000" stroke-width="0.36" stroke-linecap="square" stroke-linejoin="miter" stroke-miterlimit="2" d="M0 0L89.64 88.02" sodipodi:nodetypes="cc"/><path id="shape39" transform="translate(52.1999995491397, 45.5399992504488)" fill="none" stroke="#000000" stroke-width="0.36" stroke-linecap="square" stroke-linejoin="miter" stroke-miterlimit="2" d="M0 88.56L89.82 0" sodipodi:nodetypes="cc"/><path id="shape40" transform="translate(128.879999069271, 23.9399993856232)" fill="none" stroke="#000000" stroke-width="0.36" stroke-linecap="square" stroke-linejoin="miter" stroke-miterlimit="2" d="M13.14 21.6L0 0" sodipodi:nodetypes="cc"/><path id="shape126" transform="matrix(0.99999989944264 0 0 0.99999989944264 0 137.143366324996)" fill="none" stroke="#3b2300" stroke-width="2.16" stroke-linecap="square" stroke-linejoin="miter" stroke-miterlimit="2" d="M0 0L198.72 0.241636" sodipodi:nodetypes="cc"/><path id="shape03" transform="matrix(0.999999876875722 0 0 0.999999876875722 8.61751293956269 25.789332580859)" fill="none" stroke="#737373" stroke-width="2.16" stroke-linecap="square" stroke-linejoin="miter" stroke-miterlimit="2" d="M0 0C0 5.4518 0 10.9036 0 16.3554" sodipodi:nodetypes="cc"/><circle id="shape017" transform="matrix(1.43751217944339 0 0 1.45148922187452 5.34844853854197 43.0035188174512)" r="0.719999999999999" cx="0.719999999999999" cy="0.719999999999999" fill="#d00000" fill-rule="evenodd" stroke-opacity="0" stroke="#000000" stroke-width="0" stroke-linecap="square" stroke-linejoin="bevel"/><circle id="shape012" transform="matrix(1.51019704350728 0 0 1.46570350945213 9.64909444514226 42.9830502433394)" r="0.719999999999999" cx="0.719999999999999" cy="0.719999999999999" fill="#d00000" fill-rule="evenodd" stroke-opacity="0" stroke="#000000" stroke-width="0" stroke-linecap="square" stroke-linejoin="bevel"/><path id="shape031" transform="matrix(0.999999858371812 0 0 0.999999858371812 37.197913379675 25.6752724413803)" fill="none" stroke="#737373" stroke-width="2.16" stroke-linecap="square" stroke-linejoin="miter" stroke-miterlimit="2" d="M0 0C0 5.4518 0 10.9036 0 16.3554" sodipodi:nodetypes="cc"/><circle id="shape0171" transform="matrix(1.43751215284379 0 0 1.45148919501629 33.9288490391448 42.8894583594426)" r="0.719999999999999" cx="0.719999999999999" cy="0.719999999999999" fill="#d00000" fill-rule="evenodd" stroke-opacity="0" stroke="#000000" stroke-width="0" stroke-linecap="square" stroke-linejoin="bevel"/><circle id="shape0121" transform="matrix(1.51019701556273 0 0 1.46570348233088 38.2294948661662 42.8689897857096)" r="0.719999999999999" cx="0.719999999999999" cy="0.719999999999999" fill="#d00000" fill-rule="evenodd" stroke-opacity="0" stroke="#000000" stroke-width="0" stroke-linecap="square" stroke-linejoin="bevel"/><path id="shape032" transform="matrix(0.999999858371812 0 0 0.999999858371812 85.5279176686037 25.8552724511962)" fill="none" stroke="#737373" stroke-width="2.16" stroke-linecap="square" stroke-linejoin="miter" stroke-miterlimit="2" d="M0 0C0 5.4518 0 10.9036 0 16.3554" sodipodi:nodetypes="cc"/><circle id="shape0172" transform="matrix(1.43751215284379 0 0 1.45148919501629 82.2588533280735 43.0694583692586)" r="0.719999999999999" cx="0.719999999999999" cy="0.719999999999999" fill="#d00000" fill-rule="evenodd" stroke-opacity="0" stroke="#000000" stroke-width="0" stroke-linecap="square" stroke-linejoin="bevel"/><circle id="shape0122" transform="matrix(1.51019701556273 0 0 1.46570348233088 86.559499155095 43.0489897955255)" r="0.719999999999999" cx="0.719999999999999" cy="0.719999999999999" fill="#d00000" fill-rule="evenodd" stroke-opacity="0" stroke="#000000" stroke-width="0" stroke-linecap="square" stroke-linejoin="bevel"/><path id="shape033" transform="matrix(0.999999858371812 0 0 0.999999858371812 114.44599363806 25.7660485108688)" fill="none" stroke="#737373" stroke-width="2.16" stroke-linecap="square" stroke-linejoin="miter" stroke-miterlimit="2" d="M0 0C0 5.4518 0 10.9036 0 16.3554" sodipodi:nodetypes="cc"/><circle id="shape0173" transform="matrix(1.43751215284379 0 0 1.45148919501629 111.176929297529 42.9802344289312)" r="0.719999999999999" cx="0.719999999999999" cy="0.719999999999999" fill="#d00000" fill-rule="evenodd" stroke-opacity="0" stroke="#000000" stroke-width="0" stroke-linecap="square" stroke-linejoin="bevel"/><circle id="shape0123" transform="matrix(1.51019701556273 0 0 1.46570348233088 115.477575124551 42.9597658551982)" r="0.719999999999999" cx="0.719999999999999" cy="0.719999999999999" fill="#d00000" fill-rule="evenodd" stroke-opacity="0" stroke="#000000" stroke-width="0" stroke-linecap="square" stroke-linejoin="bevel"/><path id="shape034" transform="matrix(0.999999858371812 0 0 0.999999858371812 162.772160147249 25.9351297378007)" fill="none" stroke="#737373" stroke-width="2.16" stroke-linecap="square" stroke-linejoin="miter" stroke-miterlimit="2" d="M0 0C0 5.4518 0 10.9036 0 16.3554" sodipodi:nodetypes="cc"/><circle id="shape0174" transform="matrix(1.43751215284379 0 0 1.45148919501629 159.503095806719 43.1493156558631)" r="0.719999999999999" cx="0.719999999999999" cy="0.719999999999999" fill="#d00000" fill-rule="evenodd" stroke-opacity="0" stroke="#000000" stroke-width="0" stroke-linecap="square" stroke-linejoin="bevel"/><circle id="shape0124" transform="matrix(1.51019701556273 0 0 1.46570348233088 163.80374163374 43.12884708213)" r="0.719999999999999" cx="0.719999999999999" cy="0.719999999999999" fill="#d00000" fill-rule="evenodd" stroke-opacity="0" stroke="#000000" stroke-width="0" stroke-linecap="square" stroke-linejoin="bevel"/><path id="shape035" transform="matrix(0.999999858371812 0 0 0.999999858371812 190.287922527042 25.7652725473904)" fill="none" stroke="#737373" stroke-width="2.16" stroke-linecap="square" stroke-linejoin="miter" stroke-miterlimit="2" d="M0 0C0 5.4518 0 10.9036 0 16.3554" sodipodi:nodetypes="cc"/><circle id="shape0175" transform="matrix(1.43751215284379 0 0 1.45148919501629 187.018858186511 42.9794584654528)" r="0.719999999999999" cx="0.719999999999999" cy="0.719999999999999" fill="#d00000" fill-rule="evenodd" stroke-opacity="0" stroke="#000000" stroke-width="0" stroke-linecap="square" stroke-linejoin="bevel"/><circle id="shape0125" transform="matrix(1.51019701556273 0 0 1.46570348233088 191.319504013533 42.9589898917198)" r="0.719999999999999" cx="0.719999999999999" cy="0.719999999999999" fill="#d00000" fill-rule="evenodd" stroke-opacity="0" stroke="#000000" stroke-width="0" stroke-linecap="square" stroke-linejoin="bevel"/><path id="shape127" transform="matrix(0.999999864284144 0 0 0.999999864284144 -1.77635677694621e-15 135.743290260411)" fill="none" stroke="#297f00" stroke-width="1.44" stroke-linecap="square" stroke-linejoin="miter" stroke-miterlimit="2" d="M0 0C61.44 0.0328129 137.28 0.0788988 198.72 0.111712" sodipodi:nodetypes="cc"/>
</svg>
