<?xml version="1.0" standalone="no"?>
<!DOCTYPE svg PUBLIC "-//W3C//DTD SVG 20010904//EN" "http://www.w3.org/TR/2001/REC-SVG-20010904/DTD/svg10.dtd">
<!-- Created using Krita: https://krita.org -->
<svg xmlns="http://www.w3.org/2000/svg" 
    xmlns:xlink="http://www.w3.org/1999/xlink"
    xmlns:krita="http://krita.org/namespaces/svg/krita"
    xmlns:sodipodi="http://sodipodi.sourceforge.net/DTD/sodipodi-0.dtd"
    width="113.76pt"
    height="285.12pt"
    viewBox="0 0 113.76 285.12">
<defs/>
<path id="shape0" transform="matrix(1.50476189362707 0 0 1.4999999889004 62.6286502225036 112.833034339185)" fill="none" stroke="#000000" stroke-width="1.44" stroke-linecap="square" stroke-linejoin="miter" stroke-miterlimit="2" d="M8.59969 112.878L0 0" sodipodi:nodetypes="cc"/><path id="shape1" transform="matrix(1.50476189362707 0 0 1.4999999889004 62.6286502225036 14.3189174561107)" fill="none" stroke="#000000" stroke-width="1.44" stroke-linecap="square" stroke-linejoin="miter" stroke-miterlimit="2" d="M0 65.6761L0 0" sodipodi:nodetypes="cc"/><path id="shape2" transform="matrix(1.50476189362707 0 0 1.4999999889004 56.3083277735266 5.53665122234819)" fill="none" stroke="#000000" stroke-width="1.44" stroke-linecap="square" stroke-linejoin="miter" stroke-miterlimit="2" d="M4.20021 5.85484L0 0" sodipodi:nodetypes="cc"/><path id="shape3" transform="matrix(1.50476189362707 0 0 1.4999999889004 50.5625800926387 5.53665122234819)" fill="none" stroke="#000000" stroke-width="1.44" stroke-linecap="square" stroke-linejoin="miter" stroke-miterlimit="2" d="M3.81838 0L0 5.85484" sodipodi:nodetypes="cc"/><path id="shape4" transform="matrix(1.50476189362707 0 0 1.4999999889004 50.5625800926387 14.3189174561107)" fill="none" stroke="#000000" stroke-width="1.44" stroke-linecap="square" stroke-linejoin="miter" stroke-miterlimit="2" d="M0 0L0.127279 65.8034" sodipodi:nodetypes="cc"/><path id="shape5" transform="matrix(1.50476189362707 0 0 1.4999999889004 37.7845734636785 113.023953170354)" fill="none" stroke="#000000" stroke-width="1.44" stroke-linecap="square" stroke-linejoin="miter" stroke-miterlimit="2" d="M8.61895 0L0 112.571" sodipodi:nodetypes="cc"/><path id="shape6" transform="matrix(1.50476189362707 0 0 1.4999999889004 20.3016426800146 129.442975031572)" fill="none" stroke="#000000" stroke-width="1.44" stroke-linecap="square" stroke-linejoin="miter" stroke-miterlimit="2" d="M19.3464 0L0 6.23668" sodipodi:nodetypes="cc"/><path id="shape7" transform="matrix(1.50476189362707 0 0 1.4999999889004 20.3016426800146 138.797997930898)" fill="none" stroke="#000000" stroke-width="1.44" stroke-linecap="square" stroke-linejoin="miter" stroke-miterlimit="2" d="M0 0L19.2192 0" sodipodi:nodetypes="cc"/><path id="shape8" transform="matrix(1.50476189362707 0 0 1.4999999889004 64.3523757103345 129.633893866253)" fill="none" stroke="#000000" stroke-width="1.44" stroke-linecap="square" stroke-linejoin="miter" stroke-miterlimit="2" d="M0 0L18.4555 6.1094" sodipodi:nodetypes="cc"/><path id="shape9" transform="matrix(1.50476189362707 0 0 1.4999999889004 64.7354255627721 138.416160261538)" fill="none" stroke="#000000" stroke-width="1.44" stroke-linecap="square" stroke-linejoin="miter" stroke-miterlimit="2" d="M18.2009 0.254558L0 0" sodipodi:nodetypes="cc"/><path id="shape10" transform="matrix(1.50476189362707 0 0 1.4999999889004 62.6286513743655 85.531643055146)" fill="none" stroke="#000000" stroke-width="1.44" stroke-linecap="square" stroke-linejoin="miter" stroke-miterlimit="2" d="M0 0L18.8373 6.1094" sodipodi:nodetypes="cc"/><path id="shape11" transform="matrix(1.50476189362707 0 0 1.4999999889004 62.6286513743655 94.5048282851114)" fill="none" stroke="#000000" stroke-width="1.44" stroke-linecap="square" stroke-linejoin="miter" stroke-miterlimit="2" d="M18.8373 0.127279L0 0" sodipodi:nodetypes="cc"/><path id="shape12" transform="matrix(1.50476189362707 0 0 1.4999999889004 22.5999417946401 85.9134807245062)" fill="none" stroke="#000000" stroke-width="1.44" stroke-linecap="square" stroke-linejoin="miter" stroke-miterlimit="2" d="M18.8373 0L0 5.85484" sodipodi:nodetypes="cc"/><path id="shape13" transform="matrix(1.50476189362707 0 0 1.4999999889004 22.5999417946401 94.5048282851114)" fill="none" stroke="#000000" stroke-width="1.44" stroke-linecap="square" stroke-linejoin="miter" stroke-miterlimit="2" d="M0 0.127279L18.5828 0" sodipodi:nodetypes="cc"/><path id="shape14" transform="matrix(1.50476189362707 0 0 1.4999999889004 63.203225152097 41.0475539246252)" fill="none" stroke="#000000" stroke-width="1.44" stroke-linecap="square" stroke-linejoin="miter" stroke-miterlimit="2" d="M0 0L17.1827 6.1094" sodipodi:nodetypes="cc"/><path id="shape15" transform="matrix(1.50476189362707 0 0 1.4999999889004 63.203225152097 50.2116578441424)" fill="none" stroke="#000000" stroke-width="1.44" stroke-linecap="square" stroke-linejoin="miter" stroke-miterlimit="2" d="M17.1827 0L0 0" sodipodi:nodetypes="cc"/><path id="shape16" transform="matrix(1.50476189362707 0 0 1.4999999889004 23.7490909758476 50.0207390124857)" fill="none" stroke="#000000" stroke-width="1.44" stroke-linecap="square" stroke-linejoin="miter" stroke-miterlimit="2" d="M17.8191 0L0 0.127279" sodipodi:nodetypes="cc"/><path id="shape17" transform="matrix(1.50476189362707 0 0 1.4999999889004 24.132140822219 41.2384727562818)" fill="none" stroke="#000000" stroke-width="1.44" stroke-linecap="square" stroke-linejoin="miter" stroke-miterlimit="2" d="M0 6.1094L17.5645 0" sodipodi:nodetypes="cc"/><path id="shape18" transform="matrix(1.50476189362707 0 0 1.4999999889004 29.3033137482322 13.9370798293869)" fill="none" stroke="#000000" stroke-width="1.44" stroke-linecap="square" stroke-linejoin="miter" stroke-miterlimit="2" d="M14.0007 0L0 4.58205" sodipodi:nodetypes="cc"/><path id="shape19" transform="matrix(1.50476189362707 0 0 1.4999999889004 29.3033137482322 20.4283201057115)" fill="none" stroke="#000000" stroke-width="1.44" stroke-linecap="square" stroke-linejoin="miter" stroke-miterlimit="2" d="M0 0.254558L13.7462 0" sodipodi:nodetypes="cc"/><path id="shape20" transform="matrix(1.50476189362707 0 0 1.4999999889004 63.5862749984683 14.5098363243567)" fill="none" stroke="#000000" stroke-width="1.44" stroke-linecap="square" stroke-linejoin="miter" stroke-miterlimit="2" d="M0 0L12.8552 3.94566" sodipodi:nodetypes="cc"/><path id="shape21" transform="matrix(1.50476189362707 0 0 1.4999999889004 63.3947500752827 20.4283201057115)" fill="none" stroke="#000000" stroke-width="1.44" stroke-linecap="square" stroke-linejoin="miter" stroke-miterlimit="2" d="M12.9825 0L0 0" sodipodi:nodetypes="cc"/><path id="shape23" transform="matrix(1.50476189362707 0 0 1.4999999889004 37.6491448399311 245.160014768565)" fill="none" stroke="#000000" stroke-width="0.72" stroke-linecap="square" stroke-linejoin="miter" stroke-miterlimit="2" d="M0 23.76L23.22 0" sodipodi:nodetypes="cc"/><path id="shape24" transform="matrix(1.50476189362707 0 0 1.4999999889004 43.0662879103063 210.060013386942)" fill="none" stroke="#000000" stroke-width="0.72" stroke-linecap="square" stroke-linejoin="miter" stroke-miterlimit="2" d="M19.62 23.4L0 0" sodipodi:nodetypes="cc"/><path id="shape25" transform="matrix(1.50476189362707 0 0 1.4999999889004 43.0662879103063 179.82001219662)" fill="none" stroke="#000000" stroke-width="0.72" stroke-linecap="square" stroke-linejoin="miter" stroke-miterlimit="2" d="M0 20.16L16.56 0" sodipodi:nodetypes="cc"/><path id="shape26" transform="matrix(1.50476189362707 0 0 1.4999999889004 46.8582880595688 155.790011250739)" fill="none" stroke="#000000" stroke-width="0.72" stroke-linecap="square" stroke-linejoin="miter" stroke-miterlimit="2" d="M14.04 16.02L0 0" sodipodi:nodetypes="cc"/><path id="shape27" transform="matrix(1.50476189362707 0 0 1.4999999889004 46.8582880595688 137.970010549299)" fill="none" stroke="#000000" stroke-width="0.72" stroke-linecap="square" stroke-linejoin="miter" stroke-miterlimit="2" d="M0 11.88L12.06 0" sodipodi:nodetypes="cc"/><path id="shape28" transform="matrix(1.50476189362707 0 0 1.4999999889004 48.8897142632885 138.780003633141)" fill="none" stroke="#000000" stroke-width="0.72" stroke-linecap="square" stroke-linejoin="miter" stroke-miterlimit="2" d="M0 0L11.52 12.15" sodipodi:nodetypes="cc"/><path id="shape29" transform="matrix(1.50476189362707 0 0 1.4999999889004 44.8268571639148 157.005003438085)" fill="none" stroke="#000000" stroke-width="0.72" stroke-linecap="square" stroke-linejoin="miter" stroke-miterlimit="2" d="M14.22 0L0 15.48" sodipodi:nodetypes="cc"/><path id="shape30" transform="matrix(1.50476189362707 0 0 1.4999999889004 44.8268571639148 180.225003189569)" fill="none" stroke="#000000" stroke-width="0.72" stroke-linecap="square" stroke-linejoin="miter" stroke-miterlimit="2" d="M0 0L16.74 19.89" sodipodi:nodetypes="cc"/><path id="shape31" transform="matrix(1.50476189362707 0 0 1.4999999889004 41.0348572044991 210.060002870255)" fill="none" stroke="#000000" stroke-width="0.72" stroke-linecap="square" stroke-linejoin="miter" stroke-miterlimit="2" d="M19.26 0L0 23.31" sodipodi:nodetypes="cc"/><path id="shape32" transform="matrix(1.50476189362707 0 0 1.4999999889004 41.0348572044991 245.025002496037)" fill="none" stroke="#000000" stroke-width="0.72" stroke-linecap="square" stroke-linejoin="miter" stroke-miterlimit="2" d="M0 0L22.59 23.85" sodipodi:nodetypes="cc"/><path id="shape34" transform="matrix(1.50476189362707 0 0 1.4999999889004 50.3794286617949 14.1750050029662)" fill="none" stroke="#000000" stroke-width="0.72" stroke-linecap="square" stroke-linejoin="miter" stroke-miterlimit="2" d="M8.28 0L0 4.59" sodipodi:nodetypes="cc"/><path id="shape35" transform="matrix(1.50476189362707 0 0 1.4999999889004 50.3794286617949 21.0600049468719)" fill="none" stroke="#000000" stroke-width="0.72" stroke-linecap="square" stroke-linejoin="miter" stroke-miterlimit="2" d="M0 0L8.46 6.93" sodipodi:nodetypes="cc"/><path id="shape36" transform="matrix(1.50476189362707 0 0 1.4999999889004 50.5148572321202 31.4550048621805)" fill="none" stroke="#000000" stroke-width="0.72" stroke-linecap="square" stroke-linejoin="miter" stroke-miterlimit="2" d="M8.37 0L0 6.84" sodipodi:nodetypes="cc"/><path id="shape37" transform="matrix(1.50476189362707 0 0 1.4999999889004 50.5148572321202 41.715004778589)" fill="none" stroke="#000000" stroke-width="0.72" stroke-linecap="square" stroke-linejoin="miter" stroke-miterlimit="2" d="M0 0L8.01 6.12" sodipodi:nodetypes="cc"/><path id="shape38" transform="matrix(1.50476189362707 0 0 1.4999999889004 50.5148572321202 50.8950047037966)" fill="none" stroke="#000000" stroke-width="0.72" stroke-linecap="square" stroke-linejoin="miter" stroke-miterlimit="2" d="M8.01 0L0 5.85" sodipodi:nodetypes="cc"/><path id="shape39" transform="matrix(1.50476189362707 0 0 1.4999999889004 50.5148572321202 59.6700046323037)" fill="none" stroke="#000000" stroke-width="0.72" stroke-linecap="square" stroke-linejoin="miter" stroke-miterlimit="2" d="M0 0L8.28 5.67" sodipodi:nodetypes="cc"/><path id="shape40" transform="matrix(1.50476189362707 0 0 1.4999999889004 50.5148572321202 68.1750045630109)" fill="none" stroke="#000000" stroke-width="0.72" stroke-linecap="square" stroke-linejoin="miter" stroke-miterlimit="2" d="M8.28 0L0 6.03" sodipodi:nodetypes="cc"/><path id="shape41" transform="matrix(1.50476189362707 0 0 1.4999999889004 50.5148572321202 77.2200044893185)" fill="none" stroke="#000000" stroke-width="0.72" stroke-linecap="square" stroke-linejoin="miter" stroke-miterlimit="2" d="M0 0L8.46 5.76" sodipodi:nodetypes="cc"/><path id="shape42" transform="matrix(1.50476189362707 0 0 1.4999999889004 50.7857143727706 85.8600044189254)" fill="none" stroke="#000000" stroke-width="0.72" stroke-linecap="square" stroke-linejoin="miter" stroke-miterlimit="2" d="M8.28 0L0 6.12" sodipodi:nodetypes="cc"/><path id="shape43" transform="matrix(1.50476189362707 0 0 1.4999999889004 50.5148598902364 94.6350093271721)" fill="none" stroke="#000000" stroke-width="0.72" stroke-linecap="square" stroke-linejoin="miter" stroke-miterlimit="2" d="M0 0L8.46 6.12" sodipodi:nodetypes="cc"/><path id="shape44" transform="matrix(1.50476189362707 0 0 1.4999999889004 50.5148598902364 103.815009735436)" fill="none" stroke="#000000" stroke-width="0.72" stroke-linecap="square" stroke-linejoin="miter" stroke-miterlimit="2" d="M8.46 0L0 5.67" sodipodi:nodetypes="cc"/><path id="shape45" transform="matrix(1.50476189362707 0 0 1.4999999889004 50.5148598902364 112.32001011368)" fill="none" stroke="#000000" stroke-width="0.72" stroke-linecap="square" stroke-linejoin="miter" stroke-miterlimit="2" d="M0 0L8.46 6.12" sodipodi:nodetypes="cc"/><path id="shape46" transform="matrix(1.50476189362707 0 0 1.4999999889004 49.4314312706242 121.500010521944)" fill="none" stroke="#000000" stroke-width="0.72" stroke-linecap="square" stroke-linejoin="miter" stroke-miterlimit="2" d="M9.18 0L0 5.76" sodipodi:nodetypes="cc"/><path id="shape47" transform="matrix(1.50476189362707 0 0 1.4999999889004 49.4314312706242 130.140010906192)" fill="none" stroke="#000000" stroke-width="0.72" stroke-linecap="square" stroke-linejoin="miter" stroke-miterlimit="2" d="M0 0L10.08 5.94" sodipodi:nodetypes="cc"/><path id="shape48" transform="matrix(1.50476189362707 0 0 1.4999999889004 50.3710556848002 13.746161103108)" fill="none" stroke="#000000" stroke-width="0.72" stroke-linecap="square" stroke-linejoin="miter" stroke-miterlimit="2" d="M0 0L8.40043 4.70933" sodipodi:nodetypes="cc"/><path id="shape49" transform="matrix(1.50476189362707 0 0 1.4999999889004 50.1795307601463 20.810157928555)" fill="none" stroke="#000000" stroke-width="0.72" stroke-linecap="square" stroke-linejoin="miter" stroke-miterlimit="2" d="M8.52771 0L0 6.87308" sodipodi:nodetypes="cc"/><path id="shape50" transform="matrix(1.50476189362707 0 0 1.4999999889004 50.1795307601463 31.1197749170452)" fill="none" stroke="#000000" stroke-width="0.72" stroke-linecap="square" stroke-linejoin="miter" stroke-miterlimit="2" d="M0 0L8.40043 6.36396" sodipodi:nodetypes="cc"/><path id="shape51" transform="matrix(1.50476189362707 0 0 1.4999999889004 50.5625806094542 40.6657165730544)" fill="none" stroke="#000000" stroke-width="0.72" stroke-linecap="square" stroke-linejoin="miter" stroke-miterlimit="2" d="M8.14587 0L0 6.36396" sodipodi:nodetypes="cc"/><path id="shape52" transform="matrix(1.50476189362707 0 0 1.4999999889004 50.5625806094542 50.2116582290639)" fill="none" stroke="#000000" stroke-width="0.72" stroke-linecap="square" stroke-linejoin="miter" stroke-miterlimit="2" d="M0 0L8.01859 5.98212" sodipodi:nodetypes="cc"/><path id="shape53" transform="matrix(1.50476189362707 0 0 1.4999999889004 50.5625806094542 59.1848433857127)" fill="none" stroke="#000000" stroke-width="0.72" stroke-linecap="square" stroke-linejoin="miter" stroke-miterlimit="2" d="M8.01859 0L0 6.36396" sodipodi:nodetypes="cc"/><path id="shape54" transform="matrix(1.50476189362707 0 0 1.4999999889004 50.5625806094542 68.7307850417221)" fill="none" stroke="#000000" stroke-width="0.72" stroke-linecap="square" stroke-linejoin="miter" stroke-miterlimit="2" d="M0 0L8.14587 5.47301" sodipodi:nodetypes="cc"/><path id="shape55" transform="matrix(1.50476189362707 0 0 1.4999999889004 50.5625806094542 76.9402948658903)" fill="none" stroke="#000000" stroke-width="0.72" stroke-linecap="square" stroke-linejoin="miter" stroke-miterlimit="2" d="M8.14587 0L0 5.98212" sodipodi:nodetypes="cc"/><path id="shape56" transform="matrix(1.50476189362707 0 0 1.4999999889004 50.5625806094542 85.913480022539)" fill="none" stroke="#000000" stroke-width="0.72" stroke-linecap="square" stroke-linejoin="miter" stroke-miterlimit="2" d="M0 0L7.89131 5.85484" sodipodi:nodetypes="cc"/><path id="shape57" transform="matrix(1.50476189362707 0 0 1.4999999889004 50.9456304587619 94.6957463460676)" fill="none" stroke="#000000" stroke-width="0.72" stroke-linecap="square" stroke-linejoin="miter" stroke-miterlimit="2" d="M7.63675 0L0 5.60029" sodipodi:nodetypes="cc"/><path id="shape58" transform="matrix(1.50476189362707 0 0 1.4999999889004 50.9456304587619 103.096175003356)" fill="none" stroke="#000000" stroke-width="0.72" stroke-linecap="square" stroke-linejoin="miter" stroke-miterlimit="2" d="M0 0L8.01859 6.1094" sodipodi:nodetypes="cc"/><path id="shape59" transform="matrix(1.50476189362707 0 0 1.4999999889004 49.7964809108384 112.260278993124)" fill="none" stroke="#000000" stroke-width="0.72" stroke-linecap="square" stroke-linejoin="miter" stroke-miterlimit="2" d="M8.78227 0L0 6.7458" sodipodi:nodetypes="cc"/><path id="shape60" transform="matrix(1.50476189362707 0 0 1.4999999889004 49.7964809108384 122.378977148495)" fill="none" stroke="#000000" stroke-width="0.72" stroke-linecap="square" stroke-linejoin="miter" stroke-miterlimit="2" d="M0 0L9.67322 5.21845" sodipodi:nodetypes="cc"/><path id="shape61" transform="matrix(1.50476189362707 0 0 1.4999999889004 49.604953502705 130.015723964046)" fill="none" stroke="#000000" stroke-width="0.72" stroke-linecap="square" stroke-linejoin="miter" stroke-miterlimit="2" d="M9.35502 0L0 5.98212" sodipodi:nodetypes="cc"/><path id="shape62" transform="matrix(1.50476189362707 0 0 1.4999999889004 50.6502869928586 41.4450057548539)" fill="none" stroke="#000000" stroke-width="0.72" stroke-linecap="square" stroke-linejoin="miter" stroke-miterlimit="2" d="M0 0L8.19 0.09" sodipodi:nodetypes="cc"/><path id="shape63" transform="matrix(1.50476189362707 0 0 1.4999999889004 50.5148584193506 50.2200058895965)" fill="none" stroke="#000000" stroke-width="0.72" stroke-linecap="square" stroke-linejoin="miter" stroke-miterlimit="2" d="M0 0L8.28 0" sodipodi:nodetypes="cc"/><path id="shape64" transform="matrix(1.50476189362707 0 0 1.4999999889004 50.7857155663668 20.9250054397637)" fill="none" stroke="#000000" stroke-width="0.72" stroke-linecap="square" stroke-linejoin="miter" stroke-miterlimit="2" d="M0 0L8.37 0.09" sodipodi:nodetypes="cc"/><path id="shape65" transform="matrix(1.50476189362707 0 0 1.4999999889004 50.5148584193506 14.0400053340426)" fill="none" stroke="#000000" stroke-width="0.72" stroke-linecap="square" stroke-linejoin="miter" stroke-miterlimit="2" d="M0 0L8.01 0" sodipodi:nodetypes="cc"/><path id="shape66" transform="matrix(1.50476189362707 0 0 1.4999999889004 50.9211433334565 85.7250050771922)" fill="none" stroke="#000000" stroke-width="0.72" stroke-linecap="square" stroke-linejoin="miter" stroke-miterlimit="2" d="M0 0L7.92 0" sodipodi:nodetypes="cc"/><path id="shape67" transform="matrix(1.50476189362707 0 0 1.4999999889004 50.7857147620933 94.6350050729035)" fill="none" stroke="#000000" stroke-width="0.72" stroke-linecap="square" stroke-linejoin="miter" stroke-miterlimit="2" d="M0 0.09L8.55 0" sodipodi:nodetypes="cc"/><path id="shape68" transform="matrix(1.50476189362707 0 0 1.4999999889004 49.413430531525 129.824810247689)" fill="none" stroke="#000000" stroke-width="0.72" stroke-linecap="square" stroke-linejoin="miter" stroke-miterlimit="2" d="M0 0L9.67322 0.0636396" sodipodi:nodetypes="cc"/><path id="shape69" transform="matrix(1.50476189362707 0 0 1.4999999889004 48.7430933024262 138.893454723628)" fill="none" stroke="#000000" stroke-width="0.72" stroke-linecap="square" stroke-linejoin="miter" stroke-miterlimit="2" d="M0 0.0636396L10.5005 0" sodipodi:nodetypes="cc"/><path id="shape71" transform="matrix(1.50476189362707 0 0 1.4999999889004 39.4541333067054 261.749714228262)" fill="none" stroke="#000000" stroke-width="0.72" stroke-linecap="square" stroke-linejoin="miter" stroke-miterlimit="2" d="M0 0.127279L22.5284 0" sodipodi:nodetypes="cc"/><path id="shape72" transform="matrix(1.50476189362707 0 0 1.4999999889004 42.3270070547065 226.047893948515)" fill="none" stroke="#000000" stroke-width="0.72" stroke-linecap="square" stroke-linejoin="miter" stroke-miterlimit="2" d="M0 0.127279L19.3464 0" sodipodi:nodetypes="cc"/><path id="shape73" transform="matrix(1.50476189362707 0 0 1.4999999889004 44.6253060531074 193.782612519224)" fill="none" stroke="#000000" stroke-width="0.72" stroke-linecap="square" stroke-linejoin="miter" stroke-miterlimit="2" d="M0 0.127279L15.9099 0" sodipodi:nodetypes="cc"/><path id="shape74" transform="matrix(1.50476189362707 0 0 1.4999999889004 46.5874316203272 167.130014259541)" fill="none" stroke="#000000" stroke-width="0.72" stroke-linecap="square" stroke-linejoin="miter" stroke-miterlimit="2" d="M0 0L13.14 0" sodipodi:nodetypes="cc"/><path id="shape83" transform="matrix(1.50476189362707 0 0 1.4999999889004 65.9537173493583 271.620015673026)" fill="none" stroke="#000000" stroke-width="0.72" stroke-linecap="square" stroke-linejoin="miter" stroke-miterlimit="2" d="M5.67 0L0 0.09" sodipodi:nodetypes="cc"/><path id="shape84" transform="matrix(1.50476189362707 0 0 1.4999999889004 65.9537173493583 261.630015284836)" fill="none" stroke="#000000" stroke-width="0.72" stroke-linecap="square" stroke-linejoin="miter" stroke-miterlimit="2" d="M0 6.75L5.13 0" sodipodi:nodetypes="cc"/><path id="shape85" transform="matrix(1.50476189362707 0 0 1.4999999889004 65.1411458892121 253.530014970087)" fill="none" stroke="#000000" stroke-width="0.72" stroke-linecap="square" stroke-linejoin="miter" stroke-miterlimit="2" d="M5.67 5.4L0 0" sodipodi:nodetypes="cc"/><path id="shape86" transform="matrix(1.50476189362707 0 0 1.4999999889004 65.1411458892121 253.395014964841)" fill="none" stroke="#000000" stroke-width="0.72" stroke-linecap="square" stroke-linejoin="miter" stroke-miterlimit="2" d="M0 0.09L5.13 0" sodipodi:nodetypes="cc"/><path id="shape87" transform="matrix(1.50476189362707 0 0 1.4999999889004 39.0034305878421 271.485015667781)" fill="none" stroke="#000000" stroke-width="0.72" stroke-linecap="square" stroke-linejoin="miter" stroke-miterlimit="2" d="M0 0.09L5.04 0" sodipodi:nodetypes="cc"/><path id="shape88" transform="matrix(1.50476189362707 0 0 1.4999999889004 40.2222877780615 262.305015311065)" fill="none" stroke="#000000" stroke-width="0.72" stroke-linecap="square" stroke-linejoin="miter" stroke-miterlimit="2" d="M4.23 6.12L0 0" sodipodi:nodetypes="cc"/><path id="shape89" transform="matrix(1.50476189362707 0 0 1.4999999889004 40.2222877780615 253.260014959596)" fill="none" stroke="#000000" stroke-width="0.72" stroke-linecap="square" stroke-linejoin="miter" stroke-miterlimit="2" d="M0 6.03L5.49 0" sodipodi:nodetypes="cc"/><path id="shape90" transform="matrix(1.50476189362707 0 0 1.4999999889004 40.6285735081345 253.260014959596)" fill="none" stroke="#000000" stroke-width="0.72" stroke-linecap="square" stroke-linejoin="miter" stroke-miterlimit="2" d="M5.22 0L0 0" sodipodi:nodetypes="cc"/><path id="shape91" transform="matrix(1.50476189362707 0 0 1.4999999889004 65.1411426279107 235.710002476784)" fill="none" stroke="#000000" stroke-width="0.72" stroke-linecap="square" stroke-linejoin="miter" stroke-miterlimit="2" d="M4.23 0L0 0" sodipodi:nodetypes="cc"/><path id="shape92" transform="matrix(1.50476189362707 0 0 1.4999999889004 65.1411426279107 226.260002582693)" fill="none" stroke="#000000" stroke-width="0.72" stroke-linecap="square" stroke-linejoin="miter" stroke-miterlimit="2" d="M0 6.3L3.6 0" sodipodi:nodetypes="cc"/><path id="shape93" transform="matrix(1.50476189362707 0 0 1.4999999889004 63.6514283588922 218.025002674984)" fill="none" stroke="#000000" stroke-width="0.72" stroke-linecap="square" stroke-linejoin="miter" stroke-miterlimit="2" d="M4.59 5.49L0 0" sodipodi:nodetypes="cc"/><path id="shape94" transform="matrix(1.50476189362707 0 0 1.4999999889004 63.6514283588922 218.025002674984)" fill="none" stroke="#000000" stroke-width="0.72" stroke-linecap="square" stroke-linejoin="miter" stroke-miterlimit="2" d="M0 0L4.23 0.09" sodipodi:nodetypes="cc"/><path id="shape95" transform="matrix(1.50476189362707 0 0 1.4999999889004 43.2017143023638 217.890002676498)" fill="none" stroke="#000000" stroke-width="0.72" stroke-linecap="square" stroke-linejoin="miter" stroke-miterlimit="2" d="M0 0L4.41 0" sodipodi:nodetypes="cc"/><path id="shape96" transform="matrix(1.50476189362707 0 0 1.4999999889004 42.389142882899 217.890002676498)" fill="none" stroke="#000000" stroke-width="0.72" stroke-linecap="square" stroke-linejoin="miter" stroke-miterlimit="2" d="M4.95 0L0 5.4" sodipodi:nodetypes="cc"/><path id="shape97" transform="matrix(1.50476189362707 0 0 1.4999999889004 42.389142882899 225.990002585719)" fill="none" stroke="#000000" stroke-width="0.72" stroke-linecap="square" stroke-linejoin="miter" stroke-miterlimit="2" d="M0 0L4.14 6.57" sodipodi:nodetypes="cc"/><path id="shape98" transform="matrix(1.50476189362707 0 0 1.4999999889004 42.1182857430776 235.710002476784)" fill="none" stroke="#000000" stroke-width="0.72" stroke-linecap="square" stroke-linejoin="miter" stroke-miterlimit="2" d="M4.32 0.09L0 0" sodipodi:nodetypes="cc"/><path id="shape99" transform="matrix(1.50476189362707 0 0 1.4999999889004 62.8388602460385 201.285013454309)" fill="none" stroke="#000000" stroke-width="0.72" stroke-linecap="square" stroke-linejoin="miter" stroke-miterlimit="2" d="M4.14 0L0 0.09" sodipodi:nodetypes="cc"/><path id="shape100" transform="matrix(1.50476189362707 0 0 1.4999999889004 62.8388602460385 194.130013157996)" fill="none" stroke="#000000" stroke-width="0.72" stroke-linecap="square" stroke-linejoin="miter" stroke-miterlimit="2" d="M0 4.86L3.87 0" sodipodi:nodetypes="cc"/><path id="shape101" transform="matrix(1.50476189362707 0 0 1.4999999889004 62.4325745149272 186.570012844913)" fill="none" stroke="#000000" stroke-width="0.72" stroke-linecap="square" stroke-linejoin="miter" stroke-miterlimit="2" d="M4.14 5.04L0 0" sodipodi:nodetypes="cc"/><path id="shape102" transform="matrix(1.50476189362707 0 0 1.4999999889004 62.4325745149272 186.570012844913)" fill="none" stroke="#000000" stroke-width="0.72" stroke-linecap="square" stroke-linejoin="miter" stroke-miterlimit="2" d="M0 0L3.69 0" sodipodi:nodetypes="cc"/><path id="shape103" transform="matrix(1.50476189362707 0 0 1.4999999889004 45.7748595393637 186.840012856096)" fill="none" stroke="#000000" stroke-width="0.72" stroke-linecap="square" stroke-linejoin="miter" stroke-miterlimit="2" d="M0 0L2.745 0" sodipodi:nodetypes="cc"/><path id="shape104" transform="matrix(1.50476189362707 0 0 1.4999999889004 45.2331452312154 187.380013357275)" fill="none" stroke="#000000" stroke-width="0.72" stroke-linecap="square" stroke-linejoin="miter" stroke-miterlimit="2" d="M3.465 0L0 4.41" sodipodi:nodetypes="cc"/><path id="shape105" transform="matrix(1.50476189362707 0 0 1.4999999889004 45.2331452312154 193.995013152406)" fill="none" stroke="#000000" stroke-width="0.72" stroke-linecap="square" stroke-linejoin="miter" stroke-miterlimit="2" d="M0 0L2.97 5.04" sodipodi:nodetypes="cc"/><path id="shape106" transform="matrix(1.50476189362707 0 0 1.4999999889004 44.8268595001041 201.420013459899)" fill="none" stroke="#000000" stroke-width="0.72" stroke-linecap="square" stroke-linejoin="miter" stroke-miterlimit="2" d="M3.24 0.09L0 0" sodipodi:nodetypes="cc"/><path id="shape107" transform="matrix(1.50476189362707 0 0 1.4999999889004 63.0117018390667 86.2953192323693)" fill="none" stroke="#000000" stroke-width="0.72" stroke-linecap="square" stroke-linejoin="miter" stroke-miterlimit="2" d="M0 0L4.70933 5.47301" sodipodi:nodetypes="cc"/><path id="shape108" transform="matrix(1.50476189362707 0 0 1.4999999889004 70.0981241780182 89.3500206169326)" fill="none" stroke="#000000" stroke-width="0.72" stroke-linecap="square" stroke-linejoin="miter" stroke-miterlimit="2" d="M0 3.43654L4.07294 0" sodipodi:nodetypes="cc"/><path id="shape109" transform="matrix(1.50476189362707 0 0 1.4999999889004 76.2269218765706 89.3500206169326)" fill="none" stroke="#000000" stroke-width="0.72" stroke-linecap="square" stroke-linejoin="miter" stroke-miterlimit="2" d="M0 0L2.67286 3.56382" sodipodi:nodetypes="cc"/><path id="shape110" transform="matrix(1.50476189362707 0 0 1.4999999889004 43.6676841030104 86.6771569054397)" fill="none" stroke="#000000" stroke-width="0.72" stroke-linecap="square" stroke-linejoin="miter" stroke-miterlimit="2" d="M4.45477 0L0 5.09117" sodipodi:nodetypes="cc"/><path id="shape111" transform="matrix(1.50476189362707 0 0 1.4999999889004 38.1134611886972 90.1136959630735)" fill="none" stroke="#000000" stroke-width="0.72" stroke-linecap="square" stroke-linejoin="miter" stroke-miterlimit="2" d="M3.6911 2.80014L0 0" sodipodi:nodetypes="cc"/><path id="shape112" transform="matrix(1.50476189362707 0 0 1.4999999889004 33.5168629147828 90.1136959630735)" fill="none" stroke="#000000" stroke-width="0.72" stroke-linecap="square" stroke-linejoin="miter" stroke-miterlimit="2" d="M3.0547 0L0 2.92742" sodipodi:nodetypes="cc"/><path id="shape113" transform="matrix(1.50476189362707 0 0 1.4999999889004 64.5439012637048 130.397570472002)" fill="none" stroke="#000000" stroke-width="0.72" stroke-linecap="square" stroke-linejoin="miter" stroke-miterlimit="2" d="M0 0L5.21845 5.47301" sodipodi:nodetypes="cc"/><path id="shape114" transform="matrix(1.50476189362707 0 0 1.4999999889004 72.3964233149752 134.215947202707)" fill="none" stroke="#000000" stroke-width="0.72" stroke-linecap="square" stroke-linejoin="miter" stroke-miterlimit="2" d="M0 2.92742L3.30926 0" sodipodi:nodetypes="cc"/><path id="shape115" transform="matrix(1.50476189362707 0 0 1.4999999889004 77.3760714450492 134.215947202707)" fill="none" stroke="#000000" stroke-width="0.72" stroke-linecap="square" stroke-linejoin="miter" stroke-miterlimit="2" d="M0 0L2.67286 2.92742" sodipodi:nodetypes="cc"/><path id="shape116" transform="matrix(1.50476189362707 0 0 1.4999999889004 41.560909894133 130.397570472002)" fill="none" stroke="#000000" stroke-width="0.72" stroke-linecap="square" stroke-linejoin="miter" stroke-miterlimit="2" d="M4.70933 0L0 5.60029" sodipodi:nodetypes="cc"/><path id="shape117" transform="matrix(1.50476189362707 0 0 1.4999999889004 35.81516205174 133.643190693102)" fill="none" stroke="#000000" stroke-width="0.72" stroke-linecap="square" stroke-linejoin="miter" stroke-miterlimit="2" d="M3.94566 3.30926L0 0" sodipodi:nodetypes="cc"/><path id="shape118" transform="matrix(1.50476189362707 0 0 1.4999999889004 31.6016136339851 133.643190693102)" fill="none" stroke="#000000" stroke-width="0.72" stroke-linecap="square" stroke-linejoin="miter" stroke-miterlimit="2" d="M2.80014 0L0 3.30926" sodipodi:nodetypes="cc"/><path id="shape119" transform="matrix(1.50476189362707 0 0 1.4999999889004 62.6286509910817 42.002148491029)" fill="none" stroke="#000000" stroke-width="0.72" stroke-linecap="square" stroke-linejoin="miter" stroke-miterlimit="2" d="M0 0L4.32749 5.60029" sodipodi:nodetypes="cc"/><path id="shape120" transform="matrix(1.50476189362707 0 0 1.4999999889004 69.1404984426681 45.2477686607279)" fill="none" stroke="#000000" stroke-width="0.72" stroke-linecap="square" stroke-linejoin="miter" stroke-miterlimit="2" d="M0 3.43654L3.18198 0" sodipodi:nodetypes="cc"/><path id="shape121" transform="matrix(1.50476189362707 0 0 1.4999999889004 73.9286215688348 45.2477686607279)" fill="none" stroke="#000000" stroke-width="0.72" stroke-linecap="square" stroke-linejoin="miter" stroke-miterlimit="2" d="M0 0L2.92742 3.43654" sodipodi:nodetypes="cc"/><path id="shape122" transform="matrix(1.50476189362707 0 0 1.4999999889004 43.6676834114623 42.1930673245408)" fill="none" stroke="#000000" stroke-width="0.72" stroke-linecap="square" stroke-linejoin="miter" stroke-miterlimit="2" d="M4.58205 0L0 5.09117" sodipodi:nodetypes="cc"/><path id="shape123" transform="matrix(1.50476189362707 0 0 1.4999999889004 39.0710852103424 45.6296063277514)" fill="none" stroke="#000000" stroke-width="0.72" stroke-linecap="square" stroke-linejoin="miter" stroke-miterlimit="2" d="M3.0547 2.80014L0 0" sodipodi:nodetypes="cc"/><path id="shape124" transform="matrix(1.50476189362707 0 0 1.4999999889004 35.0490617843626 45.6296063277514)" fill="none" stroke="#000000" stroke-width="0.72" stroke-linecap="square" stroke-linejoin="miter" stroke-miterlimit="2" d="M2.67286 0L0 2.80014" sodipodi:nodetypes="cc"/><path id="shape02" transform="matrix(1.50476175623047 0 0 1.40481147534002 25.9078869384025 51.5436967962807)" fill="none" stroke="#737373" stroke-width="2.16" stroke-linecap="square" stroke-linejoin="miter" stroke-miterlimit="2" d="M0 0L0 11.1415" sodipodi:nodetypes="cc"/><circle id="shape015" transform="matrix(2.1624968712849 0 0 2.19519240903593 24.1391309677399 68.6686541692219)" r="0.719999999999999" cx="0.719999999999999" cy="0.719999999999999" fill="#d00000" fill-rule="evenodd" stroke-opacity="0" stroke="#000000" stroke-width="0" stroke-linecap="square" stroke-linejoin="bevel"/><path id="shape021" transform="matrix(1.50476175623047 0 0 1.40481147534002 87.770434789395 51.7346156207217)" fill="none" stroke="#737373" stroke-width="2.16" stroke-linecap="square" stroke-linejoin="miter" stroke-miterlimit="2" d="M0 0L0 11.1415" sodipodi:nodetypes="cc"/><circle id="shape0151" transform="matrix(2.1624968712849 0 0 2.19519240903593 86.0016788187325 68.8595729936631)" r="0.719999999999999" cx="0.719999999999999" cy="0.719999999999999" fill="#d00000" fill-rule="evenodd" stroke-opacity="0" stroke="#000000" stroke-width="0" stroke-linecap="square" stroke-linejoin="bevel"/><path id="shape022" transform="matrix(1.50476175623047 0 0 1.40481147534002 23.8011128629817 96.2187017155174)" fill="none" stroke="#737373" stroke-width="2.16" stroke-linecap="square" stroke-linejoin="miter" stroke-miterlimit="2" d="M0 0L0 11.1415" sodipodi:nodetypes="cc"/><circle id="shape0152" transform="matrix(2.1624968712849 0 0 2.19519240903593 22.0323568923192 113.343659088458)" r="0.719999999999999" cx="0.719999999999999" cy="0.719999999999999" fill="#d00000" fill-rule="evenodd" stroke-opacity="0" stroke="#000000" stroke-width="0" stroke-linecap="square" stroke-linejoin="bevel"/><path id="shape023" transform="matrix(1.50476175623047 0 0 1.40481147534002 21.6943387875609 140.511868985872)" fill="none" stroke="#737373" stroke-width="2.16" stroke-linecap="square" stroke-linejoin="miter" stroke-miterlimit="2" d="M0 0L0 11.1415" sodipodi:nodetypes="cc"/><circle id="shape0153" transform="matrix(2.1624968712849 0 0 2.19519240903593 19.9255828168983 157.636826358813)" r="0.719999999999999" cx="0.719999999999999" cy="0.719999999999999" fill="#d00000" fill-rule="evenodd" stroke-opacity="0" stroke="#000000" stroke-width="0" stroke-linecap="square" stroke-linejoin="bevel"/><path id="shape024" transform="matrix(1.50476175623047 0 0 1.40481147534002 89.6856839488685 96.2187017155174)" fill="none" stroke="#737373" stroke-width="2.16" stroke-linecap="square" stroke-linejoin="miter" stroke-miterlimit="2" d="M0 0L0 11.1415" sodipodi:nodetypes="cc"/><circle id="shape0154" transform="matrix(2.1624968712849 0 0 2.19519240903593 87.9169279782059 113.343659088458)" r="0.719999999999999" cx="0.719999999999999" cy="0.719999999999999" fill="#d00000" fill-rule="evenodd" stroke-opacity="0" stroke="#000000" stroke-width="0" stroke-linecap="square" stroke-linejoin="bevel"/><path id="shape025" transform="matrix(1.50476175623047 0 0 1.40481147534002 90.8348334445525 140.130031336989)" fill="none" stroke="#737373" stroke-width="2.16" stroke-linecap="square" stroke-linejoin="miter" stroke-miterlimit="2" d="M0 0L0 11.1415" sodipodi:nodetypes="cc"/><circle id="shape0155" transform="matrix(2.1624968712849 0 0 2.19519240903593 89.0660774738899 157.254988709931)" r="0.719999999999999" cx="0.719999999999999" cy="0.719999999999999" fill="#d00000" fill-rule="evenodd" stroke-opacity="0" stroke="#000000" stroke-width="0" stroke-linecap="square" stroke-linejoin="bevel"/><path id="shape411" transform="matrix(0.714210443314023 0 0 1.49999993055675 -0.718218421356796 283.58529293641)" fill="none" stroke="#3b2300" stroke-width="2.16" stroke-linecap="square" stroke-linejoin="miter" stroke-miterlimit="2" d="M0 0L160.92 0.18" sodipodi:nodetypes="cc"/><path id="shape511" transform="matrix(0.714210443314023 0 0 1.49999993055675 -0.606083498278599 281.131163185567)" fill="none" stroke="#297f00" stroke-width="1.44" stroke-linecap="square" stroke-linejoin="miter" stroke-miterlimit="2" d="M0 0L161.135 0.127279" sodipodi:nodetypes="cc"/>
</svg>
