<?xml version="1.0" standalone="no"?>
<!DOCTYPE svg PUBLIC "-//W3C//DTD SVG 20010904//EN" "http://www.w3.org/TR/2001/REC-SVG-20010904/DTD/svg10.dtd">
<!-- Created using Krita: https://krita.org -->
<svg xmlns="http://www.w3.org/2000/svg" 
    xmlns:xlink="http://www.w3.org/1999/xlink"
    xmlns:krita="http://krita.org/namespaces/svg/krita"
    xmlns:sodipodi="http://sodipodi.sourceforge.net/DTD/sodipodi-0.dtd"
    width="186.48pt"
    height="138.24pt"
    viewBox="0 0 186.48 138.24">
<defs/>
<path id="shape0" transform="translate(52.5600023575567, 14.4000006459059)" fill="none" stroke="#000000" stroke-width="0.36" stroke-linecap="square" stroke-linejoin="miter" stroke-miterlimit="2" d="M85.32 0L0 119.52" sodipodi:nodetypes="cc"/><path id="shape1" transform="translate(47.5200021314897, 15.4800006943489)" fill="none" stroke="#000000" stroke-width="0.36" stroke-linecap="square" stroke-linejoin="miter" stroke-miterlimit="2" d="M0 0L82.8 118.8" sodipodi:nodetypes="cc"/><path id="shape0" transform="matrix(1.06622201429604 0 -0.0390825083091164 1.06622201429604 52.70868989695 14.5881113328219)" fill="#bfbfbf" fill-rule="evenodd" stroke="#000000" stroke-width="1.44" stroke-linecap="square" stroke-linejoin="bevel" d="M6.17304 0.130049L9.99142 0L3.88202 113.533L0 113.533Z" sodipodi:nodetypes="ccccc"/><path id="shape01" transform="matrix(1.066222001816 0 0.012400196004499 1.066222001816 123.178130699132 15.4310925730325)" fill="#bfbfbf" fill-rule="evenodd" stroke="#000000" stroke-width="1.44" stroke-linecap="square" stroke-linejoin="bevel" d="M0 0L3.78 0L10.1475 112.997L6.27749 112.975Z" sodipodi:nodetypes="ccccc"/><path id="shape126" transform="matrix(1.06622192244242 0 0 1.06622192244242 -13.5846258474012 137.743045276808)" fill="none" stroke="#3b2300" stroke-width="2.16" stroke-linecap="square" stroke-linejoin="miter" stroke-miterlimit="2" d="M0 0L198.72 0.241636" sodipodi:nodetypes="cc"/><path id="shape031" transform="matrix(1.0662218786518 0 0 1.0662218786518 7.89174808429026 16.1791496499729)" fill="none" stroke="#737373" stroke-width="2.16" stroke-linecap="square" stroke-linejoin="miter" stroke-miterlimit="2" d="M0 0C0 5.4518 0 10.9036 0 16.3554" sodipodi:nodetypes="cc"/><circle id="shape0171" transform="matrix(1.53270712526443 0 0 1.54760975553821 4.4061996680446 34.5332938984548)" r="0.719999999999999" cx="0.719999999999999" cy="0.719999999999999" fill="#d00000" fill-rule="evenodd" stroke-opacity="0" stroke="#000000" stroke-width="0" stroke-linecap="square" stroke-linejoin="bevel"/><circle id="shape0121" transform="matrix(1.61020532711809 0 0 1.56276534180893 8.99164299057541 34.511469854225)" r="0.719999999999999" cx="0.719999999999999" cy="0.719999999999999" fill="#d00000" fill-rule="evenodd" stroke-opacity="0" stroke="#000000" stroke-width="0" stroke-linecap="square" stroke-linejoin="bevel"/><path id="shape032" transform="matrix(1.0662218786518 0 0 1.0662218786518 93.2043352066596 16.1297571667853)" fill="none" stroke="#737373" stroke-width="2.16" stroke-linecap="square" stroke-linejoin="miter" stroke-miterlimit="2" d="M0 0C0 5.4518 0 10.9036 0 16.3554" sodipodi:nodetypes="cc"/><circle id="shape0172" transform="matrix(1.53270712526443 0 0 1.54760975553821 89.718786790414 34.4839014152675)" r="0.719999999999999" cx="0.719999999999999" cy="0.719999999999999" fill="#d00000" fill-rule="evenodd" stroke-opacity="0" stroke="#000000" stroke-width="0" stroke-linecap="square" stroke-linejoin="bevel"/><circle id="shape0122" transform="matrix(1.61020532711809 0 0 1.56276534180893 94.3042301129449 34.4620773710375)" r="0.719999999999999" cx="0.719999999999999" cy="0.719999999999999" fill="#d00000" fill-rule="evenodd" stroke-opacity="0" stroke="#000000" stroke-width="0" stroke-linecap="square" stroke-linejoin="bevel"/><path id="shape034" transform="matrix(1.0662218786518 0 0 1.0662218786518 179.508578078148 16.3205071578206)" fill="none" stroke="#737373" stroke-width="2.16" stroke-linecap="square" stroke-linejoin="miter" stroke-miterlimit="2" d="M0 0C0 5.4518 0 10.9036 0 16.3554" sodipodi:nodetypes="cc"/><circle id="shape0174" transform="matrix(1.53270712526443 0 0 1.54760975553821 176.023029661903 34.6746514063027)" r="0.719999999999999" cx="0.719999999999999" cy="0.719999999999999" fill="#d00000" fill-rule="evenodd" stroke-opacity="0" stroke="#000000" stroke-width="0" stroke-linecap="square" stroke-linejoin="bevel"/><circle id="shape0124" transform="matrix(1.61020532711809 0 0 1.56276534180893 180.608472984433 34.6528273620728)" r="0.719999999999999" cx="0.719999999999999" cy="0.719999999999999" fill="#d00000" fill-rule="evenodd" stroke-opacity="0" stroke="#000000" stroke-width="0" stroke-linecap="square" stroke-linejoin="bevel"/><path id="shape127" transform="matrix(1.06622188495566 0 0 1.06622188495566 -13.5846258474012 136.250253333549)" fill="none" stroke="#297f00" stroke-width="1.44" stroke-linecap="square" stroke-linejoin="miter" stroke-miterlimit="2" d="M0 0C61.44 0.0328129 137.28 0.0788988 198.72 0.111712" sodipodi:nodetypes="cc"/><path id="shape01" transform="matrix(1.06622211439461 0 0 1.06622211439461 4.60022780586016 14.8595284662539)" fill="none" stroke="#000000" stroke-width="1.44" stroke-linecap="square" stroke-linejoin="miter" stroke-miterlimit="2" d="M0 0L164.699 0.254558" sodipodi:nodetypes="cc"/><path id="shape1" transform="matrix(1.06622211439461 0 0 1.06622211439461 4.32881197345626 9.70262765057976)" fill="none" stroke="#000000" stroke-width="1.44" stroke-linecap="square" stroke-linejoin="miter" stroke-miterlimit="2" d="M0 4.83661L29.5288 0" sodipodi:nodetypes="cc"/><path id="shape2" transform="matrix(1.06622211439461 0 0 1.06622211439461 20.8851777500943 4.81714266730954)" fill="none" stroke="#000000" stroke-width="1.44" stroke-linecap="square" stroke-linejoin="miter" stroke-miterlimit="2" d="M14.0007 4.58205L0 0" sodipodi:nodetypes="cc"/><path id="shape3" transform="matrix(1.06622211439461 0 0 1.06622211439461 16.8139402640357 4.81714266730954)" fill="none" stroke="#000000" stroke-width="1.44" stroke-linecap="square" stroke-linejoin="miter" stroke-miterlimit="2" d="M3.81838 0L0 0" sodipodi:nodetypes="cc"/><path id="shape4" transform="matrix(1.06622211439461 0 0 1.06622211439461 20.6137619176903 4.81714266730954)" fill="none" stroke="#000000" stroke-width="1.44" stroke-linecap="square" stroke-linejoin="miter" stroke-miterlimit="2" d="M0 0L39.4566 1.01823" sodipodi:nodetypes="cc"/><path id="shape5" transform="matrix(1.06622211439461 0 0 1.06622211439461 62.6832159402951 5.63139016452124)" fill="none" stroke="#000000" stroke-width="1.44" stroke-linecap="square" stroke-linejoin="miter" stroke-miterlimit="2" d="M0 0.254558L57.7848 0" sodipodi:nodetypes="cc"/><path id="shape6" transform="matrix(1.06622211439461 0 0 1.06622211439461 124.294609895981 4.81714266730954)" fill="none" stroke="#000000" stroke-width="1.44" stroke-linecap="square" stroke-linejoin="miter" stroke-miterlimit="2" d="M0 0.763675L38.6929 0" sodipodi:nodetypes="cc"/><path id="shape7" transform="matrix(1.06622211439461 0 0 1.06622211439461 165.549816421374 4.54572683490562)" fill="none" stroke="#000000" stroke-width="1.44" stroke-linecap="square" stroke-linejoin="miter" stroke-miterlimit="2" d="M0 0.254558L4.83661 0" sodipodi:nodetypes="cc"/><path id="shape8" transform="matrix(1.06622211439461 0 0 1.06622211439461 154.693183125217 4.54572683490562)" fill="none" stroke="#000000" stroke-width="1.44" stroke-linecap="square" stroke-linejoin="miter" stroke-miterlimit="2" d="M10.1823 0L0 4.58205" sodipodi:nodetypes="cc"/><path id="shape9" transform="matrix(1.06622211439461 0 0 1.06622211439461 154.693183125217 9.43121181817586)" fill="none" stroke="#000000" stroke-width="1.44" stroke-linecap="square" stroke-linejoin="miter" stroke-miterlimit="2" d="M0 0L24.1831 5.09117" sodipodi:nodetypes="cc"/><path id="shape10" transform="matrix(1.06622211439461 0 0 1.06622211439461 61.3261367782756 6.48752605959017)" fill="none" stroke="#000000" stroke-width="1.44" stroke-linecap="square" stroke-linejoin="miter" stroke-miterlimit="2" d="M0 7.34291L1.01823 0" sodipodi:nodetypes="cc"/><path id="shape11" transform="matrix(1.06622211439461 0 0 1.06622211439461 124.023194063577 5.63139016452124)" fill="none" stroke="#000000" stroke-width="1.44" stroke-linecap="square" stroke-linejoin="miter" stroke-miterlimit="2" d="M0 0L0.254558 8.40043" sodipodi:nodetypes="cc"/><path id="shape12" transform="matrix(1.06622211439461 0 0 1.06622211439461 36.0844643647127 9.43121181817586)" fill="none" stroke="#000000" stroke-width="0.72" stroke-linecap="square" stroke-linejoin="miter" stroke-miterlimit="2" d="M0 0L11.2006 4.32749" sodipodi:nodetypes="cc"/><path id="shape13" transform="matrix(1.06622211439461 0 0 1.06622211439461 47.9787809931124 6.10368608061397)" fill="none" stroke="#000000" stroke-width="0.72" stroke-linecap="square" stroke-linejoin="miter" stroke-miterlimit="2" d="M0 7.44835L13.4502 0" sodipodi:nodetypes="cc"/><path id="shape14" transform="matrix(1.06622211439461 0 0 1.06622211439461 62.6555828589465 6.05570608324194)" fill="none" stroke="#000000" stroke-width="0.72" stroke-linecap="square" stroke-linejoin="miter" stroke-miterlimit="2" d="M0 0L14.7903 8.00247" sodipodi:nodetypes="cc"/><path id="shape15" transform="matrix(1.06622211439461 0 0 1.06622211439461 78.4253342197214 5.69924445592367)" fill="none" stroke="#000000" stroke-width="0.72" stroke-linecap="square" stroke-linejoin="miter" stroke-miterlimit="2" d="M0 8.33679L14.7644 0" sodipodi:nodetypes="cc"/><path id="shape16" transform="matrix(1.06622211439461 0 0 1.06622211439461 92.355196321047 5.90280599692514)" fill="none" stroke="#000000" stroke-width="0.72" stroke-linecap="square" stroke-linejoin="miter" stroke-miterlimit="2" d="M0 0L14.9367 8.14587" sodipodi:nodetypes="cc"/><path id="shape17" transform="matrix(1.06622211439461 0 0 1.06622211439461 108.281075784151 6.17422182932904)" fill="none" stroke="#000000" stroke-width="0.72" stroke-linecap="square" stroke-linejoin="miter" stroke-miterlimit="2" d="M0 7.89131L14.5098 0" sodipodi:nodetypes="cc"/><path id="shape18" transform="matrix(1.06622211439461 0 0 1.06622211439461 123.751778231173 6.17422182932904)" fill="none" stroke="#000000" stroke-width="0.72" stroke-linecap="square" stroke-linejoin="miter" stroke-miterlimit="2" d="M0 0L13.237 7.89131" sodipodi:nodetypes="cc"/><path id="shape19" transform="matrix(1.06622211439461 0 0 1.06622211439461 137.865401516175 9.43121181817586)" fill="none" stroke="#000000" stroke-width="0.72" stroke-linecap="square" stroke-linejoin="miter" stroke-miterlimit="2" d="M0 4.83661L15.7826 0" sodipodi:nodetypes="cc"/><path id="shape20" transform="matrix(1.06622211439461 0 0 1.06622211439461 132.979916532905 5.35997433211733)" fill="none" stroke="#000000" stroke-width="0.72" stroke-linecap="square" stroke-linejoin="miter" stroke-miterlimit="2" d="M20.6192 3.30926L0 0" sodipodi:nodetypes="cc"/><path id="shape21" transform="matrix(1.06622211439461 0 0 1.06622211439461 34.7273852026932 5.90280599692514)" fill="none" stroke="#000000" stroke-width="0.72" stroke-linecap="square" stroke-linejoin="miter" stroke-miterlimit="2" d="M0 3.81838L16.5463 0" sodipodi:nodetypes="cc"/><path id="shape22" transform="matrix(1.06622211439461 0 0 1.06622211439461 93.4210614749479 6.03851425440226)" fill="none" stroke="#000000" stroke-width="0.72" stroke-linecap="square" stroke-linejoin="miter" stroke-miterlimit="2" d="M0.0636396 8.52771L0 0" sodipodi:nodetypes="cc"/>
</svg>
