<?xml version="1.0" standalone="no"?>
<!DOCTYPE svg PUBLIC "-//W3C//DTD SVG 20010904//EN" "http://www.w3.org/TR/2001/REC-SVG-20010904/DTD/svg10.dtd">
<!-- Created using Krita: https://krita.org -->
<svg xmlns="http://www.w3.org/2000/svg" 
    xmlns:xlink="http://www.w3.org/1999/xlink"
    xmlns:krita="http://krita.org/namespaces/svg/krita"
    xmlns:sodipodi="http://sodipodi.sourceforge.net/DTD/sodipodi-0.dtd"
    width="177.84pt"
    height="213.12pt"
    viewBox="0 0 177.84 213.12">
<defs/>
<path id="shape0" transform="matrix(1.00000004118432 0 0 1.00000004118432 61.7400047742323 75.4200063262915)" fill="none" stroke="#000000" stroke-width="1.44" stroke-linecap="square" stroke-linejoin="miter" stroke-miterlimit="2" d="M0 134.46L11.52 0" sodipodi:nodetypes="cc"/><path id="shape1" transform="matrix(1.00000004118432 0 0 1.00000004118432 52.9200040921992 24.84000241504)" fill="none" stroke="#000000" stroke-width="1.44" stroke-linecap="square" stroke-linejoin="miter" stroke-miterlimit="2" d="M20.34 50.58L0 0" sodipodi:nodetypes="cc"/><path id="shape2" transform="matrix(1.00000004118432 0 0 1.00000004118432 9.00000069595224 24.84000241504)" fill="none" stroke="#000000" stroke-width="1.44" stroke-linecap="square" stroke-linejoin="miter" stroke-miterlimit="2" d="M43.92 0L0 0" sodipodi:nodetypes="cc"/><path id="shape3" transform="matrix(1.00000004118432 0 0 1.00000004118432 9.00000069595224 16.7400017886831)" fill="none" stroke="#000000" stroke-width="1.44" stroke-linecap="square" stroke-linejoin="miter" stroke-miterlimit="2" d="M0 8.1L40.86 0" sodipodi:nodetypes="cc"/><path id="shape5" transform="matrix(1.05350104585635 0 0 1.06016868002566 53.25044215175 3.69109727493456)" fill="none" stroke="#000000" stroke-width="1.44" stroke-linecap="square" stroke-linejoin="miter" stroke-miterlimit="2" d="M0 0.168749L65.3175 0" sodipodi:nodetypes="cc"/><path id="shape7" transform="matrix(1.00000004118432 0 0 1.00000004118432 125.640009715493 16.560001774764)" fill="none" stroke="#000000" stroke-width="1.44" stroke-linecap="square" stroke-linejoin="miter" stroke-miterlimit="2" d="M0 0L40.86 8.46" sodipodi:nodetypes="cc"/><path id="shape8" transform="matrix(1.00000004118432 0 0 1.00000004118432 122.040009437112 25.020002428959)" fill="none" stroke="#000000" stroke-width="1.44" stroke-linecap="square" stroke-linejoin="miter" stroke-miterlimit="2" d="M44.46 0L0 0.18" sodipodi:nodetypes="cc"/><path id="shape9" transform="matrix(1.00000004118432 0 0 1.00000004118432 101.880007878179 25.200002442878)" fill="none" stroke="#000000" stroke-width="1.44" stroke-linecap="square" stroke-linejoin="miter" stroke-miterlimit="2" d="M20.16 0L0 50.22" sodipodi:nodetypes="cc"/><path id="shape10" transform="matrix(1.00000004118432 0 0 1.00000004118432 101.880007878179 75.4200063262915)" fill="none" stroke="#000000" stroke-width="1.44" stroke-linecap="square" stroke-linejoin="miter" stroke-miterlimit="2" d="M0 0L12.06 134.82" sodipodi:nodetypes="cc"/><path id="shape11" transform="matrix(1.00000004118432 0 0 1.00000004118432 52.9200050655007 13.6800018036611)" fill="none" stroke="#000000" stroke-width="1.44" stroke-linecap="square" stroke-linejoin="miter" stroke-miterlimit="2" d="M0 11.16L10.44 0" sodipodi:nodetypes="cc"/><path id="shape12" transform="matrix(1.00000004118432 0 0 1.00000004118432 63.360006064817 13.6800018036611)" fill="none" stroke="#000000" stroke-width="1.44" stroke-linecap="square" stroke-linejoin="miter" stroke-miterlimit="2" d="M0 0L48.42 0" sodipodi:nodetypes="cc"/><path id="shape13" transform="matrix(1.00000004118432 0 0 1.00000004118432 111.780010699579 13.6800018036611)" fill="none" stroke="#000000" stroke-width="1.44" stroke-linecap="square" stroke-linejoin="miter" stroke-miterlimit="2" d="M0 0L10.44 10.98" sodipodi:nodetypes="cc"/><path id="shape14" transform="matrix(1.00000004118432 0 0 1.00000004118432 87.8400084080419 25.0200028891254)" fill="none" stroke="#000000" stroke-width="1.44" stroke-linecap="square" stroke-linejoin="miter" stroke-miterlimit="2" d="M34.38 0L0 50.4" sodipodi:nodetypes="cc"/><path id="shape15" transform="matrix(1.00000004118432 0 0 1.00000004118432 52.7400050482711 24.8400028718959)" fill="none" stroke="#000000" stroke-width="1.44" stroke-linecap="square" stroke-linejoin="miter" stroke-miterlimit="2" d="M35.1 50.58L0 0" sodipodi:nodetypes="cc"/><path id="shape16" transform="matrix(1.00000004118432 0 0 1.00000004118432 61.9200072240353 153.180018365299)" fill="none" stroke="#000000" stroke-width="0.72" stroke-linecap="square" stroke-linejoin="miter" stroke-miterlimit="2" d="M0 55.44L46.08 0" sodipodi:nodetypes="cc"/><path id="shape17" transform="matrix(1.00000004118432 0 0 1.00000004118432 71.4036462978273 94.6957453169988)" fill="none" stroke="#000000" stroke-width="0.72" stroke-linecap="square" stroke-linejoin="miter" stroke-miterlimit="2" d="M36.5964 57.1484L0 0" sodipodi:nodetypes="cc"/><path id="shape18" transform="matrix(1.00000004118432 0 0 1.00000004118432 71.4036462978273 75.0947443724972)" fill="none" stroke="#000000" stroke-width="0.72" stroke-linecap="square" stroke-linejoin="miter" stroke-miterlimit="2" d="M0 19.601L16.5463 0" sodipodi:nodetypes="cc"/><path id="shape19" transform="matrix(1.00000004118432 0 0 1.00000004118432 87.5681081156956 75.0947443724972)" fill="none" stroke="#000000" stroke-width="0.72" stroke-linecap="square" stroke-linejoin="miter" stroke-miterlimit="2" d="M0 0L16.1645 19.4737" sodipodi:nodetypes="cc"/><path id="shape20" transform="matrix(1.00000004118432 0 0 1.00000004118432 66.5670356751581 94.5684660900865)" fill="none" stroke="#000000" stroke-width="0.72" stroke-linecap="square" stroke-linejoin="miter" stroke-miterlimit="2" d="M37.1655 0L0 57.5302" sodipodi:nodetypes="cc"/><path id="shape21" transform="matrix(1.00000004118432 0 0 1.00000004118432 66.5670356751581 152.098676654468)" fill="none" stroke="#000000" stroke-width="0.72" stroke-linecap="square" stroke-linejoin="miter" stroke-miterlimit="2" d="M0 0L47.0933 57.1484" sodipodi:nodetypes="cc"/><path id="shape22" transform="matrix(1.00000004118432 0 0 1.00000004118432 18.7100464039253 22.6557029425024)" fill="none" stroke="#000000" stroke-width="0.72" stroke-linecap="square" stroke-linejoin="miter" stroke-miterlimit="2" d="M0 0L4.96389 2.54558" sodipodi:nodetypes="cc"/><path id="shape23" transform="matrix(1.00000004118432 0 0 1.00000004118432 23.6739362661912 20.4919560794634)" fill="none" stroke="#000000" stroke-width="0.72" stroke-linecap="square" stroke-linejoin="miter" stroke-miterlimit="2" d="M0 4.70933L5.85484 0" sodipodi:nodetypes="cc"/><path id="shape24" transform="matrix(1.00000004118432 0 0 1.00000004118432 30.8015729914962 20.2373976249883)" fill="none" stroke="#000000" stroke-width="0.72" stroke-linecap="square" stroke-linejoin="miter" stroke-miterlimit="2" d="M0 0L7.50947 4.83661" sodipodi:nodetypes="cc"/><path id="shape25" transform="matrix(1.00000004118432 0 0 1.00000004118432 38.3110473985138 16.4190208078607)" fill="none" stroke="#000000" stroke-width="0.72" stroke-linecap="square" stroke-linejoin="miter" stroke-miterlimit="2" d="M0 8.65499L11.2006 0" sodipodi:nodetypes="cc"/><path id="shape26" transform="matrix(1.00000004118432 0 0 1.00000004118432 49.5116193954216 3.69109808410187)" fill="none" stroke="#000000" stroke-width="1.44" stroke-linecap="square" stroke-linejoin="miter" stroke-miterlimit="2" d="M0 12.7279L5.98212 0" sodipodi:nodetypes="cc"/><path id="shape27" transform="matrix(1.00000004118432 0 0 1.00000004118432 55.4937430755882 3.69109808410187)" fill="none" stroke="#000000" stroke-width="0.72" stroke-linecap="square" stroke-linejoin="miter" stroke-miterlimit="2" d="M0 0L8.01859 9.8005" sodipodi:nodetypes="cc"/><path id="shape28" transform="matrix(1.00000004118432 0 0 1.00000004118432 63.5123343915562 3.81837731133946)" fill="none" stroke="#000000" stroke-width="0.72" stroke-linecap="square" stroke-linejoin="miter" stroke-miterlimit="2" d="M0 9.67322L4.96389 0" sodipodi:nodetypes="cc"/><path id="shape29" transform="matrix(1.00000004118432 0 0 1.00000004118432 68.4762242538221 3.81837731133946)" fill="none" stroke="#000000" stroke-width="0.72" stroke-linecap="square" stroke-linejoin="miter" stroke-miterlimit="2" d="M0 0L4.70933 9.8005" sodipodi:nodetypes="cc"/><path id="shape30" transform="matrix(1.00000004118432 0 0 1.00000004118432 73.1855556616128 3.69109808410187)" fill="none" stroke="#000000" stroke-width="0.72" stroke-linecap="square" stroke-linejoin="miter" stroke-miterlimit="2" d="M0 9.92778L4.83661 0" sodipodi:nodetypes="cc"/><path id="shape31" transform="matrix(1.00000004118432 0 0 1.00000004118432 78.0221662966412 3.69109808410187)" fill="none" stroke="#000000" stroke-width="0.72" stroke-linecap="square" stroke-linejoin="miter" stroke-miterlimit="2" d="M0 0L4.70933 9.67322" sodipodi:nodetypes="cc"/><path id="shape32" transform="matrix(1.00000004118432 0 0 1.00000004118432 82.7314977044319 3.56381885686429)" fill="none" stroke="#000000" stroke-width="0.72" stroke-linecap="square" stroke-linejoin="miter" stroke-miterlimit="2" d="M0 9.8005L5.34573 0" sodipodi:nodetypes="cc"/><path id="shape33" transform="matrix(1.00000004118432 0 0 1.00000004118432 88.0772252484106 3.56381885686429)" fill="none" stroke="#000000" stroke-width="0.72" stroke-linecap="square" stroke-linejoin="miter" stroke-miterlimit="2" d="M0 0L4.32749 10.0551" sodipodi:nodetypes="cc"/><path id="shape34" transform="matrix(1.00000004118432 0 0 1.00000004118432 92.5319982017262 3.56381885686429)" fill="none" stroke="#000000" stroke-width="0.72" stroke-linecap="square" stroke-linejoin="miter" stroke-miterlimit="2" d="M0 10.0551L4.96389 0" sodipodi:nodetypes="cc"/><path id="shape35" transform="matrix(1.00000004118432 0 0 1.00000004118432 97.4958880639921 3.56381885686429)" fill="none" stroke="#000000" stroke-width="0.72" stroke-linecap="square" stroke-linejoin="miter" stroke-miterlimit="2" d="M0 0L4.70933 10.0551" sodipodi:nodetypes="cc"/><path id="shape36" transform="matrix(1.00000004118432 0 0 1.00000004118432 102.205219471783 3.69109808410187)" fill="none" stroke="#000000" stroke-width="0.72" stroke-linecap="square" stroke-linejoin="miter" stroke-miterlimit="2" d="M0 9.92778L4.07294 0" sodipodi:nodetypes="cc"/><path id="shape37" transform="matrix(1.00000004118432 0 0 1.00000004118432 106.278154743387 3.69109808410187)" fill="none" stroke="#000000" stroke-width="0.72" stroke-linecap="square" stroke-linejoin="miter" stroke-miterlimit="2" d="M0 0L5.21845 10.1823" sodipodi:nodetypes="cc"/><path id="shape38" transform="matrix(1.00000004118432 0 0 1.00000004118432 111.496603060127 3.81837731133946)" fill="none" stroke="#000000" stroke-width="0.72" stroke-linecap="square" stroke-linejoin="miter" stroke-miterlimit="2" d="M0 10.0551L8.65499 0" sodipodi:nodetypes="cc"/><path id="shape39" transform="matrix(1.00000004118432 0 0 1.00000004118432 120.151590512283 3.81837731133946)" fill="none" stroke="#000000" stroke-width="1.44" stroke-linecap="square" stroke-linejoin="miter" stroke-miterlimit="2" d="M0 0L5.60029 12.7279" sodipodi:nodetypes="cc"/><path id="shape40" transform="matrix(1.00000004118432 0 0 1.00000004118432 111.87844074184 13.4915985813961)" fill="none" stroke="#000000" stroke-width="0.72" stroke-linecap="square" stroke-linejoin="miter" stroke-miterlimit="2" d="M0 0L14.5098 2.67286" sodipodi:nodetypes="cc"/><path id="shape41" transform="matrix(1.00000004118432 0 0 1.00000004118432 125.242759601787 16.1644623533855)" fill="none" stroke="#000000" stroke-width="0.72" stroke-linecap="square" stroke-linejoin="miter" stroke-miterlimit="2" d="M0 0L11.837 8.90955" sodipodi:nodetypes="cc"/><path id="shape42" transform="matrix(1.00000004118432 0 0 1.00000004118432 137.079727734881 19.728280716038)" fill="none" stroke="#000000" stroke-width="0.72" stroke-linecap="square" stroke-linejoin="miter" stroke-miterlimit="2" d="M0 5.34573L7.38219 0" sodipodi:nodetypes="cc"/><path id="shape43" transform="matrix(1.00000004118432 0 0 1.00000004118432 144.461922914663 19.728280716038)" fill="none" stroke="#000000" stroke-width="0.72" stroke-linecap="square" stroke-linejoin="miter" stroke-miterlimit="2" d="M0 0L6.23668 5.47301" sodipodi:nodetypes="cc"/><path id="shape44" transform="matrix(1.00000004118432 0 0 1.00000004118432 60.8394696560759 36.274579682458)" fill="none" stroke="#000000" stroke-width="0.72" stroke-linecap="square" stroke-linejoin="miter" stroke-miterlimit="2" d="M0.127279 0L0 9.41866" sodipodi:nodetypes="cc"/><path id="shape45" transform="matrix(1.00000004118432 0 0 1.00000004118432 60.8394696560759 45.5659631236578)" fill="none" stroke="#000000" stroke-width="0.72" stroke-linecap="square" stroke-linejoin="miter" stroke-miterlimit="2" d="M0 0.127279L6.49124 0" sodipodi:nodetypes="cc"/><path id="shape46" transform="matrix(1.00000004118432 0 0 1.00000004118432 65.1669633136211 45.5659631236578)" fill="none" stroke="#000000" stroke-width="0.72" stroke-linecap="square" stroke-linejoin="miter" stroke-miterlimit="2" d="M2.16375 0L0 10.0551" sodipodi:nodetypes="cc"/><path id="shape47" transform="matrix(1.00000004118432 0 0 1.00000004118432 65.294242538843 55.6210219161892)" fill="none" stroke="#000000" stroke-width="0.72" stroke-linecap="square" stroke-linejoin="miter" stroke-miterlimit="2" d="M0 0L8.52771 0.127279" sodipodi:nodetypes="cc"/><path id="shape48" transform="matrix(1.00000004118432 0 0 1.00000004118432 69.4944569711662 55.7483011414111)" fill="none" stroke="#000000" stroke-width="0.72" stroke-linecap="square" stroke-linejoin="miter" stroke-miterlimit="2" d="M4.32749 0L0 9.67322" sodipodi:nodetypes="cc"/><path id="shape49" transform="matrix(1.00000004118432 0 0 1.00000004118432 69.4944569711662 65.2942430330548)" fill="none" stroke="#000000" stroke-width="0.72" stroke-linecap="square" stroke-linejoin="miter" stroke-miterlimit="2" d="M0 0.127279L11.0733 0" sodipodi:nodetypes="cc"/><path id="shape50" transform="matrix(1.00000004118432 0 0 1.00000004118432 73.1855545026018 65.2942430330548)" fill="none" stroke="#000000" stroke-width="0.72" stroke-linecap="square" stroke-linejoin="miter" stroke-miterlimit="2" d="M7.38219 0L0 10.3096" sodipodi:nodetypes="cc"/><path id="shape51" transform="matrix(1.00000004118432 0 0 1.00000004118432 94.059347438996 65.1669638078329)" fill="none" stroke="#000000" stroke-width="0.72" stroke-linecap="square" stroke-linejoin="miter" stroke-miterlimit="2" d="M12.2188 0L0 0" sodipodi:nodetypes="cc"/><path id="shape52" transform="matrix(1.00000004118432 0 0 1.00000004118432 94.059347438996 65.1669638078329)" fill="none" stroke="#000000" stroke-width="0.72" stroke-linecap="square" stroke-linejoin="miter" stroke-miterlimit="2" d="M0 0L8.27315 9.92778" sodipodi:nodetypes="cc"/><path id="shape53" transform="matrix(1.00000004118432 0 0 1.00000004118432 101.568821727089 55.2391842405234)" fill="none" stroke="#000000" stroke-width="0.72" stroke-linecap="square" stroke-linejoin="miter" stroke-miterlimit="2" d="M4.70933 9.67322L0 0" sodipodi:nodetypes="cc"/><path id="shape54" transform="matrix(1.00000004118432 0 0 1.00000004118432 101.568821727089 55.2391842405234)" fill="none" stroke="#000000" stroke-width="0.72" stroke-linecap="square" stroke-linejoin="miter" stroke-miterlimit="2" d="M0 0L8.40043 0" sodipodi:nodetypes="cc"/><path id="shape55" transform="matrix(1.00000004118432 0 0 1.00000004118432 108.000004447906 45.4386838984359)" fill="none" stroke="#000000" stroke-width="0.72" stroke-linecap="square" stroke-linejoin="miter" stroke-miterlimit="2" d="M2.09653 9.8005L0 0" sodipodi:nodetypes="cc"/><path id="shape56" transform="matrix(1.00000004118432 0 0 1.00000004118432 108.000004447906 45.4386838984359)" fill="none" stroke="#000000" stroke-width="0.72" stroke-linecap="square" stroke-linejoin="miter" stroke-miterlimit="2" d="M0 0L6.16946 0" sodipodi:nodetypes="cc"/><path id="shape57" transform="matrix(1.00000004118432 0 0 1.00000004118432 114.16946502406 36.147300457236)" fill="none" stroke="#000000" stroke-width="0.72" stroke-linecap="square" stroke-linejoin="miter" stroke-miterlimit="2" d="M0 9.29138L0.636396 0" sodipodi:nodetypes="cc"/><path id="shape58" transform="matrix(1.00000004118432 0 0 1.00000004118432 63.7200023884919 177.480007146904)" fill="none" stroke="#000000" stroke-width="0.72" stroke-linecap="square" stroke-linejoin="miter" stroke-miterlimit="2" d="M47.34 0L0 0.18" sodipodi:nodetypes="cc"/><path id="shape59" transform="matrix(1.00000004118432 0 0 1.00000004118432 64.6200024222278 178.020007167146)" fill="none" stroke="#000000" stroke-width="0.72" stroke-linecap="square" stroke-linejoin="miter" stroke-miterlimit="2" d="M0 0L9.72 15.84" sodipodi:nodetypes="cc"/><path id="shape60" transform="matrix(1.00000004118432 0 0 1.00000004118432 63.1800023682506 193.680007754148)" fill="none" stroke="#000000" stroke-width="0.72" stroke-linecap="square" stroke-linejoin="miter" stroke-miterlimit="2" d="M11.16 0.18L0 0" sodipodi:nodetypes="cc"/><path id="shape61" transform="matrix(1.00000004118432 0 0 1.00000004118432 100.44000376491 193.500007747402)" fill="none" stroke="#000000" stroke-width="0.72" stroke-linecap="square" stroke-linejoin="miter" stroke-miterlimit="2" d="M11.52 0.18L0 0" sodipodi:nodetypes="cc"/><path id="shape62" transform="matrix(1.00000004118432 0 0 1.00000004118432 100.44000376491 178.200007173893)" fill="none" stroke="#000000" stroke-width="0.72" stroke-linecap="square" stroke-linejoin="miter" stroke-miterlimit="2" d="M0 15.3L10.44 0" sodipodi:nodetypes="cc"/><path id="shape63" transform="matrix(1.00000004118432 0 0 1.00000004118432 98.1000036771981 164.52000666111)" fill="none" stroke="#000000" stroke-width="0.72" stroke-linecap="square" stroke-linejoin="miter" stroke-miterlimit="2" d="M12.78 13.68L0 0" sodipodi:nodetypes="cc"/><path id="shape64" transform="matrix(1.00000004118432 0 0 1.00000004118432 98.1000036771981 164.52000666111)" fill="none" stroke="#000000" stroke-width="0.72" stroke-linecap="square" stroke-linejoin="miter" stroke-miterlimit="2" d="M0 0L12.06 0.18" sodipodi:nodetypes="cc"/><path id="shape65" transform="matrix(1.00000004118432 0 0 1.00000004118432 65.3400024492164 164.880006674604)" fill="none" stroke="#000000" stroke-width="0.72" stroke-linecap="square" stroke-linejoin="miter" stroke-miterlimit="2" d="M0 0L11.16 0.18" sodipodi:nodetypes="cc"/><path id="shape66" transform="matrix(1.00000004118432 0 0 1.00000004118432 64.800002428975 165.060006681351)" fill="none" stroke="#000000" stroke-width="0.72" stroke-linecap="square" stroke-linejoin="miter" stroke-miterlimit="2" d="M11.7 0L0 12.24" sodipodi:nodetypes="cc"/><path id="shape67" transform="matrix(1.00000004118432 0 0 1.00000004118432 68.2200025571708 135.540005574817)" fill="none" stroke="#000000" stroke-width="0.72" stroke-linecap="square" stroke-linejoin="miter" stroke-miterlimit="2" d="M0 0.18L8.46 0" sodipodi:nodetypes="cc"/><path id="shape68" transform="matrix(1.00000004118432 0 0 1.00000004118432 69.4800026044009 120.060004994562)" fill="none" stroke="#000000" stroke-width="0.72" stroke-linecap="square" stroke-linejoin="miter" stroke-miterlimit="2" d="M7.56 15.48L0 0" sodipodi:nodetypes="cc"/><path id="shape69" transform="matrix(1.00000004118432 0 0 1.00000004118432 69.4800026044009 108.000004942118)" fill="none" stroke="#000000" stroke-width="0.72" stroke-linecap="square" stroke-linejoin="miter" stroke-miterlimit="2" d="M0 12.06L9.9 0" sodipodi:nodetypes="cc"/><path id="shape70" transform="matrix(1.00000004118432 0 0 1.00000004118432 70.6717899850586 106.978189566598)" fill="none" stroke="#000000" stroke-width="0.72" stroke-linecap="square" stroke-linejoin="miter" stroke-miterlimit="2" d="M0 0L8.87773 0" sodipodi:nodetypes="cc"/><path id="shape71" transform="matrix(1.00000004118432 0 0 1.00000004118432 95.6700038305799 106.920004775236)" fill="none" stroke="#000000" stroke-width="0.72" stroke-linecap="square" stroke-linejoin="miter" stroke-miterlimit="2" d="M9.18 0.09L0 0" sodipodi:nodetypes="cc"/><path id="shape72" transform="matrix(1.00000004118432 0 0 1.00000004118432 95.6700038305799 106.920004775236)" fill="none" stroke="#000000" stroke-width="0.72" stroke-linecap="square" stroke-linejoin="miter" stroke-miterlimit="2" d="M0 0L10.35 12.69" sodipodi:nodetypes="cc"/><path id="shape73" transform="matrix(1.00000004118432 0 0 1.00000004118432 98.0100039242723 119.610005283338)" fill="none" stroke="#000000" stroke-width="0.72" stroke-linecap="square" stroke-linejoin="miter" stroke-miterlimit="2" d="M8.01 0L0 16.56" sodipodi:nodetypes="cc"/><path id="shape74" transform="matrix(1.00000004118432 0 0 1.00000004118432 98.0100039242723 136.170005946392)" fill="none" stroke="#000000" stroke-width="0.72" stroke-linecap="square" stroke-linejoin="miter" stroke-miterlimit="2" d="M0 0L9.99 0.09" sodipodi:nodetypes="cc"/><path id="shape75" transform="matrix(1.00000004118432 0 0 1.00000004118432 69.3000027747381 119.520005279735)" fill="none" stroke="#000000" stroke-width="0.72" stroke-linecap="square" stroke-linejoin="miter" stroke-miterlimit="2" d="M36.36 0L0 0" sodipodi:nodetypes="cc"/><path id="shape76" transform="matrix(1.00000004118432 0 0 1.00000004118432 95.4594226717344 85.0225262871699)" fill="none" stroke="#000000" stroke-width="0.72" stroke-linecap="square" stroke-linejoin="miter" stroke-miterlimit="2" d="M7.31856 0.0636396L0 0" sodipodi:nodetypes="cc"/><path id="shape77" transform="matrix(1.00000004118432 0 0 1.00000004118432 95.4594226717344 75.412944404882)" fill="none" stroke="#000000" stroke-width="0.72" stroke-linecap="square" stroke-linejoin="miter" stroke-miterlimit="2" d="M0 9.60958L6.68216 0" sodipodi:nodetypes="cc"/><path id="shape78" transform="matrix(1.00000004118432 0 0 1.00000004118432 72.2946027700603 85.0861659022844)" fill="none" stroke="#000000" stroke-width="0.72" stroke-linecap="square" stroke-linejoin="miter" stroke-miterlimit="2" d="M0 0L7.00036 0" sodipodi:nodetypes="cc"/><path id="shape79" transform="matrix(1.00000004118432 0 0 1.00000004118432 73.1219177665486 75.412944404882)" fill="none" stroke="#000000" stroke-width="0.72" stroke-linecap="square" stroke-linejoin="miter" stroke-miterlimit="2" d="M6.17304 9.67322L0 0" sodipodi:nodetypes="cc"/><path id="shape80" transform="matrix(1.00000004118432 0 0 1.00000004118432 49.5116189908809 13.618877697359)" fill="none" stroke="#000000" stroke-width="0.72" stroke-linecap="square" stroke-linejoin="miter" stroke-miterlimit="2" d="M0 2.92742L13.6189 0" sodipodi:nodetypes="cc"/><path id="shape81" transform="matrix(1.00000004118432 0 0 1.00000004118432 121.806221711391 16.2917417471459)" fill="none" stroke="#000000" stroke-width="0.72" stroke-linecap="square" stroke-linejoin="miter" stroke-miterlimit="2" d="M3.81838 0L0 9.29138" sodipodi:nodetypes="cc"/><path id="shape82" transform="matrix(1.00000004118432 0 0 1.00000004118432 49.8934575871108 16.546300204223)" fill="none" stroke="#000000" stroke-width="0.72" stroke-linecap="square" stroke-linejoin="miter" stroke-miterlimit="2" d="M0 0L3.18198 8.40043" sodipodi:nodetypes="cc"/><path id="shape411" transform="matrix(1.26318856565087 0 0 0.99999999759641 -0.540936734002217 212.451757693572)" fill="none" stroke="#3b2300" stroke-width="2.16" stroke-linecap="square" stroke-linejoin="miter" stroke-miterlimit="2" d="M0 0L160.92 0.18" sodipodi:nodetypes="cc"/><path id="shape511" transform="matrix(1.26318856565087 0 0 0.999999997596409 -0.342609260680463 210.815671121198)" fill="none" stroke="#297f00" stroke-width="1.44" stroke-linecap="square" stroke-linejoin="miter" stroke-miterlimit="2" d="M0 0L161.135 0.127279" sodipodi:nodetypes="cc"/><path id="shape02" transform="matrix(0.999999909328869 0 0 0.936540991086501 10.3441865645224 26.2165886800643)" fill="none" stroke="#737373" stroke-width="2.16" stroke-linecap="square" stroke-linejoin="miter" stroke-miterlimit="2" d="M0 0L0 11.1415" sodipodi:nodetypes="cc"/><circle id="shape015" transform="matrix(1.43710236271958 0 0 1.46346161778502 9.16874746064843 37.6332270204414)" r="0.719999999999999" cx="0.719999999999999" cy="0.719999999999999" fill="#d00000" fill-rule="evenodd" stroke-opacity="0" stroke="#000000" stroke-width="0" stroke-linecap="square" stroke-linejoin="bevel"/><path id="shape021" transform="matrix(0.999999909328869 0 0 0.936540991086501 38.4241882628609 25.8565886582908)" fill="none" stroke="#737373" stroke-width="2.16" stroke-linecap="square" stroke-linejoin="miter" stroke-miterlimit="2" d="M0 0L0 11.1415" sodipodi:nodetypes="cc"/><circle id="shape0151" transform="matrix(1.43710236271958 0 0 1.46346161778502 37.2487491589868 37.2732269986679)" r="0.719999999999999" cx="0.719999999999999" cy="0.719999999999999" fill="#d00000" fill-rule="evenodd" stroke-opacity="0" stroke="#000000" stroke-width="0" stroke-linecap="square" stroke-linejoin="bevel"/><path id="shape022" transform="matrix(0.999999909328869 0 0 0.936540991086501 73.3441938415347 14.336586739689)" fill="none" stroke="#737373" stroke-width="2.16" stroke-linecap="square" stroke-linejoin="miter" stroke-miterlimit="2" d="M0 0L0 11.1415" sodipodi:nodetypes="cc"/><circle id="shape0152" transform="matrix(1.43710236271958 0 0 1.46346161778502 72.1687547376607 25.753225080066)" r="0.719999999999999" cx="0.719999999999999" cy="0.719999999999999" fill="#d00000" fill-rule="evenodd" stroke-opacity="0" stroke="#000000" stroke-width="0" stroke-linecap="square" stroke-linejoin="bevel"/><path id="shape023" transform="matrix(0.999999909328869 0 0 0.936540991086501 102.159929375907 15.0281666395252)" fill="none" stroke="#737373" stroke-width="2.16" stroke-linecap="square" stroke-linejoin="miter" stroke-miterlimit="2" d="M0 0L0 11.1415" sodipodi:nodetypes="cc"/><circle id="shape0153" transform="matrix(1.43710236271958 0 0 1.46346161778502 100.984490272035 26.4448049799022)" r="0.719999999999999" cx="0.719999999999999" cy="0.719999999999999" fill="#d00000" fill-rule="evenodd" stroke-opacity="0" stroke="#000000" stroke-width="0" stroke-linecap="square" stroke-linejoin="bevel"/><path id="shape024" transform="matrix(0.999999909328869 0 0 0.936540991086501 165.926820821838 26.610576063836)" fill="none" stroke="#737373" stroke-width="2.16" stroke-linecap="square" stroke-linejoin="miter" stroke-miterlimit="2" d="M0 0L0 11.1415" sodipodi:nodetypes="cc"/><circle id="shape0154" transform="matrix(1.43710236271958 0 0 1.46346161778502 164.751381717963 38.027214404213)" r="0.719999999999999" cx="0.719999999999999" cy="0.719999999999999" fill="#d00000" fill-rule="evenodd" stroke-opacity="0" stroke="#000000" stroke-width="0" stroke-linecap="square" stroke-linejoin="bevel"/><path id="shape025" transform="matrix(0.999999909328869 0 0 0.936540991086501 137.161716097727 26.7378552882788)" fill="none" stroke="#737373" stroke-width="2.16" stroke-linecap="square" stroke-linejoin="miter" stroke-miterlimit="2" d="M0 0L0 11.1415" sodipodi:nodetypes="cc"/><circle id="shape0155" transform="matrix(1.43710236271958 0 0 1.46346161778502 135.986276993852 38.154493628656)" r="0.719999999999999" cx="0.719999999999999" cy="0.719999999999999" fill="#d00000" fill-rule="evenodd" stroke-opacity="0" stroke="#000000" stroke-width="0" stroke-linecap="square" stroke-linejoin="bevel"/>
</svg>
