<?xml version="1.0" standalone="no"?>
<!DOCTYPE svg PUBLIC "-//W3C//DTD SVG 20010904//EN" "http://www.w3.org/TR/2001/REC-SVG-20010904/DTD/svg10.dtd">
<!-- Created using Krita: https://krita.org -->
<svg xmlns="http://www.w3.org/2000/svg" 
    xmlns:xlink="http://www.w3.org/1999/xlink"
    xmlns:krita="http://krita.org/namespaces/svg/krita"
    xmlns:sodipodi="http://sodipodi.sourceforge.net/DTD/sodipodi-0.dtd"
    width="108pt"
    height="281.52pt"
    viewBox="0 0 108 281.52">
<defs/>
<path id="shape0" transform="matrix(0.99999991284324 0 0 0.99999991284324 12.0150034306226 60.614001947311)" fill="#bebebe" fill-rule="evenodd" stroke="#000000" stroke-width="1.44" stroke-linecap="square" stroke-linejoin="bevel" d="M0 0L80.91 0.09L78.48 2.25L61.92 2.25L49.41 4.5L31.32 4.5L18.45 2.79L3.24 2.61Z" sodipodi:nodetypes="ccccccccc"/><path id="shape01" transform="matrix(0.99999991284324 0 0 0.99999991284324 11.5085360487245 111.703197139964)" fill="#bebebe" fill-rule="evenodd" stroke="#000000" stroke-width="1.44" stroke-linecap="square" stroke-linejoin="bevel" d="M0 0L80.91 0.09L78.48 2.25L61.92 2.25L49.41 4.5L31.32 4.5L18.45 2.79L3.24 2.61Z" sodipodi:nodetypes="ccccccccc"/><path id="shape02" transform="matrix(0.999999956421619 0 0 0.999999956421619 12.1500020578339 162.449996649093)" fill="#bebebe" fill-rule="evenodd" stroke="#000000" stroke-width="1.44" stroke-linecap="square" stroke-linejoin="bevel" d="M0 0L80.91 0.09L78.48 2.25L61.92 2.25L49.41 4.5L31.32 4.5L18.45 2.79L3.24 2.61Z" sodipodi:nodetypes="ccccccccc"/><path id="shape03" transform="matrix(1.00000000874085 0 0 1.00000000874085 43.9200016201674 166.950008386156)" fill="#bebebe" fill-rule="evenodd" stroke="#000000" stroke-width="1.44" stroke-linecap="square" stroke-linejoin="bevel" d="M0 111.24L0.360001 0L5.58 0.09L6.16437 111.219Z" sodipodi:nodetypes="ccccc"/><path id="shape04" transform="matrix(0.999999972072392 0 0 0.999999972072392 55.4301001728178 167.244902667945)" fill="#bebebe" fill-rule="evenodd" stroke="#000000" stroke-width="1.44" stroke-linecap="square" stroke-linejoin="bevel" d="M0 111.433L0.763675 0.0636396L5.60029 0L6.17304 111.815Z" sodipodi:nodetypes="ccccc"/><path id="shape42" transform="translate(44.1161203165014, 209.899048135596)" fill="none" stroke="#000000" stroke-width="1.44" stroke-linecap="square" stroke-linejoin="miter" stroke-miterlimit="2" d="M0 0L16.7351 0.160963" sodipodi:nodetypes="cc"/><path id="shape43" transform="translate(44.1161189088614, 212.985567110011)" fill="none" stroke="#000000" stroke-width="1.44" stroke-linecap="square" stroke-linejoin="miter" stroke-miterlimit="2" d="M0 0L16.9281 0.127279" sodipodi:nodetypes="cc"/><path id="shape44" transform="translate(44.2433981315129, 253.46035991317)" fill="none" stroke="#000000" stroke-width="1.44" stroke-linecap="square" stroke-linejoin="miter" stroke-miterlimit="2" d="M0 0L16.6736 0.127279" sodipodi:nodetypes="cc"/><path id="shape45" transform="translate(44.4979565768158, 256.515061256805)" fill="none" stroke="#000000" stroke-width="1.44" stroke-linecap="square" stroke-linejoin="miter" stroke-miterlimit="2" d="M0 0.127279L16.9281 0" sodipodi:nodetypes="cc"/><path id="shape46" transform="translate(41.6978075962393, 277.643399606157)" fill="none" stroke="#000000" stroke-width="1.44" stroke-linecap="square" stroke-linejoin="miter" stroke-miterlimit="2" d="M0 0L21.3829 0.127279" sodipodi:nodetypes="cc"/><path id="shape128" transform="matrix(0.99999995926171 0 0 0.99999995926171 89.4539114670383 64.4988673444627)" fill="none" stroke="#737373" stroke-width="2.16" stroke-linecap="square" stroke-linejoin="miter" stroke-miterlimit="2" d="M0 0L0 16.3554" sodipodi:nodetypes="cc"/><circle id="shape07" transform="matrix(1.4362818600722 0 0 1.52289631460956 86.2557513276483 81.4986226976388)" r="0.719999999999999" cx="0.719999999999999" cy="0.719999999999999" fill="#d00000" fill-rule="evenodd" stroke-opacity="0" stroke="#000000" stroke-width="0" stroke-linecap="square" stroke-linejoin="bevel"/><circle id="shape08" transform="matrix(1.48342034702609 0 0 1.53711060326814 90.5546257439907 81.4781541219705)" r="0.719999999999999" cx="0.719999999999999" cy="0.719999999999999" fill="#d00000" fill-rule="evenodd" stroke-opacity="0" stroke="#000000" stroke-width="0" stroke-linecap="square" stroke-linejoin="bevel"/><path id="shape1281" transform="matrix(0.99999995926171 0 0 0.99999995926171 89.3570051193289 114.823292064472)" fill="none" stroke="#737373" stroke-width="2.16" stroke-linecap="square" stroke-linejoin="miter" stroke-miterlimit="2" d="M0 0L0 16.3554" sodipodi:nodetypes="cc"/><circle id="shape071" transform="matrix(1.4362818600722 0 0 1.52289631460956 86.1588449799389 131.823047417648)" r="0.719999999999999" cx="0.719999999999999" cy="0.719999999999999" fill="#d00000" fill-rule="evenodd" stroke-opacity="0" stroke="#000000" stroke-width="0" stroke-linecap="square" stroke-linejoin="bevel"/><circle id="shape081" transform="matrix(1.48342034702609 0 0 1.53711060326814 90.4577193962813 131.80257884198)" r="0.719999999999999" cx="0.719999999999999" cy="0.719999999999999" fill="#d00000" fill-rule="evenodd" stroke-opacity="0" stroke="#000000" stroke-width="0" stroke-linecap="square" stroke-linejoin="bevel"/><path id="shape1282" transform="matrix(0.99999995926171 0 0 0.99999995926171 89.9131678402072 166.752278897309)" fill="none" stroke="#737373" stroke-width="2.16" stroke-linecap="square" stroke-linejoin="miter" stroke-miterlimit="2" d="M0 0L0 16.3554" sodipodi:nodetypes="cc"/><circle id="shape072" transform="matrix(1.4362818600722 0 0 1.52289631460956 86.7150077008172 183.752034250486)" r="0.719999999999999" cx="0.719999999999999" cy="0.719999999999999" fill="#d00000" fill-rule="evenodd" stroke-opacity="0" stroke="#000000" stroke-width="0" stroke-linecap="square" stroke-linejoin="bevel"/><circle id="shape082" transform="matrix(1.48342034702609 0 0 1.53711060326814 91.0138821171596 183.731565674817)" r="0.719999999999999" cx="0.719999999999999" cy="0.719999999999999" fill="#d00000" fill-rule="evenodd" stroke-opacity="0" stroke="#000000" stroke-width="0" stroke-linecap="square" stroke-linejoin="bevel"/><path id="shape1283" transform="matrix(0.99999995926171 0 0 0.99999995926171 15.9781617265021 166.8872750612)" fill="none" stroke="#737373" stroke-width="2.16" stroke-linecap="square" stroke-linejoin="miter" stroke-miterlimit="2" d="M0 0L0 16.3554" sodipodi:nodetypes="cc"/><circle id="shape073" transform="matrix(1.4362818600722 0 0 1.52289631460956 12.8700015891776 183.887030414377)" r="0.719999999999999" cx="0.719999999999999" cy="0.719999999999999" fill="#d00000" fill-rule="evenodd" stroke-opacity="0" stroke="#000000" stroke-width="0" stroke-linecap="square" stroke-linejoin="bevel"/><circle id="shape083" transform="matrix(1.48342034702609 0 0 1.53711060326814 17.1688760055201 183.866561838708)" r="0.719999999999999" cx="0.719999999999999" cy="0.719999999999999" fill="#d00000" fill-rule="evenodd" stroke-opacity="0" stroke="#000000" stroke-width="0" stroke-linecap="square" stroke-linejoin="bevel"/><path id="shape1284" transform="matrix(0.99999995926171 0 0 0.99999995926171 15.5346296453188 115.675417675703)" fill="none" stroke="#737373" stroke-width="2.16" stroke-linecap="square" stroke-linejoin="miter" stroke-miterlimit="2" d="M0 0L0 16.3554" sodipodi:nodetypes="cc"/><circle id="shape074" transform="matrix(1.4362818600722 0 0 1.52289631460956 12.3364695059288 132.675173028879)" r="0.719999999999999" cx="0.719999999999999" cy="0.719999999999999" fill="#d00000" fill-rule="evenodd" stroke-opacity="0" stroke="#000000" stroke-width="0" stroke-linecap="square" stroke-linejoin="bevel"/><circle id="shape084" transform="matrix(1.48342034702609 0 0 1.53711060326814 16.6353439222712 132.654704453211)" r="0.719999999999999" cx="0.719999999999999" cy="0.719999999999999" fill="#d00000" fill-rule="evenodd" stroke-opacity="0" stroke="#000000" stroke-width="0" stroke-linecap="square" stroke-linejoin="bevel"/><path id="shape1285" transform="matrix(0.99999995926171 0 0 0.99999995926171 16.1131656082602 65.0522748767509)" fill="none" stroke="#737373" stroke-width="2.16" stroke-linecap="square" stroke-linejoin="miter" stroke-miterlimit="2" d="M0 0L0 16.3554" sodipodi:nodetypes="cc"/><circle id="shape075" transform="matrix(1.4362818600722 0 0 1.52289631460956 12.9150054688702 82.0520302299271)" r="0.719999999999999" cx="0.719999999999999" cy="0.719999999999999" fill="#d00000" fill-rule="evenodd" stroke-opacity="0" stroke="#000000" stroke-width="0" stroke-linecap="square" stroke-linejoin="bevel"/><circle id="shape085" transform="matrix(1.48342034702609 0 0 1.53711060326814 17.2138798852126 82.0315616542588)" r="0.719999999999999" cx="0.719999999999999" cy="0.719999999999999" fill="#d00000" fill-rule="evenodd" stroke-opacity="0" stroke="#000000" stroke-width="0" stroke-linecap="square" stroke-linejoin="bevel"/><path id="shape126" transform="matrix(1.67364016736402 0 0 0.99999996242587 -93.5999999999999 280.821940429034)" fill="none" stroke="#3b2300" stroke-width="2.16" stroke-linecap="square" stroke-linejoin="miter" stroke-miterlimit="2" d="M0 0L171.318 0.13613" sodipodi:nodetypes="cc"/><path id="shape127" transform="matrix(1.67364016736402 0 0 0.99999996242587 -93.5999999999999 279.291940407793)" fill="none" stroke="#297f00" stroke-width="1.44" stroke-linecap="square" stroke-linejoin="miter" stroke-miterlimit="2" d="M0 0L172.08 0.0751454" sodipodi:nodetypes="cc"/><path id="shape47" transform="translate(60.6624181790458, 60.9505357875465)" fill="none" stroke="#000000" stroke-width="0.72" stroke-linecap="square" stroke-linejoin="miter" stroke-miterlimit="2" d="M0 0L0.0636396 4.20021" sodipodi:nodetypes="cc"/><path id="shape48" transform="translate(44.6252360911252, 61.2050942333865)" fill="none" stroke="#000000" stroke-width="0.72" stroke-linecap="square" stroke-linejoin="miter" stroke-miterlimit="2" d="M0.0636396 0L0 4.0093" sodipodi:nodetypes="cc"/><path id="shape49" transform="translate(43.9252028944204, 112.371343966924)" fill="none" stroke="#000000" stroke-width="0.72" stroke-linecap="square" stroke-linejoin="miter" stroke-miterlimit="2" d="M0 0L0 3.62746" sodipodi:nodetypes="cc"/><path id="shape50" transform="translate(60.9806190793832, 112.562262804815)" fill="none" stroke="#000000" stroke-width="0.72" stroke-linecap="square" stroke-linejoin="miter" stroke-miterlimit="2" d="M0.0636396 0L0 3.3729" sodipodi:nodetypes="cc"/><path id="shape51" transform="translate(61.5533706788514, 163.092109976529)" fill="none" stroke="#000000" stroke-width="0.72" stroke-linecap="square" stroke-linejoin="miter" stroke-miterlimit="2" d="M0.0636396 0L0 3.88202" sodipodi:nodetypes="cc"/><path id="shape52" transform="translate(43.5433608748666, 162.773911923455)" fill="none" stroke="#000000" stroke-width="0.72" stroke-linecap="square" stroke-linejoin="miter" stroke-miterlimit="2" d="M0.0636396 0L0 4.32749" sodipodi:nodetypes="cc"/><path id="shape05" transform="matrix(0.999999974526436 0 0 0.999999974526436 56.1150015490366 116.015010138585)" fill="#bebebe" fill-rule="evenodd" stroke="#000000" stroke-width="1.44" stroke-linecap="square" stroke-linejoin="bevel" d="M0.0151324 0.0954551L0 46.57L4.32 46.57L4.34263 0Z" sodipodi:nodetypes="ccccc"/><path id="shape06" transform="matrix(0.999999999254974 0 0 0.999999999254974 44.6113675665415 115.951369501221)" fill="#bebebe" fill-rule="evenodd" stroke="#000000" stroke-width="1.44" stroke-linecap="square" stroke-linejoin="bevel" d="M0.0286331 46.6786L0 0.0636396L4.32749 0L5.05935 46.7751Z" sodipodi:nodetypes="ccccc"/><path id="shape07" transform="matrix(0.999999973577622 0 0 0.999999973577622 44.9932022961787 65.2306015202342)" fill="#bebebe" fill-rule="evenodd" stroke="#000000" stroke-width="1.44" stroke-linecap="square" stroke-linejoin="bevel" d="M0 46.8387L3.0801e-06 0L3.6911 0L3.8768 46.5494Z" sodipodi:nodetypes="ccccc"/><path id="shape08" transform="matrix(1.00000000832905 0 0 1.00000000832905 56.5119770331409 65.2500021573972)" fill="#bebebe" fill-rule="evenodd" stroke="#000000" stroke-width="1.44" stroke-linecap="square" stroke-linejoin="bevel" d="M0 46.5648L0.368024 0L3.92303 2.23341e-06L3.91383 46.533Z" sodipodi:nodetypes="ccccc"/><path id="shape09" transform="matrix(0.999999995889558 0 0 0.999999995889558 56.7450037936922 2.57740428948441)" fill="#bebebe" fill-rule="evenodd" stroke="#000000" stroke-width="1.44" stroke-linecap="square" stroke-linejoin="bevel" d="M0 58.1276L0.498824 0L2.63075 0.0318198L3.015 58.1276Z" sodipodi:nodetypes="ccccc"/><path id="shape010" transform="matrix(1.00000000635149 0 0 1.00000000635149 45.0568451523871 2.57740458048533)" fill="#bebebe" fill-rule="evenodd" stroke="#000000" stroke-width="1.44" stroke-linecap="square" stroke-linejoin="bevel" d="M0 58.1348L0.509118 0L2.83196 0L2.82316 58.0826Z" sodipodi:nodetypes="ccccc"/>
</svg>
