<?xml version="1.0" standalone="no"?>
<!DOCTYPE svg PUBLIC "-//W3C//DTD SVG 20010904//EN" "http://www.w3.org/TR/2001/REC-SVG-20010904/DTD/svg10.dtd">
<!-- Created using Krita: https://krita.org -->
<svg xmlns="http://www.w3.org/2000/svg" 
    xmlns:xlink="http://www.w3.org/1999/xlink"
    xmlns:krita="http://krita.org/namespaces/svg/krita"
    xmlns:sodipodi="http://sodipodi.sourceforge.net/DTD/sodipodi-0.dtd"
    width="115.2pt"
    height="212.4pt"
    viewBox="0 0 115.2 212.4">
<defs/>
<path id="shape0" transform="translate(35.6482458156307, 77.1273970281083)" fill="none" stroke="#000000" stroke-width="1.44" stroke-linecap="square" stroke-linejoin="miter" stroke-miterlimit="2" d="M0 132.625L10.946 0" sodipodi:nodetypes="cc"/><path id="shape1" transform="translate(30.8116354050327, 43.271124153922)" fill="none" stroke="#000000" stroke-width="1.44" stroke-linecap="square" stroke-linejoin="miter" stroke-miterlimit="2" d="M15.7826 33.8563L0 0" sodipodi:nodetypes="cc"/><path id="shape2" transform="translate(27.2478172077499, 20.6154227569102)" fill="none" stroke="#000000" stroke-width="1.44" stroke-linecap="square" stroke-linejoin="miter" stroke-miterlimit="2" d="M3.56382 22.6557L0 0" sodipodi:nodetypes="cc"/><path id="shape3" transform="translate(21.9020899118258, 4.06912398381161)" fill="none" stroke="#000000" stroke-width="1.44" stroke-linecap="square" stroke-linejoin="miter" stroke-miterlimit="2" d="M5.34573 16.5463L0 0" sodipodi:nodetypes="cc"/><path id="shape4" transform="translate(21.9020899118258, 4.06912398381161)" fill="none" stroke="#000000" stroke-width="1.44" stroke-linecap="square" stroke-linejoin="miter" stroke-miterlimit="2" d="M0 0L9.41866 11.2006" sodipodi:nodetypes="cc"/><path id="shape5" transform="translate(31.3207522903588, 15.269695460986)" fill="none" stroke="#000000" stroke-width="1.44" stroke-linecap="square" stroke-linejoin="miter" stroke-miterlimit="2" d="M0 0L51.6754 0.254558" sodipodi:nodetypes="cc"/><path id="shape6" transform="translate(82.9961161509589, 4.32368242647466)" fill="none" stroke="#000000" stroke-width="1.44" stroke-linecap="square" stroke-linejoin="miter" stroke-miterlimit="2" d="M0 11.2006L9.41866 0" sodipodi:nodetypes="cc"/><path id="shape7" transform="translate(86.8144927909047, 4.32368242647466)" fill="none" stroke="#000000" stroke-width="1.44" stroke-linecap="square" stroke-linejoin="miter" stroke-miterlimit="2" d="M5.60029 0L0 16.5463" sodipodi:nodetypes="cc"/><path id="shape8" transform="translate(83.759791478948, 20.8699811995732)" fill="none" stroke="#000000" stroke-width="1.44" stroke-linecap="square" stroke-linejoin="miter" stroke-miterlimit="2" d="M3.0547 0L0 22.1466" sodipodi:nodetypes="cc"/><path id="shape9" transform="translate(67.2134927058495, 43.016565711259)" fill="none" stroke="#000000" stroke-width="1.44" stroke-linecap="square" stroke-linejoin="miter" stroke-miterlimit="2" d="M16.5463 0L0 34.3654" sodipodi:nodetypes="cc"/><path id="shape10" transform="translate(67.2134927058495, 77.3819554707713)" fill="none" stroke="#000000" stroke-width="1.44" stroke-linecap="square" stroke-linejoin="miter" stroke-miterlimit="2" d="M0 0L10.4369 132.88" sodipodi:nodetypes="cc"/><path id="shape11" transform="translate(56.7765947909361, 43.2711234403743)" fill="none" stroke="#000000" stroke-width="1.44" stroke-linecap="square" stroke-linejoin="miter" stroke-miterlimit="2" d="M0 33.0926L26.7286 0" sodipodi:nodetypes="cc"/><path id="shape12" transform="translate(83.2506724086341, 20.615422402152)" fill="none" stroke="#000000" stroke-width="1.44" stroke-linecap="square" stroke-linejoin="miter" stroke-miterlimit="2" d="M0.254558 22.6557L0 0" sodipodi:nodetypes="cc"/><path id="shape13" transform="translate(30.8116340505015, 20.3608639635203)" fill="none" stroke="#000000" stroke-width="1.44" stroke-linecap="square" stroke-linejoin="miter" stroke-miterlimit="2" d="M52.439 0.254558L0 0" sodipodi:nodetypes="cc"/><path id="shape14" transform="translate(30.8116340505015, 20.3608639635203)" fill="none" stroke="#000000" stroke-width="1.44" stroke-linecap="square" stroke-linejoin="miter" stroke-miterlimit="2" d="M0 0L0.254558 22.4011" sodipodi:nodetypes="cc"/><path id="shape15" transform="translate(31.0661924891332, 42.7620065631109)" fill="none" stroke="#000000" stroke-width="1.44" stroke-linecap="square" stroke-linejoin="miter" stroke-miterlimit="2" d="M0 0L25.7104 33.6017" sodipodi:nodetypes="cc"/><path id="shape16" transform="translate(75.0599995681161, 60.4942802334392)" fill="none" stroke="#000000" stroke-width="1.44" stroke-linecap="square" stroke-linejoin="miter" stroke-miterlimit="2" d="M0 0L32.94 6.3" sodipodi:nodetypes="cc"/><path id="shape17" transform="translate(71.9999995469459, 66.6142802757798)" fill="none" stroke="#000000" stroke-width="1.44" stroke-linecap="square" stroke-linejoin="miter" stroke-miterlimit="2" d="M36 0.18L0 0" sodipodi:nodetypes="cc"/><path id="shape18" transform="translate(6.83999909614299, 66.4342802745345)" fill="none" stroke="#000000" stroke-width="1.44" stroke-linecap="square" stroke-linejoin="miter" stroke-miterlimit="2" d="M35.1 0L0 0" sodipodi:nodetypes="cc"/><path id="shape19" transform="translate(6.83999909614299, 60.8542802359298)" fill="none" stroke="#000000" stroke-width="1.44" stroke-linecap="square" stroke-linejoin="miter" stroke-miterlimit="2" d="M0 5.58L32.4 0" sodipodi:nodetypes="cc"/><path id="shape20" transform="translate(39.2120627653753, 164.440940653833)" fill="none" stroke="#000000" stroke-width="0.72" stroke-linecap="square" stroke-linejoin="miter" stroke-miterlimit="2" d="M38.6929 44.2932L0 0" sodipodi:nodetypes="cc"/><path id="shape21" transform="translate(39.2120627653753, 129.566434472173)" fill="none" stroke="#000000" stroke-width="0.72" stroke-linecap="square" stroke-linejoin="miter" stroke-miterlimit="2" d="M0 34.8745L31.8198 0" sodipodi:nodetypes="cc"/><path id="shape22" transform="translate(45.3214653081479, 91.1281101405615)" fill="none" stroke="#000000" stroke-width="0.72" stroke-linecap="square" stroke-linejoin="miter" stroke-miterlimit="2" d="M25.7104 38.4383L0 0" sodipodi:nodetypes="cc"/><path id="shape23" transform="translate(45.3214653081479, 76.6182791014766)" fill="none" stroke="#000000" stroke-width="0.72" stroke-linecap="square" stroke-linejoin="miter" stroke-miterlimit="2" d="M0 14.5098L11.4551 0" sodipodi:nodetypes="cc"/><path id="shape24" transform="translate(56.7765950758466, 76.6182791014766)" fill="none" stroke="#000000" stroke-width="0.72" stroke-linecap="square" stroke-linejoin="miter" stroke-miterlimit="2" d="M0 0L11.7097 15.2735" sodipodi:nodetypes="cc"/><path id="shape25" transform="translate(41.7576471581973, 91.8917854584081)" fill="none" stroke="#000000" stroke-width="0.72" stroke-linecap="square" stroke-linejoin="miter" stroke-miterlimit="2" d="M26.7286 0L0 38.1838" sodipodi:nodetypes="cc"/><path id="shape26" transform="translate(41.7576471581973, 130.330109790019)" fill="none" stroke="#000000" stroke-width="0.72" stroke-linecap="square" stroke-linejoin="miter" stroke-miterlimit="2" d="M0 0L32.5835 35.3836" sodipodi:nodetypes="cc"/><path id="shape27" transform="translate(35.3936861761425, 165.713732850244)" fill="none" stroke="#000000" stroke-width="0.72" stroke-linecap="square" stroke-linejoin="miter" stroke-miterlimit="2" d="M38.9474 0L0 42.5113" sodipodi:nodetypes="cc"/><path id="shape28" transform="translate(37.6847121296822, 184.805615796408)" fill="none" stroke="#000000" stroke-width="0.72" stroke-linecap="square" stroke-linejoin="miter" stroke-miterlimit="2" d="M0 0L37.9292 0" sodipodi:nodetypes="cc"/><path id="shape29" transform="translate(40.4848549617863, 146.112733025515)" fill="none" stroke="#000000" stroke-width="0.72" stroke-linecap="square" stroke-linejoin="miter" stroke-miterlimit="2" d="M0 0.254558L32.3289 0" sodipodi:nodetypes="cc"/><path id="shape30" transform="translate(43.6668388204518, 108.565367008549)" fill="none" stroke="#000000" stroke-width="0.72" stroke-linecap="square" stroke-linejoin="miter" stroke-miterlimit="2" d="M0 0L25.965 0" sodipodi:nodetypes="cc"/><path id="shape31" transform="translate(46.4669766824591, 76.7455570774485)" fill="none" stroke="#000000" stroke-width="0.72" stroke-linecap="square" stroke-linejoin="miter" stroke-miterlimit="2" d="M0 0.127279L20.8738 0" sodipodi:nodetypes="cc"/><path id="shape32" transform="translate(37.1018928671628, 196.200918884156)" fill="none" stroke="#000000" stroke-width="0.72" stroke-linecap="square" stroke-linejoin="miter" stroke-miterlimit="2" d="M0 0L8.97811 0.193374" sodipodi:nodetypes="cc"/><path id="shape33" transform="translate(38.160004674895, 184.514291846769)" fill="none" stroke="#000000" stroke-width="0.72" stroke-linecap="square" stroke-linejoin="miter" stroke-miterlimit="2" d="M7.92 11.88L0 0" sodipodi:nodetypes="cc"/><path id="shape34" transform="translate(38.160004674895, 174.614291206739)" fill="none" stroke="#000000" stroke-width="0.72" stroke-linecap="square" stroke-linejoin="miter" stroke-miterlimit="2" d="M0 9.9L9.72 0" sodipodi:nodetypes="cc"/><path id="shape35" transform="translate(38.160004674895, 174.434291195102)" fill="none" stroke="#000000" stroke-width="0.72" stroke-linecap="square" stroke-linejoin="miter" stroke-miterlimit="2" d="M9.72 0.18L0 0" sodipodi:nodetypes="cc"/><path id="shape36" transform="translate(67.6800065833493, 196.574292626443)" fill="none" stroke="#000000" stroke-width="0.72" stroke-linecap="square" stroke-linejoin="miter" stroke-miterlimit="2" d="M8.64 0.18L0 0" sodipodi:nodetypes="cc"/><path id="shape37" transform="translate(67.6800065833493, 184.694291858406)" fill="none" stroke="#000000" stroke-width="0.72" stroke-linecap="square" stroke-linejoin="miter" stroke-miterlimit="2" d="M0 11.88L8.28 0" sodipodi:nodetypes="cc"/><path id="shape38" transform="translate(65.5200064437063, 174.974291230013)" fill="none" stroke="#000000" stroke-width="0.72" stroke-linecap="square" stroke-linejoin="miter" stroke-miterlimit="2" d="M10.44 9.72L0 0" sodipodi:nodetypes="cc"/><path id="shape39" transform="translate(65.5200064437063, 174.974291230013)" fill="none" stroke="#000000" stroke-width="0.72" stroke-linecap="square" stroke-linejoin="miter" stroke-miterlimit="2" d="M0 0L9.54 0" sodipodi:nodetypes="cc"/><path id="shape40" transform="translate(64.9800064087955, 155.534289973226)" fill="none" stroke="#000000" stroke-width="0.72" stroke-linecap="square" stroke-linejoin="miter" stroke-miterlimit="2" d="M8.28 0L0 0.18" sodipodi:nodetypes="cc"/><path id="shape41" transform="translate(64.9800064087955, 145.994289356469)" fill="none" stroke="#000000" stroke-width="0.72" stroke-linecap="square" stroke-linejoin="miter" stroke-miterlimit="2" d="M0 9.72L7.74 0" sodipodi:nodetypes="cc"/><path id="shape42" transform="translate(63.7200063273371, 138.074288844445)" fill="none" stroke="#000000" stroke-width="0.72" stroke-linecap="square" stroke-linejoin="miter" stroke-miterlimit="2" d="M9 7.92L0 0" sodipodi:nodetypes="cc"/><path id="shape43" transform="translate(63.7200063273371, 137.907040119489)" fill="none" stroke="#000000" stroke-width="0.72" stroke-linecap="square" stroke-linejoin="miter" stroke-miterlimit="2" d="M0 0.167249L8.12912 0" sodipodi:nodetypes="cc"/><path id="shape44" transform="translate(39.9600047912642, 155.354289961589)" fill="none" stroke="#000000" stroke-width="0.72" stroke-linecap="square" stroke-linejoin="miter" stroke-miterlimit="2" d="M0 0.18L7.56 0" sodipodi:nodetypes="cc"/><path id="shape45" transform="translate(41.0400048610857, 145.814289344833)" fill="none" stroke="#000000" stroke-width="0.72" stroke-linecap="square" stroke-linejoin="miter" stroke-miterlimit="2" d="M6.48 9.54L0 0" sodipodi:nodetypes="cc"/><path id="shape46" transform="translate(41.0400048610857, 137.143364770419)" fill="none" stroke="#000000" stroke-width="0.72" stroke-linecap="square" stroke-linejoin="miter" stroke-miterlimit="2" d="M0 8.67092L6.94426 0" sodipodi:nodetypes="cc"/><path id="shape47" transform="translate(41.5800048959965, 137.174288786261)" fill="none" stroke="#000000" stroke-width="0.72" stroke-linecap="square" stroke-linejoin="miter" stroke-miterlimit="2" d="M6.34062 0.0963552L0 0" sodipodi:nodetypes="cc"/><path id="shape48" transform="translate(64.0315152669779, 119.25682244296)" fill="none" stroke="#000000" stroke-width="0.72" stroke-linecap="square" stroke-linejoin="miter" stroke-miterlimit="2" d="M6.61852 0L0 0" sodipodi:nodetypes="cc"/><path id="shape49" transform="translate(64.0315152669779, 108.565367572514)" fill="none" stroke="#000000" stroke-width="0.72" stroke-linecap="square" stroke-linejoin="miter" stroke-miterlimit="2" d="M0 10.6915L5.60029 0" sodipodi:nodetypes="cc"/><path id="shape50" transform="translate(62.8860022451445, 100.164938745736)" fill="none" stroke="#000000" stroke-width="0.72" stroke-linecap="square" stroke-linejoin="miter" stroke-miterlimit="2" d="M6.7458 8.40043L0 0" sodipodi:nodetypes="cc"/><path id="shape51" transform="translate(62.8860022451445, 100.037659521088)" fill="none" stroke="#000000" stroke-width="0.72" stroke-linecap="square" stroke-linejoin="miter" stroke-miterlimit="2" d="M0 0.127279L6.23668 0" sodipodi:nodetypes="cc"/><path id="shape52" transform="translate(44.4305146711615, 99.7831010717915)" fill="none" stroke="#000000" stroke-width="0.72" stroke-linecap="square" stroke-linejoin="miter" stroke-miterlimit="2" d="M0 0L6.7458 0.254558" sodipodi:nodetypes="cc"/><path id="shape53" transform="translate(43.6668393232726, 100.037659521088)" fill="none" stroke="#000000" stroke-width="0.72" stroke-linecap="square" stroke-linejoin="miter" stroke-miterlimit="2" d="M7.50947 0L0 8.01859" sodipodi:nodetypes="cc"/><path id="shape54" transform="translate(43.6668393232726, 108.056250673922)" fill="none" stroke="#000000" stroke-width="0.72" stroke-linecap="square" stroke-linejoin="miter" stroke-miterlimit="2" d="M0 0L5.47301 10.6915" sodipodi:nodetypes="cc"/><path id="shape55" transform="translate(43.15772242468, 118.620426319719)" fill="none" stroke="#000000" stroke-width="0.72" stroke-linecap="square" stroke-linejoin="miter" stroke-miterlimit="2" d="M5.98212 0.127279L0 0" sodipodi:nodetypes="cc"/><path id="shape56" transform="translate(62.6314419373991, 84.1277550794898)" fill="none" stroke="#000000" stroke-width="0.72" stroke-linecap="square" stroke-linejoin="miter" stroke-miterlimit="2" d="M5.21845 0L0 0" sodipodi:nodetypes="cc"/><path id="shape57" transform="translate(62.6314419373991, 76.6182809441731)" fill="none" stroke="#000000" stroke-width="0.72" stroke-linecap="square" stroke-linejoin="miter" stroke-miterlimit="2" d="M0 7.50947L4.96389 0" sodipodi:nodetypes="cc"/><path id="shape58" transform="translate(46.0851429951758, 83.7459174115924)" fill="none" stroke="#000000" stroke-width="0.72" stroke-linecap="square" stroke-linejoin="miter" stroke-miterlimit="2" d="M0 0L5.47301 0.127279" sodipodi:nodetypes="cc"/><path id="shape59" transform="translate(46.0851429951758, 76.4910017215407)" fill="none" stroke="#000000" stroke-width="0.72" stroke-linecap="square" stroke-linejoin="miter" stroke-miterlimit="2" d="M5.47301 7.38219L0 0" sodipodi:nodetypes="cc"/><path id="shape60" transform="translate(61.290002792272, 71.4742824056094)" fill="none" stroke="#000000" stroke-width="0.72" stroke-linecap="square" stroke-linejoin="miter" stroke-miterlimit="2" d="M0 0L8.37 0" sodipodi:nodetypes="cc"/><path id="shape61" transform="translate(65.3400029361752, 66.6142822329256)" fill="none" stroke="#000000" stroke-width="0.72" stroke-linecap="square" stroke-linejoin="miter" stroke-miterlimit="2" d="M4.32 4.86L0 0" sodipodi:nodetypes="cc"/><path id="shape62" transform="translate(46.7100022742207, 66.8842822425191)" fill="none" stroke="#000000" stroke-width="0.72" stroke-linecap="square" stroke-linejoin="miter" stroke-miterlimit="2" d="M0 10.26L10.26 0" sodipodi:nodetypes="cc"/><path id="shape63" transform="translate(56.9700026387753, 66.8842822425191)" fill="none" stroke="#000000" stroke-width="0.72" stroke-linecap="square" stroke-linejoin="miter" stroke-miterlimit="2" d="M0 0L10.26 10.08" sodipodi:nodetypes="cc"/><path id="shape64" transform="translate(44.190002184681, 71.5642824088072)" fill="none" stroke="#000000" stroke-width="0.72" stroke-linecap="square" stroke-linejoin="miter" stroke-miterlimit="2" d="M9.09 0L0 0" sodipodi:nodetypes="cc"/><path id="shape65" transform="translate(44.190002184681, 66.8842822425191)" fill="none" stroke="#000000" stroke-width="0.72" stroke-linecap="square" stroke-linejoin="miter" stroke-miterlimit="2" d="M0 4.68L4.59 0" sodipodi:nodetypes="cc"/><path id="shape66" transform="translate(41.8500021015369, 66.7042822361234)" fill="none" stroke="#000000" stroke-width="0.72" stroke-linecap="square" stroke-linejoin="miter" stroke-miterlimit="2" d="M0 0L30.87 0" sodipodi:nodetypes="cc"/><path id="shape67" transform="translate(41.8500021015369, 60.8542820282633)" fill="none" stroke="#000000" stroke-width="0.72" stroke-linecap="square" stroke-linejoin="miter" stroke-miterlimit="2" d="M0 5.67L3.33 0" sodipodi:nodetypes="cc"/><path id="shape68" transform="translate(38.9700019992058, 60.7642820250655)" fill="none" stroke="#000000" stroke-width="0.72" stroke-linecap="square" stroke-linejoin="miter" stroke-miterlimit="2" d="M6.21 0.09L0 0" sodipodi:nodetypes="cc"/><path id="shape69" transform="translate(69.3000030768805, 60.7642820250655)" fill="none" stroke="#000000" stroke-width="0.72" stroke-linecap="square" stroke-linejoin="miter" stroke-miterlimit="2" d="M2.7 5.94L0 0" sodipodi:nodetypes="cc"/><path id="shape70" transform="translate(69.3000030768805, 60.6742820218677)" fill="none" stroke="#000000" stroke-width="0.72" stroke-linecap="square" stroke-linejoin="miter" stroke-miterlimit="2" d="M0 0.09L6.12 0" sodipodi:nodetypes="cc"/><path id="shape71" transform="translate(39.420002015195, 54.7342818108097)" fill="none" stroke="#000000" stroke-width="0.72" stroke-linecap="square" stroke-linejoin="miter" stroke-miterlimit="2" d="M0 6.21L0.9 0" sodipodi:nodetypes="cc"/><path id="shape72" transform="translate(73.9800032431685, 55.0042818204032)" fill="none" stroke="#000000" stroke-width="0.72" stroke-linecap="square" stroke-linejoin="miter" stroke-miterlimit="2" d="M1.26 5.67L0 0" sodipodi:nodetypes="cc"/><path id="shape73" transform="translate(73.9800032431685, 54.9142818172054)" fill="none" stroke="#000000" stroke-width="0.72" stroke-linecap="square" stroke-linejoin="miter" stroke-miterlimit="2" d="M0 0.09L4.05 0" sodipodi:nodetypes="cc"/><path id="shape74" transform="translate(36.2700019032704, 54.8242818140075)" fill="none" stroke="#000000" stroke-width="0.72" stroke-linecap="square" stroke-linejoin="miter" stroke-miterlimit="2" d="M3.96 0L0 0" sodipodi:nodetypes="cc"/><path id="shape75" transform="translate(25.4700002495914, 15.1342801358014)" fill="none" stroke="#000000" stroke-width="0.72" stroke-linecap="square" stroke-linejoin="miter" stroke-miterlimit="2" d="M0 0L6.12 0" sodipodi:nodetypes="cc"/><path id="shape76" transform="translate(27.0900002814974, 20.6242802439271)" fill="none" stroke="#000000" stroke-width="0.72" stroke-linecap="square" stroke-linejoin="miter" stroke-miterlimit="2" d="M0 0L4.23 0.09" sodipodi:nodetypes="cc"/><path id="shape77" transform="translate(82.8000013787079, 20.8042802474722)" fill="none" stroke="#000000" stroke-width="0.72" stroke-linecap="square" stroke-linejoin="miter" stroke-miterlimit="2" d="M0 0.09L4.14 0" sodipodi:nodetypes="cc"/><path id="shape78" transform="translate(83.2500013875707, 15.5842801446642)" fill="none" stroke="#000000" stroke-width="0.72" stroke-linecap="square" stroke-linejoin="miter" stroke-miterlimit="2" d="M0 0L5.31 0.09" sodipodi:nodetypes="cc"/><path id="shape79" transform="translate(87.4800014708807, 9.46428002413052)" fill="none" stroke="#000000" stroke-width="0.72" stroke-linecap="square" stroke-linejoin="miter" stroke-miterlimit="2" d="M0.99 6.3L0 0" sodipodi:nodetypes="cc"/><path id="shape80" transform="translate(25.560000251364, 9.46428002413052)" fill="none" stroke="#000000" stroke-width="0.72" stroke-linecap="square" stroke-linejoin="miter" stroke-miterlimit="2" d="M0 5.67L1.17 0" sodipodi:nodetypes="cc"/><path id="shape81" transform="translate(27.1800002832699, 15.8542801499818)" fill="none" stroke="#000000" stroke-width="0.72" stroke-linecap="square" stroke-linejoin="miter" stroke-miterlimit="2" d="M0 4.77L4.05 0" sodipodi:nodetypes="cc"/><path id="shape82" transform="translate(31.2300003630348, 15.8542801499818)" fill="none" stroke="#000000" stroke-width="0.72" stroke-linecap="square" stroke-linejoin="miter" stroke-miterlimit="2" d="M0 0L4.14 4.23" sodipodi:nodetypes="cc"/><path id="shape83" transform="translate(35.3700004445723, 15.5842801446642)" fill="none" stroke="#000000" stroke-width="0.72" stroke-linecap="square" stroke-linejoin="miter" stroke-miterlimit="2" d="M0 4.5L0 0" sodipodi:nodetypes="cc"/><path id="shape84" transform="translate(35.3700004445723, 15.5842801446642)" fill="none" stroke="#000000" stroke-width="0.72" stroke-linecap="square" stroke-linejoin="miter" stroke-miterlimit="2" d="M0 0L8.1 4.68" sodipodi:nodetypes="cc"/><path id="shape85" transform="translate(43.4700006041021, 15.1342801358014)" fill="none" stroke="#000000" stroke-width="0.72" stroke-linecap="square" stroke-linejoin="miter" stroke-miterlimit="2" d="M0 5.13L7.11 0" sodipodi:nodetypes="cc"/><path id="shape86" transform="translate(50.5800007441338, 15.1342801358014)" fill="none" stroke="#000000" stroke-width="0.72" stroke-linecap="square" stroke-linejoin="miter" stroke-miterlimit="2" d="M0 0L6.48 5.22" sodipodi:nodetypes="cc"/><path id="shape87" transform="translate(57.0600008717576, 15.2242801375739)" fill="none" stroke="#000000" stroke-width="0.72" stroke-linecap="square" stroke-linejoin="miter" stroke-miterlimit="2" d="M0 5.13L6.84 0" sodipodi:nodetypes="cc"/><path id="shape88" transform="translate(63.9000010064717, 15.2242801375739)" fill="none" stroke="#000000" stroke-width="0.72" stroke-linecap="square" stroke-linejoin="miter" stroke-miterlimit="2" d="M0 0L7.74 5.4" sodipodi:nodetypes="cc"/><path id="shape89" transform="translate(71.6400011589113, 15.2242801375739)" fill="none" stroke="#000000" stroke-width="0.72" stroke-linecap="square" stroke-linejoin="miter" stroke-miterlimit="2" d="M0 5.4L7.56 0" sodipodi:nodetypes="cc"/><path id="shape90" transform="translate(79.1100013060332, 15.2242801375739)" fill="none" stroke="#000000" stroke-width="0.72" stroke-linecap="square" stroke-linejoin="miter" stroke-miterlimit="2" d="M0.09 0L0 5.22" sodipodi:nodetypes="cc"/><path id="shape91" transform="translate(79.1100013060332, 15.4942801428916)" fill="none" stroke="#000000" stroke-width="0.72" stroke-linecap="square" stroke-linejoin="miter" stroke-miterlimit="2" d="M0 4.95L4.05 0" sodipodi:nodetypes="cc"/><path id="shape92" transform="translate(83.1600013857981, 15.4942801428916)" fill="none" stroke="#000000" stroke-width="0.72" stroke-linecap="square" stroke-linejoin="miter" stroke-miterlimit="2" d="M0 0L4.05 5.22" sodipodi:nodetypes="cc"/><path id="shape93" transform="translate(83.3779490183707, 20.9972596295791)" fill="none" stroke="#000000" stroke-width="0.72" stroke-linecap="square" stroke-linejoin="miter" stroke-miterlimit="2" d="M3.43654 0L0 6.1094" sodipodi:nodetypes="cc"/><path id="shape94" transform="translate(26.9932559269245, 20.4881427619362)" fill="none" stroke="#000000" stroke-width="0.72" stroke-linecap="square" stroke-linejoin="miter" stroke-miterlimit="2" d="M0 0L4.20021 6.36396" sodipodi:nodetypes="cc"/><path id="shape95" transform="translate(74.7229690797934, 60.581099370583)" fill="none" stroke="#000000" stroke-width="0.72" stroke-linecap="square" stroke-linejoin="miter" stroke-miterlimit="2" d="M0 0L5.34573 5.98212" sodipodi:nodetypes="cc"/><path id="shape96" transform="translate(80.0686964713381, 63.1266838427472)" fill="none" stroke="#000000" stroke-width="0.72" stroke-linecap="square" stroke-linejoin="miter" stroke-miterlimit="2" d="M0 3.43654L7.89131 0" sodipodi:nodetypes="cc"/><path id="shape97" transform="translate(87.960008335047, 63.1266838427472)" fill="none" stroke="#000000" stroke-width="0.72" stroke-linecap="square" stroke-linejoin="miter" stroke-miterlimit="2" d="M0 0L0.381838 3.43654" sodipodi:nodetypes="cc"/><path id="shape98" transform="translate(34.5027344195998, 61.3447747122323)" fill="none" stroke="#000000" stroke-width="0.72" stroke-linecap="square" stroke-linejoin="miter" stroke-miterlimit="2" d="M4.96389 0L0 4.96389" sodipodi:nodetypes="cc"/><path id="shape99" transform="translate(28.0114940155812, 62.4902877247061)" fill="none" stroke="#000000" stroke-width="0.72" stroke-linecap="square" stroke-linejoin="miter" stroke-miterlimit="2" d="M6.49124 3.81838L0 0" sodipodi:nodetypes="cc"/><path id="shape100" transform="translate(28.0114940155812, 62.4902877247061)" fill="none" stroke="#000000" stroke-width="0.72" stroke-linecap="square" stroke-linejoin="miter" stroke-miterlimit="2" d="M0 0L0 4.07294" sodipodi:nodetypes="cc"/><path id="shape126" transform="matrix(0.99999989944264 0 0 0.99999989944264 -29.3201640999805 211.794746029877)" fill="none" stroke="#3b2300" stroke-width="2.16" stroke-linecap="square" stroke-linejoin="miter" stroke-miterlimit="2" d="M0 0L171.318 0.13613" sodipodi:nodetypes="cc"/><path id="shape127" transform="matrix(0.99999989944264 0 0 0.99999989944264 -29.3201640999805 210.264746105002)" fill="none" stroke="#297f00" stroke-width="1.44" stroke-linecap="square" stroke-linejoin="miter" stroke-miterlimit="2" d="M0 0L172.08 0.0751454" sodipodi:nodetypes="cc"/><path id="shape05" transform="matrix(0.99999996147558 0 0 0.99999996147558 35.9999992063211 22.1542799440255)" fill="none" stroke="#737373" stroke-width="2.16" stroke-linecap="square" stroke-linejoin="miter" stroke-miterlimit="2" d="M0 0L8.02332 15.0859" sodipodi:nodetypes="cc"/><path id="shape1" transform="matrix(0.99999996147558 0 0 0.99999996147558 44.0233500546917 22.1542799440255)" fill="none" stroke="#737373" stroke-width="2.16" stroke-linecap="square" stroke-linejoin="miter" stroke-miterlimit="2" d="M0 15.0858L6.37665 0" sodipodi:nodetypes="cc"/><circle id="shape013" transform="matrix(1.34504994884808 0 0 1.42886202244462 41.1252901520015 38.5331739189382)" r="0.719999999999999" cx="0.719999999999999" cy="0.719999999999999" fill="#d00000" fill-rule="evenodd" stroke-opacity="0" stroke="#000000" stroke-width="0" stroke-linecap="square" stroke-linejoin="bevel"/><circle id="shape014" transform="matrix(1.54340241448831 0 0 1.47432631103793 45.2927906359891 38.5127053430881)" r="0.719999999999999" cx="0.719999999999999" cy="0.719999999999999" fill="#d00000" fill-rule="evenodd" stroke-opacity="0" stroke="#000000" stroke-width="0" stroke-linecap="square" stroke-linejoin="bevel"/><path id="shape051" transform="matrix(0.99999996147558 0 0 0.99999996147558 64.079999372249 22.1542799440255)" fill="none" stroke="#737373" stroke-width="2.16" stroke-linecap="square" stroke-linejoin="miter" stroke-miterlimit="2" d="M0 0L7.30332 14.9959" sodipodi:nodetypes="cc"/><path id="shape11" transform="matrix(0.99999996147558 0 0 0.99999996147558 71.3833532144356 21.8842799424301)" fill="none" stroke="#737373" stroke-width="2.16" stroke-linecap="square" stroke-linejoin="miter" stroke-miterlimit="2" d="M0 15.2658L7.09665 0" sodipodi:nodetypes="cc"/><circle id="shape0131" transform="matrix(1.34504994884808 0 0 1.42886202244462 68.4852933117454 38.443173907004)" r="0.719999999999999" cx="0.719999999999999" cy="0.719999999999999" fill="#d00000" fill-rule="evenodd" stroke-opacity="0" stroke="#000000" stroke-width="0" stroke-linecap="square" stroke-linejoin="bevel"/><circle id="shape0141" transform="matrix(1.54340241448831 0 0 1.47432631103793 72.652793795733 38.4227053311539)" r="0.719999999999999" cx="0.719999999999999" cy="0.719999999999999" fill="#d00000" fill-rule="evenodd" stroke-opacity="0" stroke="#000000" stroke-width="0" stroke-linecap="square" stroke-linejoin="bevel"/><path id="shape052" transform="matrix(0.99999996147558 0 0 0.99999996147558 28.1700017854455 67.9642824239287)" fill="none" stroke="#737373" stroke-width="2.16" stroke-linecap="square" stroke-linejoin="miter" stroke-miterlimit="2" d="M0 0L5.59332 14.8159" sodipodi:nodetypes="cc"/><path id="shape12" transform="matrix(0.99999996147558 0 0 0.99999996147558 33.7633492783228 67.3342824002518)" fill="none" stroke="#737373" stroke-width="2.16" stroke-linecap="square" stroke-linejoin="miter" stroke-miterlimit="2" d="M0 15.4458L5.83665 0" sodipodi:nodetypes="cc"/><circle id="shape0132" transform="matrix(1.34504994884808 0 0 1.42886202244462 30.8652893756327 84.0731745900151)" r="0.719999999999999" cx="0.719999999999999" cy="0.719999999999999" fill="#d00000" fill-rule="evenodd" stroke-opacity="0" stroke="#000000" stroke-width="0" stroke-linecap="square" stroke-linejoin="bevel"/><circle id="shape0142" transform="matrix(1.54340241448831 0 0 1.47432631103793 35.0327898596203 84.052706014165)" r="0.719999999999999" cx="0.719999999999999" cy="0.719999999999999" fill="#d00000" fill-rule="evenodd" stroke-opacity="0" stroke="#000000" stroke-width="0" stroke-linecap="square" stroke-linejoin="bevel"/><path id="shape053" transform="matrix(0.99999996147558 0 0 0.99999996147558 75.4200035612104 67.3342824002518)" fill="none" stroke="#737373" stroke-width="2.16" stroke-linecap="square" stroke-linejoin="miter" stroke-miterlimit="2" d="M0 0L6.76332 15.6259" sodipodi:nodetypes="cc"/><path id="shape13" transform="matrix(0.99999996147558 0 0 0.99999996147558 82.1833499600637 68.1442824306935)" fill="none" stroke="#737373" stroke-width="2.16" stroke-linecap="square" stroke-linejoin="miter" stroke-miterlimit="2" d="M0 14.8158L6.19665 0" sodipodi:nodetypes="cc"/><circle id="shape0133" transform="matrix(1.34504994884808 0 0 1.42886202244462 79.2852900573735 84.2531745925495)" r="0.719999999999999" cx="0.719999999999999" cy="0.719999999999999" fill="#d00000" fill-rule="evenodd" stroke-opacity="0" stroke="#000000" stroke-width="0" stroke-linecap="square" stroke-linejoin="bevel"/><circle id="shape0143" transform="matrix(1.54340241448831 0 0 1.47432631103793 83.4527905413611 84.2327060166994)" r="0.719999999999999" cx="0.719999999999999" cy="0.719999999999999" fill="#d00000" fill-rule="evenodd" stroke-opacity="0" stroke="#000000" stroke-width="0" stroke-linecap="square" stroke-linejoin="bevel"/><path id="shape03" transform="matrix(0.999999884511021 0 0 0.999999884511021 7.7374506534948 67.8489846441425)" fill="none" stroke="#737373" stroke-width="2.16" stroke-linecap="square" stroke-linejoin="miter" stroke-miterlimit="2" d="M0 0C0 5.4518 0 10.9036 0 16.3554" sodipodi:nodetypes="cc"/><circle id="shape017" transform="matrix(1.43751219041923 0 0 1.45148923295708 4.46838622751415 85.0631710121702)" r="0.719999999999999" cx="0.719999999999999" cy="0.719999999999999" fill="#d00000" fill-rule="evenodd" stroke-opacity="0" stroke="#000000" stroke-width="0" stroke-linecap="square" stroke-linejoin="bevel"/><circle id="shape012" transform="matrix(1.51019705503809 0 0 1.46570352064322 8.76903216695079 85.0427024379021)" r="0.719999999999999" cx="0.719999999999999" cy="0.719999999999999" fill="#d00000" fill-rule="evenodd" stroke-opacity="0" stroke="#000000" stroke-width="0" stroke-linecap="square" stroke-linejoin="bevel"/><path id="shape031" transform="matrix(0.999999884511021 0 0 0.999999884511021 106.944589055107 68.4232942517914)" fill="none" stroke="#737373" stroke-width="2.16" stroke-linecap="square" stroke-linejoin="miter" stroke-miterlimit="2" d="M0 0C0 5.4518 0 10.9036 0 16.3554" sodipodi:nodetypes="cc"/><circle id="shape0171" transform="matrix(1.43751219041923 0 0 1.45148923295708 103.675524629126 85.6374806198191)" r="0.719999999999999" cx="0.719999999999999" cy="0.719999999999999" fill="#d00000" fill-rule="evenodd" stroke-opacity="0" stroke="#000000" stroke-width="0" stroke-linecap="square" stroke-linejoin="bevel"/><circle id="shape0121" transform="matrix(1.51019705503809 0 0 1.46570352064322 107.976170568563 85.617012045551)" r="0.719999999999999" cx="0.719999999999999" cy="0.719999999999999" fill="#d00000" fill-rule="evenodd" stroke-opacity="0" stroke="#000000" stroke-width="0" stroke-linecap="square" stroke-linejoin="bevel"/><path id="shape101" transform="translate(43.3799992499304, 15.5842799052026)" fill="none" stroke="#000000" stroke-width="0.72" stroke-linecap="square" stroke-linejoin="miter" stroke-miterlimit="2" d="M0.09 5.13L0 0" sodipodi:nodetypes="cc"/><path id="shape102" transform="translate(57.3299993323625, 15.404279904139)" fill="none" stroke="#000000" stroke-width="0.72" stroke-linecap="square" stroke-linejoin="miter" stroke-miterlimit="2" d="M0 5.22L0.09 0" sodipodi:nodetypes="cc"/><path id="shape103" transform="translate(50.8499992940714, 15.5842799052026)" fill="none" stroke="#000000" stroke-width="0.72" stroke-linecap="square" stroke-linejoin="miter" stroke-miterlimit="2" d="M0 0L0.09 4.59" sodipodi:nodetypes="cc"/><path id="shape104" transform="translate(63.8099993706535, 15.3142799036072)" fill="none" stroke="#000000" stroke-width="0.72" stroke-linecap="square" stroke-linejoin="miter" stroke-miterlimit="2" d="M0.09 5.31L0 0" sodipodi:nodetypes="cc"/><path id="shape105" transform="translate(71.7299994174537, 15.4942799046708)" fill="none" stroke="#000000" stroke-width="0.72" stroke-linecap="square" stroke-linejoin="miter" stroke-miterlimit="2" d="M0 5.22L0 0" sodipodi:nodetypes="cc"/>
</svg>
