<?xml version="1.0" standalone="no"?>
<!DOCTYPE svg PUBLIC "-//W3C//DTD SVG 20010904//EN" "http://www.w3.org/TR/2001/REC-SVG-20010904/DTD/svg10.dtd">
<!-- Created using Krita: https://krita.org -->
<svg xmlns="http://www.w3.org/2000/svg" 
    xmlns:xlink="http://www.w3.org/1999/xlink"
    xmlns:krita="http://krita.org/namespaces/svg/krita"
    xmlns:sodipodi="http://sodipodi.sourceforge.net/DTD/sodipodi-0.dtd"
    width="318.24pt"
    height="269.28pt"
    viewBox="0 0 318.24 269.28">
<defs/>
<path id="shape0" transform="matrix(-0.999999926583511 0 0 0.999999926583511 266.97919020726 7.8572683775996)" fill="#bebebe" fill-rule="evenodd" stroke="#000000" stroke-width="1.44" stroke-linecap="square" stroke-linejoin="bevel" d="M35.8927 258.25C37.9027 194.35 39.5765 132.471 41.5865 68.5714C42.4913 32.0977 22.5211 14.3876 1.40007 4.70933L0 0C32.3611 12.5043 50.6147 41.3233 49.3843 68.8581C49.1298 132.667 49.0661 194.25 48.8116 258.059Z" sodipodi:nodetypes="ccccccc"/><path id="shape01" transform="matrix(0.999999972435427 0 0 0.999999972435427 51.2935255426723 8.01860065846644)" fill="#bebebe" fill-rule="evenodd" stroke="#000000" stroke-width="1.44" stroke-linecap="square" stroke-linejoin="bevel" d="M35.8927 258.25C37.9027 194.35 39.5765 132.471 41.5865 68.5714C42.4913 32.0977 22.5211 14.3876 1.40007 4.70933L0 0C32.3611 12.5043 50.6147 41.3233 49.3843 68.8581C49.1298 132.667 49.0661 194.25 48.8116 258.059Z" sodipodi:nodetypes="ccccccc"/><path id="shape19" transform="matrix(1.00000000453321 0 0 1.00000000453321 95.7600086914501 117.360006198473)" fill="none" stroke="#000000" stroke-width="0.72" stroke-linecap="square" stroke-linejoin="miter" stroke-miterlimit="2" d="M0 0L126.36 125.28" sodipodi:nodetypes="cc"/><path id="shape23" transform="matrix(1.00000000453321 0 0 1.00000000453321 144.990009292353 91.0800036896338)" fill="none" stroke="#000000" stroke-width="0.72" stroke-linecap="square" stroke-linejoin="miter" stroke-miterlimit="2" d="M0 0L26.55 0" sodipodi:nodetypes="cc"/><path id="shape25" transform="matrix(1.00000000453321 0 0 1.00000000453321 217.90202748891 76.7755962179057)" fill="none" stroke="#000000" stroke-width="0.72" stroke-linecap="square" stroke-linejoin="miter" stroke-miterlimit="2" d="M0 0L7.12764 0.127279" sodipodi:nodetypes="cc"/><path id="shape26" transform="matrix(1.00000000453321 0 0 1.00000000453321 92.7865566890936 76.6483186864697)" fill="none" stroke="#000000" stroke-width="0.72" stroke-linecap="square" stroke-linejoin="miter" stroke-miterlimit="2" d="M0 0L7.63675 0.127279" sodipodi:nodetypes="cc"/><path id="shape126" transform="matrix(1.9084727804456 0 0 0.999999913899547 -3.23998304740417 268.221926755475)" fill="none" stroke="#3b2300" stroke-width="2.16" stroke-linecap="square" stroke-linejoin="miter" stroke-miterlimit="2" d="M0 0L171.318 0.13613" sodipodi:nodetypes="cc"/><path id="shape127" transform="matrix(1.9084727804456 0 0 0.999999913899547 -3.23998304740417 266.691926808479)" fill="none" stroke="#297f00" stroke-width="1.44" stroke-linecap="square" stroke-linejoin="miter" stroke-miterlimit="2" d="M0 0L172.08 0.0751454" sodipodi:nodetypes="cc"/><circle id="shape072" transform="matrix(1.43628183183959 0 0 1.52289628467439 3.41075909087461 89.5654051926115)" r="0.719999999999999" cx="0.719999999999999" cy="0.719999999999999" fill="#d00000" fill-rule="evenodd" stroke-opacity="0" stroke="#000000" stroke-width="0" stroke-linecap="square" stroke-linejoin="bevel"/><circle id="shape082" transform="matrix(1.48342031786689 0 0 1.53711057305357 7.70963342271517 89.5449366173448)" r="0.719999999999999" cx="0.719999999999999" cy="0.719999999999999" fill="#d00000" fill-rule="evenodd" stroke-opacity="0" stroke="#000000" stroke-width="0" stroke-linecap="square" stroke-linejoin="bevel"/><circle id="shape0721" transform="matrix(1.43628181251181 0 0 1.52289626418106 46.6856961185468 93.6234595741519)" r="0.719999999999999" cx="0.719999999999999" cy="0.719999999999999" fill="#d00000" fill-rule="evenodd" stroke-opacity="0" stroke="#000000" stroke-width="0" stroke-linecap="square" stroke-linejoin="bevel"/><circle id="shape0821" transform="matrix(1.48342029790478 0 0 1.53711055236896 50.9845703925382 93.3880709617596)" r="0.719999999999999" cx="0.719999999999999" cy="0.719999999999999" fill="#d00000" fill-rule="evenodd" stroke-opacity="0" stroke="#000000" stroke-width="0" stroke-linecap="square" stroke-linejoin="bevel"/><circle id="shape0722" transform="matrix(1.43628181251181 0 0 1.52289626418106 135.980769537325 95.1592133797941)" r="0.719999999999999" cx="0.719999999999999" cy="0.719999999999999" fill="#d00000" fill-rule="evenodd" stroke-opacity="0" stroke="#000000" stroke-width="0" stroke-linecap="square" stroke-linejoin="bevel"/><circle id="shape0822" transform="matrix(1.48342029790478 0 0 1.53711055236896 140.279643811317 94.9238247674018)" r="0.719999999999999" cx="0.719999999999999" cy="0.719999999999999" fill="#d00000" fill-rule="evenodd" stroke-opacity="0" stroke="#000000" stroke-width="0" stroke-linecap="square" stroke-linejoin="bevel"/><circle id="shape0723" transform="matrix(1.43628181251181 0 0 1.52289626418106 174.320764376105 94.9792127330726)" r="0.719999999999999" cx="0.719999999999999" cy="0.719999999999999" fill="#d00000" fill-rule="evenodd" stroke-opacity="0" stroke="#000000" stroke-width="0" stroke-linecap="square" stroke-linejoin="bevel"/><circle id="shape0823" transform="matrix(1.48342029790478 0 0 1.53711055236896 178.619638650096 94.7438241206804)" r="0.719999999999999" cx="0.719999999999999" cy="0.719999999999999" fill="#d00000" fill-rule="evenodd" stroke-opacity="0" stroke="#000000" stroke-width="0" stroke-linecap="square" stroke-linejoin="bevel"/><circle id="shape0724" transform="matrix(1.43628181251181 0 0 1.52289626418106 306.71714660929 89.2959656901402)" r="0.719999999999999" cx="0.719999999999999" cy="0.719999999999999" fill="#d00000" fill-rule="evenodd" stroke-opacity="0" stroke="#000000" stroke-width="0" stroke-linecap="square" stroke-linejoin="bevel"/><circle id="shape0824" transform="matrix(1.48342029790478 0 0 1.53711055236896 311.016020883282 89.0605770777481)" r="0.719999999999999" cx="0.719999999999999" cy="0.719999999999999" fill="#d00000" fill-rule="evenodd" stroke-opacity="0" stroke="#000000" stroke-width="0" stroke-linecap="square" stroke-linejoin="bevel"/><circle id="shape0725" transform="matrix(1.43628181251181 0 0 1.52289626418106 264.618689932268 93.4183300069871)" r="0.719999999999999" cx="0.719999999999999" cy="0.719999999999999" fill="#d00000" fill-rule="evenodd" stroke-opacity="0" stroke="#000000" stroke-width="0" stroke-linecap="square" stroke-linejoin="bevel"/><circle id="shape0825" transform="matrix(1.48342029790478 0 0 1.53711055236896 268.91756420626 93.1829413945949)" r="0.719999999999999" cx="0.719999999999999" cy="0.719999999999999" fill="#d00000" fill-rule="evenodd" stroke-opacity="0" stroke="#000000" stroke-width="0" stroke-linecap="square" stroke-linejoin="bevel"/><path id="shape02" transform="matrix(0.999999974858511 0 0 0.999999974858511 4.49999999384801 84.4200021330444)" fill="#bebebe" fill-rule="evenodd" stroke="#000000" stroke-width="1.44" stroke-linecap="square" stroke-linejoin="bevel" d="M3.6 0L88.02 6.12L96.3 6.12L140.04 6.48L136.26 9.36L96.48 12.24L87.66 12.24L0 3.6Z" sodipodi:nodetypes="ccccccccc"/><path id="shape03" transform="matrix(-0.999999941144095 0 0 0.999999941144095 312.273443763683 84.6213021994994)" fill="#bebebe" fill-rule="evenodd" stroke="#000000" stroke-width="1.44" stroke-linecap="square" stroke-linejoin="bevel" d="M3.6 0L88.02 6.12L96.3 6.12L140.04 6.48L136.26 9.36L96.48 12.24L87.66 12.24L0 3.6Z" sodipodi:nodetypes="ccccccccc"/>
</svg>
