<?xml version="1.0" standalone="no"?>
<!DOCTYPE svg PUBLIC "-//W3C//DTD SVG 20010904//EN" "http://www.w3.org/TR/2001/REC-SVG-20010904/DTD/svg10.dtd">
<!-- Created using Krita: https://krita.org -->
<svg xmlns="http://www.w3.org/2000/svg" 
    xmlns:xlink="http://www.w3.org/1999/xlink"
    xmlns:krita="http://krita.org/namespaces/svg/krita"
    xmlns:sodipodi="http://sodipodi.sourceforge.net/DTD/sodipodi-0.dtd"
    width="115.2pt"
    height="209.52pt"
    viewBox="0 0 115.2 209.52">
<defs/>
<path id="shape0" transform="translate(49.4705127544997, 10.8159540818027)" fill="none" stroke="#000000" stroke-width="1.44" stroke-linecap="square" stroke-linejoin="miter" stroke-miterlimit="2" d="M0.127279 0L0 69.4945" sodipodi:nodetypes="cc"/><path id="shape1" transform="translate(63.9803440207247, 10.8159540818027)" fill="none" stroke="#000000" stroke-width="1.44" stroke-linecap="square" stroke-linejoin="miter" stroke-miterlimit="2" d="M0 0L0.127279 69.6217" sodipodi:nodetypes="cc"/><path id="shape2" transform="translate(64.2599983561934, 80.6621611401125)" fill="none" stroke="#000000" stroke-width="1.44" stroke-linecap="square" stroke-linejoin="miter" stroke-miterlimit="2" d="M0 0L16.38 125.24" sodipodi:nodetypes="cc"/><path id="shape3" transform="translate(32.7600027755929, 80.3021611424688)" fill="none" stroke="#000000" stroke-width="1.44" stroke-linecap="square" stroke-linejoin="miter" stroke-miterlimit="2" d="M0 125.96L16.56 0" sodipodi:nodetypes="cc"/><path id="shape4" transform="translate(15.6142422017493, 89.0926790335765)" fill="none" stroke="#000000" stroke-width="1.44" stroke-linecap="square" stroke-linejoin="miter" stroke-miterlimit="2" d="M0 0.254558L82.3497 0" sodipodi:nodetypes="cc"/><path id="shape5" transform="translate(49.0886787226927, 79.9285747388696)" fill="none" stroke="#000000" stroke-width="1.44" stroke-linecap="square" stroke-linejoin="miter" stroke-miterlimit="2" d="M15.0189 0.127279L0 0" sodipodi:nodetypes="cc"/><path id="shape6" transform="translate(19.1780605385798, 79.9285747388696)" fill="none" stroke="#000000" stroke-width="1.44" stroke-linecap="square" stroke-linejoin="miter" stroke-miterlimit="2" d="M29.9106 0L0 7.00036" sodipodi:nodetypes="cc"/><path id="shape7" transform="translate(15.4869629754339, 86.9289321862151)" fill="none" stroke="#000000" stroke-width="1.44" stroke-linecap="square" stroke-linejoin="miter" stroke-miterlimit="2" d="M3.6911 0L0 2.29103" sodipodi:nodetypes="cc"/><path id="shape8" transform="translate(64.2349066542222, 80.1831331915003)" fill="none" stroke="#000000" stroke-width="1.44" stroke-linecap="square" stroke-linejoin="miter" stroke-miterlimit="2" d="M0 0L28.0014 6.23668" sodipodi:nodetypes="cc"/><path id="shape9" transform="translate(92.2363364436045, 86.4198152809536)" fill="none" stroke="#000000" stroke-width="1.44" stroke-linecap="square" stroke-linejoin="miter" stroke-miterlimit="2" d="M0 0L5.60029 2.67286" sodipodi:nodetypes="cc"/><path id="shape10" transform="translate(4.5409486536357, 54.7272869024487)" fill="none" stroke="#000000" stroke-width="1.44" stroke-linecap="square" stroke-linejoin="miter" stroke-miterlimit="2" d="M0 0.127279L104.369 0" sodipodi:nodetypes="cc"/><path id="shape11" transform="translate(102.545951364407, 52.1817024164546)" fill="none" stroke="#000000" stroke-width="1.44" stroke-linecap="square" stroke-linejoin="miter" stroke-miterlimit="2" d="M6.36396 2.54558L0 0" sodipodi:nodetypes="cc"/><path id="shape12" transform="translate(64.1076256258965, 46.1995788743686)" fill="none" stroke="#000000" stroke-width="1.44" stroke-linecap="square" stroke-linejoin="miter" stroke-miterlimit="2" d="M38.4383 5.98212L0 0" sodipodi:nodetypes="cc"/><path id="shape13" transform="translate(48.7068394856325, 46.1995788743686)" fill="none" stroke="#000000" stroke-width="1.44" stroke-linecap="square" stroke-linejoin="miter" stroke-miterlimit="2" d="M15.4008 0L0 0" sodipodi:nodetypes="cc"/><path id="shape14" transform="translate(9.7593968499235, 46.1995788743686)" fill="none" stroke="#000000" stroke-width="1.44" stroke-linecap="square" stroke-linejoin="miter" stroke-miterlimit="2" d="M38.9474 0L0 6.36396" sodipodi:nodetypes="cc"/><path id="shape15" transform="translate(4.28639020503629, 52.5635400893537)" fill="none" stroke="#000000" stroke-width="1.44" stroke-linecap="square" stroke-linejoin="miter" stroke-miterlimit="2" d="M5.47301 0L0 2.29103" sodipodi:nodetypes="cc"/><path id="shape16" transform="translate(17.2688689631201, 19.4709408361597)" fill="none" stroke="#000000" stroke-width="1.44" stroke-linecap="square" stroke-linejoin="miter" stroke-miterlimit="2" d="M0 0L79.4222 0.127279" sodipodi:nodetypes="cc"/><path id="shape17" transform="translate(91.8544920403794, 17.3071940915976)" fill="none" stroke="#000000" stroke-width="1.44" stroke-linecap="square" stroke-linejoin="miter" stroke-miterlimit="2" d="M4.83661 2.29103L0 0" sodipodi:nodetypes="cc"/><path id="shape18" transform="translate(75.817310286566, 13.4888174835468)" fill="none" stroke="#000000" stroke-width="1.44" stroke-linecap="square" stroke-linejoin="miter" stroke-miterlimit="2" d="M16.0372 3.81838L0 0" sodipodi:nodetypes="cc"/><path id="shape19" transform="translate(75.817310286566, 2.54280454046777)" fill="none" stroke="#000000" stroke-width="1.44" stroke-linecap="square" stroke-linejoin="miter" stroke-miterlimit="2" d="M0 10.946L24.0558 0" sodipodi:nodetypes="cc"/><path id="shape20" transform="translate(64.489459682682, 2.54280454046776)" fill="none" stroke="#000000" stroke-width="1.44" stroke-linecap="square" stroke-linejoin="miter" stroke-miterlimit="2" d="M35.3836 0L0 8.01859" sodipodi:nodetypes="cc"/><path id="shape21" transform="translate(49.0886740302103, 10.5613954173745)" fill="none" stroke="#000000" stroke-width="1.44" stroke-linecap="square" stroke-linejoin="miter" stroke-miterlimit="2" d="M15.4008 0L0 0.127279" sodipodi:nodetypes="cc"/><path id="shape22" transform="translate(13.0686546942642, 2.28824609993105)" fill="none" stroke="#000000" stroke-width="1.44" stroke-linecap="square" stroke-linejoin="miter" stroke-miterlimit="2" d="M36.02 8.40043L0 0" sodipodi:nodetypes="cc"/><path id="shape23" transform="translate(13.0686546942642, 2.28824609993104)" fill="none" stroke="#000000" stroke-width="1.44" stroke-linecap="square" stroke-linejoin="miter" stroke-miterlimit="2" d="M0 0L24.0558 11.3279" sodipodi:nodetypes="cc"/><path id="shape24" transform="translate(20.5781286900975, 13.6160967038151)" fill="none" stroke="#000000" stroke-width="1.44" stroke-linecap="square" stroke-linejoin="miter" stroke-miterlimit="2" d="M16.5463 0L0 3.81838" sodipodi:nodetypes="cc"/><path id="shape25" transform="translate(17.2688689631201, 17.434473311866)" fill="none" stroke="#000000" stroke-width="1.44" stroke-linecap="square" stroke-linejoin="miter" stroke-miterlimit="2" d="M3.30926 0L0 2.16375" sodipodi:nodetypes="cc"/><path id="shape4" transform="matrix(1.0000000121173 0 0 1.0000000121173 -23.9450050404532 208.13175386134)" fill="none" stroke="#3b2300" stroke-width="2.16" stroke-linecap="square" stroke-linejoin="miter" stroke-miterlimit="2" d="M0 0L160.92 0.18" sodipodi:nodetypes="cc"/><path id="shape5" transform="matrix(1.0000000121173 0 0 1.0000000121173 -23.7879996011087 206.49566726521)" fill="none" stroke="#297f00" stroke-width="1.44" stroke-linecap="square" stroke-linejoin="miter" stroke-miterlimit="2" d="M0 0L161.135 0.127279" sodipodi:nodetypes="cc"/><path id="shape26" transform="translate(49.50000362165, 10.7721629109875)" fill="none" stroke="#000000" stroke-width="0.72" stroke-linecap="square" stroke-linejoin="miter" stroke-miterlimit="2" d="M0 0L14.49 8.82" sodipodi:nodetypes="cc"/><path id="shape27" transform="translate(49.4100036175487, 10.8621629150888)" fill="none" stroke="#000000" stroke-width="0.72" stroke-linecap="square" stroke-linejoin="miter" stroke-miterlimit="2" d="M14.58 0L0 8.91" sodipodi:nodetypes="cc"/><path id="shape28" transform="translate(36.900003047461, 13.742163046332)" fill="none" stroke="#000000" stroke-width="0.72" stroke-linecap="square" stroke-linejoin="miter" stroke-miterlimit="2" d="M12.51 5.94L0 0" sodipodi:nodetypes="cc"/><path id="shape29" transform="translate(36.900003047461, 10.5921629027848)" fill="none" stroke="#000000" stroke-width="0.72" stroke-linecap="square" stroke-linejoin="miter" stroke-miterlimit="2" d="M0 3.15L12.96 0" sodipodi:nodetypes="cc"/><path id="shape30" transform="translate(64.3500042983728, 10.6821629068861)" fill="none" stroke="#000000" stroke-width="0.72" stroke-linecap="square" stroke-linejoin="miter" stroke-miterlimit="2" d="M0 0L11.88 2.97" sodipodi:nodetypes="cc"/><path id="shape31" transform="translate(63.900004277866, 13.6521630422307)" fill="none" stroke="#000000" stroke-width="0.72" stroke-linecap="square" stroke-linejoin="miter" stroke-miterlimit="2" d="M12.33 0L0 5.85" sodipodi:nodetypes="cc"/><path id="shape32" transform="translate(76.4100048479537, 7.98216278384565)" fill="none" stroke="#000000" stroke-width="0.72" stroke-linecap="square" stroke-linejoin="miter" stroke-miterlimit="2" d="M0.09 0L0 11.61" sodipodi:nodetypes="cc"/><path id="shape33" transform="translate(37.4400030720691, 8.07216278794699)" fill="none" stroke="#000000" stroke-width="0.72" stroke-linecap="square" stroke-linejoin="miter" stroke-miterlimit="2" d="M0.09 0L0 11.79" sodipodi:nodetypes="cc"/><path id="shape34" transform="translate(49.3432358101959, 46.099829135322)" fill="none" stroke="#000000" stroke-width="0.72" stroke-linecap="square" stroke-linejoin="miter" stroke-miterlimit="2" d="M0 0L14.6371 8.59135" sodipodi:nodetypes="cc"/><path id="shape35" transform="translate(49.4068754224763, 46.1634687476023)" fill="none" stroke="#000000" stroke-width="0.72" stroke-linecap="square" stroke-linejoin="miter" stroke-miterlimit="2" d="M14.7008 0L0 8.59135" sodipodi:nodetypes="cc"/><path id="shape36" transform="translate(49.4100007322567, 79.8021632945997)" fill="none" stroke="#000000" stroke-width="0.72" stroke-linecap="square" stroke-linejoin="miter" stroke-miterlimit="2" d="M0 0L16.02 9.54" sodipodi:nodetypes="cc"/><path id="shape37" transform="translate(48.0600007100457, 80.3421633034841)" fill="none" stroke="#000000" stroke-width="0.72" stroke-linecap="square" stroke-linejoin="miter" stroke-miterlimit="2" d="M16.11 0L0 8.82" sodipodi:nodetypes="cc"/><path id="shape38" transform="translate(40.9428043504446, 46.4180254066766)" fill="none" stroke="#000000" stroke-width="0.72" stroke-linecap="square" stroke-linejoin="miter" stroke-miterlimit="2" d="M8.01859 0L0 8.27315" sodipodi:nodetypes="cc"/><path id="shape39" transform="translate(32.4150965531857, 48.8363306029142)" fill="none" stroke="#000000" stroke-width="0.72" stroke-linecap="square" stroke-linejoin="miter" stroke-miterlimit="2" d="M8.52771 5.85484L0 0" sodipodi:nodetypes="cc"/><path id="shape40" transform="translate(24.2692264184907, 48.8363306029142)" fill="none" stroke="#000000" stroke-width="0.72" stroke-linecap="square" stroke-linejoin="miter" stroke-miterlimit="2" d="M8.14587 0L0 5.47301" sodipodi:nodetypes="cc"/><path id="shape41" transform="translate(16.1233562837957, 51.509194240861)" fill="none" stroke="#000000" stroke-width="0.72" stroke-linecap="square" stroke-linejoin="miter" stroke-miterlimit="2" d="M8.14587 2.80014L0 0" sodipodi:nodetypes="cc"/><path id="shape42" transform="translate(16.1233562837957, 51.509194240861)" fill="none" stroke="#000000" stroke-width="0.72" stroke-linecap="square" stroke-linejoin="miter" stroke-miterlimit="2" d="M0 0L0.127279 3.43654" sodipodi:nodetypes="cc"/><path id="shape43" transform="translate(24.2692264184907, 50.3636812531695)" fill="none" stroke="#000000" stroke-width="0.72" stroke-linecap="square" stroke-linejoin="miter" stroke-miterlimit="2" d="M0 0L0 4.58205" sodipodi:nodetypes="cc"/><path id="shape44" transform="translate(32.6696549948949, 48.4544929403504)" fill="none" stroke="#000000" stroke-width="0.72" stroke-linecap="square" stroke-linejoin="miter" stroke-miterlimit="2" d="M0.127279 0L0 6.23668" sodipodi:nodetypes="cc"/><path id="shape45" transform="translate(41.1973627921538, 47.8180968360773)" fill="none" stroke="#000000" stroke-width="0.72" stroke-linecap="square" stroke-linejoin="miter" stroke-miterlimit="2" d="M0.127279 0L0 6.61852" sodipodi:nodetypes="cc"/><path id="shape46" transform="translate(63.9803433251289, 46.5453046275312)" fill="none" stroke="#000000" stroke-width="0.72" stroke-linecap="square" stroke-linejoin="miter" stroke-miterlimit="2" d="M0 0L8.52771 8.01859" sodipodi:nodetypes="cc"/><path id="shape47" transform="translate(72.5080511223878, 48.9636098237688)" fill="none" stroke="#000000" stroke-width="0.72" stroke-linecap="square" stroke-linejoin="miter" stroke-miterlimit="2" d="M0 5.60029L8.78227 0" sodipodi:nodetypes="cc"/><path id="shape48" transform="translate(81.2903173613559, 48.9636098237688)" fill="none" stroke="#000000" stroke-width="0.72" stroke-linecap="square" stroke-linejoin="miter" stroke-miterlimit="2" d="M0 0L7.76403 5.72756" sodipodi:nodetypes="cc"/><path id="shape49" transform="translate(89.0543498334871, 51.3819150200064)" fill="none" stroke="#000000" stroke-width="0.72" stroke-linecap="square" stroke-linejoin="miter" stroke-miterlimit="2" d="M0 3.30926L8.52771 0" sodipodi:nodetypes="cc"/><path id="shape50" transform="translate(97.582057630746, 51.3819150200064)" fill="none" stroke="#000000" stroke-width="0.72" stroke-linecap="square" stroke-linejoin="miter" stroke-miterlimit="2" d="M0 0L0 3.56382" sodipodi:nodetypes="cc"/><path id="shape51" transform="translate(89.3089082751963, 50.1091228114603)" fill="none" stroke="#000000" stroke-width="0.72" stroke-linecap="square" stroke-linejoin="miter" stroke-miterlimit="2" d="M0 0L0 4.58205" sodipodi:nodetypes="cc"/><path id="shape52" transform="translate(80.7812004779375, 49.0908890446234)" fill="none" stroke="#000000" stroke-width="0.72" stroke-linecap="square" stroke-linejoin="miter" stroke-miterlimit="2" d="M0.127279 0L0 5.34573" sodipodi:nodetypes="cc"/><path id="shape53" transform="translate(72.762609564097, 47.8180968360773)" fill="none" stroke="#000000" stroke-width="0.72" stroke-linecap="square" stroke-linejoin="miter" stroke-miterlimit="2" d="M0 0L0 6.7458" sodipodi:nodetypes="cc"/><path id="shape54" transform="translate(31.6514227239001, 13.5799869528922)" fill="none" stroke="#000000" stroke-width="0.72" stroke-linecap="square" stroke-linejoin="miter" stroke-miterlimit="2" d="M5.60029 0L0 5.85484" sodipodi:nodetypes="cc"/><path id="shape55" transform="translate(25.4147407873196, 16.3801298631937)" fill="none" stroke="#000000" stroke-width="0.72" stroke-linecap="square" stroke-linejoin="miter" stroke-miterlimit="2" d="M6.23668 3.0547L0 0" sodipodi:nodetypes="cc"/><path id="shape56" transform="translate(25.4147407873196, 16.3801298631937)" fill="none" stroke="#000000" stroke-width="0.72" stroke-linecap="square" stroke-linejoin="miter" stroke-miterlimit="2" d="M0 0L0.127279 3.0547" sodipodi:nodetypes="cc"/><path id="shape57" transform="translate(31.396864277509, 15.3618960776295)" fill="none" stroke="#000000" stroke-width="0.72" stroke-linecap="square" stroke-linejoin="miter" stroke-miterlimit="2" d="M0 0L0 3.81838" sodipodi:nodetypes="cc"/><path id="shape58" transform="translate(32.0332603934866, 6.83418812352961)" fill="none" stroke="#000000" stroke-width="0.72" stroke-linecap="square" stroke-linejoin="miter" stroke-miterlimit="2" d="M5.09117 6.61852L0 0" sodipodi:nodetypes="cc"/><path id="shape59" transform="translate(26.9420914656658, 6.83418812352961)" fill="none" stroke="#000000" stroke-width="0.72" stroke-linecap="square" stroke-linejoin="miter" stroke-miterlimit="2" d="M5.09117 0L0 2.16375" sodipodi:nodetypes="cc"/><path id="shape60" transform="translate(26.9420914656658, 5.68867511476993)" fill="none" stroke="#000000" stroke-width="0.72" stroke-linecap="square" stroke-linejoin="miter" stroke-miterlimit="2" d="M0 3.30926L0.127279 0" sodipodi:nodetypes="cc"/><path id="shape61" transform="translate(32.7969357326597, 6.96146734672513)" fill="none" stroke="#000000" stroke-width="0.72" stroke-linecap="square" stroke-linejoin="miter" stroke-miterlimit="2" d="M0 0L0 4.45477" sodipodi:nodetypes="cc"/><path id="shape62" transform="translate(76.3264300655278, 6.57962967713857)" fill="none" stroke="#000000" stroke-width="0.72" stroke-linecap="square" stroke-linejoin="miter" stroke-miterlimit="2" d="M0 6.49124L4.96389 0" sodipodi:nodetypes="cc"/><path id="shape63" transform="translate(81.2903197701531, 6.57962967713857)" fill="none" stroke="#000000" stroke-width="0.72" stroke-linecap="square" stroke-linejoin="miter" stroke-miterlimit="2" d="M0 0L4.32749 2.41831" sodipodi:nodetypes="cc"/><path id="shape64" transform="translate(85.4905341356053, 5.94323356116097)" fill="none" stroke="#000000" stroke-width="0.72" stroke-linecap="square" stroke-linejoin="miter" stroke-miterlimit="2" d="M0.127279 3.0547L0 0" sodipodi:nodetypes="cc"/><path id="shape65" transform="translate(81.6721574397397, 6.83418812352961)" fill="none" stroke="#000000" stroke-width="0.72" stroke-linecap="square" stroke-linejoin="miter" stroke-miterlimit="2" d="M0 0L0.127279 3.6911" sodipodi:nodetypes="cc"/><path id="shape66" transform="translate(76.4537092887233, 13.7072661760877)" fill="none" stroke="#000000" stroke-width="0.72" stroke-linecap="square" stroke-linejoin="miter" stroke-miterlimit="2" d="M0 0L5.34573 5.72757" sodipodi:nodetypes="cc"/><path id="shape67" transform="translate(81.7994366629352, 15.9982921936071)" fill="none" stroke="#000000" stroke-width="0.72" stroke-linecap="square" stroke-linejoin="miter" stroke-miterlimit="2" d="M0 3.43654L3.6911 0" sodipodi:nodetypes="cc"/><path id="shape68" transform="translate(85.4905341356053, 15.9982921936071)" fill="none" stroke="#000000" stroke-width="0.72" stroke-linecap="square" stroke-linejoin="miter" stroke-miterlimit="2" d="M0 0L3.6911 3.0547" sodipodi:nodetypes="cc"/><path id="shape69" transform="translate(89.0543523850799, 15.9982921936071)" fill="none" stroke="#000000" stroke-width="0.72" stroke-linecap="square" stroke-linejoin="miter" stroke-miterlimit="2" d="M0.127279 3.0547L0 0" sodipodi:nodetypes="cc"/><path id="shape70" transform="translate(85.2359756892143, 15.7437337472161)" fill="none" stroke="#000000" stroke-width="0.72" stroke-linecap="square" stroke-linejoin="miter" stroke-miterlimit="2" d="M0 0L0 3.6911" sodipodi:nodetypes="cc"/><path id="shape71" transform="translate(81.7994366629352, 14.7254999616519)" fill="none" stroke="#000000" stroke-width="0.72" stroke-linecap="square" stroke-linejoin="miter" stroke-miterlimit="2" d="M0 4.58205L0 0" sodipodi:nodetypes="cc"/><path id="shape72" transform="translate(64.2349059570694, 80.7834185628337)" fill="none" stroke="#000000" stroke-width="0.72" stroke-linecap="square" stroke-linejoin="miter" stroke-miterlimit="2" d="M0 0L9.67322 8.65499" sodipodi:nodetypes="cc"/><path id="shape73" transform="translate(73.9081270978383, 84.8563537799995)" fill="none" stroke="#000000" stroke-width="0.72" stroke-linecap="square" stroke-linejoin="miter" stroke-miterlimit="2" d="M0 4.58205L9.67322 0" sodipodi:nodetypes="cc"/><path id="shape74" transform="translate(83.5813482386071, 84.8563537799995)" fill="none" stroke="#000000" stroke-width="0.72" stroke-linecap="square" stroke-linejoin="miter" stroke-miterlimit="2" d="M0 0L0.127279 4.58205" sodipodi:nodetypes="cc"/><path id="shape75" transform="translate(74.0354063233747, 82.1834900437344)" fill="none" stroke="#000000" stroke-width="0.72" stroke-linecap="square" stroke-linejoin="miter" stroke-miterlimit="2" d="M0 0L0 7.12764" sodipodi:nodetypes="cc"/><path id="shape76" transform="translate(39.6700154285379, 80.5288601117608)" fill="none" stroke="#000000" stroke-width="0.72" stroke-linecap="square" stroke-linejoin="miter" stroke-miterlimit="2" d="M9.29138 0L0 8.52771" sodipodi:nodetypes="cc"/><path id="shape77" transform="translate(30.1240735133055, 84.4745161033902)" fill="none" stroke="#000000" stroke-width="0.72" stroke-linecap="square" stroke-linejoin="miter" stroke-miterlimit="2" d="M9.54594 4.58205L0 0" sodipodi:nodetypes="cc"/><path id="shape78" transform="translate(30.1240735133055, 84.4745161033902)" fill="none" stroke="#000000" stroke-width="0.72" stroke-linecap="square" stroke-linejoin="miter" stroke-miterlimit="2" d="M0 0L0 4.58205" sodipodi:nodetypes="cc"/><path id="shape79" transform="translate(39.9245738796108, 82.3107692692708)" fill="none" stroke="#000000" stroke-width="0.72" stroke-linecap="square" stroke-linejoin="miter" stroke-miterlimit="2" d="M0 0L0 6.87308" sodipodi:nodetypes="cc"/><path id="shape80" transform="translate(48.420001468002, 89.3421642518872)" fill="none" stroke="#000000" stroke-width="0.72" stroke-linecap="square" stroke-linejoin="miter" stroke-miterlimit="2" d="M0 0L19.26 16.38" sodipodi:nodetypes="cc"/><path id="shape81" transform="translate(43.2000013421026, 105.722164646951)" fill="none" stroke="#000000" stroke-width="0.72" stroke-linecap="square" stroke-linejoin="miter" stroke-miterlimit="2" d="M24.48 0L0 18.36" sodipodi:nodetypes="cc"/><path id="shape82" transform="translate(43.2000013421026, 124.082165089769)" fill="none" stroke="#000000" stroke-width="0.72" stroke-linecap="square" stroke-linejoin="miter" stroke-miterlimit="2" d="M0 0L29.16 18.72" sodipodi:nodetypes="cc"/><path id="shape83" transform="translate(38.5200012292274, 142.80216554127)" fill="none" stroke="#000000" stroke-width="0.72" stroke-linecap="square" stroke-linejoin="miter" stroke-miterlimit="2" d="M33.84 0L0 19.8" sodipodi:nodetypes="cc"/><path id="shape84" transform="translate(38.5200012292273, 162.602166018819)" fill="none" stroke="#000000" stroke-width="0.72" stroke-linecap="square" stroke-linejoin="miter" stroke-miterlimit="2" d="M0 0L39.42 20.88" sodipodi:nodetypes="cc"/><path id="shape85" transform="translate(33.8400011163521, 183.042170115874)" fill="none" stroke="#000000" stroke-width="0.72" stroke-linecap="square" stroke-linejoin="miter" stroke-miterlimit="2" d="M43.56 0L0 21.96" sodipodi:nodetypes="cc"/><path id="shape86" transform="translate(45.8100021370754, 89.3421642518872)" fill="none" stroke="#000000" stroke-width="0.72" stroke-linecap="square" stroke-linejoin="miter" stroke-miterlimit="2" d="M19.53 0L0 15.93" sodipodi:nodetypes="cc"/><path id="shape87" transform="translate(46.3500021542391, 105.632165569985)" fill="none" stroke="#000000" stroke-width="0.72" stroke-linecap="square" stroke-linejoin="miter" stroke-miterlimit="2" d="M0 0L23.67 18.99" sodipodi:nodetypes="cc"/><path id="shape88" transform="translate(40.860001285665, 124.622165102793)" fill="none" stroke="#000000" stroke-width="0.72" stroke-linecap="square" stroke-linejoin="miter" stroke-miterlimit="2" d="M29.16 0L0 18.36" sodipodi:nodetypes="cc"/><path id="shape89" transform="translate(40.860001285665, 142.982165545612)" fill="none" stroke="#000000" stroke-width="0.72" stroke-linecap="square" stroke-linejoin="miter" stroke-miterlimit="2" d="M0 0L33.66 19.26" sodipodi:nodetypes="cc"/><path id="shape90" transform="translate(36.3600011771311, 162.242166010137)" fill="none" stroke="#000000" stroke-width="0.72" stroke-linecap="square" stroke-linejoin="miter" stroke-miterlimit="2" d="M38.16 0L0 21.06" sodipodi:nodetypes="cc"/><path id="shape91" transform="translate(35.8200029119503, 183.042170115874)" fill="none" stroke="#000000" stroke-width="0.72" stroke-linecap="square" stroke-linejoin="miter" stroke-miterlimit="2" d="M0 0L44.1 22.32" sodipodi:nodetypes="cc"/><path id="shape92" transform="translate(48.8341183587674, 72.6375469637949)" fill="none" stroke="#000000" stroke-width="0.72" stroke-linecap="square" stroke-linejoin="miter" stroke-miterlimit="2" d="M0 7.12764L14.6371 0" sodipodi:nodetypes="cc"/><path id="shape93" transform="translate(49.4705144779974, 63.6007220707288)" fill="none" stroke="#000000" stroke-width="0.72" stroke-linecap="square" stroke-linejoin="miter" stroke-miterlimit="2" d="M14.0007 9.03682L0 0" sodipodi:nodetypes="cc"/><path id="shape94" transform="translate(49.4705144779974, 54.9457348492008)" fill="none" stroke="#000000" stroke-width="0.72" stroke-linecap="square" stroke-linejoin="miter" stroke-miterlimit="2" d="M0 8.65499L14.128 0" sodipodi:nodetypes="cc"/><path id="shape95" transform="translate(49.4705129077893, 37.381201127996)" fill="none" stroke="#000000" stroke-width="0.72" stroke-linecap="square" stroke-linejoin="miter" stroke-miterlimit="2" d="M0 8.78227L14.6371 0" sodipodi:nodetypes="cc"/><path id="shape96" transform="translate(49.343233685959, 28.0898179343819)" fill="none" stroke="#000000" stroke-width="0.72" stroke-linecap="square" stroke-linejoin="miter" stroke-miterlimit="2" d="M14.7644 9.29138L0 0" sodipodi:nodetypes="cc"/><path id="shape97" transform="translate(49.343233685959, 19.3075516280891)" fill="none" stroke="#000000" stroke-width="0.72" stroke-linecap="square" stroke-linejoin="miter" stroke-miterlimit="2" d="M0 8.78227L14.7644 0" sodipodi:nodetypes="cc"/><path id="shape98" transform="translate(49.4705129077893, 19.5621100717498)" fill="none" stroke="#000000" stroke-width="0.72" stroke-linecap="square" stroke-linejoin="miter" stroke-miterlimit="2" d="M0 0L14.7644 8.90955" sodipodi:nodetypes="cc"/><path id="shape99" transform="translate(49.5977939555301, 28.4716555998729)" fill="none" stroke="#000000" stroke-width="0.72" stroke-linecap="square" stroke-linejoin="miter" stroke-miterlimit="2" d="M14.6371 0L0 8.59135" sodipodi:nodetypes="cc"/><path id="shape100" transform="translate(49.9159920159582, 37.3812020924512)" fill="none" stroke="#000000" stroke-width="0.72" stroke-linecap="square" stroke-linejoin="miter" stroke-miterlimit="2" d="M0 0L13.9371 8.90954" sodipodi:nodetypes="cc"/><path id="shape101" transform="translate(49.343233685959, 54.8184545187511)" fill="none" stroke="#000000" stroke-width="0.72" stroke-linecap="square" stroke-linejoin="miter" stroke-miterlimit="2" d="M0 0L15.0189 9.1641" sodipodi:nodetypes="cc"/><path id="shape102" transform="translate(49.4705163015669, 63.9825584905349)" fill="none" stroke="#000000" stroke-width="0.72" stroke-linecap="square" stroke-linejoin="miter" stroke-miterlimit="2" d="M14.8917 0L0 8.40043" sodipodi:nodetypes="cc"/><path id="shape103" transform="translate(49.7250747539408, 72.701188189776)" fill="none" stroke="#000000" stroke-width="0.72" stroke-linecap="square" stroke-linejoin="miter" stroke-miterlimit="2" d="M0 0L14.0007 7.31855" sodipodi:nodetypes="cc"/><path id="shape104" transform="translate(39.6700146984914, 152.059783497778)" fill="none" stroke="#000000" stroke-width="0.72" stroke-linecap="square" stroke-linejoin="miter" stroke-miterlimit="2" d="M0 0L34.1108 0.127279" sodipodi:nodetypes="cc"/><path id="shape105" transform="translate(36.7425925350723, 172.042621743726)" fill="none" stroke="#000000" stroke-width="0.72" stroke-linecap="square" stroke-linejoin="miter" stroke-miterlimit="2" d="M0 0.254558L39.8384 0" sodipodi:nodetypes="cc"/><path id="shape106" transform="translate(41.8337615149315, 132.967899823306)" fill="none" stroke="#000000" stroke-width="0.72" stroke-linecap="square" stroke-linejoin="miter" stroke-miterlimit="2" d="M0 0L29.7833 0.127279" sodipodi:nodetypes="cc"/><path id="shape107" transform="translate(44.5066252293576, 114.174249921921)" fill="none" stroke="#000000" stroke-width="0.72" stroke-linecap="square" stroke-linejoin="miter" stroke-miterlimit="2" d="M0 0C8.10344 0.0424264 16.2069 0.0848528 24.3103 0.127279" sodipodi:nodetypes="cc"/><path id="shape108" transform="translate(47.1600021799846, 96.4521652782026)" fill="none" stroke="#000000" stroke-width="0.72" stroke-linecap="square" stroke-linejoin="miter" stroke-miterlimit="2" d="M0 0.09L19.53 0" sodipodi:nodetypes="cc"/><path id="shape109" transform="translate(66.6532108862844, 166.442336793466)" fill="none" stroke="#000000" stroke-width="0.72" stroke-linecap="square" stroke-linejoin="miter" stroke-miterlimit="2" d="M8.90955 0.127279L0 0" sodipodi:nodetypes="cc"/><path id="shape110" transform="translate(66.6532108862844, 166.442336793466)" fill="none" stroke="#000000" stroke-width="0.72" stroke-linecap="square" stroke-linejoin="miter" stroke-miterlimit="2" d="M0 0L9.54594 5.72757" sodipodi:nodetypes="cc"/><path id="shape111" transform="translate(67.4168862371662, 172.169901925079)" fill="none" stroke="#000000" stroke-width="0.72" stroke-linecap="square" stroke-linejoin="miter" stroke-miterlimit="2" d="M8.78227 0L0 5.60029" sodipodi:nodetypes="cc"/><path id="shape112" transform="translate(67.4168862371662, 177.770187831545)" fill="none" stroke="#000000" stroke-width="0.72" stroke-linecap="square" stroke-linejoin="miter" stroke-miterlimit="2" d="M0 0L9.29138 0" sodipodi:nodetypes="cc"/><path id="shape113" transform="translate(37.8881060030713, 166.951453694054)" fill="none" stroke="#000000" stroke-width="0.72" stroke-linecap="square" stroke-linejoin="miter" stroke-miterlimit="2" d="M0 0.127279L9.29138 0" sodipodi:nodetypes="cc"/><path id="shape114" transform="translate(37.5062683276304, 166.951453694054)" fill="none" stroke="#000000" stroke-width="0.72" stroke-linecap="square" stroke-linejoin="miter" stroke-miterlimit="2" d="M9.67322 0L0 4.96389" sodipodi:nodetypes="cc"/><path id="shape115" transform="translate(37.5062683276304, 171.915343474785)" fill="none" stroke="#000000" stroke-width="0.72" stroke-linecap="square" stroke-linejoin="miter" stroke-miterlimit="2" d="M0 0L10.3096 5.21845" sodipodi:nodetypes="cc"/><path id="shape116" transform="translate(36.6153137516017, 177.133791705811)" fill="none" stroke="#000000" stroke-width="0.72" stroke-linecap="square" stroke-linejoin="miter" stroke-miterlimit="2" d="M11.2006 0L0 0.127279" sodipodi:nodetypes="cc"/><path id="shape117" transform="translate(65.7622505306216, 152.187055203865)" fill="none" stroke="#000000" stroke-width="0.72" stroke-linecap="square" stroke-linejoin="miter" stroke-miterlimit="2" d="M7.76403 0L0 4.45477" sodipodi:nodetypes="cc"/><path id="shape118" transform="translate(65.7622505306216, 156.64182786098)" fill="none" stroke="#000000" stroke-width="0.72" stroke-linecap="square" stroke-linejoin="miter" stroke-miterlimit="2" d="M0 0L8.52771 0" sodipodi:nodetypes="cc"/><path id="shape119" transform="translate(65.3804128742975, 146.968607234102)" fill="none" stroke="#000000" stroke-width="0.72" stroke-linecap="square" stroke-linejoin="miter" stroke-miterlimit="2" d="M8.27315 5.60029L0 0" sodipodi:nodetypes="cc"/><path id="shape120" transform="translate(65.3804128742975, 146.968607234102)" fill="none" stroke="#000000" stroke-width="0.72" stroke-linecap="square" stroke-linejoin="miter" stroke-miterlimit="2" d="M0 0L7.25492 0.127279" sodipodi:nodetypes="cc"/><path id="shape121" transform="translate(40.4999993424482, 146.942162165911)" fill="none" stroke="#000000" stroke-width="0.72" stroke-linecap="square" stroke-linejoin="miter" stroke-miterlimit="2" d="M0 0L7.56 0.09" sodipodi:nodetypes="cc"/><path id="shape122" transform="translate(39.6899993402882, 147.032162166151)" fill="none" stroke="#000000" stroke-width="0.72" stroke-linecap="square" stroke-linejoin="miter" stroke-miterlimit="2" d="M8.37 0L0 5.04" sodipodi:nodetypes="cc"/><path id="shape123" transform="translate(39.6899993402882, 152.072162179591)" fill="none" stroke="#000000" stroke-width="0.72" stroke-linecap="square" stroke-linejoin="miter" stroke-miterlimit="2" d="M0 0L8.46 4.77" sodipodi:nodetypes="cc"/><path id="shape124" transform="translate(39.5099993398082, 156.842162192311)" fill="none" stroke="#000000" stroke-width="0.72" stroke-linecap="square" stroke-linejoin="miter" stroke-miterlimit="2" d="M8.64 0L0 0" sodipodi:nodetypes="cc"/><path id="shape125" transform="translate(42.0299993465283, 136.68216213855)" fill="none" stroke="#000000" stroke-width="0.72" stroke-linecap="square" stroke-linejoin="miter" stroke-miterlimit="2" d="M0 0L7.83 0.09" sodipodi:nodetypes="cc"/><path id="shape126" transform="translate(42.2999993472484, 132.63216212775)" fill="none" stroke="#000000" stroke-width="0.72" stroke-linecap="square" stroke-linejoin="miter" stroke-miterlimit="2" d="M7.56 4.14L0 0" sodipodi:nodetypes="cc"/><path id="shape127" transform="translate(42.2999993472484, 128.762162117429)" fill="none" stroke="#000000" stroke-width="0.72" stroke-linecap="square" stroke-linejoin="miter" stroke-miterlimit="2" d="M0 3.87L7.74 0" sodipodi:nodetypes="cc"/><path id="shape128" transform="translate(42.5699993479684, 128.672162117189)" fill="none" stroke="#000000" stroke-width="0.72" stroke-linecap="square" stroke-linejoin="miter" stroke-miterlimit="2" d="M7.47 0.09L0 0" sodipodi:nodetypes="cc"/><path id="shape129" transform="translate(63.5399994038897, 128.852162117669)" fill="none" stroke="#000000" stroke-width="0.72" stroke-linecap="square" stroke-linejoin="miter" stroke-miterlimit="2" d="M0 0L7.11 0" sodipodi:nodetypes="cc"/><path id="shape130" transform="translate(63.1799994029297, 128.942162117909)" fill="none" stroke="#000000" stroke-width="0.72" stroke-linecap="square" stroke-linejoin="miter" stroke-miterlimit="2" d="M0 0L8.01 4.14" sodipodi:nodetypes="cc"/><path id="shape131" transform="translate(63.9899994050898, 133.08216212895)" fill="none" stroke="#000000" stroke-width="0.72" stroke-linecap="square" stroke-linejoin="miter" stroke-miterlimit="2" d="M7.2 0L0 4.14" sodipodi:nodetypes="cc"/><path id="shape132" transform="translate(63.9899994050898, 137.04216213951)" fill="none" stroke="#000000" stroke-width="0.72" stroke-linecap="square" stroke-linejoin="miter" stroke-miterlimit="2" d="M0 0.18L7.56 0" sodipodi:nodetypes="cc"/><path id="shape133" transform="translate(62.1000014559007, 109.862164364549)" fill="none" stroke="#000000" stroke-width="0.72" stroke-linecap="square" stroke-linejoin="miter" stroke-miterlimit="2" d="M6.03 0.09L0 0" sodipodi:nodetypes="cc"/><path id="shape134" transform="translate(62.1000014559007, 109.862164364549)" fill="none" stroke="#000000" stroke-width="0.72" stroke-linecap="square" stroke-linejoin="miter" stroke-miterlimit="2" d="M0 0L6.48 4.14" sodipodi:nodetypes="cc"/><path id="shape135" transform="translate(62.4600014634818, 114.002164451732)" fill="none" stroke="#000000" stroke-width="0.72" stroke-linecap="square" stroke-linejoin="miter" stroke-miterlimit="2" d="M6.12 0L0 4.77" sodipodi:nodetypes="cc"/><path id="shape136" transform="translate(62.4600014634818, 118.772164552182)" fill="none" stroke="#000000" stroke-width="0.72" stroke-linecap="square" stroke-linejoin="miter" stroke-miterlimit="2" d="M0 0L6.84 0" sodipodi:nodetypes="cc"/><path id="shape137" transform="translate(44.0100010749493, 118.322164542706)" fill="none" stroke="#000000" stroke-width="0.72" stroke-linecap="square" stroke-linejoin="miter" stroke-miterlimit="2" d="M0 0L6.48 0" sodipodi:nodetypes="cc"/><path id="shape138" transform="translate(44.550001086321, 114.002164451732)" fill="none" stroke="#000000" stroke-width="0.72" stroke-linecap="square" stroke-linejoin="miter" stroke-miterlimit="2" d="M5.94 4.32L0 0" sodipodi:nodetypes="cc"/><path id="shape139" transform="translate(44.550001086321, 109.682164360759)" fill="none" stroke="#000000" stroke-width="0.72" stroke-linecap="square" stroke-linejoin="miter" stroke-miterlimit="2" d="M0 4.32L6.57 0" sodipodi:nodetypes="cc"/><path id="shape140" transform="translate(45.6300011090644, 109.682164360759)" fill="none" stroke="#000000" stroke-width="0.72" stroke-linecap="square" stroke-linejoin="miter" stroke-miterlimit="2" d="M5.49 0L0 0" sodipodi:nodetypes="cc"/><path id="shape141" transform="translate(61.3711177666664, 100.129855019352)" fill="none" stroke="#000000" stroke-width="0.72" stroke-linecap="square" stroke-linejoin="miter" stroke-miterlimit="2" d="M5.40937 0L0 0.0636396" sodipodi:nodetypes="cc"/><path id="shape142" transform="translate(61.3711177666664, 96.6296764941039)" fill="none" stroke="#000000" stroke-width="0.72" stroke-linecap="square" stroke-linejoin="miter" stroke-miterlimit="2" d="M0 3.56382L4.90025 0" sodipodi:nodetypes="cc"/><path id="shape143" transform="translate(61.0529197189165, 92.9421617339001)" fill="none" stroke="#000000" stroke-width="0.72" stroke-linecap="square" stroke-linejoin="miter" stroke-miterlimit="2" d="M5.21845 3.68751L0 0" sodipodi:nodetypes="cc"/><path id="shape144" transform="translate(61.0529197189166, 92.9421617339001)" fill="none" stroke="#000000" stroke-width="0.72" stroke-linecap="square" stroke-linejoin="miter" stroke-miterlimit="2" d="M0 0L4.83661 0" sodipodi:nodetypes="cc"/><path id="shape145" transform="translate(47.4976828847722, 92.9421617339001)" fill="none" stroke="#000000" stroke-width="0.72" stroke-linecap="square" stroke-linejoin="miter" stroke-miterlimit="2" d="M0 0L5.09117 0" sodipodi:nodetypes="cc"/><path id="shape146" transform="translate(47.815880932522, 92.9421617339001)" fill="none" stroke="#000000" stroke-width="0.72" stroke-linecap="square" stroke-linejoin="miter" stroke-miterlimit="2" d="M4.77297 0L0 3.36932" sodipodi:nodetypes="cc"/><path id="shape147" transform="translate(47.815880932522, 96.311478446354)" fill="none" stroke="#000000" stroke-width="0.72" stroke-linecap="square" stroke-linejoin="miter" stroke-miterlimit="2" d="M0 0L4.32749 3.94566" sodipodi:nodetypes="cc"/><path id="shape148" transform="translate(46.8612867892724, 100.257134238452)" fill="none" stroke="#000000" stroke-width="0.72" stroke-linecap="square" stroke-linejoin="miter" stroke-miterlimit="2" d="M5.28209 0L0 0" sodipodi:nodetypes="cc"/><path id="shape149" transform="translate(34.3242828069017, 193.625020617855)" fill="none" stroke="#000000" stroke-width="0.72" stroke-linecap="square" stroke-linejoin="miter" stroke-miterlimit="2" d="M0 0L45.0568 0" sodipodi:nodetypes="cc"/><path id="shape150" transform="translate(66.3986456760603, 188.40657269073)" fill="none" stroke="#000000" stroke-width="0.72" stroke-linecap="square" stroke-linejoin="miter" stroke-miterlimit="2" d="M12.0915 0.127279L0 0" sodipodi:nodetypes="cc"/><path id="shape151" transform="translate(66.3986456760603, 188.40657269073)" fill="none" stroke="#000000" stroke-width="0.72" stroke-linecap="square" stroke-linejoin="miter" stroke-miterlimit="2" d="M0 0L12.8552 5.34573" sodipodi:nodetypes="cc"/><path id="shape152" transform="translate(68.3078339420817, 193.75229983559)" fill="none" stroke="#000000" stroke-width="0.72" stroke-linecap="square" stroke-linejoin="miter" stroke-miterlimit="2" d="M10.946 0L0 5.60029" sodipodi:nodetypes="cc"/><path id="shape153" transform="translate(68.3078339420817, 199.352585415919)" fill="none" stroke="#000000" stroke-width="0.72" stroke-linecap="square" stroke-linejoin="miter" stroke-miterlimit="2" d="M0 0L11.4551 0" sodipodi:nodetypes="cc"/><path id="shape154" transform="translate(35.0879581133102, 188.915689561669)" fill="none" stroke="#000000" stroke-width="0.72" stroke-linecap="square" stroke-linejoin="miter" stroke-miterlimit="2" d="M0 0L12.7279 0.127279" sodipodi:nodetypes="cc"/><path id="shape155" transform="translate(34.4515620246364, 189.042968779404)" fill="none" stroke="#000000" stroke-width="0.72" stroke-linecap="square" stroke-linejoin="miter" stroke-miterlimit="2" d="M13.1098 0L0 4.70933" sodipodi:nodetypes="cc"/><path id="shape156" transform="translate(34.4515620246364, 193.75229983559)" fill="none" stroke="#000000" stroke-width="0.72" stroke-linecap="square" stroke-linejoin="miter" stroke-miterlimit="2" d="M0 0L12.0915 4.32749" sodipodi:nodetypes="cc"/><path id="shape157" transform="translate(33.4333282827584, 197.952514020837)" fill="none" stroke="#000000" stroke-width="0.72" stroke-linecap="square" stroke-linejoin="miter" stroke-miterlimit="2" d="M13.1098 0.127279L0 0" sodipodi:nodetypes="cc"/><path id="shape0" transform="matrix(0.999999954770135 0 0 0.999999954770135 108.969362286241 56.1126540482212)" fill="none" stroke="#737373" stroke-width="2.16" stroke-linecap="square" stroke-linejoin="miter" stroke-miterlimit="2" d="M0 0L0 16.3554" sodipodi:nodetypes="cc"/><circle id="shape01" transform="matrix(1.54510022570188 0 0 1.46487244205745 105.730202180835 73.2417588174618)" r="0.719999999999999" cx="0.719999999999999" cy="0.719999999999999" fill="#d00000" fill-rule="evenodd" stroke-opacity="0" stroke="#000000" stroke-width="0" stroke-linecap="square" stroke-linejoin="bevel"/><circle id="shape011" transform="matrix(1.43710247252687 0 0 1.4634617296064 110.050775011294 73.1762902392629)" r="0.719999999999999" cx="0.719999999999999" cy="0.719999999999999" fill="#d00000" fill-rule="evenodd" stroke-opacity="0" stroke="#000000" stroke-width="0" stroke-linecap="square" stroke-linejoin="bevel"/><path id="shape01" transform="matrix(0.999999954770135 0 0 0.999999954770135 97.5733483909176 90.973042737234)" fill="none" stroke="#737373" stroke-width="2.16" stroke-linecap="square" stroke-linejoin="miter" stroke-miterlimit="2" d="M0 0L0 16.3554" sodipodi:nodetypes="cc"/><circle id="shape012" transform="matrix(1.54510022570188 0 0 1.46487244205745 94.3341882855122 108.102147506475)" r="0.719999999999999" cx="0.719999999999999" cy="0.719999999999999" fill="#d00000" fill-rule="evenodd" stroke-opacity="0" stroke="#000000" stroke-width="0" stroke-linecap="square" stroke-linejoin="bevel"/><circle id="shape013" transform="matrix(1.43710247252687 0 0 1.4634617296064 98.6547611159707 108.036678928276)" r="0.719999999999999" cx="0.719999999999999" cy="0.719999999999999" fill="#d00000" fill-rule="evenodd" stroke-opacity="0" stroke="#000000" stroke-width="0" stroke-linecap="square" stroke-linejoin="bevel"/><path id="shape02" transform="matrix(0.999999954770135 0 0 0.999999954770135 15.7373320215072 90.9045960354993)" fill="none" stroke="#737373" stroke-width="2.16" stroke-linecap="square" stroke-linejoin="miter" stroke-miterlimit="2" d="M0 0L0 16.3554" sodipodi:nodetypes="cc"/><circle id="shape014" transform="matrix(1.54510022570188 0 0 1.46487244205745 12.4981719161018 108.03370080474)" r="0.719999999999999" cx="0.719999999999999" cy="0.719999999999999" fill="#d00000" fill-rule="evenodd" stroke-opacity="0" stroke="#000000" stroke-width="0" stroke-linecap="square" stroke-linejoin="bevel"/><circle id="shape015" transform="matrix(1.43710247252687 0 0 1.4634617296064 16.8187447465603 107.968232226541)" r="0.719999999999999" cx="0.719999999999999" cy="0.719999999999999" fill="#d00000" fill-rule="evenodd" stroke-opacity="0" stroke="#000000" stroke-width="0" stroke-linecap="square" stroke-linejoin="bevel"/><path id="shape03" transform="matrix(0.999999954770135 0 0 0.999999954770135 4.72768336773073 56.4944913407598)" fill="none" stroke="#737373" stroke-width="2.16" stroke-linecap="square" stroke-linejoin="miter" stroke-miterlimit="2" d="M0 0L0 16.3554" sodipodi:nodetypes="cc"/><circle id="shape016" transform="matrix(1.54510022570188 0 0 1.46487244205745 1.48852326232527 73.6235961100005)" r="0.719999999999999" cx="0.719999999999999" cy="0.719999999999999" fill="#d00000" fill-rule="evenodd" stroke-opacity="0" stroke="#000000" stroke-width="0" stroke-linecap="square" stroke-linejoin="bevel"/><circle id="shape017" transform="matrix(1.43710247252687 0 0 1.4634617296064 5.8090960927838 73.5581275318015)" r="0.719999999999999" cx="0.719999999999999" cy="0.719999999999999" fill="#d00000" fill-rule="evenodd" stroke-opacity="0" stroke="#000000" stroke-width="0" stroke-linecap="square" stroke-linejoin="bevel"/><path id="shape04" transform="matrix(0.999999954770135 0 0 0.999999954770135 17.6239042724729 21.1931454562722)" fill="none" stroke="#737373" stroke-width="2.16" stroke-linecap="square" stroke-linejoin="miter" stroke-miterlimit="2" d="M0 0L0 16.3554" sodipodi:nodetypes="cc"/><circle id="shape018" transform="matrix(1.54510022570188 0 0 1.46487244205745 14.3847441670674 38.3222502255128)" r="0.719999999999999" cx="0.719999999999999" cy="0.719999999999999" fill="#d00000" fill-rule="evenodd" stroke-opacity="0" stroke="#000000" stroke-width="0" stroke-linecap="square" stroke-linejoin="bevel"/><circle id="shape019" transform="matrix(1.43710247252687 0 0 1.4634617296064 18.7053169975259 38.2567816473139)" r="0.719999999999999" cx="0.719999999999999" cy="0.719999999999999" fill="#d00000" fill-rule="evenodd" stroke-opacity="0" stroke="#000000" stroke-width="0" stroke-linecap="square" stroke-linejoin="bevel"/><path id="shape05" transform="matrix(0.999999954770135 0 0 0.999999954770135 96.5466727262151 21.1361460975274)" fill="none" stroke="#737373" stroke-width="2.16" stroke-linecap="square" stroke-linejoin="miter" stroke-miterlimit="2" d="M0 0L0 16.3554" sodipodi:nodetypes="cc"/><circle id="shape0110" transform="matrix(1.54510022570188 0 0 1.46487244205745 93.3075126208096 38.2652508667681)" r="0.719999999999999" cx="0.719999999999999" cy="0.719999999999999" fill="#d00000" fill-rule="evenodd" stroke-opacity="0" stroke="#000000" stroke-width="0" stroke-linecap="square" stroke-linejoin="bevel"/><circle id="shape0111" transform="matrix(1.43710247252687 0 0 1.4634617296064 97.6280854512682 38.1997822885692)" r="0.719999999999999" cx="0.719999999999999" cy="0.719999999999999" fill="#d00000" fill-rule="evenodd" stroke-opacity="0" stroke="#000000" stroke-width="0" stroke-linecap="square" stroke-linejoin="bevel"/>
</svg>
