<?xml version="1.0" standalone="no"?>
<!DOCTYPE svg PUBLIC "-//W3C//DTD SVG 20010904//EN" "http://www.w3.org/TR/2001/REC-SVG-20010904/DTD/svg10.dtd">
<!-- Created using Krita: https://krita.org -->
<svg xmlns="http://www.w3.org/2000/svg" 
    xmlns:xlink="http://www.w3.org/1999/xlink"
    xmlns:krita="http://krita.org/namespaces/svg/krita"
    xmlns:sodipodi="http://sodipodi.sourceforge.net/DTD/sodipodi-0.dtd"
    width="149.76pt"
    height="216pt"
    viewBox="0 0 149.76 216">
<defs/>
<path id="shape0" transform="translate(88.2807677302016, 97.4469376915705)" fill="none" stroke="#000000" stroke-width="1.44" stroke-linecap="square" stroke-linejoin="miter" stroke-miterlimit="2" d="M9.18 116.28L0 0" sodipodi:nodetypes="cc"/><path id="shape1" transform="translate(54.6207698679048, 96.7269409691924)" fill="none" stroke="#000000" stroke-width="1.44" stroke-linecap="square" stroke-linejoin="miter" stroke-miterlimit="2" d="M0 117.72L8.46 0" sodipodi:nodetypes="cc"/><path id="shape2" transform="translate(88.2807638819056, 70.6269347757526)" fill="none" stroke="#000000" stroke-width="1.44" stroke-linecap="square" stroke-linejoin="miter" stroke-miterlimit="2" d="M0 26.28L14.4 0" sodipodi:nodetypes="cc"/><path id="shape3" transform="translate(102.680763797547, 50.8269348917457)" fill="none" stroke="#000000" stroke-width="1.44" stroke-linecap="square" stroke-linejoin="miter" stroke-miterlimit="2" d="M0 19.8L8.28 0" sodipodi:nodetypes="cc"/><path id="shape4" transform="translate(47.9607641181097, 70.8069347746981)" fill="none" stroke="#000000" stroke-width="1.44" stroke-linecap="square" stroke-linejoin="miter" stroke-miterlimit="2" d="M15.48 25.92L0 0" sodipodi:nodetypes="cc"/><path id="shape5" transform="translate(38.4207641739973, 50.6469348928002)" fill="none" stroke="#000000" stroke-width="1.44" stroke-linecap="square" stroke-linejoin="miter" stroke-miterlimit="2" d="M9.54 20.16L0 0" sodipodi:nodetypes="cc"/><path id="shape6" transform="translate(4.22076437434908, 50.4669348938547)" fill="none" stroke="#000000" stroke-width="1.44" stroke-linecap="square" stroke-linejoin="miter" stroke-miterlimit="2" d="M34.2 0.18L0 0" sodipodi:nodetypes="cc"/><path id="shape7" transform="translate(4.22076437434908, 42.906934938143)" fill="none" stroke="#000000" stroke-width="1.44" stroke-linecap="square" stroke-linejoin="miter" stroke-miterlimit="2" d="M0 7.56L29.88 0" sodipodi:nodetypes="cc"/><path id="shape8" transform="translate(111.115402394115, 51.0840655614035)" fill="none" stroke="#000000" stroke-width="1.44" stroke-linecap="square" stroke-linejoin="miter" stroke-miterlimit="2" d="M33.0926 0.127279L0 0" sodipodi:nodetypes="cc"/><path id="shape9" transform="translate(114.933779055502, 43.1927537945368)" fill="none" stroke="#000000" stroke-width="1.44" stroke-linecap="square" stroke-linejoin="miter" stroke-miterlimit="2" d="M29.4015 7.89131L0 0" sodipodi:nodetypes="cc"/><path id="shape10" transform="translate(32.075004469362, 0.426935187000986)" fill="none" stroke="#000000" stroke-width="1.44" stroke-linecap="square" stroke-linejoin="miter" stroke-miterlimit="2" d="M0 0L2.03647 42.384" sodipodi:nodetypes="cc"/><path id="shape11" transform="translate(32.075004469362, 0.426935187000984)" fill="none" stroke="#000000" stroke-width="1.44" stroke-linecap="square" stroke-linejoin="miter" stroke-miterlimit="2" d="M0 0L8.01859 15.4008" sodipodi:nodetypes="cc"/><path id="shape12" transform="translate(40.0935953312876, 15.5731623706384)" fill="none" stroke="#000000" stroke-width="1.44" stroke-linecap="square" stroke-linejoin="miter" stroke-miterlimit="2" d="M0 0.254558L67.7125 0" sodipodi:nodetypes="cc"/><path id="shape13" transform="translate(107.806140387549, 0.426935187000984)" fill="none" stroke="#000000" stroke-width="1.44" stroke-linecap="square" stroke-linejoin="miter" stroke-miterlimit="2" d="M0 15.1462L7.63675 0" sodipodi:nodetypes="cc"/><path id="shape14" transform="translate(115.061055929291, 0.426935187000986)" fill="none" stroke="#000000" stroke-width="1.44" stroke-linecap="square" stroke-linejoin="miter" stroke-miterlimit="2" d="M0.381838 0L0 42.384" sodipodi:nodetypes="cc"/><path id="shape15" transform="translate(40.4754329913793, 23.0826363524418)" fill="none" stroke="#000000" stroke-width="1.44" stroke-linecap="square" stroke-linejoin="miter" stroke-miterlimit="2" d="M0 0L68.0944 0.127279" sodipodi:nodetypes="cc"/><path id="shape16" transform="translate(108.569815707733, 23.2099155724723)" fill="none" stroke="#000000" stroke-width="1.44" stroke-linecap="square" stroke-linejoin="miter" stroke-miterlimit="2" d="M0 0L2.16375 27.4923" sodipodi:nodetypes="cc"/><path id="shape17" transform="translate(96.3510105847976, 50.7022270990746)" fill="none" stroke="#000000" stroke-width="1.44" stroke-linecap="square" stroke-linejoin="miter" stroke-miterlimit="2" d="M14.3826 0L0 19.4737" sodipodi:nodetypes="cc"/><path id="shape18" transform="translate(74.7807645936816, 70.1759477637512)" fill="none" stroke="#000000" stroke-width="1.44" stroke-linecap="square" stroke-linejoin="miter" stroke-miterlimit="2" d="M21.5702 0L0 17.31" sodipodi:nodetypes="cc"/><path id="shape19" transform="translate(54.7307056348027, 70.4305062038123)" fill="none" stroke="#000000" stroke-width="1.44" stroke-linecap="square" stroke-linejoin="miter" stroke-miterlimit="2" d="M20.0501 17.0554L0 0" sodipodi:nodetypes="cc"/><path id="shape20" transform="translate(39.3299200111042, 50.574947879044)" fill="none" stroke="#000000" stroke-width="1.44" stroke-linecap="square" stroke-linejoin="miter" stroke-miterlimit="2" d="M15.4008 19.8556L0 0" sodipodi:nodetypes="cc"/><path id="shape21" transform="translate(39.3299200111042, 22.9553571324112)" fill="none" stroke="#000000" stroke-width="1.44" stroke-linecap="square" stroke-linejoin="miter" stroke-miterlimit="2" d="M0 27.6196L0.636396 0" sodipodi:nodetypes="cc"/><path id="shape22" transform="translate(105.560773635779, 64.4169393562168)" fill="none" stroke="#000000" stroke-width="1.44" stroke-linecap="square" stroke-linejoin="miter" stroke-miterlimit="2" d="M0 0L14.04 6.12" sodipodi:nodetypes="cc"/><path id="shape23" transform="translate(102.860773459862, 70.4469397490964)" fill="none" stroke="#000000" stroke-width="1.44" stroke-linecap="square" stroke-linejoin="miter" stroke-miterlimit="2" d="M16.74 0.09L0 0" sodipodi:nodetypes="cc"/><path id="shape24" transform="translate(30.4203769498759, 64.0665475431953)" fill="none" stroke="#000000" stroke-width="1.44" stroke-linecap="square" stroke-linejoin="miter" stroke-miterlimit="2" d="M14.0007 0L0 6.49124" sodipodi:nodetypes="cc"/><path id="shape25" transform="translate(30.4203769498759, 70.5577880035271)" fill="none" stroke="#000000" stroke-width="1.44" stroke-linecap="square" stroke-linejoin="miter" stroke-miterlimit="2" d="M0 0L17.5645 0.127279" sodipodi:nodetypes="cc"/><path id="shape26" transform="translate(63.0038554285529, 96.7773052425533)" fill="none" stroke="#000000" stroke-width="0.72" stroke-linecap="square" stroke-linejoin="miter" stroke-miterlimit="2" d="M0 0.127279L25.3286 0" sodipodi:nodetypes="cc"/><path id="shape27" transform="translate(61.6407647651639, 96.7269353610864)" fill="none" stroke="#000000" stroke-width="0.72" stroke-linecap="square" stroke-linejoin="miter" stroke-miterlimit="2" d="M26.28 0L0 19.8" sodipodi:nodetypes="cc"/><path id="shape28" transform="translate(62.3607647664655, 116.346935396554)" fill="none" stroke="#000000" stroke-width="0.72" stroke-linecap="square" stroke-linejoin="miter" stroke-miterlimit="2" d="M0 0L28.8992 18.7431" sodipodi:nodetypes="cc"/><path id="shape29" transform="translate(58.6757190865538, 134.706935429744)" fill="none" stroke="#000000" stroke-width="0.72" stroke-linecap="square" stroke-linejoin="miter" stroke-miterlimit="2" d="M32.485 0L0 24.5194" sodipodi:nodetypes="cc"/><path id="shape30" transform="translate(58.8029983036613, 159.480859035688)" fill="none" stroke="#000000" stroke-width="0.72" stroke-linecap="square" stroke-linejoin="miter" stroke-miterlimit="2" d="M0 0L35.9578 23.2861" sodipodi:nodetypes="cc"/><path id="shape31" transform="translate(54.4407645569122, 182.406935515974)" fill="none" stroke="#000000" stroke-width="0.72" stroke-linecap="square" stroke-linejoin="miter" stroke-miterlimit="2" d="M40.68 0L0 33.12" sodipodi:nodetypes="cc"/><path id="shape0" transform="translate(63.3507653105247, 87.5469358336964)" fill="none" stroke="#000000" stroke-width="0.72" stroke-linecap="square" stroke-linejoin="miter" stroke-miterlimit="2" d="M0 9.27L11.43 0" sodipodi:nodetypes="cc"/><path id="shape1" transform="translate(74.7807645936816, 87.5469358336964)" fill="none" stroke="#000000" stroke-width="0.72" stroke-linecap="square" stroke-linejoin="miter" stroke-miterlimit="2" d="M0 0L13.59 9.36" sodipodi:nodetypes="cc"/><path id="shape2" transform="translate(82.6107654534925, 80.976935784927)" fill="none" stroke="#000000" stroke-width="0.72" stroke-linecap="square" stroke-linejoin="miter" stroke-miterlimit="2" d="M0 0L13.86 0" sodipodi:nodetypes="cc"/><path id="shape3" transform="translate(89.2707655029299, 75.5769357448425)" fill="none" stroke="#000000" stroke-width="0.72" stroke-linecap="square" stroke-linejoin="miter" stroke-miterlimit="2" d="M7.2 5.4L0 0" sodipodi:nodetypes="cc"/><path id="shape4" transform="translate(89.2707655029299, 75.5769357448425)" fill="none" stroke="#000000" stroke-width="0.72" stroke-linecap="square" stroke-linejoin="miter" stroke-miterlimit="2" d="M0 0L11.07 0.27" sodipodi:nodetypes="cc"/><path id="shape5" transform="translate(95.8407655516993, 70.7169357087666)" fill="none" stroke="#000000" stroke-width="0.72" stroke-linecap="square" stroke-linejoin="miter" stroke-miterlimit="2" d="M4.5 5.13L0 0" sodipodi:nodetypes="cc"/><path id="shape6" transform="translate(95.8407655516993, 70.7169357087666)" fill="none" stroke="#000000" stroke-width="0.72" stroke-linecap="square" stroke-linejoin="miter" stroke-miterlimit="2" d="M0 0L7.38 0.18" sodipodi:nodetypes="cc"/><path id="shape7" transform="translate(101.240765591784, 63.966935658661)" fill="none" stroke="#000000" stroke-width="0.72" stroke-linecap="square" stroke-linejoin="miter" stroke-miterlimit="2" d="M4.14 0.27L0 0" sodipodi:nodetypes="cc"/><path id="shape8" transform="translate(103.130765605813, 66.7569356793713)" fill="none" stroke="#000000" stroke-width="0.72" stroke-linecap="square" stroke-linejoin="miter" stroke-miterlimit="2" d="M0 3.33L7.92 0" sodipodi:nodetypes="cc"/><path id="shape9" transform="translate(111.050765664604, 66.7569356793713)" fill="none" stroke="#000000" stroke-width="0.72" stroke-linecap="square" stroke-linejoin="miter" stroke-miterlimit="2" d="M0 0L0 3.42" sodipodi:nodetypes="cc"/><path id="shape10" transform="translate(39.0507651301448, 66.6669356787032)" fill="none" stroke="#000000" stroke-width="0.72" stroke-linecap="square" stroke-linejoin="miter" stroke-miterlimit="2" d="M8.1 3.78L0 0" sodipodi:nodetypes="cc"/><path id="shape11" transform="translate(39.0507651301448, 66.6669356787032)" fill="none" stroke="#000000" stroke-width="0.72" stroke-linecap="square" stroke-linejoin="miter" stroke-miterlimit="2" d="M0 0L0 3.96" sodipodi:nodetypes="cc"/><path id="shape12" transform="translate(54.8007652470577, 81.3369357875993)" fill="none" stroke="#000000" stroke-width="0.72" stroke-linecap="square" stroke-linejoin="miter" stroke-miterlimit="2" d="M12.78 0L0 0.09" sodipodi:nodetypes="cc"/><path id="shape13" transform="translate(54.8007652470577, 75.9369357475148)" fill="none" stroke="#000000" stroke-width="0.72" stroke-linecap="square" stroke-linejoin="miter" stroke-miterlimit="2" d="M0 5.49L6.39 0" sodipodi:nodetypes="cc"/><path id="shape14" transform="translate(51.470765222339, 75.8469357468468)" fill="none" stroke="#000000" stroke-width="0.72" stroke-linecap="square" stroke-linejoin="miter" stroke-miterlimit="2" d="M9.72 0.09L0 0" sodipodi:nodetypes="cc"/><path id="shape15" transform="translate(51.470765222339, 70.4469357067623)" fill="none" stroke="#000000" stroke-width="0.72" stroke-linecap="square" stroke-linejoin="miter" stroke-miterlimit="2" d="M0 5.4L3.15 0" sodipodi:nodetypes="cc"/><path id="shape16" transform="translate(48.1407651976202, 70.4469357067623)" fill="none" stroke="#000000" stroke-width="0.72" stroke-linecap="square" stroke-linejoin="miter" stroke-miterlimit="2" d="M6.48 0L0 0.09" sodipodi:nodetypes="cc"/><path id="shape17" transform="translate(44.8107651729015, 63.966935658661)" fill="none" stroke="#000000" stroke-width="0.72" stroke-linecap="square" stroke-linejoin="miter" stroke-miterlimit="2" d="M0 0.18L5.22 0" sodipodi:nodetypes="cc"/><path id="shape18" transform="translate(33.3807696472986, 42.7269383967307)" fill="none" stroke="#000000" stroke-width="0.72" stroke-linecap="square" stroke-linejoin="miter" stroke-miterlimit="2" d="M5.58 7.65L0 0" sodipodi:nodetypes="cc"/><path id="shape19" transform="translate(26.8107691487662, 42.7269383967307)" fill="none" stroke="#000000" stroke-width="0.72" stroke-linecap="square" stroke-linejoin="miter" stroke-miterlimit="2" d="M6.57 0L0 7.83" sodipodi:nodetypes="cc"/><path id="shape20" transform="translate(17.9907684795033, 46.7769387040453)" fill="none" stroke="#000000" stroke-width="0.72" stroke-linecap="square" stroke-linejoin="miter" stroke-miterlimit="2" d="M8.82 3.78L0 0" sodipodi:nodetypes="cc"/><path id="shape21" transform="translate(17.9907684795033, 46.7769387040453)" fill="none" stroke="#000000" stroke-width="0.72" stroke-linecap="square" stroke-linejoin="miter" stroke-miterlimit="2" d="M0 0L0.09 3.87" sodipodi:nodetypes="cc"/><path id="shape22" transform="translate(26.8107691487662, 44.7969385538026)" fill="none" stroke="#000000" stroke-width="0.72" stroke-linecap="square" stroke-linejoin="miter" stroke-miterlimit="2" d="M0 0L0.18 5.67" sodipodi:nodetypes="cc"/><path id="shape23" transform="translate(111.050768318009, 43.1769362905914)" fill="none" stroke="#000000" stroke-width="0.72" stroke-linecap="square" stroke-linejoin="miter" stroke-miterlimit="2" d="M0 7.65L3.87 0" sodipodi:nodetypes="cc"/><path id="shape24" transform="translate(114.920768417913, 43.1769362905914)" fill="none" stroke="#000000" stroke-width="0.72" stroke-linecap="square" stroke-linejoin="miter" stroke-miterlimit="2" d="M0 0L7.47 7.65" sodipodi:nodetypes="cc"/><path id="shape25" transform="translate(122.390768610751, 48.0369364160522)" fill="none" stroke="#000000" stroke-width="0.72" stroke-linecap="square" stroke-linejoin="miter" stroke-miterlimit="2" d="M0 2.79L9.36 0" sodipodi:nodetypes="cc"/><path id="shape26" transform="translate(131.750768852379, 48.0369364160522)" fill="none" stroke="#000000" stroke-width="0.72" stroke-linecap="square" stroke-linejoin="miter" stroke-miterlimit="2" d="M0 0L0.09 2.97" sodipodi:nodetypes="cc"/><path id="shape27" transform="translate(122.840768622368, 45.4269363486751)" fill="none" stroke="#000000" stroke-width="0.72" stroke-linecap="square" stroke-linejoin="miter" stroke-miterlimit="2" d="M0 5.13L0 0" sodipodi:nodetypes="cc"/><path id="shape28" transform="translate(39.8607653229009, 15.9069353414662)" fill="none" stroke="#000000" stroke-width="0.72" stroke-linecap="square" stroke-linejoin="miter" stroke-miterlimit="2" d="M0 6.93L9.72 0" sodipodi:nodetypes="cc"/><path id="shape29" transform="translate(49.5807654198906, 15.9069353414662)" fill="none" stroke="#000000" stroke-width="0.72" stroke-linecap="square" stroke-linejoin="miter" stroke-miterlimit="2" d="M0 0L8.55 7.29" sodipodi:nodetypes="cc"/><path id="shape30" transform="translate(58.1307655052057, 15.9069353414662)" fill="none" stroke="#000000" stroke-width="0.72" stroke-linecap="square" stroke-linejoin="miter" stroke-miterlimit="2" d="M0 7.29L7.92 0" sodipodi:nodetypes="cc"/><path id="shape31" transform="translate(66.0507655842344, 15.9069353414662)" fill="none" stroke="#000000" stroke-width="0.72" stroke-linecap="square" stroke-linejoin="miter" stroke-miterlimit="2" d="M0 0L8.73 7.38" sodipodi:nodetypes="cc"/><path id="shape32" transform="translate(74.7807645936816, 15.8169353405681)" fill="none" stroke="#000000" stroke-width="0.72" stroke-linecap="square" stroke-linejoin="miter" stroke-miterlimit="2" d="M0 7.47L7.83 0" sodipodi:nodetypes="cc"/><path id="shape33" transform="translate(82.6107657494762, 15.8169353405681)" fill="none" stroke="#000000" stroke-width="0.72" stroke-linecap="square" stroke-linejoin="miter" stroke-miterlimit="2" d="M0 0L8.19 7.65" sodipodi:nodetypes="cc"/><path id="shape34" transform="translate(90.8007658311991, 16.0869353432623)" fill="none" stroke="#000000" stroke-width="0.72" stroke-linecap="square" stroke-linejoin="miter" stroke-miterlimit="2" d="M0 7.38L8.1 0" sodipodi:nodetypes="cc"/><path id="shape35" transform="translate(98.9007659120239, 16.0869353432623)" fill="none" stroke="#000000" stroke-width="0.72" stroke-linecap="square" stroke-linejoin="miter" stroke-miterlimit="2" d="M0 0L9.54 6.93" sodipodi:nodetypes="cc"/><path id="shape36" transform="translate(49.3107654171965, 16.0869353432623)" fill="none" stroke="#000000" stroke-width="0.72" stroke-linecap="square" stroke-linejoin="miter" stroke-miterlimit="2" d="M0 0L0.09 7.11" sodipodi:nodetypes="cc"/><path id="shape37" transform="translate(57.7707655016135, 15.636935338772)" fill="none" stroke="#000000" stroke-width="0.72" stroke-linecap="square" stroke-linejoin="miter" stroke-miterlimit="2" d="M0 7.47L0 0" sodipodi:nodetypes="cc"/><path id="shape38" transform="translate(65.8707655824383, 16.0869353432623)" fill="none" stroke="#000000" stroke-width="0.72" stroke-linecap="square" stroke-linejoin="miter" stroke-miterlimit="2" d="M0 6.93L0 0" sodipodi:nodetypes="cc"/><path id="shape39" transform="translate(74.7807645936816, 15.9969353423642)" fill="none" stroke="#000000" stroke-width="0.72" stroke-linecap="square" stroke-linejoin="miter" stroke-miterlimit="2" d="M0 0L0 6.84" sodipodi:nodetypes="cc"/><path id="shape40" transform="translate(82.7907657512723, 16.1769353441603)" fill="none" stroke="#000000" stroke-width="0.72" stroke-linecap="square" stroke-linejoin="miter" stroke-miterlimit="2" d="M0 6.66L0.09 0" sodipodi:nodetypes="cc"/><path id="shape41" transform="translate(90.4407658276069, 15.8169353405681)" fill="none" stroke="#000000" stroke-width="0.72" stroke-linecap="square" stroke-linejoin="miter" stroke-miterlimit="2" d="M0.09 0L0 7.11" sodipodi:nodetypes="cc"/><path id="shape42" transform="translate(99.08076591382, 15.9069353414662)" fill="none" stroke="#000000" stroke-width="0.72" stroke-linecap="square" stroke-linejoin="miter" stroke-miterlimit="2" d="M0.09 7.02L0 0" sodipodi:nodetypes="cc"/><path id="shape43" transform="translate(109.97076375484, 10.9569351253137)" fill="none" stroke="#000000" stroke-width="0.72" stroke-linecap="square" stroke-linejoin="miter" stroke-miterlimit="2" d="M5.4 0L0 0.09" sodipodi:nodetypes="cc"/><path id="shape44" transform="translate(109.97076375484, 11.0469351247865)" fill="none" stroke="#000000" stroke-width="0.72" stroke-linecap="square" stroke-linejoin="miter" stroke-miterlimit="2" d="M0 0L5.31001 4.86" sodipodi:nodetypes="cc"/><path id="shape45" transform="translate(108.530763763276, 15.6369357739794)" fill="none" stroke="#000000" stroke-width="0.72" stroke-linecap="square" stroke-linejoin="miter" stroke-miterlimit="2" d="M6.57001 0L0 7.38" sodipodi:nodetypes="cc"/><path id="shape46" transform="translate(108.530763763276, 23.0169350546633)" fill="none" stroke="#000000" stroke-width="0.72" stroke-linecap="square" stroke-linejoin="miter" stroke-miterlimit="2" d="M0 0L6.57 5.13" sodipodi:nodetypes="cc"/><path id="shape47" transform="translate(109.340763758531, 28.1469350246106)" fill="none" stroke="#000000" stroke-width="0.72" stroke-linecap="square" stroke-linejoin="miter" stroke-miterlimit="2" d="M5.76 0L0 5.31" sodipodi:nodetypes="cc"/><path id="shape48" transform="translate(109.340763758531, 33.4569349935033)" fill="none" stroke="#000000" stroke-width="0.72" stroke-linecap="square" stroke-linejoin="miter" stroke-miterlimit="2" d="M0 0L6.03 4.95" sodipodi:nodetypes="cc"/><path id="shape49" transform="translate(110.060763754313, 38.406934964505)" fill="none" stroke="#000000" stroke-width="0.72" stroke-linecap="square" stroke-linejoin="miter" stroke-miterlimit="2" d="M5.31 0L0 5.22" sodipodi:nodetypes="cc"/><path id="shape50" transform="translate(32.6607642077407, 11.0469351247865)" fill="none" stroke="#000000" stroke-width="0.72" stroke-linecap="square" stroke-linejoin="miter" stroke-miterlimit="2" d="M0 0L4.86 0.09" sodipodi:nodetypes="cc"/><path id="shape51" transform="translate(32.9307671465168, 11.1369351242592)" fill="none" stroke="#000000" stroke-width="0.72" stroke-linecap="square" stroke-linejoin="miter" stroke-miterlimit="2" d="M4.59 0L0 4.95" sodipodi:nodetypes="cc"/><path id="shape52" transform="translate(32.9307671465168, 15.9969357878724)" fill="none" stroke="#000000" stroke-width="0.72" stroke-linecap="square" stroke-linejoin="miter" stroke-miterlimit="2" d="M0 0L7.2 7.02" sodipodi:nodetypes="cc"/><path id="shape53" transform="translate(33.7407642014139, 23.0169350546633)" fill="none" stroke="#000000" stroke-width="0.72" stroke-linecap="square" stroke-linejoin="miter" stroke-miterlimit="2" d="M6.39 0L0 4.86" sodipodi:nodetypes="cc"/><path id="shape54" transform="translate(33.7407642014139, 27.8769350261923)" fill="none" stroke="#000000" stroke-width="0.72" stroke-linecap="square" stroke-linejoin="miter" stroke-miterlimit="2" d="M0 0L5.85 5.4" sodipodi:nodetypes="cc"/><path id="shape55" transform="translate(33.7407642014139, 33.2769349945578)" fill="none" stroke="#000000" stroke-width="0.72" stroke-linecap="square" stroke-linejoin="miter" stroke-miterlimit="2" d="M5.85 0L0 5.13" sodipodi:nodetypes="cc"/><path id="shape56" transform="translate(33.7407642014139, 38.406934964505)" fill="none" stroke="#000000" stroke-width="0.72" stroke-linecap="square" stroke-linejoin="miter" stroke-miterlimit="2" d="M0 0L5.85 4.86" sodipodi:nodetypes="cc"/><path id="shape57" transform="translate(56.9607688107, 182.766943713627)" fill="none" stroke="#000000" stroke-width="0.72" stroke-linecap="square" stroke-linejoin="miter" stroke-miterlimit="2" d="M40.68 31.14L0 0" sodipodi:nodetypes="cc"/><path id="shape58" transform="translate(56.9607688107, 158.646942585722)" fill="none" stroke="#000000" stroke-width="0.72" stroke-linecap="square" stroke-linejoin="miter" stroke-miterlimit="2" d="M0 24.12L36 0" sodipodi:nodetypes="cc"/><path id="shape59" transform="translate(60.2007689622097, 135.426941499903)" fill="none" stroke="#000000" stroke-width="0.72" stroke-linecap="square" stroke-linejoin="miter" stroke-miterlimit="2" d="M32.76 23.22L0 0" sodipodi:nodetypes="cc"/><path id="shape60" transform="translate(60.2007689622097, 115.806940582428)" fill="none" stroke="#000000" stroke-width="0.72" stroke-linecap="square" stroke-linejoin="miter" stroke-miterlimit="2" d="M0 19.62L29.88 0" sodipodi:nodetypes="cc"/><path id="shape61" transform="translate(63.0807690968849, 96.3669396733699)" fill="none" stroke="#000000" stroke-width="0.72" stroke-linecap="square" stroke-linejoin="miter" stroke-miterlimit="2" d="M27 19.44L0 0" sodipodi:nodetypes="cc"/><path id="shape62" transform="translate(55.7753271793922, 197.55782755703)" fill="none" stroke="#000000" stroke-width="0.72" stroke-linecap="square" stroke-linejoin="miter" stroke-miterlimit="2" d="M0 0.18L41.04 0" sodipodi:nodetypes="cc"/><path id="shape63" transform="translate(57.7854054743313, 170.344691236885)" fill="none" stroke="#000000" stroke-width="0.72" stroke-linecap="square" stroke-linejoin="miter" stroke-miterlimit="2" d="M0 0.127279L36.1473 0" sodipodi:nodetypes="cc"/><path id="shape64" transform="translate(59.4400353085249, 146.416198250085)" fill="none" stroke="#000000" stroke-width="0.72" stroke-linecap="square" stroke-linejoin="miter" stroke-miterlimit="2" d="M0 0.127279L32.7108 0" sodipodi:nodetypes="cc"/><path id="shape65" transform="translate(60.9673844331069, 125.16056686624)" fill="none" stroke="#000000" stroke-width="0.72" stroke-linecap="square" stroke-linejoin="miter" stroke-miterlimit="2" d="M0 0.127279L29.7833 0" sodipodi:nodetypes="cc"/><path id="shape66" transform="translate(62.3607645222271, 105.996935108078)" fill="none" stroke="#000000" stroke-width="0.72" stroke-linecap="square" stroke-linejoin="miter" stroke-miterlimit="2" d="M0 0.09L26.91 0" sodipodi:nodetypes="cc"/><path id="shape67" transform="translate(83.1139725934279, 81.2492405259933)" fill="none" stroke="#000000" stroke-width="0.72" stroke-linecap="square" stroke-linejoin="miter" stroke-miterlimit="2" d="M0 0L9.92778 6.7458" sodipodi:nodetypes="cc"/><path id="shape68" transform="translate(81.5866219413525, 87.9950392393265)" fill="none" stroke="#000000" stroke-width="0.72" stroke-linecap="square" stroke-linejoin="miter" stroke-miterlimit="2" d="M11.4551 0L0 3.94566" sodipodi:nodetypes="cc"/><path id="shape69" transform="translate(81.5866219413525, 91.9406950905214)" fill="none" stroke="#000000" stroke-width="0.72" stroke-linecap="square" stroke-linejoin="miter" stroke-miterlimit="2" d="M0 0L9.1641 0.127279" sodipodi:nodetypes="cc"/><path id="shape70" transform="translate(58.5490829392145, 81.2492405259933)" fill="none" stroke="#000000" stroke-width="0.72" stroke-linecap="square" stroke-linejoin="miter" stroke-miterlimit="2" d="M9.29138 0L0 6.61852" sodipodi:nodetypes="cc"/><path id="shape71" transform="translate(58.5490829392145, 87.8677600183202)" fill="none" stroke="#000000" stroke-width="0.72" stroke-linecap="square" stroke-linejoin="miter" stroke-miterlimit="2" d="M0 0L10.8187 3.81838" sodipodi:nodetypes="cc"/><path id="shape72" transform="translate(60.2037128122963, 91.5588574275025)" fill="none" stroke="#000000" stroke-width="0.72" stroke-linecap="square" stroke-linejoin="miter" stroke-miterlimit="2" d="M9.1641 0.127279L0 0" sodipodi:nodetypes="cc"/><path id="shape73" transform="translate(107.90077003973, 15.6369357739794)" fill="none" stroke="#000000" stroke-width="0.72" stroke-linecap="square" stroke-linejoin="miter" stroke-miterlimit="2" d="M0 0L7.56 0.09" sodipodi:nodetypes="cc"/><path id="shape74" transform="translate(32.7507671395703, 15.9069357843992)" fill="none" stroke="#000000" stroke-width="0.72" stroke-linecap="square" stroke-linejoin="miter" stroke-miterlimit="2" d="M7.29 0L0 0.09" sodipodi:nodetypes="cc"/><path id="shape75" transform="translate(81.3320661915921, 101.868476713151)" fill="none" stroke="#000000" stroke-width="0.72" stroke-linecap="square" stroke-linejoin="miter" stroke-miterlimit="2" d="M7.38219 0L0 0" sodipodi:nodetypes="cc"/><path id="shape76" transform="translate(81.3320661915921, 101.868476713151)" fill="none" stroke="#000000" stroke-width="0.72" stroke-linecap="square" stroke-linejoin="miter" stroke-miterlimit="2" d="M0 0L7.76403 4.07294" sodipodi:nodetypes="cc"/><path id="shape77" transform="translate(81.8411830875829, 105.941411881076)" fill="none" stroke="#000000" stroke-width="0.72" stroke-linecap="square" stroke-linejoin="miter" stroke-miterlimit="2" d="M7.25492 0L0 4.07294" sodipodi:nodetypes="cc"/><path id="shape78" transform="translate(81.8411830875828, 110.014347049002)" fill="none" stroke="#000000" stroke-width="0.72" stroke-linecap="square" stroke-linejoin="miter" stroke-miterlimit="2" d="M0 0L7.38219 0" sodipodi:nodetypes="cc"/><path id="shape79" transform="translate(82.3502999835736, 121.0876395368)" fill="none" stroke="#000000" stroke-width="0.72" stroke-linecap="square" stroke-linejoin="miter" stroke-miterlimit="2" d="M7.89131 0.127279L0 0" sodipodi:nodetypes="cc"/><path id="shape80" transform="translate(82.3502999835736, 121.0876395368)" fill="none" stroke="#000000" stroke-width="0.72" stroke-linecap="square" stroke-linejoin="miter" stroke-miterlimit="2" d="M0 0L8.14587 3.94566" sodipodi:nodetypes="cc"/><path id="shape81" transform="translate(82.986696103562, 125.033295480728)" fill="none" stroke="#000000" stroke-width="0.72" stroke-linecap="square" stroke-linejoin="miter" stroke-miterlimit="2" d="M7.50947 0L0 4.32749" sodipodi:nodetypes="cc"/><path id="shape82" transform="translate(82.986696103562, 129.360789096649)" fill="none" stroke="#000000" stroke-width="0.72" stroke-linecap="square" stroke-linejoin="miter" stroke-miterlimit="2" d="M0 0L7.89131 0.127279" sodipodi:nodetypes="cc"/><path id="shape83" transform="translate(82.9707678313927, 140.916939101848)" fill="none" stroke="#000000" stroke-width="0.72" stroke-linecap="square" stroke-linejoin="miter" stroke-miterlimit="2" d="M8.55 0L0 0" sodipodi:nodetypes="cc"/><path id="shape84" transform="translate(82.9707678313927, 140.916939101848)" fill="none" stroke="#000000" stroke-width="0.72" stroke-linecap="square" stroke-linejoin="miter" stroke-miterlimit="2" d="M0 0L9.09 5.4" sodipodi:nodetypes="cc"/><path id="shape85" transform="translate(83.5107678464401, 146.316939252322)" fill="none" stroke="#000000" stroke-width="0.72" stroke-linecap="square" stroke-linejoin="miter" stroke-miterlimit="2" d="M8.55 0L0 5.76" sodipodi:nodetypes="cc"/><path id="shape86" transform="translate(83.5107678464401, 151.986939410321)" fill="none" stroke="#000000" stroke-width="0.72" stroke-linecap="square" stroke-linejoin="miter" stroke-miterlimit="2" d="M0 0.09L9.18 0" sodipodi:nodetypes="cc"/><path id="shape87" transform="translate(84.2850020056798, 164.565003916055)" fill="none" stroke="#000000" stroke-width="0.72" stroke-linecap="square" stroke-linejoin="miter" stroke-miterlimit="2" d="M9.01131 0.17941L0 0" sodipodi:nodetypes="cc"/><path id="shape88" transform="translate(83.9250019971131, 164.700003919268)" fill="none" stroke="#000000" stroke-width="0.72" stroke-linecap="square" stroke-linejoin="miter" stroke-miterlimit="2" d="M0 0L9.88043 5.26286" sodipodi:nodetypes="cc"/><path id="shape89" transform="translate(85.1504432139951, 169.962861985127)" fill="none" stroke="#000000" stroke-width="0.72" stroke-linecap="square" stroke-linejoin="miter" stroke-miterlimit="2" d="M8.65499 0L0 6.36396" sodipodi:nodetypes="cc"/><path id="shape90" transform="translate(85.1504432139951, 176.326823201273)" fill="none" stroke="#000000" stroke-width="0.72" stroke-linecap="square" stroke-linejoin="miter" stroke-miterlimit="2" d="M0 0L9.41866 0" sodipodi:nodetypes="cc"/><path id="shape91" transform="translate(84.050764147169, 191.226934460519)" fill="none" stroke="#000000" stroke-width="0.72" stroke-linecap="square" stroke-linejoin="miter" stroke-miterlimit="2" d="M11.7 0L0 0.09" sodipodi:nodetypes="cc"/><path id="shape92" transform="translate(84.050764147169, 191.316934460176)" fill="none" stroke="#000000" stroke-width="0.72" stroke-linecap="square" stroke-linejoin="miter" stroke-miterlimit="2" d="M0 0L12.06 5.94" sodipodi:nodetypes="cc"/><path id="shape93" transform="translate(86.300764138602, 197.256934437559)" fill="none" stroke="#000000" stroke-width="0.72" stroke-linecap="square" stroke-linejoin="miter" stroke-miterlimit="2" d="M9.81 0L0 7.65" sodipodi:nodetypes="cc"/><path id="shape94" transform="translate(86.300764138602, 204.816934408774)" fill="none" stroke="#000000" stroke-width="0.72" stroke-linecap="square" stroke-linejoin="miter" stroke-miterlimit="2" d="M0 0.09L10.26 0" sodipodi:nodetypes="cc"/><path id="shape95" transform="translate(54.8907642581974, 205.716934405347)" fill="none" stroke="#000000" stroke-width="0.72" stroke-linecap="square" stroke-linejoin="miter" stroke-miterlimit="2" d="M0 0L11.43 0" sodipodi:nodetypes="cc"/><path id="shape96" transform="translate(56.0607642537426, 197.706934435846)" fill="none" stroke="#000000" stroke-width="0.72" stroke-linecap="square" stroke-linejoin="miter" stroke-miterlimit="2" d="M10.26 8.01L0 0" sodipodi:nodetypes="cc"/><path id="shape97" transform="translate(56.0607642537426, 191.046934461204)" fill="none" stroke="#000000" stroke-width="0.72" stroke-linecap="square" stroke-linejoin="miter" stroke-miterlimit="2" d="M0 6.66L11.34 0" sodipodi:nodetypes="cc"/><path id="shape98" transform="translate(56.2407642530572, 190.956934461547)" fill="none" stroke="#000000" stroke-width="0.72" stroke-linecap="square" stroke-linejoin="miter" stroke-miterlimit="2" d="M11.16 0.09L0 0" sodipodi:nodetypes="cc"/><path id="shape99" transform="translate(57.4107673507352, 176.196940534097)" fill="none" stroke="#000000" stroke-width="0.72" stroke-linecap="square" stroke-linejoin="miter" stroke-miterlimit="2" d="M0 0L9.09 0" sodipodi:nodetypes="cc"/><path id="shape100" transform="translate(57.9507673671626, 170.346940356134)" fill="none" stroke="#000000" stroke-width="0.72" stroke-linecap="square" stroke-linejoin="miter" stroke-miterlimit="2" d="M8.55 5.85L0 0" sodipodi:nodetypes="cc"/><path id="shape101" transform="translate(57.9507673671626, 164.856940189123)" fill="none" stroke="#000000" stroke-width="0.72" stroke-linecap="square" stroke-linejoin="miter" stroke-miterlimit="2" d="M0 5.49L8.82 0" sodipodi:nodetypes="cc"/><path id="shape102" transform="translate(58.1307673726383, 164.856940189123)" fill="none" stroke="#000000" stroke-width="0.72" stroke-linecap="square" stroke-linejoin="miter" stroke-miterlimit="2" d="M8.64 0L0 0" sodipodi:nodetypes="cc"/><path id="shape103" transform="translate(59.2107659417157, 151.626937392159)" fill="none" stroke="#000000" stroke-width="0.72" stroke-linecap="square" stroke-linejoin="miter" stroke-miterlimit="2" d="M0 0.09L9 0" sodipodi:nodetypes="cc"/><path id="shape104" transform="translate(59.7507659495913, 146.496937317341)" fill="none" stroke="#000000" stroke-width="0.72" stroke-linecap="square" stroke-linejoin="miter" stroke-miterlimit="2" d="M8.46 5.13L0 0" sodipodi:nodetypes="cc"/><path id="shape105" transform="translate(59.7507659495913, 140.826937234648)" fill="none" stroke="#000000" stroke-width="0.72" stroke-linecap="square" stroke-linejoin="miter" stroke-miterlimit="2" d="M0 5.67L8.01 0" sodipodi:nodetypes="cc"/><path id="shape106" transform="translate(60.1107659548417, 140.826937234648)" fill="none" stroke="#000000" stroke-width="0.72" stroke-linecap="square" stroke-linejoin="miter" stroke-miterlimit="2" d="M7.65 0L0 0" sodipodi:nodetypes="cc"/><path id="shape107" transform="translate(60.6507644761347, 129.936935024825)" fill="none" stroke="#000000" stroke-width="0.72" stroke-linecap="square" stroke-linejoin="miter" stroke-miterlimit="2" d="M0 0L8.1 0" sodipodi:nodetypes="cc"/><path id="shape108" transform="translate(61.1907644754584, 125.166935030798)" fill="none" stroke="#000000" stroke-width="0.72" stroke-linecap="square" stroke-linejoin="miter" stroke-miterlimit="2" d="M7.56 4.77L0 0" sodipodi:nodetypes="cc"/><path id="shape109" transform="translate(61.1907644754584, 120.486935036658)" fill="none" stroke="#000000" stroke-width="0.72" stroke-linecap="square" stroke-linejoin="miter" stroke-miterlimit="2" d="M0 4.68L7.47 0" sodipodi:nodetypes="cc"/><path id="shape110" transform="translate(61.2807644753457, 120.486935036658)" fill="none" stroke="#000000" stroke-width="0.72" stroke-linecap="square" stroke-linejoin="miter" stroke-miterlimit="2" d="M7.38 0L0 0.09" sodipodi:nodetypes="cc"/><path id="shape111" transform="translate(62.1807710050255, 110.046942553998)" fill="none" stroke="#000000" stroke-width="0.72" stroke-linecap="square" stroke-linejoin="miter" stroke-miterlimit="2" d="M0 0L7.74 0" sodipodi:nodetypes="cc"/><path id="shape112" transform="translate(62.3607710171224, 105.90694227577)" fill="none" stroke="#000000" stroke-width="0.72" stroke-linecap="square" stroke-linejoin="miter" stroke-miterlimit="2" d="M7.56 4.14L0 0" sodipodi:nodetypes="cc"/><path id="shape113" transform="translate(62.3607710171224, 101.586941985445)" fill="none" stroke="#000000" stroke-width="0.72" stroke-linecap="square" stroke-linejoin="miter" stroke-miterlimit="2" d="M0 4.32L7.83 0" sodipodi:nodetypes="cc"/><path id="shape114" transform="translate(62.7207710413161, 101.496941979396)" fill="none" stroke="#000000" stroke-width="0.72" stroke-linecap="square" stroke-linejoin="miter" stroke-miterlimit="2" d="M7.47 0.09L0 0" sodipodi:nodetypes="cc"/><path id="shape128" transform="matrix(0.999999968667685 0 0 0.999999968667685 6.06892817260943 51.7092042355012)" fill="none" stroke="#737373" stroke-width="2.16" stroke-linecap="square" stroke-linejoin="miter" stroke-miterlimit="2" d="M0 0L0 16.3554" sodipodi:nodetypes="cc"/><circle id="shape07" transform="matrix(1.43628187358183 0 0 1.52289632893389 2.87076800313761 68.7089597485767)" r="0.719999999999999" cx="0.719999999999999" cy="0.719999999999999" fill="#d00000" fill-rule="evenodd" stroke-opacity="0" stroke="#000000" stroke-width="0" stroke-linecap="square" stroke-linejoin="bevel"/><circle id="shape08" transform="matrix(1.4834203609791 0 0 1.53711061772617 7.16964245991511 68.6884911727158)" r="0.719999999999999" cx="0.719999999999999" cy="0.719999999999999" fill="#d00000" fill-rule="evenodd" stroke-opacity="0" stroke="#000000" stroke-width="0" stroke-linecap="square" stroke-linejoin="bevel"/><path id="shape1281" transform="matrix(0.999999968667685 0 0 0.999999968667685 142.163447212372 52.3667962569721)" fill="none" stroke="#737373" stroke-width="2.16" stroke-linecap="square" stroke-linejoin="miter" stroke-miterlimit="2" d="M0 0L0 16.3554" sodipodi:nodetypes="cc"/><circle id="shape071" transform="matrix(1.43628187358183 0 0 1.52289632893389 138.9652870429 69.3665517700476)" r="0.719999999999999" cx="0.719999999999999" cy="0.719999999999999" fill="#d00000" fill-rule="evenodd" stroke-opacity="0" stroke="#000000" stroke-width="0" stroke-linecap="square" stroke-linejoin="bevel"/><circle id="shape081" transform="matrix(1.4834203609791 0 0 1.53711061772617 143.264161499677 69.3460831941867)" r="0.719999999999999" cx="0.719999999999999" cy="0.719999999999999" fill="#d00000" fill-rule="evenodd" stroke-opacity="0" stroke="#000000" stroke-width="0" stroke-linecap="square" stroke-linejoin="bevel"/><path id="shape1282" transform="matrix(0.999999968667685 0 0 0.999999968667685 32.1209698257627 72.0756592913954)" fill="none" stroke="#737373" stroke-width="2.16" stroke-linecap="square" stroke-linejoin="miter" stroke-miterlimit="2" d="M0 0L0 16.3554" sodipodi:nodetypes="cc"/><circle id="shape072" transform="matrix(1.43628187358183 0 0 1.52289632893389 28.9228096562909 89.0754148044709)" r="0.719999999999999" cx="0.719999999999999" cy="0.719999999999999" fill="#d00000" fill-rule="evenodd" stroke-opacity="0" stroke="#000000" stroke-width="0" stroke-linecap="square" stroke-linejoin="bevel"/><circle id="shape082" transform="matrix(1.4834203609791 0 0 1.53711061772617 33.2216841130684 89.05494622861)" r="0.719999999999999" cx="0.719999999999999" cy="0.719999999999999" fill="#d00000" fill-rule="evenodd" stroke-opacity="0" stroke="#000000" stroke-width="0" stroke-linecap="square" stroke-linejoin="bevel"/><path id="shape1283" transform="matrix(0.999999968667685 0 0 0.999999968667685 118.553160338144 71.8405171718851)" fill="none" stroke="#737373" stroke-width="2.16" stroke-linecap="square" stroke-linejoin="miter" stroke-miterlimit="2" d="M0 0L0 16.3554" sodipodi:nodetypes="cc"/><circle id="shape073" transform="matrix(1.43628187358183 0 0 1.52289632893389 115.355000168673 88.8402726849607)" r="0.719999999999999" cx="0.719999999999999" cy="0.719999999999999" fill="#d00000" fill-rule="evenodd" stroke-opacity="0" stroke="#000000" stroke-width="0" stroke-linecap="square" stroke-linejoin="bevel"/><circle id="shape083" transform="matrix(1.4834203609791 0 0 1.53711061772617 119.65387462545 88.8198041090997)" r="0.719999999999999" cx="0.719999999999999" cy="0.719999999999999" fill="#d00000" fill-rule="evenodd" stroke-opacity="0" stroke="#000000" stroke-width="0" stroke-linecap="square" stroke-linejoin="bevel"/><path id="shape05" transform="matrix(0.999999938658571 0 0 0.999999938658571 49.2576979948463 24.1008697743723)" fill="none" stroke="#737373" stroke-width="2.16" stroke-linecap="square" stroke-linejoin="miter" stroke-miterlimit="2" d="M0 0L8.80562 15.645" sodipodi:nodetypes="cc"/><path id="shape11" transform="matrix(0.999999938658571 0 0 0.999999938658571 58.0633488549388 24.3554282107957)" fill="none" stroke="#737373" stroke-width="2.16" stroke-linecap="square" stroke-linejoin="miter" stroke-miterlimit="2" d="M0 15.3904L7.80429 0" sodipodi:nodetypes="cc"/><circle id="shape013" transform="matrix(1.34504991815806 0 0 1.42886198984226 55.1652890183737 41.0388931875074)" r="0.719999999999999" cx="0.719999999999999" cy="0.719999999999999" fill="#d00000" fill-rule="evenodd" stroke-opacity="0" stroke="#000000" stroke-width="0" stroke-linecap="square" stroke-linejoin="bevel"/><circle id="shape014" transform="matrix(1.54340237927248 0 0 1.47432627739821 59.3327894072714 41.0184246121243)" r="0.719999999999999" cx="0.719999999999999" cy="0.719999999999999" fill="#d00000" fill-rule="evenodd" stroke-opacity="0" stroke="#000000" stroke-width="0" stroke-linecap="square" stroke-linejoin="bevel"/><path id="shape051" transform="matrix(0.999999939489529 0 0 0.999999939489529 82.5590945706008 24.0957695477158)" fill="none" stroke="#737373" stroke-width="2.16" stroke-linecap="square" stroke-linejoin="miter" stroke-miterlimit="2" d="M0 0L8.80562 15.645" sodipodi:nodetypes="cc"/><path id="shape12" transform="matrix(0.999999939489529 0 0 0.999999939489529 91.3647454380105 24.3503279843506)" fill="none" stroke="#737373" stroke-width="2.16" stroke-linecap="square" stroke-linejoin="miter" stroke-miterlimit="2" d="M0 15.3904L7.80429 0" sodipodi:nodetypes="cc"/><circle id="shape0131" transform="matrix(1.34504991927574 0 0 1.42886199102958 88.4666855990372 41.0337929749256)" r="0.719999999999999" cx="0.719999999999999" cy="0.719999999999999" fill="#d00000" fill-rule="evenodd" stroke-opacity="0" stroke="#000000" stroke-width="0" stroke-linecap="square" stroke-linejoin="bevel"/><circle id="shape0141" transform="matrix(1.54340238055498 0 0 1.47432627862331 92.6341859913979 41.0133243995256)" r="0.719999999999999" cx="0.719999999999999" cy="0.719999999999999" fill="#d00000" fill-rule="evenodd" stroke-opacity="0" stroke="#000000" stroke-width="0" stroke-linecap="square" stroke-linejoin="bevel"/><path id="shape115" transform="translate(104.570774136404, 58.9269392384506)" fill="none" stroke="#000000" stroke-width="0.72" stroke-linecap="square" stroke-linejoin="miter" stroke-miterlimit="2" d="M0.9 5.4L0 0" sodipodi:nodetypes="cc"/><path id="shape116" transform="translate(44.8107699976921, 57.6669391511886)" fill="none" stroke="#000000" stroke-width="0.72" stroke-linecap="square" stroke-linejoin="miter" stroke-miterlimit="2" d="M0 6.48L0.63 0" sodipodi:nodetypes="cc"/><path id="shape126" transform="matrix(0.999999923607581 0 0 0.999999923607581 -9.3692287924153 215.436934823398)" fill="none" stroke="#3b2300" stroke-width="2.16" stroke-linecap="square" stroke-linejoin="miter" stroke-miterlimit="2" d="M0 0L171.318 0.13613" sodipodi:nodetypes="cc"/><path id="shape127" transform="matrix(0.999999923607581 0 0 0.999999923607581 -9.36922879241531 213.90693486155)" fill="none" stroke="#297f00" stroke-width="1.44" stroke-linecap="square" stroke-linejoin="miter" stroke-miterlimit="2" d="M0 0L172.08 0.0751454" sodipodi:nodetypes="cc"/>
</svg>
