<?xml version="1.0" standalone="no"?>
<!DOCTYPE svg PUBLIC "-//W3C//DTD SVG 20010904//EN" "http://www.w3.org/TR/2001/REC-SVG-20010904/DTD/svg10.dtd">
<!-- Created using Krita: https://krita.org -->
<svg xmlns="http://www.w3.org/2000/svg" 
    xmlns:xlink="http://www.w3.org/1999/xlink"
    xmlns:krita="http://krita.org/namespaces/svg/krita"
    xmlns:sodipodi="http://sodipodi.sourceforge.net/DTD/sodipodi-0.dtd"
    width="132.48pt"
    height="214.56pt"
    viewBox="0 0 132.48 214.56">
<defs/>
<path id="shape0" transform="translate(44.2931690457237, 84.2588445639917)" fill="none" stroke="#000000" stroke-width="1.44" stroke-linecap="square" stroke-linejoin="miter" stroke-miterlimit="2" d="M0 126.77L9.54594 0" sodipodi:nodetypes="cc"/><path id="shape1" transform="translate(39.965675518268, 41.6203053964128)" fill="none" stroke="#000000" stroke-width="1.44" stroke-linecap="square" stroke-linejoin="miter" stroke-miterlimit="2" d="M13.8734 42.6385L0 0" sodipodi:nodetypes="cc"/><path id="shape2" transform="translate(35.7654612122079, 27.3650326000879)" fill="none" stroke="#000000" stroke-width="1.44" stroke-linecap="square" stroke-linejoin="miter" stroke-miterlimit="2" d="M4.20021 14.2553L0 0" sodipodi:nodetypes="cc"/><path id="shape3" transform="translate(14.1279935749291, 27.2377533786922)" fill="none" stroke="#000000" stroke-width="1.44" stroke-linecap="square" stroke-linejoin="miter" stroke-miterlimit="2" d="M21.6375 0.127279L0 0" sodipodi:nodetypes="cc"/><path id="shape4" transform="translate(14.1279935749291, 20.1101169805297)" fill="none" stroke="#000000" stroke-width="1.44" stroke-linecap="square" stroke-linejoin="miter" stroke-miterlimit="2" d="M0 7.12764L21.2556 0" sodipodi:nodetypes="cc"/><path id="shape5" transform="translate(35.3836235480207, 3.18198053489394)" fill="none" stroke="#000000" stroke-width="1.44" stroke-linecap="square" stroke-linejoin="miter" stroke-miterlimit="2" d="M0 16.9281L0 0" sodipodi:nodetypes="cc"/><path id="shape6" transform="translate(35.3836235480207, 3.18198053489394)" fill="none" stroke="#000000" stroke-width="1.44" stroke-linecap="square" stroke-linejoin="miter" stroke-miterlimit="2" d="M0 0L8.40043 16.5463" sodipodi:nodetypes="cc"/><path id="shape7" transform="translate(43.7840521601407, 19.7282793163425)" fill="none" stroke="#000000" stroke-width="1.44" stroke-linecap="square" stroke-linejoin="miter" stroke-miterlimit="2" d="M0 0L44.1659 0.127279" sodipodi:nodetypes="cc"/><path id="shape8" transform="translate(87.9499419844686, 3.05470131349819)" fill="none" stroke="#000000" stroke-width="1.44" stroke-linecap="square" stroke-linejoin="miter" stroke-miterlimit="2" d="M0 16.8009L7.76403 0" sodipodi:nodetypes="cc"/><path id="shape9" transform="translate(95.7139744896099, 3.05470131349819)" fill="none" stroke="#000000" stroke-width="1.44" stroke-linecap="square" stroke-linejoin="miter" stroke-miterlimit="2" d="M0 0L0 17.0554" sodipodi:nodetypes="cc"/><path id="shape10" transform="translate(95.7139744896099, 20.1101169805297)" fill="none" stroke="#000000" stroke-width="1.44" stroke-linecap="square" stroke-linejoin="miter" stroke-miterlimit="2" d="M0 0L21.7647 6.7458" sodipodi:nodetypes="cc"/><path id="shape11" transform="translate(95.7139744896099, 26.8559157145049)" fill="none" stroke="#000000" stroke-width="1.44" stroke-linecap="square" stroke-linejoin="miter" stroke-miterlimit="2" d="M21.7647 0L0 0" sodipodi:nodetypes="cc"/><path id="shape12" transform="translate(90.4955264123838, 26.8559157145049)" fill="none" stroke="#000000" stroke-width="1.44" stroke-linecap="square" stroke-linejoin="miter" stroke-miterlimit="2" d="M5.21845 0L0 16.8009" sodipodi:nodetypes="cc"/><path id="shape13" transform="translate(77.258487387225, 43.6567729387449)" fill="none" stroke="#000000" stroke-width="1.44" stroke-linecap="square" stroke-linejoin="miter" stroke-miterlimit="2" d="M13.237 0L0 40.6021" sodipodi:nodetypes="cc"/><path id="shape14" transform="translate(77.258487387225, 84.2588445639917)" fill="none" stroke="#000000" stroke-width="1.44" stroke-linecap="square" stroke-linejoin="miter" stroke-miterlimit="2" d="M0 0L9.29138 126.897" sodipodi:nodetypes="cc"/><path id="shape15" transform="translate(43.4022131212655, 26.983194081256)" fill="none" stroke="#000000" stroke-width="1.44" stroke-linecap="square" stroke-linejoin="miter" stroke-miterlimit="2" d="M0 0.127279L44.0386 0" sodipodi:nodetypes="cc"/><path id="shape16" transform="translate(87.4408223293531, 26.983194081256)" fill="none" stroke="#000000" stroke-width="1.44" stroke-linecap="square" stroke-linejoin="miter" stroke-miterlimit="2" d="M0 0L2.67286 16.1645" sodipodi:nodetypes="cc"/><path id="shape17" transform="translate(65.2942385079449, 43.1476546865367)" fill="none" stroke="#000000" stroke-width="1.44" stroke-linecap="square" stroke-linejoin="miter" stroke-miterlimit="2" d="M24.8194 0L0 27.365" sodipodi:nodetypes="cc"/><path id="shape18" transform="translate(40.474791121884, 42.5112585997146)" fill="none" stroke="#000000" stroke-width="1.44" stroke-linecap="square" stroke-linejoin="miter" stroke-miterlimit="2" d="M24.8194 28.0014L0 0" sodipodi:nodetypes="cc"/><path id="shape19" transform="translate(40.474791121884, 26.983194081256)" fill="none" stroke="#000000" stroke-width="1.44" stroke-linecap="square" stroke-linejoin="miter" stroke-miterlimit="2" d="M0 15.5281L2.80014 0" sodipodi:nodetypes="cc"/><path id="shape20" transform="translate(33.1200008549922, 3.51000009061059)" fill="none" stroke="#000000" stroke-width="1.44" stroke-linecap="square" stroke-linejoin="miter" stroke-miterlimit="2" d="M2.34 0L0 0.09" sodipodi:nodetypes="cc"/><path id="shape21" transform="translate(95.6700024697193, 3.51000009061059)" fill="none" stroke="#000000" stroke-width="1.44" stroke-linecap="square" stroke-linejoin="miter" stroke-miterlimit="2" d="M0 0L2.25 0.09" sodipodi:nodetypes="cc"/><path id="shape22" transform="translate(43.9199997427061, 174.059998980315)" fill="none" stroke="#000000" stroke-width="0.72" stroke-linecap="square" stroke-linejoin="miter" stroke-miterlimit="2" d="M0 36.18L40.14 0" sodipodi:nodetypes="cc"/><path id="shape23" transform="translate(49.3199997110716, 138.239999190157)" fill="none" stroke="#000000" stroke-width="0.72" stroke-linecap="square" stroke-linejoin="miter" stroke-miterlimit="2" d="M34.74 35.82L0 0" sodipodi:nodetypes="cc"/><path id="shape24" transform="translate(49.3199997110716, 99.3599994179253)" fill="none" stroke="#000000" stroke-width="0.72" stroke-linecap="square" stroke-linejoin="miter" stroke-miterlimit="2" d="M0 38.88L29.52 0" sodipodi:nodetypes="cc"/><path id="shape25" transform="translate(65.1599996182771, 83.8799995086108)" fill="none" stroke="#000000" stroke-width="0.72" stroke-linecap="square" stroke-linejoin="miter" stroke-miterlimit="2" d="M13.68 15.48L0 0" sodipodi:nodetypes="cc"/><path id="shape26" transform="translate(52.7399996910364, 83.8799995086108)" fill="none" stroke="#000000" stroke-width="0.72" stroke-linecap="square" stroke-linejoin="miter" stroke-miterlimit="2" d="M12.42 0L0 16.02" sodipodi:nodetypes="cc"/><path id="shape27" transform="translate(52.7399996910364, 99.8999994147619)" fill="none" stroke="#000000" stroke-width="0.72" stroke-linecap="square" stroke-linejoin="miter" stroke-miterlimit="2" d="M0 0L28.62 39.06" sodipodi:nodetypes="cc"/><path id="shape28" transform="translate(47.1599997237254, 138.959999185939)" fill="none" stroke="#000000" stroke-width="0.72" stroke-linecap="square" stroke-linejoin="miter" stroke-miterlimit="2" d="M34.2 0L0 34.74" sodipodi:nodetypes="cc"/><path id="shape29" transform="translate(47.1599997237254, 173.699998982424)" fill="none" stroke="#000000" stroke-width="0.72" stroke-linecap="square" stroke-linejoin="miter" stroke-miterlimit="2" d="M0 0L39.42 35.82" sodipodi:nodetypes="cc"/><path id="shape30" transform="translate(76.3199995528991, 200.519998825306)" fill="none" stroke="#000000" stroke-width="0.72" stroke-linecap="square" stroke-linejoin="miter" stroke-miterlimit="2" d="M9.18 0L0 0" sodipodi:nodetypes="cc"/><path id="shape31" transform="translate(76.3199995528991, 191.159998880139)" fill="none" stroke="#000000" stroke-width="0.72" stroke-linecap="square" stroke-linejoin="miter" stroke-miterlimit="2" d="M0 9.36L8.64 0" sodipodi:nodetypes="cc"/><path id="shape32" transform="translate(74.879999561335, 182.519998930754)" fill="none" stroke="#000000" stroke-width="0.72" stroke-linecap="square" stroke-linejoin="miter" stroke-miterlimit="2" d="M10.08 8.64L0 0" sodipodi:nodetypes="cc"/><path id="shape33" transform="translate(74.879999561335, 182.519998930754)" fill="none" stroke="#000000" stroke-width="0.72" stroke-linecap="square" stroke-linejoin="miter" stroke-miterlimit="2" d="M0 0L9.18 0" sodipodi:nodetypes="cc"/><path id="shape34" transform="translate(45.7199997321613, 190.979998881193)" fill="none" stroke="#000000" stroke-width="0.72" stroke-linecap="square" stroke-linejoin="miter" stroke-miterlimit="2" d="M39.24 0.18L0 0" sodipodi:nodetypes="cc"/><path id="shape35" transform="translate(44.8199997374337, 200.33999882636)" fill="none" stroke="#000000" stroke-width="0.72" stroke-linecap="square" stroke-linejoin="miter" stroke-miterlimit="2" d="M0 0.18L10.26 0" sodipodi:nodetypes="cc"/><path id="shape36" transform="translate(45.8999997311068, 190.619998883302)" fill="none" stroke="#000000" stroke-width="0.72" stroke-linecap="square" stroke-linejoin="miter" stroke-miterlimit="2" d="M9.18 9.72L0 0" sodipodi:nodetypes="cc"/><path id="shape37" transform="translate(45.8999997311068, 182.339998931809)" fill="none" stroke="#000000" stroke-width="0.72" stroke-linecap="square" stroke-linejoin="miter" stroke-miterlimit="2" d="M0 8.28L10.44 0" sodipodi:nodetypes="cc"/><path id="shape38" transform="translate(46.4399997279433, 182.339998931809)" fill="none" stroke="#000000" stroke-width="0.72" stroke-linecap="square" stroke-linejoin="miter" stroke-miterlimit="2" d="M9.9 0L0 0" sodipodi:nodetypes="cc"/><path id="shape39" transform="translate(74.879999561335, 164.519999036202)" fill="none" stroke="#000000" stroke-width="0.72" stroke-linecap="square" stroke-linejoin="miter" stroke-miterlimit="2" d="M8.1 0L0 0.18" sodipodi:nodetypes="cc"/><path id="shape40" transform="translate(74.879999561335, 154.799999093144)" fill="none" stroke="#000000" stroke-width="0.72" stroke-linecap="square" stroke-linejoin="miter" stroke-miterlimit="2" d="M0 9.9L7.92 0" sodipodi:nodetypes="cc"/><path id="shape41" transform="translate(74.1599995655529, 146.879999139542)" fill="none" stroke="#000000" stroke-width="0.72" stroke-linecap="square" stroke-linejoin="miter" stroke-miterlimit="2" d="M8.64 7.92L0 0" sodipodi:nodetypes="cc"/><path id="shape42" transform="translate(74.1599995655529, 146.879999139542)" fill="none" stroke="#000000" stroke-width="0.72" stroke-linecap="square" stroke-linejoin="miter" stroke-miterlimit="2" d="M0 0L7.38 0" sodipodi:nodetypes="cc"/><path id="shape43" transform="translate(48.059999718453, 164.699999035148)" fill="none" stroke="#000000" stroke-width="0.72" stroke-linecap="square" stroke-linejoin="miter" stroke-miterlimit="2" d="M0 0L7.92 0.18" sodipodi:nodetypes="cc"/><path id="shape44" transform="translate(48.5999997152895, 155.159999091036)" fill="none" stroke="#000000" stroke-width="0.72" stroke-linecap="square" stroke-linejoin="miter" stroke-miterlimit="2" d="M7.38 9.72L0 0" sodipodi:nodetypes="cc"/><path id="shape45" transform="translate(48.5999997152895, 146.699999140596)" fill="none" stroke="#000000" stroke-width="0.72" stroke-linecap="square" stroke-linejoin="miter" stroke-miterlimit="2" d="M0 8.46L8.64 0" sodipodi:nodetypes="cc"/><path id="shape46" transform="translate(48.9599997131806, 146.699999140596)" fill="none" stroke="#000000" stroke-width="0.72" stroke-linecap="square" stroke-linejoin="miter" stroke-miterlimit="2" d="M8.28 0L0 0" sodipodi:nodetypes="cc"/><path id="shape47" transform="translate(48.8700013864567, 155.070004399383)" fill="none" stroke="#000000" stroke-width="0.72" stroke-linecap="square" stroke-linejoin="miter" stroke-miterlimit="2" d="M33.48 0L0 0.09" sodipodi:nodetypes="cc"/><path id="shape48" transform="translate(51.4799998299658, 115.559999618315)" fill="none" stroke="#000000" stroke-width="0.72" stroke-linecap="square" stroke-linejoin="miter" stroke-miterlimit="2" d="M28.17 0.09L0 0" sodipodi:nodetypes="cc"/><path id="shape49" transform="translate(73.349999757731, 126.989999580562)" fill="none" stroke="#000000" stroke-width="0.72" stroke-linecap="square" stroke-linejoin="miter" stroke-miterlimit="2" d="M7.2 0L0 0" sodipodi:nodetypes="cc"/><path id="shape50" transform="translate(73.349999757731, 115.289999619207)" fill="none" stroke="#000000" stroke-width="0.72" stroke-linecap="square" stroke-linejoin="miter" stroke-miterlimit="2" d="M0 11.7L6.03 0" sodipodi:nodetypes="cc"/><path id="shape51" transform="translate(72.2699997612981, 108)" fill="none" stroke="#000000" stroke-width="0.72" stroke-linecap="square" stroke-linejoin="miter" stroke-miterlimit="2" d="M7.11 7.29L0 0" sodipodi:nodetypes="cc"/><path id="shape52" transform="translate(72.2699997612981, 108)" fill="none" stroke="#000000" stroke-width="0.72" stroke-linecap="square" stroke-linejoin="miter" stroke-miterlimit="2" d="M0 0L6.93 0" sodipodi:nodetypes="cc"/><path id="shape53" transform="translate(50.8499998320466, 126.89999958086)" fill="none" stroke="#000000" stroke-width="0.72" stroke-linecap="square" stroke-linejoin="miter" stroke-miterlimit="2" d="M0 0L6.66 0" sodipodi:nodetypes="cc"/><path id="shape54" transform="translate(51.5699998296685, 115.559999618315)" fill="none" stroke="#000000" stroke-width="0.72" stroke-linecap="square" stroke-linejoin="miter" stroke-miterlimit="2" d="M5.94 11.34L0 0" sodipodi:nodetypes="cc"/><path id="shape55" transform="translate(51.5699998296685, 108)" fill="none" stroke="#000000" stroke-width="0.72" stroke-linecap="square" stroke-linejoin="miter" stroke-miterlimit="2" d="M0 7.56L7.47 0" sodipodi:nodetypes="cc"/><path id="shape56" transform="translate(52.109999827885, 108)" fill="none" stroke="#000000" stroke-width="0.72" stroke-linecap="square" stroke-linejoin="miter" stroke-miterlimit="2" d="M6.93 0L0 0" sodipodi:nodetypes="cc"/><path id="shape57" transform="translate(53.8391102105061, 83.8770062144764)" fill="none" stroke="#000000" stroke-width="0.72" stroke-linecap="square" stroke-linejoin="miter" stroke-miterlimit="2" d="M0 0.127279L24.0558 0" sodipodi:nodetypes="cc"/><path id="shape58" transform="translate(65.5487984832403, 71.1490841788958)" fill="none" stroke="#000000" stroke-width="0.72" stroke-linecap="square" stroke-linejoin="miter" stroke-miterlimit="2" d="M12.3461 12.7279L0 0" sodipodi:nodetypes="cc"/><path id="shape59" transform="translate(54.2209478715735, 71.1490841788958)" fill="none" stroke="#000000" stroke-width="0.72" stroke-linecap="square" stroke-linejoin="miter" stroke-miterlimit="2" d="M11.3279 0L0 12.4734" sodipodi:nodetypes="cc"/><path id="shape60" transform="translate(47.984266074139, 67.3307075682216)" fill="none" stroke="#000000" stroke-width="0.72" stroke-linecap="square" stroke-linejoin="miter" stroke-miterlimit="2" d="M16.9281 3.81838L0 0" sodipodi:nodetypes="cc"/><path id="shape61" transform="translate(47.984266074139, 58.9302790247384)" fill="none" stroke="#000000" stroke-width="0.72" stroke-linecap="square" stroke-linejoin="miter" stroke-miterlimit="2" d="M0 8.40043L6.87308 0" sodipodi:nodetypes="cc"/><path id="shape62" transform="translate(45.4386816670229, 58.9302790247384)" fill="none" stroke="#000000" stroke-width="0.72" stroke-linecap="square" stroke-linejoin="miter" stroke-miterlimit="2" d="M9.41866 0L0 0" sodipodi:nodetypes="cc"/><path id="shape63" transform="translate(45.4386816670229, 50.5298504812551)" fill="none" stroke="#000000" stroke-width="0.72" stroke-linecap="square" stroke-linejoin="miter" stroke-miterlimit="2" d="M0 8.40043L1.78191 0" sodipodi:nodetypes="cc"/><path id="shape64" transform="translate(42.765818039551, 50.5298504812551)" fill="none" stroke="#000000" stroke-width="0.72" stroke-linecap="square" stroke-linejoin="miter" stroke-miterlimit="2" d="M4.45477 0L0 0.127279" sodipodi:nodetypes="cc"/><path id="shape65" transform="translate(65.9306361443077, 67.2034283478658)" fill="none" stroke="#000000" stroke-width="0.72" stroke-linecap="square" stroke-linejoin="miter" stroke-miterlimit="2" d="M0 3.56382L16.5463 0" sodipodi:nodetypes="cc"/><path id="shape66" transform="translate(75.8584153320606, 59.821233567229)" fill="none" stroke="#000000" stroke-width="0.72" stroke-linecap="square" stroke-linejoin="miter" stroke-miterlimit="2" d="M6.61852 7.38219L0 0" sodipodi:nodetypes="cc"/><path id="shape67" transform="translate(75.8584153320606, 59.5666751265174)" fill="none" stroke="#000000" stroke-width="0.72" stroke-linecap="square" stroke-linejoin="miter" stroke-miterlimit="2" d="M0 0.254558L9.54594 0" sodipodi:nodetypes="cc"/><path id="shape68" transform="translate(82.4769347905625, 51.6753634644574)" fill="none" stroke="#000000" stroke-width="0.72" stroke-linecap="square" stroke-linejoin="miter" stroke-miterlimit="2" d="M2.92742 7.89131L0 0" sodipodi:nodetypes="cc"/><path id="shape69" transform="translate(82.4769347905625, 51.6753634644574)" fill="none" stroke="#000000" stroke-width="0.72" stroke-linecap="square" stroke-linejoin="miter" stroke-miterlimit="2" d="M0 0L5.09117 0" sodipodi:nodetypes="cc"/><path id="shape70" transform="translate(35.2563446869907, 19.4737210725977)" fill="none" stroke="#000000" stroke-width="0.72" stroke-linecap="square" stroke-linejoin="miter" stroke-miterlimit="2" d="M0 7.50947L8.14587 0" sodipodi:nodetypes="cc"/><path id="shape71" transform="translate(35.7654615777775, 19.7282795179912)" fill="none" stroke="#000000" stroke-width="0.72" stroke-linecap="square" stroke-linejoin="miter" stroke-miterlimit="2" d="M0 0L7.76403 7.38219" sodipodi:nodetypes="cc"/><path id="shape72" transform="translate(35.7654615777775, 13.8734352739422)" fill="none" stroke="#000000" stroke-width="0.72" stroke-linecap="square" stroke-linejoin="miter" stroke-miterlimit="2" d="M0 5.85484L5.21845 0" sodipodi:nodetypes="cc"/><path id="shape73" transform="translate(35.5109031323841, 13.7461560512455)" fill="none" stroke="#000000" stroke-width="0.72" stroke-linecap="square" stroke-linejoin="miter" stroke-miterlimit="2" d="M5.47301 0.127279L0 0" sodipodi:nodetypes="cc"/><path id="shape74" transform="translate(35.5109031323841, 9.54594170225379)" fill="none" stroke="#000000" stroke-width="0.72" stroke-linecap="square" stroke-linejoin="miter" stroke-miterlimit="2" d="M0 4.20021L3.30926 0" sodipodi:nodetypes="cc"/><path id="shape75" transform="translate(35.6381823550808, 27.1104744344008)" fill="none" stroke="#000000" stroke-width="0.72" stroke-linecap="square" stroke-linejoin="miter" stroke-miterlimit="2" d="M0 0L6.61852 6.87308" sodipodi:nodetypes="cc"/><path id="shape76" transform="translate(37.5473706955316, 33.9835524600235)" fill="none" stroke="#000000" stroke-width="0.72" stroke-linecap="square" stroke-linejoin="miter" stroke-miterlimit="2" d="M4.70933 0L0 0" sodipodi:nodetypes="cc"/><path id="shape77" transform="translate(89.095455887702, 27.1104744344008)" fill="none" stroke="#000000" stroke-width="0.72" stroke-linecap="square" stroke-linejoin="miter" stroke-miterlimit="2" d="M6.36396 0L0 6.49124" sodipodi:nodetypes="cc"/><path id="shape78" transform="translate(89.095455887702, 33.4744355692366)" fill="none" stroke="#000000" stroke-width="0.72" stroke-linecap="square" stroke-linejoin="miter" stroke-miterlimit="2" d="M0 0.127279L4.70933 0" sodipodi:nodetypes="cc"/><path id="shape79" transform="translate(87.9499428834316, 19.8555587406879)" fill="none" stroke="#000000" stroke-width="0.72" stroke-linecap="square" stroke-linejoin="miter" stroke-miterlimit="2" d="M0 0L8.01859 7.38219" sodipodi:nodetypes="cc"/><path id="shape80" transform="translate(87.6953844380381, 19.6010002952944)" fill="none" stroke="#000000" stroke-width="0.72" stroke-linecap="square" stroke-linejoin="miter" stroke-miterlimit="2" d="M0 7.38219L8.14587 0" sodipodi:nodetypes="cc"/><path id="shape81" transform="translate(95.841254690628, 19.6010002952944)" fill="none" stroke="#000000" stroke-width="0.72" stroke-linecap="square" stroke-linejoin="miter" stroke-miterlimit="2" d="M0 0L6.57875 7.354" sodipodi:nodetypes="cc"/><path id="shape82" transform="translate(102.645006950042, 23.8012146442861)" fill="none" stroke="#000000" stroke-width="0.72" stroke-linecap="square" stroke-linejoin="miter" stroke-miterlimit="2" d="M0 2.74879L5.35499 0" sodipodi:nodetypes="cc"/><path id="shape83" transform="translate(29.0196627748515, 20.237396408778)" fill="none" stroke="#000000" stroke-width="0.72" stroke-linecap="square" stroke-linejoin="miter" stroke-miterlimit="2" d="M6.36396 0L0 7.12764" sodipodi:nodetypes="cc"/><path id="shape84" transform="translate(24.0557730896795, 23.6739354215894)" fill="none" stroke="#000000" stroke-width="0.72" stroke-linecap="square" stroke-linejoin="miter" stroke-miterlimit="2" d="M4.96389 3.6911L0 0" sodipodi:nodetypes="cc"/><path id="shape85" transform="translate(43.2749357168838, 19.8555587406879)" fill="none" stroke="#000000" stroke-width="0.72" stroke-linecap="square" stroke-linejoin="miter" stroke-miterlimit="2" d="M0 0L7.50947 7.50947" sodipodi:nodetypes="cc"/><path id="shape86" transform="translate(50.7844098559902, 19.6010002952944)" fill="none" stroke="#000000" stroke-width="0.72" stroke-linecap="square" stroke-linejoin="miter" stroke-miterlimit="2" d="M0 7.76403L7.38219 0" sodipodi:nodetypes="cc"/><path id="shape87" transform="translate(58.1666047723998, 19.6010002952944)" fill="none" stroke="#000000" stroke-width="0.72" stroke-linecap="square" stroke-linejoin="miter" stroke-miterlimit="2" d="M0 0L7.38219 7.63675" sodipodi:nodetypes="cc"/><path id="shape88" transform="translate(65.5487996888094, 19.6010002952944)" fill="none" stroke="#000000" stroke-width="0.72" stroke-linecap="square" stroke-linejoin="miter" stroke-miterlimit="2" d="M0 7.63675L8.27315 0" sodipodi:nodetypes="cc"/><path id="shape89" transform="translate(73.821949164096, 19.6010002952944)" fill="none" stroke="#000000" stroke-width="0.72" stroke-linecap="square" stroke-linejoin="miter" stroke-miterlimit="2" d="M0 0L6.7458 7.50947" sodipodi:nodetypes="cc"/><path id="shape90" transform="translate(80.567747967022, 19.8555587406879)" fill="none" stroke="#000000" stroke-width="0.72" stroke-linecap="square" stroke-linejoin="miter" stroke-miterlimit="2" d="M0 7.25492L7.38219 0" sodipodi:nodetypes="cc"/><path id="shape91" transform="translate(90.2409688919725, 14.6371106101225)" fill="none" stroke="#000000" stroke-width="0.72" stroke-linecap="square" stroke-linejoin="miter" stroke-miterlimit="2" d="M5.47301 5.21845L0 0" sodipodi:nodetypes="cc"/><path id="shape92" transform="translate(90.2409688919725, 14.5098313874258)" fill="none" stroke="#000000" stroke-width="0.72" stroke-linecap="square" stroke-linejoin="miter" stroke-miterlimit="2" d="M0 0.127279L5.72757 0" sodipodi:nodetypes="cc"/><path id="shape93" transform="translate(92.4047156778167, 10.4368962611308)" fill="none" stroke="#000000" stroke-width="0.72" stroke-linecap="square" stroke-linejoin="miter" stroke-miterlimit="2" d="M3.56382 4.07294L0 0" sodipodi:nodetypes="cc"/><path id="shape94" transform="translate(53.584553877768, 91.8956007119916)" fill="none" stroke="#000000" stroke-width="0.72" stroke-linecap="square" stroke-linejoin="miter" stroke-miterlimit="2" d="M0 0.127279L5.34573 0" sodipodi:nodetypes="cc"/><path id="shape95" transform="translate(54.0936707792195, 84.7679640916709)" fill="none" stroke="#000000" stroke-width="0.72" stroke-linecap="square" stroke-linejoin="miter" stroke-miterlimit="2" d="M4.83661 7.12764L0 0" sodipodi:nodetypes="cc"/><path id="shape96" transform="translate(72.4218792314726, 92.0228799373545)" fill="none" stroke="#000000" stroke-width="0.72" stroke-linecap="square" stroke-linejoin="miter" stroke-miterlimit="2" d="M5.47301 0L0 0" sodipodi:nodetypes="cc"/><path id="shape97" transform="translate(72.4218792314726, 84.1315679648566)" fill="none" stroke="#000000" stroke-width="0.72" stroke-linecap="square" stroke-linejoin="miter" stroke-miterlimit="2" d="M0 7.89131L5.21845 0" sodipodi:nodetypes="cc"/><path id="shape021" transform="matrix(0.999999888355363 0 0 0.936540971443951 15.8957655999254 28.6567309480915)" fill="none" stroke="#737373" stroke-width="2.16" stroke-linecap="square" stroke-linejoin="miter" stroke-miterlimit="2" d="M0 0L0 11.1415" sodipodi:nodetypes="cc"/><circle id="shape0151" transform="matrix(1.4371023325785 0 0 1.4634615870911 14.7203265207044 40.0733690490217)" r="0.719999999999999" cx="0.719999999999999" cy="0.719999999999999" fill="#d00000" fill-rule="evenodd" stroke-opacity="0" stroke="#000000" stroke-width="0" stroke-linecap="square" stroke-linejoin="bevel"/><path id="shape0211" transform="matrix(0.999999888355363 0 0 0.936540971443951 65.7892196992351 28.0203348498861)" fill="none" stroke="#737373" stroke-width="2.16" stroke-linecap="square" stroke-linejoin="miter" stroke-miterlimit="2" d="M0 0L0 11.1415" sodipodi:nodetypes="cc"/><circle id="shape01511" transform="matrix(1.4371023325785 0 0 1.4634615870911 64.6137806200141 39.4369729508162)" r="0.719999999999999" cx="0.719999999999999" cy="0.719999999999999" fill="#d00000" fill-rule="evenodd" stroke-opacity="0" stroke="#000000" stroke-width="0" stroke-linecap="square" stroke-linejoin="bevel"/><path id="shape0212" transform="matrix(0.999999888355363 0 0 0.936540971443951 116.700907555674 28.2748932891683)" fill="none" stroke="#737373" stroke-width="2.16" stroke-linecap="square" stroke-linejoin="miter" stroke-miterlimit="2" d="M0 0L0 11.1415" sodipodi:nodetypes="cc"/><circle id="shape01512" transform="matrix(1.4371023325785 0 0 1.4634615870911 115.525468476453 39.6915313900984)" r="0.719999999999999" cx="0.719999999999999" cy="0.719999999999999" fill="#d00000" fill-rule="evenodd" stroke-opacity="0" stroke="#000000" stroke-width="0" stroke-linecap="square" stroke-linejoin="bevel"/><path id="shape41" transform="matrix(0.999999999115085 0 0 0.999999999115085 -14.713767020266 213.816990436666)" fill="none" stroke="#3b2300" stroke-width="2.16" stroke-linecap="square" stroke-linejoin="miter" stroke-miterlimit="2" d="M0 0L160.92 0.18" sodipodi:nodetypes="cc"/><path id="shape51" transform="matrix(0.999999999115085 0 0 0.999999999115085 -14.5567615829629 212.180903861809)" fill="none" stroke="#297f00" stroke-width="1.44" stroke-linecap="square" stroke-linejoin="miter" stroke-miterlimit="2" d="M0 0L161.135 0.127279" sodipodi:nodetypes="cc"/>
</svg>
