<?xml version="1.0" standalone="no"?>
<!DOCTYPE svg PUBLIC "-//W3C//DTD SVG 20010904//EN" "http://www.w3.org/TR/2001/REC-SVG-20010904/DTD/svg10.dtd">
<!-- Created using Krita: https://krita.org -->
<svg xmlns="http://www.w3.org/2000/svg" 
    xmlns:xlink="http://www.w3.org/1999/xlink"
    xmlns:krita="http://krita.org/namespaces/svg/krita"
    xmlns:sodipodi="http://sodipodi.sourceforge.net/DTD/sodipodi-0.dtd"
    width="149.04pt"
    height="213.84pt"
    viewBox="0 0 149.04 213.84">
<defs/>
<path id="shape0" transform="translate(78.4040032637895, 42.2567030577567)" fill="none" stroke="#000000" stroke-width="1.44" stroke-linecap="square" stroke-linejoin="miter" stroke-miterlimit="2" d="M12.2188 169.027L0 0" sodipodi:nodetypes="cc"/><path id="shape1" transform="translate(78.1494448116344, 17.5645331987061)" fill="none" stroke="#000000" stroke-width="1.44" stroke-linecap="square" stroke-linejoin="miter" stroke-miterlimit="2" d="M0.254558 24.6922L0 0" sodipodi:nodetypes="cc"/><path id="shape2" transform="translate(68.7307820818934, 17.5645331987061)" fill="none" stroke="#000000" stroke-width="1.44" stroke-linecap="square" stroke-linejoin="miter" stroke-miterlimit="2" d="M9.41866 0L0 0.254558" sodipodi:nodetypes="cc"/><path id="shape3" transform="translate(68.2216651775831, 17.8190916508613)" fill="none" stroke="#000000" stroke-width="1.44" stroke-linecap="square" stroke-linejoin="miter" stroke-miterlimit="2" d="M0 0L0 21.892" sodipodi:nodetypes="cc"/><path id="shape4" transform="translate(55.7483010219802, 39.7111185362051)" fill="none" stroke="#000000" stroke-width="1.44" stroke-linecap="square" stroke-linejoin="miter" stroke-miterlimit="2" d="M12.4734 0L0 171.318" sodipodi:nodetypes="cc"/><path id="shape5" transform="translate(79.5495123158292, 54.2209475944692)" fill="none" stroke="#000000" stroke-width="1.44" stroke-linecap="square" stroke-linejoin="miter" stroke-miterlimit="2" d="M0 0L60.4576 8.01859" sodipodi:nodetypes="cc"/><path id="shape6" transform="translate(80.0586291946505, 62.2395384359047)" fill="none" stroke="#000000" stroke-width="1.44" stroke-linecap="square" stroke-linejoin="miter" stroke-miterlimit="2" d="M59.9485 0L0 0" sodipodi:nodetypes="cc"/><path id="shape7" transform="translate(5.85484410644503, 62.1122592161994)" fill="none" stroke="#000000" stroke-width="1.44" stroke-linecap="square" stroke-linejoin="miter" stroke-miterlimit="2" d="M60.5849 0L0 0.381838" sodipodi:nodetypes="cc"/><path id="shape8" transform="translate(5.85484410644503, 54.3482268141745)" fill="none" stroke="#000000" stroke-width="1.44" stroke-linecap="square" stroke-linejoin="miter" stroke-miterlimit="2" d="M0 8.14587L61.3486 0" sodipodi:nodetypes="cc"/><path id="shape9" transform="translate(23.8012137079655, 6.23668166679311)" fill="none" stroke="#000000" stroke-width="1.44" stroke-linecap="square" stroke-linejoin="miter" stroke-miterlimit="2" d="M44.675 11.0733L0 0" sodipodi:nodetypes="cc"/><path id="shape10" transform="translate(23.8012137079655, 6.23668166679311)" fill="none" stroke="#000000" stroke-width="1.44" stroke-linecap="square" stroke-linejoin="miter" stroke-miterlimit="2" d="M0 0L32.3289 14.0007" sodipodi:nodetypes="cc"/><path id="shape11" transform="translate(35.7654601707931, 20.2373956126552)" fill="none" stroke="#000000" stroke-width="1.44" stroke-linecap="square" stroke-linejoin="miter" stroke-miterlimit="2" d="M20.3647 0L0 4.96389" sodipodi:nodetypes="cc"/><path id="shape12" transform="translate(35.7654601707931, 25.2012851025517)" fill="none" stroke="#000000" stroke-width="1.44" stroke-linecap="square" stroke-linejoin="miter" stroke-miterlimit="2" d="M0 0L32.3289 0" sodipodi:nodetypes="cc"/><path id="shape13" transform="translate(19.7282787418966, 6.10940244910346)" fill="none" stroke="#000000" stroke-width="1.44" stroke-linecap="square" stroke-linejoin="miter" stroke-miterlimit="2" d="M3.94566 0L0 0" sodipodi:nodetypes="cc"/><path id="shape14" transform="translate(68.2200008550485, 25.020000313593)" fill="none" stroke="#000000" stroke-width="0.72" stroke-linecap="square" stroke-linejoin="miter" stroke-miterlimit="2" d="M0 0.18L10.8 0" sodipodi:nodetypes="cc"/><path id="shape15" transform="translate(66.9600008392561, 54.3600006813315)" fill="none" stroke="#000000" stroke-width="0.72" stroke-linecap="square" stroke-linejoin="miter" stroke-miterlimit="2" d="M0 0L12.78 0" sodipodi:nodetypes="cc"/><path id="shape16" transform="translate(66.6000008347439, 62.1000007783423)" fill="none" stroke="#000000" stroke-width="0.72" stroke-linecap="square" stroke-linejoin="miter" stroke-miterlimit="2" d="M0 0.36L14.22 0" sodipodi:nodetypes="cc"/><path id="shape17" transform="translate(68.2200008550485, 17.6400002210943)" fill="none" stroke="#000000" stroke-width="0.72" stroke-linecap="square" stroke-linejoin="miter" stroke-miterlimit="2" d="M0 0L10.08 7.74" sodipodi:nodetypes="cc"/><path id="shape18" transform="translate(67.8600008505364, 17.6400002210943)" fill="none" stroke="#000000" stroke-width="0.72" stroke-linecap="square" stroke-linejoin="miter" stroke-miterlimit="2" d="M10.26 0L0 7.56" sodipodi:nodetypes="cc"/><path id="shape19" transform="translate(55.4400006948679, 20.3400002549353)" fill="none" stroke="#000000" stroke-width="0.72" stroke-linecap="square" stroke-linejoin="miter" stroke-miterlimit="2" d="M12.6 5.04L0 0" sodipodi:nodetypes="cc"/><path id="shape20" transform="translate(55.4400006948679, 17.4600002188383)" fill="none" stroke="#000000" stroke-width="0.72" stroke-linecap="square" stroke-linejoin="miter" stroke-miterlimit="2" d="M0 2.88L12.6 0" sodipodi:nodetypes="cc"/><path id="shape21" transform="translate(45.3600005685283, 22.5000002820081)" fill="none" stroke="#000000" stroke-width="0.72" stroke-linecap="square" stroke-linejoin="miter" stroke-miterlimit="2" d="M0 0L4.14 2.52" sodipodi:nodetypes="cc"/><path id="shape22" transform="translate(49.5000006204178, 20.5200002571914)" fill="none" stroke="#000000" stroke-width="0.72" stroke-linecap="square" stroke-linejoin="miter" stroke-miterlimit="2" d="M0 4.5L5.94 0" sodipodi:nodetypes="cc"/><path id="shape23" transform="translate(37.6200004715175, 11.3400001421321)" fill="none" stroke="#000000" stroke-width="0.72" stroke-linecap="square" stroke-linejoin="miter" stroke-miterlimit="2" d="M0 1.08L8.64 0" sodipodi:nodetypes="cc"/><path id="shape24" transform="translate(46.2600005798086, 11.3400001421321)" fill="none" stroke="#000000" stroke-width="0.72" stroke-linecap="square" stroke-linejoin="miter" stroke-miterlimit="2" d="M0 0L3.6 6.3" sodipodi:nodetypes="cc"/><path id="shape25" transform="translate(49.8600006249299, 14.4000001804852)" fill="none" stroke="#000000" stroke-width="0.72" stroke-linecap="square" stroke-linejoin="miter" stroke-miterlimit="2" d="M0 3.24L7.02 0" sodipodi:nodetypes="cc"/><path id="shape26" transform="translate(54.1800016755504, 54.360001681117)" fill="none" stroke="#000000" stroke-width="0.72" stroke-linecap="square" stroke-linejoin="miter" stroke-miterlimit="2" d="M12.42 0L0 7.92" sodipodi:nodetypes="cc"/><path id="shape27" transform="translate(43.0200013304204, 57.2400017701828)" fill="none" stroke="#000000" stroke-width="0.72" stroke-linecap="square" stroke-linejoin="miter" stroke-miterlimit="2" d="M11.16 5.04L0 0" sodipodi:nodetypes="cc"/><path id="shape28" transform="translate(35.6400011021893, 57.2400017701828)" fill="none" stroke="#000000" stroke-width="0.72" stroke-linecap="square" stroke-linejoin="miter" stroke-miterlimit="2" d="M7.38 0L0 4.86" sodipodi:nodetypes="cc"/><path id="shape29" transform="translate(25.9200008015922, 59.7600018481154)" fill="none" stroke="#000000" stroke-width="0.72" stroke-linecap="square" stroke-linejoin="miter" stroke-miterlimit="2" d="M9.72 2.34L0 0" sodipodi:nodetypes="cc"/><path id="shape30" transform="translate(79.3800024548761, 54.1800016755504)" fill="none" stroke="#000000" stroke-width="0.72" stroke-linecap="square" stroke-linejoin="miter" stroke-miterlimit="2" d="M0 0L11.88 8.28" sodipodi:nodetypes="cc"/><path id="shape31" transform="translate(91.2600028222725, 57.4200017757494)" fill="none" stroke="#000000" stroke-width="0.72" stroke-linecap="square" stroke-linejoin="miter" stroke-miterlimit="2" d="M0 5.04L12.06 0" sodipodi:nodetypes="cc"/><path id="shape32" transform="translate(103.320003195236, 57.4200017757494)" fill="none" stroke="#000000" stroke-width="0.72" stroke-linecap="square" stroke-linejoin="miter" stroke-miterlimit="2" d="M0 0L6.84 4.68" sodipodi:nodetypes="cc"/><path id="shape33" transform="translate(110.160003406767, 59.7600018481154)" fill="none" stroke="#000000" stroke-width="0.72" stroke-linecap="square" stroke-linejoin="miter" stroke-miterlimit="2" d="M0 2.34L9 0" sodipodi:nodetypes="cc"/><path id="shape34" transform="translate(55.4400008365354, 180.135012105948)" fill="none" stroke="#000000" stroke-width="0.72" stroke-linecap="square" stroke-linejoin="miter" stroke-miterlimit="2" d="M0 29.565L33.075 0" sodipodi:nodetypes="cc"/><path id="shape35" transform="translate(59.4000008962879, 150.660002273312)" fill="none" stroke="#000000" stroke-width="0.72" stroke-linecap="square" stroke-linejoin="miter" stroke-miterlimit="2" d="M29.52 29.7L0 0" sodipodi:nodetypes="cc"/><path id="shape36" transform="translate(59.4000008962879, 121.3200018306)" fill="none" stroke="#000000" stroke-width="0.72" stroke-linecap="square" stroke-linejoin="miter" stroke-miterlimit="2" d="M0 29.34L25.2 0" sodipodi:nodetypes="cc"/><path id="shape37" transform="translate(63.5400011211221, 96.300001699151)" fill="none" stroke="#000000" stroke-width="0.72" stroke-linecap="square" stroke-linejoin="miter" stroke-miterlimit="2" d="M20.88 24.84L0 0" sodipodi:nodetypes="cc"/><path id="shape38" transform="translate(63.5400011211221, 76.6800013529688)" fill="none" stroke="#000000" stroke-width="0.72" stroke-linecap="square" stroke-linejoin="miter" stroke-miterlimit="2" d="M0 19.62L17.46 0" sodipodi:nodetypes="cc"/><path id="shape39" transform="translate(66.7800011782898, 62.6400011052421)" fill="none" stroke="#000000" stroke-width="0.72" stroke-linecap="square" stroke-linejoin="miter" stroke-miterlimit="2" d="M14.22 14.04L0 0" sodipodi:nodetypes="cc"/><path id="shape40" transform="translate(58.0049999273643, 180.314999774204)" fill="none" stroke="#000000" stroke-width="0.72" stroke-linecap="square" stroke-linejoin="miter" stroke-miterlimit="2" d="M32.715 29.385L0 0" sodipodi:nodetypes="cc"/><path id="shape41" transform="translate(57.6899999277588, 150.480000272029)" fill="none" stroke="#000000" stroke-width="0.72" stroke-linecap="square" stroke-linejoin="miter" stroke-miterlimit="2" d="M0 29.115L29.07 0" sodipodi:nodetypes="cc"/><path id="shape42" transform="translate(61.5600001112845, 121.320000219315)" fill="none" stroke="#000000" stroke-width="0.72" stroke-linecap="square" stroke-linejoin="miter" stroke-miterlimit="2" d="M25.2 29.16L0 0" sodipodi:nodetypes="cc"/><path id="shape43" transform="translate(61.5600001112845, 96.3000001740855)" fill="none" stroke="#000000" stroke-width="0.72" stroke-linecap="square" stroke-linejoin="miter" stroke-miterlimit="2" d="M0 25.02L20.88 0" sodipodi:nodetypes="cc"/><path id="shape44" transform="translate(65.1600001177924, 76.5000001382922)" fill="none" stroke="#000000" stroke-width="0.72" stroke-linecap="square" stroke-linejoin="miter" stroke-miterlimit="2" d="M17.28 19.8L0 0" sodipodi:nodetypes="cc"/><path id="shape45" transform="translate(65.1600001177924, 62.2800001125861)" fill="none" stroke="#000000" stroke-width="0.72" stroke-linecap="square" stroke-linejoin="miter" stroke-miterlimit="2" d="M0 14.22L14.94 0" sodipodi:nodetypes="cc"/><path id="shape46" transform="translate(56.8800020497438, 194.04000699248)" fill="none" stroke="#000000" stroke-width="0.72" stroke-linecap="square" stroke-linejoin="miter" stroke-miterlimit="2" d="M0 0L32.58 0.36" sodipodi:nodetypes="cc"/><path id="shape47" transform="translate(59.2200021340687, 164.700005935176)" fill="none" stroke="#000000" stroke-width="0.72" stroke-linecap="square" stroke-linejoin="miter" stroke-miterlimit="2" d="M0 0L28.26 0" sodipodi:nodetypes="cc"/><path id="shape48" transform="translate(61.020002198934, 134.85375265595)" fill="none" stroke="#000000" stroke-width="0.72" stroke-linecap="square" stroke-linejoin="miter" stroke-miterlimit="2" d="M0 0L24.4012 0.146252" sodipodi:nodetypes="cc"/><path id="shape49" transform="translate(63.06685300985, 106.914543952117)" fill="none" stroke="#000000" stroke-width="0.72" stroke-linecap="square" stroke-linejoin="miter" stroke-miterlimit="2" d="M0 0L19.6965 0" sodipodi:nodetypes="cc"/><path id="shape50" transform="translate(64.5305630062967, 85.5316338071625)" fill="none" stroke="#000000" stroke-width="0.72" stroke-linecap="square" stroke-linejoin="miter" stroke-miterlimit="2" d="M0 0L17.1827 0" sodipodi:nodetypes="cc"/><path id="shape51" transform="translate(57.5100014555976, 187.290004740373)" fill="none" stroke="#000000" stroke-width="0.72" stroke-linecap="square" stroke-linejoin="miter" stroke-miterlimit="2" d="M0 0L7.83 0.09" sodipodi:nodetypes="cc"/><path id="shape52" transform="translate(56.7900014373741, 187.380004742651)" fill="none" stroke="#000000" stroke-width="0.72" stroke-linecap="square" stroke-linejoin="miter" stroke-miterlimit="2" d="M8.55 0L0 6.84" sodipodi:nodetypes="cc"/><path id="shape53" transform="translate(56.7900014373741, 194.220004915774)" fill="none" stroke="#000000" stroke-width="0.72" stroke-linecap="square" stroke-linejoin="miter" stroke-miterlimit="2" d="M0 0L7.11 8.19" sodipodi:nodetypes="cc"/><path id="shape54" transform="translate(56.6100014328183, 202.320005120788)" fill="none" stroke="#000000" stroke-width="0.72" stroke-linecap="square" stroke-linejoin="miter" stroke-miterlimit="2" d="M7.29 0.09L0 0" sodipodi:nodetypes="cc"/><path id="shape55" transform="translate(81.8100020706388, 202.320005120788)" fill="none" stroke="#000000" stroke-width="0.72" stroke-linecap="square" stroke-linejoin="miter" stroke-miterlimit="2" d="M8.1 0L0 0" sodipodi:nodetypes="cc"/><path id="shape56" transform="translate(81.8100020706388, 194.310004918052)" fill="none" stroke="#000000" stroke-width="0.72" stroke-linecap="square" stroke-linejoin="miter" stroke-miterlimit="2" d="M0 8.01L7.56 0" sodipodi:nodetypes="cc"/><path id="shape57" transform="translate(81.1800020546933, 187.470004744929)" fill="none" stroke="#000000" stroke-width="0.72" stroke-linecap="square" stroke-linejoin="miter" stroke-miterlimit="2" d="M8.19 6.84L0 0" sodipodi:nodetypes="cc"/><path id="shape58" transform="translate(81.1800020546933, 187.470004744929)" fill="none" stroke="#000000" stroke-width="0.72" stroke-linecap="square" stroke-linejoin="miter" stroke-miterlimit="2" d="M0 0L7.65 0" sodipodi:nodetypes="cc"/><path id="shape59" transform="matrix(1 0 0 -1 58.4100014783769 172.710004371349)" fill="none" stroke="#000000" stroke-width="0.72" stroke-linecap="square" stroke-linejoin="miter" stroke-miterlimit="2" d="M0 0L6.17625 0.0337519" sodipodi:nodetypes="cc"/><path id="shape60" transform="translate(59.1300014966003, 165.060004177724)" fill="none" stroke="#000000" stroke-width="0.72" stroke-linecap="square" stroke-linejoin="miter" stroke-miterlimit="2" d="M5.94 7.74L0 0" sodipodi:nodetypes="cc"/><path id="shape61" transform="translate(59.1300014966003, 157.86000399549)" fill="none" stroke="#000000" stroke-width="0.72" stroke-linecap="square" stroke-linejoin="miter" stroke-miterlimit="2" d="M0 7.2L7.29 0" sodipodi:nodetypes="cc"/><path id="shape62" transform="translate(59.1300014966003, 157.770003993212)" fill="none" stroke="#000000" stroke-width="0.72" stroke-linecap="square" stroke-linejoin="miter" stroke-miterlimit="2" d="M7.29 0.09L0 0" sodipodi:nodetypes="cc"/><path id="shape63" transform="translate(79.5600020136905, 157.680003990934)" fill="none" stroke="#000000" stroke-width="0.72" stroke-linecap="square" stroke-linejoin="miter" stroke-miterlimit="2" d="M7.11 0.09L0 0" sodipodi:nodetypes="cc"/><path id="shape64" transform="translate(79.5600020136905, 157.680003990934)" fill="none" stroke="#000000" stroke-width="0.72" stroke-linecap="square" stroke-linejoin="miter" stroke-miterlimit="2" d="M0 0L7.74 6.93" sodipodi:nodetypes="cc"/><path id="shape65" transform="translate(80.9100020478595, 164.610004166335)" fill="none" stroke="#000000" stroke-width="0.72" stroke-linecap="square" stroke-linejoin="miter" stroke-miterlimit="2" d="M6.39 0L0 8.1" sodipodi:nodetypes="cc"/><path id="shape66" transform="translate(80.9100020478595, 172.710004371349)" fill="none" stroke="#000000" stroke-width="0.72" stroke-linecap="square" stroke-linejoin="miter" stroke-miterlimit="2" d="M0 0L6.93 0.09" sodipodi:nodetypes="cc"/><path id="shape67" transform="translate(61.740000584908, 128.160001214153)" fill="none" stroke="#000000" stroke-width="0.72" stroke-linecap="square" stroke-linejoin="miter" stroke-miterlimit="2" d="M0 0L5.94 0" sodipodi:nodetypes="cc"/><path id="shape68" transform="translate(61.1100005789395, 128.160001214153)" fill="none" stroke="#000000" stroke-width="0.72" stroke-linecap="square" stroke-linejoin="miter" stroke-miterlimit="2" d="M6.57 0L0 6.75" sodipodi:nodetypes="cc"/><path id="shape69" transform="translate(61.1100005789395, 134.910001278101)" fill="none" stroke="#000000" stroke-width="0.72" stroke-linecap="square" stroke-linejoin="miter" stroke-miterlimit="2" d="M0 0L5.31 8.19" sodipodi:nodetypes="cc"/><path id="shape70" transform="translate(60.4800005729711, 142.920001353985)" fill="none" stroke="#000000" stroke-width="0.72" stroke-linecap="square" stroke-linejoin="miter" stroke-miterlimit="2" d="M5.94 0.18L0 0" sodipodi:nodetypes="cc"/><path id="shape71" transform="translate(78.9300007477613, 128.0700012133)" fill="none" stroke="#000000" stroke-width="0.72" stroke-linecap="square" stroke-linejoin="miter" stroke-miterlimit="2" d="M5.85 0.09L0 0" sodipodi:nodetypes="cc"/><path id="shape72" transform="translate(78.9300007477613, 128.0700012133)" fill="none" stroke="#000000" stroke-width="0.72" stroke-linecap="square" stroke-linejoin="miter" stroke-miterlimit="2" d="M0 0L6.3 6.93" sodipodi:nodetypes="cc"/><path id="shape73" transform="translate(80.010000757993, 135.000001278953)" fill="none" stroke="#000000" stroke-width="0.72" stroke-linecap="square" stroke-linejoin="miter" stroke-miterlimit="2" d="M5.22 0L0 7.92" sodipodi:nodetypes="cc"/><path id="shape74" transform="translate(80.010000757993, 142.920001353985)" fill="none" stroke="#000000" stroke-width="0.72" stroke-linecap="square" stroke-linejoin="miter" stroke-miterlimit="2" d="M0 0L5.49 0.09" sodipodi:nodetypes="cc"/><path id="shape75" transform="translate(63.5759735561253, 101.696101844533)" fill="none" stroke="#000000" stroke-width="0.72" stroke-linecap="square" stroke-linejoin="miter" stroke-miterlimit="2" d="M0 0.0636396L4.70933 0" sodipodi:nodetypes="cc"/><path id="shape76" transform="translate(63.2577754902789, 101.696101844533)" fill="none" stroke="#000000" stroke-width="0.72" stroke-linecap="square" stroke-linejoin="miter" stroke-miterlimit="2" d="M5.02753 0L0 5.34573" sodipodi:nodetypes="cc"/><path id="shape77" transform="translate(63.2577754902789, 107.041829350754)" fill="none" stroke="#000000" stroke-width="0.72" stroke-linecap="square" stroke-linejoin="miter" stroke-miterlimit="2" d="M0 0L4.20021 7.00036" sodipodi:nodetypes="cc"/><path id="shape78" transform="translate(62.8122981980938, 113.978547186207)" fill="none" stroke="#000000" stroke-width="0.72" stroke-linecap="square" stroke-linejoin="miter" stroke-miterlimit="2" d="M4.64569 0.0636396L0 0" sodipodi:nodetypes="cc"/><path id="shape79" transform="translate(78.5312826509096, 114.169466025715)" fill="none" stroke="#000000" stroke-width="0.72" stroke-linecap="square" stroke-linejoin="miter" stroke-miterlimit="2" d="M5.09117 0L0 0" sodipodi:nodetypes="cc"/><path id="shape80" transform="translate(78.5312826509096, 107.009999265106)" fill="none" stroke="#000000" stroke-width="0.72" stroke-linecap="square" stroke-linejoin="miter" stroke-miterlimit="2" d="M0 7.15947L4.49372 0" sodipodi:nodetypes="cc"/><path id="shape81" transform="translate(78.4676430377403, 101.441543391856)" fill="none" stroke="#000000" stroke-width="0.72" stroke-linecap="square" stroke-linejoin="miter" stroke-miterlimit="2" d="M5.15481 5.66393L0 0" sodipodi:nodetypes="cc"/><path id="shape82" transform="translate(78.4676430377403, 101.441543391856)" fill="none" stroke="#000000" stroke-width="0.72" stroke-linecap="square" stroke-linejoin="miter" stroke-miterlimit="2" d="M0 0L4.13657 0" sodipodi:nodetypes="cc"/><path id="shape83" transform="translate(66.3124748220754, 54.0936694805797)" fill="none" stroke="#000000" stroke-width="0.72" stroke-linecap="square" stroke-linejoin="miter" stroke-miterlimit="2" d="M0 8.52771L13.1098 0" sodipodi:nodetypes="cc"/><path id="shape84" transform="translate(67.7125462674551, 46.7114745867594)" fill="none" stroke="#000000" stroke-width="0.72" stroke-linecap="square" stroke-linejoin="miter" stroke-miterlimit="2" d="M11.7097 7.38219L0 0" sodipodi:nodetypes="cc"/><path id="shape85" transform="translate(67.7125462674551, 39.5838381375536)" fill="none" stroke="#000000" stroke-width="0.72" stroke-linecap="square" stroke-linejoin="miter" stroke-miterlimit="2" d="M0 7.12764L10.3096 0" sodipodi:nodetypes="cc"/><path id="shape86" transform="translate(68.3489423789913, 32.3289224660406)" fill="none" stroke="#000000" stroke-width="0.72" stroke-linecap="square" stroke-linejoin="miter" stroke-miterlimit="2" d="M9.67322 7.25492L0 0" sodipodi:nodetypes="cc"/><path id="shape87" transform="translate(68.3489423789913, 25.328565239142)" fill="none" stroke="#000000" stroke-width="0.72" stroke-linecap="square" stroke-linejoin="miter" stroke-miterlimit="2" d="M0 7.00036L9.54594 0" sodipodi:nodetypes="cc"/><path id="shape88" transform="translate(68.6035008236058, 25.2012860168348)" fill="none" stroke="#000000" stroke-width="0.72" stroke-linecap="square" stroke-linejoin="miter" stroke-miterlimit="2" d="M0 0L9.67322 7.50947" sodipodi:nodetypes="cc"/><path id="shape89" transform="translate(67.8398254897623, 32.7107601329623)" fill="none" stroke="#000000" stroke-width="0.72" stroke-linecap="square" stroke-linejoin="miter" stroke-miterlimit="2" d="M10.4369 0L0 7.12764" sodipodi:nodetypes="cc"/><path id="shape90" transform="translate(67.8398254897623, 39.8383965821681)" fill="none" stroke="#000000" stroke-width="0.72" stroke-linecap="square" stroke-linejoin="miter" stroke-miterlimit="2" d="M0 0L10.6915 6.87308" sodipodi:nodetypes="cc"/><path id="shape91" transform="translate(66.9488709336116, 46.7114745867594)" fill="none" stroke="#000000" stroke-width="0.72" stroke-linecap="square" stroke-linejoin="miter" stroke-miterlimit="2" d="M11.5824 0L0 7.38219" sodipodi:nodetypes="cc"/><path id="shape92" transform="translate(66.9488709336116, 54.0936694805797)" fill="none" stroke="#000000" stroke-width="0.72" stroke-linecap="square" stroke-linejoin="miter" stroke-miterlimit="2" d="M0 0L13.1098 8.14587" sodipodi:nodetypes="cc"/><path id="shape0" transform="matrix(-0.999999955529756 0 0 0.999999955529756 123.128030540369 6.45038858884371)" fill="none" stroke="#000000" stroke-width="1.44" stroke-linecap="square" stroke-linejoin="miter" stroke-miterlimit="2" d="M44.675 11.0733L0 0" sodipodi:nodetypes="cc"/><path id="shape1" transform="matrix(-0.999999955529756 0 0 0.999999955529756 123.128030540369 6.45038858884371)" fill="none" stroke="#000000" stroke-width="1.44" stroke-linecap="square" stroke-linejoin="miter" stroke-miterlimit="2" d="M0 0L32.3289 14.0007" sodipodi:nodetypes="cc"/><path id="shape2" transform="matrix(-0.999999955529756 0 0 0.999999955529756 111.163784609595 20.4511019120906)" fill="none" stroke="#000000" stroke-width="1.44" stroke-linecap="square" stroke-linejoin="miter" stroke-miterlimit="2" d="M20.3647 0L0 4.96389" sodipodi:nodetypes="cc"/><path id="shape3" transform="matrix(-0.999999955529756 0 0 0.999999955529756 111.163784609595 25.4149911812418)" fill="none" stroke="#000000" stroke-width="1.44" stroke-linecap="square" stroke-linejoin="miter" stroke-miterlimit="2" d="M0 0L32.3289 0" sodipodi:nodetypes="cc"/><path id="shape4" transform="matrix(-0.999999955529756 0 0 0.999999955529756 127.200965325314 6.32310937681419)" fill="none" stroke="#000000" stroke-width="1.44" stroke-linecap="square" stroke-linejoin="miter" stroke-miterlimit="2" d="M3.94566 0L0 0" sodipodi:nodetypes="cc"/><path id="shape5" transform="matrix(-0.999999955529756 0 0 0.999999955529756 91.4892449604514 20.5537065498079)" fill="none" stroke="#000000" stroke-width="0.72" stroke-linecap="square" stroke-linejoin="miter" stroke-miterlimit="2" d="M12.6 5.04L0 0" sodipodi:nodetypes="cc"/><path id="shape6" transform="matrix(-0.999999955529756 0 0 0.999999955529756 91.4892449604514 17.6737066417852)" fill="none" stroke="#000000" stroke-width="0.72" stroke-linecap="square" stroke-linejoin="miter" stroke-miterlimit="2" d="M0 2.88L12.6 0" sodipodi:nodetypes="cc"/><path id="shape7" transform="matrix(-0.999999955529756 0 0 0.999999955529756 101.569244638531 22.713706480825)" fill="none" stroke="#000000" stroke-width="0.72" stroke-linecap="square" stroke-linejoin="miter" stroke-miterlimit="2" d="M0 0L4.14 2.52" sodipodi:nodetypes="cc"/><path id="shape8" transform="matrix(-0.999999955529756 0 0 0.999999955529756 97.4292447707483 20.7337065440593)" fill="none" stroke="#000000" stroke-width="0.72" stroke-linecap="square" stroke-linejoin="miter" stroke-miterlimit="2" d="M0 4.5L5.94 0" sodipodi:nodetypes="cc"/><path id="shape9" transform="matrix(-0.999999955529756 0 0 0.999999955529756 109.309244391342 11.5537068372369)" fill="none" stroke="#000000" stroke-width="0.72" stroke-linecap="square" stroke-linejoin="miter" stroke-miterlimit="2" d="M0 1.08L8.64 0" sodipodi:nodetypes="cc"/><path id="shape10" transform="matrix(-0.999999955529756 0 0 0.999999955529756 100.669244667274 11.5537068372369)" fill="none" stroke="#000000" stroke-width="0.72" stroke-linecap="square" stroke-linejoin="miter" stroke-miterlimit="2" d="M0 0L3.6 6.3" sodipodi:nodetypes="cc"/><path id="shape11" transform="matrix(-0.999999955529756 0 0 0.999999955529756 97.0692447822455 14.613706739511)" fill="none" stroke="#000000" stroke-width="0.72" stroke-linecap="square" stroke-linejoin="miter" stroke-miterlimit="2" d="M0 3.24L7.02 0" sodipodi:nodetypes="cc"/><path id="shape41" transform="matrix(1.26318852403375 0 0 0.999999964650322 -28.1605228262164 213.215425764088)" fill="none" stroke="#3b2300" stroke-width="2.16" stroke-linecap="square" stroke-linejoin="miter" stroke-miterlimit="2" d="M0 0L160.92 0.18" sodipodi:nodetypes="cc"/><path id="shape51" transform="matrix(1.26318852403375 0 0 0.999999964650321 -27.9621953594287 211.579339245617)" fill="none" stroke="#297f00" stroke-width="1.44" stroke-linecap="square" stroke-linejoin="miter" stroke-miterlimit="2" d="M0 0L161.135 0.127279" sodipodi:nodetypes="cc"/><path id="shape02" transform="matrix(0.999999853097052 0 0 0.936540938423094 7.54404342076906 64.0185152506006)" fill="none" stroke="#737373" stroke-width="2.16" stroke-linecap="square" stroke-linejoin="miter" stroke-miterlimit="2" d="M0 0L0 11.1415" sodipodi:nodetypes="cc"/><circle id="shape015" transform="matrix(1.43710228190869 0 0 1.46346153549191 6.36860438299214 75.4351529489993)" r="0.719999999999999" cx="0.719999999999999" cy="0.719999999999999" fill="#d00000" fill-rule="evenodd" stroke-opacity="0" stroke="#000000" stroke-width="0" stroke-linecap="square" stroke-linejoin="bevel"/><path id="shape021" transform="matrix(0.999999853097052 0 0 0.936540938423094 43.4367834150497 63.2548399315734)" fill="none" stroke="#737373" stroke-width="2.16" stroke-linecap="square" stroke-linejoin="miter" stroke-miterlimit="2" d="M0 0L0 11.1415" sodipodi:nodetypes="cc"/><circle id="shape0151" transform="matrix(1.43710228190869 0 0 1.46346153549191 42.2613443772727 74.671477629972)" r="0.719999999999999" cx="0.719999999999999" cy="0.719999999999999" fill="#d00000" fill-rule="evenodd" stroke-opacity="0" stroke="#000000" stroke-width="0" stroke-linecap="square" stroke-linejoin="bevel"/><path id="shape022" transform="matrix(0.999999853097052 0 0 0.936540938423094 103.044192156653 63.296589318532)" fill="none" stroke="#737373" stroke-width="2.16" stroke-linecap="square" stroke-linejoin="miter" stroke-miterlimit="2" d="M0 0L0 11.1415" sodipodi:nodetypes="cc"/><circle id="shape0152" transform="matrix(1.43710228190869 0 0 1.46346153549191 101.868753118876 74.7132270169307)" r="0.719999999999999" cx="0.719999999999999" cy="0.719999999999999" fill="#d00000" fill-rule="evenodd" stroke-opacity="0" stroke="#000000" stroke-width="0" stroke-linecap="square" stroke-linejoin="bevel"/><path id="shape023" transform="matrix(0.999999853097052 0 0 0.936540938423094 138.504194413336 63.296589318532)" fill="none" stroke="#737373" stroke-width="2.16" stroke-linecap="square" stroke-linejoin="miter" stroke-miterlimit="2" d="M0 0L0 11.1415" sodipodi:nodetypes="cc"/><circle id="shape0153" transform="matrix(1.43710228190869 0 0 1.46346153549191 137.328755375559 74.7132270169307)" r="0.719999999999999" cx="0.719999999999999" cy="0.719999999999999" fill="#d00000" fill-rule="evenodd" stroke-opacity="0" stroke="#000000" stroke-width="0" stroke-linecap="square" stroke-linejoin="bevel"/><path id="shape024" transform="matrix(0.999999853097052 0 0 0.936540938423094 37.3441879754888 26.3965869702071)" fill="none" stroke="#737373" stroke-width="2.16" stroke-linecap="square" stroke-linejoin="miter" stroke-miterlimit="2" d="M0 0L0 11.1415" sodipodi:nodetypes="cc"/><circle id="shape0154" transform="matrix(1.43710228190869 0 0 1.46346153549191 36.1687489377119 37.8132246686058)" r="0.719999999999999" cx="0.719999999999999" cy="0.719999999999999" fill="#d00000" fill-rule="evenodd" stroke-opacity="0" stroke="#000000" stroke-width="0" stroke-linecap="square" stroke-linejoin="bevel"/><path id="shape025" transform="matrix(0.999999853097052 0 0 0.936540938423094 109.58072546364 26.8015869895676)" fill="none" stroke="#737373" stroke-width="2.16" stroke-linecap="square" stroke-linejoin="miter" stroke-miterlimit="2" d="M0 0L0 11.1415" sodipodi:nodetypes="cc"/><circle id="shape0155" transform="matrix(1.43710228190869 0 0 1.46346153549191 108.405286425863 38.2182246879663)" r="0.719999999999999" cx="0.719999999999999" cy="0.719999999999999" fill="#d00000" fill-rule="evenodd" stroke-opacity="0" stroke="#000000" stroke-width="0" stroke-linecap="square" stroke-linejoin="bevel"/>
</svg>
