<?xml version="1.0" standalone="no"?>
<!DOCTYPE svg PUBLIC "-//W3C//DTD SVG 20010904//EN" "http://www.w3.org/TR/2001/REC-SVG-20010904/DTD/svg10.dtd">
<!-- Created using Krita: https://krita.org -->
<svg xmlns="http://www.w3.org/2000/svg" 
    xmlns:xlink="http://www.w3.org/1999/xlink"
    xmlns:krita="http://krita.org/namespaces/svg/krita"
    xmlns:sodipodi="http://sodipodi.sourceforge.net/DTD/sodipodi-0.dtd"
    width="149.04pt"
    height="199.44pt"
    viewBox="0 0 149.04 199.44">
<defs/>
<path id="shape0" transform="matrix(0.999999983525162 0 0 0.999999983525162 63.961538740891 62.426386949343)" fill="none" stroke="#000000" stroke-width="1.44" stroke-linecap="square" stroke-linejoin="miter" stroke-miterlimit="2" d="M0 132.66L5.76 0" sodipodi:nodetypes="cc"/><path id="shape22" transform="matrix(0.999999983525162 0 0 0.999999983525162 79.8015390524459 62.2463869458026)" fill="none" stroke="#000000" stroke-width="1.44" stroke-linecap="square" stroke-linejoin="miter" stroke-miterlimit="2" d="M0 0L6.12 133.02" sodipodi:nodetypes="cc"/><path id="shape56" transform="matrix(0.999999983525162 0 0 0.999999983525162 80.1615409643312 54.2363895746512)" fill="none" stroke="#000000" stroke-width="0.72" stroke-linecap="square" stroke-linejoin="miter" stroke-miterlimit="2" d="M0 0L0.09 7.83" sodipodi:nodetypes="cc"/><path id="shape57" transform="matrix(0.999999983525162 0 0 0.999999983525162 69.7215403482868 62.0663900366845)" fill="none" stroke="#000000" stroke-width="0.72" stroke-linecap="square" stroke-linejoin="miter" stroke-miterlimit="2" d="M10.53 0L0 0" sodipodi:nodetypes="cc"/><path id="shape71" transform="matrix(0.999999983525162 0 0 0.999999983525162 69.798026159512 54.3009133053431)" fill="none" stroke="#000000" stroke-width="0.72" stroke-linecap="square" stroke-linejoin="miter" stroke-miterlimit="2" d="M10.0551 0L0 8.52771" sodipodi:nodetypes="cc"/><path id="shape72" transform="matrix(0.999999983525162 0 0 0.999999983525162 69.6707469352566 62.9559005547074)" fill="none" stroke="#000000" stroke-width="0.72" stroke-linecap="square" stroke-linejoin="miter" stroke-miterlimit="2" d="M0 0L10.4369 10.0551" sodipodi:nodetypes="cc"/><path id="shape73" transform="matrix(0.999999983525162 0 0 0.999999983525162 68.6525131412137 73.0109592708806)" fill="none" stroke="#000000" stroke-width="0.72" stroke-linecap="square" stroke-linejoin="miter" stroke-miterlimit="2" d="M11.4551 0L0 10.8187" sodipodi:nodetypes="cc"/><path id="shape74" transform="matrix(0.999999983525162 0 0 0.999999983525162 68.6525131412137 83.8296933325861)" fill="none" stroke="#000000" stroke-width="0.72" stroke-linecap="square" stroke-linejoin="miter" stroke-miterlimit="2" d="M0 0L12.4734 9.41866" sodipodi:nodetypes="cc"/><path id="shape75" transform="matrix(0.999999983525162 0 0 0.999999983525162 68.0161170199369 93.2483559274823)" fill="none" stroke="#000000" stroke-width="0.72" stroke-linecap="square" stroke-linejoin="miter" stroke-miterlimit="2" d="M13.1098 0L0 10.6915" sodipodi:nodetypes="cc"/><path id="shape76" transform="matrix(0.999999983525162 0 0 0.999999983525162 68.0161170199369 103.939810764932)" fill="none" stroke="#000000" stroke-width="0.72" stroke-linecap="square" stroke-linejoin="miter" stroke-miterlimit="2" d="M0 0L14.3826 12.8552" sodipodi:nodetypes="cc"/><path id="shape77" transform="matrix(0.999999983525162 0 0 0.999999983525162 66.616045553128 116.795012414724)" fill="none" stroke="#000000" stroke-width="0.72" stroke-linecap="square" stroke-linejoin="miter" stroke-miterlimit="2" d="M15.7826 0L0 15.7826" sodipodi:nodetypes="cc"/><path id="shape78" transform="matrix(0.999999983525162 0 0 0.999999983525162 66.4887663288727 132.577636222388)" fill="none" stroke="#000000" stroke-width="0.72" stroke-linecap="square" stroke-linejoin="miter" stroke-miterlimit="2" d="M0 0L8.14587 8.40043" sodipodi:nodetypes="cc"/><path id="shape79" transform="matrix(0.999999983525162 0 0 0.999999983525162 74.6346366812155 140.978065023241)" fill="none" stroke="#000000" stroke-width="0.72" stroke-linecap="square" stroke-linejoin="miter" stroke-miterlimit="2" d="M0 0L10.0551 13.3643" sodipodi:nodetypes="cc"/><path id="shape80" transform="matrix(0.999999983525162 0 0 0.999999983525162 65.215974086319 154.342383570054)" fill="none" stroke="#000000" stroke-width="0.72" stroke-linecap="square" stroke-linejoin="miter" stroke-miterlimit="2" d="M19.3464 0L0 19.601" sodipodi:nodetypes="cc"/><path id="shape81" transform="matrix(0.999999983525162 0 0 0.999999983525162 65.215974086319 173.943384105379)" fill="none" stroke="#000000" stroke-width="0.72" stroke-linecap="square" stroke-linejoin="miter" stroke-miterlimit="2" d="M0 0L20.3647 19.9828" sodipodi:nodetypes="cc"/><path id="shape82" transform="matrix(0.999999983525162 0 0 0.999999983525162 64.1977402922762 173.943384105379)" fill="none" stroke="#000000" stroke-width="0.72" stroke-linecap="square" stroke-linejoin="miter" stroke-miterlimit="2" d="M0 19.3464L20.6192 0" sodipodi:nodetypes="cc"/><path id="shape83" transform="matrix(0.999999983525162 0 0 0.999999983525162 65.4705325348298 153.960545897288)" fill="none" stroke="#000000" stroke-width="0.72" stroke-linecap="square" stroke-linejoin="miter" stroke-miterlimit="2" d="M19.3464 19.9828L0 0" sodipodi:nodetypes="cc"/><path id="shape84" transform="matrix(0.999999983525162 0 0 0.999999983525162 65.4705325348298 140.723506574731)" fill="none" stroke="#000000" stroke-width="0.72" stroke-linecap="square" stroke-linejoin="miter" stroke-miterlimit="2" d="M0 13.237L8.90955 0" sodipodi:nodetypes="cc"/><path id="shape85" transform="matrix(0.999999983525162 0 0 0.999999983525162 74.3800782327048 132.577636222388)" fill="none" stroke="#000000" stroke-width="0.72" stroke-linecap="square" stroke-linejoin="miter" stroke-miterlimit="2" d="M0 8.14587L8.52771 0" sodipodi:nodetypes="cc"/><path id="shape86" transform="matrix(0.999999983525162 0 0 0.999999983525162 67.3797208986602 116.922291638979)" fill="none" stroke="#000000" stroke-width="0.72" stroke-linecap="square" stroke-linejoin="miter" stroke-miterlimit="2" d="M15.5281 15.6553L0 0" sodipodi:nodetypes="cc"/><path id="shape87" transform="matrix(0.999999983525162 0 0 0.999999983525162 67.3797208986602 103.430693867911)" fill="none" stroke="#000000" stroke-width="0.72" stroke-linecap="square" stroke-linejoin="miter" stroke-miterlimit="2" d="M0 13.4916L14.3826 0" sodipodi:nodetypes="cc"/><path id="shape88" transform="matrix(0.999999983525162 0 0 0.999999983525162 68.397954692703 93.5029143759935)" fill="none" stroke="#000000" stroke-width="0.72" stroke-linecap="square" stroke-linejoin="miter" stroke-miterlimit="2" d="M13.3643 9.92778L0 0" sodipodi:nodetypes="cc"/><path id="shape89" transform="matrix(0.999999983525162 0 0 0.999999983525162 68.397954692703 83.0660179870539)" fill="none" stroke="#000000" stroke-width="0.72" stroke-linecap="square" stroke-linejoin="miter" stroke-miterlimit="2" d="M0 10.4369L12.0915 0" sodipodi:nodetypes="cc"/><path id="shape90" transform="matrix(0.999999983525162 0 0 0.999999983525162 68.9070715897244 72.75640082237)" fill="none" stroke="#000000" stroke-width="0.72" stroke-linecap="square" stroke-linejoin="miter" stroke-miterlimit="2" d="M11.5824 10.3096L0 0" sodipodi:nodetypes="cc"/><path id="shape91" transform="matrix(0.999999983525162 0 0 0.999999983525162 68.9070715897244 62.7013421061967)" fill="none" stroke="#000000" stroke-width="0.72" stroke-linecap="square" stroke-linejoin="miter" stroke-miterlimit="2" d="M0 10.0551L10.6915 0" sodipodi:nodetypes="cc"/><path id="shape92" transform="matrix(0.999999983525162 0 0 0.999999983525162 70.1798638322781 54.4281925295986)" fill="none" stroke="#000000" stroke-width="0.72" stroke-linecap="square" stroke-linejoin="miter" stroke-miterlimit="2" d="M9.41866 8.27315L0 0" sodipodi:nodetypes="cc"/><path id="shape0231" transform="matrix(1.50476170471543 0 0 1.40481142724675 109.130065017514 63.8784696366982)" fill="none" stroke="#737373" stroke-width="1.44" stroke-linecap="square" stroke-linejoin="miter" stroke-miterlimit="2" d="M0 0L0 6.27972" sodipodi:nodetypes="cc"/><circle id="shape01531" transform="matrix(2.16249679725253 0 0 2.19519233388423 107.488588320136 73.4939528722133)" r="0.719999999999999" cx="0.719999999999999" cy="0.719999999999999" fill="#d00000" fill-rule="evenodd" stroke-opacity="0" stroke="#000000" stroke-width="0" stroke-linecap="square" stroke-linejoin="bevel"/><path id="shape41" transform="matrix(1.0667727207525 0 0 1.49999989820246 -1.78190907862947 197.76315867666)" fill="none" stroke="#3b2300" stroke-width="2.16" stroke-linecap="square" stroke-linejoin="miter" stroke-miterlimit="2" d="M0 0L160.92 0.18" sodipodi:nodetypes="cc"/><path id="shape51" transform="matrix(1.0667727207525 0 0 1.49999989820246 -1.61441996095652 195.309028978751)" fill="none" stroke="#297f00" stroke-width="1.44" stroke-linecap="square" stroke-linejoin="miter" stroke-miterlimit="2" d="M0 0L161.135 0.127279" sodipodi:nodetypes="cc"/><path id="shape0" transform="translate(79.9199984231053, 62.2799990088301)" fill="none" stroke="#000000" stroke-width="1.44" stroke-linecap="square" stroke-linejoin="miter" stroke-miterlimit="2" d="M0 0L65.16 0" sodipodi:nodetypes="cc"/><path id="shape1" transform="translate(80.2799984208146, 53.9999990615148)" fill="none" stroke="#000000" stroke-width="1.44" stroke-linecap="square" stroke-linejoin="miter" stroke-miterlimit="2" d="M64.8 8.28L0 0" sodipodi:nodetypes="cc"/><path id="shape2" transform="translate(80.09999842196, 22.8599992596549)" fill="none" stroke="#000000" stroke-width="1.44" stroke-linecap="square" stroke-linejoin="miter" stroke-miterlimit="2" d="M0.18 31.14L0 0" sodipodi:nodetypes="cc"/><path id="shape3" transform="translate(80.09999842196, 22.6799992608003)" fill="none" stroke="#000000" stroke-width="1.44" stroke-linecap="square" stroke-linejoin="miter" stroke-miterlimit="2" d="M0 0.18L34.56 0" sodipodi:nodetypes="cc"/><path id="shape4" transform="translate(94.3199983314798, 15.8399993043224)" fill="none" stroke="#000000" stroke-width="1.44" stroke-linecap="square" stroke-linejoin="miter" stroke-miterlimit="2" d="M20.34 6.84L0 0" sodipodi:nodetypes="cc"/><path id="shape5" transform="translate(94.3199983314798, 4.67999937533213)" fill="none" stroke="#000000" stroke-width="1.44" stroke-linecap="square" stroke-linejoin="miter" stroke-miterlimit="2" d="M0 11.16L24.84 0" sodipodi:nodetypes="cc"/><path id="shape6" transform="translate(80.09999842196, 4.67999937533213)" fill="none" stroke="#000000" stroke-width="1.44" stroke-linecap="square" stroke-linejoin="miter" stroke-miterlimit="2" d="M39.06 0L0 6.48" sodipodi:nodetypes="cc"/><path id="shape7" transform="translate(69.1199984918244, 11.1599993341007)" fill="none" stroke="#000000" stroke-width="1.44" stroke-linecap="square" stroke-linejoin="miter" stroke-miterlimit="2" d="M10.98 0L0 0" sodipodi:nodetypes="cc"/><path id="shape8" transform="translate(30.959998734632, 4.49999937647745)" fill="none" stroke="#000000" stroke-width="1.44" stroke-linecap="square" stroke-linejoin="miter" stroke-miterlimit="2" d="M38.16 6.66L0 0" sodipodi:nodetypes="cc"/><path id="shape9" transform="translate(30.959998734632, 4.49999937647745)" fill="none" stroke="#000000" stroke-width="1.44" stroke-linecap="square" stroke-linejoin="miter" stroke-miterlimit="2" d="M0 0L23.58 11.52" sodipodi:nodetypes="cc"/><path id="shape10" transform="translate(34.1999987140163, 16.0199993031771)" fill="none" stroke="#000000" stroke-width="1.44" stroke-linecap="square" stroke-linejoin="miter" stroke-miterlimit="2" d="M20.34 0L0 6.84" sodipodi:nodetypes="cc"/><path id="shape11" transform="translate(34.1999987140163, 22.6799992608003)" fill="none" stroke="#000000" stroke-width="1.44" stroke-linecap="square" stroke-linejoin="miter" stroke-miterlimit="2" d="M0 0.18L34.92 0" sodipodi:nodetypes="cc"/><path id="shape12" transform="translate(69.1199984918244, 22.6799992608003)" fill="none" stroke="#000000" stroke-width="1.44" stroke-linecap="square" stroke-linejoin="miter" stroke-miterlimit="2" d="M0 0L0.18 30.6" sodipodi:nodetypes="cc"/><path id="shape13" transform="translate(3.95999890642982, 53.2799990660961)" fill="none" stroke="#000000" stroke-width="1.44" stroke-linecap="square" stroke-linejoin="miter" stroke-miterlimit="2" d="M65.34 0L0 9" sodipodi:nodetypes="cc"/><path id="shape14" transform="translate(3.9599989064298, 62.0999990099754)" fill="none" stroke="#000000" stroke-width="1.44" stroke-linecap="square" stroke-linejoin="miter" stroke-miterlimit="2" d="M0 0.18L65.7 0" sodipodi:nodetypes="cc"/><path id="shape15" transform="translate(100.980002829861, 6.4800001894714)" fill="none" stroke="#000000" stroke-width="0.72" stroke-linecap="square" stroke-linejoin="miter" stroke-miterlimit="2" d="M4.86 0L0 6.48" sodipodi:nodetypes="cc"/><path id="shape16" transform="translate(94.4100026467841, 8.46000024464541)" fill="none" stroke="#000000" stroke-width="0.72" stroke-linecap="square" stroke-linejoin="miter" stroke-miterlimit="2" d="M6.57 4.5L0 0" sodipodi:nodetypes="cc"/><path id="shape17" transform="translate(94.4100026467841, 8.46000024464541)" fill="none" stroke="#000000" stroke-width="0.72" stroke-linecap="square" stroke-linejoin="miter" stroke-miterlimit="2" d="M0 0L0.09 14.13" sodipodi:nodetypes="cc"/><path id="shape18" transform="translate(94.9500026618315, 16.2900004628335)" fill="none" stroke="#000000" stroke-width="0.72" stroke-linecap="square" stroke-linejoin="miter" stroke-miterlimit="2" d="M0 0L8.91 6.21" sodipodi:nodetypes="cc"/><path id="shape19" transform="translate(103.860002910115, 19.800000560642)" fill="none" stroke="#000000" stroke-width="0.72" stroke-linecap="square" stroke-linejoin="miter" stroke-miterlimit="2" d="M0 2.7L1.8 0" sodipodi:nodetypes="cc"/><path id="shape20" transform="translate(80.1000022480265, 10.9800003148669)" fill="none" stroke="#000000" stroke-width="0.72" stroke-linecap="square" stroke-linejoin="miter" stroke-miterlimit="2" d="M0 0L14.4 4.95" sodipodi:nodetypes="cc"/><path id="shape21" transform="translate(79.9200022430107, 15.9300004528019)" fill="none" stroke="#000000" stroke-width="0.72" stroke-linecap="square" stroke-linejoin="miter" stroke-miterlimit="2" d="M14.58 0L0 6.66" sodipodi:nodetypes="cc"/><path id="shape22" transform="translate(79.9200022430107, 11.4300003274064)" fill="none" stroke="#000000" stroke-width="0.72" stroke-linecap="square" stroke-linejoin="miter" stroke-miterlimit="2" d="M0 11.16L0.09 0" sodipodi:nodetypes="cc"/><path id="shape23" transform="translate(69.0300019395536, 11.4300003274064)" fill="none" stroke="#000000" stroke-width="0.72" stroke-linecap="square" stroke-linejoin="miter" stroke-miterlimit="2" d="M0 0L0 11.07" sodipodi:nodetypes="cc"/><path id="shape24" transform="translate(54.720001540796, 15.7500004477861)" fill="none" stroke="#000000" stroke-width="0.72" stroke-linecap="square" stroke-linejoin="miter" stroke-miterlimit="2" d="M14.31 6.75L0 0" sodipodi:nodetypes="cc"/><path id="shape25" transform="translate(54.720001540796, 10.8000003098511)" fill="none" stroke="#000000" stroke-width="0.72" stroke-linecap="square" stroke-linejoin="miter" stroke-miterlimit="2" d="M0 4.95L14.49 0" sodipodi:nodetypes="cc"/><path id="shape26" transform="translate(54.9900015483197, 8.91000025718496)" fill="none" stroke="#000000" stroke-width="0.72" stroke-linecap="square" stroke-linejoin="miter" stroke-miterlimit="2" d="M0 0L0.09 13.59" sodipodi:nodetypes="cc"/><path id="shape27" transform="translate(48.6000013702582, 8.64000024966123)" fill="none" stroke="#000000" stroke-width="0.72" stroke-linecap="square" stroke-linejoin="miter" stroke-miterlimit="2" d="M5.67 0L0 4.41" sodipodi:nodetypes="cc"/><path id="shape28" transform="translate(43.0200012147678, 6.84000019950304)" fill="none" stroke="#000000" stroke-width="0.72" stroke-linecap="square" stroke-linejoin="miter" stroke-miterlimit="2" d="M5.58 6.21L0 0" sodipodi:nodetypes="cc"/><path id="shape29" transform="translate(46.5300013125763, 16.0200004553098)" fill="none" stroke="#000000" stroke-width="0.72" stroke-linecap="square" stroke-linejoin="miter" stroke-miterlimit="2" d="M8.1 0L0 6.66" sodipodi:nodetypes="cc"/><path id="shape30" transform="translate(43.3800012247994, 19.7100005581341)" fill="none" stroke="#000000" stroke-width="0.72" stroke-linecap="square" stroke-linejoin="miter" stroke-miterlimit="2" d="M3.15 2.79L0 0" sodipodi:nodetypes="cc"/><path id="shape31" transform="translate(69.0300019395536, 10.9800003148669)" fill="none" stroke="#000000" stroke-width="0.72" stroke-linecap="square" stroke-linejoin="miter" stroke-miterlimit="2" d="M0 0L11.16 11.88" sodipodi:nodetypes="cc"/><path id="shape32" transform="translate(69.1200019420616, 22.8600006459109)" fill="none" stroke="#000000" stroke-width="0.72" stroke-linecap="square" stroke-linejoin="miter" stroke-miterlimit="2" d="M11.07 0L0 10.17" sodipodi:nodetypes="cc"/><path id="shape33" transform="translate(69.1200019420615, 33.0300009293047)" fill="none" stroke="#000000" stroke-width="0.72" stroke-linecap="square" stroke-linejoin="miter" stroke-miterlimit="2" d="M0 0L11.16 10.53" sodipodi:nodetypes="cc"/><path id="shape34" transform="translate(69.660001957109, 43.5600012227301)" fill="none" stroke="#000000" stroke-width="0.72" stroke-linecap="square" stroke-linejoin="miter" stroke-miterlimit="2" d="M10.62 0L0 9.72" sodipodi:nodetypes="cc"/><path id="shape35" transform="translate(68.9400019370457, 43.3800012177143)" fill="none" stroke="#000000" stroke-width="0.72" stroke-linecap="square" stroke-linejoin="miter" stroke-miterlimit="2" d="M11.25 10.08L0 0" sodipodi:nodetypes="cc"/><path id="shape36" transform="translate(68.9400019370457, 32.6700009192731)" fill="none" stroke="#000000" stroke-width="0.72" stroke-linecap="square" stroke-linejoin="miter" stroke-miterlimit="2" d="M0 10.71L11.43 0" sodipodi:nodetypes="cc"/><path id="shape37" transform="translate(69.2100019445694, 22.5000006358793)" fill="none" stroke="#000000" stroke-width="0.72" stroke-linecap="square" stroke-linejoin="miter" stroke-miterlimit="2" d="M11.16 10.17L0 0" sodipodi:nodetypes="cc"/><path id="shape38" transform="translate(69.2100019445694, 11.4300003274064)" fill="none" stroke="#000000" stroke-width="0.72" stroke-linecap="square" stroke-linejoin="miter" stroke-miterlimit="2" d="M0 11.07L10.53 0" sodipodi:nodetypes="cc"/><path id="shape39" transform="translate(69.2100019445694, 22.5900006383872)" fill="none" stroke="#000000" stroke-width="0.72" stroke-linecap="square" stroke-linejoin="miter" stroke-miterlimit="2" d="M0 0.09L10.89 0" sodipodi:nodetypes="cc"/><path id="shape40" transform="translate(80.4600004821406, 54.0000003791128)" fill="none" stroke="#000000" stroke-width="0.72" stroke-linecap="square" stroke-linejoin="miter" stroke-miterlimit="2" d="M0 0L13.32 8.19" sodipodi:nodetypes="cc"/><path id="shape41" transform="translate(93.7800006423676, 57.7800004245826)" fill="none" stroke="#000000" stroke-width="0.72" stroke-linecap="square" stroke-linejoin="miter" stroke-miterlimit="2" d="M0 4.41L15.21 0" sodipodi:nodetypes="cc"/><path id="shape42" transform="translate(108.990000825329, 57.7800004245826)" fill="none" stroke="#000000" stroke-width="0.72" stroke-linecap="square" stroke-linejoin="miter" stroke-miterlimit="2" d="M0 0L6.57 4.59" sodipodi:nodetypes="cc"/><path id="shape43" transform="translate(115.56000090436, 59.1300004408218)" fill="none" stroke="#000000" stroke-width="0.72" stroke-linecap="square" stroke-linejoin="miter" stroke-miterlimit="2" d="M0 3.24L5.67 0" sodipodi:nodetypes="cc"/><path id="shape44" transform="translate(121.230000972565, 59.1300004408218)" fill="none" stroke="#000000" stroke-width="0.72" stroke-linecap="square" stroke-linejoin="miter" stroke-miterlimit="2" d="M0 0L0 3.33" sodipodi:nodetypes="cc"/><path id="shape45" transform="translate(109.080000826412, 57.7800004245826)" fill="none" stroke="#000000" stroke-width="0.72" stroke-linecap="square" stroke-linejoin="miter" stroke-miterlimit="2" d="M0 0L0.09 4.41" sodipodi:nodetypes="cc"/><path id="shape46" transform="translate(55.1700001779259, 53.730000375865)" fill="none" stroke="#000000" stroke-width="0.72" stroke-linecap="square" stroke-linejoin="miter" stroke-miterlimit="2" d="M13.5 0L0 8.55" sodipodi:nodetypes="cc"/><path id="shape47" transform="translate(40.2299999982119, 57.3300004191696)" fill="none" stroke="#000000" stroke-width="0.72" stroke-linecap="square" stroke-linejoin="miter" stroke-miterlimit="2" d="M14.94 4.95L0 0" sodipodi:nodetypes="cc"/><path id="shape48" transform="translate(40.1399999971293, 57.3300004191695)" fill="none" stroke="#000000" stroke-width="0.72" stroke-linecap="square" stroke-linejoin="miter" stroke-miterlimit="2" d="M0.09 0L0 5.04" sodipodi:nodetypes="cc"/><path id="shape49" transform="translate(34.1099999245941, 57.3300004191696)" fill="none" stroke="#000000" stroke-width="0.72" stroke-linecap="square" stroke-linejoin="miter" stroke-miterlimit="2" d="M6.03 0L0 4.86" sodipodi:nodetypes="cc"/><path id="shape50" transform="translate(27.7199998477285, 59.1300004408218)" fill="none" stroke="#000000" stroke-width="0.72" stroke-linecap="square" stroke-linejoin="miter" stroke-miterlimit="2" d="M6.39 3.06L0 0" sodipodi:nodetypes="cc"/><path id="shape02311" transform="matrix(1.50476165995193 0 0 1.40481138545656 144.58600023416 63.6437844491142)" fill="none" stroke="#737373" stroke-width="1.44" stroke-linecap="square" stroke-linejoin="miter" stroke-miterlimit="2" d="M0 0L0 6.27972" sodipodi:nodetypes="cc"/><circle id="shape015311" transform="matrix(2.16249673292279 0 0 2.19519226858187 142.944523585612 73.259267398589)" r="0.719999999999999" cx="0.719999999999999" cy="0.719999999999999" fill="#d00000" fill-rule="evenodd" stroke-opacity="0" stroke="#000000" stroke-width="0" stroke-linecap="square" stroke-linejoin="bevel"/><path id="shape02312" transform="matrix(1.50476165995193 0 0 1.40481138545656 4.89116845478312 63.8644892588745)" fill="none" stroke="#737373" stroke-width="1.44" stroke-linecap="square" stroke-linejoin="miter" stroke-miterlimit="2" d="M0 0L0 6.27972" sodipodi:nodetypes="cc"/><circle id="shape015312" transform="matrix(2.16249673292279 0 0 2.19519226858187 3.24969180623562 73.4799722083493)" r="0.719999999999999" cx="0.719999999999999" cy="0.719999999999999" fill="#d00000" fill-rule="evenodd" stroke-opacity="0" stroke="#000000" stroke-width="0" stroke-linecap="square" stroke-linejoin="bevel"/><path id="shape02313" transform="matrix(1.50476165995193 0 0 1.40481138545656 39.8876000726688 63.8847747169316)" fill="none" stroke="#737373" stroke-width="1.44" stroke-linecap="square" stroke-linejoin="miter" stroke-miterlimit="2" d="M0 0L0 6.27972" sodipodi:nodetypes="cc"/><circle id="shape015313" transform="matrix(2.16249673292279 0 0 2.19519226858187 38.2461234241214 73.5002576664064)" r="0.719999999999999" cx="0.719999999999999" cy="0.719999999999999" fill="#d00000" fill-rule="evenodd" stroke-opacity="0" stroke="#000000" stroke-width="0" stroke-linecap="square" stroke-linejoin="bevel"/><path id="shape02314" transform="matrix(1.50476165995193 0 0 1.40481138545656 113.666087474409 24.4516585240279)" fill="none" stroke="#737373" stroke-width="1.44" stroke-linecap="square" stroke-linejoin="miter" stroke-miterlimit="2" d="M0 0L0 6.27972" sodipodi:nodetypes="cc"/><circle id="shape015314" transform="matrix(2.16249673292279 0 0 2.19519226858187 112.024610825861 34.0671414735026)" r="0.719999999999999" cx="0.719999999999999" cy="0.719999999999999" fill="#d00000" fill-rule="evenodd" stroke-opacity="0" stroke="#000000" stroke-width="0" stroke-linecap="square" stroke-linejoin="bevel"/><path id="shape02315" transform="matrix(1.50476165995193 0 0 1.40481138545656 35.9421598781345 24.2378466912443)" fill="none" stroke="#737373" stroke-width="1.44" stroke-linecap="square" stroke-linejoin="miter" stroke-miterlimit="2" d="M0 0L0 6.27972" sodipodi:nodetypes="cc"/><circle id="shape015315" transform="matrix(2.16249673292279 0 0 2.19519226858187 34.300683229587 33.8533296407191)" r="0.719999999999999" cx="0.719999999999999" cy="0.719999999999999" fill="#d00000" fill-rule="evenodd" stroke-opacity="0" stroke="#000000" stroke-width="0" stroke-linecap="square" stroke-linejoin="bevel"/><path id="shape51" transform="translate(69.2100066869231, 53.190004820454)" fill="none" stroke="#000000" stroke-width="0.72" stroke-linecap="square" stroke-linejoin="miter" stroke-miterlimit="2" d="M0 0.09L11.34 0" sodipodi:nodetypes="cc"/><path id="shape52" transform="translate(69.2524218560848, 53.1272467228022)" fill="none" stroke="#000000" stroke-width="0.72" stroke-linecap="square" stroke-linejoin="miter" stroke-miterlimit="2" d="M0 9.03682L0 0" sodipodi:nodetypes="cc"/>
</svg>
