<?xml version="1.0" standalone="no"?>
<!DOCTYPE svg PUBLIC "-//W3C//DTD SVG 20010904//EN" "http://www.w3.org/TR/2001/REC-SVG-20010904/DTD/svg10.dtd">
<!-- Created using Krita: https://krita.org -->
<svg xmlns="http://www.w3.org/2000/svg" 
    xmlns:xlink="http://www.w3.org/1999/xlink"
    xmlns:krita="http://krita.org/namespaces/svg/krita"
    xmlns:sodipodi="http://sodipodi.sourceforge.net/DTD/sodipodi-0.dtd"
    width="109.44pt"
    height="216.72pt"
    viewBox="0 0 109.44 216.72">
<defs/>
<path id="shape0" transform="matrix(0.848759079314742 0 0 0.999999916516848 48.14737836527 11.1759560242797)" fill="none" stroke="#000000" stroke-width="1.44" stroke-linecap="square" stroke-linejoin="miter" stroke-miterlimit="2" d="M0.127279 0L0 69.4945" sodipodi:nodetypes="cc"/><path id="shape1" transform="matrix(0.848759079314742 0 0 0.999999916516848 60.4627293918035 11.1759560242798)" fill="none" stroke="#000000" stroke-width="1.44" stroke-linecap="square" stroke-linejoin="miter" stroke-miterlimit="2" d="M0 0L0.127279 69.6217" sodipodi:nodetypes="cc"/><path id="shape2" transform="matrix(0.848759079314742 0 0 1.27429435220113 60.7000885481022 81.120903247808)" fill="none" stroke="#000000" stroke-width="1.44" stroke-linecap="square" stroke-linejoin="miter" stroke-miterlimit="2" d="M0 0L13.7376 104.716" sodipodi:nodetypes="cc"/><path id="shape3" transform="matrix(0.848759079314742 0 0 1.27429435220113 35.9999991993824 80.6621572840182)" fill="none" stroke="#000000" stroke-width="1.44" stroke-linecap="square" stroke-linejoin="miter" stroke-miterlimit="2" d="M0 104.652L14.1614 0" sodipodi:nodetypes="cc"/><path id="shape4" transform="matrix(0.848759079314742 0 0 0.999999916516848 19.4115613418868 89.4526744412658)" fill="none" stroke="#000000" stroke-width="1.44" stroke-linecap="square" stroke-linejoin="miter" stroke-miterlimit="2" d="M0 0.254558L82.3497 0" sodipodi:nodetypes="cc"/><path id="shape5" transform="matrix(0.848759079314742 0 0 0.999999916516848 47.8232932639825 80.2885709116073)" fill="none" stroke="#000000" stroke-width="1.44" stroke-linecap="square" stroke-linejoin="miter" stroke-miterlimit="2" d="M15.0189 0.127279L0 0" sodipodi:nodetypes="cc"/><path id="shape6" transform="matrix(0.848759079314742 0 0 0.999999916516848 22.4363845123001 80.2885709116073)" fill="none" stroke="#000000" stroke-width="1.44" stroke-linecap="square" stroke-linejoin="miter" stroke-miterlimit="2" d="M29.9106 0L0 7.00036" sodipodi:nodetypes="cc"/><path id="shape7" transform="matrix(0.848759079314742 0 0 0.999999916516848 19.3035319429436 87.2889277745408)" fill="none" stroke="#000000" stroke-width="1.44" stroke-linecap="square" stroke-linejoin="miter" stroke-miterlimit="2" d="M3.6911 0L0 2.29103" sodipodi:nodetypes="cc"/><path id="shape8" transform="matrix(0.848759079314742 0 0 0.999999916516848 60.6787917382387 80.5431293429866)" fill="none" stroke="#000000" stroke-width="1.44" stroke-linecap="square" stroke-linejoin="miter" stroke-miterlimit="2" d="M0 0L28.0014 6.23668" sodipodi:nodetypes="cc"/><path id="shape9" transform="matrix(0.848759079314742 0 0 0.999999916516848 84.4452595057713 86.7798109117821)" fill="none" stroke="#000000" stroke-width="1.44" stroke-linecap="square" stroke-linejoin="miter" stroke-miterlimit="2" d="M0 0L5.60029 2.67286" sodipodi:nodetypes="cc"/><path id="shape10" transform="matrix(0.848759079314742 0 0 0.999999916516848 10.013002905008 55.0872851790694)" fill="none" stroke="#000000" stroke-width="1.44" stroke-linecap="square" stroke-linejoin="miter" stroke-miterlimit="2" d="M0 0.127279L104.369 0" sodipodi:nodetypes="cc"/><path id="shape11" transform="matrix(0.848759079314742 0 0 0.999999916516848 93.1956387740409 52.5417009055887)" fill="none" stroke="#000000" stroke-width="1.44" stroke-linecap="square" stroke-linejoin="miter" stroke-miterlimit="2" d="M6.36396 2.54558L0 0" sodipodi:nodetypes="cc"/><path id="shape12" transform="matrix(0.848759079314742 0 0 0.999999916516848 60.5707608098228 46.5595778629091)" fill="none" stroke="#000000" stroke-width="1.44" stroke-linecap="square" stroke-linejoin="miter" stroke-miterlimit="2" d="M38.4383 5.98212L0 0" sodipodi:nodetypes="cc"/><path id="shape13" transform="matrix(0.848759079314742 0 0 0.999999916516848 47.499203744689 46.5595778629091)" fill="none" stroke="#000000" stroke-width="1.44" stroke-linecap="square" stroke-linejoin="miter" stroke-miterlimit="2" d="M15.4008 0L0 0" sodipodi:nodetypes="cc"/><path id="shape14" transform="matrix(0.848759079314742 0 0 0.999999916516848 14.4422081915409 46.5595778629091)" fill="none" stroke="#000000" stroke-width="1.44" stroke-linecap="square" stroke-linejoin="miter" stroke-miterlimit="2" d="M38.9474 0L0 6.36396" sodipodi:nodetypes="cc"/><path id="shape15" transform="matrix(0.848759079314742 0 0 0.999999916516848 9.79694411054302 52.9235385466107)" fill="none" stroke="#000000" stroke-width="1.44" stroke-linecap="square" stroke-linejoin="miter" stroke-miterlimit="2" d="M5.47301 0L0 2.29103" sodipodi:nodetypes="cc"/><path id="shape16" transform="matrix(0.848759079314742 0 0 0.999999916516848 20.8159408284774 19.8309420560912)" fill="none" stroke="#000000" stroke-width="1.44" stroke-linecap="square" stroke-linejoin="miter" stroke-miterlimit="2" d="M0 0L79.4222 0.127279" sodipodi:nodetypes="cc"/><path id="shape17" transform="matrix(0.848759079314742 0 0 0.999999916516848 84.1211656016484 17.6671954921655)" fill="none" stroke="#000000" stroke-width="1.44" stroke-linecap="square" stroke-linejoin="miter" stroke-miterlimit="2" d="M4.83661 2.29103L0 0" sodipodi:nodetypes="cc"/><path id="shape18" transform="matrix(0.848759079314742 0 0 0.999999916516848 70.5094619814786 13.8488192028848)" fill="none" stroke="#000000" stroke-width="1.44" stroke-linecap="square" stroke-linejoin="miter" stroke-miterlimit="2" d="M16.0372 3.81838L0 0" sodipodi:nodetypes="cc"/><path id="shape19" transform="matrix(0.848759079314742 0 0 0.999999916516848 70.5094619814786 2.90280717361346)" fill="none" stroke="#000000" stroke-width="1.44" stroke-linecap="square" stroke-linejoin="miter" stroke-miterlimit="2" d="M0 10.946L24.0558 0" sodipodi:nodetypes="cc"/><path id="shape20" transform="matrix(0.848759079314742 0 0 0.999999916516848 60.894845932311 2.90280717361345)" fill="none" stroke="#000000" stroke-width="1.44" stroke-linecap="square" stroke-linejoin="miter" stroke-miterlimit="2" d="M35.3836 0L0 8.01859" sodipodi:nodetypes="cc"/><path id="shape21" transform="matrix(0.848759079314742 0 0 0.999999916516848 47.8232892811954 10.921397381103)" fill="none" stroke="#000000" stroke-width="1.44" stroke-linecap="square" stroke-linejoin="miter" stroke-miterlimit="2" d="M15.4008 0L0 0.127279" sodipodi:nodetypes="cc"/><path id="shape22" transform="matrix(0.848759079314742 0 0 0.999999916516848 17.2509708327187 2.64824875432808)" fill="none" stroke="#000000" stroke-width="1.44" stroke-linecap="square" stroke-linejoin="miter" stroke-miterlimit="2" d="M36.02 8.40043L0 0" sodipodi:nodetypes="cc"/><path id="shape23" transform="matrix(0.848759079314742 0 0 0.999999916516848 17.2509708327187 2.64824875432806)" fill="none" stroke="#000000" stroke-width="1.44" stroke-linecap="square" stroke-linejoin="miter" stroke-miterlimit="2" d="M0 0L24.0558 11.3279" sodipodi:nodetypes="cc"/><path id="shape24" transform="matrix(0.848759079314742 0 0 0.999999916516848 23.6247050675601 13.9760984125275)" fill="none" stroke="#000000" stroke-width="1.44" stroke-linecap="square" stroke-linejoin="miter" stroke-miterlimit="2" d="M16.5463 0L0 3.81838" sodipodi:nodetypes="cc"/><path id="shape25" transform="matrix(0.848759079314742 0 0 0.999999916516848 20.8159408284774 17.7944747018082)" fill="none" stroke="#000000" stroke-width="1.44" stroke-linecap="square" stroke-linejoin="miter" stroke-miterlimit="2" d="M3.30926 0L0 2.16375" sodipodi:nodetypes="cc"/><path id="shape41" transform="matrix(0.848759089599411 0 0 0.999999928634147 -14.7047089164713 215.691739399078)" fill="none" stroke="#3b2300" stroke-width="2.16" stroke-linecap="square" stroke-linejoin="miter" stroke-miterlimit="2" d="M0 0L160.92 0.18" sodipodi:nodetypes="cc"/><path id="shape51" transform="matrix(0.848759089599411 0 0 0.999999928634147 -14.5714491243259 214.055652939532)" fill="none" stroke="#297f00" stroke-width="1.44" stroke-linecap="square" stroke-linejoin="miter" stroke-miterlimit="2" d="M0 0L161.135 0.127279" sodipodi:nodetypes="cc"/><path id="shape26" transform="matrix(0.848759079314742 0 0 0.999999916516848 48.1724090065209 11.1321648571204)" fill="none" stroke="#000000" stroke-width="0.72" stroke-linecap="square" stroke-linejoin="miter" stroke-miterlimit="2" d="M0 0L14.49 8.82" sodipodi:nodetypes="cc"/><path id="shape27" transform="matrix(0.848759079314742 0 0 0.999999916516848 48.0960206859014 11.2221648537083)" fill="none" stroke="#000000" stroke-width="0.72" stroke-linecap="square" stroke-linejoin="miter" stroke-miterlimit="2" d="M14.58 0L0 8.91" sodipodi:nodetypes="cc"/><path id="shape28" transform="matrix(0.848759079314742 0 0 0.999999916516848 37.4780441198069 14.10216474452)" fill="none" stroke="#000000" stroke-width="0.72" stroke-linecap="square" stroke-linejoin="miter" stroke-miterlimit="2" d="M12.51 5.94L0 0" sodipodi:nodetypes="cc"/><path id="shape29" transform="matrix(0.848759079314742 0 0 0.999999916516848 37.4780441198069 10.9521648639447)" fill="none" stroke="#000000" stroke-width="0.72" stroke-linecap="square" stroke-linejoin="miter" stroke-miterlimit="2" d="M0 3.15L12.96 0" sodipodi:nodetypes="cc"/><path id="shape30" transform="matrix(0.848759079314742 0 0 0.999999916516848 60.7764819087193 11.0421648605326)" fill="none" stroke="#000000" stroke-width="0.72" stroke-linecap="square" stroke-linejoin="miter" stroke-miterlimit="2" d="M0 0L11.88 2.97" sodipodi:nodetypes="cc"/><path id="shape31" transform="matrix(0.848759079314742 0 0 0.999999916516848 60.3945403056223 14.0121647479321)" fill="none" stroke="#000000" stroke-width="0.72" stroke-linecap="square" stroke-linejoin="miter" stroke-miterlimit="2" d="M12.33 0L0 5.85" sodipodi:nodetypes="cc"/><path id="shape32" transform="matrix(0.848759079314742 0 0 0.999999916516848 71.0125168717168 8.34216496289657)" fill="none" stroke="#000000" stroke-width="0.72" stroke-linecap="square" stroke-linejoin="miter" stroke-miterlimit="2" d="M0.09 0L0 11.61" sodipodi:nodetypes="cc"/><path id="shape33" transform="matrix(0.848759079314742 0 0 0.999999916516848 37.9363740435232 8.43216495948441)" fill="none" stroke="#000000" stroke-width="0.72" stroke-linecap="square" stroke-linejoin="miter" stroke-miterlimit="2" d="M0.09 0L0 11.79" sodipodi:nodetypes="cc"/><path id="shape34" transform="matrix(0.848759079314742 0 0 0.999999916516848 48.0393509032048 46.45982813219)" fill="none" stroke="#000000" stroke-width="0.72" stroke-linecap="square" stroke-linejoin="miter" stroke-miterlimit="2" d="M0 0L14.6371 8.59135" sodipodi:nodetypes="cc"/><path id="shape35" transform="matrix(0.848759079314742 0 0 0.999999916516848 48.0933656019318 46.5234677391575)" fill="none" stroke="#000000" stroke-width="0.72" stroke-linecap="square" stroke-linejoin="miter" stroke-miterlimit="2" d="M14.7008 0L0 8.59135" sodipodi:nodetypes="cc"/><path id="shape36" transform="matrix(0.848759079314742 0 0 0.999999916516848 48.0960182369837 80.1621594778906)" fill="none" stroke="#000000" stroke-width="0.72" stroke-linecap="square" stroke-linejoin="miter" stroke-miterlimit="2" d="M0 0L16.02 9.54" sodipodi:nodetypes="cc"/><path id="shape37" transform="matrix(0.848759079314742 0 0 0.999999916516848 46.9501934610569 80.7021594416941)" fill="none" stroke="#000000" stroke-width="0.72" stroke-linecap="square" stroke-linejoin="miter" stroke-miterlimit="2" d="M16.11 0L0 8.82" sodipodi:nodetypes="cc"/><path id="shape38" transform="matrix(0.848759079314742 0 0 0.999999916516848 40.9094084315797 46.7780243769805)" fill="none" stroke="#000000" stroke-width="0.72" stroke-linecap="square" stroke-linejoin="miter" stroke-miterlimit="2" d="M8.01859 0L0 8.27315" sodipodi:nodetypes="cc"/><path id="shape39" transform="matrix(0.848759079314742 0 0 0.999999916516848 33.6714390129131 49.1963293713304)" fill="none" stroke="#000000" stroke-width="0.72" stroke-linecap="square" stroke-linejoin="miter" stroke-miterlimit="2" d="M8.52771 5.85484L0 0" sodipodi:nodetypes="cc"/><path id="shape40" transform="matrix(0.848759079314742 0 0 0.999999916516848 26.7575577771719 49.1963293713304)" fill="none" stroke="#000000" stroke-width="0.72" stroke-linecap="square" stroke-linejoin="miter" stroke-miterlimit="2" d="M8.14587 0L0 5.47301" sodipodi:nodetypes="cc"/><path id="shape411" transform="matrix(0.848759079314742 0 0 0.999999916516848 19.8436765414307 51.8691927861381)" fill="none" stroke="#000000" stroke-width="0.72" stroke-linecap="square" stroke-linejoin="miter" stroke-miterlimit="2" d="M8.14587 2.80014L0 0" sodipodi:nodetypes="cc"/><path id="shape42" transform="matrix(0.848759079314742 0 0 0.999999916516848 19.8436765414307 51.8691927861381)" fill="none" stroke="#000000" stroke-width="0.72" stroke-linecap="square" stroke-linejoin="miter" stroke-miterlimit="2" d="M0 0L0.127279 3.43654" sodipodi:nodetypes="cc"/><path id="shape43" transform="matrix(0.848759079314742 0 0 0.999999916516848 26.7575577771719 50.7236798940776)" fill="none" stroke="#000000" stroke-width="0.72" stroke-linecap="square" stroke-linejoin="miter" stroke-miterlimit="2" d="M0 0L0 4.58205" sodipodi:nodetypes="cc"/><path id="shape44" transform="matrix(0.848759079314742 0 0 0.999999916516848 33.8874978015299 48.8144917406436)" fill="none" stroke="#000000" stroke-width="0.72" stroke-linecap="square" stroke-linejoin="miter" stroke-miterlimit="2" d="M0.127279 0L0 6.23668" sodipodi:nodetypes="cc"/><path id="shape45" transform="matrix(0.848759079314742 0 0 0.999999916516848 41.1254672201966 48.1780956894989)" fill="none" stroke="#000000" stroke-width="0.72" stroke-linecap="square" stroke-linejoin="miter" stroke-miterlimit="2" d="M0.127279 0L0 6.61852" sodipodi:nodetypes="cc"/><path id="shape46" transform="matrix(0.848759079314742 0 0 0.999999916516848 60.4627288014103 46.9053035872095)" fill="none" stroke="#000000" stroke-width="0.72" stroke-linecap="square" stroke-linejoin="miter" stroke-miterlimit="2" d="M0 0L8.52771 8.01859" sodipodi:nodetypes="cc"/><path id="shape47" transform="matrix(0.848759079314742 0 0 0.999999916516848 67.7006982200768 49.3236085815594)" fill="none" stroke="#000000" stroke-width="0.72" stroke-linecap="square" stroke-linejoin="miter" stroke-miterlimit="2" d="M0 5.60029L8.78227 0" sodipodi:nodetypes="cc"/><path id="shape48" transform="matrix(0.848759079314742 0 0 0.999999916516848 75.1547264273603 49.3236085815594)" fill="none" stroke="#000000" stroke-width="0.72" stroke-linecap="square" stroke-linejoin="miter" stroke-miterlimit="2" d="M0 0L7.76403 5.72756" sodipodi:nodetypes="cc"/><path id="shape49" transform="matrix(0.848759079314742 0 0 0.999999916516848 81.7445194801762 51.7419135759092)" fill="none" stroke="#000000" stroke-width="0.72" stroke-linecap="square" stroke-linejoin="miter" stroke-miterlimit="2" d="M0 3.30926L8.52771 0" sodipodi:nodetypes="cc"/><path id="shape50" transform="matrix(0.848759079314742 0 0 0.999999916516848 88.9824888988428 51.7419135759092)" fill="none" stroke="#000000" stroke-width="0.72" stroke-linecap="square" stroke-linejoin="miter" stroke-miterlimit="2" d="M0 0L0 3.56382" sodipodi:nodetypes="cc"/><path id="shape511" transform="matrix(0.848759079314742 0 0 0.999999916516848 81.9605782687932 50.4691214736198)" fill="none" stroke="#000000" stroke-width="0.72" stroke-linecap="square" stroke-linejoin="miter" stroke-miterlimit="2" d="M0 0L0 4.58205" sodipodi:nodetypes="cc"/><path id="shape52" transform="matrix(0.848759079314742 0 0 0.999999916516848 74.7226088501265 49.4508877917883)" fill="none" stroke="#000000" stroke-width="0.72" stroke-linecap="square" stroke-linejoin="miter" stroke-miterlimit="2" d="M0.127279 0L0 5.34573" sodipodi:nodetypes="cc"/><path id="shape53" transform="matrix(0.848759079314742 0 0 0.999999916516848 67.9167570086938 48.1780956894989)" fill="none" stroke="#000000" stroke-width="0.72" stroke-linecap="square" stroke-linejoin="miter" stroke-miterlimit="2" d="M0 0L0 6.7458" sodipodi:nodetypes="cc"/><path id="shape54" transform="matrix(0.848759079314742 0 0 0.999999916516848 33.0232639166719 13.9399886646191)" fill="none" stroke="#000000" stroke-width="0.72" stroke-linecap="square" stroke-linejoin="miter" stroke-miterlimit="2" d="M5.60029 0L0 5.85484" sodipodi:nodetypes="cc"/><path id="shape55" transform="matrix(0.848759079314742 0 0 0.999999916516848 27.729823498201 16.7401313411559)" fill="none" stroke="#000000" stroke-width="0.72" stroke-linecap="square" stroke-linejoin="miter" stroke-miterlimit="2" d="M6.23668 3.0547L0 0" sodipodi:nodetypes="cc"/><path id="shape56" transform="matrix(0.848759079314742 0 0 0.999999916516848 27.729823498201 16.7401313411559)" fill="none" stroke="#000000" stroke-width="0.72" stroke-linecap="square" stroke-linejoin="miter" stroke-miterlimit="2" d="M0 0L0.127279 3.0547" sodipodi:nodetypes="cc"/><path id="shape57" transform="matrix(0.848759079314742 0 0 0.999999916516848 32.8072051240812 15.721897640597)" fill="none" stroke="#000000" stroke-width="0.72" stroke-linecap="square" stroke-linejoin="miter" stroke-miterlimit="2" d="M0 0L0 3.81838" sodipodi:nodetypes="cc"/><path id="shape58" transform="matrix(0.848759079314742 0 0 0.999999916516848 33.3473521055578 7.19419039841707)" fill="none" stroke="#000000" stroke-width="0.72" stroke-linecap="square" stroke-linejoin="miter" stroke-miterlimit="2" d="M5.09117 6.61852L0 0" sodipodi:nodetypes="cc"/><path id="shape59" transform="matrix(0.848759079314742 0 0 0.999999916516848 29.0261762537449 7.19419039841707)" fill="none" stroke="#000000" stroke-width="0.72" stroke-linecap="square" stroke-linejoin="miter" stroke-miterlimit="2" d="M5.09117 0L0 2.16375" sodipodi:nodetypes="cc"/><path id="shape60" transform="matrix(0.848759079314742 0 0 0.999999916516848 29.0261762537449 6.04867748528843)" fill="none" stroke="#000000" stroke-width="0.72" stroke-linecap="square" stroke-linejoin="miter" stroke-miterlimit="2" d="M0 3.30926L0.127279 0" sodipodi:nodetypes="cc"/><path id="shape61" transform="matrix(0.848759079314742 0 0 0.999999916516848 33.9955284833297 7.32146961098692)" fill="none" stroke="#000000" stroke-width="0.72" stroke-linecap="square" stroke-linejoin="miter" stroke-miterlimit="2" d="M0 0L0 4.45477" sodipodi:nodetypes="cc"/><path id="shape62" transform="matrix(0.848759079314742 0 0 0.999999916516848 70.9415820163311 6.93963197327737)" fill="none" stroke="#000000" stroke-width="0.72" stroke-linecap="square" stroke-linejoin="miter" stroke-miterlimit="2" d="M0 6.49124L4.96389 0" sodipodi:nodetypes="cc"/><path id="shape63" transform="matrix(0.848759079314742 0 0 0.999999916516848 75.1547284718489 6.93963197327737)" fill="none" stroke="#000000" stroke-width="0.72" stroke-linecap="square" stroke-linejoin="miter" stroke-miterlimit="2" d="M0 0L4.32749 2.41831" sodipodi:nodetypes="cc"/><path id="shape64" transform="matrix(0.848759079314742 0 0 0.999999916516848 78.7196985495946 6.30323591042812)" fill="none" stroke="#000000" stroke-width="0.72" stroke-linecap="square" stroke-linejoin="miter" stroke-miterlimit="2" d="M0.127279 3.0547L0 0" sodipodi:nodetypes="cc"/><path id="shape65" transform="matrix(0.848759079314742 0 0 0.999999916516848 75.4788166607349 7.19419039841707)" fill="none" stroke="#000000" stroke-width="0.72" stroke-linecap="square" stroke-linejoin="miter" stroke-miterlimit="2" d="M0 0L0.127279 3.6911" sodipodi:nodetypes="cc"/><path id="shape66" transform="matrix(0.848759079314742 0 0 0.999999916516848 71.0496114126264 14.0672678771889)" fill="none" stroke="#000000" stroke-width="0.72" stroke-linecap="square" stroke-linejoin="miter" stroke-miterlimit="2" d="M0 0L5.34573 5.72757" sodipodi:nodetypes="cc"/><path id="shape67" transform="matrix(0.848759079314742 0 0 0.999999916516848 75.5868460570302 16.3582937034463)" fill="none" stroke="#000000" stroke-width="0.72" stroke-linecap="square" stroke-linejoin="miter" stroke-miterlimit="2" d="M0 3.43654L3.6911 0" sodipodi:nodetypes="cc"/><path id="shape68" transform="matrix(0.848759079314742 0 0 0.999999916516848 78.7196985495946 16.3582937034463)" fill="none" stroke="#000000" stroke-width="0.72" stroke-linecap="square" stroke-linejoin="miter" stroke-miterlimit="2" d="M0 0L3.6911 3.0547" sodipodi:nodetypes="cc"/><path id="shape69" transform="matrix(0.848759079314742 0 0 0.999999916516848 81.7445216458638 16.3582937034463)" fill="none" stroke="#000000" stroke-width="0.72" stroke-linecap="square" stroke-linejoin="miter" stroke-miterlimit="2" d="M0.127279 3.0547L0 0" sodipodi:nodetypes="cc"/><path id="shape70" transform="matrix(0.848759079314742 0 0 0.999999916516848 78.503639757004 16.1037352783066)" fill="none" stroke="#000000" stroke-width="0.72" stroke-linecap="square" stroke-linejoin="miter" stroke-miterlimit="2" d="M0 0L0 3.6911" sodipodi:nodetypes="cc"/><path id="shape71" transform="matrix(0.848759079314742 0 0 0.999999916516848 75.5868460570302 15.0855015777478)" fill="none" stroke="#000000" stroke-width="0.72" stroke-linecap="square" stroke-linejoin="miter" stroke-miterlimit="2" d="M0 4.58205L0 0" sodipodi:nodetypes="cc"/><path id="shape72" transform="matrix(0.848759079314742 0 0 0.999999916516848 60.6787911465239 81.1434146642064)" fill="none" stroke="#000000" stroke-width="0.72" stroke-linecap="square" stroke-linejoin="miter" stroke-miterlimit="2" d="M0 0L9.67322 8.65499" sodipodi:nodetypes="cc"/><path id="shape73" transform="matrix(0.848759079314742 0 0 0.999999916516848 68.8890254159709 85.2163495413506)" fill="none" stroke="#000000" stroke-width="0.72" stroke-linecap="square" stroke-linejoin="miter" stroke-miterlimit="2" d="M0 4.58205L9.67322 0" sodipodi:nodetypes="cc"/><path id="shape74" transform="matrix(0.848759079314742 0 0 0.999999916516848 77.0992596854177 85.2163495413506)" fill="none" stroke="#000000" stroke-width="0.72" stroke-linecap="square" stroke-linejoin="miter" stroke-miterlimit="2" d="M0 0L0.127279 4.58205" sodipodi:nodetypes="cc"/><path id="shape75" transform="matrix(0.848759079314742 0 0 0.999999916516848 68.9970548142531 82.5434860282246)" fill="none" stroke="#000000" stroke-width="0.72" stroke-linecap="square" stroke-linejoin="miter" stroke-miterlimit="2" d="M0 0L0 7.12764" sodipodi:nodetypes="cc"/><path id="shape76" transform="matrix(0.848759079314742 0 0 0.999999916516848 39.8291172780601 80.8888562343847)" fill="none" stroke="#000000" stroke-width="0.72" stroke-linecap="square" stroke-linejoin="miter" stroke-miterlimit="2" d="M9.29138 0L0 8.52771" sodipodi:nodetypes="cc"/><path id="shape77" transform="matrix(0.848759079314742 0 0 0.999999916516848 31.7269124068955 84.8345118966184)" fill="none" stroke="#000000" stroke-width="0.72" stroke-linecap="square" stroke-linejoin="miter" stroke-miterlimit="2" d="M9.54594 4.58205L0 0" sodipodi:nodetypes="cc"/><path id="shape78" transform="matrix(0.848759079314742 0 0 0.999999916516848 31.7269124068955 84.8345118966184)" fill="none" stroke="#000000" stroke-width="0.72" stroke-linecap="square" stroke-linejoin="miter" stroke-miterlimit="2" d="M0 0L0 4.58205" sodipodi:nodetypes="cc"/><path id="shape79" transform="matrix(0.848759079314742 0 0 0.999999916516848 40.0451760746246 82.6707652431355)" fill="none" stroke="#000000" stroke-width="0.72" stroke-linecap="square" stroke-linejoin="miter" stroke-miterlimit="2" d="M0 0L0 6.87308" sodipodi:nodetypes="cc"/><path id="shape80" transform="matrix(0.848759079314742 0 0 1.27429435220113 47.2557473729326 92.1817821902307)" fill="none" stroke="#000000" stroke-width="0.72" stroke-linecap="square" stroke-linejoin="miter" stroke-miterlimit="2" d="M0 0L19.26 16.38" sodipodi:nodetypes="cc"/><path id="shape81" transform="matrix(0.848759079314742 0 0 1.27429435220113 42.8252248720514 113.054724182713)" fill="none" stroke="#000000" stroke-width="0.72" stroke-linecap="square" stroke-linejoin="miter" stroke-miterlimit="2" d="M24.48 0L0 18.36" sodipodi:nodetypes="cc"/><path id="shape82" transform="matrix(0.848759079314742 0 0 1.27429435220113 42.8252248720514 136.450769053407)" fill="none" stroke="#000000" stroke-width="0.72" stroke-linecap="square" stroke-linejoin="miter" stroke-miterlimit="2" d="M0 0L29.16 18.72" sodipodi:nodetypes="cc"/><path id="shape83" transform="matrix(0.848759079314742 0 0 1.27429435220113 38.8530322850544 160.305559901957)" fill="none" stroke="#000000" stroke-width="0.72" stroke-linecap="square" stroke-linejoin="miter" stroke-miterlimit="2" d="M33.84 0L0 19.8" sodipodi:nodetypes="cc"/><path id="shape84" transform="matrix(0.848759079314742 0 0 1.27429435220113 38.8530322850544 185.536588684077)" fill="none" stroke="#000000" stroke-width="0.72" stroke-linecap="square" stroke-linejoin="miter" stroke-miterlimit="2" d="M0 0L39.42 20.88" sodipodi:nodetypes="cc"/><path id="shape86" transform="matrix(0.848759079314742 0 0 1.27429435220113 45.0404867438032 92.1817821902307)" fill="none" stroke="#000000" stroke-width="0.72" stroke-linecap="square" stroke-linejoin="miter" stroke-miterlimit="2" d="M19.53 0L0 15.93" sodipodi:nodetypes="cc"/><path id="shape87" transform="matrix(0.848759079314742 0 0 1.27429435220113 45.4988166612009 112.940038867232)" fill="none" stroke="#000000" stroke-width="0.72" stroke-linecap="square" stroke-linejoin="miter" stroke-miterlimit="2" d="M0 0L23.67 18.99" sodipodi:nodetypes="cc"/><path id="shape88" transform="matrix(0.848759079314742 0 0 1.27429435220113 40.8391285785529 137.138888020191)" fill="none" stroke="#000000" stroke-width="0.72" stroke-linecap="square" stroke-linejoin="miter" stroke-miterlimit="2" d="M29.16 0L0 18.36" sodipodi:nodetypes="cc"/><path id="shape89" transform="matrix(0.848759079314742 0 0 1.27429435220113 40.8391285785529 160.534932890885)" fill="none" stroke="#000000" stroke-width="0.72" stroke-linecap="square" stroke-linejoin="miter" stroke-miterlimit="2" d="M0 0L33.66 19.26" sodipodi:nodetypes="cc"/><path id="shape90" transform="matrix(0.848759079314742 0 0 1.27429435220113 37.0197126295174 185.077842706222)" fill="none" stroke="#000000" stroke-width="0.72" stroke-linecap="square" stroke-linejoin="miter" stroke-miterlimit="2" d="M38.16 0L0 21.06" sodipodi:nodetypes="cc"/><path id="shape92" transform="matrix(0.848759079314742 0 0 0.999999916516848 47.6072328438673 72.9975437452105)" fill="none" stroke="#000000" stroke-width="0.72" stroke-linecap="square" stroke-linejoin="miter" stroke-miterlimit="2" d="M0 7.12764L14.6371 0" sodipodi:nodetypes="cc"/><path id="shape93" transform="matrix(0.848759079314742 0 0 0.999999916516848 48.1473798281044 63.9607196065671)" fill="none" stroke="#000000" stroke-width="0.72" stroke-linecap="square" stroke-linejoin="miter" stroke-miterlimit="2" d="M14.0007 9.03682L0 0" sodipodi:nodetypes="cc"/><path id="shape94" transform="matrix(0.848759079314742 0 0 0.999999916516848 48.1473798281044 55.3057331075847)" fill="none" stroke="#000000" stroke-width="0.72" stroke-linecap="square" stroke-linejoin="miter" stroke-miterlimit="2" d="M0 8.65499L14.128 0" sodipodi:nodetypes="cc"/><path id="shape95" transform="matrix(0.848759079314742 0 0 0.999999916516848 48.147378495376 37.7412008527225)" fill="none" stroke="#000000" stroke-width="0.72" stroke-linecap="square" stroke-linejoin="miter" stroke-miterlimit="2" d="M0 8.78227L14.6371 0" sodipodi:nodetypes="cc"/><path id="shape96" transform="matrix(0.848759079314742 0 0 0.999999916516848 48.0393491002394 28.4498184347824)" fill="none" stroke="#000000" stroke-width="0.72" stroke-linecap="square" stroke-linejoin="miter" stroke-miterlimit="2" d="M14.7644 9.29138L0 0" sodipodi:nodetypes="cc"/><path id="shape97" transform="matrix(0.848759079314742 0 0 0.999999916516848 48.0393491002394 19.6675528616608)" fill="none" stroke="#000000" stroke-width="0.72" stroke-linecap="square" stroke-linejoin="miter" stroke-miterlimit="2" d="M0 8.78227L14.7644 0" sodipodi:nodetypes="cc"/><path id="shape98" transform="matrix(0.848759079314742 0 0 0.999999916516848 48.147378495376 19.9221112840702)" fill="none" stroke="#000000" stroke-width="0.72" stroke-linecap="square" stroke-linejoin="miter" stroke-miterlimit="2" d="M0 0L14.7644 8.90955" sodipodi:nodetypes="cc"/><path id="shape99" transform="matrix(0.848759079314742 0 0 0.999999916516848 48.2554094402707 28.8316560683963)" fill="none" stroke="#000000" stroke-width="0.72" stroke-linecap="square" stroke-linejoin="miter" stroke-miterlimit="2" d="M14.6371 0L0 8.59135" sodipodi:nodetypes="cc"/><path id="shape100" transform="matrix(0.848759079314742 0 0 0.999999916516848 48.5254829330794 37.7412018171777)" fill="none" stroke="#000000" stroke-width="0.72" stroke-linecap="square" stroke-linejoin="miter" stroke-miterlimit="2" d="M0 0L13.9371 8.90954" sodipodi:nodetypes="cc"/><path id="shape101" transform="matrix(0.848759079314742 0 0 0.999999916516848 48.0393491002394 55.1784527877607)" fill="none" stroke="#000000" stroke-width="0.72" stroke-linecap="square" stroke-linejoin="miter" stroke-miterlimit="2" d="M0 0L15.0189 9.1641" sodipodi:nodetypes="cc"/><path id="shape102" transform="matrix(0.848759079314742 0 0 0.999999916516848 48.1473813758756 64.3425559944962)" fill="none" stroke="#000000" stroke-width="0.72" stroke-linecap="square" stroke-linejoin="miter" stroke-miterlimit="2" d="M14.8917 0L0 8.40043" sodipodi:nodetypes="cc"/><path id="shape103" transform="matrix(0.848759079314742 0 0 0.999999916516848 48.3634401735443 73.0611849658787)" fill="none" stroke="#000000" stroke-width="0.72" stroke-linecap="square" stroke-linejoin="miter" stroke-miterlimit="2" d="M0 0L14.0007 7.31855" sodipodi:nodetypes="cc"/><path id="shape104" transform="matrix(0.848759079314742 0 0 1.27429435220113 39.8291166584265 172.10249017877)" fill="none" stroke="#000000" stroke-width="0.72" stroke-linecap="square" stroke-linejoin="miter" stroke-miterlimit="2" d="M0 0L34.1108 0.127279" sodipodi:nodetypes="cc"/><path id="shape105" transform="matrix(0.848759079314742 0 0 1.27429435220113 37.3444405182374 197.56650809653)" fill="none" stroke="#000000" stroke-width="0.72" stroke-linecap="square" stroke-linejoin="miter" stroke-miterlimit="2" d="M0 0.254558L39.8384 0" sodipodi:nodetypes="cc"/><path id="shape106" transform="matrix(0.848759079314742 0 0 1.27429435220113 41.6656164142185 147.77381063951)" fill="none" stroke="#000000" stroke-width="0.72" stroke-linecap="square" stroke-linejoin="miter" stroke-miterlimit="2" d="M0 0L29.7833 0.127279" sodipodi:nodetypes="cc"/><path id="shape107" transform="matrix(0.848759079314742 0 0 1.27429435220113 43.9342337596085 123.825168712929)" fill="none" stroke="#000000" stroke-width="0.72" stroke-linecap="square" stroke-linejoin="miter" stroke-miterlimit="2" d="M0 0C8.10344 0.0424264 16.2069 0.0848528 24.3103 0.127279" sodipodi:nodetypes="cc"/><path id="shape108" transform="matrix(0.848759079314742 0 0 1.27429435220113 46.1863115372976 101.242016342209)" fill="none" stroke="#000000" stroke-width="0.72" stroke-linecap="square" stroke-linejoin="miter" stroke-miterlimit="2" d="M0 0.09L19.53 0" sodipodi:nodetypes="cc"/><path id="shape109" transform="matrix(0.848759079314742 0 0 1.27429435220113 62.7313494117468 190.430096613697)" fill="none" stroke="#000000" stroke-width="0.72" stroke-linecap="square" stroke-linejoin="miter" stroke-miterlimit="2" d="M8.90955 0.127279L0 0" sodipodi:nodetypes="cc"/><path id="shape110" transform="matrix(0.848759079314742 0 0 1.27429435220113 62.7313494117468 190.430096613697)" fill="none" stroke="#000000" stroke-width="0.72" stroke-linecap="square" stroke-linejoin="miter" stroke-miterlimit="2" d="M0 0L9.54594 5.72757" sodipodi:nodetypes="cc"/><path id="shape111" transform="matrix(0.848759079314742 0 0 1.27429435220113 63.3795257994566 197.728700512776)" fill="none" stroke="#000000" stroke-width="0.72" stroke-linecap="square" stroke-linejoin="miter" stroke-miterlimit="2" d="M8.78227 0L0 5.60029" sodipodi:nodetypes="cc"/><path id="shape112" transform="matrix(0.848759079314742 0 0 1.27429435220113 63.3795257994566 204.865113214098)" fill="none" stroke="#000000" stroke-width="0.72" stroke-linecap="square" stroke-linejoin="miter" stroke-miterlimit="2" d="M0 0L9.29138 0" sodipodi:nodetypes="cc"/><path id="shape113" transform="matrix(0.848759079314742 0 0 1.27429435220113 38.3167054746789 191.078861404728)" fill="none" stroke="#000000" stroke-width="0.72" stroke-linecap="square" stroke-linejoin="miter" stroke-miterlimit="2" d="M0 0.127279L9.29138 0" sodipodi:nodetypes="cc"/><path id="shape114" transform="matrix(0.848759079314742 0 0 1.27429435220113 37.9926172808239 191.078861404728)" fill="none" stroke="#000000" stroke-width="0.72" stroke-linecap="square" stroke-linejoin="miter" stroke-miterlimit="2" d="M9.67322 0L0 4.96389" sodipodi:nodetypes="cc"/><path id="shape115" transform="matrix(0.848759079314742 0 0 1.27429435220113 37.9926172808239 197.404318117263)" fill="none" stroke="#000000" stroke-width="0.72" stroke-linecap="square" stroke-linejoin="miter" stroke-miterlimit="2" d="M0 0L10.3096 5.21845" sodipodi:nodetypes="cc"/><path id="shape116" transform="matrix(0.848759079314742 0 0 1.27429435220113 37.2364114951627 204.054157225312)" fill="none" stroke="#000000" stroke-width="0.72" stroke-linecap="square" stroke-linejoin="miter" stroke-miterlimit="2" d="M11.2006 0L0 0.127279" sodipodi:nodetypes="cc"/><path id="shape117" transform="matrix(0.848759079314742 0 0 1.27429435220113 61.9751387205685 172.264671795031)" fill="none" stroke="#000000" stroke-width="0.72" stroke-linecap="square" stroke-linejoin="miter" stroke-miterlimit="2" d="M7.76403 0L0 4.45477" sodipodi:nodetypes="cc"/><path id="shape118" transform="matrix(0.848759079314742 0 0 1.27429435220113 61.9751387205685 177.941363432333)" fill="none" stroke="#000000" stroke-width="0.72" stroke-linecap="square" stroke-linejoin="miter" stroke-miterlimit="2" d="M0 0L8.52771 0" sodipodi:nodetypes="cc"/><path id="shape119" transform="matrix(0.848759079314742 0 0 1.27429435220113 61.6510505429392 165.614833019908)" fill="none" stroke="#000000" stroke-width="0.72" stroke-linecap="square" stroke-linejoin="miter" stroke-miterlimit="2" d="M8.27315 5.60029L0 0" sodipodi:nodetypes="cc"/><path id="shape120" transform="matrix(0.848759079314742 0 0 1.27429435220113 61.6510505429392 165.614833019908)" fill="none" stroke="#000000" stroke-width="0.72" stroke-linecap="square" stroke-linejoin="miter" stroke-miterlimit="2" d="M0 0L7.25492 0.127279" sodipodi:nodetypes="cc"/><path id="shape121" transform="matrix(0.848759079314742 0 0 1.27429435220113 40.5335736606767 165.581134218868)" fill="none" stroke="#000000" stroke-width="0.72" stroke-linecap="square" stroke-linejoin="miter" stroke-miterlimit="2" d="M0 0L7.56 0.09" sodipodi:nodetypes="cc"/><path id="shape122" transform="matrix(0.848759079314742 0 0 1.27429435220113 39.8460788045983 165.695820710872)" fill="none" stroke="#000000" stroke-width="0.72" stroke-linecap="square" stroke-linejoin="miter" stroke-miterlimit="2" d="M8.37 0L0 5.04" sodipodi:nodetypes="cc"/><path id="shape123" transform="matrix(0.848759079314742 0 0 1.27429435220113 39.8460788045983 172.118264263092)" fill="none" stroke="#000000" stroke-width="0.72" stroke-linecap="square" stroke-linejoin="miter" stroke-miterlimit="2" d="M0 0L8.46 4.77" sodipodi:nodetypes="cc"/><path id="shape124" transform="matrix(0.848759079314742 0 0 1.27429435220113 39.6933021699143 178.196648339302)" fill="none" stroke="#000000" stroke-width="0.72" stroke-linecap="square" stroke-linejoin="miter" stroke-miterlimit="2" d="M8.64 0L0 0" sodipodi:nodetypes="cc"/><path id="shape125" transform="matrix(0.848759079314742 0 0 1.27429435220113 41.8321750554913 152.506874130419)" fill="none" stroke="#000000" stroke-width="0.72" stroke-linecap="square" stroke-linejoin="miter" stroke-miterlimit="2" d="M0 0L7.83 0.09" sodipodi:nodetypes="cc"/><path id="shape126" transform="matrix(0.848759079314742 0 0 1.27429435220113 42.0613400075174 147.345981990241)" fill="none" stroke="#000000" stroke-width="0.72" stroke-linecap="square" stroke-linejoin="miter" stroke-miterlimit="2" d="M7.56 4.14L0 0" sodipodi:nodetypes="cc"/><path id="shape127" transform="matrix(0.848759079314742 0 0 1.27429435220113 42.0613400075174 142.414462834073)" fill="none" stroke="#000000" stroke-width="0.72" stroke-linecap="square" stroke-linejoin="miter" stroke-miterlimit="2" d="M0 3.87L7.74 0" sodipodi:nodetypes="cc"/><path id="shape128" transform="matrix(0.848759079314742 0 0 1.27429435220113 42.2905049595435 142.299776342067)" fill="none" stroke="#000000" stroke-width="0.72" stroke-linecap="square" stroke-linejoin="miter" stroke-miterlimit="2" d="M7.47 0.09L0 0" sodipodi:nodetypes="cc"/><path id="shape129" transform="matrix(0.848759079314742 0 0 1.27429435220113 60.0889829002374 142.529149326074)" fill="none" stroke="#000000" stroke-width="0.72" stroke-linecap="square" stroke-linejoin="miter" stroke-miterlimit="2" d="M0 0L7.11 0" sodipodi:nodetypes="cc"/><path id="shape130" transform="matrix(0.848759079314742 0 0 1.27429435220113 59.7834296308692 142.643835818079)" fill="none" stroke="#000000" stroke-width="0.72" stroke-linecap="square" stroke-linejoin="miter" stroke-miterlimit="2" d="M0 0L8.01 4.14" sodipodi:nodetypes="cc"/><path id="shape131" transform="matrix(0.848759079314742 0 0 1.27429435220113 60.4709244869476 147.919414450262)" fill="none" stroke="#000000" stroke-width="0.72" stroke-linecap="square" stroke-linejoin="miter" stroke-miterlimit="2" d="M7.2 0L0 4.14" sodipodi:nodetypes="cc"/><path id="shape132" transform="matrix(0.848759079314742 0 0 1.27429435220113 60.4709244869476 152.965620098435)" fill="none" stroke="#000000" stroke-width="0.72" stroke-linecap="square" stroke-linejoin="miter" stroke-miterlimit="2" d="M0 0.18L7.56 0" sodipodi:nodetypes="cc"/><path id="shape133" transform="matrix(0.848759079314742 0 0 1.27429435220113 58.8667715676871 118.330302440962)" fill="none" stroke="#000000" stroke-width="0.72" stroke-linecap="square" stroke-linejoin="miter" stroke-miterlimit="2" d="M6.03 0.09L0 0" sodipodi:nodetypes="cc"/><path id="shape134" transform="matrix(0.848759079314742 0 0 1.27429435220113 58.8667715676872 118.330302440962)" fill="none" stroke="#000000" stroke-width="0.72" stroke-linecap="square" stroke-linejoin="miter" stroke-miterlimit="2" d="M0 0L6.48 4.14" sodipodi:nodetypes="cc"/><path id="shape135" transform="matrix(0.848759079314742 0 0 1.27429435220113 59.1723248426749 123.605881170172)" fill="none" stroke="#000000" stroke-width="0.72" stroke-linecap="square" stroke-linejoin="miter" stroke-miterlimit="2" d="M6.12 0L0 4.77" sodipodi:nodetypes="cc"/><path id="shape136" transform="matrix(0.848759079314742 0 0 1.27429435220113 59.1723248426749 129.684265358173)" fill="none" stroke="#000000" stroke-width="0.72" stroke-linecap="square" stroke-linejoin="miter" stroke-miterlimit="2" d="M0 0L6.84 0" sodipodi:nodetypes="cc"/><path id="shape137" transform="matrix(0.848759079314742 0 0 1.27429435220113 43.5127194995475 129.110832887609)" fill="none" stroke="#000000" stroke-width="0.72" stroke-linecap="square" stroke-linejoin="miter" stroke-miterlimit="2" d="M0 0L6.48 0" sodipodi:nodetypes="cc"/><path id="shape138" transform="matrix(0.848759079314742 0 0 1.27429435220113 43.9710494120293 123.605881170172)" fill="none" stroke="#000000" stroke-width="0.72" stroke-linecap="square" stroke-linejoin="miter" stroke-miterlimit="2" d="M5.94 4.32L0 0" sodipodi:nodetypes="cc"/><path id="shape139" transform="matrix(0.848759079314742 0 0 1.27429435220113 43.9710494120293 118.100929452736)" fill="none" stroke="#000000" stroke-width="0.72" stroke-linecap="square" stroke-linejoin="miter" stroke-miterlimit="2" d="M0 4.32L6.57 0" sodipodi:nodetypes="cc"/><path id="shape140" transform="matrix(0.848759079314742 0 0 1.27429435220113 44.8877092369929 118.100929452736)" fill="none" stroke="#000000" stroke-width="0.72" stroke-linecap="square" stroke-linejoin="miter" stroke-miterlimit="2" d="M5.49 0L0 0" sodipodi:nodetypes="cc"/><path id="shape141" transform="matrix(0.848759079314742 0 0 1.27429435220113 58.2481249186851 105.928475608503)" fill="none" stroke="#000000" stroke-width="0.72" stroke-linecap="square" stroke-linejoin="miter" stroke-miterlimit="2" d="M5.40937 0L0 0.0636396" sodipodi:nodetypes="cc"/><path id="shape142" transform="matrix(0.848759079314742 0 0 1.27429435220113 58.2481249186851 101.468217882084)" fill="none" stroke="#000000" stroke-width="0.72" stroke-linecap="square" stroke-linejoin="miter" stroke-miterlimit="2" d="M0 3.56382L4.90025 0" sodipodi:nodetypes="cc"/><path id="shape143" transform="matrix(0.848759079314742 0 0 1.27429435220113 57.9780514366371 96.7692386494981)" fill="none" stroke="#000000" stroke-width="0.72" stroke-linecap="square" stroke-linejoin="miter" stroke-miterlimit="2" d="M5.21845 3.68751L0 0" sodipodi:nodetypes="cc"/><path id="shape144" transform="matrix(0.848759079314742 0 0 1.27429435220113 57.9780514366372 96.7692386494981)" fill="none" stroke="#000000" stroke-width="0.72" stroke-linecap="square" stroke-linejoin="miter" stroke-miterlimit="2" d="M0 0L4.83661 0" sodipodi:nodetypes="cc"/><path id="shape145" transform="matrix(0.848759079314742 0 0 1.27429435220113 46.4729211013955 96.7692386494981)" fill="none" stroke="#000000" stroke-width="0.72" stroke-linecap="square" stroke-linejoin="miter" stroke-miterlimit="2" d="M0 0L5.09117 0" sodipodi:nodetypes="cc"/><path id="shape146" transform="matrix(0.848759079314742 0 0 1.27429435220113 46.7429945834434 96.7692386494981)" fill="none" stroke="#000000" stroke-width="0.72" stroke-linecap="square" stroke-linejoin="miter" stroke-miterlimit="2" d="M4.77297 0L0 3.36932" sodipodi:nodetypes="cc"/><path id="shape147" transform="matrix(0.848759079314742 0 0 1.27429435220113 46.7429945834434 101.062739906955)" fill="none" stroke="#000000" stroke-width="0.72" stroke-linecap="square" stroke-linejoin="miter" stroke-miterlimit="2" d="M0 0L4.32749 3.94566" sodipodi:nodetypes="cc"/><path id="shape148" transform="matrix(0.848759079314742 0 0 1.27429435220113 45.9327741372997 106.090666798555)" fill="none" stroke="#000000" stroke-width="0.72" stroke-linecap="square" stroke-linejoin="miter" stroke-miterlimit="2" d="M5.28209 0L0 0" sodipodi:nodetypes="cc"/><path id="shape01" transform="matrix(0.848759040925484 0 0 0.999999871286988 98.6475671141171 56.472652209187)" fill="none" stroke="#737373" stroke-width="2.16" stroke-linecap="square" stroke-linejoin="miter" stroke-miterlimit="2" d="M0 0L0 16.3554" sodipodi:nodetypes="cc"/><circle id="shape011" transform="matrix(1.31141784501573 0 0 1.46487231976529 95.8983005653001 73.6017555484359)" r="0.719999999999999" cx="0.719999999999999" cy="0.719999999999999" fill="#d00000" fill-rule="evenodd" stroke-opacity="0" stroke="#000000" stroke-width="0" stroke-linecap="square" stroke-linejoin="bevel"/><circle id="shape0111" transform="matrix(1.21975377146284 0 0 1.463461607432 99.5654259829923 73.5362869757026)" r="0.719999999999999" cx="0.719999999999999" cy="0.719999999999999" fill="#d00000" fill-rule="evenodd" stroke-opacity="0" stroke="#000000" stroke-width="0" stroke-linecap="square" stroke-linejoin="bevel"/><path id="shape01111" transform="matrix(0.848759040925484 0 0 0.999999871286988 88.9750968524645 91.3330379879446)" fill="none" stroke="#737373" stroke-width="2.16" stroke-linecap="square" stroke-linejoin="miter" stroke-miterlimit="2" d="M0 0L0 16.3554" sodipodi:nodetypes="cc"/><circle id="shape012" transform="matrix(1.31141784501573 0 0 1.46487231976529 86.2258303036476 108.462141327195)" r="0.719999999999999" cx="0.719999999999999" cy="0.719999999999999" fill="#d00000" fill-rule="evenodd" stroke-opacity="0" stroke="#000000" stroke-width="0" stroke-linecap="square" stroke-linejoin="bevel"/><circle id="shape013" transform="matrix(1.21975377146284 0 0 1.463461607432 89.8929557213398 108.396672754461)" r="0.719999999999999" cx="0.719999999999999" cy="0.719999999999999" fill="#d00000" fill-rule="evenodd" stroke-opacity="0" stroke="#000000" stroke-width="0" stroke-linecap="square" stroke-linejoin="bevel"/><path id="shape02" transform="matrix(0.848759040925484 0 0 0.999999871286988 19.5160349439776 91.2645912919241)" fill="none" stroke="#737373" stroke-width="2.16" stroke-linecap="square" stroke-linejoin="miter" stroke-miterlimit="2" d="M0 0L0 16.3554" sodipodi:nodetypes="cc"/><circle id="shape014" transform="matrix(1.31141784501573 0 0 1.46487231976529 16.7667683951607 108.393694631173)" r="0.719999999999999" cx="0.719999999999999" cy="0.719999999999999" fill="#d00000" fill-rule="evenodd" stroke-opacity="0" stroke="#000000" stroke-width="0" stroke-linecap="square" stroke-linejoin="bevel"/><circle id="shape015" transform="matrix(1.21975377146284 0 0 1.463461607432 20.4338938128529 108.328226058439)" r="0.719999999999999" cx="0.719999999999999" cy="0.719999999999999" fill="#d00000" fill-rule="evenodd" stroke-opacity="0" stroke="#000000" stroke-width="0" stroke-linecap="square" stroke-linejoin="bevel"/><path id="shape03" transform="matrix(0.848759040925484 0 0 0.999999871286988 10.1714956890194 56.8544894698486)" fill="none" stroke="#737373" stroke-width="2.16" stroke-linecap="square" stroke-linejoin="miter" stroke-miterlimit="2" d="M0 0L0 16.3554" sodipodi:nodetypes="cc"/><circle id="shape016" transform="matrix(1.31141784501573 0 0 1.46487231976529 7.42222914020247 73.9835928090976)" r="0.719999999999999" cx="0.719999999999999" cy="0.719999999999999" fill="#d00000" fill-rule="evenodd" stroke-opacity="0" stroke="#000000" stroke-width="0" stroke-linecap="square" stroke-linejoin="bevel"/><circle id="shape017" transform="matrix(1.21975377146284 0 0 1.463461607432 11.0893545578948 73.9181242363642)" r="0.719999999999999" cx="0.719999999999999" cy="0.719999999999999" fill="#d00000" fill-rule="evenodd" stroke-opacity="0" stroke="#000000" stroke-width="0" stroke-linecap="square" stroke-linejoin="bevel"/><path id="shape04" transform="matrix(0.848759040925484 0 0 0.999999871286988 21.1172802707679 21.5531465324287)" fill="none" stroke="#737373" stroke-width="2.16" stroke-linecap="square" stroke-linejoin="miter" stroke-miterlimit="2" d="M0 0L0 16.3554" sodipodi:nodetypes="cc"/><circle id="shape018" transform="matrix(1.31141784501573 0 0 1.46487231976529 18.3680137219509 38.6822498716776)" r="0.719999999999999" cx="0.719999999999999" cy="0.719999999999999" fill="#d00000" fill-rule="evenodd" stroke-opacity="0" stroke="#000000" stroke-width="0" stroke-linecap="square" stroke-linejoin="bevel"/><circle id="shape019" transform="matrix(1.21975377146284 0 0 1.463461607432 22.0351391396431 38.6167812989442)" r="0.719999999999999" cx="0.719999999999999" cy="0.719999999999999" fill="#d00000" fill-rule="evenodd" stroke-opacity="0" stroke="#000000" stroke-width="0" stroke-linecap="square" stroke-linejoin="bevel"/><path id="shape05" transform="matrix(0.848759040925484 0 0 0.999999871286988 88.1036965605367 21.4961471784423)" fill="none" stroke="#737373" stroke-width="2.16" stroke-linecap="square" stroke-linejoin="miter" stroke-miterlimit="2" d="M0 0L0 16.3554" sodipodi:nodetypes="cc"/><circle id="shape0110" transform="matrix(1.31141784501573 0 0 1.46487231976529 85.3544300117198 38.6252505176914)" r="0.719999999999999" cx="0.719999999999999" cy="0.719999999999999" fill="#d00000" fill-rule="evenodd" stroke-opacity="0" stroke="#000000" stroke-width="0" stroke-linecap="square" stroke-linejoin="bevel"/><circle id="shape01111" transform="matrix(1.21975377146284 0 0 1.463461607432 89.0215554294121 38.559781944958)" r="0.719999999999999" cx="0.719999999999999" cy="0.719999999999999" fill="#d00000" fill-rule="evenodd" stroke-opacity="0" stroke="#000000" stroke-width="0" stroke-linecap="square" stroke-linejoin="bevel"/>
</svg>
