<?xml version="1.0" standalone="no"?>
<!DOCTYPE svg PUBLIC "-//W3C//DTD SVG 20010904//EN" "http://www.w3.org/TR/2001/REC-SVG-20010904/DTD/svg10.dtd">
<!-- Created using Krita: https://krita.org -->
<svg xmlns="http://www.w3.org/2000/svg" 
    xmlns:xlink="http://www.w3.org/1999/xlink"
    xmlns:krita="http://krita.org/namespaces/svg/krita"
    xmlns:sodipodi="http://sodipodi.sourceforge.net/DTD/sodipodi-0.dtd"
    width="186.48pt"
    height="138.24pt"
    viewBox="0 0 186.48 138.24">
<defs/>
<path id="shape0" transform="matrix(0.937890845409226 0 0 0.937890845409227 57.6471259259238 22.4739604838584)" fill="none" stroke="#000000" stroke-width="0.36" stroke-linecap="square" stroke-linejoin="miter" stroke-miterlimit="2" d="M0 0L82.44 118.08" sodipodi:nodetypes="cc"/><path id="shape1" transform="matrix(0.937890845409226 0 0 0.937890845409227 62.0364554115135 21.7986790245369)" fill="none" stroke="#000000" stroke-width="0.36" stroke-linecap="square" stroke-linejoin="miter" stroke-miterlimit="2" d="M0 119.16L85.32 0" sodipodi:nodetypes="cc"/><path id="shape0" transform="matrix(0.999999906118469 0 -0.0366551282152941 0.999999906118469 62.1759030948181 21.6374657229865)" fill="#bfbfbf" fill-rule="evenodd" stroke="#000000" stroke-width="1.44" stroke-linecap="square" stroke-linejoin="bevel" d="M6.17304 0.130049L9.99142 0L3.88202 113.533L0 113.533Z" sodipodi:nodetypes="ccccc"/><path id="shape01" transform="matrix(0.999999894413557 0 0.0116300307760356 0.999999894413557 128.268549130577 22.4280901424483)" fill="#bfbfbf" fill-rule="evenodd" stroke="#000000" stroke-width="1.44" stroke-linecap="square" stroke-linejoin="bevel" d="M0 0L3.78 0L10.1475 112.997L6.27749 112.975Z" sodipodi:nodetypes="ccccc"/><path id="shape126" transform="matrix(0.999999819969793 0 0 0.999999819969793 6.6757198275506e-06 137.143355425821)" fill="none" stroke="#3b2300" stroke-width="2.16" stroke-linecap="square" stroke-linejoin="miter" stroke-miterlimit="2" d="M0 0L198.72 0.241636" sodipodi:nodetypes="cc"/><path id="shape031" transform="matrix(0.999999778898968 0 0 0.999999778898968 20.1425019792294 23.1296860546332)" fill="none" stroke="#737373" stroke-width="2.16" stroke-linecap="square" stroke-linejoin="miter" stroke-miterlimit="2" d="M0 0C0 5.4518 0 10.9036 0 16.3554" sodipodi:nodetypes="cc"/><circle id="shape0171" transform="matrix(1.43751203860059 0 0 1.4514890796623 16.873437898501 40.343870604635)" r="0.719999999999999" cx="0.719999999999999" cy="0.719999999999999" fill="#d00000" fill-rule="evenodd" stroke-opacity="0" stroke="#000000" stroke-width="0" stroke-linecap="square" stroke-linejoin="bevel"/><circle id="shape0121" transform="matrix(1.51019689554306 0 0 1.46570336584724 21.1740833837378 40.3234020325288)" r="0.719999999999999" cx="0.719999999999999" cy="0.719999999999999" fill="#d00000" fill-rule="evenodd" stroke-opacity="0" stroke="#000000" stroke-width="0" stroke-linecap="square" stroke-linejoin="bevel"/><path id="shape032" transform="matrix(0.999999778898968 0 0 0.999999778898968 100.156399618943 23.0833612949788)" fill="none" stroke="#737373" stroke-width="2.16" stroke-linecap="square" stroke-linejoin="miter" stroke-miterlimit="2" d="M0 0C0 5.4518 0 10.9036 0 16.3554" sodipodi:nodetypes="cc"/><circle id="shape0172" transform="matrix(1.43751203860059 0 0 1.4514890796623 96.8873355382148 40.2975458449808)" r="0.719999999999999" cx="0.719999999999999" cy="0.719999999999999" fill="#d00000" fill-rule="evenodd" stroke-opacity="0" stroke="#000000" stroke-width="0" stroke-linecap="square" stroke-linejoin="bevel"/><circle id="shape0122" transform="matrix(1.51019689554306 0 0 1.46570336584724 101.187981023452 40.2770772728743)" r="0.719999999999999" cx="0.719999999999999" cy="0.719999999999999" fill="#d00000" fill-rule="evenodd" stroke-opacity="0" stroke="#000000" stroke-width="0" stroke-linecap="square" stroke-linejoin="bevel"/><path id="shape034" transform="matrix(0.999999778898968 0 0 0.999999778898968 181.100362144511 23.2622639724417)" fill="none" stroke="#737373" stroke-width="2.16" stroke-linecap="square" stroke-linejoin="miter" stroke-miterlimit="2" d="M0 0C0 5.4518 0 10.9036 0 16.3554" sodipodi:nodetypes="cc"/><circle id="shape0174" transform="matrix(1.43751203860059 0 0 1.4514890796623 177.831298063783 40.4764485224435)" r="0.719999999999999" cx="0.719999999999999" cy="0.719999999999999" fill="#d00000" fill-rule="evenodd" stroke-opacity="0" stroke="#000000" stroke-width="0" stroke-linecap="square" stroke-linejoin="bevel"/><circle id="shape0124" transform="matrix(1.51019689554306 0 0 1.46570336584724 182.131943549019 40.4559799503372)" r="0.719999999999999" cx="0.719999999999999" cy="0.719999999999999" fill="#d00000" fill-rule="evenodd" stroke-opacity="0" stroke="#000000" stroke-width="0" stroke-linecap="square" stroke-linejoin="bevel"/><path id="shape127" transform="matrix(0.9999997848113 0 0 0.9999997848113 6.67571982577424e-06 135.743279472504)" fill="none" stroke="#297f00" stroke-width="1.44" stroke-linecap="square" stroke-linejoin="miter" stroke-miterlimit="2" d="M0 0C61.44 0.0328129 137.28 0.0788988 198.72 0.111712" sodipodi:nodetypes="cc"/><path id="shape2" transform="translate(17.0554151199411, 21.8920253778349)" fill="none" stroke="#000000" stroke-width="1.44" stroke-linecap="square" stroke-linejoin="miter" stroke-miterlimit="2" d="M0 0L164.699 0.254558" sodipodi:nodetypes="cc"/><path id="shape3" transform="translate(16.8008566853151, 13.3576603855867)" fill="none" stroke="#000000" stroke-width="1.44" stroke-linecap="square" stroke-linejoin="miter" stroke-miterlimit="2" d="M0 8.53436L54.3519 0" sodipodi:nodetypes="cc"/><path id="shape4" transform="translate(71.5309201299024, 13.2370386005513)" fill="none" stroke="#000000" stroke-width="1.44" stroke-linecap="square" stroke-linejoin="miter" stroke-miterlimit="2" d="M0 0.254558L57.7848 0" sodipodi:nodetypes="cc"/><path id="shape5" transform="translate(129.902233454028, 13.1888400331761)" fill="none" stroke="#000000" stroke-width="1.44" stroke-linecap="square" stroke-linejoin="miter" stroke-miterlimit="2" d="M0 0L52.107 8.70319" sodipodi:nodetypes="cc"/><path id="shape6" transform="translate(70.2581279567724, 14.0400006508696)" fill="none" stroke="#000000" stroke-width="1.44" stroke-linecap="square" stroke-linejoin="miter" stroke-miterlimit="2" d="M0 7.34291L1.01823 0" sodipodi:nodetypes="cc"/><path id="shape7" transform="translate(129.061126355375, 13.2370386005513)" fill="none" stroke="#000000" stroke-width="1.44" stroke-linecap="square" stroke-linejoin="miter" stroke-miterlimit="2" d="M0 0L0.254558 8.40043" sodipodi:nodetypes="cc"/><path id="shape8" transform="translate(47.9399530959866, 17.0717083295823)" fill="none" stroke="#000000" stroke-width="0.72" stroke-linecap="square" stroke-linejoin="miter" stroke-miterlimit="2" d="M0 0L9.84481 4.05664" sodipodi:nodetypes="cc"/><path id="shape9" transform="translate(57.7397646580129, 13.6800006341806)" fill="none" stroke="#000000" stroke-width="0.72" stroke-linecap="square" stroke-linejoin="miter" stroke-miterlimit="2" d="M0 7.44835L13.4502 0" sodipodi:nodetypes="cc"/><path id="shape10" transform="translate(71.5050033148453, 13.6350006320945)" fill="none" stroke="#000000" stroke-width="0.72" stroke-linecap="square" stroke-linejoin="miter" stroke-miterlimit="2" d="M0 0L14.7903 8.00247" sodipodi:nodetypes="cc"/><path id="shape11" transform="translate(86.2953093382096, 13.3006785218082)" fill="none" stroke="#000000" stroke-width="0.72" stroke-linecap="square" stroke-linejoin="miter" stroke-miterlimit="2" d="M0 8.33679L14.7644 0" sodipodi:nodetypes="cc"/><path id="shape12" transform="translate(99.36, 13.4915970351773)" fill="none" stroke="#000000" stroke-width="0.72" stroke-linecap="square" stroke-linejoin="miter" stroke-miterlimit="2" d="M0 0L14.9367 8.14587" sodipodi:nodetypes="cc"/><path id="shape13" transform="translate(114.296737147068, 13.7461554698033)" fill="none" stroke="#000000" stroke-width="0.72" stroke-linecap="square" stroke-linejoin="miter" stroke-miterlimit="2" d="M0 7.89131L14.5098 0" sodipodi:nodetypes="cc"/><path id="shape14" transform="translate(128.806567920749, 13.7461554698033)" fill="none" stroke="#000000" stroke-width="0.72" stroke-linecap="square" stroke-linejoin="miter" stroke-miterlimit="2" d="M0 0L13.237 7.89131" sodipodi:nodetypes="cc"/><path id="shape15" transform="translate(142.043606521301, 17.4456435664687)" fill="none" stroke="#000000" stroke-width="0.72" stroke-linecap="square" stroke-linejoin="miter" stroke-miterlimit="2" d="M0 4.19182L12.3943 0" sodipodi:nodetypes="cc"/><path id="shape16" transform="translate(100.359665210007, 13.6188765725692)" fill="none" stroke="#000000" stroke-width="0.72" stroke-linecap="square" stroke-linejoin="miter" stroke-miterlimit="2" d="M0.0636396 8.52771L0 0" sodipodi:nodetypes="cc"/>
</svg>
