<?xml version="1.0" standalone="no"?>
<!DOCTYPE svg PUBLIC "-//W3C//DTD SVG 20010904//EN" "http://www.w3.org/TR/2001/REC-SVG-20010904/DTD/svg10.dtd">
<!-- Created using Krita: https://krita.org -->
<svg xmlns="http://www.w3.org/2000/svg" 
    xmlns:xlink="http://www.w3.org/1999/xlink"
    xmlns:krita="http://krita.org/namespaces/svg/krita"
    xmlns:sodipodi="http://sodipodi.sourceforge.net/DTD/sodipodi-0.dtd"
    width="152.64pt"
    height="203.76pt"
    viewBox="0 0 152.64 203.76">
<defs/>
<path id="shape0" transform="translate(50.9681718407254, 83.5319395414065)" fill="none" stroke="#000000" stroke-width="1.44" stroke-linecap="square" stroke-linejoin="miter" stroke-miterlimit="2" d="M0 116.46L9.54 0" sodipodi:nodetypes="cc"/><path id="shape1" transform="translate(86.4281736839475, 83.5319395414064)" fill="none" stroke="#000000" stroke-width="1.44" stroke-linecap="square" stroke-linejoin="miter" stroke-miterlimit="2" d="M0 0L9.79039 117.225" sodipodi:nodetypes="cc"/><path id="shape2" transform="translate(54.0281684066673, 165.611936858388)" fill="none" stroke="#000000" stroke-width="0.72" stroke-linecap="square" stroke-linejoin="miter" stroke-miterlimit="2" d="M42.1904 34.9543L0 0" sodipodi:nodetypes="cc"/><path id="shape3" transform="translate(53.6681684022981, 135.731936126404)" fill="none" stroke="#000000" stroke-width="0.72" stroke-linecap="square" stroke-linejoin="miter" stroke-miterlimit="2" d="M0 28.98L36.72 0" sodipodi:nodetypes="cc"/><path id="shape4" transform="translate(58.3481667210593, 108.551934007403)" fill="none" stroke="#000000" stroke-width="0.72" stroke-linecap="square" stroke-linejoin="miter" stroke-miterlimit="2" d="M32.22 27L0 0" sodipodi:nodetypes="cc"/><path id="shape5" transform="translate(58.3481667210592, 83.2784550074055)" fill="none" stroke="#000000" stroke-width="0.72" stroke-linecap="square" stroke-linejoin="miter" stroke-miterlimit="2" d="M0 25.2735L15.2147 0" sodipodi:nodetypes="cc"/><path id="shape6" transform="translate(73.56286042785, 83.7239322996384)" fill="none" stroke="#000000" stroke-width="0.72" stroke-linecap="square" stroke-linejoin="miter" stroke-miterlimit="2" d="M0 0L14.8917 24.9467" sodipodi:nodetypes="cc"/><path id="shape7" transform="translate(56.1881684328821, 107.651936154958)" fill="none" stroke="#000000" stroke-width="0.72" stroke-linecap="square" stroke-linejoin="miter" stroke-miterlimit="2" d="M32.04 0L0 27.9" sodipodi:nodetypes="cc"/><path id="shape8" transform="translate(56.1881684328821, 135.551936493565)" fill="none" stroke="#000000" stroke-width="0.72" stroke-linecap="square" stroke-linejoin="miter" stroke-miterlimit="2" d="M0 0L37.08 30.42" sodipodi:nodetypes="cc"/><path id="shape9" transform="translate(50.6081683651606, 165.971936862757)" fill="none" stroke="#000000" stroke-width="0.72" stroke-linecap="square" stroke-linejoin="miter" stroke-miterlimit="2" d="M42.66 0L0 33.84" sodipodi:nodetypes="cc"/><path id="shape10" transform="translate(52.3554476091582, 181.430099381989)" fill="none" stroke="#000000" stroke-width="0.72" stroke-linecap="square" stroke-linejoin="miter" stroke-miterlimit="2" d="M0 0L42.0827 0.0218351" sodipodi:nodetypes="cc"/><path id="shape11" transform="translate(54.8528127128624, 149.400010591926)" fill="none" stroke="#000000" stroke-width="0.72" stroke-linecap="square" stroke-linejoin="miter" stroke-miterlimit="2" d="M0 0.127279L37.1655 0" sodipodi:nodetypes="cc"/><path id="shape12" transform="translate(57.143838750921, 121.144022789203)" fill="none" stroke="#000000" stroke-width="0.72" stroke-linecap="square" stroke-linejoin="miter" stroke-miterlimit="2" d="M0 0L32.3289 0" sodipodi:nodetypes="cc"/><path id="shape13" transform="translate(51.9253910032534, 188.602012696491)" fill="none" stroke="#000000" stroke-width="0.72" stroke-linecap="square" stroke-linejoin="miter" stroke-miterlimit="2" d="M0 0L12.4734 0.127279" sodipodi:nodetypes="cc"/><path id="shape14" transform="translate(52.1799494532275, 181.092538422254)" fill="none" stroke="#000000" stroke-width="0.72" stroke-linecap="square" stroke-linejoin="miter" stroke-miterlimit="2" d="M12.2188 7.63675L0 0" sodipodi:nodetypes="cc"/><path id="shape15" transform="translate(52.1799494532275, 173.583064148017)" fill="none" stroke="#000000" stroke-width="0.72" stroke-linecap="square" stroke-linejoin="miter" stroke-miterlimit="2" d="M0 7.50947L11.4551 0" sodipodi:nodetypes="cc"/><path id="shape16" transform="translate(53.3254624781112, 173.45578492303)" fill="none" stroke="#000000" stroke-width="0.72" stroke-linecap="square" stroke-linejoin="miter" stroke-miterlimit="2" d="M10.3096 0.127279L0 0" sodipodi:nodetypes="cc"/><path id="shape17" transform="translate(54.725533952969, 155.254855749879)" fill="none" stroke="#000000" stroke-width="0.72" stroke-linecap="square" stroke-linejoin="miter" stroke-miterlimit="2" d="M0 0L9.8005 0" sodipodi:nodetypes="cc"/><path id="shape18" transform="translate(54.9800924029431, 149.400011400473)" fill="none" stroke="#000000" stroke-width="0.72" stroke-linecap="square" stroke-linejoin="miter" stroke-miterlimit="2" d="M9.54594 5.85484L0 0" sodipodi:nodetypes="cc"/><path id="shape19" transform="translate(54.9800924029431, 143.672446276055)" fill="none" stroke="#000000" stroke-width="0.72" stroke-linecap="square" stroke-linejoin="miter" stroke-miterlimit="2" d="M0 5.72757L10.6915 0" sodipodi:nodetypes="cc"/><path id="shape20" transform="translate(55.9983262028397, 143.672446276055)" fill="none" stroke="#000000" stroke-width="0.72" stroke-linecap="square" stroke-linejoin="miter" stroke-miterlimit="2" d="M9.67322 0L0 0" sodipodi:nodetypes="cc"/><path id="shape21" transform="translate(56.7619969010169, 126.61702334771)" fill="none" stroke="#000000" stroke-width="0.72" stroke-linecap="square" stroke-linejoin="miter" stroke-miterlimit="2" d="M0 0L8.90955 0.127279" sodipodi:nodetypes="cc"/><path id="shape22" transform="translate(57.398392994091, 120.889458510043)" fill="none" stroke="#000000" stroke-width="0.72" stroke-linecap="square" stroke-linejoin="miter" stroke-miterlimit="2" d="M8.27315 5.85484L0 0" sodipodi:nodetypes="cc"/><path id="shape23" transform="translate(57.398392994091, 115.416452109606)" fill="none" stroke="#000000" stroke-width="0.72" stroke-linecap="square" stroke-linejoin="miter" stroke-miterlimit="2" d="M0 5.47301L8.90955 0" sodipodi:nodetypes="cc"/><path id="shape24" transform="translate(57.9075098685503, 115.416452109606)" fill="none" stroke="#000000" stroke-width="0.72" stroke-linecap="square" stroke-linejoin="miter" stroke-miterlimit="2" d="M8.40043 0L0 0" sodipodi:nodetypes="cc"/><path id="shape25" transform="translate(82.217846490442, 188.856571046716)" fill="none" stroke="#000000" stroke-width="0.72" stroke-linecap="square" stroke-linejoin="miter" stroke-miterlimit="2" d="M12.7279 0.127276L0 0" sodipodi:nodetypes="cc"/><path id="shape26" transform="translate(82.217846490442, 181.601652306758)" fill="none" stroke="#000000" stroke-width="0.72" stroke-linecap="square" stroke-linejoin="miter" stroke-miterlimit="2" d="M0 7.44584L11.9642 0" sodipodi:nodetypes="cc"/><path id="shape27" transform="translate(82.9815200134303, 173.964898928474)" fill="none" stroke="#000000" stroke-width="0.72" stroke-linecap="square" stroke-linejoin="miter" stroke-miterlimit="2" d="M11.2006 7.63675L0 0" sodipodi:nodetypes="cc"/><path id="shape28" transform="translate(82.9815200134303, 173.964898928474)" fill="none" stroke="#000000" stroke-width="0.72" stroke-linecap="square" stroke-linejoin="miter" stroke-miterlimit="2" d="M0 0L10.5642 0" sodipodi:nodetypes="cc"/><path id="shape29" transform="translate(81.4541693377735, 156.145807712478)" fill="none" stroke="#000000" stroke-width="0.72" stroke-linecap="square" stroke-linejoin="miter" stroke-miterlimit="2" d="M10.946 0.127279L0 0" sodipodi:nodetypes="cc"/><path id="shape30" transform="translate(81.4541693377735, 149.145450449051)" fill="none" stroke="#000000" stroke-width="0.72" stroke-linecap="square" stroke-linejoin="miter" stroke-miterlimit="2" d="M0 7.00036L10.0551 0" sodipodi:nodetypes="cc"/><path id="shape31" transform="translate(81.3268901148021, 142.65421007751)" fill="none" stroke="#000000" stroke-width="0.72" stroke-linecap="square" stroke-linejoin="miter" stroke-miterlimit="2" d="M10.1823 6.49124L0 0" sodipodi:nodetypes="cc"/><path id="shape32" transform="translate(81.3268901148021, 142.526930854538)" fill="none" stroke="#000000" stroke-width="0.72" stroke-linecap="square" stroke-linejoin="miter" stroke-miterlimit="2" d="M0 0.127279L9.54594 0" sodipodi:nodetypes="cc"/><path id="shape33" transform="translate(79.6722544174232, 126.235183553238)" fill="none" stroke="#000000" stroke-width="0.72" stroke-linecap="square" stroke-linejoin="miter" stroke-miterlimit="2" d="M10.1823 0.127279L0 0" sodipodi:nodetypes="cc"/><path id="shape34" transform="translate(79.6722544174232, 121.016735672673)" fill="none" stroke="#000000" stroke-width="0.72" stroke-linecap="square" stroke-linejoin="miter" stroke-miterlimit="2" d="M0 5.21845L9.92778 0" sodipodi:nodetypes="cc"/><path id="shape35" transform="translate(79.5449752008241, 115.54372935891)" fill="none" stroke="#000000" stroke-width="0.72" stroke-linecap="square" stroke-linejoin="miter" stroke-miterlimit="2" d="M10.0551 5.47301L0 0" sodipodi:nodetypes="cc"/><path id="shape36" transform="translate(79.544975200824, 115.416450142311)" fill="none" stroke="#000000" stroke-width="0.72" stroke-linecap="square" stroke-linejoin="miter" stroke-miterlimit="2" d="M0 0.127279L9.29138 0" sodipodi:nodetypes="cc"/><path id="shape37" transform="translate(79.1631396718926, 93.0153098935902)" fill="none" stroke="#000000" stroke-width="0.72" stroke-linecap="square" stroke-linejoin="miter" stroke-miterlimit="2" d="M8.52771 0L0 0" sodipodi:nodetypes="cc"/><path id="shape38" transform="translate(79.1631396718926, 83.0875308162657)" fill="none" stroke="#000000" stroke-width="0.72" stroke-linecap="square" stroke-linejoin="miter" stroke-miterlimit="2" d="M0 9.92778L7.12764 0" sodipodi:nodetypes="cc"/><path id="shape39" transform="translate(59.6894191740637, 93.2698683314703)" fill="none" stroke="#000000" stroke-width="0.72" stroke-linecap="square" stroke-linejoin="miter" stroke-miterlimit="2" d="M0 0L7.76403 0.127279" sodipodi:nodetypes="cc"/><path id="shape40" transform="translate(60.325815268764, 82.9602515973256)" fill="none" stroke="#000000" stroke-width="0.72" stroke-linecap="square" stroke-linejoin="miter" stroke-miterlimit="2" d="M7.12764 10.4369L0 0" sodipodi:nodetypes="cc"/><path id="shape4" transform="matrix(0.999999976803756 0 0 0.999999976803756 -3.64047479584747 202.870966657295)" fill="none" stroke="#3b2300" stroke-width="2.16" stroke-linecap="square" stroke-linejoin="miter" stroke-miterlimit="2" d="M0 0L160.92 0.18" sodipodi:nodetypes="cc"/><path id="shape5" transform="matrix(0.999999976803756 0 0 0.999999976803756 -3.4834693620474 201.234880118941)" fill="none" stroke="#297f00" stroke-width="1.44" stroke-linecap="square" stroke-linejoin="miter" stroke-miterlimit="2" d="M0 0L161.135 0.127279" sodipodi:nodetypes="cc"/><path id="shape41" transform="translate(86.0399979463199, 50.219999363091)" fill="none" stroke="#000000" stroke-width="1.44" stroke-linecap="square" stroke-linejoin="miter" stroke-miterlimit="2" d="M0 32.94L19.44 0" sodipodi:nodetypes="cc"/><path id="shape42" transform="translate(105.479997832436, 4.6799996298752)" fill="none" stroke="#000000" stroke-width="1.44" stroke-linecap="square" stroke-linejoin="miter" stroke-miterlimit="2" d="M0 45.54C2.07 37.95 4.05397 31.9228 6.12397 24.3328M8.415 15.4233C9.4715 11.2376 11.385 3.795 12.42 0" sodipodi:nodetypes="cccc"/><path id="shape43" transform="translate(40.5000008808768, 47.7000012939676)" fill="none" stroke="#000000" stroke-width="1.44" stroke-linecap="square" stroke-linejoin="miter" stroke-miterlimit="2" d="M19.98 35.64L0 0" sodipodi:nodetypes="cc"/><path id="shape44" transform="translate(29.8800005795842, 5.04000008369042)" fill="none" stroke="#000000" stroke-width="1.44" stroke-linecap="square" stroke-linejoin="miter" stroke-miterlimit="2" d="M10.62 42.66C8.85 35.55 7.89011 31.401 6.12011 24.291M3.76544 15.1905C2.67791 10.8953 0.885 3.555 0 0" sodipodi:nodetypes="cccc"/><path id="shape45" transform="translate(33.0726900968575, 20.2305464200296)" fill="none" stroke="#000000" stroke-width="1.44" stroke-linecap="square" stroke-linejoin="miter" stroke-miterlimit="2" d="M0 0L80.1859 0" sodipodi:nodetypes="cc"/><path id="shape46" transform="translate(113.258602730634, 20.2305464200296)" fill="none" stroke="#000000" stroke-width="1.44" stroke-linecap="square" stroke-linejoin="miter" stroke-miterlimit="2" d="M0 0L32.0014 8.47945" sodipodi:nodetypes="cc"/><path id="shape47" transform="translate(3.79846802420896, 29.0700012426363)" fill="none" stroke="#000000" stroke-width="1.44" stroke-linecap="square" stroke-linejoin="miter" stroke-miterlimit="2" d="M141.552 0C135.495 0 129.046 0.0856435 107.442 0.0899983M96.5515 0.0899983C86.9193 0.0891429 47.3106 0.0887547 41.7415 0.0899989M32.0215 0.0899989C7.79605 0.0899989 24.2255 0.070091 0 0.070091" sodipodi:nodetypes="cccccc"/><path id="shape48" transform="translate(3.79846802420896, 20.2305464200296)" fill="none" stroke="#000000" stroke-width="1.44" stroke-linecap="square" stroke-linejoin="miter" stroke-miterlimit="2" d="M0 8.90955L29.5288 0" sodipodi:nodetypes="cc"/><path id="shape49" transform="translate(102.821706165603, 3.93880544046869)" fill="none" stroke="#000000" stroke-width="1.44" stroke-linecap="square" stroke-linejoin="miter" stroke-miterlimit="2" d="M15.2735 0L0 16.2917" sodipodi:nodetypes="cc"/><path id="shape50" transform="translate(29.7634302103842, 4.70248079888561)" fill="none" stroke="#000000" stroke-width="1.44" stroke-linecap="square" stroke-linejoin="miter" stroke-miterlimit="2" d="M0 0L15.0189 15.2735" sodipodi:nodetypes="cc"/><path id="shape51" transform="translate(40.9640021338323, 47.9774177758443)" fill="none" stroke="#000000" stroke-width="1.44" stroke-linecap="square" stroke-linejoin="miter" stroke-miterlimit="2" d="M0 0L32.5835 35.1291" sodipodi:nodetypes="cc"/><path id="shape52" transform="translate(73.5474840929542, 50.2684435223284)" fill="none" stroke="#000000" stroke-width="1.44" stroke-linecap="square" stroke-linejoin="miter" stroke-miterlimit="2" d="M0 32.838L30.9289 0" sodipodi:nodetypes="cc"/><path id="shape53" transform="translate(100.530680090352, 30.1583260794496)" fill="none" stroke="#000000" stroke-width="1.44" stroke-linecap="square" stroke-linejoin="miter" stroke-miterlimit="2" d="M3.94566 19.601L0 0" sodipodi:nodetypes="cc"/><path id="shape54" transform="translate(41.7276774922492, 29.1600001750594)" fill="none" stroke="#000000" stroke-width="1.44" stroke-linecap="square" stroke-linejoin="miter" stroke-miterlimit="2" d="M0 20.3448L4.08232 0" sodipodi:nodetypes="cc"/><path id="shape55" transform="translate(60.1831634759147, 84.1247163281125)" fill="none" stroke="#000000" stroke-width="0.72" stroke-linecap="square" stroke-linejoin="miter" stroke-miterlimit="2" d="M0 0L25.965 0" sodipodi:nodetypes="cc"/><path id="shape56" transform="translate(80.1660016435502, 76.1061252162588)" fill="none" stroke="#000000" stroke-width="0.72" stroke-linecap="square" stroke-linejoin="miter" stroke-miterlimit="2" d="M5.98212 8.01859L0 0" sodipodi:nodetypes="cc"/><path id="shape57" transform="translate(80.1660016435502, 72.4150277203261)" fill="none" stroke="#000000" stroke-width="0.72" stroke-linecap="square" stroke-linejoin="miter" stroke-miterlimit="2" d="M0 3.6911L11.837 0" sodipodi:nodetypes="cc"/><path id="shape58" transform="translate(89.3301057713831, 66.5601834164329)" fill="none" stroke="#000000" stroke-width="0.72" stroke-linecap="square" stroke-linejoin="miter" stroke-miterlimit="2" d="M2.67286 5.85484L0 0" sodipodi:nodetypes="cc"/><path id="shape59" transform="translate(89.3301057713831, 66.5601834164329)" fill="none" stroke="#000000" stroke-width="0.72" stroke-linecap="square" stroke-linejoin="miter" stroke-miterlimit="2" d="M0 0L6.7458 0.127279" sodipodi:nodetypes="cc"/><path id="shape60" transform="translate(96.07590464326, 59.3052676485652)" fill="none" stroke="#000000" stroke-width="0.72" stroke-linecap="square" stroke-linejoin="miter" stroke-miterlimit="2" d="M0 7.38219L0.127279 0" sodipodi:nodetypes="cc"/><path id="shape61" transform="translate(96.2031838672577, 59.3052676485652)" fill="none" stroke="#000000" stroke-width="0.72" stroke-linecap="square" stroke-linejoin="miter" stroke-miterlimit="2" d="M0 0L4.20021 0" sodipodi:nodetypes="cc"/><path id="shape62" transform="translate(60.5650011479077, 76.6152421122495)" fill="none" stroke="#000000" stroke-width="0.72" stroke-linecap="square" stroke-linejoin="miter" stroke-miterlimit="2" d="M0 7.25492L6.49124 0" sodipodi:nodetypes="cc"/><path id="shape63" transform="translate(54.4555983960192, 72.7968653923191)" fill="none" stroke="#000000" stroke-width="0.72" stroke-linecap="square" stroke-linejoin="miter" stroke-miterlimit="2" d="M12.6006 3.81838L0 0" sodipodi:nodetypes="cc"/><path id="shape64" transform="translate(54.4555983960192, 65.7965080724468)" fill="none" stroke="#000000" stroke-width="0.72" stroke-linecap="square" stroke-linejoin="miter" stroke-miterlimit="2" d="M0 7.00036L3.0547 0" sodipodi:nodetypes="cc"/><path id="shape65" transform="translate(51.1463385720795, 65.7965080724468)" fill="none" stroke="#000000" stroke-width="0.72" stroke-linecap="square" stroke-linejoin="miter" stroke-miterlimit="2" d="M6.36396 0L0 0.127279" sodipodi:nodetypes="cc"/><path id="shape66" transform="translate(51.0190593480818, 58.6688715285768)" fill="none" stroke="#000000" stroke-width="0.72" stroke-linecap="square" stroke-linejoin="miter" stroke-miterlimit="2" d="M0.127279 7.25492L0 0" sodipodi:nodetypes="cc"/><path id="shape67" transform="translate(46.5642865081631, 58.4143130805815)" fill="none" stroke="#000000" stroke-width="0.72" stroke-linecap="square" stroke-linejoin="miter" stroke-miterlimit="2" d="M4.45477 0.254558L0 0" sodipodi:nodetypes="cc"/><path id="shape68" transform="translate(45.7200038334494, 20.1600014717572)" fill="none" stroke="#000000" stroke-width="0.72" stroke-linecap="square" stroke-linejoin="miter" stroke-miterlimit="2" d="M0 9L7.2 0" sodipodi:nodetypes="cc"/><path id="shape69" transform="translate(52.9200042805277, 20.1600014717572)" fill="none" stroke="#000000" stroke-width="0.72" stroke-linecap="square" stroke-linejoin="miter" stroke-miterlimit="2" d="M0 0L9.93602 8.59825" sodipodi:nodetypes="cc"/><path id="shape70" transform="translate(62.4741863432688, 19.9759865383245)" fill="none" stroke="#000000" stroke-width="0.72" stroke-linecap="square" stroke-linejoin="miter" stroke-miterlimit="2" d="M0 9.03682L10.4369 0" sodipodi:nodetypes="cc"/><path id="shape71" transform="translate(72.7838031605419, 19.5941488784255)" fill="none" stroke="#000000" stroke-width="0.72" stroke-linecap="square" stroke-linejoin="miter" stroke-miterlimit="2" d="M0 0L10.1823 9.41866" sodipodi:nodetypes="cc"/><path id="shape72" transform="translate(82.3297446580171, 20.2305449782572)" fill="none" stroke="#000000" stroke-width="0.72" stroke-linecap="square" stroke-linejoin="miter" stroke-miterlimit="2" d="M0 8.90955L9.54594 0" sodipodi:nodetypes="cc"/><path id="shape73" transform="translate(91.4938484955933, 19.9759865383245)" fill="none" stroke="#000000" stroke-width="0.72" stroke-linecap="square" stroke-linejoin="miter" stroke-miterlimit="2" d="M0 0L8.76616 9.18402" sodipodi:nodetypes="cc"/><path id="shape74" transform="translate(33.5818047171388, 19.9759870580067)" fill="none" stroke="#000000" stroke-width="0.72" stroke-linecap="square" stroke-linejoin="miter" stroke-miterlimit="2" d="M12.3461 9.41866L0 0" sodipodi:nodetypes="cc"/><path id="shape75" transform="translate(25.3086552671678, 19.9759870580067)" fill="none" stroke="#000000" stroke-width="0.72" stroke-linecap="square" stroke-linejoin="miter" stroke-miterlimit="2" d="M8.27315 0L0 8.90955" sodipodi:nodetypes="cc"/><path id="shape76" transform="translate(18.3082980402693, 25.0671559502965)" fill="none" stroke="#000000" stroke-width="0.72" stroke-linecap="square" stroke-linejoin="miter" stroke-miterlimit="2" d="M7.00036 3.81838L0 0" sodipodi:nodetypes="cc"/><path id="shape77" transform="translate(18.181018817962, 25.0671559502965)" fill="none" stroke="#000000" stroke-width="0.72" stroke-linecap="square" stroke-linejoin="miter" stroke-miterlimit="2" d="M0.127279 0L0 3.6911" sodipodi:nodetypes="cc"/><path id="shape78" transform="translate(100.148837983829, 20.2305455026212)" fill="none" stroke="#000000" stroke-width="0.72" stroke-linecap="square" stroke-linejoin="miter" stroke-miterlimit="2" d="M0 8.78227L13.4916 0" sodipodi:nodetypes="cc"/><path id="shape79" transform="translate(113.640435548397, 20.2305455026212)" fill="none" stroke="#000000" stroke-width="0.72" stroke-linecap="square" stroke-linejoin="miter" stroke-miterlimit="2" d="M0 0L8.40043 8.52771" sodipodi:nodetypes="cc"/><path id="shape80" transform="translate(122.040864220675, 24.6853182833748)" fill="none" stroke="#000000" stroke-width="0.72" stroke-linecap="square" stroke-linejoin="miter" stroke-miterlimit="2" d="M0 4.07294L7.38219 0" sodipodi:nodetypes="cc"/><path id="shape81" transform="translate(129.423059114495, 24.6853182833748)" fill="none" stroke="#000000" stroke-width="0.72" stroke-linecap="square" stroke-linejoin="miter" stroke-miterlimit="2" d="M0 0L0.127279 4.70933" sodipodi:nodetypes="cc"/><path id="shape82" transform="translate(100.148837983829, 29.3946495087429)" fill="none" stroke="#000000" stroke-width="0.72" stroke-linecap="square" stroke-linejoin="miter" stroke-miterlimit="2" d="M0 0.127279L11.7097 0" sodipodi:nodetypes="cc"/><path id="shape83" transform="translate(35.4909930517475, 29.3946495087429)" fill="none" stroke="#000000" stroke-width="0.72" stroke-linecap="square" stroke-linejoin="miter" stroke-miterlimit="2" d="M0 0.127279L10.6915 0" sodipodi:nodetypes="cc"/><path id="shape84" transform="translate(33.8363631617533, 13.1029090534154)" fill="none" stroke="#000000" stroke-width="0.72" stroke-linecap="square" stroke-linejoin="miter" stroke-miterlimit="2" d="M0 6.7458L4.70933 0" sodipodi:nodetypes="cc"/><path id="shape85" transform="translate(108.931104323029, 14.2484220541806)" fill="none" stroke="#000000" stroke-width="0.72" stroke-linecap="square" stroke-linejoin="miter" stroke-miterlimit="2" d="M4.58205 5.60029L0 0" sodipodi:nodetypes="cc"/><path id="shape86" transform="translate(100.403396428443, 29.1400910641284)" fill="none" stroke="#000000" stroke-width="0.72" stroke-linecap="square" stroke-linejoin="miter" stroke-miterlimit="2" d="M0 0L8.90955 7.50947" sodipodi:nodetypes="cc"/><path id="shape87" transform="translate(102.312584763052, 36.649565180256)" fill="none" stroke="#000000" stroke-width="0.72" stroke-linecap="square" stroke-linejoin="miter" stroke-miterlimit="2" d="M7.00036 0L0 0" sodipodi:nodetypes="cc"/><path id="shape88" transform="translate(102.312584763052, 36.649565180256)" fill="none" stroke="#000000" stroke-width="0.72" stroke-linecap="square" stroke-linejoin="miter" stroke-miterlimit="2" d="M0 0L5.34573 6.7458" sodipodi:nodetypes="cc"/><path id="shape89" transform="translate(37.6547398309707, 29.0128118418212)" fill="none" stroke="#000000" stroke-width="0.72" stroke-linecap="square" stroke-linejoin="miter" stroke-miterlimit="2" d="M8.01859 0L0 7.25492" sodipodi:nodetypes="cc"/><path id="shape90" transform="translate(37.5274606086635, 36.3950067356415)" fill="none" stroke="#000000" stroke-width="0.72" stroke-linecap="square" stroke-linejoin="miter" stroke-miterlimit="2" d="M0 0L5.85484 0" sodipodi:nodetypes="cc"/><path id="shape91" transform="translate(39.6912073878866, 36.3950067356415)" fill="none" stroke="#000000" stroke-width="0.72" stroke-linecap="square" stroke-linejoin="miter" stroke-miterlimit="2" d="M3.6911 0L0 6.87308" sodipodi:nodetypes="cc"/><path id="shape0" transform="matrix(0.999999917939716 0 0 0.999999917939716 7.08186589325297 30.042249926009)" fill="none" stroke="#737373" stroke-width="2.16" stroke-linecap="square" stroke-linejoin="miter" stroke-miterlimit="2" d="M0 0L0 16.3554" sodipodi:nodetypes="cc"/><circle id="shape01" transform="matrix(1.54510016879519 0 0 1.46487238810559 3.84270590714622 47.1713540643775)" r="0.719999999999999" cx="0.719999999999999" cy="0.719999999999999" fill="#d00000" fill-rule="evenodd" stroke-opacity="0" stroke="#000000" stroke-width="0" stroke-linecap="square" stroke-linejoin="bevel"/><circle id="shape011" transform="matrix(1.43710241959779 0 0 1.46346167570649 8.16327857847752 47.1058854885898)" r="0.719999999999999" cx="0.719999999999999" cy="0.719999999999999" fill="#d00000" fill-rule="evenodd" stroke-opacity="0" stroke="#000000" stroke-width="0" stroke-linecap="square" stroke-linejoin="bevel"/><path id="shape01" transform="matrix(0.999999917939716 0 0 0.999999917939716 74.0418670409278 30.042249926009)" fill="none" stroke="#737373" stroke-width="2.16" stroke-linecap="square" stroke-linejoin="miter" stroke-miterlimit="2" d="M0 0L0 16.3554" sodipodi:nodetypes="cc"/><circle id="shape011" transform="matrix(1.54510016879519 0 0 1.46487238810559 70.8027070548211 47.1713540643775)" r="0.719999999999999" cx="0.719999999999999" cy="0.719999999999999" fill="#d00000" fill-rule="evenodd" stroke-opacity="0" stroke="#000000" stroke-width="0" stroke-linecap="square" stroke-linejoin="bevel"/><circle id="shape0111" transform="matrix(1.43710241959779 0 0 1.46346167570649 75.1232797261524 47.1058854885898)" r="0.719999999999999" cx="0.719999999999999" cy="0.719999999999999" fill="#d00000" fill-rule="evenodd" stroke-opacity="0" stroke="#000000" stroke-width="0" stroke-linecap="square" stroke-linejoin="bevel"/><path id="shape02" transform="matrix(0.999999917939716 0 0 0.999999917939716 144.241868244135 30.4022499321793)" fill="none" stroke="#737373" stroke-width="2.16" stroke-linecap="square" stroke-linejoin="miter" stroke-miterlimit="2" d="M0 0L0 16.3554" sodipodi:nodetypes="cc"/><circle id="shape012" transform="matrix(1.54510016879519 0 0 1.46487238810559 141.002708258029 47.5313540705478)" r="0.719999999999999" cx="0.719999999999999" cy="0.719999999999999" fill="#d00000" fill-rule="evenodd" stroke-opacity="0" stroke="#000000" stroke-width="0" stroke-linecap="square" stroke-linejoin="bevel"/><circle id="shape0112" transform="matrix(1.43710241959779 0 0 1.46346167570649 145.32328092936 47.4658854947601)" r="0.719999999999999" cx="0.719999999999999" cy="0.719999999999999" fill="#d00000" fill-rule="evenodd" stroke-opacity="0" stroke="#000000" stroke-width="0" stroke-linecap="square" stroke-linejoin="bevel"/>
</svg>
