<?xml version="1.0" standalone="no"?>
<!DOCTYPE svg PUBLIC "-//W3C//DTD SVG 20010904//EN" "http://www.w3.org/TR/2001/REC-SVG-20010904/DTD/svg10.dtd">
<!-- Created using Krita: https://krita.org -->
<svg xmlns="http://www.w3.org/2000/svg" 
    xmlns:xlink="http://www.w3.org/1999/xlink"
    xmlns:krita="http://krita.org/namespaces/svg/krita"
    xmlns:sodipodi="http://sodipodi.sourceforge.net/DTD/sodipodi-0.dtd"
    width="177.84pt"
    height="213.12pt"
    viewBox="0 0 177.84 213.12">
<defs/>
<path id="shape0" transform="translate(61.7400022315125, 75.4200027259584)" fill="none" stroke="#000000" stroke-width="1.44" stroke-linecap="square" stroke-linejoin="miter" stroke-miterlimit="2" d="M0 134.46L11.52 0" sodipodi:nodetypes="cc"/><path id="shape1" transform="translate(52.920001912725, 24.8400008978097)" fill="none" stroke="#000000" stroke-width="1.44" stroke-linecap="square" stroke-linejoin="miter" stroke-miterlimit="2" d="M20.34 50.58L0 0" sodipodi:nodetypes="cc"/><path id="shape2" transform="translate(9.00000032529336, 24.8400008978097)" fill="none" stroke="#000000" stroke-width="1.44" stroke-linecap="square" stroke-linejoin="miter" stroke-miterlimit="2" d="M43.92 0L0 0" sodipodi:nodetypes="cc"/><path id="shape3" transform="translate(9.00000032529336, 16.7400006050457)" fill="none" stroke="#000000" stroke-width="1.44" stroke-linecap="square" stroke-linejoin="miter" stroke-miterlimit="2" d="M0 8.1L40.86 0" sodipodi:nodetypes="cc"/><path id="shape4" transform="translate(44.820001619961, 3.96000014312908)" fill="none" stroke="#000000" stroke-width="1.44" stroke-linecap="square" stroke-linejoin="miter" stroke-miterlimit="2" d="M5.04 12.78L0 0" sodipodi:nodetypes="cc"/><path id="shape5" transform="translate(41.2200014898436, 3.78000013662322)" fill="none" stroke="#000000" stroke-width="1.44" stroke-linecap="square" stroke-linejoin="miter" stroke-miterlimit="2" d="M0 0.18L93.06 0" sodipodi:nodetypes="cc"/><path id="shape6" transform="translate(125.640004541095, 3.60000013011735)" fill="none" stroke="#000000" stroke-width="1.44" stroke-linecap="square" stroke-linejoin="miter" stroke-miterlimit="2" d="M5.04 0L0 12.96" sodipodi:nodetypes="cc"/><path id="shape7" transform="translate(125.640004541095, 16.5600005985398)" fill="none" stroke="#000000" stroke-width="1.44" stroke-linecap="square" stroke-linejoin="miter" stroke-miterlimit="2" d="M0 0L40.86 8.46" sodipodi:nodetypes="cc"/><path id="shape8" transform="translate(122.040004410978, 25.0200009043156)" fill="none" stroke="#000000" stroke-width="1.44" stroke-linecap="square" stroke-linejoin="miter" stroke-miterlimit="2" d="M44.46 0L0 0.18" sodipodi:nodetypes="cc"/><path id="shape9" transform="translate(101.880003682321, 25.2000009108214)" fill="none" stroke="#000000" stroke-width="1.44" stroke-linecap="square" stroke-linejoin="miter" stroke-miterlimit="2" d="M20.16 0L0 50.22" sodipodi:nodetypes="cc"/><path id="shape10" transform="translate(101.880003682321, 75.4200027259584)" fill="none" stroke="#000000" stroke-width="1.44" stroke-linecap="square" stroke-linejoin="miter" stroke-miterlimit="2" d="M0 0L12.06 134.82" sodipodi:nodetypes="cc"/><path id="shape11" transform="translate(52.9200028860265, 13.6800007460477)" fill="none" stroke="#000000" stroke-width="1.44" stroke-linecap="square" stroke-linejoin="miter" stroke-miterlimit="2" d="M0 11.16L10.44 0" sodipodi:nodetypes="cc"/><path id="shape12" transform="translate(63.3600034553786, 13.6800007460477)" fill="none" stroke="#000000" stroke-width="1.44" stroke-linecap="square" stroke-linejoin="miter" stroke-miterlimit="2" d="M0 0L48.42 0" sodipodi:nodetypes="cc"/><path id="shape13" transform="translate(111.780006095995, 13.6800007460477)" fill="none" stroke="#000000" stroke-width="1.44" stroke-linecap="square" stroke-linejoin="miter" stroke-miterlimit="2" d="M0 0L10.44 10.98" sodipodi:nodetypes="cc"/><path id="shape14" transform="translate(87.8400047904113, 25.0200013644819)" fill="none" stroke="#000000" stroke-width="1.44" stroke-linecap="square" stroke-linejoin="miter" stroke-miterlimit="2" d="M34.38 0L0 50.4" sodipodi:nodetypes="cc"/><path id="shape15" transform="translate(52.7400028762101, 24.8400013546655)" fill="none" stroke="#000000" stroke-width="1.44" stroke-linecap="square" stroke-linejoin="miter" stroke-miterlimit="2" d="M35.1 50.58L0 0" sodipodi:nodetypes="cc"/><path id="shape16" transform="translate(61.9200046739022, 153.180011562473)" fill="none" stroke="#000000" stroke-width="0.72" stroke-linecap="square" stroke-linejoin="miter" stroke-miterlimit="2" d="M0 55.44L46.08 0" sodipodi:nodetypes="cc"/><path id="shape17" transform="translate(71.403643357117, 94.6957409228076)" fill="none" stroke="#000000" stroke-width="0.72" stroke-linecap="square" stroke-linejoin="miter" stroke-miterlimit="2" d="M36.5964 57.1484L0 0" sodipodi:nodetypes="cc"/><path id="shape18" transform="translate(71.403643357117, 75.0947407855598)" fill="none" stroke="#000000" stroke-width="0.72" stroke-linecap="square" stroke-linejoin="miter" stroke-miterlimit="2" d="M0 19.601L16.5463 0" sodipodi:nodetypes="cc"/><path id="shape19" transform="translate(87.568104509263, 75.0947407855598)" fill="none" stroke="#000000" stroke-width="0.72" stroke-linecap="square" stroke-linejoin="miter" stroke-miterlimit="2" d="M0 0L16.1645 19.4737" sodipodi:nodetypes="cc"/><path id="shape20" transform="translate(66.5670329336403, 94.5684617011372)" fill="none" stroke="#000000" stroke-width="0.72" stroke-linecap="square" stroke-linejoin="miter" stroke-miterlimit="2" d="M37.1655 0L0 57.5302" sodipodi:nodetypes="cc"/><path id="shape21" transform="translate(66.5670329336403, 152.098669896176)" fill="none" stroke="#000000" stroke-width="0.72" stroke-linecap="square" stroke-linejoin="miter" stroke-miterlimit="2" d="M0 0L47.0933 57.1484" sodipodi:nodetypes="cc"/><path id="shape22" transform="translate(18.7100456333649, 22.655701515231)" fill="none" stroke="#000000" stroke-width="0.72" stroke-linecap="square" stroke-linejoin="miter" stroke-miterlimit="2" d="M0 0L4.96389 2.54558" sodipodi:nodetypes="cc"/><path id="shape23" transform="translate(23.6739352911964, 20.4919547413044)" fill="none" stroke="#000000" stroke-width="0.72" stroke-linecap="square" stroke-linejoin="miter" stroke-miterlimit="2" d="M0 4.70933L5.85484 0" sodipodi:nodetypes="cc"/><path id="shape24" transform="translate(30.8015717229545, 20.2373962973131)" fill="none" stroke="#000000" stroke-width="0.72" stroke-linecap="square" stroke-linejoin="miter" stroke-miterlimit="2" d="M0 0L7.50947 4.83661" sodipodi:nodetypes="cc"/><path id="shape25" transform="translate(38.3110458206996, 16.4190196374427)" fill="none" stroke="#000000" stroke-width="0.72" stroke-linecap="square" stroke-linejoin="miter" stroke-miterlimit="2" d="M0 8.65499L11.2006 0" sodipodi:nodetypes="cc"/><path id="shape26" transform="translate(49.5116173563194, 3.69109743787471)" fill="none" stroke="#000000" stroke-width="0.72" stroke-linecap="square" stroke-linejoin="miter" stroke-miterlimit="2" d="M0 12.7279L5.98212 0" sodipodi:nodetypes="cc"/><path id="shape27" transform="translate(55.4937407901164, 3.69109743787471)" fill="none" stroke="#000000" stroke-width="0.72" stroke-linecap="square" stroke-linejoin="miter" stroke-miterlimit="2" d="M0 0L8.01859 9.8005" sodipodi:nodetypes="cc"/><path id="shape28" transform="translate(63.5123317758442, 3.81837665987039)" fill="none" stroke="#000000" stroke-width="0.72" stroke-linecap="square" stroke-linejoin="miter" stroke-miterlimit="2" d="M0 9.67322L4.96389 0" sodipodi:nodetypes="cc"/><path id="shape29" transform="translate(68.4762214336757, 3.81837665987039)" fill="none" stroke="#000000" stroke-width="0.72" stroke-linecap="square" stroke-linejoin="miter" stroke-miterlimit="2" d="M0 0L4.70933 9.8005" sodipodi:nodetypes="cc"/><path id="shape30" transform="translate(73.1855526475158, 3.69109743787471)" fill="none" stroke="#000000" stroke-width="0.72" stroke-linecap="square" stroke-linejoin="miter" stroke-miterlimit="2" d="M0 9.92778L4.83661 0" sodipodi:nodetypes="cc"/><path id="shape31" transform="translate(78.0221630833517, 3.69109743787471)" fill="none" stroke="#000000" stroke-width="0.72" stroke-linecap="square" stroke-linejoin="miter" stroke-miterlimit="2" d="M0 0L4.70933 9.67322" sodipodi:nodetypes="cc"/><path id="shape32" transform="translate(82.7314942971918, 3.56381821587904)" fill="none" stroke="#000000" stroke-width="0.72" stroke-linecap="square" stroke-linejoin="miter" stroke-miterlimit="2" d="M0 9.8005L5.34573 0" sodipodi:nodetypes="cc"/><path id="shape33" transform="translate(88.0772216210104, 3.56381821587904)" fill="none" stroke="#000000" stroke-width="0.72" stroke-linecap="square" stroke-linejoin="miter" stroke-miterlimit="2" d="M0 0L4.32749 10.0551" sodipodi:nodetypes="cc"/><path id="shape34" transform="translate(92.5319943908592, 3.56381821587904)" fill="none" stroke="#000000" stroke-width="0.72" stroke-linecap="square" stroke-linejoin="miter" stroke-miterlimit="2" d="M0 10.0551L4.96389 0" sodipodi:nodetypes="cc"/><path id="shape35" transform="translate(97.4958840486907, 3.56381821587904)" fill="none" stroke="#000000" stroke-width="0.72" stroke-linecap="square" stroke-linejoin="miter" stroke-miterlimit="2" d="M0 0L4.70933 10.0551" sodipodi:nodetypes="cc"/><path id="shape36" transform="translate(102.205215262531, 3.69109743787471)" fill="none" stroke="#000000" stroke-width="0.72" stroke-linecap="square" stroke-linejoin="miter" stroke-miterlimit="2" d="M0 9.92778L4.07294 0" sodipodi:nodetypes="cc"/><path id="shape37" transform="translate(106.278150366393, 3.69109743787471)" fill="none" stroke="#000000" stroke-width="0.72" stroke-linecap="square" stroke-linejoin="miter" stroke-miterlimit="2" d="M0 0L5.21845 10.1823" sodipodi:nodetypes="cc"/><path id="shape38" transform="translate(111.496598468215, 3.81837665987039)" fill="none" stroke="#000000" stroke-width="0.72" stroke-linecap="square" stroke-linejoin="miter" stroke-miterlimit="2" d="M0 10.0551L8.65499 0" sodipodi:nodetypes="cc"/><path id="shape39" transform="translate(120.151585563922, 3.81837665987039)" fill="none" stroke="#000000" stroke-width="0.72" stroke-linecap="square" stroke-linejoin="miter" stroke-miterlimit="2" d="M0 0L5.60029 12.7279" sodipodi:nodetypes="cc"/><path id="shape40" transform="translate(111.878436134203, 13.4915975315421)" fill="none" stroke="#000000" stroke-width="0.72" stroke-linecap="square" stroke-linejoin="miter" stroke-miterlimit="2" d="M0 0L14.5098 2.67286" sodipodi:nodetypes="cc"/><path id="shape41" transform="translate(125.242754443749, 16.1644611934513)" fill="none" stroke="#000000" stroke-width="0.72" stroke-linecap="square" stroke-linejoin="miter" stroke-miterlimit="2" d="M0 0L11.837 8.90955" sodipodi:nodetypes="cc"/><path id="shape42" transform="translate(137.079722089347, 19.7282794093304)" fill="none" stroke="#000000" stroke-width="0.72" stroke-linecap="square" stroke-linejoin="miter" stroke-miterlimit="2" d="M0 5.34573L7.38219 0" sodipodi:nodetypes="cc"/><path id="shape43" transform="translate(144.461916965097, 19.7282794093304)" fill="none" stroke="#000000" stroke-width="0.72" stroke-linecap="square" stroke-linejoin="miter" stroke-miterlimit="2" d="M0 0L6.23668 5.47301" sodipodi:nodetypes="cc"/><path id="shape44" transform="translate(60.839467150444, 36.2745776943024)" fill="none" stroke="#000000" stroke-width="0.72" stroke-linecap="square" stroke-linejoin="miter" stroke-miterlimit="2" d="M0.127279 0L0 9.41866" sodipodi:nodetypes="cc"/><path id="shape45" transform="translate(60.839467150444, 45.565960752843)" fill="none" stroke="#000000" stroke-width="0.72" stroke-linecap="square" stroke-linejoin="miter" stroke-miterlimit="2" d="M0 0.127279L6.49124 0" sodipodi:nodetypes="cc"/><path id="shape46" transform="translate(65.1669606297643, 45.565960752843)" fill="none" stroke="#000000" stroke-width="0.72" stroke-linecap="square" stroke-linejoin="miter" stroke-miterlimit="2" d="M2.16375 0L0 10.0551" sodipodi:nodetypes="cc"/><path id="shape47" transform="translate(65.2942398497443, 55.6210191312637)" fill="none" stroke="#000000" stroke-width="0.72" stroke-linecap="square" stroke-linejoin="miter" stroke-miterlimit="2" d="M0 0L8.52771 0.127279" sodipodi:nodetypes="cc"/><path id="shape48" transform="translate(69.4944541090846, 55.7482983512437)" fill="none" stroke="#000000" stroke-width="0.72" stroke-linecap="square" stroke-linejoin="miter" stroke-miterlimit="2" d="M4.32749 0L0 9.67322" sodipodi:nodetypes="cc"/><path id="shape49" transform="translate(69.4944541090846, 65.2942398497443)" fill="none" stroke="#000000" stroke-width="0.72" stroke-linecap="square" stroke-linejoin="miter" stroke-miterlimit="2" d="M0 0.127279L11.0733 0" sodipodi:nodetypes="cc"/><path id="shape50" transform="translate(73.1855514885048, 65.2942398497443)" fill="none" stroke="#000000" stroke-width="0.72" stroke-linecap="square" stroke-linejoin="miter" stroke-miterlimit="2" d="M7.38219 0L0 10.3096" sodipodi:nodetypes="cc"/><path id="shape51" transform="translate(94.0593435652262, 65.1669606297643)" fill="none" stroke="#000000" stroke-width="0.72" stroke-linecap="square" stroke-linejoin="miter" stroke-miterlimit="2" d="M12.2188 0L0 0" sodipodi:nodetypes="cc"/><path id="shape52" transform="translate(94.0593435652262, 65.1669606297643)" fill="none" stroke="#000000" stroke-width="0.72" stroke-linecap="square" stroke-linejoin="miter" stroke-miterlimit="2" d="M0 0L8.27315 9.92778" sodipodi:nodetypes="cc"/><path id="shape53" transform="translate(101.568817544047, 55.2391814713236)" fill="none" stroke="#000000" stroke-width="0.72" stroke-linecap="square" stroke-linejoin="miter" stroke-miterlimit="2" d="M4.70933 9.67322L0 0" sodipodi:nodetypes="cc"/><path id="shape54" transform="translate(101.568817544047, 55.2391814713236)" fill="none" stroke="#000000" stroke-width="0.72" stroke-linecap="square" stroke-linejoin="miter" stroke-miterlimit="2" d="M0 0L8.40043 0" sodipodi:nodetypes="cc"/><path id="shape55" transform="translate(108, 45.438681532863)" fill="none" stroke="#000000" stroke-width="0.72" stroke-linecap="square" stroke-linejoin="miter" stroke-miterlimit="2" d="M2.09653 9.8005L0 0" sodipodi:nodetypes="cc"/><path id="shape56" transform="translate(108, 45.438681532863)" fill="none" stroke="#000000" stroke-width="0.72" stroke-linecap="square" stroke-linejoin="miter" stroke-miterlimit="2" d="M0 0L6.16946 0" sodipodi:nodetypes="cc"/><path id="shape57" transform="translate(114.169460322068, 36.1472984743224)" fill="none" stroke="#000000" stroke-width="0.72" stroke-linecap="square" stroke-linejoin="miter" stroke-miterlimit="2" d="M0 9.29138L0.636396 0" sodipodi:nodetypes="cc"/><path id="shape58" transform="translate(63.7199997642273, 177.4799993433)" fill="none" stroke="#000000" stroke-width="0.72" stroke-linecap="square" stroke-linejoin="miter" stroke-miterlimit="2" d="M47.34 0L0 0.18" sodipodi:nodetypes="cc"/><path id="shape59" transform="translate(64.6199997608972, 178.019999341302)" fill="none" stroke="#000000" stroke-width="0.72" stroke-linecap="square" stroke-linejoin="miter" stroke-miterlimit="2" d="M0 0L9.72 15.84" sodipodi:nodetypes="cc"/><path id="shape60" transform="translate(63.1799997662254, 193.679999283358)" fill="none" stroke="#000000" stroke-width="0.72" stroke-linecap="square" stroke-linejoin="miter" stroke-miterlimit="2" d="M11.16 0.18L0 0" sodipodi:nodetypes="cc"/><path id="shape61" transform="translate(100.439999628358, 193.499999284024)" fill="none" stroke="#000000" stroke-width="0.72" stroke-linecap="square" stroke-linejoin="miter" stroke-miterlimit="2" d="M11.52 0.18L0 0" sodipodi:nodetypes="cc"/><path id="shape62" transform="translate(100.439999628358, 178.199999340636)" fill="none" stroke="#000000" stroke-width="0.72" stroke-linecap="square" stroke-linejoin="miter" stroke-miterlimit="2" d="M0 15.3L10.44 0" sodipodi:nodetypes="cc"/><path id="shape63" transform="translate(98.0999996370166, 164.519999391254)" fill="none" stroke="#000000" stroke-width="0.72" stroke-linecap="square" stroke-linejoin="miter" stroke-miterlimit="2" d="M12.78 13.68L0 0" sodipodi:nodetypes="cc"/><path id="shape64" transform="translate(98.0999996370166, 164.519999391254)" fill="none" stroke="#000000" stroke-width="0.72" stroke-linecap="square" stroke-linejoin="miter" stroke-miterlimit="2" d="M0 0L12.06 0.18" sodipodi:nodetypes="cc"/><path id="shape65" transform="translate(65.3399997582331, 164.879999389922)" fill="none" stroke="#000000" stroke-width="0.72" stroke-linecap="square" stroke-linejoin="miter" stroke-miterlimit="2" d="M0 0L11.16 0.18" sodipodi:nodetypes="cc"/><path id="shape66" transform="translate(64.7999997602312, 165.059999389255)" fill="none" stroke="#000000" stroke-width="0.72" stroke-linecap="square" stroke-linejoin="miter" stroke-miterlimit="2" d="M11.7 0L0 12.24" sodipodi:nodetypes="cc"/><path id="shape67" transform="translate(68.2199997475767, 135.539999498483)" fill="none" stroke="#000000" stroke-width="0.72" stroke-linecap="square" stroke-linejoin="miter" stroke-miterlimit="2" d="M0 0.18L8.46 0" sodipodi:nodetypes="cc"/><path id="shape68" transform="translate(69.4799997429145, 120.059999555762)" fill="none" stroke="#000000" stroke-width="0.72" stroke-linecap="square" stroke-linejoin="miter" stroke-miterlimit="2" d="M7.56 15.48L0 0" sodipodi:nodetypes="cc"/><path id="shape69" transform="translate(69.4799997429145, 108)" fill="none" stroke="#000000" stroke-width="0.72" stroke-linecap="square" stroke-linejoin="miter" stroke-miterlimit="2" d="M0 12.06L9.9 0" sodipodi:nodetypes="cc"/><path id="shape70" transform="translate(70.6717870744893, 106.978184666562)" fill="none" stroke="#000000" stroke-width="0.72" stroke-linecap="square" stroke-linejoin="miter" stroke-miterlimit="2" d="M0 0L8.87773 0" sodipodi:nodetypes="cc"/><path id="shape71" transform="translate(95.6699998904763, 106.919999877597)" fill="none" stroke="#000000" stroke-width="0.72" stroke-linecap="square" stroke-linejoin="miter" stroke-miterlimit="2" d="M9.18 0.09L0 0" sodipodi:nodetypes="cc"/><path id="shape72" transform="translate(95.6699998904763, 106.919999877597)" fill="none" stroke="#000000" stroke-width="0.72" stroke-linecap="square" stroke-linejoin="miter" stroke-miterlimit="2" d="M0 0L10.35 12.69" sodipodi:nodetypes="cc"/><path id="shape73" transform="translate(98.0099998877974, 119.60999986307)" fill="none" stroke="#000000" stroke-width="0.72" stroke-linecap="square" stroke-linejoin="miter" stroke-miterlimit="2" d="M8.01 0L0 16.56" sodipodi:nodetypes="cc"/><path id="shape74" transform="translate(98.0099998877974, 136.169999844112)" fill="none" stroke="#000000" stroke-width="0.72" stroke-linecap="square" stroke-linejoin="miter" stroke-miterlimit="2" d="M0 0L9.99 0.09" sodipodi:nodetypes="cc"/><path id="shape75" transform="translate(69.2999999206649, 119.519999863173)" fill="none" stroke="#000000" stroke-width="0.72" stroke-linecap="square" stroke-linejoin="miter" stroke-miterlimit="2" d="M36.36 0L0 0" sodipodi:nodetypes="cc"/><path id="shape76" transform="translate(95.4594187403034, 85.0225222913636)" fill="none" stroke="#000000" stroke-width="0.72" stroke-linecap="square" stroke-linejoin="miter" stroke-miterlimit="2" d="M7.31856 0.0636396L0 0" sodipodi:nodetypes="cc"/><path id="shape77" transform="translate(95.4594187403034, 75.4129408048397)" fill="none" stroke="#000000" stroke-width="0.72" stroke-linecap="square" stroke-linejoin="miter" stroke-miterlimit="2" d="M0 9.60958L6.68216 0" sodipodi:nodetypes="cc"/><path id="shape78" transform="translate(72.2945997926565, 85.0861619038571)" fill="none" stroke="#000000" stroke-width="0.72" stroke-linecap="square" stroke-linejoin="miter" stroke-miterlimit="2" d="M0 0L7.00036 0" sodipodi:nodetypes="cc"/><path id="shape79" transform="translate(73.1219147550724, 75.4129408048397)" fill="none" stroke="#000000" stroke-width="0.72" stroke-linecap="square" stroke-linejoin="miter" stroke-miterlimit="2" d="M6.17304 9.67322L0 0" sodipodi:nodetypes="cc"/><path id="shape80" transform="translate(49.5116169517787, 13.618876642263)" fill="none" stroke="#000000" stroke-width="0.72" stroke-linecap="square" stroke-linejoin="miter" stroke-miterlimit="2" d="M0 2.92742L13.6189 0" sodipodi:nodetypes="cc"/><path id="shape81" transform="translate(121.806216694885, 16.2917405819699)" fill="none" stroke="#000000" stroke-width="0.72" stroke-linecap="square" stroke-linejoin="miter" stroke-miterlimit="2" d="M3.81838 0L0 9.29138" sodipodi:nodetypes="cc"/><path id="shape82" transform="translate(49.8934555322829, 16.5462990285632)" fill="none" stroke="#000000" stroke-width="0.72" stroke-linecap="square" stroke-linejoin="miter" stroke-miterlimit="2" d="M0 0L3.18198 8.40043" sodipodi:nodetypes="cc"/><path id="shape4" transform="matrix(1.26318851362731 0 0 0.999999956412095 -0.540936711724129 212.45174844968)" fill="none" stroke="#3b2300" stroke-width="2.16" stroke-linecap="square" stroke-linejoin="miter" stroke-miterlimit="2" d="M0 0L160.92 0.18" sodipodi:nodetypes="cc"/><path id="shape5" transform="matrix(1.26318851362731 0 0 0.999999956412094 -0.342609246570355 210.815661944688)" fill="none" stroke="#297f00" stroke-width="1.44" stroke-linecap="square" stroke-linejoin="miter" stroke-miterlimit="2" d="M0 0L161.135 0.127279" sodipodi:nodetypes="cc"/><path id="shape02" transform="matrix(0.999999868144557 0 0 0.936540952515701 10.3441861385042 26.2165871061403)" fill="none" stroke="#737373" stroke-width="2.16" stroke-linecap="square" stroke-linejoin="miter" stroke-miterlimit="2" d="M0 0L0 11.1415" sodipodi:nodetypes="cc"/><circle id="shape015" transform="matrix(1.4371023035335 0 0 1.46346155751336 9.16874708303983 37.6332249763309)" r="0.719999999999999" cx="0.719999999999999" cy="0.719999999999999" fill="#d00000" fill-rule="evenodd" stroke-opacity="0" stroke="#000000" stroke-width="0" stroke-linecap="square" stroke-linejoin="bevel"/><path id="shape021" transform="matrix(0.999999868144557 0 0 0.936540952515701 38.424186680387 25.8565870991931)" fill="none" stroke="#737373" stroke-width="2.16" stroke-linecap="square" stroke-linejoin="miter" stroke-miterlimit="2" d="M0 0L0 11.1415" sodipodi:nodetypes="cc"/><circle id="shape0151" transform="matrix(1.4371023035335 0 0 1.46346155751336 37.2487476249226 37.2732249693837)" r="0.719999999999999" cx="0.719999999999999" cy="0.719999999999999" fill="#d00000" fill-rule="evenodd" stroke-opacity="0" stroke="#000000" stroke-width="0" stroke-linecap="square" stroke-linejoin="bevel"/><path id="shape022" transform="matrix(0.999999868144557 0 0 0.936540952515701 73.3441908209043 14.3365856550346)" fill="none" stroke="#737373" stroke-width="2.16" stroke-linecap="square" stroke-linejoin="miter" stroke-miterlimit="2" d="M0 0L0 11.1415" sodipodi:nodetypes="cc"/><circle id="shape0152" transform="matrix(1.4371023035335 0 0 1.46346155751336 72.1687517654399 25.7532235252252)" r="0.719999999999999" cx="0.719999999999999" cy="0.719999999999999" fill="#d00000" fill-rule="evenodd" stroke-opacity="0" stroke="#000000" stroke-width="0" stroke-linecap="square" stroke-linejoin="bevel"/><path id="shape023" transform="matrix(0.999999868144557 0 0 0.936540952515701 102.159925168521 15.0281655263886)" fill="none" stroke="#737373" stroke-width="2.16" stroke-linecap="square" stroke-linejoin="miter" stroke-miterlimit="2" d="M0 0L0 11.1415" sodipodi:nodetypes="cc"/><circle id="shape0153" transform="matrix(1.4371023035335 0 0 1.46346155751336 100.984486113057 26.4448033965792)" r="0.719999999999999" cx="0.719999999999999" cy="0.719999999999999" fill="#d00000" fill-rule="evenodd" stroke-opacity="0" stroke="#000000" stroke-width="0" stroke-linecap="square" stroke-linejoin="bevel"/><path id="shape024" transform="matrix(0.999999868144557 0 0 0.936540952515701 165.926813988256 26.6105744736858)" fill="none" stroke="#737373" stroke-width="2.16" stroke-linecap="square" stroke-linejoin="miter" stroke-miterlimit="2" d="M0 0L0 11.1415" sodipodi:nodetypes="cc"/><circle id="shape0154" transform="matrix(1.4371023035335 0 0 1.46346155751336 164.751374932791 38.0272123438764)" r="0.719999999999999" cx="0.719999999999999" cy="0.719999999999999" fill="#d00000" fill-rule="evenodd" stroke-opacity="0" stroke="#000000" stroke-width="0" stroke-linecap="square" stroke-linejoin="bevel"/><path id="shape025" transform="matrix(0.999999868144557 0 0 0.936540952515701 137.161710448815 26.7378536928868)" fill="none" stroke="#737373" stroke-width="2.16" stroke-linecap="square" stroke-linejoin="miter" stroke-miterlimit="2" d="M0 0L0 11.1415" sodipodi:nodetypes="cc"/><circle id="shape0155" transform="matrix(1.4371023035335 0 0 1.46346155751336 135.98627139335 38.1544915630775)" r="0.719999999999999" cx="0.719999999999999" cy="0.719999999999999" fill="#d00000" fill-rule="evenodd" stroke-opacity="0" stroke="#000000" stroke-width="0" stroke-linecap="square" stroke-linejoin="bevel"/>
</svg>
