<?xml version="1.0" standalone="no"?>
<!DOCTYPE svg PUBLIC "-//W3C//DTD SVG 20010904//EN" "http://www.w3.org/TR/2001/REC-SVG-20010904/DTD/svg10.dtd">
<!-- Created using Krita: https://krita.org -->
<svg xmlns="http://www.w3.org/2000/svg" 
    xmlns:xlink="http://www.w3.org/1999/xlink"
    xmlns:krita="http://krita.org/namespaces/svg/krita"
    xmlns:sodipodi="http://sodipodi.sourceforge.net/DTD/sodipodi-0.dtd"
    width="239.76pt"
    height="69.84pt"
    viewBox="0 0 239.76 69.84">
<defs/>
<path id="shape0" transform="translate(-0.0605353786126557, 68.8318289514861)" fill="none" stroke="#297f00" stroke-width="2.16" stroke-linecap="square" stroke-linejoin="miter" stroke-miterlimit="2" d="M0 0L241.74 0" sodipodi:nodetypes="cc"/><path id="shape1" transform="translate(5.18662887087708, 3.85380927836911)" fill="#808080" fill-rule="evenodd" stroke="none" stroke-width="1" stroke-linecap="square" stroke-linejoin="bevel" d="M0 64.0178L0.832257 0.985105L2.29536 0L4.28818 1.08253L5.01284 64.0497Z" sodipodi:nodetypes="cccccc"/><path id="shape0" transform="matrix(0.999999982807238 0 0 0.999999982807238 79.7915532966896 3.95846005798635)" fill="#808080" fill-rule="evenodd" stroke-opacity="0" stroke="#000000" stroke-width="0" stroke-linecap="square" stroke-linejoin="bevel" d="M0 64.0178L0.832257 0.985105L2.29536 0L4.28818 1.08253L5.01284 64.0497Z" sodipodi:nodetypes="cccccc"/><path id="shape01" transform="matrix(0.999999982807238 0 0 0.999999982807238 152.299016166042 4.01337518474052)" fill="#808080" fill-rule="evenodd" stroke-opacity="0" stroke="#000000" stroke-width="0" stroke-linecap="square" stroke-linejoin="bevel" d="M0 64.0178L0.832257 0.985105L2.29536 0L4.28818 1.08253L5.01284 64.0497Z" sodipodi:nodetypes="cccccc"/><path id="shape02" transform="matrix(0.999999969419155 0 0 0.999999969419155 225.736480680956 4.06375052793631)" fill="#808080" fill-rule="evenodd" stroke-opacity="0" stroke="#000000" stroke-width="0" stroke-linecap="square" stroke-linejoin="bevel" d="M0 64.0178L0.832257 0.985105L2.29536 0L4.28818 1.08253L5.01284 64.0497Z" sodipodi:nodetypes="cccccc"/><path id="shape2" transform="translate(10.469464431425, 8.53380663227447)" fill="none" stroke="#000000" stroke-width="1.44" stroke-linecap="square" stroke-linejoin="miter" stroke-miterlimit="2" d="M0 0C10.0195 4.74266 20.9404 7.47005 32.6146 7.50338C45.8087 7.54104 58.6207 4.62737 71.8148 0.0829837C84.9269 3.54042 98.038 7.70257 111.15 7.74001C122.13 7.77135 132.03 3.85797 144.09 0.289316C156.751 4.46752 170.67 7.52181 184.05 7.56001C195.27 7.59204 206.13 4.78797 217.89 0.500001" sodipodi:nodetypes="ccccccc"/><path id="shape3" transform="translate(9.92946443332599, 5.65380664241308)" fill="none" stroke="#000000" stroke-width="1.44" stroke-linecap="square" stroke-linejoin="miter" stroke-miterlimit="2" d="M0.54 2.88L0 0" sodipodi:nodetypes="cc"/><path id="shape4" transform="translate(230.699476964543, 15.497550381023)" fill="none" stroke="#000000" stroke-width="1.44" stroke-linecap="square" stroke-linejoin="miter" stroke-miterlimit="2" d="M0 0L0.315 51.6263" sodipodi:nodetypes="cc"/><path id="shape5" transform="translate(228.944470349109, 8.81926147123735)" fill="none" stroke="#000000" stroke-width="1.44" stroke-linecap="square" stroke-linejoin="miter" stroke-miterlimit="2" d="M0 0.0745478C1.54682 -0.286561 2.68318 0.750657 2.97 1.33455C3.27715 1.95981 1.41015 5.79717 1.7173 6.42243" sodipodi:nodetypes="ccc"/>
</svg>
