<svg xmlns="http://www.w3.org/2000/svg" viewBox="0 0 1452 424.5" xml:space="preserve"><path d="M890 300.3h-.4l.5.2h.1l-.2-.2zm.1.2c-2 0-7 1.1-12.3 1.1-16.8 0-22.6-7.7-22.6-17.9v-67.3h34.2c1.9 0 3.4-1.7 3.4-4.1v-36.6c0-1.9-1.7-3.7-3.4-3.7h-34.2v-45.4c0-1.7-1.1-2.8-3-2.8h-46.5c-1.9 0-3 1.1-3 2.8v46.7s-23.4 5.8-25 6a3.7 3.7 0 0 0-2.8 3.7v29.3c0 2.4 1.7 4.1 3.7 4.1h23.9V287c0 52.5 36.6 57.9 61.5 57.9 11.4 0 25.2-3.7 27.3-4.7 1.3-.4 1.9-1.9 1.9-3.4v-32.3a4 4 0 0 0-3.1-4zm509.6-47.3c0-38.9-15.7-44.1-32.3-42.4-12.9.9-23.2 7.3-23.2 7.3v75.7s10.5 7.3 26.2 7.7c22.2.7 29.3-7.2 29.3-48.3zm52.3-3.4c0 73.8-23.9 94.9-65.6 94.9-35.3 0-54.2-17.9-54.2-17.9s-.9 9.9-1.9 11.2c-.6 1.3-1.7 1.7-3 1.7h-31.8c-2.2 0-4.1-1.7-4.1-3.7l.4-239c0-1.9 1.7-3.7 3.7-3.7h45.8c1.9 0 3.7 1.7 3.7 3.7v81.1s17.6-11.4 43.4-11.4l-.2-.4c25.7 0 63.8 9.7 63.8 83.5zm-187.5-77.7h-45.2c-2.4 0-3.7 1.7-3.7 4.1v117s-11.8 8.4-28 8.4c-16.1 0-20.9-7.3-20.9-23.4V176c0-1.9-1.7-3.7-3.7-3.7h-46a3.8 3.8 0 0 0-3.7 3.7v109.9c0 47.3 26.5 59.2 62.8 59.2 29.9 0 54.2-16.6 54.2-16.6s1.1 8.4 1.7 9.7c.4 1.1 1.9 1.9 3.4 1.9h28.8c2.4 0 3.7-1.7 3.7-3.7l.4-160.7c.2-1.9-1.5-3.6-3.8-3.6zm-509.8-.2h-45.8c-1.9 0-3.7 1.9-3.7 4.3v157.9c0 4.3 2.8 5.8 6.5 5.8H753c4.3 0 5.4-1.9 5.4-5.8V175.6c-.1-2-1.8-3.7-3.7-3.7zm-22.6-72.7a29.5 29.5 0 0 0-29.7 29.7 29.5 29.5 0 1 0 59 0 29.4 29.4 0 0 0-29.3-29.7zm354.7-5.4h-45.4a3.8 3.8 0 0 0-3.7 3.7v88h-71.2v-88c0-1.9-1.7-3.7-3.7-3.7H917a3.8 3.8 0 0 0-3.7 3.7v239c0 1.9 1.9 3.7 3.7 3.7h45.8c1.9 0 3.7-1.7 3.7-3.7V234.3h71.2l-.4 102.2c0 1.9 1.7 3.7 3.7 3.7h45.8c1.9 0 3.7-1.7 3.7-3.7v-239c-.1-2-1.8-3.7-3.7-3.7zM680.9 199.6v123.5c0 .9-.2 2.4-1.3 2.8 0 0-26.9 19.1-71.2 19.1-53.6 0-117-16.8-117-127.3 0-110.6 55.5-133.4 109.7-133.1 46.9 0 65.8 10.5 68.8 12.5.9 1.1 1.3 1.9 1.3 3l-9 38.3c0 1.9-1.9 4.3-4.3 3.7-7.7-2.4-19.4-7.1-46.7-7.1-31.6 0-65.6 9-65.6 80.2s32.3 79.6 55.5 79.6c19.8 0 26.9-2.4 26.9-2.4v-49.5h-31.6c-2.4 0-4.1-1.7-4.1-3.7v-39.6c0-1.9 1.7-3.7 4.1-3.7h80.4c2.4.1 4.1 1.8 4.1 3.7zM217.6 0a217.6 217.6 0 0 0-68.8 424.1c10.9 1.9 15-4.6 15-10.3 0-5.2-.3-22.3-.3-40.5-54.7 10.1-68.8-13.3-73.2-25.6-2.4-6.3-13.1-25.6-22.3-30.7-7.6-4.1-18.5-14.1-.3-14.4 17.1-.3 29.4 15.8 33.5 22.3 19.6 32.9 50.9 23.7 63.4 18a45.5 45.5 0 0 1 13.9-29.1c-48.4-5.4-99-24.2-99-107.5 0-23.7 8.4-43.3 22.3-58.5a78 78 0 0 1 2.2-57.7s18.2-5.7 59.9 22.3c17.4-4.9 35.9-7.3 54.4-7.3s37 2.4 54.4 7.3C314.2 84.1 332.4 90 332.4 90a78 78 0 0 1 2.2 57.7 84.1 84.1 0 0 1 22.3 58.5c0 83.5-50.9 102-99.3 107.5 7.9 6.8 14.7 19.9 14.7 40.3 0 29.1-.3 52.5-.3 59.9 0 5.7 4.1 12.5 15 10.3a218 218 0 0 0 148.3-206.5A217.6 217.6 0 0 0 217.6 0z" fill-rule="evenodd" clip-rule="evenodd" fill="#1b1f23"/></svg>