<?xml version="1.0" encoding="UTF-8"?>
<svg id="Layer_1" xmlns="http://www.w3.org/2000/svg" width="1337.64" height="256" xmlns:xlink="http://www.w3.org/1999/xlink" version="1.1" viewBox="0 0 1337.64 256">
  <!-- Generator: Adobe Illustrator 29.8.3, SVG Export Plug-In . SVG Version: 2.1.1 Build 3)  -->
  <defs>
    <style>
      .st0, .st1, .st2, .st3, .st4, .st5, .st6, .st7, .st8, .st9, .st10 {
        fill: none;
      }

      .st11 {
        fill: url(#linear-gradient2);
      }

      .st12 {
        fill: url(#linear-gradient9);
      }

      .st13 {
        fill: url(#linear-gradient3);
      }

      .st14 {
        fill: url(#linear-gradient6);
      }

      .st15 {
        fill: url(#linear-gradient8);
      }

      .st16 {
        fill: url(#linear-gradient7);
      }

      .st17 {
        fill: url(#linear-gradient5);
      }

      .st18 {
        fill: url(#linear-gradient4);
      }

      .st19 {
        fill: url(#linear-gradient31);
      }

      .st20 {
        fill: url(#linear-gradient30);
      }

      .st21 {
        fill: url(#linear-gradient38);
      }

      .st22 {
        fill: url(#linear-gradient32);
      }

      .st23 {
        fill: url(#linear-gradient39);
      }

      .st24 {
        fill: url(#linear-gradient34);
      }

      .st25 {
        fill: url(#linear-gradient37);
      }

      .st26 {
        fill: url(#linear-gradient35);
      }

      .st27 {
        fill: url(#linear-gradient33);
      }

      .st28 {
        fill: url(#linear-gradient36);
      }

      .st29 {
        fill: url(#linear-gradient28);
      }

      .st30 {
        fill: url(#linear-gradient29);
      }

      .st31 {
        fill: url(#linear-gradient18);
      }

      .st32 {
        fill: url(#linear-gradient13);
      }

      .st33 {
        fill: url(#linear-gradient12);
      }

      .st34 {
        fill: url(#linear-gradient15);
      }

      .st35 {
        fill: url(#linear-gradient16);
      }

      .st36 {
        fill: url(#linear-gradient11);
      }

      .st37 {
        fill: url(#linear-gradient10);
      }

      .st38 {
        fill: url(#linear-gradient17);
      }

      .st39 {
        fill: url(#linear-gradient14);
      }

      .st40 {
        fill: url(#linear-gradient19);
      }

      .st41 {
        fill: url(#linear-gradient23);
      }

      .st42 {
        fill: url(#linear-gradient22);
      }

      .st43 {
        fill: url(#linear-gradient24);
      }

      .st44 {
        fill: url(#linear-gradient25);
      }

      .st45 {
        fill: url(#linear-gradient21);
      }

      .st46 {
        fill: url(#linear-gradient20);
      }

      .st47 {
        fill: url(#linear-gradient27);
      }

      .st48 {
        fill: url(#linear-gradient26);
      }

      .st1, .st2, .st4, .st5, .st6, .st7, .st8, .st10 {
        stroke: #6d7f42;
      }

      .st1, .st2, .st4, .st6, .st8, .st10 {
        stroke-linejoin: round;
      }

      .st1, .st4, .st5, .st6 {
        stroke-width: 1.25px;
      }

      .st1, .st6, .st49, .st50, .st51, .st52, .st53, .st54, .st10 {
        isolation: isolate;
      }

      .st1, .st6, .st10 {
        opacity: .39;
      }

      .st55 {
        fill: url(#radial-gradient);
      }

      .st3 {
        stroke-width: 2px;
      }

      .st3, .st4, .st6, .st8, .st9, .st10 {
        stroke-linecap: round;
      }

      .st3, .st9 {
        stroke: #d38484;
      }

      .st5, .st9 {
        stroke-miterlimit: 5.01;
      }

      .st56 {
        clip-path: url(#clippath-1);
      }

      .st57 {
        clip-path: url(#clippath-3);
      }

      .st58 {
        clip-path: url(#clippath-4);
      }

      .st59 {
        clip-path: url(#clippath-2);
      }

      .st60 {
        clip-path: url(#clippath-7);
      }

      .st61 {
        clip-path: url(#clippath-6);
      }

      .st62 {
        clip-path: url(#clippath-5);
      }

      .st63 {
        fill: #2d3335;
      }

      .st64 {
        fill: #9eaaac;
      }

      .st49 {
        fill: url(#radial-gradient1);
        opacity: .46;
      }

      .st65 {
        fill: #a6dd8b;
      }

      .st50 {
        fill: url(#linear-gradient41);
        opacity: .6;
      }

      .st51 {
        fill: url(#linear-gradient40);
        opacity: .6;
      }

      .st52 {
        fill: url(#linear-gradient42);
        opacity: .76;
      }

      .st66 {
        opacity: .27;
      }

      .st67 {
        opacity: .04;
      }

      .st68 {
        fill: url(#radial-gradient2);
      }

      .st69 {
        fill: #aac3e7;
      }

      .st9 {
        stroke-width: 2.51px;
      }

      .st53 {
        fill: url(#linear-gradient);
        opacity: .5;
      }

      .st54 {
        fill: url(#linear-gradient1);
        opacity: .04;
      }

      .st70 {
        clip-path: url(#clippath);
      }

      .st71 {
        fill: #d0e9f2;
        fill-opacity: .48;
      }

      .st72 {
        fill: #ceeeab;
      }
    </style>
    <linearGradient id="linear-gradient" x1="122" y1="-40.03" x2="122" y2="201.12" gradientTransform="translate(0 207.56) scale(1 -.85)" gradientUnits="userSpaceOnUse">
      <stop offset="0" stop-color="#000"/>
      <stop offset="1" stop-color="#000" stop-opacity="0"/>
    </linearGradient>
    <clipPath id="clippath">
      <path class="st0" d="M9,8.25s7.5,13,11.75,27.75,6.25,25.5,6.25,25.5c0,0-5.5,12.75-8.25,24.75s-5.75,23-5.75,23c0,0,5.75,16,9.25,30s3.75,24.25,3.75,24.25c0,0-4,10.25-7.5,24.25s-5,30.75-5,30.75c0,0,9.25-2,28.5,1.25s32.25,6,32.25,6c0,0,12.75-2.75,24-6.25s16.25-6.5,16.25-6.5c0,0,5.5.5,22.5,6.25s29.25,8.5,29.25,8.5l26-5.75c13-3,26.5-8,26.5-8,0,0-.75-5,4.25-24.5s8.75-28,8.75-28c0,0-.5-4.5-3.75-19.75s-10-29.75-10-29.75c0,0,1.75-10.5,6.75-23.75l10.25-26.75s-4.75-15.25-7.5-29.75-8.25-25.75-8.25-25.75c0,0-24.25,9-31.75,10.5s-21,5.25-21,5.25c0,0-9.75-4.25-22-8.5s-29.75-5.5-29.75-5.5c0,0-3.25,3.5-22,8s-27.5,5.75-27.5,5.75c0,0-18.5-9-31.5-11.5s-24-2-24.75-1.75Z"/>
    </clipPath>
    <clipPath id="clippath-1">
      <path class="st0" d="M9,8.25s7.5,13,11.75,27.75,6.25,25.5,6.25,25.5c0,0-5.5,12.75-8.25,24.75s-5.75,23-5.75,23c0,0,5.75,16,9.25,30s3.75,24.25,3.75,24.25c0,0-4,10.25-7.5,24.25s-5,30.75-5,30.75c0,0,9.25-2,28.5,1.25s32.25,6,32.25,6c0,0,12.75-2.75,24-6.25s16.25-6.5,16.25-6.5c0,0,5.5.5,22.5,6.25s29.25,8.5,29.25,8.5l26-5.75c13-3,26.5-8,26.5-8,0,0-.75-5,4.25-24.5s8.75-28,8.75-28c0,0-.5-4.5-3.75-19.75s-10-29.75-10-29.75c0,0,1.75-10.5,6.75-23.75l10.25-26.75s-4.75-15.25-7.5-29.75-8.25-25.75-8.25-25.75c0,0-24.25,9-31.75,10.5s-21,5.25-21,5.25c0,0-9.75-4.25-22-8.5s-29.75-5.5-29.75-5.5c0,0-3.25,3.5-22,8s-27.5,5.75-27.5,5.75c0,0-18.5-9-31.5-11.5s-24-2-24.75-1.75Z"/>
    </clipPath>
    <clipPath id="clippath-2">
      <path class="st0" d="M9,8.25s7.5,13,11.75,27.75,6.25,25.5,6.25,25.5c0,0-5.5,12.75-8.25,24.75s-5.75,23-5.75,23c0,0,5.75,16,9.25,30s3.75,24.25,3.75,24.25c0,0-4,10.25-7.5,24.25s-5,30.75-5,30.75c0,0,9.25-2,28.5,1.25s32.25,6,32.25,6c0,0,12.75-2.75,24-6.25s16.25-6.5,16.25-6.5c0,0,5.5.5,22.5,6.25s29.25,8.5,29.25,8.5l26-5.75c13-3,26.5-8,26.5-8,0,0-.75-5,4.25-24.5s8.75-28,8.75-28c0,0-.5-4.5-3.75-19.75s-10-29.75-10-29.75c0,0,1.75-10.5,6.75-23.75l10.25-26.75s-4.75-15.25-7.5-29.75-8.25-25.75-8.25-25.75c0,0-24.25,9-31.75,10.5s-21,5.25-21,5.25c0,0-9.75-4.25-22-8.5s-29.75-5.5-29.75-5.5c0,0-3.25,3.5-22,8s-27.5,5.75-27.5,5.75c0,0-18.5-9-31.5-11.5s-24-2-24.75-1.75Z"/>
    </clipPath>
    <linearGradient id="linear-gradient1" x1="217.13" y1="194.85" x2="15.96" y2="480.16" gradientTransform="translate(0 450) scale(1 -1)" gradientUnits="userSpaceOnUse">
      <stop offset="0" stop-color="#000"/>
      <stop offset="1" stop-color="#000" stop-opacity="0"/>
    </linearGradient>
    <linearGradient id="linear-gradient2" x1="215.12" y1="412.49" x2="167.37" y2="364.85" gradientTransform="translate(0 440) scale(1 -1)" gradientUnits="userSpaceOnUse">
      <stop offset="0" stop-color="#fff"/>
      <stop offset="1" stop-color="#fff" stop-opacity="0"/>
    </linearGradient>
    <linearGradient id="linear-gradient3" x1="44.43" y1="377.89" x2="48.83" y2="313.86" gradientTransform="translate(0 440) scale(1 -1)" gradientUnits="userSpaceOnUse">
      <stop offset="0" stop-color="#fff"/>
      <stop offset="1" stop-color="#fff" stop-opacity="0"/>
    </linearGradient>
    <linearGradient id="linear-gradient4" x1="42.7" y1="240.5" x2="78.91" y2="264.25" gradientTransform="translate(0 440) scale(1 -1)" gradientUnits="userSpaceOnUse">
      <stop offset="0" stop-color="#fff"/>
      <stop offset="1" stop-color="#fff" stop-opacity="0"/>
    </linearGradient>
    <linearGradient id="linear-gradient5" x1="103.41" y1="413.77" x2="86.73" y2="372.86" gradientTransform="translate(0 440) scale(1 -1)" gradientUnits="userSpaceOnUse">
      <stop offset="0" stop-color="#fff"/>
      <stop offset="1" stop-color="#fff" stop-opacity="0"/>
    </linearGradient>
    <linearGradient id="linear-gradient6" x1="121.8" y1="326.63" x2="67.55" y2="263.28" gradientTransform="translate(0 440) scale(1 -1)" gradientUnits="userSpaceOnUse">
      <stop offset="0" stop-color="#fff"/>
      <stop offset="1" stop-color="#fff" stop-opacity="0"/>
    </linearGradient>
    <linearGradient id="linear-gradient7" x1="175.27" y1="381.06" x2="128.52" y2="316.69" gradientTransform="translate(0 440) scale(1 -1)" gradientUnits="userSpaceOnUse">
      <stop offset="0" stop-color="#fff"/>
      <stop offset="1" stop-color="#fff" stop-opacity="0"/>
    </linearGradient>
    <linearGradient id="linear-gradient8" x1="169.21" y1="276.6" x2="128.68" y2="219.72" gradientTransform="translate(0 440) scale(1 -1)" gradientUnits="userSpaceOnUse">
      <stop offset="0" stop-color="#fff"/>
      <stop offset="1" stop-color="#fff" stop-opacity="0"/>
    </linearGradient>
    <linearGradient id="linear-gradient9" x1="214.94" y1="327.35" x2="183.19" y2="257" gradientTransform="translate(0 440) scale(1 -1)" gradientUnits="userSpaceOnUse">
      <stop offset="0" stop-color="#fff"/>
      <stop offset="1" stop-color="#fff" stop-opacity="0"/>
    </linearGradient>
    <linearGradient id="linear-gradient10" x1="96.09" y1="348.51" x2="10.84" y2="433.81" gradientTransform="translate(0 440) scale(1 -1)" gradientUnits="userSpaceOnUse">
      <stop offset="0" stop-color="#000"/>
      <stop offset="1" stop-color="#000" stop-opacity="0"/>
    </linearGradient>
    <linearGradient id="linear-gradient11" x1="56.27" y1="365.45" x2="41.27" y2="281.45" gradientTransform="translate(0 440) scale(1 -1)" gradientUnits="userSpaceOnUse">
      <stop offset="0" stop-color="#000"/>
      <stop offset="1" stop-color="#000" stop-opacity="0"/>
    </linearGradient>
    <linearGradient id="linear-gradient12" x1="68.3" y1="411.16" x2="105.93" y2="322.66" gradientTransform="translate(0 440) scale(1 -1)" gradientUnits="userSpaceOnUse">
      <stop offset="0" stop-color="#000"/>
      <stop offset="1" stop-color="#000" stop-opacity="0"/>
    </linearGradient>
    <linearGradient id="linear-gradient13" x1="45.95" y1="289.73" x2="115.17" y2="232.23" gradientTransform="translate(0 440) scale(1 -1)" gradientUnits="userSpaceOnUse">
      <stop offset="0" stop-color="#000"/>
      <stop offset="1" stop-color="#000" stop-opacity="0"/>
    </linearGradient>
    <linearGradient id="linear-gradient14" x1="34.58" y1="411.59" x2="180.33" y2="395.09" gradientTransform="translate(0 440) scale(1 -1)" gradientUnits="userSpaceOnUse">
      <stop offset="0" stop-color="#000"/>
      <stop offset="1" stop-color="#000" stop-opacity="0"/>
    </linearGradient>
    <linearGradient id="linear-gradient15" x1="44.68" y1="378" x2="166.68" y2="278.5" gradientTransform="translate(0 440) scale(1 -1)" gradientUnits="userSpaceOnUse">
      <stop offset="0" stop-color="#000"/>
      <stop offset="1" stop-color="#000" stop-opacity="0"/>
    </linearGradient>
    <linearGradient id="linear-gradient16" x1="166.4" y1="286.71" x2="218.65" y2="220.46" gradientTransform="translate(0 440) scale(1 -1)" gradientUnits="userSpaceOnUse">
      <stop offset="0" stop-color="#000"/>
      <stop offset="1" stop-color="#000" stop-opacity="0"/>
    </linearGradient>
    <linearGradient id="linear-gradient17" x1="134.58" y1="413.11" x2="226.83" y2="321.11" gradientTransform="translate(0 440) scale(1 -1)" gradientUnits="userSpaceOnUse">
      <stop offset="0" stop-color="#000"/>
      <stop offset="1" stop-color="#000" stop-opacity="0"/>
    </linearGradient>
    <clipPath id="clippath-3">
      <path class="st0" d="M127.03,138.72c26.09,26.09,68.4,26.09,94.49,0,26.09-26.09,26.09-68.4,0-94.49s-68.4-26.09-94.49,0c-26.09,26.09-26.09,68.4,0,94.49h0Z"/>
    </clipPath>
    <clipPath id="clippath-4">
      <path class="st0" d="M-16.54-26.68S-7.14-10.13-1.82,8.49s7.83,32.16,7.83,32.16c0,0-6.89,15.78-10.33,30.71-3.44,14.93-7.2,28.6-7.2,28.6,0,0,7.2,20.24,11.59,37.9,4.38,17.66,4.7,30.51,4.7,30.51,0,0-5.01,12.7-9.39,30.11-4.38,17.41-6.26,38.34-6.26,38.34,0,0,11.59-2.18,35.7,2.57,24.11,4.75,40.39,8.66,40.39,8.66,0,0,15.97-2.99,30.06-6.98s20.35-7.57,20.35-7.57c0,0,6.89.82,28.18,8.62,21.29,7.8,36.64,11.68,36.64,11.68l32.57-6.28c16.28-3.3,33.19-9.08,33.19-9.08,0,0-.94-6.29,5.32-30.54,6.26-24.25,10.96-34.76,10.96-34.76,0,0-.63-5.65-4.7-24.87-4.07-19.22-12.53-37.62-12.53-37.62,0,0,2.19-13.09,8.45-29.51l12.84-33.14s-5.95-19.27-9.39-37.53c-3.44-18.26-10.33-32.54-10.33-32.54,0,0-30.37,10.41-39.77,12.03-9.39,1.61-26.3,5.83-26.3,5.83,0,0-12.21-5.67-27.56-11.43-15.34-5.76-37.26-7.94-37.26-7.94,0,0-4.07,4.27-27.56,9.24-23.49,4.97-34.44,6.23-34.44,6.23,0,0-23.17-11.93-39.45-15.52-16.28-3.59-30.06-3.35-31-3.07Z"/>
    </clipPath>
    <clipPath id="clippath-5">
      <path class="st0" d="M-16.54-26.68S-7.14-10.13-1.82,8.49s7.83,32.16,7.83,32.16c0,0-6.89,15.78-10.33,30.71-3.44,14.93-7.2,28.6-7.2,28.6,0,0,7.2,20.24,11.59,37.9,4.38,17.66,4.7,30.51,4.7,30.51,0,0-5.01,12.7-9.39,30.11-4.38,17.41-6.26,38.34-6.26,38.34,0,0,11.59-2.18,35.7,2.57,24.11,4.75,40.39,8.66,40.39,8.66,0,0,15.97-2.99,30.06-6.98s20.35-7.57,20.35-7.57c0,0,6.89.82,28.18,8.62,21.29,7.8,36.64,11.68,36.64,11.68l32.57-6.28c16.28-3.3,33.19-9.08,33.19-9.08,0,0-.94-6.29,5.32-30.54,6.26-24.25,10.96-34.76,10.96-34.76,0,0-.63-5.65-4.7-24.87-4.07-19.22-12.53-37.62-12.53-37.62,0,0,2.19-13.09,8.45-29.51l12.84-33.14s-5.95-19.27-9.39-37.53c-3.44-18.26-10.33-32.54-10.33-32.54,0,0-30.37,10.41-39.77,12.03-9.39,1.61-26.3,5.83-26.3,5.83,0,0-12.21-5.67-27.56-11.43-15.34-5.76-37.26-7.94-37.26-7.94,0,0-4.07,4.27-27.56,9.24-23.49,4.97-34.44,6.23-34.44,6.23,0,0-23.17-11.93-39.45-15.52-16.28-3.59-30.06-3.35-31-3.07Z"/>
    </clipPath>
    <clipPath id="clippath-6">
      <path class="st0" d="M-16.54-26.68S-7.14-10.13-1.82,8.49s7.83,32.16,7.83,32.16c0,0-6.89,15.78-10.33,30.71-3.44,14.93-7.2,28.6-7.2,28.6,0,0,7.2,20.24,11.59,37.9,4.38,17.66,4.7,30.51,4.7,30.51,0,0-5.01,12.7-9.39,30.11-4.38,17.41-6.26,38.34-6.26,38.34,0,0,11.59-2.18,35.7,2.57,24.11,4.75,40.39,8.66,40.39,8.66,0,0,15.97-2.99,30.06-6.98s20.35-7.57,20.35-7.57c0,0,6.89.82,28.18,8.62,21.29,7.8,36.64,11.68,36.64,11.68l32.57-6.28c16.28-3.3,33.19-9.08,33.19-9.08,0,0-.94-6.29,5.32-30.54,6.26-24.25,10.96-34.76,10.96-34.76,0,0-.63-5.65-4.7-24.87-4.07-19.22-12.53-37.62-12.53-37.62,0,0,2.19-13.09,8.45-29.51l12.84-33.14s-5.95-19.27-9.39-37.53c-3.44-18.26-10.33-32.54-10.33-32.54,0,0-30.37,10.41-39.77,12.03-9.39,1.61-26.3,5.83-26.3,5.83,0,0-12.21-5.67-27.56-11.43-15.34-5.76-37.26-7.94-37.26-7.94,0,0-4.07,4.27-27.56,9.24-23.49,4.97-34.44,6.23-34.44,6.23,0,0-23.17-11.93-39.45-15.52-16.28-3.59-30.06-3.35-31-3.07Z"/>
    </clipPath>
    <linearGradient id="linear-gradient18" x1="170.56" y1="49.87" x2="-30.61" y2="335.19" gradientTransform="translate(30.53 346.37) rotate(1.62) scale(1.25 -1.25) skewX(-1.62)" gradientUnits="userSpaceOnUse">
      <stop offset="0" stop-color="#000"/>
      <stop offset="1" stop-color="#000" stop-opacity="0"/>
    </linearGradient>
    <linearGradient id="linear-gradient19" x1="168.54" y1="469.52" x2="120.79" y2="421.88" gradientTransform="translate(30.53 586.86) rotate(1.62) scale(1.25 -1.25) skewX(-1.62)" gradientUnits="userSpaceOnUse">
      <stop offset="0" stop-color="#fff"/>
      <stop offset="1" stop-color="#fff" stop-opacity="0"/>
    </linearGradient>
    <linearGradient id="linear-gradient20" x1="-2.15" y1="434.92" x2="2.26" y2="370.89" gradientTransform="translate(30.53 586.86) rotate(1.62) scale(1.25 -1.25) skewX(-1.62)" gradientUnits="userSpaceOnUse">
      <stop offset="0" stop-color="#fff"/>
      <stop offset="1" stop-color="#fff" stop-opacity="0"/>
    </linearGradient>
    <linearGradient id="linear-gradient21" x1="-3.88" y1="297.53" x2="32.34" y2="321.28" gradientTransform="translate(30.53 586.86) rotate(1.62) scale(1.25 -1.25) skewX(-1.62)" gradientUnits="userSpaceOnUse">
      <stop offset="0" stop-color="#fff"/>
      <stop offset="1" stop-color="#fff" stop-opacity="0"/>
    </linearGradient>
    <linearGradient id="linear-gradient22" x1="56.84" y1="470.8" x2="40.15" y2="429.89" gradientTransform="translate(30.53 586.86) rotate(1.62) scale(1.25 -1.25) skewX(-1.62)" gradientUnits="userSpaceOnUse">
      <stop offset="0" stop-color="#fff"/>
      <stop offset="1" stop-color="#fff" stop-opacity="0"/>
    </linearGradient>
    <linearGradient id="linear-gradient23" x1="75.22" y1="383.66" x2="20.97" y2="320.31" gradientTransform="translate(30.53 586.86) rotate(1.62) scale(1.25 -1.25) skewX(-1.62)" gradientUnits="userSpaceOnUse">
      <stop offset="0" stop-color="#fff"/>
      <stop offset="1" stop-color="#fff" stop-opacity="0"/>
    </linearGradient>
    <linearGradient id="linear-gradient24" x1="128.69" y1="438.09" x2="81.94" y2="373.72" gradientTransform="translate(30.53 586.86) rotate(1.62) scale(1.25 -1.25) skewX(-1.62)" gradientUnits="userSpaceOnUse">
      <stop offset="0" stop-color="#fff"/>
      <stop offset="1" stop-color="#fff" stop-opacity="0"/>
    </linearGradient>
    <linearGradient id="linear-gradient25" x1="122.64" y1="333.63" x2="82.1" y2="276.75" gradientTransform="translate(30.53 586.86) rotate(1.62) scale(1.25 -1.25) skewX(-1.62)" gradientUnits="userSpaceOnUse">
      <stop offset="0" stop-color="#fff"/>
      <stop offset="1" stop-color="#fff" stop-opacity="0"/>
    </linearGradient>
    <linearGradient id="linear-gradient26" x1="168.37" y1="384.38" x2="136.62" y2="314.03" gradientTransform="translate(30.53 586.86) rotate(1.62) scale(1.25 -1.25) skewX(-1.62)" gradientUnits="userSpaceOnUse">
      <stop offset="0" stop-color="#fff"/>
      <stop offset="1" stop-color="#fff" stop-opacity="0"/>
    </linearGradient>
    <linearGradient id="linear-gradient27" x1="49.51" y1="405.54" x2="-35.74" y2="490.83" gradientTransform="translate(30.53 586.86) rotate(1.62) scale(1.25 -1.25) skewX(-1.62)" gradientUnits="userSpaceOnUse">
      <stop offset="0" stop-color="#000"/>
      <stop offset="1" stop-color="#000" stop-opacity="0"/>
    </linearGradient>
    <linearGradient id="linear-gradient28" x1="9.7" y1="422.48" x2="-5.3" y2="338.48" gradientTransform="translate(30.53 586.86) rotate(1.62) scale(1.25 -1.25) skewX(-1.62)" gradientUnits="userSpaceOnUse">
      <stop offset="0" stop-color="#000"/>
      <stop offset="1" stop-color="#000" stop-opacity="0"/>
    </linearGradient>
    <linearGradient id="linear-gradient29" x1="21.73" y1="468.19" x2="59.36" y2="379.69" gradientTransform="translate(30.53 586.86) rotate(1.62) scale(1.25 -1.25) skewX(-1.62)" gradientUnits="userSpaceOnUse">
      <stop offset="0" stop-color="#000"/>
      <stop offset="1" stop-color="#000" stop-opacity="0"/>
    </linearGradient>
    <linearGradient id="linear-gradient30" x1="-.63" y1="346.76" x2="68.59" y2="289.26" gradientTransform="translate(30.53 586.86) rotate(1.62) scale(1.25 -1.25) skewX(-1.62)" gradientUnits="userSpaceOnUse">
      <stop offset="0" stop-color="#000"/>
      <stop offset="1" stop-color="#000" stop-opacity="0"/>
    </linearGradient>
    <linearGradient id="linear-gradient31" x1="-11.99" y1="468.62" x2="133.76" y2="452.12" gradientTransform="translate(30.53 586.86) rotate(1.62) scale(1.25 -1.25) skewX(-1.62)" gradientUnits="userSpaceOnUse">
      <stop offset="0" stop-color="#000"/>
      <stop offset="1" stop-color="#000" stop-opacity="0"/>
    </linearGradient>
    <linearGradient id="linear-gradient32" x1="-1.9" y1="435.03" x2="120.1" y2="335.53" gradientTransform="translate(30.53 586.86) rotate(1.62) scale(1.25 -1.25) skewX(-1.62)" gradientUnits="userSpaceOnUse">
      <stop offset="0" stop-color="#000"/>
      <stop offset="1" stop-color="#000" stop-opacity="0"/>
    </linearGradient>
    <linearGradient id="linear-gradient33" x1="119.83" y1="343.73" x2="172.08" y2="277.48" gradientTransform="translate(30.53 586.86) rotate(1.62) scale(1.25 -1.25) skewX(-1.62)" gradientUnits="userSpaceOnUse">
      <stop offset="0" stop-color="#000"/>
      <stop offset="1" stop-color="#000" stop-opacity="0"/>
    </linearGradient>
    <linearGradient id="linear-gradient34" x1="88.01" y1="470.14" x2="180.26" y2="378.14" gradientTransform="translate(30.53 586.86) rotate(1.62) scale(1.25 -1.25) skewX(-1.62)" gradientUnits="userSpaceOnUse">
      <stop offset="0" stop-color="#000"/>
      <stop offset="1" stop-color="#000" stop-opacity="0"/>
    </linearGradient>
    <clipPath id="clippath-7">
      <path class="st0" d="M9,8.25s7.5,13,11.75,27.75,6.25,25.5,6.25,25.5c0,0-5.5,12.75-8.25,24.75s-5.75,23-5.75,23c0,0,5.75,16,9.25,30,3.5,14,3.75,24.25,3.75,24.25,0,0-4,10.25-7.5,24.25-3.5,14-5,30.75-5,30.75,0,0,9.25-2,28.5,1.25,19.25,3.25,32.25,6,32.25,6,0,0,12.75-2.75,24-6.25s16.25-6.5,16.25-6.5c0,0,5.5.5,22.5,6.25s29.25,8.5,29.25,8.5l26-5.75c13-3,26.5-8,26.5-8,0,0-.75-5,4.25-24.5s8.75-28,8.75-28c0,0-.51-4.5-3.75-19.75-1.75-8.25-2.25-4.25-2.25-4.25,0,0,16.26-24.84,16.5-39,.25-15-7.25-37-7.25-37,0,0-4.75-15.25-7.5-29.75-2.75-14.5-8.25-25.75-8.25-25.75,0,0-24.25,9-31.75,10.5s-21,5.25-21,5.25c0,0-9.75-4.25-22-8.5-12.25-4.25-29.75-5.5-29.75-5.5,0,0-3.25,3.5-22,8-18.75,4.5-27.5,5.75-27.5,5.75,0,0-18.5-9-31.5-11.5-13-2.5-24-2-24.75-1.75Z"/>
    </clipPath>
    <linearGradient id="linear-gradient35" x1="30.05" y1="38.05" x2="45.8" y2="22.3" gradientTransform="translate(0 258) scale(1 -1)" gradientUnits="userSpaceOnUse">
      <stop offset="0" stop-color="#f9e295"/>
      <stop offset=".12" stop-color="#f7dd84"/>
      <stop offset=".21" stop-color="#fff"/>
      <stop offset=".3" stop-color="#f4ce51"/>
      <stop offset=".34" stop-color="#f9e7aa"/>
      <stop offset="1" stop-color="#efbb0e"/>
    </linearGradient>
    <radialGradient id="radial-gradient" cx="139.73" cy="435.93" fx="139.73" fy="435.93" r="47" gradientTransform="translate(472.02 -487.2) rotate(45) scale(1.42)" gradientUnits="userSpaceOnUse">
      <stop offset="0" stop-color="#d0e9f2" stop-opacity="0"/>
      <stop offset=".84" stop-color="#d0e9f2" stop-opacity="0"/>
      <stop offset=".94" stop-color="#d0e9f2" stop-opacity=".28"/>
      <stop offset="1" stop-color="#d0e9f2"/>
    </radialGradient>
    <linearGradient id="linear-gradient36" x1="126.61" y1="118.96" x2="120.58" y2="107.28" gradientTransform="translate(0 258) scale(1 -1)" gradientUnits="userSpaceOnUse">
      <stop offset="0" stop-color="#2d3335"/>
      <stop offset=".5" stop-color="#4c464a"/>
      <stop offset="1" stop-color="#384042"/>
    </linearGradient>
    <linearGradient id="linear-gradient37" x1="-355.9" y1="345.42" x2="-345.9" y2="345.42" gradientTransform="translate(-574.45 149.44) rotate(-135) scale(1.39)" gradientUnits="userSpaceOnUse">
      <stop offset="0" stop-color="#2d3335"/>
      <stop offset=".5" stop-color="#4c464a"/>
      <stop offset="1" stop-color="#384042"/>
    </linearGradient>
    <linearGradient id="linear-gradient38" x1="67.06" y1="75.06" x2="82.81" y2="59.31" gradientTransform="translate(0 258) scale(1 -1)" gradientUnits="userSpaceOnUse">
      <stop offset="0" stop-color="#f9e295"/>
      <stop offset=".12" stop-color="#f7dd84"/>
      <stop offset=".21" stop-color="#fff"/>
      <stop offset=".3" stop-color="#f4ce51"/>
      <stop offset=".34" stop-color="#f9e7aa"/>
      <stop offset="1" stop-color="#efbb0e"/>
    </linearGradient>
    <linearGradient id="linear-gradient39" x1="-231.95" y1="345.71" x2="-221.95" y2="345.71" gradientTransform="translate(-976.26 348.49) rotate(-135) scale(2.78 2.46)" gradientUnits="userSpaceOnUse">
      <stop offset="0" stop-color="#2d3335"/>
      <stop offset=".5" stop-color="#4c464a"/>
      <stop offset="1" stop-color="#384042"/>
    </linearGradient>
    <linearGradient id="linear-gradient40" x1="-245.93" y1="332.34" x2="-220.93" y2="349.69" gradientTransform="translate(-976.26 348.49) rotate(-135) scale(2.78 2.46)" gradientUnits="userSpaceOnUse">
      <stop offset="0" stop-color="#000"/>
      <stop offset="1" stop-color="#000" stop-opacity="0"/>
    </linearGradient>
    <linearGradient id="linear-gradient41" x1="137.87" y1="237.76" x2="191.19" y2="130.38" gradientTransform="translate(0 258) scale(1 -1)" gradientUnits="userSpaceOnUse">
      <stop offset="0" stop-color="#fff"/>
      <stop offset="1" stop-color="#fff" stop-opacity="0"/>
    </linearGradient>
    <radialGradient id="radial-gradient1" cx="89.27" cy="87.18" fx="89.27" fy="87.18" r="38.43" gradientTransform="translate(70.42 160.26) rotate(-8.9) scale(1.21 -.84)" gradientUnits="userSpaceOnUse">
      <stop offset="0" stop-color="#fff"/>
      <stop offset="1" stop-color="#fff" stop-opacity="0"/>
    </radialGradient>
    <radialGradient id="radial-gradient2" cx="89.27" cy="87.18" fx="89.27" fy="87.18" r="38.43" gradientTransform="translate(69.8 159.05) rotate(-8.9) scale(1.21 -.84)" gradientUnits="userSpaceOnUse">
      <stop offset="0" stop-color="#fff"/>
      <stop offset=".5" stop-color="#fff" stop-opacity=".93"/>
      <stop offset="1" stop-color="#fff" stop-opacity="0"/>
    </radialGradient>
    <linearGradient id="linear-gradient42" x1="-937.18" y1="1466.09" x2="-883.86" y2="1358.71" gradientTransform="translate(29.35 -301.91) rotate(158.47) scale(.54 -.33) skewX(32.33)" gradientUnits="userSpaceOnUse">
      <stop offset="0" stop-color="#fff"/>
      <stop offset="1" stop-color="#fff" stop-opacity="0"/>
    </linearGradient>
  </defs>
  <g>
    <g>
      <path id="AN" class="st63" d="M174.28,75.32c-17.6-1.21-35.19,3.22-48.72,13.55-.17.13-.33.23-.5.36-22.06,17.2-26.21,45.09-12.47,68.31l-2.28,1.22c2.28,3.81,4.99,7.44,8.09,10.85l-13.31,10.41c-1.34-.59-2.79-1.07-4.56-1.48l-2.84,2.22c-1.11-.49-2.14-.84-3.06-.95l-64.13,50.02c-.04.93.23,1.87.66,2.83l-.53.41-1.09.85c.72,3.22,2.01,5.93,5.47,9.1s6.42,4.37,10.28,5.35l1.09-.85.72-.56c1.09.47,2.13.81,3.09.93l64.12-50.02c-.24-.84-.62-1.68-1.03-2.54l3-2.34c-.25-1.49-.68-2.76-1.31-3.99l13.28-10.36c3.76,2.89,7.82,5.47,12.12,7.7l1.62-1.82c26.25,13.46,59.44,12.22,81.5-4.99.17-.13.3-.26.47-.39,26.69-21.27,26.55-58.37-.47-83.15-13.59-12.47-31.41-19.45-49.22-20.67h0ZM173.78,78.07l.31.02c.95.08,1.9.19,2.84.3.96.12,1.92.26,2.88.41l.28.05.28.05c.15.02.29.06.44.08.9.15,1.79.32,2.69.5.62.13,1.23.27,1.84.42l1.03.23c.72.18,1.44.37,2.16.57l.94.25c.07.02.15.05.22.07.96.28,1.9.57,2.84.89.07.02.15.04.22.07.96.32,1.9.66,2.84,1.02.05.02.1.04.16.06.96.36,1.9.75,2.84,1.15.05.02.1.04.16.06.94.4,1.88.84,2.81,1.28.04.02.08.04.12.06.93.45,1.86.9,2.78,1.38.03.02.06.04.09.06.93.49,1.84.99,2.75,1.52.03.02.06.04.09.06.91.53,1.81,1.08,2.69,1.64.55.35,1.08.73,1.62,1.09l1.09.74s.04.02.06.03c.88.62,1.74,1.27,2.59,1.93,1.76,1.35,3.45,2.77,5.06,4.25,1.6,1.47,3.12,3,4.56,4.58,0,0,.02.02.03.03.7.77,1.41,1.55,2.06,2.34.28.34.54.69.81,1.04l1.09,1.4s.05.04.06.06c.6.8,1.17,1.59,1.72,2.4.02.03.04.06.06.08.55.8,1.06,1.63,1.56,2.44.02.03.04.05.06.08.5.82.95,1.63,1.41,2.46.02.04.04.07.06.11.45.82.88,1.65,1.28,2.48.02.04.04.09.06.14.39.82.77,1.65,1.12,2.48.02.05.04.09.06.14.35.83.67,1.65.97,2.48.02.06.04.13.06.19.29.82.56,1.65.81,2.47.02.06.04.13.06.19.08.27.14.54.22.81l.5,1.86c.07.3.12.59.19.89l.34,1.59c.15.77.26,1.54.38,2.31.02.13.05.25.06.38l.03.24.03.24c.1.82.19,1.64.25,2.46.06.8.11,1.62.12,2.42,0,.09,0,.18,0,.27.01.89,0,1.79-.03,2.68-.03.79-.09,1.57-.16,2.35l-.03.32c-.08.77-.17,1.55-.28,2.31-.12.81-.27,1.61-.44,2.41-.01.07-.02.14-.03.21l-.06.31c-.16.76-.36,1.52-.56,2.27l-.09.34c-.21.74-.44,1.48-.69,2.21-.16.49-.35.97-.53,1.45l-.53,1.4c-.29.71-.61,1.41-.94,2.11l-.19.39c-.04.09-.08.19-.12.28-.36.72-.73,1.42-1.12,2.12-.38.67-.77,1.33-1.19,1.99-.08.13-.17.25-.25.38l-1.29,1.92-.28.41c-.2.27-.42.53-.62.81-.36.48-.74.94-1.12,1.41,0,0,0,.02,0,.03-.49.6-1.01,1.19-1.53,1.78-.46.51-.95,1-1.44,1.49-.2.2-.36.42-.56.62l-.41.4c-.16.16-.33.31-.5.47-.56.53-1.13,1.04-1.72,1.55-.61.53-1.24,1.06-1.88,1.57-.16.13-.31.27-.47.39-21.13,16.48-52.26,17.2-77.19,4.17l.12-.15c-3.7-1.86-7.26-4.01-10.62-6.48-.54-.4-1.07-.81-1.59-1.22l-1.53-1.22-.28-.23c-.82-.69-1.61-1.4-2.41-2.13s-1.57-1.45-2.31-2.2l-.25-.26c-.45-.46-.88-.92-1.31-1.39l-1.31-1.44c-2.64-3.04-4.89-6.21-6.78-9.48l-.19.09c-13.34-22.07-9.97-48.26,11.16-64.74.16-.13.34-.24.5-.36.65-.5,1.32-.98,2-1.45.65-.45,1.3-.9,1.97-1.32l.81-.53c.34-.21.71-.39,1.06-.59.62-.37,1.24-.75,1.88-1.09.74-.4,1.49-.78,2.25-1.14l1.75-.83,1.34-.6c.68-.29,1.37-.55,2.06-.81l.53-.2c.95-.35,1.88-.69,2.84-1,.86-.28,1.72-.53,2.59-.78.15-.04.32-.06.47-.1.97-.26,1.93-.51,2.91-.73.56-.12,1.12-.23,1.69-.33l1.75-.33c.88-.15,1.77-.29,2.66-.4.07,0,.15,0,.22-.01l1.25-.15,2.03-.21c.08,0,.17,0,.25,0,.95-.07,1.92-.14,2.88-.17,1.96-.07,3.93-.07,5.91,0,1.05.04,2.1.11,3.16.19h0Z"/>
      <path class="st53" d="M9,48.26s7.5,9.31,11.75,21.8,6.25,21.59,6.25,21.59c0,0-5.5,10.79-8.25,20.95l-5.75,21.16s5.75,13.55,9.25,25.4,3.75,18.84,3.75,18.84c0,0-4,8.68-7.5,20.53s-5,26.03-5,26.03c0,0,9.25-1.69,28.5,1.06s32.25,5.08,32.25,5.08c0,0,12.75-2.33,24-5.29s16.25-5.5,16.25-5.5c0,0,5.5.42,22.5,5.29s29.25,7.2,29.25,7.2l26-4.87c13-2.54,26.5-6.77,26.5-6.77,0,0-.75-4.23,4.25-20.74s8.75-23.7,8.75-23.7l-3.75-15.03c-3.25-12.91-10-25.19-10-25.19,0,0,1.75-10.58,6.75-21.8l10.25-22.65s-4.75-12.91-7.5-25.19-8.25-20.11-8.25-20.11c0,0-24.25,7.62-31.75,8.89s-21,4.44-21,4.44c0,0-9.75-3.6-22-7.2s-29.75-4.66-29.75-4.66c0,0-3.25,2.96-22,6.77s-27.5,4.87-27.5,4.87c0,0-18.5-7.62-31.5-9.74s-24-1.69-24.75-1.48Z"/>
    </g>
    <path class="st72" d="M9,8.25s7.5,13,11.75,27.75,6.25,25.5,6.25,25.5c0,0-5.5,12.75-8.25,24.75s-5.75,23-5.75,23c0,0,5.75,16,9.25,30s3.75,24.25,3.75,24.25c0,0-4,10.25-7.5,24.25s-5,30.75-5,30.75c0,0,9.25-2,28.5,1.25s32.25,6,32.25,6c0,0,12.75-2.75,24-6.25s16.25-6.5,16.25-6.5c0,0,5.5.5,22.5,6.25s29.25,8.5,29.25,8.5l26-5.75c13-3,26.5-8,26.5-8,0,0-.75-5,4.25-24.5s8.75-28,8.75-28c0,0-.5-4.5-3.75-19.75s-10-29.75-10-29.75c0,0,1.75-10.5,6.75-23.75l10.25-26.75s-4.75-15.25-7.5-29.75-8.25-25.75-8.25-25.75c0,0-24.25,9-31.75,10.5s-21,5.25-21,5.25c0,0-9.75-4.25-22-8.5s-29.75-5.5-29.75-5.5c0,0-3.25,3.5-22,8s-27.5,5.75-27.5,5.75c0,0-18.5-9-31.5-11.5s-24-2-24.75-1.75Z"/>
    <g class="st70">
      <path id="AO" class="st65" d="M110.75,1.5l-4.25,7c-.75,9-2.25,13.75-8.5,16.5s-12.25,3.5-11,7.5,13,9.25,14.25,13,8.25,1.75,11,7,2,15.25-3.75,17.25-17.5.5-20.25,9.5-4.75,10.5-9,12.75-7.25,10.5-3.5,16.5,12.25-1.25,15-6.5,7.25-8.75,7.25-8.75h23.75l59-1.75,3.25-3.75s3.25,4,2.75,8.75-3.75,14.75.25,17.25,19.5-2,24-7-4.75-28.25-10.5-29.5-18.5-1.75-17-7,11.75,4.5,17.25,3.25,16.75-21,12-25.25-24.25-5.25-25.75-8,21-8,22.25-11-2.5-7.25-6.25-8.5-14,16.25-21,15.75-20,5.75-17.25,11.5-6,11-14.5,6.5-24.75-13-21.75-24,21.5-18.75,21.5-18.75L110.75,1.5ZM97.19,108.72c-1.6.15-4.47,4.69-4.94,7.03-.5,2.5-3.25,6.75-3.5,12.25s4.75,6.75,8.75,6.5,2.75-6.75,2-15c-.25,0-.5-10.25-2-10.75-.09-.03-.21-.04-.31-.03h0ZM189.91,160.38c-6.34.29-6.62,7.47-7.41,8.88-1.25,2.25,2.25,13.75,2,18s-4.75,5.25-9.5,9.75.5,16,11.25,31l44.75,1.25-1-35s4.75-4.25-20.75-24.25c-9.56-7.5-15.54-9.8-19.34-9.62ZM39.94,176.91c-4.03-.1-8.28,5.72-9.69,7.59-1.5,2-6.25,5-17,9.5L-1.25,228.25l53,4.25s1.75-11-4.25-15.75-17.25-5.75-18.25-13.25,9.25-10,13.75-14.25,2-11.25-2.25-12.25c-.27-.06-.54-.09-.81-.09h0Z"/>
    </g>
    <path class="st69" d="M158.53,81.34c-4.76-.01-9.03.97-11.53,3.16-8,7-35,.75-48.5,7s-13.25,38-14.75,44.5-17.5,20.75-20,23.5-13.25,7.25-19.5,8.5-12.75,7.25-15.5,11c-2.02,2.76-7.41,6.45-10.12,8.22-.05.18-.08.35-.12.53-.13.54-.25,1.08-.38,1.62,4.98-1.6,11.18-8.18,16.62-13.62,6.25-6.25,20-7.75,27.75-11.5s14.25-19.75,26.5-23.75,21.25,11.75,24.25,18.5,1.75,12.75,3.75,17,11,11.75,11.5,13.5-5,6.5-6.25,8.5-10.5,7-11.75,8.75c-.97,1.35-1.92,6.77-2.31,9.22l1.12-.47c.48-2.53,1.51-7.08,2.94-8.5,2-2,11.25-4.5,12.5-8.5s7-6.5,7-6.5c0,0,2.75,4,16,14,8.83,6.67,12.76,15.53,14.41,20.72l2.03.53c-1.22-4.32-4.84-16.24-8.94-20.75-5-5.5-18.5-10.75-22.75-22s-24.5-34.25-17.5-40.25,16.5-4,28.5,7.5,46.25,5.75,57.75,3.75c9.96-1.73,20.83,14.88,23.91,26.03l1.66-5.75c-1.74-1.93-3.7-4.62-5.31-8.28-3.75-8.5-12-13.25-12-13.25,0,0,8.75-5,14.75-7.75,1.62-.74,3.01-1.68,4.19-2.66l-.44-2.09-.09-.44c-4.77,5.56-19.23,9.62-21.66,10.94-2.75,1.5-18.25,3-35.75,4.5s-26.75-7.5-34.25-14.75-13-36-3-38,20,13.75,30,17,21.5-15.75,19.75-27c-1.2-7.73-14-12.62-24.47-12.66h0ZM105.19,94.62c1.28,0,5.86,1.59,6.56,2.38,2.25,2.5,2,7.25,0,8s-12.75,8-10.5,14.25,1.75,18-3.5,18-8,0-10-2.5-2-12,0-19.75,3.5-15,8-18.25c3.09-2.23,6.63-2.13,9.44-2.12h0ZM118.78,167.72c.2.01,1.91,3.52,4.72,7.03,3,3.75,3.25,8.25,3.25,8.25,0,0-4.25-4.75-6-8s-2-7.25-2-7.25c0-.03.02-.03.03-.03h0Z"/>
    <g>
      <path id="AP" class="st2" d="M122.75,68.25c6.25.5,12.25-2.25,10.75-6.5s-12.5-7.25-13.25-3,2,10.5,2.5,9.5Z"/>
      <path id="AQ" class="st2" d="M108.75,52.75c-8.5-5.5-8.5-7.25-7-8s10.25,5,12.75,8-2.25,2-5.75,0Z"/>
    </g>
    <g>
      <g class="st56">
        <g>
          <path id="AR" class="st8" d="M15.75,147.25c33-2.5,38.25-3.5,36.25-10.25s-8.75-23.5-23-22.5-22.75-6.75-22.75-6.75"/>
          <path id="AS" class="st7" d="M17.5,173.25c18.25-10,28.75-8.5,35-11.5s13.25-5.75,15.75-9.5,5.75-11.5,5.75-18-3.5-36,3.25-43.5,17.25-26,26-23.25,12.25,9.75,22,9.5,21.75-4,24.25-12.25-15.75-16-16-23,5.5-14.25,20.25-17,23.5-11.5,23.5-11.5"/>
          <g>
            <path id="AT" class="st8" d="M14.5,157c15.25-1.5,22.25,3.5,31.5,1.75s13.25-3,17.75-5.75,6-3.75,6.25-6.5,1-12.5-3-22-12.5-31.5-8.25-38.75,5.25-21.5,15.75-24.5,21-6.25,27.75-1.25,12.75,14.25,20,14.5,11.75-1.5,14.5-4.5,4.5-10.25,1.75-13.75-15.5-5.5-17.25-9.5-10.75-17-.25-26.75,36.25-8.25,36.25-8.25"/>
            <path id="AU" class="st8" d="M21.25,155c13.75,1,21.5,4.25,33.5-.5s13.5-5.25,13.75-8.75-.25-15.75-3-20-13-13.75-15.75-24.25.25-41,8.5-48.25,32-7.25,37.5-10.5,5.25-16.75,13-24.5,27-12.25,27-12.25"/>
            <path class="st10" d="M190,14.5c11.75,5,39,9.75,47.25,40.25"/>
            <path id="AV" class="st8" d="M9.75,210c19-12.5,36-1.25,49-4s38.25-37.25,46-37,5.5-11.75,8.5-13.25,5.5,6,11.75,8,24.5-2.75,23.5-5.75-7-7.75-5.5-8.5,8.5,5,12.75,3.5,43.75-1,48.5-13.5,21.5-13.5,21.5-13.5"/>
            <path id="AW" class="st8" d="M77.5,229.5c13.5-11.5,23.25-25,28.5-27s12.75-3.75,15.75-8,2.5-10.75,5.25-12,3.75,5.75,8.75,6,36.75-5,42.75-11.75,32.25-12.5,32.5-14.5-1-4.75.25-5.5,24.75-6,24.75-6"/>
            <path id="AX" class="st8" d="M168.75,232c9-13.75,20.5-41,29.5-42s10.25-2.5,12.5-4.25,17,2.25,17,2.25"/>
          </g>
        </g>
      </g>
      <g class="st59">
        <g>
          <path id="AY" class="st3" d="M57.75,16l-8.5,28.25,18,6.25,7.75,36.25-21,22.25,9,10.5-12,11.5.5,4.5,20.25,24.5,14-6.75,20.5,18.5-10.5,28.25,10.25,8.5-2.75,13"/>
          <path id="AZ" class="st3" d="M105.75,208.25l12.5-27.75,11-7,27.5,15.75,20.5-3.75-.25-15.75-10.25-6,12.75-26.25,5.75-3.75,38.75-10"/>
        </g>
      </g>
    </g>
    <path class="st54" d="M9,8.25s7.5,13,11.75,27.75,6.25,25.5,6.25,25.5c0,0-5.5,12.75-8.25,24.75s-5.75,23-5.75,23c0,0,5.75,16,9.25,30s3.75,24.25,3.75,24.25c0,0-4,10.25-7.5,24.25s-5,30.75-5,30.75c0,0,9.25-2,28.5,1.25s32.25,6,32.25,6c0,0,12.75-2.75,24-6.25s16.25-6.5,16.25-6.5c0,0,5.5.5,22.5,6.25s29.25,8.5,29.25,8.5l26-5.75c13-3,26.5-8,26.5-8,0,0-.75-5,4.25-24.5s8.75-28,8.75-28c0,0-.5-4.5-3.75-19.75s-10-29.75-10-29.75c0,0,1.75-10.5,6.75-23.75l10.25-26.75s-4.75-15.25-7.5-29.75-8.25-25.75-8.25-25.75c0,0-24.25,9-31.75,10.5s-21,5.25-21,5.25c0,0-9.75-4.25-22-8.5s-29.75-5.5-29.75-5.5c0,0-3.25,3.5-22,8s-27.5,5.75-27.5,5.75c0,0-18.5-9-31.5-11.5s-24-2-24.75-1.75Z"/>
    <g>
      <g class="st66">
        <path id="Aa" class="st11" d="M219.25,6s-24.25,9-31.75,10.5-21,5.25-21,5.25c4.92-1.36,11.44,45.39,14.25,52.25l-.06.28c11.81-4.07,51.21-4.77,54.31-12.78,0,0-4.75-15.25-7.5-29.75s-8.25-25.75-8.25-25.75Z"/>
        <path id="Ab" class="st13" d="M27,61.5s-5.5,12.75-8.25,24.75-5.75,23-5.75,23l50.62,16.28,15.78-58.91-52.41-5.12Z"/>
        <path id="Ac" class="st18" d="M26,163.5s-4,10.25-7.5,24.25-5,30.75-5,30.75c0,0,.15-.05.44-.09,2.03-.34,11.22-1.5,28.06,1.34,19.25,3.25,32.25,6,32.25,6l1.47-52.5-.75.12-48.97-9.88Z"/>
        <path id="Ad" class="st17" d="M114.75,7.75s-3.25,3.5-22,8-27.5,5.75-27.5,5.75c5.18,14.7,12.03,29.27,14.25,44.75l-.09.31,48.03-3.94,1.12.25c-3.36-13.32-7.8-54.59-13.81-55.12h0Z"/>
        <path id="Ae" class="st14" d="M117.59,109.91l-53.62,15.72-.34-.09-.12.47,12.25,46.5-.03.75,49.47-8.88.53.19.03-.06-8.25-54.25.09-.34h0Z"/>
        <path id="Af" class="st16" d="M128.56,62.88l.69,2.38-11.66,44.66.09-.03,51.81,17.38,11.19-52.97-1,.38-51.12-11.78h0Z"/>
        <path id="Ag" class="st15" d="M125.53,164.5l-11.03,48.5s5.5.5,22.5,6.25l6.12,2.03,5.62,1.72c10.62,3.2,17.5,4.75,17.5,4.75l12.72-45.41-1.53.56-51.91-18.41Z"/>
        <path id="Ah" class="st12" d="M218,112c-15.67,6.29-31.7,11.15-48.06,15.41l-.44-.16,9.5,55-.03.09c17.84-6.36,35.38-13.39,52.78-20.84,0,0-.5-4.5-3.75-19.75s-10-29.75-10-29.75Z"/>
      </g>
      <g class="st67">
        <path id="Ai" class="st37" d="M13.72,8.03c-1.11,0-1.97.03-2.72.06l-1.16.06s-.07,0-.09,0l-.75.09s7.5,13,11.75,27.75,6.25,25.5,6.25,25.5l51.47,5.12.94-.06.09-.31c-2.22-15.48-9.07-30.05-14.25-44.75,0,0-18.5-9-31.5-11.5l-3-.53-1.75-.28-.69-.09c-1.31-.18-2.59-.34-3.81-.47-.74-.08-1.4-.13-2.09-.19l-2-.16-2.78-.16c-1.46-.06-2.77-.09-3.91-.09h0Z"/>
        <path id="Aj" class="st36" d="M13,109.25s5.75,16,9.25,30,3.75,24.25,3.75,24.25l48.97,9.88.75-.12.03-.75-12.25-46.5.12-.47-50.62-16.28Z"/>
        <path id="Ak" class="st33" d="M127.44,62.62l-47.97,4h-.06l-15.78,58.91.34.09,53.62-15.72,11.66-44.66c-.22-.63-.45-1.45-.69-2.38l-1.12-.25h0Z"/>
        <path id="Al" class="st32" d="M125.19,164.38l-49.47,8.88-1.47,52.5s12.75-2.75,24-6.25,16.25-6.5,16.25-6.5l11.22-48.44-.53-.19h0Z"/>
        <path id="Am" class="st39" d="M114.75,7.75c6.02.53,10.45,41.8,13.81,55.12l51.12,11.78c.3-.13.64-.25,1-.38l.06-.28c-2.81-6.86-9.33-53.61-14.25-52.25l-1.72-.72c-3.32-1.4-11.09-4.59-20.28-7.78-12.25-4.25-29.75-5.5-29.75-5.5h0Z"/>
        <path id="An" class="st34" d="M117.69,109.88l-.09.03-.09.34,8.25,53.25-.22,1,51.91,18.41,1.53-.56.03-.09-9.5-55-51.81-17.38h0Z"/>
        <path id="Ao" class="st35" d="M231.75,161.5c-17.4,7.46-34.94,14.48-52.78,20.84l-12.72,45.41,26-5.75c13-3,26.5-8,26.5-8,0,0-.75-5,4.25-24.5s8.75-28,8.75-28Z"/>
        <path id="Ap" class="st38" d="M235,61.5c-3.1,8.01-42.51,8.71-54.31,12.78l-11.19,52.97.44.16c16.36-4.26,32.4-9.12,48.06-15.41,0,0,1.75-10.5,6.75-23.75l10.25-26.75Z"/>
      </g>
    </g>
    <g class="st57">
      <g>
        <path id="Aq" class="st72" d="M-16.54-26.68S-7.14-10.13-1.82,8.49s7.83,32.16,7.83,32.16c0,0-6.89,15.78-10.33,30.71s-7.2,28.6-7.2,28.6c0,0,7.2,20.24,11.59,37.9s4.7,30.51,4.7,30.51c0,0-5.01,12.7-9.39,30.11s-6.26,38.34-6.26,38.34c0,0,11.59-2.18,35.7,2.57s40.39,8.66,40.39,8.66c0,0,15.97-2.99,30.06-6.98s20.35-7.57,20.35-7.57c0,0,6.89.82,28.18,8.62s36.64,11.68,36.64,11.68l32.57-6.28c16.28-3.3,33.19-9.08,33.19-9.08,0,0-.94-6.29,5.32-30.54s10.96-34.76,10.96-34.76c0,0-.63-5.65-4.7-24.87s-12.53-37.62-12.53-37.62c0,0,2.19-13.09,8.45-29.51l12.84-33.14s-5.95-19.27-9.39-37.53-10.33-32.54-10.33-32.54c0,0-30.37,10.41-39.77,12.03s-26.3,5.83-26.3,5.83c0,0-12.21-5.67-27.56-11.43s-37.26-7.94-37.26-7.94c0,0-4.07,4.27-27.56,9.24s-34.44,6.23-34.44,6.23c0,0-23.17-11.93-39.45-15.52s-30.06-3.35-31-3.07Z"/>
        <g class="st58">
          <path id="AO1" data-name="AO" class="st65" d="M110.91-31.53l-5.32,8.62c-.94,11.25-2.82,17.14-10.65,20.37s-15.34,3.95-13.78,9,16.28,12.05,17.85,16.79,10.33,2.48,13.78,9.16,2.51,19.17-4.7,21.47-21.92,0-25.36,11.18-5.95,12.98-11.27,15.65-9.08,12.9-4.38,20.54,15.34-1.13,18.79-7.61,9.08-10.7,9.08-10.7l29.75.84,73.9-.1,4.07-4.58s4.07,5.13,3.44,11.06-4.7,18.34.31,21.62,24.42-1.81,30.06-7.92-5.95-35.55-13.15-37.32-23.17-2.85-21.29-9.37,14.72,6.05,21.61,4.68,20.98-25.71,15.03-31.2-30.37-7.43-32.25-10.93,26.3-9.28,27.87-12.99-3.13-9.17-7.83-10.87-17.54,19.86-26.3,18.98-25.05,6.49-21.61,13.79-7.52,13.57-18.16,7.63-31-17.16-27.24-30.83,26.93-22.72,26.93-22.72l-49.16-14.23ZM93.92,102.28c-2,.13-5.6,5.71-6.18,8.63-.63,3.11-4.07,8.34-4.38,15.22s5.95,8.62,10.96,8.45,3.44-8.36,2.51-18.72c-.31,0-.63-12.86-2.51-13.54-.12-.04-.26-.06-.39-.05h0ZM210.06,170.26c-7.93.15-8.3,9.12-9.28,10.85-1.57,2.77,2.82,17.3,2.51,22.62s-5.95,6.41-11.9,11.88.63,20.06,14.09,39.23l56.05,3.15-1.25-43.87s5.95-5.16-25.99-31.11c-11.98-9.73-19.47-12.83-24.23-12.74ZM22.21,185.66c-5.05-.27-10.37,6.87-12.13,9.17-1.88,2.45-7.83,6.04-21.29,11.3l-18.16,42.39,66.38,7.2s2.19-13.72-5.32-19.88-21.61-7.81-22.86-17.24,11.59-12.2,17.22-17.36,2.51-14.02-2.82-15.42c-.33-.09-.68-.13-1.02-.15h0Z"/>
        </g>
        <path class="st69" d="M170.76,70.16c-5.96-.19-11.31.89-14.44,3.54-10.02,8.48-43.84-.3-60.75,7.05s-16.6,47.13-18.47,55.22-21.92,25.37-25.05,28.73-16.6,8.61-24.42,9.96-15.97,8.63-19.41,13.23c-2.53,3.38-9.28,7.82-12.68,9.94-.06.23-.1.43-.16.66-.17.67-.31,1.35-.47,2.02,6.24-1.83,14-9.85,20.82-16.48,7.83-7.61,25.05-9,34.76-13.42s17.85-24.23,33.19-28.81,26.62,15.47,30.37,24.03,2.19,16.03,4.7,21.43,13.78,15.11,14.4,17.32-6.26,7.96-7.83,10.43-13.15,8.4-14.72,10.54c-1.21,1.66-2.41,8.42-2.9,11.47l1.41-.55c.61-3.15,1.9-8.81,3.68-10.54,2.51-2.43,14.09-5.24,15.66-10.2s8.77-7.89,8.77-7.89c0,0,3.44,5.11,20.04,18.1,11.06,8.66,15.98,19.91,18.04,26.46l2.54.74c-1.53-5.45-6.06-20.51-11.19-26.31-6.26-7.07-23.17-14.12-28.5-28.36s-30.69-43.77-21.92-51.03,20.67-4.43,35.7,10.4,57.93,8.84,72.33,6.74c12.47-1.82,26.1,19.38,29.94,33.45l2.07-7.14c-2.18-2.47-4.63-5.92-6.65-10.56-4.7-10.78-15.03-17.02-15.03-17.02,0,0,10.96-5.95,18.47-9.19,2.03-.87,3.77-1.99,5.25-3.18l-.55-2.64-.12-.55c-5.97,6.8-24.09,11.36-27.12,12.93-3.44,1.78-22.86,3.11-44.78,4.37s-33.51-10.34-42.9-19.69-16.28-45.55-3.76-47.7,25.05,17.93,37.58,22.36,26.93-18.97,24.74-33.12c-1.51-9.73-17.53-16.31-30.65-16.72h0ZM103.94,84.91c1.6.05,7.34,2.2,8.22,3.21,2.82,3.21,2.51,9.15,0,10.02s-15.97,9.57-13.15,17.48,2.19,22.61-4.38,22.42-10.02-.28-12.53-3.49-2.51-15.1,0-24.74,4.38-18.66,10.02-22.58c3.88-2.69,8.31-2.43,11.82-2.33h0ZM120.97,176.95c.25.02,2.39,4.47,5.91,8.97,3.76,4.8,4.07,10.45,4.07,10.45,0,0-5.32-6.1-7.52-10.23s-2.51-9.15-2.51-9.15c0-.04.02-.04.04-.04h0Z"/>
        <path class="st1" d="M125.94,52.5c7.83.85,15.34-2.38,13.46-7.76s-15.66-9.52-16.6-4.23,2.51,13.22,3.13,11.99ZM108.4,32.59c-10.65-7.19-10.65-9.38-8.77-10.27s12.84,6.63,15.97,10.47-2.82,2.43-7.2-.2Z"/>
        <g class="st62">
          <g>
            <path id="AR1" data-name="AR" class="st4" d="M-8.08,147.66c41.33-1.96,47.91-3.03,45.4-11.56s-10.96-29.74-28.81-29-28.5-9.26-28.5-9.26"/>
            <path id="AS1" data-name="AS" class="st5" d="M-5.89,180.29c22.86-11.88,36.01-9.63,43.84-13.17s16.6-6.73,19.73-11.34,7.2-14.2,7.2-22.34-4.38-45.22,4.07-54.37,21.61-31.96,32.57-28.2,15.34,12.65,27.56,12.68,27.24-4.24,30.37-14.49-19.73-20.6-20.04-29.37,6.89-17.65,25.36-20.58,29.43-13.57,29.43-13.57"/>
            <g>
              <path id="AT1" data-name="AT" class="st4" d="M-9.65,159.83c19.1-1.34,27.87,5.17,39.45,3.31s16.6-3.29,22.23-6.57,7.52-4.48,7.83-7.92,1.25-15.62-3.76-27.66-15.66-39.9-10.33-48.83,6.58-26.74,19.73-30.13,26.3-7.08,34.76-.58,15.97,18.3,25.05,18.87,14.72-1.46,18.16-5.12,5.64-12.68,2.19-17.16-19.41-7.44-21.61-12.51-13.46-21.67-.31-33.51,45.4-9.05,45.4-9.05"/>
              <path id="AU1" data-name="AU" class="st4" d="M-1.19,157.56c17.22,1.74,26.93,6.08,41.96.56s16.91-6.1,17.22-10.47-.31-19.74-3.76-25.16-16.28-17.68-19.73-30.93.31-51.35,10.65-60.13,40.08-7.95,46.97-11.82,6.58-20.79,16.28-30.23,33.82-14.39,33.82-14.39"/>
              <path class="st6" d="M210.17-12.45c14.72,6.68,48.85,13.59,59.18,52.09"/>
              <path id="AV1" data-name="AV" class="st4" d="M-15.6,226.04c23.8-14.98,45.09-.29,61.37-3.28s47.91-45.3,57.62-44.72,6.89-14.52,10.65-16.3,6.89,7.71,14.72,10.44,30.69-2.58,29.43-6.37-8.77-9.95-6.89-10.84,10.65,6.56,15.97,4.84,54.8.3,60.75-15.19,26.93-16.15,26.93-16.15"/>
              <path id="AW1" data-name="AW" class="st4" d="M69.26,252.87c16.91-13.93,29.12-30.49,35.7-32.81s15.97-4.25,19.73-9.46,3.13-13.38,6.58-14.84,4.7,7.33,10.96,7.82,46.03-4.96,53.55-13.2,40.39-14.52,40.71-17.01-1.25-5.98.31-6.88,31-6.64,31-6.64"/>
              <path id="AX1" data-name="AX" class="st4" d="M183.56,259.23c11.27-16.9,25.68-50.63,36.95-51.56s12.84-2.77,15.66-4.88,21.29,3.42,21.29,3.42"/>
            </g>
          </g>
        </g>
        <g class="st61">
          <g>
            <path id="AY1" data-name="AY" class="st9" d="M44.52-15.25l-10.65,35.08,22.55,8.47,9.71,45.68-26.3,27.13,11.27,13.47-15.03,13.98.63,5.65,25.36,31.4,17.54-7.96,25.68,23.9-13.15,35.01,12.84,11.01-3.44,16.19"/>
            <path id="AZ1" data-name="AZ" class="st9" d="M104.65,227.25l15.66-34.32,13.78-8.38,34.44,20.7,25.68-3.97-.31-19.74-12.84-7.88,15.97-32.43,7.2-4.49,48.54-11.15"/>
          </g>
        </g>
        <path id="Aq1" data-name="Aq" class="st31" d="M-16.54-26.68S-7.14-10.13-1.82,8.49s7.83,32.16,7.83,32.16c0,0-6.89,15.78-10.33,30.71s-7.2,28.6-7.2,28.6c0,0,7.2,20.24,11.59,37.9s4.7,30.51,4.7,30.51c0,0-5.01,12.7-9.39,30.11s-6.26,38.34-6.26,38.34c0,0,11.59-2.18,35.7,2.57s40.39,8.66,40.39,8.66c0,0,15.97-2.99,30.06-6.98s20.35-7.57,20.35-7.57c0,0,6.89.82,28.18,8.62s36.64,11.68,36.64,11.68l32.57-6.28c16.28-3.3,33.19-9.08,33.19-9.08,0,0-.94-6.29,5.32-30.54s10.96-34.76,10.96-34.76c0,0-.63-5.65-4.7-24.87s-12.53-37.62-12.53-37.62c0,0,2.19-13.09,8.45-29.51l12.84-33.14s-5.95-19.27-9.39-37.53-10.33-32.54-10.33-32.54c0,0-30.37,10.41-39.77,12.03s-26.3,5.83-26.3,5.83c0,0-12.21-5.67-27.56-11.43s-37.26-7.94-37.26-7.94c0,0-4.07,4.27-27.56,9.24s-34.44,6.23-34.44,6.23c0,0-23.17-11.93-39.45-15.52s-30.06-3.35-31-3.07Z"/>
        <g>
          <g class="st66">
            <path id="Aa1" data-name="Aa" class="st40" d="M246.81-22.06s-30.37,10.41-39.77,12.03-26.3,5.83-26.3,5.83c6.17-1.53,14.33,57.26,17.85,65.95l-.08.35c14.79-4.68,64.14-4.16,68.03-14.09,0,0-5.95-19.27-9.39-37.53s-10.33-32.54-10.33-32.54Z"/>
            <path id="Ab1" data-name="Ab" class="st46" d="M6.01,40.65s-6.89,15.78-10.33,30.71-7.2,28.6-7.2,28.6l63.41,22.18,19.77-73.22L6.01,40.65Z"/>
            <path id="Ac1" data-name="Ac" class="st45" d="M4.76,168.38s-5.01,12.7-9.39,30.11-6.26,38.34-6.26,38.34c0,0,.18-.05.55-.1,2.55-.35,14.05-1.48,35.15,2.68,24.11,4.75,40.39,8.66,40.39,8.66l1.84-65.71-.94.13-61.34-14.1Z"/>
            <path id="Ad1" data-name="Ad" class="st42" d="M115.92-23.56s-4.07,4.27-27.56,9.24-34.44,6.23-34.44,6.23c6.49,18.6,15.07,37.09,17.85,56.56l-.12.39,60.16-3.23,1.41.35c-4.21-16.81-9.76-68.65-17.3-69.54h0Z"/>
            <path id="Ae1" data-name="Ae" class="st41" d="M119.48,104.49l-67.17,17.79-.43-.13-.16.58,15.34,58.68-.04.94,61.96-9.37.67.25.04-.08-10.33-68.24.12-.43h0Z"/>
            <path id="Af1" data-name="Af" class="st43" d="M133.22,45.97l.86,3-14.6,55.52.12-.04,64.9,23.6,14.01-65.95-1.25.43-64.04-16.57h0Z"/>
            <path id="Ag1" data-name="Ag" class="st44" d="M129.42,173.15l-13.82,60.36s6.89.82,28.18,8.62l7.67,2.76,7.05,2.35c13.3,4.38,21.92,6.57,21.92,6.57l15.93-56.42-1.92.65-65.02-24.89Z"/>
            <path id="Ah1" data-name="Ah" class="st48" d="M245.24,110.67c-19.62,7.32-39.7,12.84-60.2,17.6l-.55-.21,11.9,69.23-.04.12c22.34-7.33,44.32-15.52,66.11-24.24,0,0-.63-5.65-4.7-24.87s-12.53-37.62-12.53-37.62Z"/>
          </g>
          <g class="st67">
            <path id="Ai1" data-name="Ai" class="st47" d="M-10.63-26.79c-1.39-.04-2.47-.03-3.41-.02l-1.45.04s-.08,0-.12,0l-.94.09S-7.14-10.13-1.82,8.49s7.83,32.16,7.83,32.16l64.47,8.24,1.17-.04.12-.39c-2.78-19.47-11.36-37.95-17.85-56.56,0,0-23.17-11.93-39.45-15.52l-3.76-.77-2.19-.41-.86-.14c-1.64-.27-3.24-.52-4.77-.72-.92-.12-1.75-.21-2.62-.31l-2.51-.27-3.48-.29c-1.82-.13-3.47-.21-4.89-.26h0Z"/>
            <path id="Aj1" data-name="Aj" class="st29" d="M-11.53,99.97S-4.32,120.21.06,137.87s4.7,30.51,4.7,30.51l61.34,14.1.94-.13.04-.94-15.34-58.68.16-.58-63.41-22.18Z"/>
            <path id="Ak1" data-name="Ak" class="st30" d="M131.81,45.62l-60.08,3.31h-.08s-19.77,73.22-19.77,73.22l.43.13,67.17-17.79,14.6-55.52c-.28-.8-.57-1.83-.86-3l-1.41-.35h0Z"/>
            <path id="Al1" data-name="Al" class="st20" d="M128.99,172.98l-61.96,9.37-1.84,65.71s15.97-2.99,30.06-6.98,20.35-7.57,20.35-7.57l14.05-60.27-.67-.25h0Z"/>
            <path id="Am1" data-name="Am" class="st19" d="M115.92-23.56c7.54.88,13.09,52.73,17.3,69.54l64.04,16.57c.38-.15.81-.29,1.25-.43l.08-.35c-3.52-8.69-11.68-67.48-17.85-65.95l-2.15-.96c-4.15-1.86-13.9-6.15-25.4-10.46-15.34-5.76-37.26-7.94-37.26-7.94h0Z"/>
            <path id="An1" data-name="An" class="st22" d="M119.6,104.45l-.12.04-.12.43,10.33,66.99-.27,1.24,65.01,24.89,1.92-.65.04-.12-11.9-69.23-64.9-23.6h0Z"/>
            <path id="Ao1" data-name="Ao" class="st27" d="M262.47,173.15c-21.79,8.72-43.77,16.9-66.11,24.24l-15.93,56.42,32.57-6.28c16.28-3.3,33.19-9.08,33.19-9.08,0,0-.94-6.29,5.32-30.54s10.96-34.76,10.96-34.76Z"/>
            <path id="Ap1" data-name="Ap" class="st24" d="M266.54,48.02c-3.89,9.93-53.24,9.4-68.03,14.09l-14.01,65.95.55.21c20.5-4.75,40.58-10.27,60.2-17.6,0,0,2.19-13.09,8.45-29.51l12.84-33.14Z"/>
          </g>
        </g>
      </g>
    </g>
    <g class="st60">
      <path id="AN1" data-name="AN" class="st63" d="M174.28,34.91c-17.6-1.42-35.19,3.79-48.72,15.97-.17.15-.33.28-.5.43-22.06,20.27-26.21,53.13-12.47,80.49l-2.28,1.44c2.28,4.49,4.99,8.77,8.09,12.78l-13.31,12.27c-1.34-.69-2.79-1.26-4.56-1.74l-2.84,2.61c-1.11-.57-2.14-.99-3.06-1.12l-64.13,58.94c-.04,1.1.23,2.21.66,3.33l-.53.49-1.09,1.01c.72,3.8,2.01,6.99,5.47,10.72s6.42,5.15,10.28,6.3l1.09-1.01.72-.66c1.09.55,2.13.96,3.09,1.09l64.12-58.94c-.24-.99-.62-1.99-1.03-2.99l3-2.76c-.25-1.75-.68-3.25-1.31-4.7l13.28-12.21c3.76,3.4,7.82,6.45,12.12,9.07l1.62-2.15c26.25,15.86,59.44,14.39,81.5-5.88.17-.15.3-.31.47-.46,26.69-25.06,26.55-68.77-.47-97.97-13.59-14.69-31.41-22.92-49.22-24.36h0ZM173.78,38.15l.31.03c.95.09,1.9.22,2.84.36.96.14,1.92.3,2.88.48l.28.05.28.05c.15.03.29.07.44.1.9.18,1.79.37,2.69.59.62.15,1.23.32,1.84.49l1.03.27c.72.21,1.44.44,2.16.67l.94.29c.07.02.15.05.22.08.96.33,1.9.67,2.84,1.04.07.03.15.05.22.08.96.38,1.9.78,2.84,1.2.05.02.1.05.16.08.96.43,1.9.88,2.84,1.36.05.03.1.05.16.08.94.48,1.88.99,2.81,1.51.04.02.08.05.12.07.93.53,1.86,1.06,2.78,1.63.03.02.06.05.09.07.93.58,1.84,1.16,2.75,1.79.03.02.06.05.09.07.91.63,1.81,1.27,2.69,1.94.55.41,1.08.86,1.62,1.29l1.09.87s.04.02.06.04c.88.73,1.74,1.5,2.59,2.27,1.76,1.59,3.45,3.26,5.06,5,1.6,1.73,3.12,3.53,4.56,5.4,0,.01.02.02.03.03.7.91,1.41,1.83,2.06,2.76.28.4.54.82.81,1.22l1.09,1.65s.05.04.06.07c.6.94,1.17,1.87,1.72,2.83.02.03.04.07.06.1.55.95,1.06,1.91,1.56,2.88.02.03.04.06.06.1.5.96.95,1.92,1.41,2.89.02.04.04.09.06.13.45.97.88,1.94,1.28,2.92.02.05.04.11.06.16.39.97.77,1.95,1.12,2.93.02.05.04.11.06.16.35.98.67,1.94.97,2.92.02.07.04.15.06.22.29.96.56,1.94.81,2.91.02.08.04.15.06.22.08.32.14.64.22.96l.5,2.2c.07.35.12.7.19,1.05l.34,1.87c.15.9.26,1.81.38,2.72.02.15.05.29.06.44l.03.28.03.28c.1.96.19,1.93.25,2.9.06.95.11,1.91.12,2.85,0,.1,0,.21,0,.31.01,1.05,0,2.1-.03,3.15-.03.93-.09,1.85-.16,2.77l-.03.37c-.08.91-.17,1.82-.28,2.73-.12.95-.27,1.9-.44,2.84-.01.08-.02.17-.03.25l-.06.37c-.16.89-.36,1.79-.56,2.67l-.09.4c-.21.87-.44,1.74-.69,2.6-.16.57-.35,1.14-.53,1.71l-.53,1.65c-.29.84-.61,1.67-.94,2.49l-.19.45c-.04.11-.08.22-.12.33-.36.84-.73,1.68-1.12,2.5-.38.79-.77,1.57-1.19,2.34-.08.15-.17.3-.25.45l-1.29,2.27-.28.48c-.2.32-.42.63-.62.95-.36.56-.74,1.11-1.12,1.66,0,0,0,.02,0,.03-.49.71-1.01,1.41-1.53,2.1-.46.6-.95,1.17-1.44,1.76-.2.24-.36.5-.56.74l-.41.47c-.16.19-.33.37-.5.55-.56.62-1.13,1.23-1.72,1.83-.61.62-1.24,1.25-1.88,1.85-.16.15-.31.31-.47.46-21.13,19.42-52.26,20.27-77.19,4.91l.12-.18c-3.7-2.2-7.26-4.73-10.62-7.64-.54-.47-1.07-.96-1.59-1.44l-1.53-1.44-.28-.27c-.82-.81-1.61-1.65-2.41-2.51s-1.57-1.71-2.31-2.59l-.25-.3c-.45-.54-.88-1.09-1.31-1.64l-1.31-1.7c-2.64-3.58-4.89-7.32-6.78-11.17l-.19.11c-13.34-26.01-9.97-56.86,11.16-76.29.16-.15.34-.28.5-.43.65-.59,1.32-1.16,2-1.71.65-.54,1.3-1.06,1.97-1.56l.81-.62c.34-.25.71-.45,1.06-.7.62-.43,1.24-.88,1.88-1.29.74-.47,1.49-.92,2.25-1.35l1.75-.98,1.34-.7c.68-.34,1.37-.65,2.06-.96l.53-.24c.95-.41,1.88-.81,2.84-1.18.86-.33,1.72-.63,2.59-.92.15-.05.32-.07.47-.12.97-.31,1.93-.6,2.91-.86.56-.15,1.12-.27,1.69-.39l1.75-.39c.88-.17,1.77-.34,2.66-.47.07-.01.15,0,.22-.01l1.25-.18,2.03-.24c.08,0,.17,0,.25-.01.95-.09,1.92-.16,2.88-.2,1.96-.09,3.93-.08,5.91,0,1.05.05,2.1.12,3.16.22h0Z"/>
    </g>
    <path class="st26" d="M48.01,233.46l-4.81,4.56-15.08-16.13,4.49-4.07c6.83,6.53,8.87,8.53,15.4,15.65Z"/>
    <path class="st63" d="M125.06,140.69c-27.18-27.18-27.18-71.25,0-98.43s71.25-27.18,98.43,0,27.18,71.25,0,98.43c-27.18,27.18-71.25,27.18-98.43,0ZM128.02,137.73c26.09,26.09,67.41,27.08,93.51.98s25.11-67.41-.98-93.51-67.41-27.08-93.51-.98c-26.09,26.09-25.11,67.41.98,93.51h0Z"/>
    <path class="st64" d="M125.06,140.69c-27.18-27.18-27.18-71.25,0-98.43l.49-.49c-26.68,27.22-26.52,70.92.49,97.93s70.72,27.18,97.94.49l-.49.49c-27.18,27.18-71.25,27.18-98.43,0ZM127.53,43.74l.49-.49c26.09-26.09,67.41-25.11,93.51.98,26.09,26.09,27.08,67.41.98,93.51l-.49.49c25.59-26.12,24.45-67.09-1.48-93.01s-66.9-27.06-93.01-1.48h0Z"/>
    <path id="Ar" class="st71" d="M127.03,138.72c26.09,26.09,68.4,26.09,94.49,0s26.09-68.4,0-94.49-68.4-26.09-94.49,0c-26.09,26.09-26.09,68.4,0,94.49Z"/>
    <path id="Ar1" data-name="Ar" class="st55" d="M127.03,138.72c26.09,26.09,68.4,26.09,94.49,0s26.09-68.4,0-94.49-68.4-26.09-94.49,0c-26.09,26.09-26.09,68.4,0,94.49Z"/>
    <path class="st28" d="M116.05,121.28l-5.75,4.09c3.29,6.21,7.56,12.05,12.8,17.29s11.07,9.5,17.29,12.8l4.09-5.75c-5.93-3.04-11.49-7-16.46-11.96s-8.93-10.53-11.96-16.46h0Z"/>
    <path class="st25" d="M124.82,140.93c1.73,1.73,3.08,3.67,4.12,5.72l-26.21,26.21c-2.05-1.04-3.99-2.39-5.72-4.12s-3.08-3.67-4.12-5.72l26.21-26.21c2.11,1.06,4.05,2.45,5.72,4.12Z"/>
    <path class="st21" d="M116.27,165.23l-66.07,66.07c-3.98-2.19-5.83-3-9.29-6.46s-4.27-5.31-6.46-9.29l66.07-66.07c5.06,3.75,12.12,10.4,15.75,15.75h0Z"/>
    <path class="st23" d="M105.78,160.12c3.46,3.46,7.43,6.67,8.52,11.02l-64.1,64.1c-6.52-5.15-14.56-12.79-19.68-19.68l64.1-64.1c3.49.22,7.66,5.16,11.12,8.62l.05.05Z"/>
    <path class="st51" d="M105.53,160.36c3.46,3.46,7.68,6.42,8.76,10.77l-64.1,64.1c-7.88-6.91-11.8-10.62-19.68-19.68l64.1-64.1c3.49.22,7.41,5.45,10.87,8.91h.05,0Z"/>
    <path class="st50" d="M131.17,43.05c40.66-32.17,78.14-12.73,77.78,5.3s-56.57,70.36-76.37,66.11-25.46-53.39-1.41-71.42h0Z"/>
    <g>
      <path class="st49" d="M203.98,32.93l-2.72.43-2.84,1.17.4,2.54,2.82-1.18,1.45,9.25-3.15.49.39,2.48,9.04-1.42-.39-2.48-3.15.49-1.84-11.78h0ZM191.22,34.73c-.27,0-.56.02-.86.07-1.57.25-2.65,1.05-3.24,2.41-.59,1.35-.69,3.26-.3,5.73s1.07,4.25,2.04,5.37c.98,1.11,2.25,1.54,3.82,1.29s2.67-1.05,3.26-2.4.69-3.26.31-5.73-1.07-4.27-2.05-5.37c-.74-.87-1.83-1.37-2.97-1.36ZM179.44,36.57c-.27,0-.56.02-.86.07-1.57.25-2.65,1.05-3.24,2.41-.59,1.35-.69,3.26-.31,5.73s1.07,4.25,2.04,5.37c.98,1.11,2.25,1.54,3.82,1.29s2.66-1.05,3.25-2.4.69-3.26.31-5.73-1.07-4.27-2.05-5.38c-.79-.9-1.79-1.35-2.98-1.36h0ZM190.97,37.17c.55,0,1.01.33,1.38.99.42.75.77,2,1.05,3.75s.32,3.04.15,3.88-.59,1.32-1.25,1.42-1.19-.22-1.61-.97-.77-2-1.05-3.74-.32-3.05-.15-3.89.59-1.32,1.24-1.42c.08-.01.16-.02.24-.02h0ZM168.65,38.46l-2.72.43-2.84,1.17.4,2.54,2.82-1.19,1.45,9.26-3.15.49.39,2.48,9.04-1.42-.39-2.48-3.15.49-1.84-11.78h0ZM179.2,39.01c.55,0,1.01.33,1.38.99.42.75.77,2,1.05,3.75s.32,3.04.15,3.88-.59,1.32-1.25,1.42-1.19-.22-1.61-.97-.77-2-1.05-3.74-.32-3.05-.15-3.89.59-1.32,1.24-1.42c.08-.01.16-.02.24-.02h0ZM156.87,40.3l-2.72.43-2.84,1.17.4,2.54,2.82-1.19,1.45,9.26-3.15.49.39,2.48,9.04-1.42-.39-2.48-3.15.49-1.84-11.78ZM191.58,40.99c-.08,0-.17,0-.25.02-.32.04-.6.22-.79.48-.19.26-.27.59-.21.9.05.34.21.6.48.79.26.19.56.25.89.2s.6-.21.79-.48.26-.56.21-.89c-.04-.32-.21-.61-.48-.8-.2-.14-.42-.22-.66-.23h0ZM144.11,42.11c-.29,0-.57.02-.86.07-1.57.25-2.65,1.05-3.24,2.41-.59,1.35-.69,3.26-.3,5.73s1.07,4.25,2.04,5.37c.98,1.11,2.25,1.54,3.82,1.29s2.67-1.05,3.26-2.4.69-3.26.3-5.73-1.07-4.27-2.05-5.38c-.74-.87-1.83-1.37-2.97-1.36ZM179.8,42.83c-.08,0-.16,0-.25.02-.33.05-.59.21-.79.47s-.26.57-.21.9.21.6.48.79c.26.19.56.26.89.2.32-.04.61-.21.8-.48.19-.27.26-.56.21-.89-.04-.32-.21-.61-.48-.8-.2-.14-.42-.22-.66-.23h0ZM133.32,43.99l-2.72.43-2.84,1.17.4,2.54,2.82-1.19,1.45,9.26-3.15.49.39,2.48,9.04-1.42-.39-2.48-3.15.49-1.84-11.78h0ZM143.87,44.54c.55,0,1.01.33,1.38.99.42.75.77,2,1.05,3.75s.32,3.04.15,3.88-.59,1.32-1.25,1.42-1.19-.22-1.61-.97-.77-2-1.05-3.74-.32-3.05-.15-3.89c.17-.84.59-1.31,1.24-1.42.08-.01.16-.02.24-.02h0ZM120.55,45.79c-.27,0-.56.02-.86.07-1.57.25-2.65,1.05-3.24,2.41-.59,1.35-.69,3.26-.31,5.73s1.07,4.25,2.04,5.37c.98,1.11,2.25,1.54,3.82,1.29s2.66-1.05,3.25-2.4.69-3.26.31-5.73-1.07-4.27-2.05-5.38c-.79-.9-1.79-1.35-2.98-1.36h0ZM120.31,48.23c.55,0,1.01.33,1.38.99.42.75.77,2,1.05,3.75s.32,3.04.15,3.88-.59,1.32-1.25,1.42-1.19-.22-1.61-.97-.77-2-1.05-3.74-.33-3.05-.15-3.89.59-1.32,1.24-1.42c.08-.01.16-.02.24-.02h0ZM144.47,48.36c-.08,0-.16,0-.25.02-.32.04-.6.22-.79.48-.19.27-.26.56-.21.9.04.32.21.61.48.8.26.19.56.25.89.2s.6-.21.79-.48.26-.56.21-.89c-.04-.32-.21-.61-.48-.8-.2-.14-.42-.22-.66-.23h0ZM120.92,52.05c-.08,0-.16,0-.25.02-.33.05-.59.21-.79.47-.19.26-.27.59-.21.9.05.34.21.6.48.79.26.19.56.26.89.2.32-.04.61-.21.8-.48.19-.27.26-.56.21-.89-.04-.32-.21-.61-.48-.8-.2-.14-.42-.22-.66-.23h0ZM207.81,57.38l-2.72.43-2.84,1.17.4,2.54,2.82-1.19,1.45,9.26-3.15.49.39,2.48,9.04-1.42-.39-2.49-3.15.49-1.85-11.78h0ZM195.05,59.18c-.27,0-.56.02-.86.07-1.57.25-2.65,1.05-3.24,2.41-.59,1.35-.69,3.26-.31,5.73s1.07,4.25,2.04,5.37c.98,1.11,2.25,1.54,3.82,1.29s2.66-1.05,3.25-2.4.69-3.26.31-5.73-1.07-4.27-2.05-5.38c-.79-.9-1.79-1.35-2.98-1.36h0ZM184.26,61.07l-2.72.43-2.84,1.17.4,2.54,2.82-1.19,1.45,9.26-3.15.49.39,2.48,9.04-1.42-.39-2.48-3.15.49-1.84-11.78h0ZM194.8,61.62c.55,0,1.01.33,1.38.99.42.75.77,2,1.05,3.75s.32,3.04.15,3.88-.59,1.32-1.25,1.42-1.19-.22-1.61-.97-.77-2-1.05-3.74-.33-3.05-.15-3.89.59-1.32,1.24-1.42c.08-.01.16-.02.24-.02h0ZM171.49,62.87c-.29,0-.57.02-.86.07-1.57.25-2.65,1.05-3.24,2.41-.59,1.35-.69,3.26-.3,5.73s1.07,4.25,2.04,5.37c.98,1.11,2.25,1.54,3.82,1.29s2.67-1.05,3.26-2.4.69-3.26.3-5.73-1.07-4.27-2.05-5.38c-.74-.87-1.83-1.37-2.97-1.36h0ZM160.7,64.76l-2.72.43-2.84,1.17.4,2.54,2.82-1.18,1.45,9.25-3.15.49.39,2.48,9.04-1.42-.39-2.48-3.15.49-1.84-11.78h0ZM171.25,65.3c.55,0,1.01.33,1.38.99.42.75.77,2,1.05,3.75s.32,3.04.15,3.88-.59,1.32-1.25,1.42-1.19-.22-1.61-.97-.77-2-1.04-3.74-.32-3.05-.15-3.89.58-1.31,1.23-1.42c.08-.01.16-.02.24-.02ZM195.41,65.44c-.08,0-.16,0-.25.02-.33.05-.59.21-.79.47-.19.26-.27.59-.21.9.04.32.21.61.48.8.26.19.56.25.89.2.32-.04.61-.21.8-.48.19-.27.26-.56.21-.89s-.21-.6-.48-.79c-.19-.14-.42-.22-.66-.23h0ZM148.93,66.6l-2.72.43-2.84,1.17.4,2.54,2.82-1.19,1.45,9.26-3.15.49.39,2.48,9.05-1.42-.39-2.48-3.15.49-1.85-11.78h0ZM136.16,68.4c-.27,0-.56.02-.86.07-1.57.25-2.65,1.05-3.24,2.41-.59,1.35-.69,3.26-.31,5.73s1.07,4.25,2.04,5.37c.98,1.11,2.25,1.54,3.82,1.29s2.66-1.05,3.25-2.4.69-3.26.31-5.73-1.07-4.27-2.05-5.38c-.79-.9-1.79-1.35-2.98-1.36h0ZM171.85,69.13c-.08,0-.17,0-.25.02-.33.05-.59.21-.79.47-.19.26-.27.59-.21.9.04.32.21.61.48.8.26.19.56.26.89.2.32-.04.61-.22.8-.48.19-.27.26-.56.21-.89-.04-.32-.21-.61-.48-.8-.2-.14-.42-.22-.66-.23h0ZM124.38,70.24c-.27,0-.56.02-.86.07-1.57.25-2.65,1.05-3.24,2.41-.59,1.35-.69,3.26-.31,5.73s1.07,4.25,2.04,5.37c.98,1.11,2.25,1.54,3.82,1.29s2.67-1.05,3.26-2.4.69-3.26.3-5.73-1.07-4.27-2.05-5.38c-.79-.9-1.79-1.35-2.98-1.36h0ZM135.92,70.84c.55,0,1.01.33,1.38.99.42.75.77,2,1.05,3.75s.32,3.04.15,3.88-.59,1.32-1.25,1.42-1.19-.22-1.61-.97-.77-2-1.05-3.74-.33-3.05-.15-3.89.59-1.32,1.24-1.42c.08-.01.16-.02.24-.02h0ZM124.14,72.68c.55,0,1.01.33,1.38.99.42.75.77,2,1.05,3.75s.32,3.04.15,3.88-.59,1.32-1.24,1.42-1.19-.22-1.61-.97-.77-2-1.05-3.74-.33-3.05-.15-3.89.59-1.31,1.24-1.42c.08-.01.16-.02.24-.02h0ZM136.52,74.66c-.08,0-.16,0-.25.02-.33.05-.59.21-.79.47-.19.26-.27.59-.21.9.04.32.21.61.48.8.26.19.56.25.89.2.32-.04.61-.21.8-.48.19-.27.26-.56.21-.89s-.21-.6-.48-.79c-.2-.14-.42-.22-.66-.23h0ZM124.75,76.5c-.08,0-.16,0-.25.02-.33.05-.59.21-.79.47-.19.26-.27.59-.21.9.04.32.21.61.48.8.26.19.56.25.89.2.32-.04.61-.21.8-.48.19-.27.26-.56.21-.89s-.21-.6-.48-.79c-.2-.14-.42-.22-.66-.23h0ZM211.64,81.83l-2.72.43-2.84,1.17.4,2.54,2.82-1.19,1.45,9.26-3.15.49.39,2.48,9.04-1.42-.39-2.48-3.15.49-1.84-11.78h0ZM199.86,83.67l-2.72.43-2.84,1.17.4,2.54,2.82-1.19,1.45,9.26-3.15.49.39,2.48,9.04-1.42-.39-2.48-3.15.49-1.84-11.78h0ZM187.1,85.48c-.29,0-.57.02-.86.07-1.57.25-2.65,1.05-3.24,2.41-.59,1.35-.69,3.26-.3,5.73s1.07,4.25,2.04,5.37c.98,1.11,2.25,1.54,3.82,1.29s2.67-1.04,3.26-2.4.69-3.26.3-5.73-1.07-4.27-2.05-5.38c-.74-.87-1.83-1.37-2.97-1.36h0ZM175.32,87.32c-.27,0-.56.02-.86.07-1.57.25-2.65,1.05-3.24,2.41-.59,1.35-.69,3.26-.31,5.73s1.07,4.25,2.04,5.37c.98,1.11,2.25,1.54,3.82,1.29s2.66-1.05,3.25-2.4.69-3.26.31-5.73-1.07-4.27-2.05-5.38c-.79-.9-1.79-1.35-2.98-1.36h0ZM186.86,87.91c.55,0,1.01.33,1.38.99.42.75.77,2,1.05,3.75s.32,3.04.15,3.88-.59,1.32-1.25,1.42-1.19-.22-1.61-.97-.77-2-1.05-3.74-.32-3.05-.15-3.89.59-1.31,1.24-1.42c.08-.01.16-.02.24-.02ZM164.53,89.21l-2.72.43-2.84,1.17.4,2.54,2.82-1.19,1.45,9.26-3.15.49.39,2.48,9.04-1.42-.39-2.48-3.15.49-1.84-11.78h0ZM175.08,89.76c.55,0,1.01.33,1.38.99.42.75.77,2,1.05,3.75s.32,3.04.15,3.88-.59,1.32-1.25,1.42-1.19-.22-1.61-.97-.77-2-1.05-3.74-.32-3.05-.15-3.89.59-1.32,1.24-1.42c.08-.01.16-.02.24-.02h0ZM151.77,91.01c-.27,0-.56.02-.86.07-1.57.25-2.65,1.05-3.24,2.41-.59,1.35-.69,3.26-.31,5.73s1.07,4.25,2.04,5.37c.98,1.11,2.25,1.54,3.82,1.29s2.67-1.05,3.26-2.4.69-3.26.3-5.73-1.07-4.27-2.05-5.38c-.79-.9-1.79-1.35-2.98-1.36h0ZM187.46,91.74c-.08,0-.17,0-.25.02-.32.04-.6.22-.79.48-.19.27-.26.56-.21.9.04.32.21.61.48.8.26.19.56.25.89.2s.6-.21.79-.48.26-.56.21-.89c-.04-.32-.21-.61-.48-.8-.2-.14-.42-.22-.66-.23h0ZM139.99,92.85c-.27,0-.56.02-.86.07-1.57.25-2.65,1.05-3.24,2.41-.59,1.35-.69,3.26-.3,5.73s1.07,4.25,2.04,5.37c.98,1.11,2.25,1.54,3.82,1.29s2.67-1.05,3.26-2.4.69-3.26.3-5.73-1.07-4.27-2.05-5.38c-.79-.9-1.78-1.35-2.97-1.36ZM151.52,93.45c.55,0,1.01.33,1.38.99.42.75.77,2,1.05,3.75s.32,3.04.15,3.88-.59,1.31-1.24,1.42-1.19-.22-1.61-.97-.77-2-1.05-3.74-.33-3.05-.15-3.89.59-1.31,1.24-1.42c.08-.01.16-.02.24-.02h0ZM175.68,93.58c-.08,0-.17,0-.25.02-.32.04-.6.22-.79.48-.19.26-.27.59-.21.9.05.34.21.6.48.79.26.19.56.26.89.2.32-.04.61-.21.8-.48.19-.27.26-.56.21-.89-.04-.32-.21-.61-.48-.8-.2-.14-.42-.22-.66-.23h0ZM129.2,94.74l-2.72.43-2.84,1.17.4,2.54,2.82-1.19,1.45,9.26-3.15.49.39,2.48,9.04-1.42-.39-2.48-3.15.49-1.84-11.78h0ZM139.75,95.29c.55,0,1.01.33,1.38.99.42.75.77,2,1.05,3.75s.32,3.04.15,3.88-.59,1.32-1.25,1.42-1.19-.22-1.61-.97-.77-2-1.05-3.74-.32-3.05-.15-3.89.59-1.31,1.24-1.42c.08-.01.16-.02.24-.02ZM152.13,97.27c-.08,0-.16,0-.25.02-.33.05-.59.21-.79.47-.19.26-.27.59-.21.9.04.32.21.61.48.8.26.19.56.25.89.2.32-.04.61-.21.8-.48.19-.27.26-.56.21-.89s-.21-.6-.48-.79c-.2-.14-.42-.22-.66-.23h0ZM140.35,99.11c-.08,0-.16,0-.25.02-.33.05-.59.21-.79.47-.19.26-.27.59-.21.9.04.32.21.61.48.8.26.19.56.25.89.2s.6-.21.79-.48.26-.56.21-.89-.21-.6-.48-.79c-.19-.14-.42-.22-.66-.23h0Z"/>
      <path class="st68" d="M203.36,31.72l-2.72.43-2.84,1.17.4,2.54,2.82-1.19,1.45,9.26-3.15.49.39,2.48,9.04-1.42-.39-2.48-3.15.49-1.84-11.78h0ZM190.59,33.52c-.27,0-.56.02-.86.07-1.57.25-2.65,1.05-3.24,2.41-.59,1.35-.69,3.26-.31,5.73s1.07,4.25,2.04,5.37c.98,1.11,2.25,1.54,3.82,1.29s2.66-1.05,3.25-2.4.69-3.26.31-5.73-1.07-4.27-2.05-5.38c-.79-.9-1.79-1.35-2.98-1.36h0ZM178.82,35.37c-.27,0-.56.02-.86.07-1.57.25-2.65,1.05-3.24,2.41-.59,1.35-.69,3.26-.31,5.73s1.07,4.25,2.04,5.37c.98,1.11,2.25,1.54,3.82,1.29s2.66-1.05,3.25-2.4.69-3.26.31-5.73-1.07-4.27-2.05-5.38c-.79-.9-1.79-1.35-2.98-1.36h0ZM190.35,35.96c.55,0,1.01.33,1.38.99.42.75.77,2,1.05,3.75s.32,3.04.15,3.88c-.17.84-.59,1.32-1.25,1.42s-1.19-.22-1.61-.97-.77-2-1.05-3.74-.32-3.05-.15-3.89.59-1.31,1.24-1.42c.08-.01.16-.02.24-.02h0ZM168.03,37.26l-2.72.43-2.84,1.17.4,2.54,2.82-1.18,1.45,9.25-3.15.49.39,2.48,9.04-1.42-.39-2.48-3.15.49-1.84-11.78h0ZM178.57,37.8c.55,0,1.01.33,1.38.99.42.75.77,2,1.05,3.75s.32,3.04.15,3.88-.59,1.32-1.25,1.42-1.19-.22-1.61-.97-.77-2-1.04-3.74-.33-3.05-.15-3.89.59-1.31,1.24-1.42c.08-.01.16-.02.24-.02ZM156.25,39.1l-2.72.43-2.84,1.17.4,2.54,2.82-1.19,1.45,9.26-3.15.49.39,2.48,9.04-1.42-.39-2.48-3.15.49-1.84-11.78h0ZM190.96,39.78c-.08,0-.16,0-.25.02-.33.05-.59.21-.79.47s-.26.57-.21.9c.04.32.21.61.48.8.26.19.56.25.89.2.32-.04.61-.21.8-.48.19-.27.26-.56.21-.89s-.21-.6-.48-.79c-.19-.14-.42-.22-.66-.23h0ZM143.49,40.9c-.27,0-.56.02-.86.07-1.57.25-2.65,1.05-3.24,2.41-.59,1.35-.69,3.26-.31,5.73s1.07,4.25,2.04,5.37c.98,1.11,2.25,1.54,3.82,1.29s2.66-1.05,3.25-2.4.69-3.26.31-5.73-1.07-4.27-2.05-5.37c-.79-.9-1.78-1.35-2.97-1.36h0ZM179.18,41.63c-.08,0-.17,0-.25.02-.33.05-.59.21-.79.47-.19.26-.27.59-.21.9.04.32.21.61.48.8.26.19.56.26.89.2.32-.04.61-.22.8-.48.19-.26.27-.58.21-.89-.04-.32-.21-.61-.48-.8-.19-.14-.42-.22-.66-.23h0ZM132.7,42.79l-2.72.43-2.84,1.17.4,2.54,2.82-1.19,1.45,9.26-3.15.49.39,2.48,9.04-1.42-.39-2.48-3.15.49-1.84-11.78h0ZM143.25,43.34c.55,0,1.01.33,1.38.99.42.75.77,2,1.05,3.75s.32,3.04.15,3.88-.59,1.32-1.25,1.42-1.19-.22-1.61-.97-.77-2-1.05-3.74-.32-3.05-.15-3.89.59-1.32,1.24-1.42c.08-.01.16-.02.24-.02h0ZM119.93,44.59c-.27,0-.56.02-.86.07-1.57.25-2.65,1.05-3.24,2.41-.59,1.35-.69,3.26-.31,5.73s1.07,4.25,2.04,5.37c.98,1.11,2.25,1.54,3.82,1.29s2.67-1.05,3.26-2.4.69-3.26.3-5.73-1.07-4.27-2.05-5.38c-.79-.9-1.79-1.35-2.98-1.36h0ZM119.69,47.03c.55,0,1.01.33,1.38.99.42.75.77,2,1.05,3.75s.32,3.04.15,3.88c-.17.84-.59,1.31-1.24,1.42s-1.19-.22-1.61-.97-.77-2-1.04-3.74-.33-3.05-.15-3.89.59-1.31,1.24-1.42c.08-.01.16-.02.24-.02h0ZM143.85,47.16c-.08,0-.16,0-.25.02-.33.05-.59.21-.79.47-.19.26-.27.59-.21.9.04.32.22.61.48.8.26.19.56.25.89.2s.6-.21.79-.48.26-.56.21-.89c-.04-.32-.21-.61-.48-.8-.2-.14-.42-.22-.66-.23h0ZM120.3,50.85c-.08,0-.16,0-.25.02-.33.05-.59.21-.79.47-.19.26-.27.59-.21.9.04.32.21.61.48.8.26.19.56.26.89.2.32-.04.61-.22.8-.48.19-.27.26-.56.21-.89-.04-.32-.22-.61-.48-.8-.19-.14-.42-.22-.66-.23h0ZM207.19,56.17l-2.72.43-2.84,1.17.4,2.54,2.82-1.19,1.45,9.26-3.15.49.39,2.48,9.04-1.42-.39-2.48-3.15.49-1.84-11.78h0ZM194.42,57.98c-.27,0-.56.02-.86.07-1.57.25-2.65,1.05-3.24,2.41-.59,1.35-.69,3.26-.31,5.73s1.07,4.25,2.04,5.37c.98,1.11,2.25,1.54,3.82,1.29s2.67-1.04,3.26-2.4.69-3.26.3-5.73-1.07-4.27-2.05-5.38c-.79-.9-1.79-1.35-2.98-1.36h0ZM183.64,59.86l-2.72.43-2.84,1.17.4,2.54,2.82-1.18,1.45,9.25-3.15.49.39,2.48,9.04-1.42-.39-2.48-3.15.49-1.84-11.78h0ZM194.18,60.41c.55,0,1.01.33,1.38.99.42.75.77,2,1.05,3.75s.32,3.04.15,3.88-.59,1.31-1.24,1.42-1.19-.22-1.61-.97-.77-2-1.04-3.74-.33-3.05-.15-3.89.59-1.31,1.24-1.42c.08-.01.16-.02.24-.02h0ZM170.87,61.66c-.27,0-.56.02-.86.07-1.57.25-2.65,1.05-3.24,2.41-.59,1.35-.69,3.26-.3,5.73s1.07,4.25,2.04,5.37c.98,1.11,2.25,1.54,3.82,1.29s2.66-1.05,3.25-2.4.69-3.26.31-5.73-1.07-4.27-2.05-5.37c-.74-.87-1.83-1.37-2.97-1.36h0ZM160.08,63.55l-2.72.43-2.84,1.17.4,2.54,2.82-1.19,1.45,9.26-3.15.49.39,2.48,9.05-1.42-.39-2.48-3.15.49-1.85-11.78h0ZM170.63,64.1c.55,0,1.01.33,1.38.99.42.75.77,2,1.05,3.75s.32,3.04.15,3.88-.59,1.32-1.25,1.42-1.19-.22-1.61-.97-.77-2-1.05-3.74-.32-3.05-.15-3.89.59-1.32,1.24-1.42c.08-.01.16-.02.24-.02h0ZM194.79,64.24c-.08,0-.16,0-.25.02-.33.05-.59.21-.79.47-.19.26-.27.59-.21.9.04.32.21.61.48.8.26.19.56.26.89.2.32-.04.61-.21.8-.48.19-.27.26-.56.21-.89-.04-.32-.22-.61-.48-.8-.19-.14-.42-.22-.66-.23h0ZM148.31,65.4l-2.72.43-2.84,1.17.4,2.54,2.82-1.19,1.45,9.26-3.15.49.39,2.48,9.04-1.42-.39-2.48-3.15.49-1.84-11.78h0ZM135.54,67.2c-.27,0-.56.02-.86.07-1.57.25-2.65,1.05-3.24,2.41-.59,1.35-.69,3.26-.3,5.73s1.07,4.25,2.04,5.37c.98,1.11,2.25,1.54,3.82,1.29s2.67-1.04,3.26-2.4.69-3.26.3-5.73-1.07-4.27-2.05-5.38c-.79-.9-1.79-1.35-2.98-1.36h0ZM171.23,67.93c-.08,0-.17,0-.25.02-.32.04-.6.22-.79.48-.19.26-.27.59-.21.9.05.34.21.6.48.79.26.19.56.26.89.2s.6-.21.79-.48.26-.56.21-.89c-.04-.32-.21-.61-.48-.8-.2-.14-.42-.22-.66-.23h0ZM123.76,69.04c-.27,0-.56.02-.86.07-1.57.25-2.65,1.05-3.24,2.41-.59,1.35-.69,3.26-.3,5.73s1.07,4.25,2.04,5.37c.98,1.11,2.25,1.54,3.82,1.29s2.67-1.05,3.26-2.4.69-3.26.31-5.73-1.07-4.27-2.05-5.37c-.74-.87-1.83-1.37-2.97-1.36h0ZM135.3,69.63c.55,0,1.01.33,1.38.99.42.75.77,2,1.05,3.75s.32,3.04.15,3.88-.59,1.32-1.25,1.42-1.19-.22-1.61-.97-.77-2-1.04-3.74-.33-3.05-.15-3.89.59-1.31,1.24-1.42c.08-.01.16-.02.24-.02ZM123.52,71.48c.55,0,1.01.33,1.38.99.42.75.77,2,1.05,3.75s.32,3.04.15,3.88-.59,1.32-1.25,1.42-1.19-.22-1.61-.97-.77-2-1.05-3.74-.32-3.05-.15-3.89.59-1.31,1.24-1.42c.08-.01.16-.02.24-.02ZM135.9,73.46c-.08,0-.16,0-.25.02-.33.05-.59.21-.79.47-.19.26-.27.59-.21.9.04.32.21.61.48.8.26.19.56.26.89.2.32-.04.61-.21.8-.48.19-.27.26-.56.21-.89-.04-.32-.21-.61-.48-.8-.2-.14-.42-.22-.66-.23h0ZM124.13,75.3c-.08,0-.16,0-.25.02-.32.04-.6.22-.79.48-.19.27-.26.56-.21.9.04.32.21.61.48.8.26.19.56.25.89.2s.6-.21.79-.48.26-.56.21-.89c-.04-.32-.21-.61-.48-.8-.2-.14-.42-.22-.66-.23h0ZM211.02,80.63l-2.72.43-2.84,1.17.4,2.54,2.82-1.18,1.45,9.25-3.15.49.39,2.48,9.04-1.42-.39-2.48-3.15.49-1.84-11.78h0ZM199.24,82.47l-2.72.43-2.84,1.17.4,2.54,2.82-1.18,1.45,9.25-3.15.49.39,2.48,9.04-1.42-.39-2.48-3.15.49-1.84-11.78h0ZM186.48,84.27c-.27,0-.56.02-.86.07-1.57.25-2.65,1.05-3.24,2.41-.59,1.35-.69,3.26-.31,5.73s1.07,4.25,2.04,5.37c.98,1.11,2.25,1.54,3.82,1.29s2.66-1.05,3.25-2.4.69-3.26.31-5.73-1.07-4.27-2.05-5.38c-.79-.9-1.79-1.35-2.98-1.36h0ZM174.7,86.12c-.27,0-.56.02-.86.07-1.57.25-2.65,1.05-3.24,2.41-.59,1.35-.69,3.26-.31,5.73s1.07,4.25,2.04,5.37c.98,1.11,2.25,1.54,3.82,1.29s2.66-1.05,3.25-2.4.69-3.26.31-5.73-1.07-4.27-2.05-5.38c-.79-.9-1.79-1.35-2.98-1.36h0ZM186.23,86.71c.55,0,1.01.33,1.38.99.42.75.77,2,1.05,3.75s.32,3.04.15,3.88-.59,1.32-1.25,1.42-1.19-.22-1.61-.97-.77-2-1.05-3.74-.32-3.05-.15-3.89.59-1.32,1.24-1.42c.08-.01.16-.02.24-.02h0ZM163.91,88l-2.72.43-2.84,1.17.4,2.54,2.82-1.19,1.45,9.26-3.15.49.39,2.48,9.04-1.42-.39-2.48-3.15.49-1.84-11.78h0ZM174.46,88.55c.55,0,1.01.33,1.38.99.42.75.77,2,1.05,3.75s.32,3.04.15,3.88-.59,1.32-1.25,1.42-1.19-.22-1.61-.97-.77-2-1.05-3.74-.33-3.05-.15-3.89.59-1.31,1.24-1.42c.08-.01.16-.02.24-.02h0ZM151.14,89.81c-.29,0-.57.02-.86.07-1.57.25-2.65,1.05-3.24,2.41-.59,1.35-.69,3.26-.3,5.73s1.07,4.25,2.04,5.37c.98,1.11,2.25,1.54,3.82,1.29s2.67-1.05,3.26-2.4.69-3.26.3-5.73-1.07-4.27-2.05-5.38c-.74-.87-1.83-1.37-2.97-1.36h0ZM186.84,90.53c-.08,0-.16,0-.25.02-.33.05-.59.21-.79.47s-.26.57-.21.9.21.6.48.79c.26.19.56.26.89.2.32-.04.61-.21.8-.48.19-.27.26-.56.21-.89-.04-.32-.21-.61-.48-.8-.2-.14-.42-.22-.66-.23h0ZM139.37,91.65c-.27,0-.56.02-.86.07-1.57.25-2.65,1.05-3.24,2.41-.59,1.35-.69,3.26-.31,5.73s1.07,4.25,2.04,5.37c.98,1.11,2.25,1.54,3.82,1.29s2.66-1.05,3.25-2.4.69-3.26.31-5.73-1.07-4.27-2.05-5.37c-.74-.87-1.83-1.37-2.97-1.36h0ZM150.9,92.24c.55,0,1.01.33,1.38.99.42.75.77,2,1.05,3.75s.32,3.04.15,3.88-.59,1.32-1.25,1.42-1.19-.22-1.61-.97-.77-2-1.04-3.74-.32-3.05-.15-3.89c.17-.84.59-1.31,1.24-1.42.08-.01.16-.02.24-.02ZM175.06,92.38c-.08,0-.16,0-.25.02-.33.05-.59.21-.79.47-.19.26-.27.59-.21.9.04.32.21.61.48.8.26.19.56.25.89.2.32-.04.61-.21.8-.48.19-.27.26-.56.21-.89s-.21-.6-.48-.79c-.2-.14-.42-.22-.66-.23h0ZM128.58,93.54l-2.72.43-2.84,1.17.4,2.54,2.82-1.19,1.45,9.26-3.15.49.39,2.48,9.05-1.42-.39-2.48-3.15.49-1.84-11.78h0ZM139.13,94.09c.55,0,1.01.33,1.38.99.42.75.77,2,1.05,3.75s.32,3.04.15,3.88-.59,1.32-1.25,1.42-1.19-.22-1.61-.97-.77-2-1.05-3.74-.32-3.05-.15-3.89.59-1.32,1.24-1.42c.08-.01.16-.02.24-.02h0ZM151.51,96.07c-.08,0-.17,0-.25.02-.32.04-.6.22-.79.48-.19.27-.26.56-.21.9.04.32.21.61.48.8.26.19.56.25.89.2s.6-.21.79-.48.26-.56.21-.89c-.04-.32-.21-.61-.48-.8-.2-.14-.42-.22-.66-.23h0ZM139.73,97.91c-.08,0-.17,0-.25.02-.32.04-.6.22-.79.48-.19.26-.27.59-.21.9.05.34.21.6.48.79.26.19.56.26.89.2s.6-.21.79-.48.26-.56.21-.89c-.04-.32-.21-.61-.48-.8-.2-.14-.42-.22-.66-.23h0Z"/>
    </g>
    <path class="st52" d="M219.46,135.09c-26.79,21.98-41.81,21.01-38.07,13.14s42.33-41.65,51.45-43.75,2.27,18.04-13.37,30.61Z"/>
  </g>
  <g>
    <path d="M321.39,177.19c-8.58,0-16.26-2.03-23.04-6.1-6.78-4.07-12.12-9.91-16-17.54-3.89-7.62-5.83-16.73-5.83-27.31s1.94-19.75,5.83-27.38c3.89-7.62,9.22-13.48,16-17.57,6.78-4.09,14.46-6.14,23.04-6.14s16.24,2.05,22.97,6.14c6.74,4.09,12.05,9.95,15.94,17.57,3.89,7.63,5.83,16.75,5.83,27.38s-1.95,19.69-5.83,27.31c-3.89,7.63-9.2,13.47-15.94,17.54-6.74,4.07-14.39,6.1-22.97,6.1ZM321.39,163.32c5.65,0,10.7-1.41,15.17-4.23,4.47-2.82,8-7,10.6-12.54,2.6-5.54,3.9-12.3,3.9-20.31s-1.3-14.9-3.9-20.44c-2.6-5.54-6.14-9.71-10.6-12.54-4.47-2.82-9.53-4.23-15.17-4.23s-10.78,1.42-15.27,4.27c-4.49,2.85-8.04,7.04-10.64,12.57s-3.9,12.33-3.9,20.37,1.3,14.76,3.9,20.27,6.15,9.69,10.64,12.54c4.49,2.85,9.58,4.27,15.27,4.27Z"/>
    <path d="M383.54,203.74v-102.43h14.27v12.14h1.2c.89-1.56,2.12-3.36,3.7-5.4,1.58-2.04,3.78-3.83,6.6-5.37s6.57-2.3,11.24-2.3c5.96,0,11.28,1.51,15.97,4.53,4.69,3.02,8.39,7.4,11.1,13.14s4.07,12.65,4.07,20.74-1.33,14.88-4,20.64c-2.67,5.76-6.35,10.18-11.04,13.27-4.69,3.09-10.06,4.63-16.11,4.63-4.49,0-8.17-.77-11.04-2.3-2.87-1.53-5.11-3.32-6.74-5.37-1.62-2.04-2.88-3.87-3.77-5.47h-.8v39.55h-14.67ZM417.29,164.86c4.27,0,7.85-1.16,10.74-3.47,2.89-2.31,5.06-5.45,6.5-9.4,1.44-3.96,2.17-8.4,2.17-13.34s-.72-9.28-2.17-13.17c-1.45-3.89-3.6-6.97-6.47-9.24-2.87-2.27-6.46-3.4-10.77-3.4s-7.71,1.08-10.6,3.23c-2.89,2.16-5.07,5.16-6.54,9-1.47,3.85-2.2,8.37-2.2,13.57s.74,9.7,2.23,13.64c1.49,3.93,3.68,7.01,6.57,9.24,2.89,2.22,6.4,3.33,10.54,3.33Z"/>
    <path d="M500.11,177.39c-7.34,0-13.67-1.58-19.01-4.73-5.33-3.16-9.44-7.6-12.3-13.34-2.87-5.74-4.3-12.47-4.3-20.21s1.41-14.38,4.23-20.21c2.82-5.82,6.81-10.37,11.97-13.64,5.16-3.27,11.2-4.9,18.14-4.9,4.27,0,8.38.7,12.34,2.1,3.96,1.4,7.51,3.59,10.67,6.57,3.16,2.98,5.66,6.84,7.5,11.57,1.84,4.73,2.77,10.48,2.77,17.24v5.2h-59.42v-10.94h51.88l-6.87,3.6c0-4.58-.71-8.61-2.13-12.1-1.42-3.49-3.52-6.21-6.3-8.17-2.78-1.96-6.26-2.93-10.44-2.93s-7.67,1-10.6,3c-2.93,2-5.17,4.63-6.7,7.9-1.53,3.27-2.3,6.84-2.3,10.7v7.47c0,5.11.88,9.44,2.63,12.97,1.76,3.54,4.21,6.2,7.37,8,3.16,1.8,6.82,2.7,11,2.7,2.76,0,5.25-.39,7.47-1.17,2.22-.78,4.15-1.96,5.77-3.54,1.62-1.58,2.86-3.52,3.7-5.83l13.8,3.27c-1.2,3.82-3.21,7.2-6.04,10.14-2.82,2.93-6.34,5.21-10.54,6.84s-8.97,2.43-14.3,2.43Z"/>
    <path d="M562.87,131.71v44.15h-14.67v-74.56h14l.13,18.27h-1.53c2.18-6.67,5.33-11.54,9.47-14.6,4.13-3.07,9.14-4.6,15-4.6,5.07,0,9.49,1.07,13.27,3.2,3.78,2.13,6.74,5.28,8.87,9.44,2.13,4.16,3.2,9.33,3.2,15.51v47.35h-14.67v-45.55c0-5.38-1.4-9.58-4.2-12.6-2.8-3.02-6.65-4.53-11.54-4.53-3.29,0-6.25.72-8.87,2.17-2.62,1.45-4.69,3.55-6.2,6.3-1.51,2.76-2.27,6.11-2.27,10.07Z"/>
    <path d="M664.83,177.53c-7.42,0-13.87-1.18-19.34-3.53-5.47-2.36-9.75-5.72-12.84-10.1-3.09-4.38-4.79-9.59-5.1-15.64h15.27c.31,3.6,1.48,6.58,3.5,8.94,2.02,2.36,4.66,4.11,7.9,5.27,3.25,1.16,6.76,1.73,10.54,1.73,4.22,0,7.97-.66,11.24-1.97,3.27-1.31,5.86-3.18,7.77-5.6,1.91-2.42,2.87-5.23,2.87-8.44,0-2.89-.83-5.26-2.5-7.1-1.67-1.84-3.91-3.38-6.74-4.6-2.82-1.22-6.04-2.3-9.64-3.23l-11.6-3.2c-8.14-2.18-14.48-5.4-19.04-9.67-4.56-4.27-6.84-9.8-6.84-16.61,0-5.73,1.54-10.75,4.64-15.04,3.09-4.29,7.29-7.62,12.6-10,5.31-2.38,11.3-3.57,17.97-3.57s12.79,1.19,17.97,3.57c5.18,2.38,9.25,5.64,12.2,9.77,2.96,4.13,4.5,8.85,4.63,14.14h-14.8c-.49-4.54-2.59-8.05-6.3-10.54-3.71-2.49-8.39-3.73-14.04-3.73-4,0-7.48.62-10.44,1.87-2.96,1.25-5.25,2.97-6.87,5.17-1.62,2.2-2.43,4.7-2.43,7.5,0,3.16.97,5.7,2.9,7.64,1.93,1.93,4.29,3.47,7.07,4.6s5.44,2.03,7.97,2.7l9.67,2.53c3.16.8,6.41,1.88,9.77,3.23,3.36,1.36,6.46,3.11,9.3,5.27,2.84,2.16,5.15,4.83,6.9,8,1.76,3.18,2.63,7.01,2.63,11.5,0,5.6-1.45,10.6-4.33,15-2.89,4.4-7.08,7.86-12.57,10.37-5.49,2.51-12.13,3.77-19.91,3.77Z"/>
    <path d="M750.46,101.3v11.94h-40.41v-11.94h40.41ZM720.92,83.56h14.67v72.16c0,2.98.63,5.17,1.9,6.57,1.27,1.4,3.34,2.1,6.24,2.1.75,0,1.76-.09,3-.27,1.24-.18,2.31-.36,3.2-.53l2.6,11.74c-1.56.53-3.22.92-5,1.17-1.78.24-3.53.37-5.27.37-6.76,0-12-1.74-15.74-5.24-3.73-3.49-5.6-8.39-5.6-14.7v-73.36Z"/>
    <path d="M765.07,175.86v-74.56h14.2v12h.8c1.38-4.09,3.78-7.29,7.2-9.6,3.42-2.31,7.31-3.47,11.67-3.47.93,0,2,.03,3.2.1,1.2.07,2.2.17,3,.3v14c-.53-.18-1.56-.36-3.07-.53-1.51-.18-3.05-.27-4.6-.27-3.38,0-6.42.71-9.14,2.13-2.71,1.42-4.83,3.39-6.34,5.9-1.51,2.51-2.27,5.41-2.27,8.7v45.28h-14.67Z"/>
    <path d="M847.43,177.39c-7.34,0-13.67-1.58-19.01-4.73-5.33-3.16-9.44-7.6-12.3-13.34-2.87-5.74-4.3-12.47-4.3-20.21s1.41-14.38,4.23-20.21c2.82-5.82,6.81-10.37,11.97-13.64,5.16-3.27,11.2-4.9,18.14-4.9,4.27,0,8.38.7,12.34,2.1,3.96,1.4,7.51,3.59,10.67,6.57,3.16,2.98,5.66,6.84,7.5,11.57,1.84,4.73,2.77,10.48,2.77,17.24v5.2h-59.42v-10.94h51.88l-6.87,3.6c0-4.58-.71-8.61-2.13-12.1-1.42-3.49-3.52-6.21-6.3-8.17-2.78-1.96-6.26-2.93-10.44-2.93s-7.67,1-10.6,3c-2.93,2-5.17,4.63-6.7,7.9-1.53,3.27-2.3,6.84-2.3,10.7v7.47c0,5.11.88,9.44,2.63,12.97,1.76,3.54,4.21,6.2,7.37,8,3.16,1.8,6.82,2.7,11,2.7,2.76,0,5.25-.39,7.47-1.17,2.22-.78,4.15-1.96,5.77-3.54,1.62-1.58,2.86-3.52,3.7-5.83l13.8,3.27c-1.2,3.82-3.21,7.2-6.04,10.14-2.82,2.93-6.34,5.21-10.54,6.84s-8.97,2.43-14.3,2.43Z"/>
    <path d="M927.65,177.39c-7.34,0-13.67-1.58-19.01-4.73-5.33-3.16-9.44-7.6-12.3-13.34-2.87-5.74-4.3-12.47-4.3-20.21s1.41-14.38,4.23-20.21c2.82-5.82,6.81-10.37,11.97-13.64,5.16-3.27,11.2-4.9,18.14-4.9,4.27,0,8.38.7,12.34,2.1,3.96,1.4,7.51,3.59,10.67,6.57,3.16,2.98,5.66,6.84,7.5,11.57,1.84,4.73,2.77,10.48,2.77,17.24v5.2h-59.42v-10.94h51.88l-6.87,3.6c0-4.58-.71-8.61-2.13-12.1-1.42-3.49-3.52-6.21-6.3-8.17-2.78-1.96-6.26-2.93-10.44-2.93s-7.67,1-10.6,3c-2.93,2-5.17,4.63-6.7,7.9-1.53,3.27-2.3,6.84-2.3,10.7v7.47c0,5.11.88,9.44,2.63,12.97,1.76,3.54,4.21,6.2,7.37,8,3.16,1.8,6.82,2.7,11,2.7,2.76,0,5.25-.39,7.47-1.17,2.22-.78,4.15-1.96,5.77-3.54,1.62-1.58,2.86-3.52,3.7-5.83l13.8,3.27c-1.2,3.82-3.21,7.2-6.04,10.14-2.82,2.93-6.34,5.21-10.54,6.84s-8.97,2.43-14.3,2.43Z"/>
    <path d="M1007.61,101.3v11.94h-40.41v-11.94h40.41ZM978.07,83.56h14.67v72.16c0,2.98.63,5.17,1.9,6.57,1.27,1.4,3.34,2.1,6.24,2.1.75,0,1.76-.09,3-.27,1.24-.18,2.31-.36,3.2-.53l2.6,11.74c-1.56.53-3.22.92-5,1.17-1.78.24-3.53.37-5.27.37-6.76,0-12-1.74-15.74-5.24-3.73-3.49-5.6-8.39-5.6-14.7v-73.36Z"/>
    <path d="M1023.48,175.86v-99.37h22.41l21.67,57.02c.62,1.69,1.32,3.82,2.1,6.4.78,2.58,1.59,5.38,2.43,8.4.84,3.02,1.64,6,2.4,8.94.75,2.93,1.42,5.58,2,7.94h-3.2c.58-2.22,1.24-4.79,2-7.7.76-2.91,1.56-5.88,2.4-8.9.84-3.02,1.67-5.87,2.47-8.54.8-2.67,1.51-4.85,2.13-6.54l21.34-57.02h22.54v99.37h-15.14v-53.48c0-2.04.02-4.49.07-7.34.04-2.84.1-5.86.17-9.04.07-3.18.13-6.39.2-9.64.07-3.24.12-6.36.17-9.34h1.13c-.89,3.25-1.86,6.59-2.9,10.04-1.04,3.45-2.07,6.77-3.07,9.97-1,3.2-1.96,6.12-2.87,8.77-.91,2.65-1.68,4.83-2.3,6.57l-20.34,53.48h-13l-20.61-53.48c-.67-1.69-1.43-3.83-2.3-6.44-.87-2.6-1.81-5.49-2.83-8.67-1.02-3.18-2.07-6.49-3.13-9.94-1.07-3.44-2.13-6.88-3.2-10.3h1.33c.09,2.71.17,5.66.23,8.84.07,3.18.13,6.39.2,9.64.07,3.25.13,6.33.2,9.24.07,2.91.1,5.46.1,7.64v53.48h-14.8Z"/>
    <path d="M1167.86,177.53c-4.71,0-8.98-.88-12.8-2.63-3.82-1.76-6.85-4.32-9.07-7.7-2.22-3.38-3.33-7.51-3.33-12.4,0-4.22.81-7.69,2.43-10.4,1.62-2.71,3.82-4.87,6.6-6.47,2.78-1.6,5.87-2.8,9.27-3.6,3.4-.8,6.86-1.4,10.37-1.8,4.4-.53,7.98-.97,10.74-1.3,2.76-.33,4.79-.89,6.1-1.67,1.31-.78,1.97-2.03,1.97-3.77v-.4c0-2.8-.53-5.16-1.6-7.07-1.07-1.91-2.66-3.39-4.77-4.43-2.11-1.04-4.75-1.57-7.9-1.57s-6.04.5-8.37,1.5c-2.33,1-4.22,2.28-5.67,3.83-1.45,1.56-2.52,3.18-3.23,4.87l-13.8-3.6c1.69-4.45,4.11-8.02,7.27-10.74,3.16-2.71,6.78-4.69,10.87-5.94,4.09-1.24,8.31-1.87,12.67-1.87,3.02,0,6.22.36,9.6,1.07,3.38.71,6.56,2,9.54,3.87,2.98,1.87,5.4,4.49,7.27,7.87,1.87,3.38,2.8,7.78,2.8,13.2v49.48h-14.2v-10.2h-.73c-.98,1.91-2.42,3.78-4.33,5.6-1.91,1.82-4.32,3.32-7.24,4.5-2.91,1.18-6.39,1.77-10.44,1.77ZM1171.13,165.72c4,0,7.42-.78,10.27-2.33,2.84-1.56,5.02-3.62,6.54-6.2,1.51-2.58,2.27-5.31,2.27-8.2v-9.54c-.53.53-1.54,1.01-3.03,1.43-1.49.42-3.19.8-5.1,1.13-1.91.33-3.76.61-5.54.83-1.78.22-3.25.4-4.4.53-2.76.36-5.28.96-7.57,1.8-2.29.84-4.11,2.04-5.47,3.6-1.36,1.56-2.03,3.62-2.03,6.2,0,2.36.61,4.33,1.83,5.94s2.88,2.8,4.97,3.6c2.09.8,4.51,1.2,7.27,1.2Z"/>
    <path d="M1224.55,203.74v-102.43h14.27v12.14h1.2c.89-1.56,2.12-3.36,3.7-5.4,1.58-2.04,3.78-3.83,6.6-5.37s6.57-2.3,11.24-2.3c5.96,0,11.28,1.51,15.97,4.53,4.69,3.02,8.39,7.4,11.1,13.14s4.07,12.65,4.07,20.74-1.33,14.88-4,20.64c-2.67,5.76-6.35,10.18-11.04,13.27-4.69,3.09-10.06,4.63-16.11,4.63-4.49,0-8.17-.77-11.04-2.3-2.87-1.53-5.11-3.32-6.74-5.37-1.62-2.04-2.88-3.87-3.77-5.47h-.8v39.55h-14.67ZM1258.29,164.86c4.27,0,7.85-1.16,10.74-3.47,2.89-2.31,5.06-5.45,6.5-9.4,1.44-3.96,2.17-8.4,2.17-13.34s-.72-9.28-2.17-13.17c-1.45-3.89-3.6-6.97-6.47-9.24-2.87-2.27-6.46-3.4-10.77-3.4s-7.71,1.08-10.6,3.23c-2.89,2.16-5.07,5.16-6.54,9-1.47,3.85-2.2,8.37-2.2,13.57s.74,9.7,2.23,13.64c1.49,3.93,3.68,7.01,6.57,9.24,2.89,2.22,6.4,3.33,10.54,3.33Z"/>
  </g>
</svg>